G04 #@! TF.GenerationSoftware,KiCad,Pcbnew,5.1.5+dfsg1-2build2*
G04 #@! TF.CreationDate,2020-11-18T17:14:58+00:00*
G04 #@! TF.ProjectId,picodvi,7069636f-6476-4692-9e6b-696361645f70,rev?*
G04 #@! TF.SameCoordinates,Original*
G04 #@! TF.FileFunction,Copper,L2,Inr*
G04 #@! TF.FilePolarity,Positive*
%FSLAX46Y46*%
G04 Gerber Fmt 4.6, Leading zero omitted, Abs format (unit mm)*
G04 Created by KiCad (PCBNEW 5.1.5+dfsg1-2build2) date 2020-11-18 17:14:58*
%MOMM*%
%LPD*%
G04 APERTURE LIST*
%ADD10O,1.700000X1.700000*%
%ADD11R,1.700000X1.700000*%
%ADD12C,1.900000*%
%ADD13C,1.450000*%
%ADD14O,1.900000X1.200000*%
%ADD15C,0.450000*%
%ADD16C,0.200000*%
G04 APERTURE END LIST*
D10*
X229854760Y-110591600D03*
X229854760Y-108051600D03*
X232394760Y-110591600D03*
X232394760Y-108051600D03*
X234934760Y-110591600D03*
X234934760Y-108051600D03*
X237474760Y-110591600D03*
X237474760Y-108051600D03*
X240014760Y-110591600D03*
X240014760Y-108051600D03*
X242554760Y-110591600D03*
D11*
X242554760Y-108051600D03*
X233745000Y-86500000D03*
D10*
X236285000Y-86500000D03*
X238825000Y-86500000D03*
X241365000Y-86500000D03*
X243905000Y-86500000D03*
D12*
X247400000Y-90650000D03*
X247400000Y-106350000D03*
X242500000Y-91250000D03*
X242500000Y-105750000D03*
D13*
X204212500Y-95000000D03*
X204212500Y-100000000D03*
D14*
X201512500Y-94000000D03*
X201512500Y-101000000D03*
D11*
X219684600Y-108051600D03*
D10*
X219684600Y-110591600D03*
X217144600Y-108051600D03*
X217144600Y-110591600D03*
X214604600Y-108051600D03*
X214604600Y-110591600D03*
X212064600Y-108051600D03*
X212064600Y-110591600D03*
X209524600Y-108051600D03*
X209524600Y-110591600D03*
X206984600Y-108051600D03*
X206984600Y-110591600D03*
D11*
X224917000Y-110744000D03*
D10*
X224917000Y-113284000D03*
D15*
X233450000Y-95100000D03*
X233950000Y-97100000D03*
X228050000Y-96600000D03*
X226600000Y-96550000D03*
X231250000Y-101100000D03*
X230900000Y-93600000D03*
X231250000Y-100200000D03*
X229400000Y-98150000D03*
X213850000Y-95700000D03*
X213050000Y-95700000D03*
X236800000Y-103600000D03*
X205270000Y-103280000D03*
X222340000Y-100740000D03*
X222330000Y-101330000D03*
X213650000Y-90100000D03*
X221410000Y-106250000D03*
X231500000Y-96250000D03*
X242850000Y-94250000D03*
X242850000Y-95750000D03*
X242850000Y-97250000D03*
X242850000Y-98750000D03*
X240500000Y-101750000D03*
X243000000Y-101750000D03*
X230250000Y-95500000D03*
X231000000Y-96750000D03*
X232250000Y-97500000D03*
X206750000Y-97200000D03*
X207500000Y-97950000D03*
X213050000Y-97900000D03*
X213850000Y-97900000D03*
X235250000Y-99350000D03*
X232000000Y-101800000D03*
X230670000Y-101780000D03*
X238700000Y-107520000D03*
X223140000Y-103190000D03*
X221490000Y-102780000D03*
X238260000Y-92250000D03*
X237300000Y-91120000D03*
X238130000Y-90310000D03*
X232100000Y-88640000D03*
X233930000Y-92810000D03*
X228760000Y-91320000D03*
X227440000Y-92570000D03*
X217870000Y-92850000D03*
X237300000Y-100550000D03*
X249500000Y-88500000D03*
X246500000Y-85500000D03*
X203500000Y-85500000D03*
X200500000Y-88500000D03*
X200500000Y-111500000D03*
X203500000Y-114500000D03*
X246500000Y-114500000D03*
X249500000Y-111500000D03*
X225900000Y-95850000D03*
X226050000Y-97300000D03*
X210450000Y-97150000D03*
X210450000Y-98100000D03*
X224150000Y-97750000D03*
X224350000Y-99800000D03*
X220900000Y-99450000D03*
X226950000Y-105100000D03*
X236150000Y-111150000D03*
X238550000Y-111350000D03*
X240600000Y-111750000D03*
X222200000Y-97750000D03*
X218100000Y-97200000D03*
X216750000Y-98400000D03*
X235450000Y-106800000D03*
X241050000Y-107300000D03*
X240375000Y-94250000D03*
X240375000Y-95750000D03*
X240375000Y-97250000D03*
X240375000Y-98750000D03*
X239725000Y-99600000D03*
X238200000Y-100750000D03*
X239740000Y-93470000D03*
X235220000Y-93870000D03*
X236910000Y-92910000D03*
X235500000Y-91720000D03*
X220210000Y-109340000D03*
X217880000Y-109110000D03*
X215300000Y-109150000D03*
X215990000Y-105550000D03*
X212770000Y-109140000D03*
X220590000Y-106160000D03*
X225640000Y-105070000D03*
X225640000Y-100920000D03*
X222080000Y-106290000D03*
X231380000Y-89400000D03*
X223140000Y-101200000D03*
X223140000Y-104800000D03*
X232760748Y-94135960D03*
X228450000Y-97350000D03*
X230300000Y-99200000D03*
X229899992Y-98849992D03*
X232250000Y-93750000D03*
X228850000Y-97700000D03*
X209100000Y-95350000D03*
X209100000Y-98800008D03*
X240274970Y-102650000D03*
X205694939Y-96444939D03*
X221600000Y-98310000D03*
X206105061Y-96855061D03*
X221600000Y-98890000D03*
X232449924Y-103250000D03*
X232747577Y-103940827D03*
X232836118Y-104534271D03*
X232636352Y-105113951D03*
X216460000Y-106520000D03*
X216640000Y-105599992D03*
X218390000Y-106060000D03*
X217230000Y-105149982D03*
X219120033Y-104650000D03*
X217620000Y-104530000D03*
X237810000Y-101430000D03*
X211200000Y-90100000D03*
X231789782Y-93250010D03*
X221330000Y-103610000D03*
X214900000Y-90949996D03*
X228364132Y-92138145D03*
X206100000Y-91650000D03*
X239515574Y-101310625D03*
X229442458Y-91773935D03*
X240122355Y-101280994D03*
X229836335Y-91321304D03*
X228964140Y-92136186D03*
D16*
G36*
X232727523Y-85399353D02*
G01*
X232681842Y-85436842D01*
X232644353Y-85482523D01*
X232616496Y-85534640D01*
X232599341Y-85591190D01*
X232593549Y-85650000D01*
X232593549Y-87350000D01*
X232599341Y-87408810D01*
X232616496Y-87465360D01*
X232644353Y-87517477D01*
X232681842Y-87563158D01*
X232727523Y-87600647D01*
X232779640Y-87628504D01*
X232836190Y-87645659D01*
X232895000Y-87651451D01*
X234595000Y-87651451D01*
X234653810Y-87645659D01*
X234710360Y-87628504D01*
X234762477Y-87600647D01*
X234808158Y-87563158D01*
X234845647Y-87517477D01*
X234873504Y-87465360D01*
X234890659Y-87408810D01*
X234896451Y-87350000D01*
X234896451Y-85650000D01*
X234890659Y-85591190D01*
X234873504Y-85534640D01*
X234845647Y-85482523D01*
X234808158Y-85436842D01*
X234762477Y-85399353D01*
X234716916Y-85375000D01*
X236046052Y-85375000D01*
X235949557Y-85394194D01*
X235740271Y-85480884D01*
X235551918Y-85606737D01*
X235391737Y-85766918D01*
X235265884Y-85955271D01*
X235179194Y-86164557D01*
X235135000Y-86386735D01*
X235135000Y-86613265D01*
X235179194Y-86835443D01*
X235265884Y-87044729D01*
X235391737Y-87233082D01*
X235551918Y-87393263D01*
X235740271Y-87519116D01*
X235949557Y-87605806D01*
X236171735Y-87650000D01*
X236398265Y-87650000D01*
X236620443Y-87605806D01*
X236829729Y-87519116D01*
X237018082Y-87393263D01*
X237178263Y-87233082D01*
X237304116Y-87044729D01*
X237390806Y-86835443D01*
X237435000Y-86613265D01*
X237435000Y-86386735D01*
X237390806Y-86164557D01*
X237304116Y-85955271D01*
X237178263Y-85766918D01*
X237018082Y-85606737D01*
X236829729Y-85480884D01*
X236620443Y-85394194D01*
X236523948Y-85375000D01*
X238586052Y-85375000D01*
X238489557Y-85394194D01*
X238280271Y-85480884D01*
X238091918Y-85606737D01*
X237931737Y-85766918D01*
X237805884Y-85955271D01*
X237719194Y-86164557D01*
X237675000Y-86386735D01*
X237675000Y-86613265D01*
X237719194Y-86835443D01*
X237805884Y-87044729D01*
X237931737Y-87233082D01*
X238091918Y-87393263D01*
X238280271Y-87519116D01*
X238489557Y-87605806D01*
X238711735Y-87650000D01*
X238938265Y-87650000D01*
X239160443Y-87605806D01*
X239369729Y-87519116D01*
X239558082Y-87393263D01*
X239718263Y-87233082D01*
X239844116Y-87044729D01*
X239930806Y-86835443D01*
X239975000Y-86613265D01*
X239975000Y-86386735D01*
X239930806Y-86164557D01*
X239844116Y-85955271D01*
X239718263Y-85766918D01*
X239558082Y-85606737D01*
X239369729Y-85480884D01*
X239160443Y-85394194D01*
X239063948Y-85375000D01*
X241126052Y-85375000D01*
X241029557Y-85394194D01*
X240820271Y-85480884D01*
X240631918Y-85606737D01*
X240471737Y-85766918D01*
X240345884Y-85955271D01*
X240259194Y-86164557D01*
X240215000Y-86386735D01*
X240215000Y-86613265D01*
X240259194Y-86835443D01*
X240345884Y-87044729D01*
X240471737Y-87233082D01*
X240631918Y-87393263D01*
X240820271Y-87519116D01*
X241029557Y-87605806D01*
X241251735Y-87650000D01*
X241478265Y-87650000D01*
X241700443Y-87605806D01*
X241909729Y-87519116D01*
X242098082Y-87393263D01*
X242258263Y-87233082D01*
X242384116Y-87044729D01*
X242470806Y-86835443D01*
X242496842Y-86704549D01*
X242773337Y-86704549D01*
X242834987Y-86921395D01*
X242937757Y-87122047D01*
X243077698Y-87298794D01*
X243249431Y-87444844D01*
X243446357Y-87554584D01*
X243660909Y-87623797D01*
X243700451Y-87631662D01*
X243880000Y-87574709D01*
X243880000Y-86525000D01*
X243930000Y-86525000D01*
X243930000Y-87574709D01*
X244109549Y-87631662D01*
X244149091Y-87623797D01*
X244363643Y-87554584D01*
X244560569Y-87444844D01*
X244732302Y-87298794D01*
X244872243Y-87122047D01*
X244975013Y-86921395D01*
X245036663Y-86704549D01*
X244979729Y-86525000D01*
X243930000Y-86525000D01*
X243880000Y-86525000D01*
X242830271Y-86525000D01*
X242773337Y-86704549D01*
X242496842Y-86704549D01*
X242515000Y-86613265D01*
X242515000Y-86386735D01*
X242470806Y-86164557D01*
X242384116Y-85955271D01*
X242258263Y-85766918D01*
X242098082Y-85606737D01*
X241909729Y-85480884D01*
X241700443Y-85394194D01*
X241603948Y-85375000D01*
X243666957Y-85375000D01*
X243660909Y-85376203D01*
X243446357Y-85445416D01*
X243249431Y-85555156D01*
X243077698Y-85701206D01*
X242937757Y-85877953D01*
X242834987Y-86078605D01*
X242773337Y-86295451D01*
X242830271Y-86475000D01*
X243880000Y-86475000D01*
X243880000Y-86455000D01*
X243930000Y-86455000D01*
X243930000Y-86475000D01*
X244979729Y-86475000D01*
X245036663Y-86295451D01*
X244975013Y-86078605D01*
X244872243Y-85877953D01*
X244732302Y-85701206D01*
X244560569Y-85555156D01*
X244363643Y-85445416D01*
X244149091Y-85376203D01*
X244143043Y-85375000D01*
X246981662Y-85375000D01*
X247274500Y-85403713D01*
X246887453Y-85480702D01*
X246505277Y-85639004D01*
X246161328Y-85868823D01*
X245868823Y-86161328D01*
X245639004Y-86505277D01*
X245480702Y-86887453D01*
X245400000Y-87293168D01*
X245400000Y-87706832D01*
X245480702Y-88112547D01*
X245639004Y-88494723D01*
X245868823Y-88838672D01*
X246161328Y-89131177D01*
X246505277Y-89360996D01*
X246875477Y-89514337D01*
X246722531Y-89592320D01*
X246682085Y-89619343D01*
X246582738Y-89797383D01*
X247400000Y-90614645D01*
X248217262Y-89797383D01*
X248117915Y-89619343D01*
X247984624Y-89544744D01*
X248112547Y-89519298D01*
X248494723Y-89360996D01*
X248838672Y-89131177D01*
X249131177Y-88838672D01*
X249360996Y-88494723D01*
X249519298Y-88112547D01*
X249596237Y-87725748D01*
X249624995Y-87999360D01*
X249625000Y-88000733D01*
X249625001Y-111981652D01*
X249596287Y-112274500D01*
X249519298Y-111887453D01*
X249360996Y-111505277D01*
X249131177Y-111161328D01*
X248838672Y-110868823D01*
X248494723Y-110639004D01*
X248112547Y-110480702D01*
X247706832Y-110400000D01*
X247293168Y-110400000D01*
X246887453Y-110480702D01*
X246505277Y-110639004D01*
X246161328Y-110868823D01*
X245868823Y-111161328D01*
X245639004Y-111505277D01*
X245480702Y-111887453D01*
X245400000Y-112293168D01*
X245400000Y-112706832D01*
X245480702Y-113112547D01*
X245639004Y-113494723D01*
X245868823Y-113838672D01*
X246161328Y-114131177D01*
X246505277Y-114360996D01*
X246887453Y-114519298D01*
X247274252Y-114596237D01*
X247000640Y-114624995D01*
X246999267Y-114625000D01*
X203018337Y-114625000D01*
X202725500Y-114596287D01*
X203112547Y-114519298D01*
X203494723Y-114360996D01*
X203838672Y-114131177D01*
X204131177Y-113838672D01*
X204360996Y-113494723D01*
X204363553Y-113488549D01*
X223785338Y-113488549D01*
X223793203Y-113528091D01*
X223862416Y-113742643D01*
X223972156Y-113939569D01*
X224118206Y-114111302D01*
X224294953Y-114251243D01*
X224495605Y-114354013D01*
X224712451Y-114415663D01*
X224892000Y-114358729D01*
X224892000Y-113309000D01*
X224942000Y-113309000D01*
X224942000Y-114358729D01*
X225121549Y-114415663D01*
X225338395Y-114354013D01*
X225539047Y-114251243D01*
X225715794Y-114111302D01*
X225861844Y-113939569D01*
X225971584Y-113742643D01*
X226040797Y-113528091D01*
X226048662Y-113488549D01*
X225991709Y-113309000D01*
X224942000Y-113309000D01*
X224892000Y-113309000D01*
X223842291Y-113309000D01*
X223785338Y-113488549D01*
X204363553Y-113488549D01*
X204519298Y-113112547D01*
X204525881Y-113079451D01*
X223785338Y-113079451D01*
X223842291Y-113259000D01*
X224892000Y-113259000D01*
X224892000Y-112209271D01*
X224942000Y-112209271D01*
X224942000Y-113259000D01*
X225991709Y-113259000D01*
X226048662Y-113079451D01*
X226040797Y-113039909D01*
X225971584Y-112825357D01*
X225861844Y-112628431D01*
X225715794Y-112456698D01*
X225539047Y-112316757D01*
X225338395Y-112213987D01*
X225121549Y-112152337D01*
X224942000Y-112209271D01*
X224892000Y-112209271D01*
X224712451Y-112152337D01*
X224495605Y-112213987D01*
X224294953Y-112316757D01*
X224118206Y-112456698D01*
X223972156Y-112628431D01*
X223862416Y-112825357D01*
X223793203Y-113039909D01*
X223785338Y-113079451D01*
X204525881Y-113079451D01*
X204600000Y-112706832D01*
X204600000Y-112293168D01*
X204519298Y-111887453D01*
X204360996Y-111505277D01*
X204131177Y-111161328D01*
X203838672Y-110868823D01*
X203494723Y-110639004D01*
X203112547Y-110480702D01*
X203100648Y-110478335D01*
X205834600Y-110478335D01*
X205834600Y-110704865D01*
X205878794Y-110927043D01*
X205965484Y-111136329D01*
X206091337Y-111324682D01*
X206251518Y-111484863D01*
X206439871Y-111610716D01*
X206649157Y-111697406D01*
X206871335Y-111741600D01*
X207097865Y-111741600D01*
X207320043Y-111697406D01*
X207529329Y-111610716D01*
X207717682Y-111484863D01*
X207877863Y-111324682D01*
X208003716Y-111136329D01*
X208090406Y-110927043D01*
X208116442Y-110796149D01*
X208392937Y-110796149D01*
X208454587Y-111012995D01*
X208557357Y-111213647D01*
X208697298Y-111390394D01*
X208869031Y-111536444D01*
X209065957Y-111646184D01*
X209280509Y-111715397D01*
X209320051Y-111723262D01*
X209499600Y-111666309D01*
X209499600Y-110616600D01*
X209549600Y-110616600D01*
X209549600Y-111666309D01*
X209729149Y-111723262D01*
X209768691Y-111715397D01*
X209983243Y-111646184D01*
X210180169Y-111536444D01*
X210351902Y-111390394D01*
X210491843Y-111213647D01*
X210594613Y-111012995D01*
X210656263Y-110796149D01*
X210599329Y-110616600D01*
X209549600Y-110616600D01*
X209499600Y-110616600D01*
X208449871Y-110616600D01*
X208392937Y-110796149D01*
X208116442Y-110796149D01*
X208134600Y-110704865D01*
X208134600Y-110478335D01*
X208116443Y-110387051D01*
X208392937Y-110387051D01*
X208449871Y-110566600D01*
X209499600Y-110566600D01*
X209499600Y-109516891D01*
X209549600Y-109516891D01*
X209549600Y-110566600D01*
X210599329Y-110566600D01*
X210627317Y-110478335D01*
X210914600Y-110478335D01*
X210914600Y-110704865D01*
X210958794Y-110927043D01*
X211045484Y-111136329D01*
X211171337Y-111324682D01*
X211331518Y-111484863D01*
X211519871Y-111610716D01*
X211729157Y-111697406D01*
X211951335Y-111741600D01*
X212177865Y-111741600D01*
X212400043Y-111697406D01*
X212609329Y-111610716D01*
X212797682Y-111484863D01*
X212957863Y-111324682D01*
X213083716Y-111136329D01*
X213170406Y-110927043D01*
X213214600Y-110704865D01*
X213214600Y-110478335D01*
X213454600Y-110478335D01*
X213454600Y-110704865D01*
X213498794Y-110927043D01*
X213585484Y-111136329D01*
X213711337Y-111324682D01*
X213871518Y-111484863D01*
X214059871Y-111610716D01*
X214269157Y-111697406D01*
X214491335Y-111741600D01*
X214717865Y-111741600D01*
X214940043Y-111697406D01*
X215149329Y-111610716D01*
X215337682Y-111484863D01*
X215497863Y-111324682D01*
X215623716Y-111136329D01*
X215710406Y-110927043D01*
X215754600Y-110704865D01*
X215754600Y-110478335D01*
X215994600Y-110478335D01*
X215994600Y-110704865D01*
X216038794Y-110927043D01*
X216125484Y-111136329D01*
X216251337Y-111324682D01*
X216411518Y-111484863D01*
X216599871Y-111610716D01*
X216809157Y-111697406D01*
X217031335Y-111741600D01*
X217257865Y-111741600D01*
X217480043Y-111697406D01*
X217689329Y-111610716D01*
X217877682Y-111484863D01*
X218037863Y-111324682D01*
X218163716Y-111136329D01*
X218250406Y-110927043D01*
X218294600Y-110704865D01*
X218294600Y-110478335D01*
X218534600Y-110478335D01*
X218534600Y-110704865D01*
X218578794Y-110927043D01*
X218665484Y-111136329D01*
X218791337Y-111324682D01*
X218951518Y-111484863D01*
X219139871Y-111610716D01*
X219349157Y-111697406D01*
X219571335Y-111741600D01*
X219797865Y-111741600D01*
X220020043Y-111697406D01*
X220229329Y-111610716D01*
X220417682Y-111484863D01*
X220577863Y-111324682D01*
X220703716Y-111136329D01*
X220790406Y-110927043D01*
X220834600Y-110704865D01*
X220834600Y-110478335D01*
X220790406Y-110256157D01*
X220703716Y-110046871D01*
X220601572Y-109894000D01*
X223765549Y-109894000D01*
X223765549Y-111594000D01*
X223771341Y-111652810D01*
X223788496Y-111709360D01*
X223816353Y-111761477D01*
X223853842Y-111807158D01*
X223899523Y-111844647D01*
X223951640Y-111872504D01*
X224008190Y-111889659D01*
X224067000Y-111895451D01*
X225767000Y-111895451D01*
X225825810Y-111889659D01*
X225882360Y-111872504D01*
X225934477Y-111844647D01*
X225980158Y-111807158D01*
X226017647Y-111761477D01*
X226045504Y-111709360D01*
X226062659Y-111652810D01*
X226068451Y-111594000D01*
X226068451Y-110478335D01*
X228704760Y-110478335D01*
X228704760Y-110704865D01*
X228748954Y-110927043D01*
X228835644Y-111136329D01*
X228961497Y-111324682D01*
X229121678Y-111484863D01*
X229310031Y-111610716D01*
X229519317Y-111697406D01*
X229741495Y-111741600D01*
X229968025Y-111741600D01*
X230190203Y-111697406D01*
X230399489Y-111610716D01*
X230587842Y-111484863D01*
X230748023Y-111324682D01*
X230873876Y-111136329D01*
X230960566Y-110927043D01*
X230986602Y-110796149D01*
X231263097Y-110796149D01*
X231324747Y-111012995D01*
X231427517Y-111213647D01*
X231567458Y-111390394D01*
X231739191Y-111536444D01*
X231936117Y-111646184D01*
X232150669Y-111715397D01*
X232190211Y-111723262D01*
X232369760Y-111666309D01*
X232369760Y-110616600D01*
X232419760Y-110616600D01*
X232419760Y-111666309D01*
X232599309Y-111723262D01*
X232638851Y-111715397D01*
X232853403Y-111646184D01*
X233050329Y-111536444D01*
X233222062Y-111390394D01*
X233362003Y-111213647D01*
X233464773Y-111012995D01*
X233526423Y-110796149D01*
X233469489Y-110616600D01*
X232419760Y-110616600D01*
X232369760Y-110616600D01*
X231320031Y-110616600D01*
X231263097Y-110796149D01*
X230986602Y-110796149D01*
X231004760Y-110704865D01*
X231004760Y-110478335D01*
X230986603Y-110387051D01*
X231263097Y-110387051D01*
X231320031Y-110566600D01*
X232369760Y-110566600D01*
X232369760Y-109516891D01*
X232419760Y-109516891D01*
X232419760Y-110566600D01*
X233469489Y-110566600D01*
X233497477Y-110478335D01*
X233784760Y-110478335D01*
X233784760Y-110704865D01*
X233828954Y-110927043D01*
X233915644Y-111136329D01*
X234041497Y-111324682D01*
X234201678Y-111484863D01*
X234390031Y-111610716D01*
X234599317Y-111697406D01*
X234821495Y-111741600D01*
X235048025Y-111741600D01*
X235270203Y-111697406D01*
X235479489Y-111610716D01*
X235667842Y-111484863D01*
X235828023Y-111324682D01*
X235953876Y-111136329D01*
X236040566Y-110927043D01*
X236084760Y-110704865D01*
X236084760Y-110478335D01*
X236324760Y-110478335D01*
X236324760Y-110704865D01*
X236368954Y-110927043D01*
X236455644Y-111136329D01*
X236581497Y-111324682D01*
X236741678Y-111484863D01*
X236930031Y-111610716D01*
X237139317Y-111697406D01*
X237361495Y-111741600D01*
X237588025Y-111741600D01*
X237810203Y-111697406D01*
X238019489Y-111610716D01*
X238207842Y-111484863D01*
X238368023Y-111324682D01*
X238493876Y-111136329D01*
X238580566Y-110927043D01*
X238624760Y-110704865D01*
X238624760Y-110478335D01*
X238864760Y-110478335D01*
X238864760Y-110704865D01*
X238908954Y-110927043D01*
X238995644Y-111136329D01*
X239121497Y-111324682D01*
X239281678Y-111484863D01*
X239470031Y-111610716D01*
X239679317Y-111697406D01*
X239901495Y-111741600D01*
X240128025Y-111741600D01*
X240350203Y-111697406D01*
X240559489Y-111610716D01*
X240747842Y-111484863D01*
X240908023Y-111324682D01*
X241033876Y-111136329D01*
X241120566Y-110927043D01*
X241164760Y-110704865D01*
X241164760Y-110478335D01*
X241404760Y-110478335D01*
X241404760Y-110704865D01*
X241448954Y-110927043D01*
X241535644Y-111136329D01*
X241661497Y-111324682D01*
X241821678Y-111484863D01*
X242010031Y-111610716D01*
X242219317Y-111697406D01*
X242441495Y-111741600D01*
X242668025Y-111741600D01*
X242890203Y-111697406D01*
X243099489Y-111610716D01*
X243287842Y-111484863D01*
X243448023Y-111324682D01*
X243573876Y-111136329D01*
X243660566Y-110927043D01*
X243704760Y-110704865D01*
X243704760Y-110478335D01*
X243660566Y-110256157D01*
X243573876Y-110046871D01*
X243448023Y-109858518D01*
X243287842Y-109698337D01*
X243099489Y-109572484D01*
X242890203Y-109485794D01*
X242668025Y-109441600D01*
X242441495Y-109441600D01*
X242219317Y-109485794D01*
X242010031Y-109572484D01*
X241821678Y-109698337D01*
X241661497Y-109858518D01*
X241535644Y-110046871D01*
X241448954Y-110256157D01*
X241404760Y-110478335D01*
X241164760Y-110478335D01*
X241120566Y-110256157D01*
X241033876Y-110046871D01*
X240908023Y-109858518D01*
X240747842Y-109698337D01*
X240559489Y-109572484D01*
X240350203Y-109485794D01*
X240128025Y-109441600D01*
X239901495Y-109441600D01*
X239679317Y-109485794D01*
X239470031Y-109572484D01*
X239281678Y-109698337D01*
X239121497Y-109858518D01*
X238995644Y-110046871D01*
X238908954Y-110256157D01*
X238864760Y-110478335D01*
X238624760Y-110478335D01*
X238580566Y-110256157D01*
X238493876Y-110046871D01*
X238368023Y-109858518D01*
X238207842Y-109698337D01*
X238019489Y-109572484D01*
X237810203Y-109485794D01*
X237588025Y-109441600D01*
X237361495Y-109441600D01*
X237139317Y-109485794D01*
X236930031Y-109572484D01*
X236741678Y-109698337D01*
X236581497Y-109858518D01*
X236455644Y-110046871D01*
X236368954Y-110256157D01*
X236324760Y-110478335D01*
X236084760Y-110478335D01*
X236040566Y-110256157D01*
X235953876Y-110046871D01*
X235828023Y-109858518D01*
X235667842Y-109698337D01*
X235479489Y-109572484D01*
X235270203Y-109485794D01*
X235048025Y-109441600D01*
X234821495Y-109441600D01*
X234599317Y-109485794D01*
X234390031Y-109572484D01*
X234201678Y-109698337D01*
X234041497Y-109858518D01*
X233915644Y-110046871D01*
X233828954Y-110256157D01*
X233784760Y-110478335D01*
X233497477Y-110478335D01*
X233526423Y-110387051D01*
X233464773Y-110170205D01*
X233362003Y-109969553D01*
X233222062Y-109792806D01*
X233050329Y-109646756D01*
X232853403Y-109537016D01*
X232638851Y-109467803D01*
X232599309Y-109459938D01*
X232419760Y-109516891D01*
X232369760Y-109516891D01*
X232190211Y-109459938D01*
X232150669Y-109467803D01*
X231936117Y-109537016D01*
X231739191Y-109646756D01*
X231567458Y-109792806D01*
X231427517Y-109969553D01*
X231324747Y-110170205D01*
X231263097Y-110387051D01*
X230986603Y-110387051D01*
X230960566Y-110256157D01*
X230873876Y-110046871D01*
X230748023Y-109858518D01*
X230587842Y-109698337D01*
X230399489Y-109572484D01*
X230190203Y-109485794D01*
X229968025Y-109441600D01*
X229741495Y-109441600D01*
X229519317Y-109485794D01*
X229310031Y-109572484D01*
X229121678Y-109698337D01*
X228961497Y-109858518D01*
X228835644Y-110046871D01*
X228748954Y-110256157D01*
X228704760Y-110478335D01*
X226068451Y-110478335D01*
X226068451Y-109894000D01*
X226062659Y-109835190D01*
X226045504Y-109778640D01*
X226017647Y-109726523D01*
X225980158Y-109680842D01*
X225934477Y-109643353D01*
X225882360Y-109615496D01*
X225825810Y-109598341D01*
X225767000Y-109592549D01*
X224067000Y-109592549D01*
X224008190Y-109598341D01*
X223951640Y-109615496D01*
X223899523Y-109643353D01*
X223853842Y-109680842D01*
X223816353Y-109726523D01*
X223788496Y-109778640D01*
X223771341Y-109835190D01*
X223765549Y-109894000D01*
X220601572Y-109894000D01*
X220577863Y-109858518D01*
X220417682Y-109698337D01*
X220229329Y-109572484D01*
X220020043Y-109485794D01*
X219797865Y-109441600D01*
X219571335Y-109441600D01*
X219349157Y-109485794D01*
X219139871Y-109572484D01*
X218951518Y-109698337D01*
X218791337Y-109858518D01*
X218665484Y-110046871D01*
X218578794Y-110256157D01*
X218534600Y-110478335D01*
X218294600Y-110478335D01*
X218250406Y-110256157D01*
X218163716Y-110046871D01*
X218037863Y-109858518D01*
X217877682Y-109698337D01*
X217689329Y-109572484D01*
X217480043Y-109485794D01*
X217257865Y-109441600D01*
X217031335Y-109441600D01*
X216809157Y-109485794D01*
X216599871Y-109572484D01*
X216411518Y-109698337D01*
X216251337Y-109858518D01*
X216125484Y-110046871D01*
X216038794Y-110256157D01*
X215994600Y-110478335D01*
X215754600Y-110478335D01*
X215710406Y-110256157D01*
X215623716Y-110046871D01*
X215497863Y-109858518D01*
X215337682Y-109698337D01*
X215149329Y-109572484D01*
X214940043Y-109485794D01*
X214717865Y-109441600D01*
X214491335Y-109441600D01*
X214269157Y-109485794D01*
X214059871Y-109572484D01*
X213871518Y-109698337D01*
X213711337Y-109858518D01*
X213585484Y-110046871D01*
X213498794Y-110256157D01*
X213454600Y-110478335D01*
X213214600Y-110478335D01*
X213170406Y-110256157D01*
X213083716Y-110046871D01*
X212957863Y-109858518D01*
X212797682Y-109698337D01*
X212609329Y-109572484D01*
X212400043Y-109485794D01*
X212177865Y-109441600D01*
X211951335Y-109441600D01*
X211729157Y-109485794D01*
X211519871Y-109572484D01*
X211331518Y-109698337D01*
X211171337Y-109858518D01*
X211045484Y-110046871D01*
X210958794Y-110256157D01*
X210914600Y-110478335D01*
X210627317Y-110478335D01*
X210656263Y-110387051D01*
X210594613Y-110170205D01*
X210491843Y-109969553D01*
X210351902Y-109792806D01*
X210180169Y-109646756D01*
X209983243Y-109537016D01*
X209768691Y-109467803D01*
X209729149Y-109459938D01*
X209549600Y-109516891D01*
X209499600Y-109516891D01*
X209320051Y-109459938D01*
X209280509Y-109467803D01*
X209065957Y-109537016D01*
X208869031Y-109646756D01*
X208697298Y-109792806D01*
X208557357Y-109969553D01*
X208454587Y-110170205D01*
X208392937Y-110387051D01*
X208116443Y-110387051D01*
X208090406Y-110256157D01*
X208003716Y-110046871D01*
X207877863Y-109858518D01*
X207717682Y-109698337D01*
X207529329Y-109572484D01*
X207320043Y-109485794D01*
X207097865Y-109441600D01*
X206871335Y-109441600D01*
X206649157Y-109485794D01*
X206439871Y-109572484D01*
X206251518Y-109698337D01*
X206091337Y-109858518D01*
X205965484Y-110046871D01*
X205878794Y-110256157D01*
X205834600Y-110478335D01*
X203100648Y-110478335D01*
X202706832Y-110400000D01*
X202293168Y-110400000D01*
X201887453Y-110480702D01*
X201505277Y-110639004D01*
X201161328Y-110868823D01*
X200868823Y-111161328D01*
X200639004Y-111505277D01*
X200480702Y-111887453D01*
X200403763Y-112274252D01*
X200375005Y-112000640D01*
X200375000Y-111999267D01*
X200375000Y-107938335D01*
X205834600Y-107938335D01*
X205834600Y-108164865D01*
X205878794Y-108387043D01*
X205965484Y-108596329D01*
X206091337Y-108784682D01*
X206251518Y-108944863D01*
X206439871Y-109070716D01*
X206649157Y-109157406D01*
X206871335Y-109201600D01*
X207097865Y-109201600D01*
X207320043Y-109157406D01*
X207529329Y-109070716D01*
X207717682Y-108944863D01*
X207877863Y-108784682D01*
X208003716Y-108596329D01*
X208090406Y-108387043D01*
X208116442Y-108256149D01*
X208392937Y-108256149D01*
X208454587Y-108472995D01*
X208557357Y-108673647D01*
X208697298Y-108850394D01*
X208869031Y-108996444D01*
X209065957Y-109106184D01*
X209280509Y-109175397D01*
X209320051Y-109183262D01*
X209499600Y-109126309D01*
X209499600Y-108076600D01*
X209549600Y-108076600D01*
X209549600Y-109126309D01*
X209729149Y-109183262D01*
X209768691Y-109175397D01*
X209983243Y-109106184D01*
X210180169Y-108996444D01*
X210351902Y-108850394D01*
X210491843Y-108673647D01*
X210594613Y-108472995D01*
X210656263Y-108256149D01*
X210599329Y-108076600D01*
X209549600Y-108076600D01*
X209499600Y-108076600D01*
X208449871Y-108076600D01*
X208392937Y-108256149D01*
X208116442Y-108256149D01*
X208134600Y-108164865D01*
X208134600Y-107938335D01*
X208116443Y-107847051D01*
X208392937Y-107847051D01*
X208449871Y-108026600D01*
X209499600Y-108026600D01*
X209499600Y-106976891D01*
X209549600Y-106976891D01*
X209549600Y-108026600D01*
X210599329Y-108026600D01*
X210627317Y-107938335D01*
X210914600Y-107938335D01*
X210914600Y-108164865D01*
X210958794Y-108387043D01*
X211045484Y-108596329D01*
X211171337Y-108784682D01*
X211331518Y-108944863D01*
X211519871Y-109070716D01*
X211729157Y-109157406D01*
X211951335Y-109201600D01*
X212177865Y-109201600D01*
X212400043Y-109157406D01*
X212609329Y-109070716D01*
X212797682Y-108944863D01*
X212957863Y-108784682D01*
X213083716Y-108596329D01*
X213170406Y-108387043D01*
X213214600Y-108164865D01*
X213214600Y-107938335D01*
X213454600Y-107938335D01*
X213454600Y-108164865D01*
X213498794Y-108387043D01*
X213585484Y-108596329D01*
X213711337Y-108784682D01*
X213871518Y-108944863D01*
X214059871Y-109070716D01*
X214269157Y-109157406D01*
X214491335Y-109201600D01*
X214717865Y-109201600D01*
X214940043Y-109157406D01*
X215149329Y-109070716D01*
X215337682Y-108944863D01*
X215497863Y-108784682D01*
X215623716Y-108596329D01*
X215710406Y-108387043D01*
X215754600Y-108164865D01*
X215754600Y-107938335D01*
X215994600Y-107938335D01*
X215994600Y-108164865D01*
X216038794Y-108387043D01*
X216125484Y-108596329D01*
X216251337Y-108784682D01*
X216411518Y-108944863D01*
X216599871Y-109070716D01*
X216809157Y-109157406D01*
X217031335Y-109201600D01*
X217257865Y-109201600D01*
X217480043Y-109157406D01*
X217689329Y-109070716D01*
X217877682Y-108944863D01*
X218037863Y-108784682D01*
X218163716Y-108596329D01*
X218250406Y-108387043D01*
X218294600Y-108164865D01*
X218294600Y-107938335D01*
X218250406Y-107716157D01*
X218163716Y-107506871D01*
X218037863Y-107318518D01*
X217920945Y-107201600D01*
X218533149Y-107201600D01*
X218533149Y-108901600D01*
X218538941Y-108960410D01*
X218556096Y-109016960D01*
X218583953Y-109069077D01*
X218621442Y-109114758D01*
X218667123Y-109152247D01*
X218719240Y-109180104D01*
X218775790Y-109197259D01*
X218834600Y-109203051D01*
X220534600Y-109203051D01*
X220593410Y-109197259D01*
X220649960Y-109180104D01*
X220702077Y-109152247D01*
X220747758Y-109114758D01*
X220785247Y-109069077D01*
X220813104Y-109016960D01*
X220830259Y-108960410D01*
X220836051Y-108901600D01*
X220836051Y-107938335D01*
X228704760Y-107938335D01*
X228704760Y-108164865D01*
X228748954Y-108387043D01*
X228835644Y-108596329D01*
X228961497Y-108784682D01*
X229121678Y-108944863D01*
X229310031Y-109070716D01*
X229519317Y-109157406D01*
X229741495Y-109201600D01*
X229968025Y-109201600D01*
X230190203Y-109157406D01*
X230399489Y-109070716D01*
X230587842Y-108944863D01*
X230748023Y-108784682D01*
X230873876Y-108596329D01*
X230960566Y-108387043D01*
X230986602Y-108256149D01*
X231263097Y-108256149D01*
X231324747Y-108472995D01*
X231427517Y-108673647D01*
X231567458Y-108850394D01*
X231739191Y-108996444D01*
X231936117Y-109106184D01*
X232150669Y-109175397D01*
X232190211Y-109183262D01*
X232369760Y-109126309D01*
X232369760Y-108076600D01*
X232419760Y-108076600D01*
X232419760Y-109126309D01*
X232599309Y-109183262D01*
X232638851Y-109175397D01*
X232853403Y-109106184D01*
X233050329Y-108996444D01*
X233222062Y-108850394D01*
X233362003Y-108673647D01*
X233464773Y-108472995D01*
X233526423Y-108256149D01*
X233469489Y-108076600D01*
X232419760Y-108076600D01*
X232369760Y-108076600D01*
X231320031Y-108076600D01*
X231263097Y-108256149D01*
X230986602Y-108256149D01*
X231004760Y-108164865D01*
X231004760Y-107938335D01*
X230986603Y-107847051D01*
X231263097Y-107847051D01*
X231320031Y-108026600D01*
X232369760Y-108026600D01*
X232369760Y-106976891D01*
X232419760Y-106976891D01*
X232419760Y-108026600D01*
X233469489Y-108026600D01*
X233497477Y-107938335D01*
X233784760Y-107938335D01*
X233784760Y-108164865D01*
X233828954Y-108387043D01*
X233915644Y-108596329D01*
X234041497Y-108784682D01*
X234201678Y-108944863D01*
X234390031Y-109070716D01*
X234599317Y-109157406D01*
X234821495Y-109201600D01*
X235048025Y-109201600D01*
X235270203Y-109157406D01*
X235479489Y-109070716D01*
X235667842Y-108944863D01*
X235828023Y-108784682D01*
X235953876Y-108596329D01*
X236040566Y-108387043D01*
X236084760Y-108164865D01*
X236084760Y-107938335D01*
X236324760Y-107938335D01*
X236324760Y-108164865D01*
X236368954Y-108387043D01*
X236455644Y-108596329D01*
X236581497Y-108784682D01*
X236741678Y-108944863D01*
X236930031Y-109070716D01*
X237139317Y-109157406D01*
X237361495Y-109201600D01*
X237588025Y-109201600D01*
X237810203Y-109157406D01*
X238019489Y-109070716D01*
X238207842Y-108944863D01*
X238368023Y-108784682D01*
X238493876Y-108596329D01*
X238580566Y-108387043D01*
X238624760Y-108164865D01*
X238624760Y-107938335D01*
X238864760Y-107938335D01*
X238864760Y-108164865D01*
X238908954Y-108387043D01*
X238995644Y-108596329D01*
X239121497Y-108784682D01*
X239281678Y-108944863D01*
X239470031Y-109070716D01*
X239679317Y-109157406D01*
X239901495Y-109201600D01*
X240128025Y-109201600D01*
X240350203Y-109157406D01*
X240559489Y-109070716D01*
X240747842Y-108944863D01*
X240908023Y-108784682D01*
X241033876Y-108596329D01*
X241120566Y-108387043D01*
X241164760Y-108164865D01*
X241164760Y-107938335D01*
X241120566Y-107716157D01*
X241033876Y-107506871D01*
X240908023Y-107318518D01*
X240791105Y-107201600D01*
X241403309Y-107201600D01*
X241403309Y-108901600D01*
X241409101Y-108960410D01*
X241426256Y-109016960D01*
X241454113Y-109069077D01*
X241491602Y-109114758D01*
X241537283Y-109152247D01*
X241589400Y-109180104D01*
X241645950Y-109197259D01*
X241704760Y-109203051D01*
X243404760Y-109203051D01*
X243463570Y-109197259D01*
X243520120Y-109180104D01*
X243572237Y-109152247D01*
X243617918Y-109114758D01*
X243655407Y-109069077D01*
X243683264Y-109016960D01*
X243700419Y-108960410D01*
X243706211Y-108901600D01*
X243706211Y-107202617D01*
X246582738Y-107202617D01*
X246682085Y-107380657D01*
X246896951Y-107500912D01*
X247131149Y-107576937D01*
X247375678Y-107605812D01*
X247621143Y-107586426D01*
X247858108Y-107519526D01*
X248077469Y-107407680D01*
X248117915Y-107380657D01*
X248217262Y-107202617D01*
X247400000Y-106385355D01*
X246582738Y-107202617D01*
X243706211Y-107202617D01*
X243706211Y-107201600D01*
X243700419Y-107142790D01*
X243683264Y-107086240D01*
X243655407Y-107034123D01*
X243617918Y-106988442D01*
X243572237Y-106950953D01*
X243520120Y-106923096D01*
X243463570Y-106905941D01*
X243404760Y-106900149D01*
X242996112Y-106900149D01*
X243177469Y-106807680D01*
X243217915Y-106780657D01*
X243317262Y-106602617D01*
X242500000Y-105785355D01*
X241682738Y-106602617D01*
X241782085Y-106780657D01*
X241995588Y-106900149D01*
X241704760Y-106900149D01*
X241645950Y-106905941D01*
X241589400Y-106923096D01*
X241537283Y-106950953D01*
X241491602Y-106988442D01*
X241454113Y-107034123D01*
X241426256Y-107086240D01*
X241409101Y-107142790D01*
X241403309Y-107201600D01*
X240791105Y-107201600D01*
X240747842Y-107158337D01*
X240559489Y-107032484D01*
X240350203Y-106945794D01*
X240128025Y-106901600D01*
X239901495Y-106901600D01*
X239679317Y-106945794D01*
X239470031Y-107032484D01*
X239281678Y-107158337D01*
X239121497Y-107318518D01*
X238995644Y-107506871D01*
X238908954Y-107716157D01*
X238864760Y-107938335D01*
X238624760Y-107938335D01*
X238580566Y-107716157D01*
X238493876Y-107506871D01*
X238368023Y-107318518D01*
X238207842Y-107158337D01*
X238019489Y-107032484D01*
X237810203Y-106945794D01*
X237588025Y-106901600D01*
X237361495Y-106901600D01*
X237139317Y-106945794D01*
X236930031Y-107032484D01*
X236741678Y-107158337D01*
X236581497Y-107318518D01*
X236455644Y-107506871D01*
X236368954Y-107716157D01*
X236324760Y-107938335D01*
X236084760Y-107938335D01*
X236040566Y-107716157D01*
X235953876Y-107506871D01*
X235828023Y-107318518D01*
X235667842Y-107158337D01*
X235479489Y-107032484D01*
X235270203Y-106945794D01*
X235048025Y-106901600D01*
X234821495Y-106901600D01*
X234599317Y-106945794D01*
X234390031Y-107032484D01*
X234201678Y-107158337D01*
X234041497Y-107318518D01*
X233915644Y-107506871D01*
X233828954Y-107716157D01*
X233784760Y-107938335D01*
X233497477Y-107938335D01*
X233526423Y-107847051D01*
X233464773Y-107630205D01*
X233362003Y-107429553D01*
X233222062Y-107252806D01*
X233050329Y-107106756D01*
X232853403Y-106997016D01*
X232638851Y-106927803D01*
X232599309Y-106919938D01*
X232419760Y-106976891D01*
X232369760Y-106976891D01*
X232190211Y-106919938D01*
X232150669Y-106927803D01*
X231936117Y-106997016D01*
X231739191Y-107106756D01*
X231567458Y-107252806D01*
X231427517Y-107429553D01*
X231324747Y-107630205D01*
X231263097Y-107847051D01*
X230986603Y-107847051D01*
X230960566Y-107716157D01*
X230873876Y-107506871D01*
X230748023Y-107318518D01*
X230587842Y-107158337D01*
X230399489Y-107032484D01*
X230190203Y-106945794D01*
X229968025Y-106901600D01*
X229741495Y-106901600D01*
X229519317Y-106945794D01*
X229310031Y-107032484D01*
X229121678Y-107158337D01*
X228961497Y-107318518D01*
X228835644Y-107506871D01*
X228748954Y-107716157D01*
X228704760Y-107938335D01*
X220836051Y-107938335D01*
X220836051Y-107201600D01*
X220830259Y-107142790D01*
X220813104Y-107086240D01*
X220785247Y-107034123D01*
X220747758Y-106988442D01*
X220702077Y-106950953D01*
X220649960Y-106923096D01*
X220593410Y-106905941D01*
X220534600Y-106900149D01*
X218834600Y-106900149D01*
X218775790Y-106905941D01*
X218719240Y-106923096D01*
X218667123Y-106950953D01*
X218621442Y-106988442D01*
X218583953Y-107034123D01*
X218556096Y-107086240D01*
X218538941Y-107142790D01*
X218533149Y-107201600D01*
X217920945Y-107201600D01*
X217877682Y-107158337D01*
X217689329Y-107032484D01*
X217480043Y-106945794D01*
X217257865Y-106901600D01*
X217031335Y-106901600D01*
X216809157Y-106945794D01*
X216599871Y-107032484D01*
X216411518Y-107158337D01*
X216251337Y-107318518D01*
X216125484Y-107506871D01*
X216038794Y-107716157D01*
X215994600Y-107938335D01*
X215754600Y-107938335D01*
X215710406Y-107716157D01*
X215623716Y-107506871D01*
X215497863Y-107318518D01*
X215337682Y-107158337D01*
X215149329Y-107032484D01*
X214940043Y-106945794D01*
X214717865Y-106901600D01*
X214491335Y-106901600D01*
X214269157Y-106945794D01*
X214059871Y-107032484D01*
X213871518Y-107158337D01*
X213711337Y-107318518D01*
X213585484Y-107506871D01*
X213498794Y-107716157D01*
X213454600Y-107938335D01*
X213214600Y-107938335D01*
X213170406Y-107716157D01*
X213083716Y-107506871D01*
X212957863Y-107318518D01*
X212797682Y-107158337D01*
X212609329Y-107032484D01*
X212400043Y-106945794D01*
X212177865Y-106901600D01*
X211951335Y-106901600D01*
X211729157Y-106945794D01*
X211519871Y-107032484D01*
X211331518Y-107158337D01*
X211171337Y-107318518D01*
X211045484Y-107506871D01*
X210958794Y-107716157D01*
X210914600Y-107938335D01*
X210627317Y-107938335D01*
X210656263Y-107847051D01*
X210594613Y-107630205D01*
X210491843Y-107429553D01*
X210351902Y-107252806D01*
X210180169Y-107106756D01*
X209983243Y-106997016D01*
X209768691Y-106927803D01*
X209729149Y-106919938D01*
X209549600Y-106976891D01*
X209499600Y-106976891D01*
X209320051Y-106919938D01*
X209280509Y-106927803D01*
X209065957Y-106997016D01*
X208869031Y-107106756D01*
X208697298Y-107252806D01*
X208557357Y-107429553D01*
X208454587Y-107630205D01*
X208392937Y-107847051D01*
X208116443Y-107847051D01*
X208090406Y-107716157D01*
X208003716Y-107506871D01*
X207877863Y-107318518D01*
X207717682Y-107158337D01*
X207529329Y-107032484D01*
X207320043Y-106945794D01*
X207097865Y-106901600D01*
X206871335Y-106901600D01*
X206649157Y-106945794D01*
X206439871Y-107032484D01*
X206251518Y-107158337D01*
X206091337Y-107318518D01*
X205965484Y-107506871D01*
X205878794Y-107716157D01*
X205834600Y-107938335D01*
X200375000Y-107938335D01*
X200375000Y-106468292D01*
X215935000Y-106468292D01*
X215935000Y-106571708D01*
X215955176Y-106673137D01*
X215994751Y-106768681D01*
X216052206Y-106854668D01*
X216125332Y-106927794D01*
X216211319Y-106985249D01*
X216306863Y-107024824D01*
X216408292Y-107045000D01*
X216511708Y-107045000D01*
X216613137Y-107024824D01*
X216708681Y-106985249D01*
X216794668Y-106927794D01*
X216867794Y-106854668D01*
X216925249Y-106768681D01*
X216964824Y-106673137D01*
X216985000Y-106571708D01*
X216985000Y-106468292D01*
X216964824Y-106366863D01*
X216925249Y-106271319D01*
X216867794Y-106185332D01*
X216794668Y-106112206D01*
X216785794Y-106106277D01*
X216793137Y-106104816D01*
X216888681Y-106065241D01*
X216973910Y-106008292D01*
X217865000Y-106008292D01*
X217865000Y-106111708D01*
X217885176Y-106213137D01*
X217924751Y-106308681D01*
X217982206Y-106394668D01*
X218055332Y-106467794D01*
X218141319Y-106525249D01*
X218236863Y-106564824D01*
X218338292Y-106585000D01*
X218441708Y-106585000D01*
X218543137Y-106564824D01*
X218638681Y-106525249D01*
X218724668Y-106467794D01*
X218797794Y-106394668D01*
X218855249Y-106308681D01*
X218894824Y-106213137D01*
X218897776Y-106198292D01*
X220885000Y-106198292D01*
X220885000Y-106301708D01*
X220905176Y-106403137D01*
X220944751Y-106498681D01*
X221002206Y-106584668D01*
X221075332Y-106657794D01*
X221161319Y-106715249D01*
X221256863Y-106754824D01*
X221358292Y-106775000D01*
X221461708Y-106775000D01*
X221563137Y-106754824D01*
X221658681Y-106715249D01*
X221744668Y-106657794D01*
X221817794Y-106584668D01*
X221875249Y-106498681D01*
X221914824Y-106403137D01*
X221935000Y-106301708D01*
X221935000Y-106198292D01*
X221914824Y-106096863D01*
X221875249Y-106001319D01*
X221817794Y-105915332D01*
X221744668Y-105842206D01*
X221658681Y-105784751D01*
X221563137Y-105745176D01*
X221465117Y-105725678D01*
X241244188Y-105725678D01*
X241263574Y-105971143D01*
X241330474Y-106208108D01*
X241442320Y-106427469D01*
X241469343Y-106467915D01*
X241647383Y-106567262D01*
X242464645Y-105750000D01*
X242535355Y-105750000D01*
X243352617Y-106567262D01*
X243530657Y-106467915D01*
X243610263Y-106325678D01*
X246144188Y-106325678D01*
X246163574Y-106571143D01*
X246230474Y-106808108D01*
X246342320Y-107027469D01*
X246369343Y-107067915D01*
X246547383Y-107167262D01*
X247364645Y-106350000D01*
X247435355Y-106350000D01*
X248252617Y-107167262D01*
X248430657Y-107067915D01*
X248550912Y-106853049D01*
X248626937Y-106618851D01*
X248655812Y-106374322D01*
X248636426Y-106128857D01*
X248569526Y-105891892D01*
X248457680Y-105672531D01*
X248430657Y-105632085D01*
X248252617Y-105532738D01*
X247435355Y-106350000D01*
X247364645Y-106350000D01*
X246547383Y-105532738D01*
X246369343Y-105632085D01*
X246249088Y-105846951D01*
X246173063Y-106081149D01*
X246144188Y-106325678D01*
X243610263Y-106325678D01*
X243650912Y-106253049D01*
X243726937Y-106018851D01*
X243755812Y-105774322D01*
X243736426Y-105528857D01*
X243727541Y-105497383D01*
X246582738Y-105497383D01*
X247400000Y-106314645D01*
X248217262Y-105497383D01*
X248117915Y-105319343D01*
X247903049Y-105199088D01*
X247668851Y-105123063D01*
X247424322Y-105094188D01*
X247178857Y-105113574D01*
X246941892Y-105180474D01*
X246722531Y-105292320D01*
X246682085Y-105319343D01*
X246582738Y-105497383D01*
X243727541Y-105497383D01*
X243669526Y-105291892D01*
X243557680Y-105072531D01*
X243530657Y-105032085D01*
X243352617Y-104932738D01*
X242535355Y-105750000D01*
X242464645Y-105750000D01*
X241647383Y-104932738D01*
X241469343Y-105032085D01*
X241349088Y-105246951D01*
X241273063Y-105481149D01*
X241244188Y-105725678D01*
X221465117Y-105725678D01*
X221461708Y-105725000D01*
X221358292Y-105725000D01*
X221256863Y-105745176D01*
X221161319Y-105784751D01*
X221075332Y-105842206D01*
X221002206Y-105915332D01*
X220944751Y-106001319D01*
X220905176Y-106096863D01*
X220885000Y-106198292D01*
X218897776Y-106198292D01*
X218915000Y-106111708D01*
X218915000Y-106008292D01*
X218894824Y-105906863D01*
X218855249Y-105811319D01*
X218797794Y-105725332D01*
X218724668Y-105652206D01*
X218638681Y-105594751D01*
X218543137Y-105555176D01*
X218441708Y-105535000D01*
X218338292Y-105535000D01*
X218236863Y-105555176D01*
X218141319Y-105594751D01*
X218055332Y-105652206D01*
X217982206Y-105725332D01*
X217924751Y-105811319D01*
X217885176Y-105906863D01*
X217865000Y-106008292D01*
X216973910Y-106008292D01*
X216974668Y-106007786D01*
X217047794Y-105934660D01*
X217105249Y-105848673D01*
X217144824Y-105753129D01*
X217161051Y-105671552D01*
X217178292Y-105674982D01*
X217281708Y-105674982D01*
X217383137Y-105654806D01*
X217478681Y-105615231D01*
X217564668Y-105557776D01*
X217637794Y-105484650D01*
X217695249Y-105398663D01*
X217734824Y-105303119D01*
X217755000Y-105201690D01*
X217755000Y-105098274D01*
X217743549Y-105040709D01*
X217773137Y-105034824D01*
X217868681Y-104995249D01*
X217954668Y-104937794D01*
X218027794Y-104864668D01*
X218085249Y-104778681D01*
X218124824Y-104683137D01*
X218141701Y-104598292D01*
X218595033Y-104598292D01*
X218595033Y-104701708D01*
X218615209Y-104803137D01*
X218654784Y-104898681D01*
X218712239Y-104984668D01*
X218785365Y-105057794D01*
X218871352Y-105115249D01*
X218966896Y-105154824D01*
X219068325Y-105175000D01*
X219171741Y-105175000D01*
X219273170Y-105154824D01*
X219368714Y-105115249D01*
X219454701Y-105057794D01*
X219527827Y-104984668D01*
X219585282Y-104898681D01*
X219624857Y-104803137D01*
X219645033Y-104701708D01*
X219645033Y-104598292D01*
X219624857Y-104496863D01*
X219585282Y-104401319D01*
X219527827Y-104315332D01*
X219454701Y-104242206D01*
X219368714Y-104184751D01*
X219273170Y-104145176D01*
X219171741Y-104125000D01*
X219068325Y-104125000D01*
X218966896Y-104145176D01*
X218871352Y-104184751D01*
X218785365Y-104242206D01*
X218712239Y-104315332D01*
X218654784Y-104401319D01*
X218615209Y-104496863D01*
X218595033Y-104598292D01*
X218141701Y-104598292D01*
X218145000Y-104581708D01*
X218145000Y-104478292D01*
X218124824Y-104376863D01*
X218085249Y-104281319D01*
X218027794Y-104195332D01*
X217954668Y-104122206D01*
X217868681Y-104064751D01*
X217773137Y-104025176D01*
X217671708Y-104005000D01*
X217568292Y-104005000D01*
X217466863Y-104025176D01*
X217371319Y-104064751D01*
X217285332Y-104122206D01*
X217212206Y-104195332D01*
X217154751Y-104281319D01*
X217115176Y-104376863D01*
X217095000Y-104478292D01*
X217095000Y-104581708D01*
X217106451Y-104639273D01*
X217076863Y-104645158D01*
X216981319Y-104684733D01*
X216895332Y-104742188D01*
X216822206Y-104815314D01*
X216764751Y-104901301D01*
X216725176Y-104996845D01*
X216708949Y-105078422D01*
X216691708Y-105074992D01*
X216588292Y-105074992D01*
X216486863Y-105095168D01*
X216391319Y-105134743D01*
X216305332Y-105192198D01*
X216232206Y-105265324D01*
X216174751Y-105351311D01*
X216135176Y-105446855D01*
X216115000Y-105548284D01*
X216115000Y-105651700D01*
X216135176Y-105753129D01*
X216174751Y-105848673D01*
X216232206Y-105934660D01*
X216305332Y-106007786D01*
X216314206Y-106013715D01*
X216306863Y-106015176D01*
X216211319Y-106054751D01*
X216125332Y-106112206D01*
X216052206Y-106185332D01*
X215994751Y-106271319D01*
X215955176Y-106366863D01*
X215935000Y-106468292D01*
X200375000Y-106468292D01*
X200375000Y-103228292D01*
X204745000Y-103228292D01*
X204745000Y-103331708D01*
X204765176Y-103433137D01*
X204804751Y-103528681D01*
X204862206Y-103614668D01*
X204935332Y-103687794D01*
X205021319Y-103745249D01*
X205116863Y-103784824D01*
X205218292Y-103805000D01*
X205321708Y-103805000D01*
X205423137Y-103784824D01*
X205518681Y-103745249D01*
X205604668Y-103687794D01*
X205677794Y-103614668D01*
X205715463Y-103558292D01*
X220805000Y-103558292D01*
X220805000Y-103661708D01*
X220825176Y-103763137D01*
X220864751Y-103858681D01*
X220922206Y-103944668D01*
X220995332Y-104017794D01*
X221081319Y-104075249D01*
X221176863Y-104114824D01*
X221278292Y-104135000D01*
X221381708Y-104135000D01*
X221483137Y-104114824D01*
X221578681Y-104075249D01*
X221664668Y-104017794D01*
X221737794Y-103944668D01*
X221795249Y-103858681D01*
X221834824Y-103763137D01*
X221855000Y-103661708D01*
X221855000Y-103558292D01*
X221834824Y-103456863D01*
X221795249Y-103361319D01*
X221737794Y-103275332D01*
X221664668Y-103202206D01*
X221658811Y-103198292D01*
X231924924Y-103198292D01*
X231924924Y-103301708D01*
X231945100Y-103403137D01*
X231984675Y-103498681D01*
X232042130Y-103584668D01*
X232115256Y-103657794D01*
X232201243Y-103715249D01*
X232262286Y-103740533D01*
X232242753Y-103787690D01*
X232222577Y-103889119D01*
X232222577Y-103992535D01*
X232242753Y-104093964D01*
X232282328Y-104189508D01*
X232339783Y-104275495D01*
X232364721Y-104300433D01*
X232331294Y-104381134D01*
X232311118Y-104482563D01*
X232311118Y-104585979D01*
X232331112Y-104686494D01*
X232301684Y-104706157D01*
X232228558Y-104779283D01*
X232171103Y-104865270D01*
X232131528Y-104960814D01*
X232111352Y-105062243D01*
X232111352Y-105165659D01*
X232131528Y-105267088D01*
X232171103Y-105362632D01*
X232228558Y-105448619D01*
X232301684Y-105521745D01*
X232387671Y-105579200D01*
X232483215Y-105618775D01*
X232584644Y-105638951D01*
X232688060Y-105638951D01*
X232789489Y-105618775D01*
X232885033Y-105579200D01*
X232971020Y-105521745D01*
X233044146Y-105448619D01*
X233101601Y-105362632D01*
X233141176Y-105267088D01*
X233161352Y-105165659D01*
X233161352Y-105062243D01*
X233141358Y-104961728D01*
X233170786Y-104942065D01*
X233215468Y-104897383D01*
X241682738Y-104897383D01*
X242500000Y-105714645D01*
X243317262Y-104897383D01*
X243217915Y-104719343D01*
X243003049Y-104599088D01*
X242768851Y-104523063D01*
X242524322Y-104494188D01*
X242278857Y-104513574D01*
X242041892Y-104580474D01*
X241822531Y-104692320D01*
X241782085Y-104719343D01*
X241682738Y-104897383D01*
X233215468Y-104897383D01*
X233243912Y-104868939D01*
X233301367Y-104782952D01*
X233340942Y-104687408D01*
X233361118Y-104585979D01*
X233361118Y-104482563D01*
X233340942Y-104381134D01*
X233301367Y-104285590D01*
X233243912Y-104199603D01*
X233218974Y-104174665D01*
X233252401Y-104093964D01*
X233272577Y-103992535D01*
X233272577Y-103889119D01*
X233252401Y-103787690D01*
X233212826Y-103692146D01*
X233155371Y-103606159D01*
X233097504Y-103548292D01*
X236275000Y-103548292D01*
X236275000Y-103651708D01*
X236295176Y-103753137D01*
X236334751Y-103848681D01*
X236392206Y-103934668D01*
X236465332Y-104007794D01*
X236551319Y-104065249D01*
X236646863Y-104104824D01*
X236748292Y-104125000D01*
X236851708Y-104125000D01*
X236953137Y-104104824D01*
X237048681Y-104065249D01*
X237134668Y-104007794D01*
X237207794Y-103934668D01*
X237265249Y-103848681D01*
X237304824Y-103753137D01*
X237325000Y-103651708D01*
X237325000Y-103548292D01*
X237304824Y-103446863D01*
X237265249Y-103351319D01*
X237207794Y-103265332D01*
X237134668Y-103192206D01*
X237048681Y-103134751D01*
X236953137Y-103095176D01*
X236851708Y-103075000D01*
X236748292Y-103075000D01*
X236646863Y-103095176D01*
X236551319Y-103134751D01*
X236465332Y-103192206D01*
X236392206Y-103265332D01*
X236334751Y-103351319D01*
X236295176Y-103446863D01*
X236275000Y-103548292D01*
X233097504Y-103548292D01*
X233082245Y-103533033D01*
X232996258Y-103475578D01*
X232935215Y-103450294D01*
X232954748Y-103403137D01*
X232974924Y-103301708D01*
X232974924Y-103198292D01*
X232954748Y-103096863D01*
X232915173Y-103001319D01*
X232857718Y-102915332D01*
X232784592Y-102842206D01*
X232698605Y-102784751D01*
X232603061Y-102745176D01*
X232501632Y-102725000D01*
X232398216Y-102725000D01*
X232296787Y-102745176D01*
X232201243Y-102784751D01*
X232115256Y-102842206D01*
X232042130Y-102915332D01*
X231984675Y-103001319D01*
X231945100Y-103096863D01*
X231924924Y-103198292D01*
X221658811Y-103198292D01*
X221578681Y-103144751D01*
X221483137Y-103105176D01*
X221381708Y-103085000D01*
X221278292Y-103085000D01*
X221176863Y-103105176D01*
X221081319Y-103144751D01*
X220995332Y-103202206D01*
X220922206Y-103275332D01*
X220864751Y-103361319D01*
X220825176Y-103456863D01*
X220805000Y-103558292D01*
X205715463Y-103558292D01*
X205735249Y-103528681D01*
X205774824Y-103433137D01*
X205795000Y-103331708D01*
X205795000Y-103228292D01*
X205774824Y-103126863D01*
X205735249Y-103031319D01*
X205677794Y-102945332D01*
X205604668Y-102872206D01*
X205518681Y-102814751D01*
X205423137Y-102775176D01*
X205321708Y-102755000D01*
X205218292Y-102755000D01*
X205116863Y-102775176D01*
X205021319Y-102814751D01*
X204935332Y-102872206D01*
X204862206Y-102945332D01*
X204804751Y-103031319D01*
X204765176Y-103126863D01*
X204745000Y-103228292D01*
X200375000Y-103228292D01*
X200375000Y-102598292D01*
X239749970Y-102598292D01*
X239749970Y-102701708D01*
X239770146Y-102803137D01*
X239809721Y-102898681D01*
X239867176Y-102984668D01*
X239940302Y-103057794D01*
X240026289Y-103115249D01*
X240121833Y-103154824D01*
X240223262Y-103175000D01*
X240326678Y-103175000D01*
X240428107Y-103154824D01*
X240523651Y-103115249D01*
X240609638Y-103057794D01*
X240682764Y-102984668D01*
X240740219Y-102898681D01*
X240779794Y-102803137D01*
X240799970Y-102701708D01*
X240799970Y-102598292D01*
X240779794Y-102496863D01*
X240740219Y-102401319D01*
X240682764Y-102315332D01*
X240609638Y-102242206D01*
X240523651Y-102184751D01*
X240428107Y-102145176D01*
X240326678Y-102125000D01*
X240223262Y-102125000D01*
X240121833Y-102145176D01*
X240026289Y-102184751D01*
X239940302Y-102242206D01*
X239867176Y-102315332D01*
X239809721Y-102401319D01*
X239770146Y-102496863D01*
X239749970Y-102598292D01*
X200375000Y-102598292D01*
X200375000Y-101428581D01*
X200400288Y-101479226D01*
X200508426Y-101618718D01*
X200641700Y-101734433D01*
X200794988Y-101821924D01*
X200962399Y-101877829D01*
X201137500Y-101900000D01*
X201487500Y-101900000D01*
X201487500Y-101025000D01*
X201537500Y-101025000D01*
X201537500Y-101900000D01*
X201887500Y-101900000D01*
X202062601Y-101877829D01*
X202230012Y-101821924D01*
X202383300Y-101734433D01*
X202516574Y-101618718D01*
X202624712Y-101479226D01*
X202703559Y-101321318D01*
X202715594Y-101278292D01*
X221805000Y-101278292D01*
X221805000Y-101381708D01*
X221825176Y-101483137D01*
X221864751Y-101578681D01*
X221922206Y-101664668D01*
X221995332Y-101737794D01*
X222081319Y-101795249D01*
X222176863Y-101834824D01*
X222278292Y-101855000D01*
X222381708Y-101855000D01*
X222483137Y-101834824D01*
X222578681Y-101795249D01*
X222664668Y-101737794D01*
X222737794Y-101664668D01*
X222795249Y-101578681D01*
X222834824Y-101483137D01*
X222855000Y-101381708D01*
X222855000Y-101278292D01*
X222834824Y-101176863D01*
X222795249Y-101081319D01*
X222769299Y-101042483D01*
X222805249Y-100988681D01*
X222844824Y-100893137D01*
X222865000Y-100791708D01*
X222865000Y-100688292D01*
X222844824Y-100586863D01*
X222805249Y-100491319D01*
X222747794Y-100405332D01*
X222674668Y-100332206D01*
X222588681Y-100274751D01*
X222493137Y-100235176D01*
X222391708Y-100215000D01*
X222288292Y-100215000D01*
X222186863Y-100235176D01*
X222091319Y-100274751D01*
X222005332Y-100332206D01*
X221932206Y-100405332D01*
X221874751Y-100491319D01*
X221835176Y-100586863D01*
X221815000Y-100688292D01*
X221815000Y-100791708D01*
X221835176Y-100893137D01*
X221874751Y-100988681D01*
X221900701Y-101027517D01*
X221864751Y-101081319D01*
X221825176Y-101176863D01*
X221805000Y-101278292D01*
X202715594Y-101278292D01*
X202747166Y-101165429D01*
X202687121Y-101025000D01*
X201537500Y-101025000D01*
X201487500Y-101025000D01*
X201467500Y-101025000D01*
X201467500Y-100975000D01*
X201487500Y-100975000D01*
X201487500Y-100100000D01*
X201537500Y-100100000D01*
X201537500Y-100975000D01*
X202687121Y-100975000D01*
X202747166Y-100834571D01*
X202707482Y-100692705D01*
X203555150Y-100692705D01*
X203627508Y-100847704D01*
X203804128Y-100945542D01*
X203996441Y-101007044D01*
X204197057Y-101029845D01*
X204398268Y-101013070D01*
X204592339Y-100957362D01*
X204771812Y-100864864D01*
X204797492Y-100847704D01*
X204869850Y-100692705D01*
X204212500Y-100035355D01*
X203555150Y-100692705D01*
X202707482Y-100692705D01*
X202703559Y-100678682D01*
X202624712Y-100520774D01*
X202516574Y-100381282D01*
X202383300Y-100265567D01*
X202230012Y-100178076D01*
X202062601Y-100122171D01*
X201887500Y-100100000D01*
X201537500Y-100100000D01*
X201487500Y-100100000D01*
X201137500Y-100100000D01*
X200962399Y-100122171D01*
X200794988Y-100178076D01*
X200641700Y-100265567D01*
X200508426Y-100381282D01*
X200400288Y-100520774D01*
X200375000Y-100571419D01*
X200375000Y-99984557D01*
X203182655Y-99984557D01*
X203199430Y-100185768D01*
X203255138Y-100379839D01*
X203347636Y-100559312D01*
X203364796Y-100584992D01*
X203519795Y-100657350D01*
X204177145Y-100000000D01*
X204247855Y-100000000D01*
X204905205Y-100657350D01*
X205060204Y-100584992D01*
X205158042Y-100408372D01*
X205219544Y-100216059D01*
X205227246Y-100148292D01*
X230725000Y-100148292D01*
X230725000Y-100251708D01*
X230745176Y-100353137D01*
X230784751Y-100448681D01*
X230842206Y-100534668D01*
X230915332Y-100607794D01*
X230978497Y-100650000D01*
X230915332Y-100692206D01*
X230842206Y-100765332D01*
X230784751Y-100851319D01*
X230745176Y-100946863D01*
X230725000Y-101048292D01*
X230725000Y-101151708D01*
X230745176Y-101253137D01*
X230784751Y-101348681D01*
X230842206Y-101434668D01*
X230915332Y-101507794D01*
X231001319Y-101565249D01*
X231096863Y-101604824D01*
X231198292Y-101625000D01*
X231301708Y-101625000D01*
X231403137Y-101604824D01*
X231498681Y-101565249D01*
X231584668Y-101507794D01*
X231657794Y-101434668D01*
X231695463Y-101378292D01*
X237285000Y-101378292D01*
X237285000Y-101481708D01*
X237305176Y-101583137D01*
X237344751Y-101678681D01*
X237402206Y-101764668D01*
X237475332Y-101837794D01*
X237561319Y-101895249D01*
X237656863Y-101934824D01*
X237758292Y-101955000D01*
X237861708Y-101955000D01*
X237963137Y-101934824D01*
X238058681Y-101895249D01*
X238144668Y-101837794D01*
X238217794Y-101764668D01*
X238275249Y-101678681D01*
X238314824Y-101583137D01*
X238335000Y-101481708D01*
X238335000Y-101378292D01*
X238314824Y-101276863D01*
X238307391Y-101258917D01*
X238990574Y-101258917D01*
X238990574Y-101362333D01*
X239010750Y-101463762D01*
X239050325Y-101559306D01*
X239107780Y-101645293D01*
X239180906Y-101718419D01*
X239266893Y-101775874D01*
X239362437Y-101815449D01*
X239463866Y-101835625D01*
X239567282Y-101835625D01*
X239668711Y-101815449D01*
X239764255Y-101775874D01*
X239841137Y-101724503D01*
X239873674Y-101746243D01*
X239969218Y-101785818D01*
X240070647Y-101805994D01*
X240174063Y-101805994D01*
X240275492Y-101785818D01*
X240371036Y-101746243D01*
X240457023Y-101688788D01*
X240530149Y-101615662D01*
X240587604Y-101529675D01*
X240627179Y-101434131D01*
X240647355Y-101332702D01*
X240647355Y-101229286D01*
X240627179Y-101127857D01*
X240587604Y-101032313D01*
X240530149Y-100946326D01*
X240457023Y-100873200D01*
X240371036Y-100815745D01*
X240275492Y-100776170D01*
X240174063Y-100755994D01*
X240070647Y-100755994D01*
X239969218Y-100776170D01*
X239873674Y-100815745D01*
X239796792Y-100867116D01*
X239764255Y-100845376D01*
X239668711Y-100805801D01*
X239567282Y-100785625D01*
X239463866Y-100785625D01*
X239362437Y-100805801D01*
X239266893Y-100845376D01*
X239180906Y-100902831D01*
X239107780Y-100975957D01*
X239050325Y-101061944D01*
X239010750Y-101157488D01*
X238990574Y-101258917D01*
X238307391Y-101258917D01*
X238275249Y-101181319D01*
X238217794Y-101095332D01*
X238144668Y-101022206D01*
X238058681Y-100964751D01*
X237963137Y-100925176D01*
X237861708Y-100905000D01*
X237758292Y-100905000D01*
X237656863Y-100925176D01*
X237561319Y-100964751D01*
X237475332Y-101022206D01*
X237402206Y-101095332D01*
X237344751Y-101181319D01*
X237305176Y-101276863D01*
X237285000Y-101378292D01*
X231695463Y-101378292D01*
X231715249Y-101348681D01*
X231754824Y-101253137D01*
X231775000Y-101151708D01*
X231775000Y-101048292D01*
X231754824Y-100946863D01*
X231715249Y-100851319D01*
X231657794Y-100765332D01*
X231584668Y-100692206D01*
X231521503Y-100650000D01*
X231584668Y-100607794D01*
X231657794Y-100534668D01*
X231715249Y-100448681D01*
X231754824Y-100353137D01*
X231775000Y-100251708D01*
X231775000Y-100148292D01*
X231754824Y-100046863D01*
X231715249Y-99951319D01*
X231657794Y-99865332D01*
X231584668Y-99792206D01*
X231498681Y-99734751D01*
X231403137Y-99695176D01*
X231301708Y-99675000D01*
X231198292Y-99675000D01*
X231096863Y-99695176D01*
X231001319Y-99734751D01*
X230915332Y-99792206D01*
X230842206Y-99865332D01*
X230784751Y-99951319D01*
X230745176Y-100046863D01*
X230725000Y-100148292D01*
X205227246Y-100148292D01*
X205242345Y-100015443D01*
X205225570Y-99814232D01*
X205169862Y-99620161D01*
X205077364Y-99440688D01*
X205060204Y-99415008D01*
X204905205Y-99342650D01*
X204247855Y-100000000D01*
X204177145Y-100000000D01*
X203519795Y-99342650D01*
X203364796Y-99415008D01*
X203266958Y-99591628D01*
X203205456Y-99783941D01*
X203182655Y-99984557D01*
X200375000Y-99984557D01*
X200375000Y-99307295D01*
X203555150Y-99307295D01*
X204212500Y-99964645D01*
X204869850Y-99307295D01*
X204797492Y-99152296D01*
X204620872Y-99054458D01*
X204428559Y-98992956D01*
X204227943Y-98970155D01*
X204026732Y-98986930D01*
X203832661Y-99042638D01*
X203653188Y-99135136D01*
X203627508Y-99152296D01*
X203555150Y-99307295D01*
X200375000Y-99307295D01*
X200375000Y-98748300D01*
X208575000Y-98748300D01*
X208575000Y-98851716D01*
X208595176Y-98953145D01*
X208634751Y-99048689D01*
X208692206Y-99134676D01*
X208765332Y-99207802D01*
X208851319Y-99265257D01*
X208946863Y-99304832D01*
X209048292Y-99325008D01*
X209151708Y-99325008D01*
X209253137Y-99304832D01*
X209348681Y-99265257D01*
X209434668Y-99207802D01*
X209507794Y-99134676D01*
X209565249Y-99048689D01*
X209604824Y-98953145D01*
X209625000Y-98851716D01*
X209625000Y-98748300D01*
X209604824Y-98646871D01*
X209565249Y-98551327D01*
X209507794Y-98465340D01*
X209434668Y-98392214D01*
X209348681Y-98334759D01*
X209253137Y-98295184D01*
X209151708Y-98275008D01*
X209048292Y-98275008D01*
X208946863Y-98295184D01*
X208851319Y-98334759D01*
X208765332Y-98392214D01*
X208692206Y-98465340D01*
X208634751Y-98551327D01*
X208595176Y-98646871D01*
X208575000Y-98748300D01*
X200375000Y-98748300D01*
X200375000Y-98258292D01*
X221075000Y-98258292D01*
X221075000Y-98361708D01*
X221095176Y-98463137D01*
X221134751Y-98558681D01*
X221162360Y-98600000D01*
X221134751Y-98641319D01*
X221095176Y-98736863D01*
X221075000Y-98838292D01*
X221075000Y-98941708D01*
X221095176Y-99043137D01*
X221134751Y-99138681D01*
X221192206Y-99224668D01*
X221265332Y-99297794D01*
X221351319Y-99355249D01*
X221446863Y-99394824D01*
X221548292Y-99415000D01*
X221651708Y-99415000D01*
X221753137Y-99394824D01*
X221848681Y-99355249D01*
X221934668Y-99297794D01*
X222007794Y-99224668D01*
X222065249Y-99138681D01*
X222104824Y-99043137D01*
X222125000Y-98941708D01*
X222125000Y-98838292D01*
X222104824Y-98736863D01*
X222065249Y-98641319D01*
X222037640Y-98600000D01*
X222065249Y-98558681D01*
X222104824Y-98463137D01*
X222125000Y-98361708D01*
X222125000Y-98258292D01*
X222104824Y-98156863D01*
X222065249Y-98061319D01*
X222007794Y-97975332D01*
X221934668Y-97902206D01*
X221848681Y-97844751D01*
X221753137Y-97805176D01*
X221651708Y-97785000D01*
X221548292Y-97785000D01*
X221446863Y-97805176D01*
X221351319Y-97844751D01*
X221265332Y-97902206D01*
X221192206Y-97975332D01*
X221134751Y-98061319D01*
X221095176Y-98156863D01*
X221075000Y-98258292D01*
X200375000Y-98258292D01*
X200375000Y-96393231D01*
X205169939Y-96393231D01*
X205169939Y-96496647D01*
X205190115Y-96598076D01*
X205229690Y-96693620D01*
X205287145Y-96779607D01*
X205360271Y-96852733D01*
X205446258Y-96910188D01*
X205541802Y-96949763D01*
X205590542Y-96959458D01*
X205600237Y-97008198D01*
X205639812Y-97103742D01*
X205697267Y-97189729D01*
X205770393Y-97262855D01*
X205856380Y-97320310D01*
X205951924Y-97359885D01*
X206053353Y-97380061D01*
X206156769Y-97380061D01*
X206258198Y-97359885D01*
X206353742Y-97320310D01*
X206439729Y-97262855D01*
X206512855Y-97189729D01*
X206570310Y-97103742D01*
X206609885Y-97008198D01*
X206630061Y-96906769D01*
X206630061Y-96803353D01*
X206609885Y-96701924D01*
X206570310Y-96606380D01*
X206512855Y-96520393D01*
X206490754Y-96498292D01*
X226075000Y-96498292D01*
X226075000Y-96601708D01*
X226095176Y-96703137D01*
X226134751Y-96798681D01*
X226192206Y-96884668D01*
X226265332Y-96957794D01*
X226351319Y-97015249D01*
X226446863Y-97054824D01*
X226548292Y-97075000D01*
X226651708Y-97075000D01*
X226753137Y-97054824D01*
X226848681Y-97015249D01*
X226934668Y-96957794D01*
X227007794Y-96884668D01*
X227065249Y-96798681D01*
X227104824Y-96703137D01*
X227125000Y-96601708D01*
X227125000Y-96548292D01*
X227525000Y-96548292D01*
X227525000Y-96651708D01*
X227545176Y-96753137D01*
X227584751Y-96848681D01*
X227642206Y-96934668D01*
X227715332Y-97007794D01*
X227801319Y-97065249D01*
X227896863Y-97104824D01*
X227976720Y-97120709D01*
X227945176Y-97196863D01*
X227925000Y-97298292D01*
X227925000Y-97401708D01*
X227945176Y-97503137D01*
X227984751Y-97598681D01*
X228042206Y-97684668D01*
X228115332Y-97757794D01*
X228201319Y-97815249D01*
X228296863Y-97854824D01*
X228350276Y-97865449D01*
X228384751Y-97948681D01*
X228442206Y-98034668D01*
X228515332Y-98107794D01*
X228601319Y-98165249D01*
X228696863Y-98204824D01*
X228798292Y-98225000D01*
X228879633Y-98225000D01*
X228895176Y-98303137D01*
X228934751Y-98398681D01*
X228992206Y-98484668D01*
X229065332Y-98557794D01*
X229151319Y-98615249D01*
X229246863Y-98654824D01*
X229348292Y-98675000D01*
X229404220Y-98675000D01*
X229395168Y-98696855D01*
X229374992Y-98798284D01*
X229374992Y-98901700D01*
X229395168Y-99003129D01*
X229434743Y-99098673D01*
X229492198Y-99184660D01*
X229565324Y-99257786D01*
X229651311Y-99315241D01*
X229746855Y-99354816D01*
X229800273Y-99365442D01*
X229834751Y-99448681D01*
X229892206Y-99534668D01*
X229965332Y-99607794D01*
X230051319Y-99665249D01*
X230146863Y-99704824D01*
X230248292Y-99725000D01*
X230351708Y-99725000D01*
X230453137Y-99704824D01*
X230548681Y-99665249D01*
X230634668Y-99607794D01*
X230707794Y-99534668D01*
X230765249Y-99448681D01*
X230804824Y-99353137D01*
X230825000Y-99251708D01*
X230825000Y-99148292D01*
X230804824Y-99046863D01*
X230765249Y-98951319D01*
X230707794Y-98865332D01*
X230634668Y-98792206D01*
X230548681Y-98734751D01*
X230453137Y-98695176D01*
X230399719Y-98684550D01*
X230365241Y-98601311D01*
X230307786Y-98515324D01*
X230234660Y-98442198D01*
X230148673Y-98384743D01*
X230053129Y-98345168D01*
X229951700Y-98324992D01*
X229895772Y-98324992D01*
X229904824Y-98303137D01*
X229925000Y-98201708D01*
X229925000Y-98098292D01*
X229904824Y-97996863D01*
X229865249Y-97901319D01*
X229807794Y-97815332D01*
X229734668Y-97742206D01*
X229648681Y-97684751D01*
X229553137Y-97645176D01*
X229451708Y-97625000D01*
X229370367Y-97625000D01*
X229354824Y-97546863D01*
X229315249Y-97451319D01*
X229257794Y-97365332D01*
X229184668Y-97292206D01*
X229098681Y-97234751D01*
X229003137Y-97195176D01*
X228949724Y-97184551D01*
X228915249Y-97101319D01*
X228879818Y-97048292D01*
X233425000Y-97048292D01*
X233425000Y-97151708D01*
X233445176Y-97253137D01*
X233484751Y-97348681D01*
X233542206Y-97434668D01*
X233615332Y-97507794D01*
X233701319Y-97565249D01*
X233796863Y-97604824D01*
X233898292Y-97625000D01*
X234001708Y-97625000D01*
X234103137Y-97604824D01*
X234198681Y-97565249D01*
X234284668Y-97507794D01*
X234357794Y-97434668D01*
X234415249Y-97348681D01*
X234454824Y-97253137D01*
X234475000Y-97151708D01*
X234475000Y-97048292D01*
X234454824Y-96946863D01*
X234415249Y-96851319D01*
X234357794Y-96765332D01*
X234284668Y-96692206D01*
X234198681Y-96634751D01*
X234103137Y-96595176D01*
X234001708Y-96575000D01*
X233898292Y-96575000D01*
X233796863Y-96595176D01*
X233701319Y-96634751D01*
X233615332Y-96692206D01*
X233542206Y-96765332D01*
X233484751Y-96851319D01*
X233445176Y-96946863D01*
X233425000Y-97048292D01*
X228879818Y-97048292D01*
X228857794Y-97015332D01*
X228784668Y-96942206D01*
X228698681Y-96884751D01*
X228603137Y-96845176D01*
X228523280Y-96829291D01*
X228554824Y-96753137D01*
X228575000Y-96651708D01*
X228575000Y-96548292D01*
X228554824Y-96446863D01*
X228515249Y-96351319D01*
X228457794Y-96265332D01*
X228384668Y-96192206D01*
X228298681Y-96134751D01*
X228203137Y-96095176D01*
X228101708Y-96075000D01*
X227998292Y-96075000D01*
X227896863Y-96095176D01*
X227801319Y-96134751D01*
X227715332Y-96192206D01*
X227642206Y-96265332D01*
X227584751Y-96351319D01*
X227545176Y-96446863D01*
X227525000Y-96548292D01*
X227125000Y-96548292D01*
X227125000Y-96498292D01*
X227104824Y-96396863D01*
X227065249Y-96301319D01*
X227007794Y-96215332D01*
X226934668Y-96142206D01*
X226848681Y-96084751D01*
X226753137Y-96045176D01*
X226651708Y-96025000D01*
X226548292Y-96025000D01*
X226446863Y-96045176D01*
X226351319Y-96084751D01*
X226265332Y-96142206D01*
X226192206Y-96215332D01*
X226134751Y-96301319D01*
X226095176Y-96396863D01*
X226075000Y-96498292D01*
X206490754Y-96498292D01*
X206439729Y-96447267D01*
X206353742Y-96389812D01*
X206258198Y-96350237D01*
X206209458Y-96340542D01*
X206199763Y-96291802D01*
X206160188Y-96196258D01*
X206102733Y-96110271D01*
X206029607Y-96037145D01*
X205943620Y-95979690D01*
X205848076Y-95940115D01*
X205746647Y-95919939D01*
X205643231Y-95919939D01*
X205541802Y-95940115D01*
X205446258Y-95979690D01*
X205360271Y-96037145D01*
X205287145Y-96110271D01*
X205229690Y-96196258D01*
X205190115Y-96291802D01*
X205169939Y-96393231D01*
X200375000Y-96393231D01*
X200375000Y-95692705D01*
X203555150Y-95692705D01*
X203627508Y-95847704D01*
X203804128Y-95945542D01*
X203996441Y-96007044D01*
X204197057Y-96029845D01*
X204398268Y-96013070D01*
X204592339Y-95957362D01*
X204771812Y-95864864D01*
X204797492Y-95847704D01*
X204869850Y-95692705D01*
X204212500Y-95035355D01*
X203555150Y-95692705D01*
X200375000Y-95692705D01*
X200375000Y-94984557D01*
X203182655Y-94984557D01*
X203199430Y-95185768D01*
X203255138Y-95379839D01*
X203347636Y-95559312D01*
X203364796Y-95584992D01*
X203519795Y-95657350D01*
X204177145Y-95000000D01*
X204247855Y-95000000D01*
X204905205Y-95657350D01*
X205060204Y-95584992D01*
X205158042Y-95408372D01*
X205193245Y-95298292D01*
X208575000Y-95298292D01*
X208575000Y-95401708D01*
X208595176Y-95503137D01*
X208634751Y-95598681D01*
X208692206Y-95684668D01*
X208765332Y-95757794D01*
X208851319Y-95815249D01*
X208946863Y-95854824D01*
X209048292Y-95875000D01*
X209151708Y-95875000D01*
X209253137Y-95854824D01*
X209348681Y-95815249D01*
X209434668Y-95757794D01*
X209507794Y-95684668D01*
X209532099Y-95648292D01*
X212525000Y-95648292D01*
X212525000Y-95751708D01*
X212545176Y-95853137D01*
X212584751Y-95948681D01*
X212642206Y-96034668D01*
X212715332Y-96107794D01*
X212801319Y-96165249D01*
X212896863Y-96204824D01*
X212998292Y-96225000D01*
X213101708Y-96225000D01*
X213203137Y-96204824D01*
X213298681Y-96165249D01*
X213384668Y-96107794D01*
X213450000Y-96042462D01*
X213515332Y-96107794D01*
X213601319Y-96165249D01*
X213696863Y-96204824D01*
X213798292Y-96225000D01*
X213901708Y-96225000D01*
X214003137Y-96204824D01*
X214098681Y-96165249D01*
X214184668Y-96107794D01*
X214257794Y-96034668D01*
X214315249Y-95948681D01*
X214354824Y-95853137D01*
X214375000Y-95751708D01*
X214375000Y-95648292D01*
X214354824Y-95546863D01*
X214315249Y-95451319D01*
X214257794Y-95365332D01*
X214184668Y-95292206D01*
X214098681Y-95234751D01*
X214003137Y-95195176D01*
X213901708Y-95175000D01*
X213798292Y-95175000D01*
X213696863Y-95195176D01*
X213601319Y-95234751D01*
X213515332Y-95292206D01*
X213450000Y-95357538D01*
X213384668Y-95292206D01*
X213298681Y-95234751D01*
X213203137Y-95195176D01*
X213101708Y-95175000D01*
X212998292Y-95175000D01*
X212896863Y-95195176D01*
X212801319Y-95234751D01*
X212715332Y-95292206D01*
X212642206Y-95365332D01*
X212584751Y-95451319D01*
X212545176Y-95546863D01*
X212525000Y-95648292D01*
X209532099Y-95648292D01*
X209565249Y-95598681D01*
X209604824Y-95503137D01*
X209625000Y-95401708D01*
X209625000Y-95298292D01*
X209604824Y-95196863D01*
X209565249Y-95101319D01*
X209529818Y-95048292D01*
X232925000Y-95048292D01*
X232925000Y-95151708D01*
X232945176Y-95253137D01*
X232984751Y-95348681D01*
X233042206Y-95434668D01*
X233115332Y-95507794D01*
X233201319Y-95565249D01*
X233296863Y-95604824D01*
X233398292Y-95625000D01*
X233501708Y-95625000D01*
X233603137Y-95604824D01*
X233698681Y-95565249D01*
X233784668Y-95507794D01*
X233857794Y-95434668D01*
X233915249Y-95348681D01*
X233954824Y-95253137D01*
X233975000Y-95151708D01*
X233975000Y-95048292D01*
X233954824Y-94946863D01*
X233915249Y-94851319D01*
X233857794Y-94765332D01*
X233784668Y-94692206D01*
X233698681Y-94634751D01*
X233603137Y-94595176D01*
X233501708Y-94575000D01*
X233398292Y-94575000D01*
X233296863Y-94595176D01*
X233201319Y-94634751D01*
X233115332Y-94692206D01*
X233042206Y-94765332D01*
X232984751Y-94851319D01*
X232945176Y-94946863D01*
X232925000Y-95048292D01*
X209529818Y-95048292D01*
X209507794Y-95015332D01*
X209434668Y-94942206D01*
X209348681Y-94884751D01*
X209253137Y-94845176D01*
X209151708Y-94825000D01*
X209048292Y-94825000D01*
X208946863Y-94845176D01*
X208851319Y-94884751D01*
X208765332Y-94942206D01*
X208692206Y-95015332D01*
X208634751Y-95101319D01*
X208595176Y-95196863D01*
X208575000Y-95298292D01*
X205193245Y-95298292D01*
X205219544Y-95216059D01*
X205242345Y-95015443D01*
X205225570Y-94814232D01*
X205169862Y-94620161D01*
X205077364Y-94440688D01*
X205060204Y-94415008D01*
X204905205Y-94342650D01*
X204247855Y-95000000D01*
X204177145Y-95000000D01*
X203519795Y-94342650D01*
X203364796Y-94415008D01*
X203266958Y-94591628D01*
X203205456Y-94783941D01*
X203182655Y-94984557D01*
X200375000Y-94984557D01*
X200375000Y-94428581D01*
X200400288Y-94479226D01*
X200508426Y-94618718D01*
X200641700Y-94734433D01*
X200794988Y-94821924D01*
X200962399Y-94877829D01*
X201137500Y-94900000D01*
X201487500Y-94900000D01*
X201487500Y-94025000D01*
X201537500Y-94025000D01*
X201537500Y-94900000D01*
X201887500Y-94900000D01*
X202062601Y-94877829D01*
X202230012Y-94821924D01*
X202383300Y-94734433D01*
X202516574Y-94618718D01*
X202624712Y-94479226D01*
X202703559Y-94321318D01*
X202707481Y-94307295D01*
X203555150Y-94307295D01*
X204212500Y-94964645D01*
X204869850Y-94307295D01*
X204797492Y-94152296D01*
X204620872Y-94054458D01*
X204428559Y-93992956D01*
X204227943Y-93970155D01*
X204026732Y-93986930D01*
X203832661Y-94042638D01*
X203653188Y-94135136D01*
X203627508Y-94152296D01*
X203555150Y-94307295D01*
X202707481Y-94307295D01*
X202747166Y-94165429D01*
X202687121Y-94025000D01*
X201537500Y-94025000D01*
X201487500Y-94025000D01*
X201467500Y-94025000D01*
X201467500Y-93975000D01*
X201487500Y-93975000D01*
X201487500Y-93100000D01*
X201537500Y-93100000D01*
X201537500Y-93975000D01*
X202687121Y-93975000D01*
X202747166Y-93834571D01*
X202703559Y-93678682D01*
X202638453Y-93548292D01*
X230375000Y-93548292D01*
X230375000Y-93651708D01*
X230395176Y-93753137D01*
X230434751Y-93848681D01*
X230492206Y-93934668D01*
X230565332Y-94007794D01*
X230651319Y-94065249D01*
X230746863Y-94104824D01*
X230848292Y-94125000D01*
X230951708Y-94125000D01*
X231053137Y-94104824D01*
X231148681Y-94065249D01*
X231234668Y-94007794D01*
X231307794Y-93934668D01*
X231365249Y-93848681D01*
X231404824Y-93753137D01*
X231425000Y-93651708D01*
X231425000Y-93627690D01*
X231455114Y-93657804D01*
X231541101Y-93715259D01*
X231636645Y-93754834D01*
X231725000Y-93772409D01*
X231725000Y-93801708D01*
X231745176Y-93903137D01*
X231784751Y-93998681D01*
X231842206Y-94084668D01*
X231915332Y-94157794D01*
X232001319Y-94215249D01*
X232096863Y-94254824D01*
X232198292Y-94275000D01*
X232253120Y-94275000D01*
X232255924Y-94289097D01*
X232295499Y-94384641D01*
X232352954Y-94470628D01*
X232426080Y-94543754D01*
X232512067Y-94601209D01*
X232607611Y-94640784D01*
X232709040Y-94660960D01*
X232812456Y-94660960D01*
X232913885Y-94640784D01*
X233009429Y-94601209D01*
X233095416Y-94543754D01*
X233168542Y-94470628D01*
X233225997Y-94384641D01*
X233265572Y-94289097D01*
X233285748Y-94187668D01*
X233285748Y-94084252D01*
X233265572Y-93982823D01*
X233225997Y-93887279D01*
X233168542Y-93801292D01*
X233095416Y-93728166D01*
X233009429Y-93670711D01*
X232913885Y-93631136D01*
X232812456Y-93610960D01*
X232757628Y-93610960D01*
X232754824Y-93596863D01*
X232715249Y-93501319D01*
X232657794Y-93415332D01*
X232584668Y-93342206D01*
X232498681Y-93284751D01*
X232403137Y-93245176D01*
X232314782Y-93227601D01*
X232314782Y-93198302D01*
X232294606Y-93096873D01*
X232255031Y-93001329D01*
X232197576Y-92915342D01*
X232124450Y-92842216D01*
X232038463Y-92784761D01*
X231942919Y-92745186D01*
X231841490Y-92725010D01*
X231738074Y-92725010D01*
X231636645Y-92745186D01*
X231541101Y-92784761D01*
X231455114Y-92842216D01*
X231381988Y-92915342D01*
X231324533Y-93001329D01*
X231284958Y-93096873D01*
X231264782Y-93198302D01*
X231264782Y-93222320D01*
X231234668Y-93192206D01*
X231148681Y-93134751D01*
X231053137Y-93095176D01*
X230951708Y-93075000D01*
X230848292Y-93075000D01*
X230746863Y-93095176D01*
X230651319Y-93134751D01*
X230565332Y-93192206D01*
X230492206Y-93265332D01*
X230434751Y-93351319D01*
X230395176Y-93446863D01*
X230375000Y-93548292D01*
X202638453Y-93548292D01*
X202624712Y-93520774D01*
X202516574Y-93381282D01*
X202383300Y-93265567D01*
X202230012Y-93178076D01*
X202062601Y-93122171D01*
X201887500Y-93100000D01*
X201537500Y-93100000D01*
X201487500Y-93100000D01*
X201137500Y-93100000D01*
X200962399Y-93122171D01*
X200794988Y-93178076D01*
X200641700Y-93265567D01*
X200508426Y-93381282D01*
X200400288Y-93520774D01*
X200375000Y-93571419D01*
X200375000Y-91598292D01*
X205575000Y-91598292D01*
X205575000Y-91701708D01*
X205595176Y-91803137D01*
X205634751Y-91898681D01*
X205692206Y-91984668D01*
X205765332Y-92057794D01*
X205851319Y-92115249D01*
X205946863Y-92154824D01*
X206048292Y-92175000D01*
X206151708Y-92175000D01*
X206253137Y-92154824D01*
X206348681Y-92115249D01*
X206391800Y-92086437D01*
X227839132Y-92086437D01*
X227839132Y-92189853D01*
X227859308Y-92291282D01*
X227898883Y-92386826D01*
X227956338Y-92472813D01*
X228029464Y-92545939D01*
X228115451Y-92603394D01*
X228210995Y-92642969D01*
X228312424Y-92663145D01*
X228415840Y-92663145D01*
X228517269Y-92642969D01*
X228612813Y-92603394D01*
X228665602Y-92568121D01*
X228715459Y-92601435D01*
X228811003Y-92641010D01*
X228912432Y-92661186D01*
X229015848Y-92661186D01*
X229117277Y-92641010D01*
X229212821Y-92601435D01*
X229298808Y-92543980D01*
X229371934Y-92470854D01*
X229429389Y-92384867D01*
X229464983Y-92298935D01*
X229494166Y-92298935D01*
X229595595Y-92278759D01*
X229691139Y-92239184D01*
X229777126Y-92181729D01*
X229850252Y-92108603D01*
X229854251Y-92102617D01*
X241682738Y-92102617D01*
X241782085Y-92280657D01*
X241996951Y-92400912D01*
X242231149Y-92476937D01*
X242475678Y-92505812D01*
X242721143Y-92486426D01*
X242958108Y-92419526D01*
X243177469Y-92307680D01*
X243217915Y-92280657D01*
X243317262Y-92102617D01*
X242500000Y-91285355D01*
X241682738Y-92102617D01*
X229854251Y-92102617D01*
X229907707Y-92022616D01*
X229947282Y-91927072D01*
X229966451Y-91830707D01*
X229989472Y-91826128D01*
X230085016Y-91786553D01*
X230171003Y-91729098D01*
X230244129Y-91655972D01*
X230301584Y-91569985D01*
X230341159Y-91474441D01*
X230361335Y-91373012D01*
X230361335Y-91269596D01*
X230352599Y-91225678D01*
X241244188Y-91225678D01*
X241263574Y-91471143D01*
X241330474Y-91708108D01*
X241442320Y-91927469D01*
X241469343Y-91967915D01*
X241647383Y-92067262D01*
X242464645Y-91250000D01*
X242535355Y-91250000D01*
X243352617Y-92067262D01*
X243530657Y-91967915D01*
X243650912Y-91753049D01*
X243726937Y-91518851D01*
X243728853Y-91502617D01*
X246582738Y-91502617D01*
X246682085Y-91680657D01*
X246896951Y-91800912D01*
X247131149Y-91876937D01*
X247375678Y-91905812D01*
X247621143Y-91886426D01*
X247858108Y-91819526D01*
X248077469Y-91707680D01*
X248117915Y-91680657D01*
X248217262Y-91502617D01*
X247400000Y-90685355D01*
X246582738Y-91502617D01*
X243728853Y-91502617D01*
X243755812Y-91274322D01*
X243736426Y-91028857D01*
X243669526Y-90791892D01*
X243584779Y-90625678D01*
X246144188Y-90625678D01*
X246163574Y-90871143D01*
X246230474Y-91108108D01*
X246342320Y-91327469D01*
X246369343Y-91367915D01*
X246547383Y-91467262D01*
X247364645Y-90650000D01*
X247435355Y-90650000D01*
X248252617Y-91467262D01*
X248430657Y-91367915D01*
X248550912Y-91153049D01*
X248626937Y-90918851D01*
X248655812Y-90674322D01*
X248636426Y-90428857D01*
X248569526Y-90191892D01*
X248457680Y-89972531D01*
X248430657Y-89932085D01*
X248252617Y-89832738D01*
X247435355Y-90650000D01*
X247364645Y-90650000D01*
X246547383Y-89832738D01*
X246369343Y-89932085D01*
X246249088Y-90146951D01*
X246173063Y-90381149D01*
X246144188Y-90625678D01*
X243584779Y-90625678D01*
X243557680Y-90572531D01*
X243530657Y-90532085D01*
X243352617Y-90432738D01*
X242535355Y-91250000D01*
X242464645Y-91250000D01*
X241647383Y-90432738D01*
X241469343Y-90532085D01*
X241349088Y-90746951D01*
X241273063Y-90981149D01*
X241244188Y-91225678D01*
X230352599Y-91225678D01*
X230341159Y-91168167D01*
X230301584Y-91072623D01*
X230244129Y-90986636D01*
X230171003Y-90913510D01*
X230085016Y-90856055D01*
X229989472Y-90816480D01*
X229888043Y-90796304D01*
X229784627Y-90796304D01*
X229683198Y-90816480D01*
X229587654Y-90856055D01*
X229501667Y-90913510D01*
X229428541Y-90986636D01*
X229371086Y-91072623D01*
X229331511Y-91168167D01*
X229312342Y-91264532D01*
X229289321Y-91269111D01*
X229193777Y-91308686D01*
X229107790Y-91366141D01*
X229034664Y-91439267D01*
X228977209Y-91525254D01*
X228941615Y-91611186D01*
X228912432Y-91611186D01*
X228811003Y-91631362D01*
X228715459Y-91670937D01*
X228662670Y-91706210D01*
X228612813Y-91672896D01*
X228517269Y-91633321D01*
X228415840Y-91613145D01*
X228312424Y-91613145D01*
X228210995Y-91633321D01*
X228115451Y-91672896D01*
X228029464Y-91730351D01*
X227956338Y-91803477D01*
X227898883Y-91889464D01*
X227859308Y-91985008D01*
X227839132Y-92086437D01*
X206391800Y-92086437D01*
X206434668Y-92057794D01*
X206507794Y-91984668D01*
X206565249Y-91898681D01*
X206604824Y-91803137D01*
X206625000Y-91701708D01*
X206625000Y-91598292D01*
X206604824Y-91496863D01*
X206565249Y-91401319D01*
X206507794Y-91315332D01*
X206434668Y-91242206D01*
X206348681Y-91184751D01*
X206253137Y-91145176D01*
X206151708Y-91125000D01*
X206048292Y-91125000D01*
X205946863Y-91145176D01*
X205851319Y-91184751D01*
X205765332Y-91242206D01*
X205692206Y-91315332D01*
X205634751Y-91401319D01*
X205595176Y-91496863D01*
X205575000Y-91598292D01*
X200375000Y-91598292D01*
X200375000Y-90898288D01*
X214375000Y-90898288D01*
X214375000Y-91001704D01*
X214395176Y-91103133D01*
X214434751Y-91198677D01*
X214492206Y-91284664D01*
X214565332Y-91357790D01*
X214651319Y-91415245D01*
X214746863Y-91454820D01*
X214848292Y-91474996D01*
X214951708Y-91474996D01*
X215053137Y-91454820D01*
X215148681Y-91415245D01*
X215234668Y-91357790D01*
X215307794Y-91284664D01*
X215365249Y-91198677D01*
X215404824Y-91103133D01*
X215425000Y-91001704D01*
X215425000Y-90898288D01*
X215404824Y-90796859D01*
X215365249Y-90701315D01*
X215307794Y-90615328D01*
X215234668Y-90542202D01*
X215148681Y-90484747D01*
X215053137Y-90445172D01*
X214951708Y-90424996D01*
X214848292Y-90424996D01*
X214746863Y-90445172D01*
X214651319Y-90484747D01*
X214565332Y-90542202D01*
X214492206Y-90615328D01*
X214434751Y-90701315D01*
X214395176Y-90796859D01*
X214375000Y-90898288D01*
X200375000Y-90898288D01*
X200375000Y-90048292D01*
X210675000Y-90048292D01*
X210675000Y-90151708D01*
X210695176Y-90253137D01*
X210734751Y-90348681D01*
X210792206Y-90434668D01*
X210865332Y-90507794D01*
X210951319Y-90565249D01*
X211046863Y-90604824D01*
X211148292Y-90625000D01*
X211251708Y-90625000D01*
X211353137Y-90604824D01*
X211448681Y-90565249D01*
X211534668Y-90507794D01*
X211607794Y-90434668D01*
X211665249Y-90348681D01*
X211704824Y-90253137D01*
X211725000Y-90151708D01*
X211725000Y-90048292D01*
X213125000Y-90048292D01*
X213125000Y-90151708D01*
X213145176Y-90253137D01*
X213184751Y-90348681D01*
X213242206Y-90434668D01*
X213315332Y-90507794D01*
X213401319Y-90565249D01*
X213496863Y-90604824D01*
X213598292Y-90625000D01*
X213701708Y-90625000D01*
X213803137Y-90604824D01*
X213898681Y-90565249D01*
X213984668Y-90507794D01*
X214057794Y-90434668D01*
X214082707Y-90397383D01*
X241682738Y-90397383D01*
X242500000Y-91214645D01*
X243317262Y-90397383D01*
X243217915Y-90219343D01*
X243003049Y-90099088D01*
X242768851Y-90023063D01*
X242524322Y-89994188D01*
X242278857Y-90013574D01*
X242041892Y-90080474D01*
X241822531Y-90192320D01*
X241782085Y-90219343D01*
X241682738Y-90397383D01*
X214082707Y-90397383D01*
X214115249Y-90348681D01*
X214154824Y-90253137D01*
X214175000Y-90151708D01*
X214175000Y-90048292D01*
X214154824Y-89946863D01*
X214115249Y-89851319D01*
X214057794Y-89765332D01*
X213984668Y-89692206D01*
X213898681Y-89634751D01*
X213803137Y-89595176D01*
X213701708Y-89575000D01*
X213598292Y-89575000D01*
X213496863Y-89595176D01*
X213401319Y-89634751D01*
X213315332Y-89692206D01*
X213242206Y-89765332D01*
X213184751Y-89851319D01*
X213145176Y-89946863D01*
X213125000Y-90048292D01*
X211725000Y-90048292D01*
X211704824Y-89946863D01*
X211665249Y-89851319D01*
X211607794Y-89765332D01*
X211534668Y-89692206D01*
X211448681Y-89634751D01*
X211353137Y-89595176D01*
X211251708Y-89575000D01*
X211148292Y-89575000D01*
X211046863Y-89595176D01*
X210951319Y-89634751D01*
X210865332Y-89692206D01*
X210792206Y-89765332D01*
X210734751Y-89851319D01*
X210695176Y-89946863D01*
X210675000Y-90048292D01*
X200375000Y-90048292D01*
X200375000Y-88018338D01*
X200403713Y-87725500D01*
X200480702Y-88112547D01*
X200639004Y-88494723D01*
X200868823Y-88838672D01*
X201161328Y-89131177D01*
X201505277Y-89360996D01*
X201887453Y-89519298D01*
X202293168Y-89600000D01*
X202706832Y-89600000D01*
X203112547Y-89519298D01*
X203494723Y-89360996D01*
X203838672Y-89131177D01*
X204131177Y-88838672D01*
X204360996Y-88494723D01*
X204519298Y-88112547D01*
X204600000Y-87706832D01*
X204600000Y-87293168D01*
X204519298Y-86887453D01*
X204360996Y-86505277D01*
X204131177Y-86161328D01*
X203838672Y-85868823D01*
X203494723Y-85639004D01*
X203112547Y-85480702D01*
X202725748Y-85403763D01*
X202999360Y-85375005D01*
X203000733Y-85375000D01*
X232773084Y-85375000D01*
X232727523Y-85399353D01*
G37*
X232727523Y-85399353D02*
X232681842Y-85436842D01*
X232644353Y-85482523D01*
X232616496Y-85534640D01*
X232599341Y-85591190D01*
X232593549Y-85650000D01*
X232593549Y-87350000D01*
X232599341Y-87408810D01*
X232616496Y-87465360D01*
X232644353Y-87517477D01*
X232681842Y-87563158D01*
X232727523Y-87600647D01*
X232779640Y-87628504D01*
X232836190Y-87645659D01*
X232895000Y-87651451D01*
X234595000Y-87651451D01*
X234653810Y-87645659D01*
X234710360Y-87628504D01*
X234762477Y-87600647D01*
X234808158Y-87563158D01*
X234845647Y-87517477D01*
X234873504Y-87465360D01*
X234890659Y-87408810D01*
X234896451Y-87350000D01*
X234896451Y-85650000D01*
X234890659Y-85591190D01*
X234873504Y-85534640D01*
X234845647Y-85482523D01*
X234808158Y-85436842D01*
X234762477Y-85399353D01*
X234716916Y-85375000D01*
X236046052Y-85375000D01*
X235949557Y-85394194D01*
X235740271Y-85480884D01*
X235551918Y-85606737D01*
X235391737Y-85766918D01*
X235265884Y-85955271D01*
X235179194Y-86164557D01*
X235135000Y-86386735D01*
X235135000Y-86613265D01*
X235179194Y-86835443D01*
X235265884Y-87044729D01*
X235391737Y-87233082D01*
X235551918Y-87393263D01*
X235740271Y-87519116D01*
X235949557Y-87605806D01*
X236171735Y-87650000D01*
X236398265Y-87650000D01*
X236620443Y-87605806D01*
X236829729Y-87519116D01*
X237018082Y-87393263D01*
X237178263Y-87233082D01*
X237304116Y-87044729D01*
X237390806Y-86835443D01*
X237435000Y-86613265D01*
X237435000Y-86386735D01*
X237390806Y-86164557D01*
X237304116Y-85955271D01*
X237178263Y-85766918D01*
X237018082Y-85606737D01*
X236829729Y-85480884D01*
X236620443Y-85394194D01*
X236523948Y-85375000D01*
X238586052Y-85375000D01*
X238489557Y-85394194D01*
X238280271Y-85480884D01*
X238091918Y-85606737D01*
X237931737Y-85766918D01*
X237805884Y-85955271D01*
X237719194Y-86164557D01*
X237675000Y-86386735D01*
X237675000Y-86613265D01*
X237719194Y-86835443D01*
X237805884Y-87044729D01*
X237931737Y-87233082D01*
X238091918Y-87393263D01*
X238280271Y-87519116D01*
X238489557Y-87605806D01*
X238711735Y-87650000D01*
X238938265Y-87650000D01*
X239160443Y-87605806D01*
X239369729Y-87519116D01*
X239558082Y-87393263D01*
X239718263Y-87233082D01*
X239844116Y-87044729D01*
X239930806Y-86835443D01*
X239975000Y-86613265D01*
X239975000Y-86386735D01*
X239930806Y-86164557D01*
X239844116Y-85955271D01*
X239718263Y-85766918D01*
X239558082Y-85606737D01*
X239369729Y-85480884D01*
X239160443Y-85394194D01*
X239063948Y-85375000D01*
X241126052Y-85375000D01*
X241029557Y-85394194D01*
X240820271Y-85480884D01*
X240631918Y-85606737D01*
X240471737Y-85766918D01*
X240345884Y-85955271D01*
X240259194Y-86164557D01*
X240215000Y-86386735D01*
X240215000Y-86613265D01*
X240259194Y-86835443D01*
X240345884Y-87044729D01*
X240471737Y-87233082D01*
X240631918Y-87393263D01*
X240820271Y-87519116D01*
X241029557Y-87605806D01*
X241251735Y-87650000D01*
X241478265Y-87650000D01*
X241700443Y-87605806D01*
X241909729Y-87519116D01*
X242098082Y-87393263D01*
X242258263Y-87233082D01*
X242384116Y-87044729D01*
X242470806Y-86835443D01*
X242496842Y-86704549D01*
X242773337Y-86704549D01*
X242834987Y-86921395D01*
X242937757Y-87122047D01*
X243077698Y-87298794D01*
X243249431Y-87444844D01*
X243446357Y-87554584D01*
X243660909Y-87623797D01*
X243700451Y-87631662D01*
X243880000Y-87574709D01*
X243880000Y-86525000D01*
X243930000Y-86525000D01*
X243930000Y-87574709D01*
X244109549Y-87631662D01*
X244149091Y-87623797D01*
X244363643Y-87554584D01*
X244560569Y-87444844D01*
X244732302Y-87298794D01*
X244872243Y-87122047D01*
X244975013Y-86921395D01*
X245036663Y-86704549D01*
X244979729Y-86525000D01*
X243930000Y-86525000D01*
X243880000Y-86525000D01*
X242830271Y-86525000D01*
X242773337Y-86704549D01*
X242496842Y-86704549D01*
X242515000Y-86613265D01*
X242515000Y-86386735D01*
X242470806Y-86164557D01*
X242384116Y-85955271D01*
X242258263Y-85766918D01*
X242098082Y-85606737D01*
X241909729Y-85480884D01*
X241700443Y-85394194D01*
X241603948Y-85375000D01*
X243666957Y-85375000D01*
X243660909Y-85376203D01*
X243446357Y-85445416D01*
X243249431Y-85555156D01*
X243077698Y-85701206D01*
X242937757Y-85877953D01*
X242834987Y-86078605D01*
X242773337Y-86295451D01*
X242830271Y-86475000D01*
X243880000Y-86475000D01*
X243880000Y-86455000D01*
X243930000Y-86455000D01*
X243930000Y-86475000D01*
X244979729Y-86475000D01*
X245036663Y-86295451D01*
X244975013Y-86078605D01*
X244872243Y-85877953D01*
X244732302Y-85701206D01*
X244560569Y-85555156D01*
X244363643Y-85445416D01*
X244149091Y-85376203D01*
X244143043Y-85375000D01*
X246981662Y-85375000D01*
X247274500Y-85403713D01*
X246887453Y-85480702D01*
X246505277Y-85639004D01*
X246161328Y-85868823D01*
X245868823Y-86161328D01*
X245639004Y-86505277D01*
X245480702Y-86887453D01*
X245400000Y-87293168D01*
X245400000Y-87706832D01*
X245480702Y-88112547D01*
X245639004Y-88494723D01*
X245868823Y-88838672D01*
X246161328Y-89131177D01*
X246505277Y-89360996D01*
X246875477Y-89514337D01*
X246722531Y-89592320D01*
X246682085Y-89619343D01*
X246582738Y-89797383D01*
X247400000Y-90614645D01*
X248217262Y-89797383D01*
X248117915Y-89619343D01*
X247984624Y-89544744D01*
X248112547Y-89519298D01*
X248494723Y-89360996D01*
X248838672Y-89131177D01*
X249131177Y-88838672D01*
X249360996Y-88494723D01*
X249519298Y-88112547D01*
X249596237Y-87725748D01*
X249624995Y-87999360D01*
X249625000Y-88000733D01*
X249625001Y-111981652D01*
X249596287Y-112274500D01*
X249519298Y-111887453D01*
X249360996Y-111505277D01*
X249131177Y-111161328D01*
X248838672Y-110868823D01*
X248494723Y-110639004D01*
X248112547Y-110480702D01*
X247706832Y-110400000D01*
X247293168Y-110400000D01*
X246887453Y-110480702D01*
X246505277Y-110639004D01*
X246161328Y-110868823D01*
X245868823Y-111161328D01*
X245639004Y-111505277D01*
X245480702Y-111887453D01*
X245400000Y-112293168D01*
X245400000Y-112706832D01*
X245480702Y-113112547D01*
X245639004Y-113494723D01*
X245868823Y-113838672D01*
X246161328Y-114131177D01*
X246505277Y-114360996D01*
X246887453Y-114519298D01*
X247274252Y-114596237D01*
X247000640Y-114624995D01*
X246999267Y-114625000D01*
X203018337Y-114625000D01*
X202725500Y-114596287D01*
X203112547Y-114519298D01*
X203494723Y-114360996D01*
X203838672Y-114131177D01*
X204131177Y-113838672D01*
X204360996Y-113494723D01*
X204363553Y-113488549D01*
X223785338Y-113488549D01*
X223793203Y-113528091D01*
X223862416Y-113742643D01*
X223972156Y-113939569D01*
X224118206Y-114111302D01*
X224294953Y-114251243D01*
X224495605Y-114354013D01*
X224712451Y-114415663D01*
X224892000Y-114358729D01*
X224892000Y-113309000D01*
X224942000Y-113309000D01*
X224942000Y-114358729D01*
X225121549Y-114415663D01*
X225338395Y-114354013D01*
X225539047Y-114251243D01*
X225715794Y-114111302D01*
X225861844Y-113939569D01*
X225971584Y-113742643D01*
X226040797Y-113528091D01*
X226048662Y-113488549D01*
X225991709Y-113309000D01*
X224942000Y-113309000D01*
X224892000Y-113309000D01*
X223842291Y-113309000D01*
X223785338Y-113488549D01*
X204363553Y-113488549D01*
X204519298Y-113112547D01*
X204525881Y-113079451D01*
X223785338Y-113079451D01*
X223842291Y-113259000D01*
X224892000Y-113259000D01*
X224892000Y-112209271D01*
X224942000Y-112209271D01*
X224942000Y-113259000D01*
X225991709Y-113259000D01*
X226048662Y-113079451D01*
X226040797Y-113039909D01*
X225971584Y-112825357D01*
X225861844Y-112628431D01*
X225715794Y-112456698D01*
X225539047Y-112316757D01*
X225338395Y-112213987D01*
X225121549Y-112152337D01*
X224942000Y-112209271D01*
X224892000Y-112209271D01*
X224712451Y-112152337D01*
X224495605Y-112213987D01*
X224294953Y-112316757D01*
X224118206Y-112456698D01*
X223972156Y-112628431D01*
X223862416Y-112825357D01*
X223793203Y-113039909D01*
X223785338Y-113079451D01*
X204525881Y-113079451D01*
X204600000Y-112706832D01*
X204600000Y-112293168D01*
X204519298Y-111887453D01*
X204360996Y-111505277D01*
X204131177Y-111161328D01*
X203838672Y-110868823D01*
X203494723Y-110639004D01*
X203112547Y-110480702D01*
X203100648Y-110478335D01*
X205834600Y-110478335D01*
X205834600Y-110704865D01*
X205878794Y-110927043D01*
X205965484Y-111136329D01*
X206091337Y-111324682D01*
X206251518Y-111484863D01*
X206439871Y-111610716D01*
X206649157Y-111697406D01*
X206871335Y-111741600D01*
X207097865Y-111741600D01*
X207320043Y-111697406D01*
X207529329Y-111610716D01*
X207717682Y-111484863D01*
X207877863Y-111324682D01*
X208003716Y-111136329D01*
X208090406Y-110927043D01*
X208116442Y-110796149D01*
X208392937Y-110796149D01*
X208454587Y-111012995D01*
X208557357Y-111213647D01*
X208697298Y-111390394D01*
X208869031Y-111536444D01*
X209065957Y-111646184D01*
X209280509Y-111715397D01*
X209320051Y-111723262D01*
X209499600Y-111666309D01*
X209499600Y-110616600D01*
X209549600Y-110616600D01*
X209549600Y-111666309D01*
X209729149Y-111723262D01*
X209768691Y-111715397D01*
X209983243Y-111646184D01*
X210180169Y-111536444D01*
X210351902Y-111390394D01*
X210491843Y-111213647D01*
X210594613Y-111012995D01*
X210656263Y-110796149D01*
X210599329Y-110616600D01*
X209549600Y-110616600D01*
X209499600Y-110616600D01*
X208449871Y-110616600D01*
X208392937Y-110796149D01*
X208116442Y-110796149D01*
X208134600Y-110704865D01*
X208134600Y-110478335D01*
X208116443Y-110387051D01*
X208392937Y-110387051D01*
X208449871Y-110566600D01*
X209499600Y-110566600D01*
X209499600Y-109516891D01*
X209549600Y-109516891D01*
X209549600Y-110566600D01*
X210599329Y-110566600D01*
X210627317Y-110478335D01*
X210914600Y-110478335D01*
X210914600Y-110704865D01*
X210958794Y-110927043D01*
X211045484Y-111136329D01*
X211171337Y-111324682D01*
X211331518Y-111484863D01*
X211519871Y-111610716D01*
X211729157Y-111697406D01*
X211951335Y-111741600D01*
X212177865Y-111741600D01*
X212400043Y-111697406D01*
X212609329Y-111610716D01*
X212797682Y-111484863D01*
X212957863Y-111324682D01*
X213083716Y-111136329D01*
X213170406Y-110927043D01*
X213214600Y-110704865D01*
X213214600Y-110478335D01*
X213454600Y-110478335D01*
X213454600Y-110704865D01*
X213498794Y-110927043D01*
X213585484Y-111136329D01*
X213711337Y-111324682D01*
X213871518Y-111484863D01*
X214059871Y-111610716D01*
X214269157Y-111697406D01*
X214491335Y-111741600D01*
X214717865Y-111741600D01*
X214940043Y-111697406D01*
X215149329Y-111610716D01*
X215337682Y-111484863D01*
X215497863Y-111324682D01*
X215623716Y-111136329D01*
X215710406Y-110927043D01*
X215754600Y-110704865D01*
X215754600Y-110478335D01*
X215994600Y-110478335D01*
X215994600Y-110704865D01*
X216038794Y-110927043D01*
X216125484Y-111136329D01*
X216251337Y-111324682D01*
X216411518Y-111484863D01*
X216599871Y-111610716D01*
X216809157Y-111697406D01*
X217031335Y-111741600D01*
X217257865Y-111741600D01*
X217480043Y-111697406D01*
X217689329Y-111610716D01*
X217877682Y-111484863D01*
X218037863Y-111324682D01*
X218163716Y-111136329D01*
X218250406Y-110927043D01*
X218294600Y-110704865D01*
X218294600Y-110478335D01*
X218534600Y-110478335D01*
X218534600Y-110704865D01*
X218578794Y-110927043D01*
X218665484Y-111136329D01*
X218791337Y-111324682D01*
X218951518Y-111484863D01*
X219139871Y-111610716D01*
X219349157Y-111697406D01*
X219571335Y-111741600D01*
X219797865Y-111741600D01*
X220020043Y-111697406D01*
X220229329Y-111610716D01*
X220417682Y-111484863D01*
X220577863Y-111324682D01*
X220703716Y-111136329D01*
X220790406Y-110927043D01*
X220834600Y-110704865D01*
X220834600Y-110478335D01*
X220790406Y-110256157D01*
X220703716Y-110046871D01*
X220601572Y-109894000D01*
X223765549Y-109894000D01*
X223765549Y-111594000D01*
X223771341Y-111652810D01*
X223788496Y-111709360D01*
X223816353Y-111761477D01*
X223853842Y-111807158D01*
X223899523Y-111844647D01*
X223951640Y-111872504D01*
X224008190Y-111889659D01*
X224067000Y-111895451D01*
X225767000Y-111895451D01*
X225825810Y-111889659D01*
X225882360Y-111872504D01*
X225934477Y-111844647D01*
X225980158Y-111807158D01*
X226017647Y-111761477D01*
X226045504Y-111709360D01*
X226062659Y-111652810D01*
X226068451Y-111594000D01*
X226068451Y-110478335D01*
X228704760Y-110478335D01*
X228704760Y-110704865D01*
X228748954Y-110927043D01*
X228835644Y-111136329D01*
X228961497Y-111324682D01*
X229121678Y-111484863D01*
X229310031Y-111610716D01*
X229519317Y-111697406D01*
X229741495Y-111741600D01*
X229968025Y-111741600D01*
X230190203Y-111697406D01*
X230399489Y-111610716D01*
X230587842Y-111484863D01*
X230748023Y-111324682D01*
X230873876Y-111136329D01*
X230960566Y-110927043D01*
X230986602Y-110796149D01*
X231263097Y-110796149D01*
X231324747Y-111012995D01*
X231427517Y-111213647D01*
X231567458Y-111390394D01*
X231739191Y-111536444D01*
X231936117Y-111646184D01*
X232150669Y-111715397D01*
X232190211Y-111723262D01*
X232369760Y-111666309D01*
X232369760Y-110616600D01*
X232419760Y-110616600D01*
X232419760Y-111666309D01*
X232599309Y-111723262D01*
X232638851Y-111715397D01*
X232853403Y-111646184D01*
X233050329Y-111536444D01*
X233222062Y-111390394D01*
X233362003Y-111213647D01*
X233464773Y-111012995D01*
X233526423Y-110796149D01*
X233469489Y-110616600D01*
X232419760Y-110616600D01*
X232369760Y-110616600D01*
X231320031Y-110616600D01*
X231263097Y-110796149D01*
X230986602Y-110796149D01*
X231004760Y-110704865D01*
X231004760Y-110478335D01*
X230986603Y-110387051D01*
X231263097Y-110387051D01*
X231320031Y-110566600D01*
X232369760Y-110566600D01*
X232369760Y-109516891D01*
X232419760Y-109516891D01*
X232419760Y-110566600D01*
X233469489Y-110566600D01*
X233497477Y-110478335D01*
X233784760Y-110478335D01*
X233784760Y-110704865D01*
X233828954Y-110927043D01*
X233915644Y-111136329D01*
X234041497Y-111324682D01*
X234201678Y-111484863D01*
X234390031Y-111610716D01*
X234599317Y-111697406D01*
X234821495Y-111741600D01*
X235048025Y-111741600D01*
X235270203Y-111697406D01*
X235479489Y-111610716D01*
X235667842Y-111484863D01*
X235828023Y-111324682D01*
X235953876Y-111136329D01*
X236040566Y-110927043D01*
X236084760Y-110704865D01*
X236084760Y-110478335D01*
X236324760Y-110478335D01*
X236324760Y-110704865D01*
X236368954Y-110927043D01*
X236455644Y-111136329D01*
X236581497Y-111324682D01*
X236741678Y-111484863D01*
X236930031Y-111610716D01*
X237139317Y-111697406D01*
X237361495Y-111741600D01*
X237588025Y-111741600D01*
X237810203Y-111697406D01*
X238019489Y-111610716D01*
X238207842Y-111484863D01*
X238368023Y-111324682D01*
X238493876Y-111136329D01*
X238580566Y-110927043D01*
X238624760Y-110704865D01*
X238624760Y-110478335D01*
X238864760Y-110478335D01*
X238864760Y-110704865D01*
X238908954Y-110927043D01*
X238995644Y-111136329D01*
X239121497Y-111324682D01*
X239281678Y-111484863D01*
X239470031Y-111610716D01*
X239679317Y-111697406D01*
X239901495Y-111741600D01*
X240128025Y-111741600D01*
X240350203Y-111697406D01*
X240559489Y-111610716D01*
X240747842Y-111484863D01*
X240908023Y-111324682D01*
X241033876Y-111136329D01*
X241120566Y-110927043D01*
X241164760Y-110704865D01*
X241164760Y-110478335D01*
X241404760Y-110478335D01*
X241404760Y-110704865D01*
X241448954Y-110927043D01*
X241535644Y-111136329D01*
X241661497Y-111324682D01*
X241821678Y-111484863D01*
X242010031Y-111610716D01*
X242219317Y-111697406D01*
X242441495Y-111741600D01*
X242668025Y-111741600D01*
X242890203Y-111697406D01*
X243099489Y-111610716D01*
X243287842Y-111484863D01*
X243448023Y-111324682D01*
X243573876Y-111136329D01*
X243660566Y-110927043D01*
X243704760Y-110704865D01*
X243704760Y-110478335D01*
X243660566Y-110256157D01*
X243573876Y-110046871D01*
X243448023Y-109858518D01*
X243287842Y-109698337D01*
X243099489Y-109572484D01*
X242890203Y-109485794D01*
X242668025Y-109441600D01*
X242441495Y-109441600D01*
X242219317Y-109485794D01*
X242010031Y-109572484D01*
X241821678Y-109698337D01*
X241661497Y-109858518D01*
X241535644Y-110046871D01*
X241448954Y-110256157D01*
X241404760Y-110478335D01*
X241164760Y-110478335D01*
X241120566Y-110256157D01*
X241033876Y-110046871D01*
X240908023Y-109858518D01*
X240747842Y-109698337D01*
X240559489Y-109572484D01*
X240350203Y-109485794D01*
X240128025Y-109441600D01*
X239901495Y-109441600D01*
X239679317Y-109485794D01*
X239470031Y-109572484D01*
X239281678Y-109698337D01*
X239121497Y-109858518D01*
X238995644Y-110046871D01*
X238908954Y-110256157D01*
X238864760Y-110478335D01*
X238624760Y-110478335D01*
X238580566Y-110256157D01*
X238493876Y-110046871D01*
X238368023Y-109858518D01*
X238207842Y-109698337D01*
X238019489Y-109572484D01*
X237810203Y-109485794D01*
X237588025Y-109441600D01*
X237361495Y-109441600D01*
X237139317Y-109485794D01*
X236930031Y-109572484D01*
X236741678Y-109698337D01*
X236581497Y-109858518D01*
X236455644Y-110046871D01*
X236368954Y-110256157D01*
X236324760Y-110478335D01*
X236084760Y-110478335D01*
X236040566Y-110256157D01*
X235953876Y-110046871D01*
X235828023Y-109858518D01*
X235667842Y-109698337D01*
X235479489Y-109572484D01*
X235270203Y-109485794D01*
X235048025Y-109441600D01*
X234821495Y-109441600D01*
X234599317Y-109485794D01*
X234390031Y-109572484D01*
X234201678Y-109698337D01*
X234041497Y-109858518D01*
X233915644Y-110046871D01*
X233828954Y-110256157D01*
X233784760Y-110478335D01*
X233497477Y-110478335D01*
X233526423Y-110387051D01*
X233464773Y-110170205D01*
X233362003Y-109969553D01*
X233222062Y-109792806D01*
X233050329Y-109646756D01*
X232853403Y-109537016D01*
X232638851Y-109467803D01*
X232599309Y-109459938D01*
X232419760Y-109516891D01*
X232369760Y-109516891D01*
X232190211Y-109459938D01*
X232150669Y-109467803D01*
X231936117Y-109537016D01*
X231739191Y-109646756D01*
X231567458Y-109792806D01*
X231427517Y-109969553D01*
X231324747Y-110170205D01*
X231263097Y-110387051D01*
X230986603Y-110387051D01*
X230960566Y-110256157D01*
X230873876Y-110046871D01*
X230748023Y-109858518D01*
X230587842Y-109698337D01*
X230399489Y-109572484D01*
X230190203Y-109485794D01*
X229968025Y-109441600D01*
X229741495Y-109441600D01*
X229519317Y-109485794D01*
X229310031Y-109572484D01*
X229121678Y-109698337D01*
X228961497Y-109858518D01*
X228835644Y-110046871D01*
X228748954Y-110256157D01*
X228704760Y-110478335D01*
X226068451Y-110478335D01*
X226068451Y-109894000D01*
X226062659Y-109835190D01*
X226045504Y-109778640D01*
X226017647Y-109726523D01*
X225980158Y-109680842D01*
X225934477Y-109643353D01*
X225882360Y-109615496D01*
X225825810Y-109598341D01*
X225767000Y-109592549D01*
X224067000Y-109592549D01*
X224008190Y-109598341D01*
X223951640Y-109615496D01*
X223899523Y-109643353D01*
X223853842Y-109680842D01*
X223816353Y-109726523D01*
X223788496Y-109778640D01*
X223771341Y-109835190D01*
X223765549Y-109894000D01*
X220601572Y-109894000D01*
X220577863Y-109858518D01*
X220417682Y-109698337D01*
X220229329Y-109572484D01*
X220020043Y-109485794D01*
X219797865Y-109441600D01*
X219571335Y-109441600D01*
X219349157Y-109485794D01*
X219139871Y-109572484D01*
X218951518Y-109698337D01*
X218791337Y-109858518D01*
X218665484Y-110046871D01*
X218578794Y-110256157D01*
X218534600Y-110478335D01*
X218294600Y-110478335D01*
X218250406Y-110256157D01*
X218163716Y-110046871D01*
X218037863Y-109858518D01*
X217877682Y-109698337D01*
X217689329Y-109572484D01*
X217480043Y-109485794D01*
X217257865Y-109441600D01*
X217031335Y-109441600D01*
X216809157Y-109485794D01*
X216599871Y-109572484D01*
X216411518Y-109698337D01*
X216251337Y-109858518D01*
X216125484Y-110046871D01*
X216038794Y-110256157D01*
X215994600Y-110478335D01*
X215754600Y-110478335D01*
X215710406Y-110256157D01*
X215623716Y-110046871D01*
X215497863Y-109858518D01*
X215337682Y-109698337D01*
X215149329Y-109572484D01*
X214940043Y-109485794D01*
X214717865Y-109441600D01*
X214491335Y-109441600D01*
X214269157Y-109485794D01*
X214059871Y-109572484D01*
X213871518Y-109698337D01*
X213711337Y-109858518D01*
X213585484Y-110046871D01*
X213498794Y-110256157D01*
X213454600Y-110478335D01*
X213214600Y-110478335D01*
X213170406Y-110256157D01*
X213083716Y-110046871D01*
X212957863Y-109858518D01*
X212797682Y-109698337D01*
X212609329Y-109572484D01*
X212400043Y-109485794D01*
X212177865Y-109441600D01*
X211951335Y-109441600D01*
X211729157Y-109485794D01*
X211519871Y-109572484D01*
X211331518Y-109698337D01*
X211171337Y-109858518D01*
X211045484Y-110046871D01*
X210958794Y-110256157D01*
X210914600Y-110478335D01*
X210627317Y-110478335D01*
X210656263Y-110387051D01*
X210594613Y-110170205D01*
X210491843Y-109969553D01*
X210351902Y-109792806D01*
X210180169Y-109646756D01*
X209983243Y-109537016D01*
X209768691Y-109467803D01*
X209729149Y-109459938D01*
X209549600Y-109516891D01*
X209499600Y-109516891D01*
X209320051Y-109459938D01*
X209280509Y-109467803D01*
X209065957Y-109537016D01*
X208869031Y-109646756D01*
X208697298Y-109792806D01*
X208557357Y-109969553D01*
X208454587Y-110170205D01*
X208392937Y-110387051D01*
X208116443Y-110387051D01*
X208090406Y-110256157D01*
X208003716Y-110046871D01*
X207877863Y-109858518D01*
X207717682Y-109698337D01*
X207529329Y-109572484D01*
X207320043Y-109485794D01*
X207097865Y-109441600D01*
X206871335Y-109441600D01*
X206649157Y-109485794D01*
X206439871Y-109572484D01*
X206251518Y-109698337D01*
X206091337Y-109858518D01*
X205965484Y-110046871D01*
X205878794Y-110256157D01*
X205834600Y-110478335D01*
X203100648Y-110478335D01*
X202706832Y-110400000D01*
X202293168Y-110400000D01*
X201887453Y-110480702D01*
X201505277Y-110639004D01*
X201161328Y-110868823D01*
X200868823Y-111161328D01*
X200639004Y-111505277D01*
X200480702Y-111887453D01*
X200403763Y-112274252D01*
X200375005Y-112000640D01*
X200375000Y-111999267D01*
X200375000Y-107938335D01*
X205834600Y-107938335D01*
X205834600Y-108164865D01*
X205878794Y-108387043D01*
X205965484Y-108596329D01*
X206091337Y-108784682D01*
X206251518Y-108944863D01*
X206439871Y-109070716D01*
X206649157Y-109157406D01*
X206871335Y-109201600D01*
X207097865Y-109201600D01*
X207320043Y-109157406D01*
X207529329Y-109070716D01*
X207717682Y-108944863D01*
X207877863Y-108784682D01*
X208003716Y-108596329D01*
X208090406Y-108387043D01*
X208116442Y-108256149D01*
X208392937Y-108256149D01*
X208454587Y-108472995D01*
X208557357Y-108673647D01*
X208697298Y-108850394D01*
X208869031Y-108996444D01*
X209065957Y-109106184D01*
X209280509Y-109175397D01*
X209320051Y-109183262D01*
X209499600Y-109126309D01*
X209499600Y-108076600D01*
X209549600Y-108076600D01*
X209549600Y-109126309D01*
X209729149Y-109183262D01*
X209768691Y-109175397D01*
X209983243Y-109106184D01*
X210180169Y-108996444D01*
X210351902Y-108850394D01*
X210491843Y-108673647D01*
X210594613Y-108472995D01*
X210656263Y-108256149D01*
X210599329Y-108076600D01*
X209549600Y-108076600D01*
X209499600Y-108076600D01*
X208449871Y-108076600D01*
X208392937Y-108256149D01*
X208116442Y-108256149D01*
X208134600Y-108164865D01*
X208134600Y-107938335D01*
X208116443Y-107847051D01*
X208392937Y-107847051D01*
X208449871Y-108026600D01*
X209499600Y-108026600D01*
X209499600Y-106976891D01*
X209549600Y-106976891D01*
X209549600Y-108026600D01*
X210599329Y-108026600D01*
X210627317Y-107938335D01*
X210914600Y-107938335D01*
X210914600Y-108164865D01*
X210958794Y-108387043D01*
X211045484Y-108596329D01*
X211171337Y-108784682D01*
X211331518Y-108944863D01*
X211519871Y-109070716D01*
X211729157Y-109157406D01*
X211951335Y-109201600D01*
X212177865Y-109201600D01*
X212400043Y-109157406D01*
X212609329Y-109070716D01*
X212797682Y-108944863D01*
X212957863Y-108784682D01*
X213083716Y-108596329D01*
X213170406Y-108387043D01*
X213214600Y-108164865D01*
X213214600Y-107938335D01*
X213454600Y-107938335D01*
X213454600Y-108164865D01*
X213498794Y-108387043D01*
X213585484Y-108596329D01*
X213711337Y-108784682D01*
X213871518Y-108944863D01*
X214059871Y-109070716D01*
X214269157Y-109157406D01*
X214491335Y-109201600D01*
X214717865Y-109201600D01*
X214940043Y-109157406D01*
X215149329Y-109070716D01*
X215337682Y-108944863D01*
X215497863Y-108784682D01*
X215623716Y-108596329D01*
X215710406Y-108387043D01*
X215754600Y-108164865D01*
X215754600Y-107938335D01*
X215994600Y-107938335D01*
X215994600Y-108164865D01*
X216038794Y-108387043D01*
X216125484Y-108596329D01*
X216251337Y-108784682D01*
X216411518Y-108944863D01*
X216599871Y-109070716D01*
X216809157Y-109157406D01*
X217031335Y-109201600D01*
X217257865Y-109201600D01*
X217480043Y-109157406D01*
X217689329Y-109070716D01*
X217877682Y-108944863D01*
X218037863Y-108784682D01*
X218163716Y-108596329D01*
X218250406Y-108387043D01*
X218294600Y-108164865D01*
X218294600Y-107938335D01*
X218250406Y-107716157D01*
X218163716Y-107506871D01*
X218037863Y-107318518D01*
X217920945Y-107201600D01*
X218533149Y-107201600D01*
X218533149Y-108901600D01*
X218538941Y-108960410D01*
X218556096Y-109016960D01*
X218583953Y-109069077D01*
X218621442Y-109114758D01*
X218667123Y-109152247D01*
X218719240Y-109180104D01*
X218775790Y-109197259D01*
X218834600Y-109203051D01*
X220534600Y-109203051D01*
X220593410Y-109197259D01*
X220649960Y-109180104D01*
X220702077Y-109152247D01*
X220747758Y-109114758D01*
X220785247Y-109069077D01*
X220813104Y-109016960D01*
X220830259Y-108960410D01*
X220836051Y-108901600D01*
X220836051Y-107938335D01*
X228704760Y-107938335D01*
X228704760Y-108164865D01*
X228748954Y-108387043D01*
X228835644Y-108596329D01*
X228961497Y-108784682D01*
X229121678Y-108944863D01*
X229310031Y-109070716D01*
X229519317Y-109157406D01*
X229741495Y-109201600D01*
X229968025Y-109201600D01*
X230190203Y-109157406D01*
X230399489Y-109070716D01*
X230587842Y-108944863D01*
X230748023Y-108784682D01*
X230873876Y-108596329D01*
X230960566Y-108387043D01*
X230986602Y-108256149D01*
X231263097Y-108256149D01*
X231324747Y-108472995D01*
X231427517Y-108673647D01*
X231567458Y-108850394D01*
X231739191Y-108996444D01*
X231936117Y-109106184D01*
X232150669Y-109175397D01*
X232190211Y-109183262D01*
X232369760Y-109126309D01*
X232369760Y-108076600D01*
X232419760Y-108076600D01*
X232419760Y-109126309D01*
X232599309Y-109183262D01*
X232638851Y-109175397D01*
X232853403Y-109106184D01*
X233050329Y-108996444D01*
X233222062Y-108850394D01*
X233362003Y-108673647D01*
X233464773Y-108472995D01*
X233526423Y-108256149D01*
X233469489Y-108076600D01*
X232419760Y-108076600D01*
X232369760Y-108076600D01*
X231320031Y-108076600D01*
X231263097Y-108256149D01*
X230986602Y-108256149D01*
X231004760Y-108164865D01*
X231004760Y-107938335D01*
X230986603Y-107847051D01*
X231263097Y-107847051D01*
X231320031Y-108026600D01*
X232369760Y-108026600D01*
X232369760Y-106976891D01*
X232419760Y-106976891D01*
X232419760Y-108026600D01*
X233469489Y-108026600D01*
X233497477Y-107938335D01*
X233784760Y-107938335D01*
X233784760Y-108164865D01*
X233828954Y-108387043D01*
X233915644Y-108596329D01*
X234041497Y-108784682D01*
X234201678Y-108944863D01*
X234390031Y-109070716D01*
X234599317Y-109157406D01*
X234821495Y-109201600D01*
X235048025Y-109201600D01*
X235270203Y-109157406D01*
X235479489Y-109070716D01*
X235667842Y-108944863D01*
X235828023Y-108784682D01*
X235953876Y-108596329D01*
X236040566Y-108387043D01*
X236084760Y-108164865D01*
X236084760Y-107938335D01*
X236324760Y-107938335D01*
X236324760Y-108164865D01*
X236368954Y-108387043D01*
X236455644Y-108596329D01*
X236581497Y-108784682D01*
X236741678Y-108944863D01*
X236930031Y-109070716D01*
X237139317Y-109157406D01*
X237361495Y-109201600D01*
X237588025Y-109201600D01*
X237810203Y-109157406D01*
X238019489Y-109070716D01*
X238207842Y-108944863D01*
X238368023Y-108784682D01*
X238493876Y-108596329D01*
X238580566Y-108387043D01*
X238624760Y-108164865D01*
X238624760Y-107938335D01*
X238864760Y-107938335D01*
X238864760Y-108164865D01*
X238908954Y-108387043D01*
X238995644Y-108596329D01*
X239121497Y-108784682D01*
X239281678Y-108944863D01*
X239470031Y-109070716D01*
X239679317Y-109157406D01*
X239901495Y-109201600D01*
X240128025Y-109201600D01*
X240350203Y-109157406D01*
X240559489Y-109070716D01*
X240747842Y-108944863D01*
X240908023Y-108784682D01*
X241033876Y-108596329D01*
X241120566Y-108387043D01*
X241164760Y-108164865D01*
X241164760Y-107938335D01*
X241120566Y-107716157D01*
X241033876Y-107506871D01*
X240908023Y-107318518D01*
X240791105Y-107201600D01*
X241403309Y-107201600D01*
X241403309Y-108901600D01*
X241409101Y-108960410D01*
X241426256Y-109016960D01*
X241454113Y-109069077D01*
X241491602Y-109114758D01*
X241537283Y-109152247D01*
X241589400Y-109180104D01*
X241645950Y-109197259D01*
X241704760Y-109203051D01*
X243404760Y-109203051D01*
X243463570Y-109197259D01*
X243520120Y-109180104D01*
X243572237Y-109152247D01*
X243617918Y-109114758D01*
X243655407Y-109069077D01*
X243683264Y-109016960D01*
X243700419Y-108960410D01*
X243706211Y-108901600D01*
X243706211Y-107202617D01*
X246582738Y-107202617D01*
X246682085Y-107380657D01*
X246896951Y-107500912D01*
X247131149Y-107576937D01*
X247375678Y-107605812D01*
X247621143Y-107586426D01*
X247858108Y-107519526D01*
X248077469Y-107407680D01*
X248117915Y-107380657D01*
X248217262Y-107202617D01*
X247400000Y-106385355D01*
X246582738Y-107202617D01*
X243706211Y-107202617D01*
X243706211Y-107201600D01*
X243700419Y-107142790D01*
X243683264Y-107086240D01*
X243655407Y-107034123D01*
X243617918Y-106988442D01*
X243572237Y-106950953D01*
X243520120Y-106923096D01*
X243463570Y-106905941D01*
X243404760Y-106900149D01*
X242996112Y-106900149D01*
X243177469Y-106807680D01*
X243217915Y-106780657D01*
X243317262Y-106602617D01*
X242500000Y-105785355D01*
X241682738Y-106602617D01*
X241782085Y-106780657D01*
X241995588Y-106900149D01*
X241704760Y-106900149D01*
X241645950Y-106905941D01*
X241589400Y-106923096D01*
X241537283Y-106950953D01*
X241491602Y-106988442D01*
X241454113Y-107034123D01*
X241426256Y-107086240D01*
X241409101Y-107142790D01*
X241403309Y-107201600D01*
X240791105Y-107201600D01*
X240747842Y-107158337D01*
X240559489Y-107032484D01*
X240350203Y-106945794D01*
X240128025Y-106901600D01*
X239901495Y-106901600D01*
X239679317Y-106945794D01*
X239470031Y-107032484D01*
X239281678Y-107158337D01*
X239121497Y-107318518D01*
X238995644Y-107506871D01*
X238908954Y-107716157D01*
X238864760Y-107938335D01*
X238624760Y-107938335D01*
X238580566Y-107716157D01*
X238493876Y-107506871D01*
X238368023Y-107318518D01*
X238207842Y-107158337D01*
X238019489Y-107032484D01*
X237810203Y-106945794D01*
X237588025Y-106901600D01*
X237361495Y-106901600D01*
X237139317Y-106945794D01*
X236930031Y-107032484D01*
X236741678Y-107158337D01*
X236581497Y-107318518D01*
X236455644Y-107506871D01*
X236368954Y-107716157D01*
X236324760Y-107938335D01*
X236084760Y-107938335D01*
X236040566Y-107716157D01*
X235953876Y-107506871D01*
X235828023Y-107318518D01*
X235667842Y-107158337D01*
X235479489Y-107032484D01*
X235270203Y-106945794D01*
X235048025Y-106901600D01*
X234821495Y-106901600D01*
X234599317Y-106945794D01*
X234390031Y-107032484D01*
X234201678Y-107158337D01*
X234041497Y-107318518D01*
X233915644Y-107506871D01*
X233828954Y-107716157D01*
X233784760Y-107938335D01*
X233497477Y-107938335D01*
X233526423Y-107847051D01*
X233464773Y-107630205D01*
X233362003Y-107429553D01*
X233222062Y-107252806D01*
X233050329Y-107106756D01*
X232853403Y-106997016D01*
X232638851Y-106927803D01*
X232599309Y-106919938D01*
X232419760Y-106976891D01*
X232369760Y-106976891D01*
X232190211Y-106919938D01*
X232150669Y-106927803D01*
X231936117Y-106997016D01*
X231739191Y-107106756D01*
X231567458Y-107252806D01*
X231427517Y-107429553D01*
X231324747Y-107630205D01*
X231263097Y-107847051D01*
X230986603Y-107847051D01*
X230960566Y-107716157D01*
X230873876Y-107506871D01*
X230748023Y-107318518D01*
X230587842Y-107158337D01*
X230399489Y-107032484D01*
X230190203Y-106945794D01*
X229968025Y-106901600D01*
X229741495Y-106901600D01*
X229519317Y-106945794D01*
X229310031Y-107032484D01*
X229121678Y-107158337D01*
X228961497Y-107318518D01*
X228835644Y-107506871D01*
X228748954Y-107716157D01*
X228704760Y-107938335D01*
X220836051Y-107938335D01*
X220836051Y-107201600D01*
X220830259Y-107142790D01*
X220813104Y-107086240D01*
X220785247Y-107034123D01*
X220747758Y-106988442D01*
X220702077Y-106950953D01*
X220649960Y-106923096D01*
X220593410Y-106905941D01*
X220534600Y-106900149D01*
X218834600Y-106900149D01*
X218775790Y-106905941D01*
X218719240Y-106923096D01*
X218667123Y-106950953D01*
X218621442Y-106988442D01*
X218583953Y-107034123D01*
X218556096Y-107086240D01*
X218538941Y-107142790D01*
X218533149Y-107201600D01*
X217920945Y-107201600D01*
X217877682Y-107158337D01*
X217689329Y-107032484D01*
X217480043Y-106945794D01*
X217257865Y-106901600D01*
X217031335Y-106901600D01*
X216809157Y-106945794D01*
X216599871Y-107032484D01*
X216411518Y-107158337D01*
X216251337Y-107318518D01*
X216125484Y-107506871D01*
X216038794Y-107716157D01*
X215994600Y-107938335D01*
X215754600Y-107938335D01*
X215710406Y-107716157D01*
X215623716Y-107506871D01*
X215497863Y-107318518D01*
X215337682Y-107158337D01*
X215149329Y-107032484D01*
X214940043Y-106945794D01*
X214717865Y-106901600D01*
X214491335Y-106901600D01*
X214269157Y-106945794D01*
X214059871Y-107032484D01*
X213871518Y-107158337D01*
X213711337Y-107318518D01*
X213585484Y-107506871D01*
X213498794Y-107716157D01*
X213454600Y-107938335D01*
X213214600Y-107938335D01*
X213170406Y-107716157D01*
X213083716Y-107506871D01*
X212957863Y-107318518D01*
X212797682Y-107158337D01*
X212609329Y-107032484D01*
X212400043Y-106945794D01*
X212177865Y-106901600D01*
X211951335Y-106901600D01*
X211729157Y-106945794D01*
X211519871Y-107032484D01*
X211331518Y-107158337D01*
X211171337Y-107318518D01*
X211045484Y-107506871D01*
X210958794Y-107716157D01*
X210914600Y-107938335D01*
X210627317Y-107938335D01*
X210656263Y-107847051D01*
X210594613Y-107630205D01*
X210491843Y-107429553D01*
X210351902Y-107252806D01*
X210180169Y-107106756D01*
X209983243Y-106997016D01*
X209768691Y-106927803D01*
X209729149Y-106919938D01*
X209549600Y-106976891D01*
X209499600Y-106976891D01*
X209320051Y-106919938D01*
X209280509Y-106927803D01*
X209065957Y-106997016D01*
X208869031Y-107106756D01*
X208697298Y-107252806D01*
X208557357Y-107429553D01*
X208454587Y-107630205D01*
X208392937Y-107847051D01*
X208116443Y-107847051D01*
X208090406Y-107716157D01*
X208003716Y-107506871D01*
X207877863Y-107318518D01*
X207717682Y-107158337D01*
X207529329Y-107032484D01*
X207320043Y-106945794D01*
X207097865Y-106901600D01*
X206871335Y-106901600D01*
X206649157Y-106945794D01*
X206439871Y-107032484D01*
X206251518Y-107158337D01*
X206091337Y-107318518D01*
X205965484Y-107506871D01*
X205878794Y-107716157D01*
X205834600Y-107938335D01*
X200375000Y-107938335D01*
X200375000Y-106468292D01*
X215935000Y-106468292D01*
X215935000Y-106571708D01*
X215955176Y-106673137D01*
X215994751Y-106768681D01*
X216052206Y-106854668D01*
X216125332Y-106927794D01*
X216211319Y-106985249D01*
X216306863Y-107024824D01*
X216408292Y-107045000D01*
X216511708Y-107045000D01*
X216613137Y-107024824D01*
X216708681Y-106985249D01*
X216794668Y-106927794D01*
X216867794Y-106854668D01*
X216925249Y-106768681D01*
X216964824Y-106673137D01*
X216985000Y-106571708D01*
X216985000Y-106468292D01*
X216964824Y-106366863D01*
X216925249Y-106271319D01*
X216867794Y-106185332D01*
X216794668Y-106112206D01*
X216785794Y-106106277D01*
X216793137Y-106104816D01*
X216888681Y-106065241D01*
X216973910Y-106008292D01*
X217865000Y-106008292D01*
X217865000Y-106111708D01*
X217885176Y-106213137D01*
X217924751Y-106308681D01*
X217982206Y-106394668D01*
X218055332Y-106467794D01*
X218141319Y-106525249D01*
X218236863Y-106564824D01*
X218338292Y-106585000D01*
X218441708Y-106585000D01*
X218543137Y-106564824D01*
X218638681Y-106525249D01*
X218724668Y-106467794D01*
X218797794Y-106394668D01*
X218855249Y-106308681D01*
X218894824Y-106213137D01*
X218897776Y-106198292D01*
X220885000Y-106198292D01*
X220885000Y-106301708D01*
X220905176Y-106403137D01*
X220944751Y-106498681D01*
X221002206Y-106584668D01*
X221075332Y-106657794D01*
X221161319Y-106715249D01*
X221256863Y-106754824D01*
X221358292Y-106775000D01*
X221461708Y-106775000D01*
X221563137Y-106754824D01*
X221658681Y-106715249D01*
X221744668Y-106657794D01*
X221817794Y-106584668D01*
X221875249Y-106498681D01*
X221914824Y-106403137D01*
X221935000Y-106301708D01*
X221935000Y-106198292D01*
X221914824Y-106096863D01*
X221875249Y-106001319D01*
X221817794Y-105915332D01*
X221744668Y-105842206D01*
X221658681Y-105784751D01*
X221563137Y-105745176D01*
X221465117Y-105725678D01*
X241244188Y-105725678D01*
X241263574Y-105971143D01*
X241330474Y-106208108D01*
X241442320Y-106427469D01*
X241469343Y-106467915D01*
X241647383Y-106567262D01*
X242464645Y-105750000D01*
X242535355Y-105750000D01*
X243352617Y-106567262D01*
X243530657Y-106467915D01*
X243610263Y-106325678D01*
X246144188Y-106325678D01*
X246163574Y-106571143D01*
X246230474Y-106808108D01*
X246342320Y-107027469D01*
X246369343Y-107067915D01*
X246547383Y-107167262D01*
X247364645Y-106350000D01*
X247435355Y-106350000D01*
X248252617Y-107167262D01*
X248430657Y-107067915D01*
X248550912Y-106853049D01*
X248626937Y-106618851D01*
X248655812Y-106374322D01*
X248636426Y-106128857D01*
X248569526Y-105891892D01*
X248457680Y-105672531D01*
X248430657Y-105632085D01*
X248252617Y-105532738D01*
X247435355Y-106350000D01*
X247364645Y-106350000D01*
X246547383Y-105532738D01*
X246369343Y-105632085D01*
X246249088Y-105846951D01*
X246173063Y-106081149D01*
X246144188Y-106325678D01*
X243610263Y-106325678D01*
X243650912Y-106253049D01*
X243726937Y-106018851D01*
X243755812Y-105774322D01*
X243736426Y-105528857D01*
X243727541Y-105497383D01*
X246582738Y-105497383D01*
X247400000Y-106314645D01*
X248217262Y-105497383D01*
X248117915Y-105319343D01*
X247903049Y-105199088D01*
X247668851Y-105123063D01*
X247424322Y-105094188D01*
X247178857Y-105113574D01*
X246941892Y-105180474D01*
X246722531Y-105292320D01*
X246682085Y-105319343D01*
X246582738Y-105497383D01*
X243727541Y-105497383D01*
X243669526Y-105291892D01*
X243557680Y-105072531D01*
X243530657Y-105032085D01*
X243352617Y-104932738D01*
X242535355Y-105750000D01*
X242464645Y-105750000D01*
X241647383Y-104932738D01*
X241469343Y-105032085D01*
X241349088Y-105246951D01*
X241273063Y-105481149D01*
X241244188Y-105725678D01*
X221465117Y-105725678D01*
X221461708Y-105725000D01*
X221358292Y-105725000D01*
X221256863Y-105745176D01*
X221161319Y-105784751D01*
X221075332Y-105842206D01*
X221002206Y-105915332D01*
X220944751Y-106001319D01*
X220905176Y-106096863D01*
X220885000Y-106198292D01*
X218897776Y-106198292D01*
X218915000Y-106111708D01*
X218915000Y-106008292D01*
X218894824Y-105906863D01*
X218855249Y-105811319D01*
X218797794Y-105725332D01*
X218724668Y-105652206D01*
X218638681Y-105594751D01*
X218543137Y-105555176D01*
X218441708Y-105535000D01*
X218338292Y-105535000D01*
X218236863Y-105555176D01*
X218141319Y-105594751D01*
X218055332Y-105652206D01*
X217982206Y-105725332D01*
X217924751Y-105811319D01*
X217885176Y-105906863D01*
X217865000Y-106008292D01*
X216973910Y-106008292D01*
X216974668Y-106007786D01*
X217047794Y-105934660D01*
X217105249Y-105848673D01*
X217144824Y-105753129D01*
X217161051Y-105671552D01*
X217178292Y-105674982D01*
X217281708Y-105674982D01*
X217383137Y-105654806D01*
X217478681Y-105615231D01*
X217564668Y-105557776D01*
X217637794Y-105484650D01*
X217695249Y-105398663D01*
X217734824Y-105303119D01*
X217755000Y-105201690D01*
X217755000Y-105098274D01*
X217743549Y-105040709D01*
X217773137Y-105034824D01*
X217868681Y-104995249D01*
X217954668Y-104937794D01*
X218027794Y-104864668D01*
X218085249Y-104778681D01*
X218124824Y-104683137D01*
X218141701Y-104598292D01*
X218595033Y-104598292D01*
X218595033Y-104701708D01*
X218615209Y-104803137D01*
X218654784Y-104898681D01*
X218712239Y-104984668D01*
X218785365Y-105057794D01*
X218871352Y-105115249D01*
X218966896Y-105154824D01*
X219068325Y-105175000D01*
X219171741Y-105175000D01*
X219273170Y-105154824D01*
X219368714Y-105115249D01*
X219454701Y-105057794D01*
X219527827Y-104984668D01*
X219585282Y-104898681D01*
X219624857Y-104803137D01*
X219645033Y-104701708D01*
X219645033Y-104598292D01*
X219624857Y-104496863D01*
X219585282Y-104401319D01*
X219527827Y-104315332D01*
X219454701Y-104242206D01*
X219368714Y-104184751D01*
X219273170Y-104145176D01*
X219171741Y-104125000D01*
X219068325Y-104125000D01*
X218966896Y-104145176D01*
X218871352Y-104184751D01*
X218785365Y-104242206D01*
X218712239Y-104315332D01*
X218654784Y-104401319D01*
X218615209Y-104496863D01*
X218595033Y-104598292D01*
X218141701Y-104598292D01*
X218145000Y-104581708D01*
X218145000Y-104478292D01*
X218124824Y-104376863D01*
X218085249Y-104281319D01*
X218027794Y-104195332D01*
X217954668Y-104122206D01*
X217868681Y-104064751D01*
X217773137Y-104025176D01*
X217671708Y-104005000D01*
X217568292Y-104005000D01*
X217466863Y-104025176D01*
X217371319Y-104064751D01*
X217285332Y-104122206D01*
X217212206Y-104195332D01*
X217154751Y-104281319D01*
X217115176Y-104376863D01*
X217095000Y-104478292D01*
X217095000Y-104581708D01*
X217106451Y-104639273D01*
X217076863Y-104645158D01*
X216981319Y-104684733D01*
X216895332Y-104742188D01*
X216822206Y-104815314D01*
X216764751Y-104901301D01*
X216725176Y-104996845D01*
X216708949Y-105078422D01*
X216691708Y-105074992D01*
X216588292Y-105074992D01*
X216486863Y-105095168D01*
X216391319Y-105134743D01*
X216305332Y-105192198D01*
X216232206Y-105265324D01*
X216174751Y-105351311D01*
X216135176Y-105446855D01*
X216115000Y-105548284D01*
X216115000Y-105651700D01*
X216135176Y-105753129D01*
X216174751Y-105848673D01*
X216232206Y-105934660D01*
X216305332Y-106007786D01*
X216314206Y-106013715D01*
X216306863Y-106015176D01*
X216211319Y-106054751D01*
X216125332Y-106112206D01*
X216052206Y-106185332D01*
X215994751Y-106271319D01*
X215955176Y-106366863D01*
X215935000Y-106468292D01*
X200375000Y-106468292D01*
X200375000Y-103228292D01*
X204745000Y-103228292D01*
X204745000Y-103331708D01*
X204765176Y-103433137D01*
X204804751Y-103528681D01*
X204862206Y-103614668D01*
X204935332Y-103687794D01*
X205021319Y-103745249D01*
X205116863Y-103784824D01*
X205218292Y-103805000D01*
X205321708Y-103805000D01*
X205423137Y-103784824D01*
X205518681Y-103745249D01*
X205604668Y-103687794D01*
X205677794Y-103614668D01*
X205715463Y-103558292D01*
X220805000Y-103558292D01*
X220805000Y-103661708D01*
X220825176Y-103763137D01*
X220864751Y-103858681D01*
X220922206Y-103944668D01*
X220995332Y-104017794D01*
X221081319Y-104075249D01*
X221176863Y-104114824D01*
X221278292Y-104135000D01*
X221381708Y-104135000D01*
X221483137Y-104114824D01*
X221578681Y-104075249D01*
X221664668Y-104017794D01*
X221737794Y-103944668D01*
X221795249Y-103858681D01*
X221834824Y-103763137D01*
X221855000Y-103661708D01*
X221855000Y-103558292D01*
X221834824Y-103456863D01*
X221795249Y-103361319D01*
X221737794Y-103275332D01*
X221664668Y-103202206D01*
X221658811Y-103198292D01*
X231924924Y-103198292D01*
X231924924Y-103301708D01*
X231945100Y-103403137D01*
X231984675Y-103498681D01*
X232042130Y-103584668D01*
X232115256Y-103657794D01*
X232201243Y-103715249D01*
X232262286Y-103740533D01*
X232242753Y-103787690D01*
X232222577Y-103889119D01*
X232222577Y-103992535D01*
X232242753Y-104093964D01*
X232282328Y-104189508D01*
X232339783Y-104275495D01*
X232364721Y-104300433D01*
X232331294Y-104381134D01*
X232311118Y-104482563D01*
X232311118Y-104585979D01*
X232331112Y-104686494D01*
X232301684Y-104706157D01*
X232228558Y-104779283D01*
X232171103Y-104865270D01*
X232131528Y-104960814D01*
X232111352Y-105062243D01*
X232111352Y-105165659D01*
X232131528Y-105267088D01*
X232171103Y-105362632D01*
X232228558Y-105448619D01*
X232301684Y-105521745D01*
X232387671Y-105579200D01*
X232483215Y-105618775D01*
X232584644Y-105638951D01*
X232688060Y-105638951D01*
X232789489Y-105618775D01*
X232885033Y-105579200D01*
X232971020Y-105521745D01*
X233044146Y-105448619D01*
X233101601Y-105362632D01*
X233141176Y-105267088D01*
X233161352Y-105165659D01*
X233161352Y-105062243D01*
X233141358Y-104961728D01*
X233170786Y-104942065D01*
X233215468Y-104897383D01*
X241682738Y-104897383D01*
X242500000Y-105714645D01*
X243317262Y-104897383D01*
X243217915Y-104719343D01*
X243003049Y-104599088D01*
X242768851Y-104523063D01*
X242524322Y-104494188D01*
X242278857Y-104513574D01*
X242041892Y-104580474D01*
X241822531Y-104692320D01*
X241782085Y-104719343D01*
X241682738Y-104897383D01*
X233215468Y-104897383D01*
X233243912Y-104868939D01*
X233301367Y-104782952D01*
X233340942Y-104687408D01*
X233361118Y-104585979D01*
X233361118Y-104482563D01*
X233340942Y-104381134D01*
X233301367Y-104285590D01*
X233243912Y-104199603D01*
X233218974Y-104174665D01*
X233252401Y-104093964D01*
X233272577Y-103992535D01*
X233272577Y-103889119D01*
X233252401Y-103787690D01*
X233212826Y-103692146D01*
X233155371Y-103606159D01*
X233097504Y-103548292D01*
X236275000Y-103548292D01*
X236275000Y-103651708D01*
X236295176Y-103753137D01*
X236334751Y-103848681D01*
X236392206Y-103934668D01*
X236465332Y-104007794D01*
X236551319Y-104065249D01*
X236646863Y-104104824D01*
X236748292Y-104125000D01*
X236851708Y-104125000D01*
X236953137Y-104104824D01*
X237048681Y-104065249D01*
X237134668Y-104007794D01*
X237207794Y-103934668D01*
X237265249Y-103848681D01*
X237304824Y-103753137D01*
X237325000Y-103651708D01*
X237325000Y-103548292D01*
X237304824Y-103446863D01*
X237265249Y-103351319D01*
X237207794Y-103265332D01*
X237134668Y-103192206D01*
X237048681Y-103134751D01*
X236953137Y-103095176D01*
X236851708Y-103075000D01*
X236748292Y-103075000D01*
X236646863Y-103095176D01*
X236551319Y-103134751D01*
X236465332Y-103192206D01*
X236392206Y-103265332D01*
X236334751Y-103351319D01*
X236295176Y-103446863D01*
X236275000Y-103548292D01*
X233097504Y-103548292D01*
X233082245Y-103533033D01*
X232996258Y-103475578D01*
X232935215Y-103450294D01*
X232954748Y-103403137D01*
X232974924Y-103301708D01*
X232974924Y-103198292D01*
X232954748Y-103096863D01*
X232915173Y-103001319D01*
X232857718Y-102915332D01*
X232784592Y-102842206D01*
X232698605Y-102784751D01*
X232603061Y-102745176D01*
X232501632Y-102725000D01*
X232398216Y-102725000D01*
X232296787Y-102745176D01*
X232201243Y-102784751D01*
X232115256Y-102842206D01*
X232042130Y-102915332D01*
X231984675Y-103001319D01*
X231945100Y-103096863D01*
X231924924Y-103198292D01*
X221658811Y-103198292D01*
X221578681Y-103144751D01*
X221483137Y-103105176D01*
X221381708Y-103085000D01*
X221278292Y-103085000D01*
X221176863Y-103105176D01*
X221081319Y-103144751D01*
X220995332Y-103202206D01*
X220922206Y-103275332D01*
X220864751Y-103361319D01*
X220825176Y-103456863D01*
X220805000Y-103558292D01*
X205715463Y-103558292D01*
X205735249Y-103528681D01*
X205774824Y-103433137D01*
X205795000Y-103331708D01*
X205795000Y-103228292D01*
X205774824Y-103126863D01*
X205735249Y-103031319D01*
X205677794Y-102945332D01*
X205604668Y-102872206D01*
X205518681Y-102814751D01*
X205423137Y-102775176D01*
X205321708Y-102755000D01*
X205218292Y-102755000D01*
X205116863Y-102775176D01*
X205021319Y-102814751D01*
X204935332Y-102872206D01*
X204862206Y-102945332D01*
X204804751Y-103031319D01*
X204765176Y-103126863D01*
X204745000Y-103228292D01*
X200375000Y-103228292D01*
X200375000Y-102598292D01*
X239749970Y-102598292D01*
X239749970Y-102701708D01*
X239770146Y-102803137D01*
X239809721Y-102898681D01*
X239867176Y-102984668D01*
X239940302Y-103057794D01*
X240026289Y-103115249D01*
X240121833Y-103154824D01*
X240223262Y-103175000D01*
X240326678Y-103175000D01*
X240428107Y-103154824D01*
X240523651Y-103115249D01*
X240609638Y-103057794D01*
X240682764Y-102984668D01*
X240740219Y-102898681D01*
X240779794Y-102803137D01*
X240799970Y-102701708D01*
X240799970Y-102598292D01*
X240779794Y-102496863D01*
X240740219Y-102401319D01*
X240682764Y-102315332D01*
X240609638Y-102242206D01*
X240523651Y-102184751D01*
X240428107Y-102145176D01*
X240326678Y-102125000D01*
X240223262Y-102125000D01*
X240121833Y-102145176D01*
X240026289Y-102184751D01*
X239940302Y-102242206D01*
X239867176Y-102315332D01*
X239809721Y-102401319D01*
X239770146Y-102496863D01*
X239749970Y-102598292D01*
X200375000Y-102598292D01*
X200375000Y-101428581D01*
X200400288Y-101479226D01*
X200508426Y-101618718D01*
X200641700Y-101734433D01*
X200794988Y-101821924D01*
X200962399Y-101877829D01*
X201137500Y-101900000D01*
X201487500Y-101900000D01*
X201487500Y-101025000D01*
X201537500Y-101025000D01*
X201537500Y-101900000D01*
X201887500Y-101900000D01*
X202062601Y-101877829D01*
X202230012Y-101821924D01*
X202383300Y-101734433D01*
X202516574Y-101618718D01*
X202624712Y-101479226D01*
X202703559Y-101321318D01*
X202715594Y-101278292D01*
X221805000Y-101278292D01*
X221805000Y-101381708D01*
X221825176Y-101483137D01*
X221864751Y-101578681D01*
X221922206Y-101664668D01*
X221995332Y-101737794D01*
X222081319Y-101795249D01*
X222176863Y-101834824D01*
X222278292Y-101855000D01*
X222381708Y-101855000D01*
X222483137Y-101834824D01*
X222578681Y-101795249D01*
X222664668Y-101737794D01*
X222737794Y-101664668D01*
X222795249Y-101578681D01*
X222834824Y-101483137D01*
X222855000Y-101381708D01*
X222855000Y-101278292D01*
X222834824Y-101176863D01*
X222795249Y-101081319D01*
X222769299Y-101042483D01*
X222805249Y-100988681D01*
X222844824Y-100893137D01*
X222865000Y-100791708D01*
X222865000Y-100688292D01*
X222844824Y-100586863D01*
X222805249Y-100491319D01*
X222747794Y-100405332D01*
X222674668Y-100332206D01*
X222588681Y-100274751D01*
X222493137Y-100235176D01*
X222391708Y-100215000D01*
X222288292Y-100215000D01*
X222186863Y-100235176D01*
X222091319Y-100274751D01*
X222005332Y-100332206D01*
X221932206Y-100405332D01*
X221874751Y-100491319D01*
X221835176Y-100586863D01*
X221815000Y-100688292D01*
X221815000Y-100791708D01*
X221835176Y-100893137D01*
X221874751Y-100988681D01*
X221900701Y-101027517D01*
X221864751Y-101081319D01*
X221825176Y-101176863D01*
X221805000Y-101278292D01*
X202715594Y-101278292D01*
X202747166Y-101165429D01*
X202687121Y-101025000D01*
X201537500Y-101025000D01*
X201487500Y-101025000D01*
X201467500Y-101025000D01*
X201467500Y-100975000D01*
X201487500Y-100975000D01*
X201487500Y-100100000D01*
X201537500Y-100100000D01*
X201537500Y-100975000D01*
X202687121Y-100975000D01*
X202747166Y-100834571D01*
X202707482Y-100692705D01*
X203555150Y-100692705D01*
X203627508Y-100847704D01*
X203804128Y-100945542D01*
X203996441Y-101007044D01*
X204197057Y-101029845D01*
X204398268Y-101013070D01*
X204592339Y-100957362D01*
X204771812Y-100864864D01*
X204797492Y-100847704D01*
X204869850Y-100692705D01*
X204212500Y-100035355D01*
X203555150Y-100692705D01*
X202707482Y-100692705D01*
X202703559Y-100678682D01*
X202624712Y-100520774D01*
X202516574Y-100381282D01*
X202383300Y-100265567D01*
X202230012Y-100178076D01*
X202062601Y-100122171D01*
X201887500Y-100100000D01*
X201537500Y-100100000D01*
X201487500Y-100100000D01*
X201137500Y-100100000D01*
X200962399Y-100122171D01*
X200794988Y-100178076D01*
X200641700Y-100265567D01*
X200508426Y-100381282D01*
X200400288Y-100520774D01*
X200375000Y-100571419D01*
X200375000Y-99984557D01*
X203182655Y-99984557D01*
X203199430Y-100185768D01*
X203255138Y-100379839D01*
X203347636Y-100559312D01*
X203364796Y-100584992D01*
X203519795Y-100657350D01*
X204177145Y-100000000D01*
X204247855Y-100000000D01*
X204905205Y-100657350D01*
X205060204Y-100584992D01*
X205158042Y-100408372D01*
X205219544Y-100216059D01*
X205227246Y-100148292D01*
X230725000Y-100148292D01*
X230725000Y-100251708D01*
X230745176Y-100353137D01*
X230784751Y-100448681D01*
X230842206Y-100534668D01*
X230915332Y-100607794D01*
X230978497Y-100650000D01*
X230915332Y-100692206D01*
X230842206Y-100765332D01*
X230784751Y-100851319D01*
X230745176Y-100946863D01*
X230725000Y-101048292D01*
X230725000Y-101151708D01*
X230745176Y-101253137D01*
X230784751Y-101348681D01*
X230842206Y-101434668D01*
X230915332Y-101507794D01*
X231001319Y-101565249D01*
X231096863Y-101604824D01*
X231198292Y-101625000D01*
X231301708Y-101625000D01*
X231403137Y-101604824D01*
X231498681Y-101565249D01*
X231584668Y-101507794D01*
X231657794Y-101434668D01*
X231695463Y-101378292D01*
X237285000Y-101378292D01*
X237285000Y-101481708D01*
X237305176Y-101583137D01*
X237344751Y-101678681D01*
X237402206Y-101764668D01*
X237475332Y-101837794D01*
X237561319Y-101895249D01*
X237656863Y-101934824D01*
X237758292Y-101955000D01*
X237861708Y-101955000D01*
X237963137Y-101934824D01*
X238058681Y-101895249D01*
X238144668Y-101837794D01*
X238217794Y-101764668D01*
X238275249Y-101678681D01*
X238314824Y-101583137D01*
X238335000Y-101481708D01*
X238335000Y-101378292D01*
X238314824Y-101276863D01*
X238307391Y-101258917D01*
X238990574Y-101258917D01*
X238990574Y-101362333D01*
X239010750Y-101463762D01*
X239050325Y-101559306D01*
X239107780Y-101645293D01*
X239180906Y-101718419D01*
X239266893Y-101775874D01*
X239362437Y-101815449D01*
X239463866Y-101835625D01*
X239567282Y-101835625D01*
X239668711Y-101815449D01*
X239764255Y-101775874D01*
X239841137Y-101724503D01*
X239873674Y-101746243D01*
X239969218Y-101785818D01*
X240070647Y-101805994D01*
X240174063Y-101805994D01*
X240275492Y-101785818D01*
X240371036Y-101746243D01*
X240457023Y-101688788D01*
X240530149Y-101615662D01*
X240587604Y-101529675D01*
X240627179Y-101434131D01*
X240647355Y-101332702D01*
X240647355Y-101229286D01*
X240627179Y-101127857D01*
X240587604Y-101032313D01*
X240530149Y-100946326D01*
X240457023Y-100873200D01*
X240371036Y-100815745D01*
X240275492Y-100776170D01*
X240174063Y-100755994D01*
X240070647Y-100755994D01*
X239969218Y-100776170D01*
X239873674Y-100815745D01*
X239796792Y-100867116D01*
X239764255Y-100845376D01*
X239668711Y-100805801D01*
X239567282Y-100785625D01*
X239463866Y-100785625D01*
X239362437Y-100805801D01*
X239266893Y-100845376D01*
X239180906Y-100902831D01*
X239107780Y-100975957D01*
X239050325Y-101061944D01*
X239010750Y-101157488D01*
X238990574Y-101258917D01*
X238307391Y-101258917D01*
X238275249Y-101181319D01*
X238217794Y-101095332D01*
X238144668Y-101022206D01*
X238058681Y-100964751D01*
X237963137Y-100925176D01*
X237861708Y-100905000D01*
X237758292Y-100905000D01*
X237656863Y-100925176D01*
X237561319Y-100964751D01*
X237475332Y-101022206D01*
X237402206Y-101095332D01*
X237344751Y-101181319D01*
X237305176Y-101276863D01*
X237285000Y-101378292D01*
X231695463Y-101378292D01*
X231715249Y-101348681D01*
X231754824Y-101253137D01*
X231775000Y-101151708D01*
X231775000Y-101048292D01*
X231754824Y-100946863D01*
X231715249Y-100851319D01*
X231657794Y-100765332D01*
X231584668Y-100692206D01*
X231521503Y-100650000D01*
X231584668Y-100607794D01*
X231657794Y-100534668D01*
X231715249Y-100448681D01*
X231754824Y-100353137D01*
X231775000Y-100251708D01*
X231775000Y-100148292D01*
X231754824Y-100046863D01*
X231715249Y-99951319D01*
X231657794Y-99865332D01*
X231584668Y-99792206D01*
X231498681Y-99734751D01*
X231403137Y-99695176D01*
X231301708Y-99675000D01*
X231198292Y-99675000D01*
X231096863Y-99695176D01*
X231001319Y-99734751D01*
X230915332Y-99792206D01*
X230842206Y-99865332D01*
X230784751Y-99951319D01*
X230745176Y-100046863D01*
X230725000Y-100148292D01*
X205227246Y-100148292D01*
X205242345Y-100015443D01*
X205225570Y-99814232D01*
X205169862Y-99620161D01*
X205077364Y-99440688D01*
X205060204Y-99415008D01*
X204905205Y-99342650D01*
X204247855Y-100000000D01*
X204177145Y-100000000D01*
X203519795Y-99342650D01*
X203364796Y-99415008D01*
X203266958Y-99591628D01*
X203205456Y-99783941D01*
X203182655Y-99984557D01*
X200375000Y-99984557D01*
X200375000Y-99307295D01*
X203555150Y-99307295D01*
X204212500Y-99964645D01*
X204869850Y-99307295D01*
X204797492Y-99152296D01*
X204620872Y-99054458D01*
X204428559Y-98992956D01*
X204227943Y-98970155D01*
X204026732Y-98986930D01*
X203832661Y-99042638D01*
X203653188Y-99135136D01*
X203627508Y-99152296D01*
X203555150Y-99307295D01*
X200375000Y-99307295D01*
X200375000Y-98748300D01*
X208575000Y-98748300D01*
X208575000Y-98851716D01*
X208595176Y-98953145D01*
X208634751Y-99048689D01*
X208692206Y-99134676D01*
X208765332Y-99207802D01*
X208851319Y-99265257D01*
X208946863Y-99304832D01*
X209048292Y-99325008D01*
X209151708Y-99325008D01*
X209253137Y-99304832D01*
X209348681Y-99265257D01*
X209434668Y-99207802D01*
X209507794Y-99134676D01*
X209565249Y-99048689D01*
X209604824Y-98953145D01*
X209625000Y-98851716D01*
X209625000Y-98748300D01*
X209604824Y-98646871D01*
X209565249Y-98551327D01*
X209507794Y-98465340D01*
X209434668Y-98392214D01*
X209348681Y-98334759D01*
X209253137Y-98295184D01*
X209151708Y-98275008D01*
X209048292Y-98275008D01*
X208946863Y-98295184D01*
X208851319Y-98334759D01*
X208765332Y-98392214D01*
X208692206Y-98465340D01*
X208634751Y-98551327D01*
X208595176Y-98646871D01*
X208575000Y-98748300D01*
X200375000Y-98748300D01*
X200375000Y-98258292D01*
X221075000Y-98258292D01*
X221075000Y-98361708D01*
X221095176Y-98463137D01*
X221134751Y-98558681D01*
X221162360Y-98600000D01*
X221134751Y-98641319D01*
X221095176Y-98736863D01*
X221075000Y-98838292D01*
X221075000Y-98941708D01*
X221095176Y-99043137D01*
X221134751Y-99138681D01*
X221192206Y-99224668D01*
X221265332Y-99297794D01*
X221351319Y-99355249D01*
X221446863Y-99394824D01*
X221548292Y-99415000D01*
X221651708Y-99415000D01*
X221753137Y-99394824D01*
X221848681Y-99355249D01*
X221934668Y-99297794D01*
X222007794Y-99224668D01*
X222065249Y-99138681D01*
X222104824Y-99043137D01*
X222125000Y-98941708D01*
X222125000Y-98838292D01*
X222104824Y-98736863D01*
X222065249Y-98641319D01*
X222037640Y-98600000D01*
X222065249Y-98558681D01*
X222104824Y-98463137D01*
X222125000Y-98361708D01*
X222125000Y-98258292D01*
X222104824Y-98156863D01*
X222065249Y-98061319D01*
X222007794Y-97975332D01*
X221934668Y-97902206D01*
X221848681Y-97844751D01*
X221753137Y-97805176D01*
X221651708Y-97785000D01*
X221548292Y-97785000D01*
X221446863Y-97805176D01*
X221351319Y-97844751D01*
X221265332Y-97902206D01*
X221192206Y-97975332D01*
X221134751Y-98061319D01*
X221095176Y-98156863D01*
X221075000Y-98258292D01*
X200375000Y-98258292D01*
X200375000Y-96393231D01*
X205169939Y-96393231D01*
X205169939Y-96496647D01*
X205190115Y-96598076D01*
X205229690Y-96693620D01*
X205287145Y-96779607D01*
X205360271Y-96852733D01*
X205446258Y-96910188D01*
X205541802Y-96949763D01*
X205590542Y-96959458D01*
X205600237Y-97008198D01*
X205639812Y-97103742D01*
X205697267Y-97189729D01*
X205770393Y-97262855D01*
X205856380Y-97320310D01*
X205951924Y-97359885D01*
X206053353Y-97380061D01*
X206156769Y-97380061D01*
X206258198Y-97359885D01*
X206353742Y-97320310D01*
X206439729Y-97262855D01*
X206512855Y-97189729D01*
X206570310Y-97103742D01*
X206609885Y-97008198D01*
X206630061Y-96906769D01*
X206630061Y-96803353D01*
X206609885Y-96701924D01*
X206570310Y-96606380D01*
X206512855Y-96520393D01*
X206490754Y-96498292D01*
X226075000Y-96498292D01*
X226075000Y-96601708D01*
X226095176Y-96703137D01*
X226134751Y-96798681D01*
X226192206Y-96884668D01*
X226265332Y-96957794D01*
X226351319Y-97015249D01*
X226446863Y-97054824D01*
X226548292Y-97075000D01*
X226651708Y-97075000D01*
X226753137Y-97054824D01*
X226848681Y-97015249D01*
X226934668Y-96957794D01*
X227007794Y-96884668D01*
X227065249Y-96798681D01*
X227104824Y-96703137D01*
X227125000Y-96601708D01*
X227125000Y-96548292D01*
X227525000Y-96548292D01*
X227525000Y-96651708D01*
X227545176Y-96753137D01*
X227584751Y-96848681D01*
X227642206Y-96934668D01*
X227715332Y-97007794D01*
X227801319Y-97065249D01*
X227896863Y-97104824D01*
X227976720Y-97120709D01*
X227945176Y-97196863D01*
X227925000Y-97298292D01*
X227925000Y-97401708D01*
X227945176Y-97503137D01*
X227984751Y-97598681D01*
X228042206Y-97684668D01*
X228115332Y-97757794D01*
X228201319Y-97815249D01*
X228296863Y-97854824D01*
X228350276Y-97865449D01*
X228384751Y-97948681D01*
X228442206Y-98034668D01*
X228515332Y-98107794D01*
X228601319Y-98165249D01*
X228696863Y-98204824D01*
X228798292Y-98225000D01*
X228879633Y-98225000D01*
X228895176Y-98303137D01*
X228934751Y-98398681D01*
X228992206Y-98484668D01*
X229065332Y-98557794D01*
X229151319Y-98615249D01*
X229246863Y-98654824D01*
X229348292Y-98675000D01*
X229404220Y-98675000D01*
X229395168Y-98696855D01*
X229374992Y-98798284D01*
X229374992Y-98901700D01*
X229395168Y-99003129D01*
X229434743Y-99098673D01*
X229492198Y-99184660D01*
X229565324Y-99257786D01*
X229651311Y-99315241D01*
X229746855Y-99354816D01*
X229800273Y-99365442D01*
X229834751Y-99448681D01*
X229892206Y-99534668D01*
X229965332Y-99607794D01*
X230051319Y-99665249D01*
X230146863Y-99704824D01*
X230248292Y-99725000D01*
X230351708Y-99725000D01*
X230453137Y-99704824D01*
X230548681Y-99665249D01*
X230634668Y-99607794D01*
X230707794Y-99534668D01*
X230765249Y-99448681D01*
X230804824Y-99353137D01*
X230825000Y-99251708D01*
X230825000Y-99148292D01*
X230804824Y-99046863D01*
X230765249Y-98951319D01*
X230707794Y-98865332D01*
X230634668Y-98792206D01*
X230548681Y-98734751D01*
X230453137Y-98695176D01*
X230399719Y-98684550D01*
X230365241Y-98601311D01*
X230307786Y-98515324D01*
X230234660Y-98442198D01*
X230148673Y-98384743D01*
X230053129Y-98345168D01*
X229951700Y-98324992D01*
X229895772Y-98324992D01*
X229904824Y-98303137D01*
X229925000Y-98201708D01*
X229925000Y-98098292D01*
X229904824Y-97996863D01*
X229865249Y-97901319D01*
X229807794Y-97815332D01*
X229734668Y-97742206D01*
X229648681Y-97684751D01*
X229553137Y-97645176D01*
X229451708Y-97625000D01*
X229370367Y-97625000D01*
X229354824Y-97546863D01*
X229315249Y-97451319D01*
X229257794Y-97365332D01*
X229184668Y-97292206D01*
X229098681Y-97234751D01*
X229003137Y-97195176D01*
X228949724Y-97184551D01*
X228915249Y-97101319D01*
X228879818Y-97048292D01*
X233425000Y-97048292D01*
X233425000Y-97151708D01*
X233445176Y-97253137D01*
X233484751Y-97348681D01*
X233542206Y-97434668D01*
X233615332Y-97507794D01*
X233701319Y-97565249D01*
X233796863Y-97604824D01*
X233898292Y-97625000D01*
X234001708Y-97625000D01*
X234103137Y-97604824D01*
X234198681Y-97565249D01*
X234284668Y-97507794D01*
X234357794Y-97434668D01*
X234415249Y-97348681D01*
X234454824Y-97253137D01*
X234475000Y-97151708D01*
X234475000Y-97048292D01*
X234454824Y-96946863D01*
X234415249Y-96851319D01*
X234357794Y-96765332D01*
X234284668Y-96692206D01*
X234198681Y-96634751D01*
X234103137Y-96595176D01*
X234001708Y-96575000D01*
X233898292Y-96575000D01*
X233796863Y-96595176D01*
X233701319Y-96634751D01*
X233615332Y-96692206D01*
X233542206Y-96765332D01*
X233484751Y-96851319D01*
X233445176Y-96946863D01*
X233425000Y-97048292D01*
X228879818Y-97048292D01*
X228857794Y-97015332D01*
X228784668Y-96942206D01*
X228698681Y-96884751D01*
X228603137Y-96845176D01*
X228523280Y-96829291D01*
X228554824Y-96753137D01*
X228575000Y-96651708D01*
X228575000Y-96548292D01*
X228554824Y-96446863D01*
X228515249Y-96351319D01*
X228457794Y-96265332D01*
X228384668Y-96192206D01*
X228298681Y-96134751D01*
X228203137Y-96095176D01*
X228101708Y-96075000D01*
X227998292Y-96075000D01*
X227896863Y-96095176D01*
X227801319Y-96134751D01*
X227715332Y-96192206D01*
X227642206Y-96265332D01*
X227584751Y-96351319D01*
X227545176Y-96446863D01*
X227525000Y-96548292D01*
X227125000Y-96548292D01*
X227125000Y-96498292D01*
X227104824Y-96396863D01*
X227065249Y-96301319D01*
X227007794Y-96215332D01*
X226934668Y-96142206D01*
X226848681Y-96084751D01*
X226753137Y-96045176D01*
X226651708Y-96025000D01*
X226548292Y-96025000D01*
X226446863Y-96045176D01*
X226351319Y-96084751D01*
X226265332Y-96142206D01*
X226192206Y-96215332D01*
X226134751Y-96301319D01*
X226095176Y-96396863D01*
X226075000Y-96498292D01*
X206490754Y-96498292D01*
X206439729Y-96447267D01*
X206353742Y-96389812D01*
X206258198Y-96350237D01*
X206209458Y-96340542D01*
X206199763Y-96291802D01*
X206160188Y-96196258D01*
X206102733Y-96110271D01*
X206029607Y-96037145D01*
X205943620Y-95979690D01*
X205848076Y-95940115D01*
X205746647Y-95919939D01*
X205643231Y-95919939D01*
X205541802Y-95940115D01*
X205446258Y-95979690D01*
X205360271Y-96037145D01*
X205287145Y-96110271D01*
X205229690Y-96196258D01*
X205190115Y-96291802D01*
X205169939Y-96393231D01*
X200375000Y-96393231D01*
X200375000Y-95692705D01*
X203555150Y-95692705D01*
X203627508Y-95847704D01*
X203804128Y-95945542D01*
X203996441Y-96007044D01*
X204197057Y-96029845D01*
X204398268Y-96013070D01*
X204592339Y-95957362D01*
X204771812Y-95864864D01*
X204797492Y-95847704D01*
X204869850Y-95692705D01*
X204212500Y-95035355D01*
X203555150Y-95692705D01*
X200375000Y-95692705D01*
X200375000Y-94984557D01*
X203182655Y-94984557D01*
X203199430Y-95185768D01*
X203255138Y-95379839D01*
X203347636Y-95559312D01*
X203364796Y-95584992D01*
X203519795Y-95657350D01*
X204177145Y-95000000D01*
X204247855Y-95000000D01*
X204905205Y-95657350D01*
X205060204Y-95584992D01*
X205158042Y-95408372D01*
X205193245Y-95298292D01*
X208575000Y-95298292D01*
X208575000Y-95401708D01*
X208595176Y-95503137D01*
X208634751Y-95598681D01*
X208692206Y-95684668D01*
X208765332Y-95757794D01*
X208851319Y-95815249D01*
X208946863Y-95854824D01*
X209048292Y-95875000D01*
X209151708Y-95875000D01*
X209253137Y-95854824D01*
X209348681Y-95815249D01*
X209434668Y-95757794D01*
X209507794Y-95684668D01*
X209532099Y-95648292D01*
X212525000Y-95648292D01*
X212525000Y-95751708D01*
X212545176Y-95853137D01*
X212584751Y-95948681D01*
X212642206Y-96034668D01*
X212715332Y-96107794D01*
X212801319Y-96165249D01*
X212896863Y-96204824D01*
X212998292Y-96225000D01*
X213101708Y-96225000D01*
X213203137Y-96204824D01*
X213298681Y-96165249D01*
X213384668Y-96107794D01*
X213450000Y-96042462D01*
X213515332Y-96107794D01*
X213601319Y-96165249D01*
X213696863Y-96204824D01*
X213798292Y-96225000D01*
X213901708Y-96225000D01*
X214003137Y-96204824D01*
X214098681Y-96165249D01*
X214184668Y-96107794D01*
X214257794Y-96034668D01*
X214315249Y-95948681D01*
X214354824Y-95853137D01*
X214375000Y-95751708D01*
X214375000Y-95648292D01*
X214354824Y-95546863D01*
X214315249Y-95451319D01*
X214257794Y-95365332D01*
X214184668Y-95292206D01*
X214098681Y-95234751D01*
X214003137Y-95195176D01*
X213901708Y-95175000D01*
X213798292Y-95175000D01*
X213696863Y-95195176D01*
X213601319Y-95234751D01*
X213515332Y-95292206D01*
X213450000Y-95357538D01*
X213384668Y-95292206D01*
X213298681Y-95234751D01*
X213203137Y-95195176D01*
X213101708Y-95175000D01*
X212998292Y-95175000D01*
X212896863Y-95195176D01*
X212801319Y-95234751D01*
X212715332Y-95292206D01*
X212642206Y-95365332D01*
X212584751Y-95451319D01*
X212545176Y-95546863D01*
X212525000Y-95648292D01*
X209532099Y-95648292D01*
X209565249Y-95598681D01*
X209604824Y-95503137D01*
X209625000Y-95401708D01*
X209625000Y-95298292D01*
X209604824Y-95196863D01*
X209565249Y-95101319D01*
X209529818Y-95048292D01*
X232925000Y-95048292D01*
X232925000Y-95151708D01*
X232945176Y-95253137D01*
X232984751Y-95348681D01*
X233042206Y-95434668D01*
X233115332Y-95507794D01*
X233201319Y-95565249D01*
X233296863Y-95604824D01*
X233398292Y-95625000D01*
X233501708Y-95625000D01*
X233603137Y-95604824D01*
X233698681Y-95565249D01*
X233784668Y-95507794D01*
X233857794Y-95434668D01*
X233915249Y-95348681D01*
X233954824Y-95253137D01*
X233975000Y-95151708D01*
X233975000Y-95048292D01*
X233954824Y-94946863D01*
X233915249Y-94851319D01*
X233857794Y-94765332D01*
X233784668Y-94692206D01*
X233698681Y-94634751D01*
X233603137Y-94595176D01*
X233501708Y-94575000D01*
X233398292Y-94575000D01*
X233296863Y-94595176D01*
X233201319Y-94634751D01*
X233115332Y-94692206D01*
X233042206Y-94765332D01*
X232984751Y-94851319D01*
X232945176Y-94946863D01*
X232925000Y-95048292D01*
X209529818Y-95048292D01*
X209507794Y-95015332D01*
X209434668Y-94942206D01*
X209348681Y-94884751D01*
X209253137Y-94845176D01*
X209151708Y-94825000D01*
X209048292Y-94825000D01*
X208946863Y-94845176D01*
X208851319Y-94884751D01*
X208765332Y-94942206D01*
X208692206Y-95015332D01*
X208634751Y-95101319D01*
X208595176Y-95196863D01*
X208575000Y-95298292D01*
X205193245Y-95298292D01*
X205219544Y-95216059D01*
X205242345Y-95015443D01*
X205225570Y-94814232D01*
X205169862Y-94620161D01*
X205077364Y-94440688D01*
X205060204Y-94415008D01*
X204905205Y-94342650D01*
X204247855Y-95000000D01*
X204177145Y-95000000D01*
X203519795Y-94342650D01*
X203364796Y-94415008D01*
X203266958Y-94591628D01*
X203205456Y-94783941D01*
X203182655Y-94984557D01*
X200375000Y-94984557D01*
X200375000Y-94428581D01*
X200400288Y-94479226D01*
X200508426Y-94618718D01*
X200641700Y-94734433D01*
X200794988Y-94821924D01*
X200962399Y-94877829D01*
X201137500Y-94900000D01*
X201487500Y-94900000D01*
X201487500Y-94025000D01*
X201537500Y-94025000D01*
X201537500Y-94900000D01*
X201887500Y-94900000D01*
X202062601Y-94877829D01*
X202230012Y-94821924D01*
X202383300Y-94734433D01*
X202516574Y-94618718D01*
X202624712Y-94479226D01*
X202703559Y-94321318D01*
X202707481Y-94307295D01*
X203555150Y-94307295D01*
X204212500Y-94964645D01*
X204869850Y-94307295D01*
X204797492Y-94152296D01*
X204620872Y-94054458D01*
X204428559Y-93992956D01*
X204227943Y-93970155D01*
X204026732Y-93986930D01*
X203832661Y-94042638D01*
X203653188Y-94135136D01*
X203627508Y-94152296D01*
X203555150Y-94307295D01*
X202707481Y-94307295D01*
X202747166Y-94165429D01*
X202687121Y-94025000D01*
X201537500Y-94025000D01*
X201487500Y-94025000D01*
X201467500Y-94025000D01*
X201467500Y-93975000D01*
X201487500Y-93975000D01*
X201487500Y-93100000D01*
X201537500Y-93100000D01*
X201537500Y-93975000D01*
X202687121Y-93975000D01*
X202747166Y-93834571D01*
X202703559Y-93678682D01*
X202638453Y-93548292D01*
X230375000Y-93548292D01*
X230375000Y-93651708D01*
X230395176Y-93753137D01*
X230434751Y-93848681D01*
X230492206Y-93934668D01*
X230565332Y-94007794D01*
X230651319Y-94065249D01*
X230746863Y-94104824D01*
X230848292Y-94125000D01*
X230951708Y-94125000D01*
X231053137Y-94104824D01*
X231148681Y-94065249D01*
X231234668Y-94007794D01*
X231307794Y-93934668D01*
X231365249Y-93848681D01*
X231404824Y-93753137D01*
X231425000Y-93651708D01*
X231425000Y-93627690D01*
X231455114Y-93657804D01*
X231541101Y-93715259D01*
X231636645Y-93754834D01*
X231725000Y-93772409D01*
X231725000Y-93801708D01*
X231745176Y-93903137D01*
X231784751Y-93998681D01*
X231842206Y-94084668D01*
X231915332Y-94157794D01*
X232001319Y-94215249D01*
X232096863Y-94254824D01*
X232198292Y-94275000D01*
X232253120Y-94275000D01*
X232255924Y-94289097D01*
X232295499Y-94384641D01*
X232352954Y-94470628D01*
X232426080Y-94543754D01*
X232512067Y-94601209D01*
X232607611Y-94640784D01*
X232709040Y-94660960D01*
X232812456Y-94660960D01*
X232913885Y-94640784D01*
X233009429Y-94601209D01*
X233095416Y-94543754D01*
X233168542Y-94470628D01*
X233225997Y-94384641D01*
X233265572Y-94289097D01*
X233285748Y-94187668D01*
X233285748Y-94084252D01*
X233265572Y-93982823D01*
X233225997Y-93887279D01*
X233168542Y-93801292D01*
X233095416Y-93728166D01*
X233009429Y-93670711D01*
X232913885Y-93631136D01*
X232812456Y-93610960D01*
X232757628Y-93610960D01*
X232754824Y-93596863D01*
X232715249Y-93501319D01*
X232657794Y-93415332D01*
X232584668Y-93342206D01*
X232498681Y-93284751D01*
X232403137Y-93245176D01*
X232314782Y-93227601D01*
X232314782Y-93198302D01*
X232294606Y-93096873D01*
X232255031Y-93001329D01*
X232197576Y-92915342D01*
X232124450Y-92842216D01*
X232038463Y-92784761D01*
X231942919Y-92745186D01*
X231841490Y-92725010D01*
X231738074Y-92725010D01*
X231636645Y-92745186D01*
X231541101Y-92784761D01*
X231455114Y-92842216D01*
X231381988Y-92915342D01*
X231324533Y-93001329D01*
X231284958Y-93096873D01*
X231264782Y-93198302D01*
X231264782Y-93222320D01*
X231234668Y-93192206D01*
X231148681Y-93134751D01*
X231053137Y-93095176D01*
X230951708Y-93075000D01*
X230848292Y-93075000D01*
X230746863Y-93095176D01*
X230651319Y-93134751D01*
X230565332Y-93192206D01*
X230492206Y-93265332D01*
X230434751Y-93351319D01*
X230395176Y-93446863D01*
X230375000Y-93548292D01*
X202638453Y-93548292D01*
X202624712Y-93520774D01*
X202516574Y-93381282D01*
X202383300Y-93265567D01*
X202230012Y-93178076D01*
X202062601Y-93122171D01*
X201887500Y-93100000D01*
X201537500Y-93100000D01*
X201487500Y-93100000D01*
X201137500Y-93100000D01*
X200962399Y-93122171D01*
X200794988Y-93178076D01*
X200641700Y-93265567D01*
X200508426Y-93381282D01*
X200400288Y-93520774D01*
X200375000Y-93571419D01*
X200375000Y-91598292D01*
X205575000Y-91598292D01*
X205575000Y-91701708D01*
X205595176Y-91803137D01*
X205634751Y-91898681D01*
X205692206Y-91984668D01*
X205765332Y-92057794D01*
X205851319Y-92115249D01*
X205946863Y-92154824D01*
X206048292Y-92175000D01*
X206151708Y-92175000D01*
X206253137Y-92154824D01*
X206348681Y-92115249D01*
X206391800Y-92086437D01*
X227839132Y-92086437D01*
X227839132Y-92189853D01*
X227859308Y-92291282D01*
X227898883Y-92386826D01*
X227956338Y-92472813D01*
X228029464Y-92545939D01*
X228115451Y-92603394D01*
X228210995Y-92642969D01*
X228312424Y-92663145D01*
X228415840Y-92663145D01*
X228517269Y-92642969D01*
X228612813Y-92603394D01*
X228665602Y-92568121D01*
X228715459Y-92601435D01*
X228811003Y-92641010D01*
X228912432Y-92661186D01*
X229015848Y-92661186D01*
X229117277Y-92641010D01*
X229212821Y-92601435D01*
X229298808Y-92543980D01*
X229371934Y-92470854D01*
X229429389Y-92384867D01*
X229464983Y-92298935D01*
X229494166Y-92298935D01*
X229595595Y-92278759D01*
X229691139Y-92239184D01*
X229777126Y-92181729D01*
X229850252Y-92108603D01*
X229854251Y-92102617D01*
X241682738Y-92102617D01*
X241782085Y-92280657D01*
X241996951Y-92400912D01*
X242231149Y-92476937D01*
X242475678Y-92505812D01*
X242721143Y-92486426D01*
X242958108Y-92419526D01*
X243177469Y-92307680D01*
X243217915Y-92280657D01*
X243317262Y-92102617D01*
X242500000Y-91285355D01*
X241682738Y-92102617D01*
X229854251Y-92102617D01*
X229907707Y-92022616D01*
X229947282Y-91927072D01*
X229966451Y-91830707D01*
X229989472Y-91826128D01*
X230085016Y-91786553D01*
X230171003Y-91729098D01*
X230244129Y-91655972D01*
X230301584Y-91569985D01*
X230341159Y-91474441D01*
X230361335Y-91373012D01*
X230361335Y-91269596D01*
X230352599Y-91225678D01*
X241244188Y-91225678D01*
X241263574Y-91471143D01*
X241330474Y-91708108D01*
X241442320Y-91927469D01*
X241469343Y-91967915D01*
X241647383Y-92067262D01*
X242464645Y-91250000D01*
X242535355Y-91250000D01*
X243352617Y-92067262D01*
X243530657Y-91967915D01*
X243650912Y-91753049D01*
X243726937Y-91518851D01*
X243728853Y-91502617D01*
X246582738Y-91502617D01*
X246682085Y-91680657D01*
X246896951Y-91800912D01*
X247131149Y-91876937D01*
X247375678Y-91905812D01*
X247621143Y-91886426D01*
X247858108Y-91819526D01*
X248077469Y-91707680D01*
X248117915Y-91680657D01*
X248217262Y-91502617D01*
X247400000Y-90685355D01*
X246582738Y-91502617D01*
X243728853Y-91502617D01*
X243755812Y-91274322D01*
X243736426Y-91028857D01*
X243669526Y-90791892D01*
X243584779Y-90625678D01*
X246144188Y-90625678D01*
X246163574Y-90871143D01*
X246230474Y-91108108D01*
X246342320Y-91327469D01*
X246369343Y-91367915D01*
X246547383Y-91467262D01*
X247364645Y-90650000D01*
X247435355Y-90650000D01*
X248252617Y-91467262D01*
X248430657Y-91367915D01*
X248550912Y-91153049D01*
X248626937Y-90918851D01*
X248655812Y-90674322D01*
X248636426Y-90428857D01*
X248569526Y-90191892D01*
X248457680Y-89972531D01*
X248430657Y-89932085D01*
X248252617Y-89832738D01*
X247435355Y-90650000D01*
X247364645Y-90650000D01*
X246547383Y-89832738D01*
X246369343Y-89932085D01*
X246249088Y-90146951D01*
X246173063Y-90381149D01*
X246144188Y-90625678D01*
X243584779Y-90625678D01*
X243557680Y-90572531D01*
X243530657Y-90532085D01*
X243352617Y-90432738D01*
X242535355Y-91250000D01*
X242464645Y-91250000D01*
X241647383Y-90432738D01*
X241469343Y-90532085D01*
X241349088Y-90746951D01*
X241273063Y-90981149D01*
X241244188Y-91225678D01*
X230352599Y-91225678D01*
X230341159Y-91168167D01*
X230301584Y-91072623D01*
X230244129Y-90986636D01*
X230171003Y-90913510D01*
X230085016Y-90856055D01*
X229989472Y-90816480D01*
X229888043Y-90796304D01*
X229784627Y-90796304D01*
X229683198Y-90816480D01*
X229587654Y-90856055D01*
X229501667Y-90913510D01*
X229428541Y-90986636D01*
X229371086Y-91072623D01*
X229331511Y-91168167D01*
X229312342Y-91264532D01*
X229289321Y-91269111D01*
X229193777Y-91308686D01*
X229107790Y-91366141D01*
X229034664Y-91439267D01*
X228977209Y-91525254D01*
X228941615Y-91611186D01*
X228912432Y-91611186D01*
X228811003Y-91631362D01*
X228715459Y-91670937D01*
X228662670Y-91706210D01*
X228612813Y-91672896D01*
X228517269Y-91633321D01*
X228415840Y-91613145D01*
X228312424Y-91613145D01*
X228210995Y-91633321D01*
X228115451Y-91672896D01*
X228029464Y-91730351D01*
X227956338Y-91803477D01*
X227898883Y-91889464D01*
X227859308Y-91985008D01*
X227839132Y-92086437D01*
X206391800Y-92086437D01*
X206434668Y-92057794D01*
X206507794Y-91984668D01*
X206565249Y-91898681D01*
X206604824Y-91803137D01*
X206625000Y-91701708D01*
X206625000Y-91598292D01*
X206604824Y-91496863D01*
X206565249Y-91401319D01*
X206507794Y-91315332D01*
X206434668Y-91242206D01*
X206348681Y-91184751D01*
X206253137Y-91145176D01*
X206151708Y-91125000D01*
X206048292Y-91125000D01*
X205946863Y-91145176D01*
X205851319Y-91184751D01*
X205765332Y-91242206D01*
X205692206Y-91315332D01*
X205634751Y-91401319D01*
X205595176Y-91496863D01*
X205575000Y-91598292D01*
X200375000Y-91598292D01*
X200375000Y-90898288D01*
X214375000Y-90898288D01*
X214375000Y-91001704D01*
X214395176Y-91103133D01*
X214434751Y-91198677D01*
X214492206Y-91284664D01*
X214565332Y-91357790D01*
X214651319Y-91415245D01*
X214746863Y-91454820D01*
X214848292Y-91474996D01*
X214951708Y-91474996D01*
X215053137Y-91454820D01*
X215148681Y-91415245D01*
X215234668Y-91357790D01*
X215307794Y-91284664D01*
X215365249Y-91198677D01*
X215404824Y-91103133D01*
X215425000Y-91001704D01*
X215425000Y-90898288D01*
X215404824Y-90796859D01*
X215365249Y-90701315D01*
X215307794Y-90615328D01*
X215234668Y-90542202D01*
X215148681Y-90484747D01*
X215053137Y-90445172D01*
X214951708Y-90424996D01*
X214848292Y-90424996D01*
X214746863Y-90445172D01*
X214651319Y-90484747D01*
X214565332Y-90542202D01*
X214492206Y-90615328D01*
X214434751Y-90701315D01*
X214395176Y-90796859D01*
X214375000Y-90898288D01*
X200375000Y-90898288D01*
X200375000Y-90048292D01*
X210675000Y-90048292D01*
X210675000Y-90151708D01*
X210695176Y-90253137D01*
X210734751Y-90348681D01*
X210792206Y-90434668D01*
X210865332Y-90507794D01*
X210951319Y-90565249D01*
X211046863Y-90604824D01*
X211148292Y-90625000D01*
X211251708Y-90625000D01*
X211353137Y-90604824D01*
X211448681Y-90565249D01*
X211534668Y-90507794D01*
X211607794Y-90434668D01*
X211665249Y-90348681D01*
X211704824Y-90253137D01*
X211725000Y-90151708D01*
X211725000Y-90048292D01*
X213125000Y-90048292D01*
X213125000Y-90151708D01*
X213145176Y-90253137D01*
X213184751Y-90348681D01*
X213242206Y-90434668D01*
X213315332Y-90507794D01*
X213401319Y-90565249D01*
X213496863Y-90604824D01*
X213598292Y-90625000D01*
X213701708Y-90625000D01*
X213803137Y-90604824D01*
X213898681Y-90565249D01*
X213984668Y-90507794D01*
X214057794Y-90434668D01*
X214082707Y-90397383D01*
X241682738Y-90397383D01*
X242500000Y-91214645D01*
X243317262Y-90397383D01*
X243217915Y-90219343D01*
X243003049Y-90099088D01*
X242768851Y-90023063D01*
X242524322Y-89994188D01*
X242278857Y-90013574D01*
X242041892Y-90080474D01*
X241822531Y-90192320D01*
X241782085Y-90219343D01*
X241682738Y-90397383D01*
X214082707Y-90397383D01*
X214115249Y-90348681D01*
X214154824Y-90253137D01*
X214175000Y-90151708D01*
X214175000Y-90048292D01*
X214154824Y-89946863D01*
X214115249Y-89851319D01*
X214057794Y-89765332D01*
X213984668Y-89692206D01*
X213898681Y-89634751D01*
X213803137Y-89595176D01*
X213701708Y-89575000D01*
X213598292Y-89575000D01*
X213496863Y-89595176D01*
X213401319Y-89634751D01*
X213315332Y-89692206D01*
X213242206Y-89765332D01*
X213184751Y-89851319D01*
X213145176Y-89946863D01*
X213125000Y-90048292D01*
X211725000Y-90048292D01*
X211704824Y-89946863D01*
X211665249Y-89851319D01*
X211607794Y-89765332D01*
X211534668Y-89692206D01*
X211448681Y-89634751D01*
X211353137Y-89595176D01*
X211251708Y-89575000D01*
X211148292Y-89575000D01*
X211046863Y-89595176D01*
X210951319Y-89634751D01*
X210865332Y-89692206D01*
X210792206Y-89765332D01*
X210734751Y-89851319D01*
X210695176Y-89946863D01*
X210675000Y-90048292D01*
X200375000Y-90048292D01*
X200375000Y-88018338D01*
X200403713Y-87725500D01*
X200480702Y-88112547D01*
X200639004Y-88494723D01*
X200868823Y-88838672D01*
X201161328Y-89131177D01*
X201505277Y-89360996D01*
X201887453Y-89519298D01*
X202293168Y-89600000D01*
X202706832Y-89600000D01*
X203112547Y-89519298D01*
X203494723Y-89360996D01*
X203838672Y-89131177D01*
X204131177Y-88838672D01*
X204360996Y-88494723D01*
X204519298Y-88112547D01*
X204600000Y-87706832D01*
X204600000Y-87293168D01*
X204519298Y-86887453D01*
X204360996Y-86505277D01*
X204131177Y-86161328D01*
X203838672Y-85868823D01*
X203494723Y-85639004D01*
X203112547Y-85480702D01*
X202725748Y-85403763D01*
X202999360Y-85375005D01*
X203000733Y-85375000D01*
X232773084Y-85375000D01*
X232727523Y-85399353D01*
M02*
