G04 #@! TF.GenerationSoftware,KiCad,Pcbnew,5.0.2-bee76a0~70~ubuntu18.04.1*
G04 #@! TF.CreationDate,2020-08-11T13:50:02+01:00*
G04 #@! TF.ProjectId,picodvi,7069636f-6476-4692-9e6b-696361645f70,rev?*
G04 #@! TF.SameCoordinates,Original*
G04 #@! TF.FileFunction,Paste,Top*
G04 #@! TF.FilePolarity,Positive*
%FSLAX46Y46*%
G04 Gerber Fmt 4.6, Leading zero omitted, Abs format (unit mm)*
G04 Created by KiCad (PCBNEW 5.0.2-bee76a0~70~ubuntu18.04.1) date Tue 11 Aug 2020 13:50:02 BST*
%MOMM*%
%LPD*%
G01*
G04 APERTURE LIST*
%ADD10R,1.900000X0.300000*%
%ADD11R,1.100000X1.800000*%
%ADD12C,0.100000*%
%ADD13C,0.590000*%
%ADD14C,0.975000*%
%ADD15R,1.900000X1.500000*%
%ADD16R,1.350000X0.400000*%
%ADD17O,1.000000X0.200000*%
%ADD18O,0.200000X1.000000*%
%ADD19R,1.400000X1.400000*%
%ADD20R,1.560000X0.650000*%
%ADD21R,1.400000X1.200000*%
%ADD22C,0.318000*%
%ADD23C,0.500000*%
%ADD24C,1.370000*%
G04 APERTURE END LIST*
D10*
G04 #@! TO.C,J5*
X241600000Y-109250000D03*
X241600000Y-108750000D03*
X241600000Y-108250000D03*
X241600000Y-107750000D03*
X241600000Y-107250000D03*
X241600000Y-106750000D03*
X241600000Y-106250000D03*
X241600000Y-105750000D03*
X241600000Y-105250000D03*
X241600000Y-104750000D03*
X241600000Y-104250000D03*
X241600000Y-103750000D03*
X241600000Y-103250000D03*
X241600000Y-102750000D03*
X241600000Y-102250000D03*
X241600000Y-101750000D03*
X241600000Y-101250000D03*
X241600000Y-100750000D03*
X241600000Y-100250000D03*
G04 #@! TD*
D11*
G04 #@! TO.C,SW2*
X221850000Y-86400000D03*
X221850000Y-92600000D03*
X218150000Y-86400000D03*
X218150000Y-92600000D03*
G04 #@! TD*
D12*
G04 #@! TO.C,C1*
G36*
X233676958Y-99830710D02*
X233691276Y-99832834D01*
X233705317Y-99836351D01*
X233718946Y-99841228D01*
X233732031Y-99847417D01*
X233744447Y-99854858D01*
X233756073Y-99863481D01*
X233766798Y-99873202D01*
X233776519Y-99883927D01*
X233785142Y-99895553D01*
X233792583Y-99907969D01*
X233798772Y-99921054D01*
X233803649Y-99934683D01*
X233807166Y-99948724D01*
X233809290Y-99963042D01*
X233810000Y-99977500D01*
X233810000Y-100322500D01*
X233809290Y-100336958D01*
X233807166Y-100351276D01*
X233803649Y-100365317D01*
X233798772Y-100378946D01*
X233792583Y-100392031D01*
X233785142Y-100404447D01*
X233776519Y-100416073D01*
X233766798Y-100426798D01*
X233756073Y-100436519D01*
X233744447Y-100445142D01*
X233732031Y-100452583D01*
X233718946Y-100458772D01*
X233705317Y-100463649D01*
X233691276Y-100467166D01*
X233676958Y-100469290D01*
X233662500Y-100470000D01*
X233367500Y-100470000D01*
X233353042Y-100469290D01*
X233338724Y-100467166D01*
X233324683Y-100463649D01*
X233311054Y-100458772D01*
X233297969Y-100452583D01*
X233285553Y-100445142D01*
X233273927Y-100436519D01*
X233263202Y-100426798D01*
X233253481Y-100416073D01*
X233244858Y-100404447D01*
X233237417Y-100392031D01*
X233231228Y-100378946D01*
X233226351Y-100365317D01*
X233222834Y-100351276D01*
X233220710Y-100336958D01*
X233220000Y-100322500D01*
X233220000Y-99977500D01*
X233220710Y-99963042D01*
X233222834Y-99948724D01*
X233226351Y-99934683D01*
X233231228Y-99921054D01*
X233237417Y-99907969D01*
X233244858Y-99895553D01*
X233253481Y-99883927D01*
X233263202Y-99873202D01*
X233273927Y-99863481D01*
X233285553Y-99854858D01*
X233297969Y-99847417D01*
X233311054Y-99841228D01*
X233324683Y-99836351D01*
X233338724Y-99832834D01*
X233353042Y-99830710D01*
X233367500Y-99830000D01*
X233662500Y-99830000D01*
X233676958Y-99830710D01*
X233676958Y-99830710D01*
G37*
D13*
X233515000Y-100150000D03*
D12*
G36*
X234646958Y-99830710D02*
X234661276Y-99832834D01*
X234675317Y-99836351D01*
X234688946Y-99841228D01*
X234702031Y-99847417D01*
X234714447Y-99854858D01*
X234726073Y-99863481D01*
X234736798Y-99873202D01*
X234746519Y-99883927D01*
X234755142Y-99895553D01*
X234762583Y-99907969D01*
X234768772Y-99921054D01*
X234773649Y-99934683D01*
X234777166Y-99948724D01*
X234779290Y-99963042D01*
X234780000Y-99977500D01*
X234780000Y-100322500D01*
X234779290Y-100336958D01*
X234777166Y-100351276D01*
X234773649Y-100365317D01*
X234768772Y-100378946D01*
X234762583Y-100392031D01*
X234755142Y-100404447D01*
X234746519Y-100416073D01*
X234736798Y-100426798D01*
X234726073Y-100436519D01*
X234714447Y-100445142D01*
X234702031Y-100452583D01*
X234688946Y-100458772D01*
X234675317Y-100463649D01*
X234661276Y-100467166D01*
X234646958Y-100469290D01*
X234632500Y-100470000D01*
X234337500Y-100470000D01*
X234323042Y-100469290D01*
X234308724Y-100467166D01*
X234294683Y-100463649D01*
X234281054Y-100458772D01*
X234267969Y-100452583D01*
X234255553Y-100445142D01*
X234243927Y-100436519D01*
X234233202Y-100426798D01*
X234223481Y-100416073D01*
X234214858Y-100404447D01*
X234207417Y-100392031D01*
X234201228Y-100378946D01*
X234196351Y-100365317D01*
X234192834Y-100351276D01*
X234190710Y-100336958D01*
X234190000Y-100322500D01*
X234190000Y-99977500D01*
X234190710Y-99963042D01*
X234192834Y-99948724D01*
X234196351Y-99934683D01*
X234201228Y-99921054D01*
X234207417Y-99907969D01*
X234214858Y-99895553D01*
X234223481Y-99883927D01*
X234233202Y-99873202D01*
X234243927Y-99863481D01*
X234255553Y-99854858D01*
X234267969Y-99847417D01*
X234281054Y-99841228D01*
X234294683Y-99836351D01*
X234308724Y-99832834D01*
X234323042Y-99830710D01*
X234337500Y-99830000D01*
X234632500Y-99830000D01*
X234646958Y-99830710D01*
X234646958Y-99830710D01*
G37*
D13*
X234485000Y-100150000D03*
G04 #@! TD*
D12*
G04 #@! TO.C,C7*
G36*
X209686958Y-104220710D02*
X209701276Y-104222834D01*
X209715317Y-104226351D01*
X209728946Y-104231228D01*
X209742031Y-104237417D01*
X209754447Y-104244858D01*
X209766073Y-104253481D01*
X209776798Y-104263202D01*
X209786519Y-104273927D01*
X209795142Y-104285553D01*
X209802583Y-104297969D01*
X209808772Y-104311054D01*
X209813649Y-104324683D01*
X209817166Y-104338724D01*
X209819290Y-104353042D01*
X209820000Y-104367500D01*
X209820000Y-104662500D01*
X209819290Y-104676958D01*
X209817166Y-104691276D01*
X209813649Y-104705317D01*
X209808772Y-104718946D01*
X209802583Y-104732031D01*
X209795142Y-104744447D01*
X209786519Y-104756073D01*
X209776798Y-104766798D01*
X209766073Y-104776519D01*
X209754447Y-104785142D01*
X209742031Y-104792583D01*
X209728946Y-104798772D01*
X209715317Y-104803649D01*
X209701276Y-104807166D01*
X209686958Y-104809290D01*
X209672500Y-104810000D01*
X209327500Y-104810000D01*
X209313042Y-104809290D01*
X209298724Y-104807166D01*
X209284683Y-104803649D01*
X209271054Y-104798772D01*
X209257969Y-104792583D01*
X209245553Y-104785142D01*
X209233927Y-104776519D01*
X209223202Y-104766798D01*
X209213481Y-104756073D01*
X209204858Y-104744447D01*
X209197417Y-104732031D01*
X209191228Y-104718946D01*
X209186351Y-104705317D01*
X209182834Y-104691276D01*
X209180710Y-104676958D01*
X209180000Y-104662500D01*
X209180000Y-104367500D01*
X209180710Y-104353042D01*
X209182834Y-104338724D01*
X209186351Y-104324683D01*
X209191228Y-104311054D01*
X209197417Y-104297969D01*
X209204858Y-104285553D01*
X209213481Y-104273927D01*
X209223202Y-104263202D01*
X209233927Y-104253481D01*
X209245553Y-104244858D01*
X209257969Y-104237417D01*
X209271054Y-104231228D01*
X209284683Y-104226351D01*
X209298724Y-104222834D01*
X209313042Y-104220710D01*
X209327500Y-104220000D01*
X209672500Y-104220000D01*
X209686958Y-104220710D01*
X209686958Y-104220710D01*
G37*
D13*
X209500000Y-104515000D03*
D12*
G36*
X209686958Y-105190710D02*
X209701276Y-105192834D01*
X209715317Y-105196351D01*
X209728946Y-105201228D01*
X209742031Y-105207417D01*
X209754447Y-105214858D01*
X209766073Y-105223481D01*
X209776798Y-105233202D01*
X209786519Y-105243927D01*
X209795142Y-105255553D01*
X209802583Y-105267969D01*
X209808772Y-105281054D01*
X209813649Y-105294683D01*
X209817166Y-105308724D01*
X209819290Y-105323042D01*
X209820000Y-105337500D01*
X209820000Y-105632500D01*
X209819290Y-105646958D01*
X209817166Y-105661276D01*
X209813649Y-105675317D01*
X209808772Y-105688946D01*
X209802583Y-105702031D01*
X209795142Y-105714447D01*
X209786519Y-105726073D01*
X209776798Y-105736798D01*
X209766073Y-105746519D01*
X209754447Y-105755142D01*
X209742031Y-105762583D01*
X209728946Y-105768772D01*
X209715317Y-105773649D01*
X209701276Y-105777166D01*
X209686958Y-105779290D01*
X209672500Y-105780000D01*
X209327500Y-105780000D01*
X209313042Y-105779290D01*
X209298724Y-105777166D01*
X209284683Y-105773649D01*
X209271054Y-105768772D01*
X209257969Y-105762583D01*
X209245553Y-105755142D01*
X209233927Y-105746519D01*
X209223202Y-105736798D01*
X209213481Y-105726073D01*
X209204858Y-105714447D01*
X209197417Y-105702031D01*
X209191228Y-105688946D01*
X209186351Y-105675317D01*
X209182834Y-105661276D01*
X209180710Y-105646958D01*
X209180000Y-105632500D01*
X209180000Y-105337500D01*
X209180710Y-105323042D01*
X209182834Y-105308724D01*
X209186351Y-105294683D01*
X209191228Y-105281054D01*
X209197417Y-105267969D01*
X209204858Y-105255553D01*
X209213481Y-105243927D01*
X209223202Y-105233202D01*
X209233927Y-105223481D01*
X209245553Y-105214858D01*
X209257969Y-105207417D01*
X209271054Y-105201228D01*
X209284683Y-105196351D01*
X209298724Y-105192834D01*
X209313042Y-105190710D01*
X209327500Y-105190000D01*
X209672500Y-105190000D01*
X209686958Y-105190710D01*
X209686958Y-105190710D01*
G37*
D13*
X209500000Y-105485000D03*
G04 #@! TD*
D12*
G04 #@! TO.C,C10*
G36*
X234936958Y-111720710D02*
X234951276Y-111722834D01*
X234965317Y-111726351D01*
X234978946Y-111731228D01*
X234992031Y-111737417D01*
X235004447Y-111744858D01*
X235016073Y-111753481D01*
X235026798Y-111763202D01*
X235036519Y-111773927D01*
X235045142Y-111785553D01*
X235052583Y-111797969D01*
X235058772Y-111811054D01*
X235063649Y-111824683D01*
X235067166Y-111838724D01*
X235069290Y-111853042D01*
X235070000Y-111867500D01*
X235070000Y-112162500D01*
X235069290Y-112176958D01*
X235067166Y-112191276D01*
X235063649Y-112205317D01*
X235058772Y-112218946D01*
X235052583Y-112232031D01*
X235045142Y-112244447D01*
X235036519Y-112256073D01*
X235026798Y-112266798D01*
X235016073Y-112276519D01*
X235004447Y-112285142D01*
X234992031Y-112292583D01*
X234978946Y-112298772D01*
X234965317Y-112303649D01*
X234951276Y-112307166D01*
X234936958Y-112309290D01*
X234922500Y-112310000D01*
X234577500Y-112310000D01*
X234563042Y-112309290D01*
X234548724Y-112307166D01*
X234534683Y-112303649D01*
X234521054Y-112298772D01*
X234507969Y-112292583D01*
X234495553Y-112285142D01*
X234483927Y-112276519D01*
X234473202Y-112266798D01*
X234463481Y-112256073D01*
X234454858Y-112244447D01*
X234447417Y-112232031D01*
X234441228Y-112218946D01*
X234436351Y-112205317D01*
X234432834Y-112191276D01*
X234430710Y-112176958D01*
X234430000Y-112162500D01*
X234430000Y-111867500D01*
X234430710Y-111853042D01*
X234432834Y-111838724D01*
X234436351Y-111824683D01*
X234441228Y-111811054D01*
X234447417Y-111797969D01*
X234454858Y-111785553D01*
X234463481Y-111773927D01*
X234473202Y-111763202D01*
X234483927Y-111753481D01*
X234495553Y-111744858D01*
X234507969Y-111737417D01*
X234521054Y-111731228D01*
X234534683Y-111726351D01*
X234548724Y-111722834D01*
X234563042Y-111720710D01*
X234577500Y-111720000D01*
X234922500Y-111720000D01*
X234936958Y-111720710D01*
X234936958Y-111720710D01*
G37*
D13*
X234750000Y-112015000D03*
D12*
G36*
X234936958Y-112690710D02*
X234951276Y-112692834D01*
X234965317Y-112696351D01*
X234978946Y-112701228D01*
X234992031Y-112707417D01*
X235004447Y-112714858D01*
X235016073Y-112723481D01*
X235026798Y-112733202D01*
X235036519Y-112743927D01*
X235045142Y-112755553D01*
X235052583Y-112767969D01*
X235058772Y-112781054D01*
X235063649Y-112794683D01*
X235067166Y-112808724D01*
X235069290Y-112823042D01*
X235070000Y-112837500D01*
X235070000Y-113132500D01*
X235069290Y-113146958D01*
X235067166Y-113161276D01*
X235063649Y-113175317D01*
X235058772Y-113188946D01*
X235052583Y-113202031D01*
X235045142Y-113214447D01*
X235036519Y-113226073D01*
X235026798Y-113236798D01*
X235016073Y-113246519D01*
X235004447Y-113255142D01*
X234992031Y-113262583D01*
X234978946Y-113268772D01*
X234965317Y-113273649D01*
X234951276Y-113277166D01*
X234936958Y-113279290D01*
X234922500Y-113280000D01*
X234577500Y-113280000D01*
X234563042Y-113279290D01*
X234548724Y-113277166D01*
X234534683Y-113273649D01*
X234521054Y-113268772D01*
X234507969Y-113262583D01*
X234495553Y-113255142D01*
X234483927Y-113246519D01*
X234473202Y-113236798D01*
X234463481Y-113226073D01*
X234454858Y-113214447D01*
X234447417Y-113202031D01*
X234441228Y-113188946D01*
X234436351Y-113175317D01*
X234432834Y-113161276D01*
X234430710Y-113146958D01*
X234430000Y-113132500D01*
X234430000Y-112837500D01*
X234430710Y-112823042D01*
X234432834Y-112808724D01*
X234436351Y-112794683D01*
X234441228Y-112781054D01*
X234447417Y-112767969D01*
X234454858Y-112755553D01*
X234463481Y-112743927D01*
X234473202Y-112733202D01*
X234483927Y-112723481D01*
X234495553Y-112714858D01*
X234507969Y-112707417D01*
X234521054Y-112701228D01*
X234534683Y-112696351D01*
X234548724Y-112692834D01*
X234563042Y-112690710D01*
X234577500Y-112690000D01*
X234922500Y-112690000D01*
X234936958Y-112690710D01*
X234936958Y-112690710D01*
G37*
D13*
X234750000Y-112985000D03*
G04 #@! TD*
D12*
G04 #@! TO.C,C11*
G36*
X215686958Y-105190710D02*
X215701276Y-105192834D01*
X215715317Y-105196351D01*
X215728946Y-105201228D01*
X215742031Y-105207417D01*
X215754447Y-105214858D01*
X215766073Y-105223481D01*
X215776798Y-105233202D01*
X215786519Y-105243927D01*
X215795142Y-105255553D01*
X215802583Y-105267969D01*
X215808772Y-105281054D01*
X215813649Y-105294683D01*
X215817166Y-105308724D01*
X215819290Y-105323042D01*
X215820000Y-105337500D01*
X215820000Y-105632500D01*
X215819290Y-105646958D01*
X215817166Y-105661276D01*
X215813649Y-105675317D01*
X215808772Y-105688946D01*
X215802583Y-105702031D01*
X215795142Y-105714447D01*
X215786519Y-105726073D01*
X215776798Y-105736798D01*
X215766073Y-105746519D01*
X215754447Y-105755142D01*
X215742031Y-105762583D01*
X215728946Y-105768772D01*
X215715317Y-105773649D01*
X215701276Y-105777166D01*
X215686958Y-105779290D01*
X215672500Y-105780000D01*
X215327500Y-105780000D01*
X215313042Y-105779290D01*
X215298724Y-105777166D01*
X215284683Y-105773649D01*
X215271054Y-105768772D01*
X215257969Y-105762583D01*
X215245553Y-105755142D01*
X215233927Y-105746519D01*
X215223202Y-105736798D01*
X215213481Y-105726073D01*
X215204858Y-105714447D01*
X215197417Y-105702031D01*
X215191228Y-105688946D01*
X215186351Y-105675317D01*
X215182834Y-105661276D01*
X215180710Y-105646958D01*
X215180000Y-105632500D01*
X215180000Y-105337500D01*
X215180710Y-105323042D01*
X215182834Y-105308724D01*
X215186351Y-105294683D01*
X215191228Y-105281054D01*
X215197417Y-105267969D01*
X215204858Y-105255553D01*
X215213481Y-105243927D01*
X215223202Y-105233202D01*
X215233927Y-105223481D01*
X215245553Y-105214858D01*
X215257969Y-105207417D01*
X215271054Y-105201228D01*
X215284683Y-105196351D01*
X215298724Y-105192834D01*
X215313042Y-105190710D01*
X215327500Y-105190000D01*
X215672500Y-105190000D01*
X215686958Y-105190710D01*
X215686958Y-105190710D01*
G37*
D13*
X215500000Y-105485000D03*
D12*
G36*
X215686958Y-104220710D02*
X215701276Y-104222834D01*
X215715317Y-104226351D01*
X215728946Y-104231228D01*
X215742031Y-104237417D01*
X215754447Y-104244858D01*
X215766073Y-104253481D01*
X215776798Y-104263202D01*
X215786519Y-104273927D01*
X215795142Y-104285553D01*
X215802583Y-104297969D01*
X215808772Y-104311054D01*
X215813649Y-104324683D01*
X215817166Y-104338724D01*
X215819290Y-104353042D01*
X215820000Y-104367500D01*
X215820000Y-104662500D01*
X215819290Y-104676958D01*
X215817166Y-104691276D01*
X215813649Y-104705317D01*
X215808772Y-104718946D01*
X215802583Y-104732031D01*
X215795142Y-104744447D01*
X215786519Y-104756073D01*
X215776798Y-104766798D01*
X215766073Y-104776519D01*
X215754447Y-104785142D01*
X215742031Y-104792583D01*
X215728946Y-104798772D01*
X215715317Y-104803649D01*
X215701276Y-104807166D01*
X215686958Y-104809290D01*
X215672500Y-104810000D01*
X215327500Y-104810000D01*
X215313042Y-104809290D01*
X215298724Y-104807166D01*
X215284683Y-104803649D01*
X215271054Y-104798772D01*
X215257969Y-104792583D01*
X215245553Y-104785142D01*
X215233927Y-104776519D01*
X215223202Y-104766798D01*
X215213481Y-104756073D01*
X215204858Y-104744447D01*
X215197417Y-104732031D01*
X215191228Y-104718946D01*
X215186351Y-104705317D01*
X215182834Y-104691276D01*
X215180710Y-104676958D01*
X215180000Y-104662500D01*
X215180000Y-104367500D01*
X215180710Y-104353042D01*
X215182834Y-104338724D01*
X215186351Y-104324683D01*
X215191228Y-104311054D01*
X215197417Y-104297969D01*
X215204858Y-104285553D01*
X215213481Y-104273927D01*
X215223202Y-104263202D01*
X215233927Y-104253481D01*
X215245553Y-104244858D01*
X215257969Y-104237417D01*
X215271054Y-104231228D01*
X215284683Y-104226351D01*
X215298724Y-104222834D01*
X215313042Y-104220710D01*
X215327500Y-104220000D01*
X215672500Y-104220000D01*
X215686958Y-104220710D01*
X215686958Y-104220710D01*
G37*
D13*
X215500000Y-104515000D03*
G04 #@! TD*
D12*
G04 #@! TO.C,C12*
G36*
X229436958Y-111720710D02*
X229451276Y-111722834D01*
X229465317Y-111726351D01*
X229478946Y-111731228D01*
X229492031Y-111737417D01*
X229504447Y-111744858D01*
X229516073Y-111753481D01*
X229526798Y-111763202D01*
X229536519Y-111773927D01*
X229545142Y-111785553D01*
X229552583Y-111797969D01*
X229558772Y-111811054D01*
X229563649Y-111824683D01*
X229567166Y-111838724D01*
X229569290Y-111853042D01*
X229570000Y-111867500D01*
X229570000Y-112162500D01*
X229569290Y-112176958D01*
X229567166Y-112191276D01*
X229563649Y-112205317D01*
X229558772Y-112218946D01*
X229552583Y-112232031D01*
X229545142Y-112244447D01*
X229536519Y-112256073D01*
X229526798Y-112266798D01*
X229516073Y-112276519D01*
X229504447Y-112285142D01*
X229492031Y-112292583D01*
X229478946Y-112298772D01*
X229465317Y-112303649D01*
X229451276Y-112307166D01*
X229436958Y-112309290D01*
X229422500Y-112310000D01*
X229077500Y-112310000D01*
X229063042Y-112309290D01*
X229048724Y-112307166D01*
X229034683Y-112303649D01*
X229021054Y-112298772D01*
X229007969Y-112292583D01*
X228995553Y-112285142D01*
X228983927Y-112276519D01*
X228973202Y-112266798D01*
X228963481Y-112256073D01*
X228954858Y-112244447D01*
X228947417Y-112232031D01*
X228941228Y-112218946D01*
X228936351Y-112205317D01*
X228932834Y-112191276D01*
X228930710Y-112176958D01*
X228930000Y-112162500D01*
X228930000Y-111867500D01*
X228930710Y-111853042D01*
X228932834Y-111838724D01*
X228936351Y-111824683D01*
X228941228Y-111811054D01*
X228947417Y-111797969D01*
X228954858Y-111785553D01*
X228963481Y-111773927D01*
X228973202Y-111763202D01*
X228983927Y-111753481D01*
X228995553Y-111744858D01*
X229007969Y-111737417D01*
X229021054Y-111731228D01*
X229034683Y-111726351D01*
X229048724Y-111722834D01*
X229063042Y-111720710D01*
X229077500Y-111720000D01*
X229422500Y-111720000D01*
X229436958Y-111720710D01*
X229436958Y-111720710D01*
G37*
D13*
X229250000Y-112015000D03*
D12*
G36*
X229436958Y-112690710D02*
X229451276Y-112692834D01*
X229465317Y-112696351D01*
X229478946Y-112701228D01*
X229492031Y-112707417D01*
X229504447Y-112714858D01*
X229516073Y-112723481D01*
X229526798Y-112733202D01*
X229536519Y-112743927D01*
X229545142Y-112755553D01*
X229552583Y-112767969D01*
X229558772Y-112781054D01*
X229563649Y-112794683D01*
X229567166Y-112808724D01*
X229569290Y-112823042D01*
X229570000Y-112837500D01*
X229570000Y-113132500D01*
X229569290Y-113146958D01*
X229567166Y-113161276D01*
X229563649Y-113175317D01*
X229558772Y-113188946D01*
X229552583Y-113202031D01*
X229545142Y-113214447D01*
X229536519Y-113226073D01*
X229526798Y-113236798D01*
X229516073Y-113246519D01*
X229504447Y-113255142D01*
X229492031Y-113262583D01*
X229478946Y-113268772D01*
X229465317Y-113273649D01*
X229451276Y-113277166D01*
X229436958Y-113279290D01*
X229422500Y-113280000D01*
X229077500Y-113280000D01*
X229063042Y-113279290D01*
X229048724Y-113277166D01*
X229034683Y-113273649D01*
X229021054Y-113268772D01*
X229007969Y-113262583D01*
X228995553Y-113255142D01*
X228983927Y-113246519D01*
X228973202Y-113236798D01*
X228963481Y-113226073D01*
X228954858Y-113214447D01*
X228947417Y-113202031D01*
X228941228Y-113188946D01*
X228936351Y-113175317D01*
X228932834Y-113161276D01*
X228930710Y-113146958D01*
X228930000Y-113132500D01*
X228930000Y-112837500D01*
X228930710Y-112823042D01*
X228932834Y-112808724D01*
X228936351Y-112794683D01*
X228941228Y-112781054D01*
X228947417Y-112767969D01*
X228954858Y-112755553D01*
X228963481Y-112743927D01*
X228973202Y-112733202D01*
X228983927Y-112723481D01*
X228995553Y-112714858D01*
X229007969Y-112707417D01*
X229021054Y-112701228D01*
X229034683Y-112696351D01*
X229048724Y-112692834D01*
X229063042Y-112690710D01*
X229077500Y-112690000D01*
X229422500Y-112690000D01*
X229436958Y-112690710D01*
X229436958Y-112690710D01*
G37*
D13*
X229250000Y-112985000D03*
G04 #@! TD*
D12*
G04 #@! TO.C,C13*
G36*
X225646958Y-93180710D02*
X225661276Y-93182834D01*
X225675317Y-93186351D01*
X225688946Y-93191228D01*
X225702031Y-93197417D01*
X225714447Y-93204858D01*
X225726073Y-93213481D01*
X225736798Y-93223202D01*
X225746519Y-93233927D01*
X225755142Y-93245553D01*
X225762583Y-93257969D01*
X225768772Y-93271054D01*
X225773649Y-93284683D01*
X225777166Y-93298724D01*
X225779290Y-93313042D01*
X225780000Y-93327500D01*
X225780000Y-93672500D01*
X225779290Y-93686958D01*
X225777166Y-93701276D01*
X225773649Y-93715317D01*
X225768772Y-93728946D01*
X225762583Y-93742031D01*
X225755142Y-93754447D01*
X225746519Y-93766073D01*
X225736798Y-93776798D01*
X225726073Y-93786519D01*
X225714447Y-93795142D01*
X225702031Y-93802583D01*
X225688946Y-93808772D01*
X225675317Y-93813649D01*
X225661276Y-93817166D01*
X225646958Y-93819290D01*
X225632500Y-93820000D01*
X225337500Y-93820000D01*
X225323042Y-93819290D01*
X225308724Y-93817166D01*
X225294683Y-93813649D01*
X225281054Y-93808772D01*
X225267969Y-93802583D01*
X225255553Y-93795142D01*
X225243927Y-93786519D01*
X225233202Y-93776798D01*
X225223481Y-93766073D01*
X225214858Y-93754447D01*
X225207417Y-93742031D01*
X225201228Y-93728946D01*
X225196351Y-93715317D01*
X225192834Y-93701276D01*
X225190710Y-93686958D01*
X225190000Y-93672500D01*
X225190000Y-93327500D01*
X225190710Y-93313042D01*
X225192834Y-93298724D01*
X225196351Y-93284683D01*
X225201228Y-93271054D01*
X225207417Y-93257969D01*
X225214858Y-93245553D01*
X225223481Y-93233927D01*
X225233202Y-93223202D01*
X225243927Y-93213481D01*
X225255553Y-93204858D01*
X225267969Y-93197417D01*
X225281054Y-93191228D01*
X225294683Y-93186351D01*
X225308724Y-93182834D01*
X225323042Y-93180710D01*
X225337500Y-93180000D01*
X225632500Y-93180000D01*
X225646958Y-93180710D01*
X225646958Y-93180710D01*
G37*
D13*
X225485000Y-93500000D03*
D12*
G36*
X224676958Y-93180710D02*
X224691276Y-93182834D01*
X224705317Y-93186351D01*
X224718946Y-93191228D01*
X224732031Y-93197417D01*
X224744447Y-93204858D01*
X224756073Y-93213481D01*
X224766798Y-93223202D01*
X224776519Y-93233927D01*
X224785142Y-93245553D01*
X224792583Y-93257969D01*
X224798772Y-93271054D01*
X224803649Y-93284683D01*
X224807166Y-93298724D01*
X224809290Y-93313042D01*
X224810000Y-93327500D01*
X224810000Y-93672500D01*
X224809290Y-93686958D01*
X224807166Y-93701276D01*
X224803649Y-93715317D01*
X224798772Y-93728946D01*
X224792583Y-93742031D01*
X224785142Y-93754447D01*
X224776519Y-93766073D01*
X224766798Y-93776798D01*
X224756073Y-93786519D01*
X224744447Y-93795142D01*
X224732031Y-93802583D01*
X224718946Y-93808772D01*
X224705317Y-93813649D01*
X224691276Y-93817166D01*
X224676958Y-93819290D01*
X224662500Y-93820000D01*
X224367500Y-93820000D01*
X224353042Y-93819290D01*
X224338724Y-93817166D01*
X224324683Y-93813649D01*
X224311054Y-93808772D01*
X224297969Y-93802583D01*
X224285553Y-93795142D01*
X224273927Y-93786519D01*
X224263202Y-93776798D01*
X224253481Y-93766073D01*
X224244858Y-93754447D01*
X224237417Y-93742031D01*
X224231228Y-93728946D01*
X224226351Y-93715317D01*
X224222834Y-93701276D01*
X224220710Y-93686958D01*
X224220000Y-93672500D01*
X224220000Y-93327500D01*
X224220710Y-93313042D01*
X224222834Y-93298724D01*
X224226351Y-93284683D01*
X224231228Y-93271054D01*
X224237417Y-93257969D01*
X224244858Y-93245553D01*
X224253481Y-93233927D01*
X224263202Y-93223202D01*
X224273927Y-93213481D01*
X224285553Y-93204858D01*
X224297969Y-93197417D01*
X224311054Y-93191228D01*
X224324683Y-93186351D01*
X224338724Y-93182834D01*
X224353042Y-93180710D01*
X224367500Y-93180000D01*
X224662500Y-93180000D01*
X224676958Y-93180710D01*
X224676958Y-93180710D01*
G37*
D13*
X224515000Y-93500000D03*
G04 #@! TD*
D12*
G04 #@! TO.C,C22*
G36*
X227516958Y-118300710D02*
X227531276Y-118302834D01*
X227545317Y-118306351D01*
X227558946Y-118311228D01*
X227572031Y-118317417D01*
X227584447Y-118324858D01*
X227596073Y-118333481D01*
X227606798Y-118343202D01*
X227616519Y-118353927D01*
X227625142Y-118365553D01*
X227632583Y-118377969D01*
X227638772Y-118391054D01*
X227643649Y-118404683D01*
X227647166Y-118418724D01*
X227649290Y-118433042D01*
X227650000Y-118447500D01*
X227650000Y-118742500D01*
X227649290Y-118756958D01*
X227647166Y-118771276D01*
X227643649Y-118785317D01*
X227638772Y-118798946D01*
X227632583Y-118812031D01*
X227625142Y-118824447D01*
X227616519Y-118836073D01*
X227606798Y-118846798D01*
X227596073Y-118856519D01*
X227584447Y-118865142D01*
X227572031Y-118872583D01*
X227558946Y-118878772D01*
X227545317Y-118883649D01*
X227531276Y-118887166D01*
X227516958Y-118889290D01*
X227502500Y-118890000D01*
X227157500Y-118890000D01*
X227143042Y-118889290D01*
X227128724Y-118887166D01*
X227114683Y-118883649D01*
X227101054Y-118878772D01*
X227087969Y-118872583D01*
X227075553Y-118865142D01*
X227063927Y-118856519D01*
X227053202Y-118846798D01*
X227043481Y-118836073D01*
X227034858Y-118824447D01*
X227027417Y-118812031D01*
X227021228Y-118798946D01*
X227016351Y-118785317D01*
X227012834Y-118771276D01*
X227010710Y-118756958D01*
X227010000Y-118742500D01*
X227010000Y-118447500D01*
X227010710Y-118433042D01*
X227012834Y-118418724D01*
X227016351Y-118404683D01*
X227021228Y-118391054D01*
X227027417Y-118377969D01*
X227034858Y-118365553D01*
X227043481Y-118353927D01*
X227053202Y-118343202D01*
X227063927Y-118333481D01*
X227075553Y-118324858D01*
X227087969Y-118317417D01*
X227101054Y-118311228D01*
X227114683Y-118306351D01*
X227128724Y-118302834D01*
X227143042Y-118300710D01*
X227157500Y-118300000D01*
X227502500Y-118300000D01*
X227516958Y-118300710D01*
X227516958Y-118300710D01*
G37*
D13*
X227330000Y-118595000D03*
D12*
G36*
X227516958Y-117330710D02*
X227531276Y-117332834D01*
X227545317Y-117336351D01*
X227558946Y-117341228D01*
X227572031Y-117347417D01*
X227584447Y-117354858D01*
X227596073Y-117363481D01*
X227606798Y-117373202D01*
X227616519Y-117383927D01*
X227625142Y-117395553D01*
X227632583Y-117407969D01*
X227638772Y-117421054D01*
X227643649Y-117434683D01*
X227647166Y-117448724D01*
X227649290Y-117463042D01*
X227650000Y-117477500D01*
X227650000Y-117772500D01*
X227649290Y-117786958D01*
X227647166Y-117801276D01*
X227643649Y-117815317D01*
X227638772Y-117828946D01*
X227632583Y-117842031D01*
X227625142Y-117854447D01*
X227616519Y-117866073D01*
X227606798Y-117876798D01*
X227596073Y-117886519D01*
X227584447Y-117895142D01*
X227572031Y-117902583D01*
X227558946Y-117908772D01*
X227545317Y-117913649D01*
X227531276Y-117917166D01*
X227516958Y-117919290D01*
X227502500Y-117920000D01*
X227157500Y-117920000D01*
X227143042Y-117919290D01*
X227128724Y-117917166D01*
X227114683Y-117913649D01*
X227101054Y-117908772D01*
X227087969Y-117902583D01*
X227075553Y-117895142D01*
X227063927Y-117886519D01*
X227053202Y-117876798D01*
X227043481Y-117866073D01*
X227034858Y-117854447D01*
X227027417Y-117842031D01*
X227021228Y-117828946D01*
X227016351Y-117815317D01*
X227012834Y-117801276D01*
X227010710Y-117786958D01*
X227010000Y-117772500D01*
X227010000Y-117477500D01*
X227010710Y-117463042D01*
X227012834Y-117448724D01*
X227016351Y-117434683D01*
X227021228Y-117421054D01*
X227027417Y-117407969D01*
X227034858Y-117395553D01*
X227043481Y-117383927D01*
X227053202Y-117373202D01*
X227063927Y-117363481D01*
X227075553Y-117354858D01*
X227087969Y-117347417D01*
X227101054Y-117341228D01*
X227114683Y-117336351D01*
X227128724Y-117332834D01*
X227143042Y-117330710D01*
X227157500Y-117330000D01*
X227502500Y-117330000D01*
X227516958Y-117330710D01*
X227516958Y-117330710D01*
G37*
D13*
X227330000Y-117625000D03*
G04 #@! TD*
D12*
G04 #@! TO.C,C23*
G36*
X204186958Y-118190710D02*
X204201276Y-118192834D01*
X204215317Y-118196351D01*
X204228946Y-118201228D01*
X204242031Y-118207417D01*
X204254447Y-118214858D01*
X204266073Y-118223481D01*
X204276798Y-118233202D01*
X204286519Y-118243927D01*
X204295142Y-118255553D01*
X204302583Y-118267969D01*
X204308772Y-118281054D01*
X204313649Y-118294683D01*
X204317166Y-118308724D01*
X204319290Y-118323042D01*
X204320000Y-118337500D01*
X204320000Y-118632500D01*
X204319290Y-118646958D01*
X204317166Y-118661276D01*
X204313649Y-118675317D01*
X204308772Y-118688946D01*
X204302583Y-118702031D01*
X204295142Y-118714447D01*
X204286519Y-118726073D01*
X204276798Y-118736798D01*
X204266073Y-118746519D01*
X204254447Y-118755142D01*
X204242031Y-118762583D01*
X204228946Y-118768772D01*
X204215317Y-118773649D01*
X204201276Y-118777166D01*
X204186958Y-118779290D01*
X204172500Y-118780000D01*
X203827500Y-118780000D01*
X203813042Y-118779290D01*
X203798724Y-118777166D01*
X203784683Y-118773649D01*
X203771054Y-118768772D01*
X203757969Y-118762583D01*
X203745553Y-118755142D01*
X203733927Y-118746519D01*
X203723202Y-118736798D01*
X203713481Y-118726073D01*
X203704858Y-118714447D01*
X203697417Y-118702031D01*
X203691228Y-118688946D01*
X203686351Y-118675317D01*
X203682834Y-118661276D01*
X203680710Y-118646958D01*
X203680000Y-118632500D01*
X203680000Y-118337500D01*
X203680710Y-118323042D01*
X203682834Y-118308724D01*
X203686351Y-118294683D01*
X203691228Y-118281054D01*
X203697417Y-118267969D01*
X203704858Y-118255553D01*
X203713481Y-118243927D01*
X203723202Y-118233202D01*
X203733927Y-118223481D01*
X203745553Y-118214858D01*
X203757969Y-118207417D01*
X203771054Y-118201228D01*
X203784683Y-118196351D01*
X203798724Y-118192834D01*
X203813042Y-118190710D01*
X203827500Y-118190000D01*
X204172500Y-118190000D01*
X204186958Y-118190710D01*
X204186958Y-118190710D01*
G37*
D13*
X204000000Y-118485000D03*
D12*
G36*
X204186958Y-117220710D02*
X204201276Y-117222834D01*
X204215317Y-117226351D01*
X204228946Y-117231228D01*
X204242031Y-117237417D01*
X204254447Y-117244858D01*
X204266073Y-117253481D01*
X204276798Y-117263202D01*
X204286519Y-117273927D01*
X204295142Y-117285553D01*
X204302583Y-117297969D01*
X204308772Y-117311054D01*
X204313649Y-117324683D01*
X204317166Y-117338724D01*
X204319290Y-117353042D01*
X204320000Y-117367500D01*
X204320000Y-117662500D01*
X204319290Y-117676958D01*
X204317166Y-117691276D01*
X204313649Y-117705317D01*
X204308772Y-117718946D01*
X204302583Y-117732031D01*
X204295142Y-117744447D01*
X204286519Y-117756073D01*
X204276798Y-117766798D01*
X204266073Y-117776519D01*
X204254447Y-117785142D01*
X204242031Y-117792583D01*
X204228946Y-117798772D01*
X204215317Y-117803649D01*
X204201276Y-117807166D01*
X204186958Y-117809290D01*
X204172500Y-117810000D01*
X203827500Y-117810000D01*
X203813042Y-117809290D01*
X203798724Y-117807166D01*
X203784683Y-117803649D01*
X203771054Y-117798772D01*
X203757969Y-117792583D01*
X203745553Y-117785142D01*
X203733927Y-117776519D01*
X203723202Y-117766798D01*
X203713481Y-117756073D01*
X203704858Y-117744447D01*
X203697417Y-117732031D01*
X203691228Y-117718946D01*
X203686351Y-117705317D01*
X203682834Y-117691276D01*
X203680710Y-117676958D01*
X203680000Y-117662500D01*
X203680000Y-117367500D01*
X203680710Y-117353042D01*
X203682834Y-117338724D01*
X203686351Y-117324683D01*
X203691228Y-117311054D01*
X203697417Y-117297969D01*
X203704858Y-117285553D01*
X203713481Y-117273927D01*
X203723202Y-117263202D01*
X203733927Y-117253481D01*
X203745553Y-117244858D01*
X203757969Y-117237417D01*
X203771054Y-117231228D01*
X203784683Y-117226351D01*
X203798724Y-117222834D01*
X203813042Y-117220710D01*
X203827500Y-117220000D01*
X204172500Y-117220000D01*
X204186958Y-117220710D01*
X204186958Y-117220710D01*
G37*
D13*
X204000000Y-117515000D03*
G04 #@! TD*
D12*
G04 #@! TO.C,D1*
G36*
X204205142Y-94301174D02*
X204228803Y-94304684D01*
X204252007Y-94310496D01*
X204274529Y-94318554D01*
X204296153Y-94328782D01*
X204316670Y-94341079D01*
X204335883Y-94355329D01*
X204353607Y-94371393D01*
X204369671Y-94389117D01*
X204383921Y-94408330D01*
X204396218Y-94428847D01*
X204406446Y-94450471D01*
X204414504Y-94472993D01*
X204420316Y-94496197D01*
X204423826Y-94519858D01*
X204425000Y-94543750D01*
X204425000Y-95456250D01*
X204423826Y-95480142D01*
X204420316Y-95503803D01*
X204414504Y-95527007D01*
X204406446Y-95549529D01*
X204396218Y-95571153D01*
X204383921Y-95591670D01*
X204369671Y-95610883D01*
X204353607Y-95628607D01*
X204335883Y-95644671D01*
X204316670Y-95658921D01*
X204296153Y-95671218D01*
X204274529Y-95681446D01*
X204252007Y-95689504D01*
X204228803Y-95695316D01*
X204205142Y-95698826D01*
X204181250Y-95700000D01*
X203693750Y-95700000D01*
X203669858Y-95698826D01*
X203646197Y-95695316D01*
X203622993Y-95689504D01*
X203600471Y-95681446D01*
X203578847Y-95671218D01*
X203558330Y-95658921D01*
X203539117Y-95644671D01*
X203521393Y-95628607D01*
X203505329Y-95610883D01*
X203491079Y-95591670D01*
X203478782Y-95571153D01*
X203468554Y-95549529D01*
X203460496Y-95527007D01*
X203454684Y-95503803D01*
X203451174Y-95480142D01*
X203450000Y-95456250D01*
X203450000Y-94543750D01*
X203451174Y-94519858D01*
X203454684Y-94496197D01*
X203460496Y-94472993D01*
X203468554Y-94450471D01*
X203478782Y-94428847D01*
X203491079Y-94408330D01*
X203505329Y-94389117D01*
X203521393Y-94371393D01*
X203539117Y-94355329D01*
X203558330Y-94341079D01*
X203578847Y-94328782D01*
X203600471Y-94318554D01*
X203622993Y-94310496D01*
X203646197Y-94304684D01*
X203669858Y-94301174D01*
X203693750Y-94300000D01*
X204181250Y-94300000D01*
X204205142Y-94301174D01*
X204205142Y-94301174D01*
G37*
D14*
X203937500Y-95000000D03*
D12*
G36*
X202330142Y-94301174D02*
X202353803Y-94304684D01*
X202377007Y-94310496D01*
X202399529Y-94318554D01*
X202421153Y-94328782D01*
X202441670Y-94341079D01*
X202460883Y-94355329D01*
X202478607Y-94371393D01*
X202494671Y-94389117D01*
X202508921Y-94408330D01*
X202521218Y-94428847D01*
X202531446Y-94450471D01*
X202539504Y-94472993D01*
X202545316Y-94496197D01*
X202548826Y-94519858D01*
X202550000Y-94543750D01*
X202550000Y-95456250D01*
X202548826Y-95480142D01*
X202545316Y-95503803D01*
X202539504Y-95527007D01*
X202531446Y-95549529D01*
X202521218Y-95571153D01*
X202508921Y-95591670D01*
X202494671Y-95610883D01*
X202478607Y-95628607D01*
X202460883Y-95644671D01*
X202441670Y-95658921D01*
X202421153Y-95671218D01*
X202399529Y-95681446D01*
X202377007Y-95689504D01*
X202353803Y-95695316D01*
X202330142Y-95698826D01*
X202306250Y-95700000D01*
X201818750Y-95700000D01*
X201794858Y-95698826D01*
X201771197Y-95695316D01*
X201747993Y-95689504D01*
X201725471Y-95681446D01*
X201703847Y-95671218D01*
X201683330Y-95658921D01*
X201664117Y-95644671D01*
X201646393Y-95628607D01*
X201630329Y-95610883D01*
X201616079Y-95591670D01*
X201603782Y-95571153D01*
X201593554Y-95549529D01*
X201585496Y-95527007D01*
X201579684Y-95503803D01*
X201576174Y-95480142D01*
X201575000Y-95456250D01*
X201575000Y-94543750D01*
X201576174Y-94519858D01*
X201579684Y-94496197D01*
X201585496Y-94472993D01*
X201593554Y-94450471D01*
X201603782Y-94428847D01*
X201616079Y-94408330D01*
X201630329Y-94389117D01*
X201646393Y-94371393D01*
X201664117Y-94355329D01*
X201683330Y-94341079D01*
X201703847Y-94328782D01*
X201725471Y-94318554D01*
X201747993Y-94310496D01*
X201771197Y-94304684D01*
X201794858Y-94301174D01*
X201818750Y-94300000D01*
X202306250Y-94300000D01*
X202330142Y-94301174D01*
X202330142Y-94301174D01*
G37*
D14*
X202062500Y-95000000D03*
G04 #@! TD*
D15*
G04 #@! TO.C,J1*
X201462500Y-106000000D03*
D16*
X204162500Y-104350000D03*
X204162500Y-103700000D03*
X204162500Y-106300000D03*
X204162500Y-105650000D03*
X204162500Y-105000000D03*
D15*
X201462500Y-104000000D03*
G04 #@! TD*
D12*
G04 #@! TO.C,R1*
G36*
X213646958Y-95880710D02*
X213661276Y-95882834D01*
X213675317Y-95886351D01*
X213688946Y-95891228D01*
X213702031Y-95897417D01*
X213714447Y-95904858D01*
X213726073Y-95913481D01*
X213736798Y-95923202D01*
X213746519Y-95933927D01*
X213755142Y-95945553D01*
X213762583Y-95957969D01*
X213768772Y-95971054D01*
X213773649Y-95984683D01*
X213777166Y-95998724D01*
X213779290Y-96013042D01*
X213780000Y-96027500D01*
X213780000Y-96372500D01*
X213779290Y-96386958D01*
X213777166Y-96401276D01*
X213773649Y-96415317D01*
X213768772Y-96428946D01*
X213762583Y-96442031D01*
X213755142Y-96454447D01*
X213746519Y-96466073D01*
X213736798Y-96476798D01*
X213726073Y-96486519D01*
X213714447Y-96495142D01*
X213702031Y-96502583D01*
X213688946Y-96508772D01*
X213675317Y-96513649D01*
X213661276Y-96517166D01*
X213646958Y-96519290D01*
X213632500Y-96520000D01*
X213337500Y-96520000D01*
X213323042Y-96519290D01*
X213308724Y-96517166D01*
X213294683Y-96513649D01*
X213281054Y-96508772D01*
X213267969Y-96502583D01*
X213255553Y-96495142D01*
X213243927Y-96486519D01*
X213233202Y-96476798D01*
X213223481Y-96466073D01*
X213214858Y-96454447D01*
X213207417Y-96442031D01*
X213201228Y-96428946D01*
X213196351Y-96415317D01*
X213192834Y-96401276D01*
X213190710Y-96386958D01*
X213190000Y-96372500D01*
X213190000Y-96027500D01*
X213190710Y-96013042D01*
X213192834Y-95998724D01*
X213196351Y-95984683D01*
X213201228Y-95971054D01*
X213207417Y-95957969D01*
X213214858Y-95945553D01*
X213223481Y-95933927D01*
X213233202Y-95923202D01*
X213243927Y-95913481D01*
X213255553Y-95904858D01*
X213267969Y-95897417D01*
X213281054Y-95891228D01*
X213294683Y-95886351D01*
X213308724Y-95882834D01*
X213323042Y-95880710D01*
X213337500Y-95880000D01*
X213632500Y-95880000D01*
X213646958Y-95880710D01*
X213646958Y-95880710D01*
G37*
D13*
X213485000Y-96200000D03*
D12*
G36*
X212676958Y-95880710D02*
X212691276Y-95882834D01*
X212705317Y-95886351D01*
X212718946Y-95891228D01*
X212732031Y-95897417D01*
X212744447Y-95904858D01*
X212756073Y-95913481D01*
X212766798Y-95923202D01*
X212776519Y-95933927D01*
X212785142Y-95945553D01*
X212792583Y-95957969D01*
X212798772Y-95971054D01*
X212803649Y-95984683D01*
X212807166Y-95998724D01*
X212809290Y-96013042D01*
X212810000Y-96027500D01*
X212810000Y-96372500D01*
X212809290Y-96386958D01*
X212807166Y-96401276D01*
X212803649Y-96415317D01*
X212798772Y-96428946D01*
X212792583Y-96442031D01*
X212785142Y-96454447D01*
X212776519Y-96466073D01*
X212766798Y-96476798D01*
X212756073Y-96486519D01*
X212744447Y-96495142D01*
X212732031Y-96502583D01*
X212718946Y-96508772D01*
X212705317Y-96513649D01*
X212691276Y-96517166D01*
X212676958Y-96519290D01*
X212662500Y-96520000D01*
X212367500Y-96520000D01*
X212353042Y-96519290D01*
X212338724Y-96517166D01*
X212324683Y-96513649D01*
X212311054Y-96508772D01*
X212297969Y-96502583D01*
X212285553Y-96495142D01*
X212273927Y-96486519D01*
X212263202Y-96476798D01*
X212253481Y-96466073D01*
X212244858Y-96454447D01*
X212237417Y-96442031D01*
X212231228Y-96428946D01*
X212226351Y-96415317D01*
X212222834Y-96401276D01*
X212220710Y-96386958D01*
X212220000Y-96372500D01*
X212220000Y-96027500D01*
X212220710Y-96013042D01*
X212222834Y-95998724D01*
X212226351Y-95984683D01*
X212231228Y-95971054D01*
X212237417Y-95957969D01*
X212244858Y-95945553D01*
X212253481Y-95933927D01*
X212263202Y-95923202D01*
X212273927Y-95913481D01*
X212285553Y-95904858D01*
X212297969Y-95897417D01*
X212311054Y-95891228D01*
X212324683Y-95886351D01*
X212338724Y-95882834D01*
X212353042Y-95880710D01*
X212367500Y-95880000D01*
X212662500Y-95880000D01*
X212676958Y-95880710D01*
X212676958Y-95880710D01*
G37*
D13*
X212515000Y-96200000D03*
G04 #@! TD*
D12*
G04 #@! TO.C,R2*
G36*
X220091958Y-98880710D02*
X220106276Y-98882834D01*
X220120317Y-98886351D01*
X220133946Y-98891228D01*
X220147031Y-98897417D01*
X220159447Y-98904858D01*
X220171073Y-98913481D01*
X220181798Y-98923202D01*
X220191519Y-98933927D01*
X220200142Y-98945553D01*
X220207583Y-98957969D01*
X220213772Y-98971054D01*
X220218649Y-98984683D01*
X220222166Y-98998724D01*
X220224290Y-99013042D01*
X220225000Y-99027500D01*
X220225000Y-99372500D01*
X220224290Y-99386958D01*
X220222166Y-99401276D01*
X220218649Y-99415317D01*
X220213772Y-99428946D01*
X220207583Y-99442031D01*
X220200142Y-99454447D01*
X220191519Y-99466073D01*
X220181798Y-99476798D01*
X220171073Y-99486519D01*
X220159447Y-99495142D01*
X220147031Y-99502583D01*
X220133946Y-99508772D01*
X220120317Y-99513649D01*
X220106276Y-99517166D01*
X220091958Y-99519290D01*
X220077500Y-99520000D01*
X219782500Y-99520000D01*
X219768042Y-99519290D01*
X219753724Y-99517166D01*
X219739683Y-99513649D01*
X219726054Y-99508772D01*
X219712969Y-99502583D01*
X219700553Y-99495142D01*
X219688927Y-99486519D01*
X219678202Y-99476798D01*
X219668481Y-99466073D01*
X219659858Y-99454447D01*
X219652417Y-99442031D01*
X219646228Y-99428946D01*
X219641351Y-99415317D01*
X219637834Y-99401276D01*
X219635710Y-99386958D01*
X219635000Y-99372500D01*
X219635000Y-99027500D01*
X219635710Y-99013042D01*
X219637834Y-98998724D01*
X219641351Y-98984683D01*
X219646228Y-98971054D01*
X219652417Y-98957969D01*
X219659858Y-98945553D01*
X219668481Y-98933927D01*
X219678202Y-98923202D01*
X219688927Y-98913481D01*
X219700553Y-98904858D01*
X219712969Y-98897417D01*
X219726054Y-98891228D01*
X219739683Y-98886351D01*
X219753724Y-98882834D01*
X219768042Y-98880710D01*
X219782500Y-98880000D01*
X220077500Y-98880000D01*
X220091958Y-98880710D01*
X220091958Y-98880710D01*
G37*
D13*
X219930000Y-99200000D03*
D12*
G36*
X221061958Y-98880710D02*
X221076276Y-98882834D01*
X221090317Y-98886351D01*
X221103946Y-98891228D01*
X221117031Y-98897417D01*
X221129447Y-98904858D01*
X221141073Y-98913481D01*
X221151798Y-98923202D01*
X221161519Y-98933927D01*
X221170142Y-98945553D01*
X221177583Y-98957969D01*
X221183772Y-98971054D01*
X221188649Y-98984683D01*
X221192166Y-98998724D01*
X221194290Y-99013042D01*
X221195000Y-99027500D01*
X221195000Y-99372500D01*
X221194290Y-99386958D01*
X221192166Y-99401276D01*
X221188649Y-99415317D01*
X221183772Y-99428946D01*
X221177583Y-99442031D01*
X221170142Y-99454447D01*
X221161519Y-99466073D01*
X221151798Y-99476798D01*
X221141073Y-99486519D01*
X221129447Y-99495142D01*
X221117031Y-99502583D01*
X221103946Y-99508772D01*
X221090317Y-99513649D01*
X221076276Y-99517166D01*
X221061958Y-99519290D01*
X221047500Y-99520000D01*
X220752500Y-99520000D01*
X220738042Y-99519290D01*
X220723724Y-99517166D01*
X220709683Y-99513649D01*
X220696054Y-99508772D01*
X220682969Y-99502583D01*
X220670553Y-99495142D01*
X220658927Y-99486519D01*
X220648202Y-99476798D01*
X220638481Y-99466073D01*
X220629858Y-99454447D01*
X220622417Y-99442031D01*
X220616228Y-99428946D01*
X220611351Y-99415317D01*
X220607834Y-99401276D01*
X220605710Y-99386958D01*
X220605000Y-99372500D01*
X220605000Y-99027500D01*
X220605710Y-99013042D01*
X220607834Y-98998724D01*
X220611351Y-98984683D01*
X220616228Y-98971054D01*
X220622417Y-98957969D01*
X220629858Y-98945553D01*
X220638481Y-98933927D01*
X220648202Y-98923202D01*
X220658927Y-98913481D01*
X220670553Y-98904858D01*
X220682969Y-98897417D01*
X220696054Y-98891228D01*
X220709683Y-98886351D01*
X220723724Y-98882834D01*
X220738042Y-98880710D01*
X220752500Y-98880000D01*
X221047500Y-98880000D01*
X221061958Y-98880710D01*
X221061958Y-98880710D01*
G37*
D13*
X220900000Y-99200000D03*
G04 #@! TD*
D12*
G04 #@! TO.C,R3*
G36*
X220076958Y-97380710D02*
X220091276Y-97382834D01*
X220105317Y-97386351D01*
X220118946Y-97391228D01*
X220132031Y-97397417D01*
X220144447Y-97404858D01*
X220156073Y-97413481D01*
X220166798Y-97423202D01*
X220176519Y-97433927D01*
X220185142Y-97445553D01*
X220192583Y-97457969D01*
X220198772Y-97471054D01*
X220203649Y-97484683D01*
X220207166Y-97498724D01*
X220209290Y-97513042D01*
X220210000Y-97527500D01*
X220210000Y-97872500D01*
X220209290Y-97886958D01*
X220207166Y-97901276D01*
X220203649Y-97915317D01*
X220198772Y-97928946D01*
X220192583Y-97942031D01*
X220185142Y-97954447D01*
X220176519Y-97966073D01*
X220166798Y-97976798D01*
X220156073Y-97986519D01*
X220144447Y-97995142D01*
X220132031Y-98002583D01*
X220118946Y-98008772D01*
X220105317Y-98013649D01*
X220091276Y-98017166D01*
X220076958Y-98019290D01*
X220062500Y-98020000D01*
X219767500Y-98020000D01*
X219753042Y-98019290D01*
X219738724Y-98017166D01*
X219724683Y-98013649D01*
X219711054Y-98008772D01*
X219697969Y-98002583D01*
X219685553Y-97995142D01*
X219673927Y-97986519D01*
X219663202Y-97976798D01*
X219653481Y-97966073D01*
X219644858Y-97954447D01*
X219637417Y-97942031D01*
X219631228Y-97928946D01*
X219626351Y-97915317D01*
X219622834Y-97901276D01*
X219620710Y-97886958D01*
X219620000Y-97872500D01*
X219620000Y-97527500D01*
X219620710Y-97513042D01*
X219622834Y-97498724D01*
X219626351Y-97484683D01*
X219631228Y-97471054D01*
X219637417Y-97457969D01*
X219644858Y-97445553D01*
X219653481Y-97433927D01*
X219663202Y-97423202D01*
X219673927Y-97413481D01*
X219685553Y-97404858D01*
X219697969Y-97397417D01*
X219711054Y-97391228D01*
X219724683Y-97386351D01*
X219738724Y-97382834D01*
X219753042Y-97380710D01*
X219767500Y-97380000D01*
X220062500Y-97380000D01*
X220076958Y-97380710D01*
X220076958Y-97380710D01*
G37*
D13*
X219915000Y-97700000D03*
D12*
G36*
X221046958Y-97380710D02*
X221061276Y-97382834D01*
X221075317Y-97386351D01*
X221088946Y-97391228D01*
X221102031Y-97397417D01*
X221114447Y-97404858D01*
X221126073Y-97413481D01*
X221136798Y-97423202D01*
X221146519Y-97433927D01*
X221155142Y-97445553D01*
X221162583Y-97457969D01*
X221168772Y-97471054D01*
X221173649Y-97484683D01*
X221177166Y-97498724D01*
X221179290Y-97513042D01*
X221180000Y-97527500D01*
X221180000Y-97872500D01*
X221179290Y-97886958D01*
X221177166Y-97901276D01*
X221173649Y-97915317D01*
X221168772Y-97928946D01*
X221162583Y-97942031D01*
X221155142Y-97954447D01*
X221146519Y-97966073D01*
X221136798Y-97976798D01*
X221126073Y-97986519D01*
X221114447Y-97995142D01*
X221102031Y-98002583D01*
X221088946Y-98008772D01*
X221075317Y-98013649D01*
X221061276Y-98017166D01*
X221046958Y-98019290D01*
X221032500Y-98020000D01*
X220737500Y-98020000D01*
X220723042Y-98019290D01*
X220708724Y-98017166D01*
X220694683Y-98013649D01*
X220681054Y-98008772D01*
X220667969Y-98002583D01*
X220655553Y-97995142D01*
X220643927Y-97986519D01*
X220633202Y-97976798D01*
X220623481Y-97966073D01*
X220614858Y-97954447D01*
X220607417Y-97942031D01*
X220601228Y-97928946D01*
X220596351Y-97915317D01*
X220592834Y-97901276D01*
X220590710Y-97886958D01*
X220590000Y-97872500D01*
X220590000Y-97527500D01*
X220590710Y-97513042D01*
X220592834Y-97498724D01*
X220596351Y-97484683D01*
X220601228Y-97471054D01*
X220607417Y-97457969D01*
X220614858Y-97445553D01*
X220623481Y-97433927D01*
X220633202Y-97423202D01*
X220643927Y-97413481D01*
X220655553Y-97404858D01*
X220667969Y-97397417D01*
X220681054Y-97391228D01*
X220694683Y-97386351D01*
X220708724Y-97382834D01*
X220723042Y-97380710D01*
X220737500Y-97380000D01*
X221032500Y-97380000D01*
X221046958Y-97380710D01*
X221046958Y-97380710D01*
G37*
D13*
X220885000Y-97700000D03*
G04 #@! TD*
D12*
G04 #@! TO.C,R4*
G36*
X231986958Y-99440710D02*
X232001276Y-99442834D01*
X232015317Y-99446351D01*
X232028946Y-99451228D01*
X232042031Y-99457417D01*
X232054447Y-99464858D01*
X232066073Y-99473481D01*
X232076798Y-99483202D01*
X232086519Y-99493927D01*
X232095142Y-99505553D01*
X232102583Y-99517969D01*
X232108772Y-99531054D01*
X232113649Y-99544683D01*
X232117166Y-99558724D01*
X232119290Y-99573042D01*
X232120000Y-99587500D01*
X232120000Y-99882500D01*
X232119290Y-99896958D01*
X232117166Y-99911276D01*
X232113649Y-99925317D01*
X232108772Y-99938946D01*
X232102583Y-99952031D01*
X232095142Y-99964447D01*
X232086519Y-99976073D01*
X232076798Y-99986798D01*
X232066073Y-99996519D01*
X232054447Y-100005142D01*
X232042031Y-100012583D01*
X232028946Y-100018772D01*
X232015317Y-100023649D01*
X232001276Y-100027166D01*
X231986958Y-100029290D01*
X231972500Y-100030000D01*
X231627500Y-100030000D01*
X231613042Y-100029290D01*
X231598724Y-100027166D01*
X231584683Y-100023649D01*
X231571054Y-100018772D01*
X231557969Y-100012583D01*
X231545553Y-100005142D01*
X231533927Y-99996519D01*
X231523202Y-99986798D01*
X231513481Y-99976073D01*
X231504858Y-99964447D01*
X231497417Y-99952031D01*
X231491228Y-99938946D01*
X231486351Y-99925317D01*
X231482834Y-99911276D01*
X231480710Y-99896958D01*
X231480000Y-99882500D01*
X231480000Y-99587500D01*
X231480710Y-99573042D01*
X231482834Y-99558724D01*
X231486351Y-99544683D01*
X231491228Y-99531054D01*
X231497417Y-99517969D01*
X231504858Y-99505553D01*
X231513481Y-99493927D01*
X231523202Y-99483202D01*
X231533927Y-99473481D01*
X231545553Y-99464858D01*
X231557969Y-99457417D01*
X231571054Y-99451228D01*
X231584683Y-99446351D01*
X231598724Y-99442834D01*
X231613042Y-99440710D01*
X231627500Y-99440000D01*
X231972500Y-99440000D01*
X231986958Y-99440710D01*
X231986958Y-99440710D01*
G37*
D13*
X231800000Y-99735000D03*
D12*
G36*
X231986958Y-98470710D02*
X232001276Y-98472834D01*
X232015317Y-98476351D01*
X232028946Y-98481228D01*
X232042031Y-98487417D01*
X232054447Y-98494858D01*
X232066073Y-98503481D01*
X232076798Y-98513202D01*
X232086519Y-98523927D01*
X232095142Y-98535553D01*
X232102583Y-98547969D01*
X232108772Y-98561054D01*
X232113649Y-98574683D01*
X232117166Y-98588724D01*
X232119290Y-98603042D01*
X232120000Y-98617500D01*
X232120000Y-98912500D01*
X232119290Y-98926958D01*
X232117166Y-98941276D01*
X232113649Y-98955317D01*
X232108772Y-98968946D01*
X232102583Y-98982031D01*
X232095142Y-98994447D01*
X232086519Y-99006073D01*
X232076798Y-99016798D01*
X232066073Y-99026519D01*
X232054447Y-99035142D01*
X232042031Y-99042583D01*
X232028946Y-99048772D01*
X232015317Y-99053649D01*
X232001276Y-99057166D01*
X231986958Y-99059290D01*
X231972500Y-99060000D01*
X231627500Y-99060000D01*
X231613042Y-99059290D01*
X231598724Y-99057166D01*
X231584683Y-99053649D01*
X231571054Y-99048772D01*
X231557969Y-99042583D01*
X231545553Y-99035142D01*
X231533927Y-99026519D01*
X231523202Y-99016798D01*
X231513481Y-99006073D01*
X231504858Y-98994447D01*
X231497417Y-98982031D01*
X231491228Y-98968946D01*
X231486351Y-98955317D01*
X231482834Y-98941276D01*
X231480710Y-98926958D01*
X231480000Y-98912500D01*
X231480000Y-98617500D01*
X231480710Y-98603042D01*
X231482834Y-98588724D01*
X231486351Y-98574683D01*
X231491228Y-98561054D01*
X231497417Y-98547969D01*
X231504858Y-98535553D01*
X231513481Y-98523927D01*
X231523202Y-98513202D01*
X231533927Y-98503481D01*
X231545553Y-98494858D01*
X231557969Y-98487417D01*
X231571054Y-98481228D01*
X231584683Y-98476351D01*
X231598724Y-98472834D01*
X231613042Y-98470710D01*
X231627500Y-98470000D01*
X231972500Y-98470000D01*
X231986958Y-98470710D01*
X231986958Y-98470710D01*
G37*
D13*
X231800000Y-98765000D03*
G04 #@! TD*
D12*
G04 #@! TO.C,R5*
G36*
X230886958Y-98470710D02*
X230901276Y-98472834D01*
X230915317Y-98476351D01*
X230928946Y-98481228D01*
X230942031Y-98487417D01*
X230954447Y-98494858D01*
X230966073Y-98503481D01*
X230976798Y-98513202D01*
X230986519Y-98523927D01*
X230995142Y-98535553D01*
X231002583Y-98547969D01*
X231008772Y-98561054D01*
X231013649Y-98574683D01*
X231017166Y-98588724D01*
X231019290Y-98603042D01*
X231020000Y-98617500D01*
X231020000Y-98912500D01*
X231019290Y-98926958D01*
X231017166Y-98941276D01*
X231013649Y-98955317D01*
X231008772Y-98968946D01*
X231002583Y-98982031D01*
X230995142Y-98994447D01*
X230986519Y-99006073D01*
X230976798Y-99016798D01*
X230966073Y-99026519D01*
X230954447Y-99035142D01*
X230942031Y-99042583D01*
X230928946Y-99048772D01*
X230915317Y-99053649D01*
X230901276Y-99057166D01*
X230886958Y-99059290D01*
X230872500Y-99060000D01*
X230527500Y-99060000D01*
X230513042Y-99059290D01*
X230498724Y-99057166D01*
X230484683Y-99053649D01*
X230471054Y-99048772D01*
X230457969Y-99042583D01*
X230445553Y-99035142D01*
X230433927Y-99026519D01*
X230423202Y-99016798D01*
X230413481Y-99006073D01*
X230404858Y-98994447D01*
X230397417Y-98982031D01*
X230391228Y-98968946D01*
X230386351Y-98955317D01*
X230382834Y-98941276D01*
X230380710Y-98926958D01*
X230380000Y-98912500D01*
X230380000Y-98617500D01*
X230380710Y-98603042D01*
X230382834Y-98588724D01*
X230386351Y-98574683D01*
X230391228Y-98561054D01*
X230397417Y-98547969D01*
X230404858Y-98535553D01*
X230413481Y-98523927D01*
X230423202Y-98513202D01*
X230433927Y-98503481D01*
X230445553Y-98494858D01*
X230457969Y-98487417D01*
X230471054Y-98481228D01*
X230484683Y-98476351D01*
X230498724Y-98472834D01*
X230513042Y-98470710D01*
X230527500Y-98470000D01*
X230872500Y-98470000D01*
X230886958Y-98470710D01*
X230886958Y-98470710D01*
G37*
D13*
X230700000Y-98765000D03*
D12*
G36*
X230886958Y-99440710D02*
X230901276Y-99442834D01*
X230915317Y-99446351D01*
X230928946Y-99451228D01*
X230942031Y-99457417D01*
X230954447Y-99464858D01*
X230966073Y-99473481D01*
X230976798Y-99483202D01*
X230986519Y-99493927D01*
X230995142Y-99505553D01*
X231002583Y-99517969D01*
X231008772Y-99531054D01*
X231013649Y-99544683D01*
X231017166Y-99558724D01*
X231019290Y-99573042D01*
X231020000Y-99587500D01*
X231020000Y-99882500D01*
X231019290Y-99896958D01*
X231017166Y-99911276D01*
X231013649Y-99925317D01*
X231008772Y-99938946D01*
X231002583Y-99952031D01*
X230995142Y-99964447D01*
X230986519Y-99976073D01*
X230976798Y-99986798D01*
X230966073Y-99996519D01*
X230954447Y-100005142D01*
X230942031Y-100012583D01*
X230928946Y-100018772D01*
X230915317Y-100023649D01*
X230901276Y-100027166D01*
X230886958Y-100029290D01*
X230872500Y-100030000D01*
X230527500Y-100030000D01*
X230513042Y-100029290D01*
X230498724Y-100027166D01*
X230484683Y-100023649D01*
X230471054Y-100018772D01*
X230457969Y-100012583D01*
X230445553Y-100005142D01*
X230433927Y-99996519D01*
X230423202Y-99986798D01*
X230413481Y-99976073D01*
X230404858Y-99964447D01*
X230397417Y-99952031D01*
X230391228Y-99938946D01*
X230386351Y-99925317D01*
X230382834Y-99911276D01*
X230380710Y-99896958D01*
X230380000Y-99882500D01*
X230380000Y-99587500D01*
X230380710Y-99573042D01*
X230382834Y-99558724D01*
X230386351Y-99544683D01*
X230391228Y-99531054D01*
X230397417Y-99517969D01*
X230404858Y-99505553D01*
X230413481Y-99493927D01*
X230423202Y-99483202D01*
X230433927Y-99473481D01*
X230445553Y-99464858D01*
X230457969Y-99457417D01*
X230471054Y-99451228D01*
X230484683Y-99446351D01*
X230498724Y-99442834D01*
X230513042Y-99440710D01*
X230527500Y-99440000D01*
X230872500Y-99440000D01*
X230886958Y-99440710D01*
X230886958Y-99440710D01*
G37*
D13*
X230700000Y-99735000D03*
G04 #@! TD*
D12*
G04 #@! TO.C,R6*
G36*
X202676958Y-93180710D02*
X202691276Y-93182834D01*
X202705317Y-93186351D01*
X202718946Y-93191228D01*
X202732031Y-93197417D01*
X202744447Y-93204858D01*
X202756073Y-93213481D01*
X202766798Y-93223202D01*
X202776519Y-93233927D01*
X202785142Y-93245553D01*
X202792583Y-93257969D01*
X202798772Y-93271054D01*
X202803649Y-93284683D01*
X202807166Y-93298724D01*
X202809290Y-93313042D01*
X202810000Y-93327500D01*
X202810000Y-93672500D01*
X202809290Y-93686958D01*
X202807166Y-93701276D01*
X202803649Y-93715317D01*
X202798772Y-93728946D01*
X202792583Y-93742031D01*
X202785142Y-93754447D01*
X202776519Y-93766073D01*
X202766798Y-93776798D01*
X202756073Y-93786519D01*
X202744447Y-93795142D01*
X202732031Y-93802583D01*
X202718946Y-93808772D01*
X202705317Y-93813649D01*
X202691276Y-93817166D01*
X202676958Y-93819290D01*
X202662500Y-93820000D01*
X202367500Y-93820000D01*
X202353042Y-93819290D01*
X202338724Y-93817166D01*
X202324683Y-93813649D01*
X202311054Y-93808772D01*
X202297969Y-93802583D01*
X202285553Y-93795142D01*
X202273927Y-93786519D01*
X202263202Y-93776798D01*
X202253481Y-93766073D01*
X202244858Y-93754447D01*
X202237417Y-93742031D01*
X202231228Y-93728946D01*
X202226351Y-93715317D01*
X202222834Y-93701276D01*
X202220710Y-93686958D01*
X202220000Y-93672500D01*
X202220000Y-93327500D01*
X202220710Y-93313042D01*
X202222834Y-93298724D01*
X202226351Y-93284683D01*
X202231228Y-93271054D01*
X202237417Y-93257969D01*
X202244858Y-93245553D01*
X202253481Y-93233927D01*
X202263202Y-93223202D01*
X202273927Y-93213481D01*
X202285553Y-93204858D01*
X202297969Y-93197417D01*
X202311054Y-93191228D01*
X202324683Y-93186351D01*
X202338724Y-93182834D01*
X202353042Y-93180710D01*
X202367500Y-93180000D01*
X202662500Y-93180000D01*
X202676958Y-93180710D01*
X202676958Y-93180710D01*
G37*
D13*
X202515000Y-93500000D03*
D12*
G36*
X203646958Y-93180710D02*
X203661276Y-93182834D01*
X203675317Y-93186351D01*
X203688946Y-93191228D01*
X203702031Y-93197417D01*
X203714447Y-93204858D01*
X203726073Y-93213481D01*
X203736798Y-93223202D01*
X203746519Y-93233927D01*
X203755142Y-93245553D01*
X203762583Y-93257969D01*
X203768772Y-93271054D01*
X203773649Y-93284683D01*
X203777166Y-93298724D01*
X203779290Y-93313042D01*
X203780000Y-93327500D01*
X203780000Y-93672500D01*
X203779290Y-93686958D01*
X203777166Y-93701276D01*
X203773649Y-93715317D01*
X203768772Y-93728946D01*
X203762583Y-93742031D01*
X203755142Y-93754447D01*
X203746519Y-93766073D01*
X203736798Y-93776798D01*
X203726073Y-93786519D01*
X203714447Y-93795142D01*
X203702031Y-93802583D01*
X203688946Y-93808772D01*
X203675317Y-93813649D01*
X203661276Y-93817166D01*
X203646958Y-93819290D01*
X203632500Y-93820000D01*
X203337500Y-93820000D01*
X203323042Y-93819290D01*
X203308724Y-93817166D01*
X203294683Y-93813649D01*
X203281054Y-93808772D01*
X203267969Y-93802583D01*
X203255553Y-93795142D01*
X203243927Y-93786519D01*
X203233202Y-93776798D01*
X203223481Y-93766073D01*
X203214858Y-93754447D01*
X203207417Y-93742031D01*
X203201228Y-93728946D01*
X203196351Y-93715317D01*
X203192834Y-93701276D01*
X203190710Y-93686958D01*
X203190000Y-93672500D01*
X203190000Y-93327500D01*
X203190710Y-93313042D01*
X203192834Y-93298724D01*
X203196351Y-93284683D01*
X203201228Y-93271054D01*
X203207417Y-93257969D01*
X203214858Y-93245553D01*
X203223481Y-93233927D01*
X203233202Y-93223202D01*
X203243927Y-93213481D01*
X203255553Y-93204858D01*
X203267969Y-93197417D01*
X203281054Y-93191228D01*
X203294683Y-93186351D01*
X203308724Y-93182834D01*
X203323042Y-93180710D01*
X203337500Y-93180000D01*
X203632500Y-93180000D01*
X203646958Y-93180710D01*
X203646958Y-93180710D01*
G37*
D13*
X203485000Y-93500000D03*
G04 #@! TD*
D17*
G04 #@! TO.C,U1*
X226500000Y-102400000D03*
X226500000Y-102800000D03*
X226500000Y-103200000D03*
X226500000Y-103600000D03*
X226500000Y-104000000D03*
X226500000Y-104400000D03*
X226500000Y-104800000D03*
X226500000Y-105200000D03*
X226500000Y-105600000D03*
X226500000Y-106000000D03*
X226500000Y-106400000D03*
X226500000Y-106800000D03*
X226500000Y-107200000D03*
X226500000Y-107600000D03*
D18*
X227400000Y-108500000D03*
X227800000Y-108500000D03*
X228200000Y-108500000D03*
X228600000Y-108500000D03*
X229000000Y-108500000D03*
X229400000Y-108500000D03*
X229800000Y-108500000D03*
X230200000Y-108500000D03*
X230600000Y-108500000D03*
X231000000Y-108500000D03*
X231400000Y-108500000D03*
X231800000Y-108500000D03*
X232200000Y-108500000D03*
X232600000Y-108500000D03*
D17*
X233500000Y-107600000D03*
X233500000Y-107200000D03*
X233500000Y-106800000D03*
X233500000Y-106400000D03*
X233500000Y-106000000D03*
X233500000Y-105600000D03*
X233500000Y-105200000D03*
X233500000Y-104800000D03*
X233500000Y-104400000D03*
X233500000Y-104000000D03*
X233500000Y-103600000D03*
X233500000Y-103200000D03*
X233500000Y-102800000D03*
X233500000Y-102400000D03*
D18*
X232600000Y-101500000D03*
X232200000Y-101500000D03*
X231800000Y-101500000D03*
X231400000Y-101500000D03*
X231000000Y-101500000D03*
X230600000Y-101500000D03*
X230200000Y-101500000D03*
X229800000Y-101500000D03*
X229400000Y-101500000D03*
X229000000Y-101500000D03*
X228600000Y-101500000D03*
X228200000Y-101500000D03*
X227800000Y-101500000D03*
X227400000Y-101500000D03*
D19*
X229200000Y-104200000D03*
X229200000Y-105800000D03*
X230800000Y-104200000D03*
X230800000Y-105800000D03*
G04 #@! TD*
D20*
G04 #@! TO.C,U2*
X211150000Y-104050000D03*
X211150000Y-105000000D03*
X211150000Y-105950000D03*
X213850000Y-105950000D03*
X213850000Y-104050000D03*
G04 #@! TD*
D11*
G04 #@! TO.C,SW1*
X215850000Y-86400000D03*
X215850000Y-92600000D03*
X212150000Y-86400000D03*
X212150000Y-92600000D03*
G04 #@! TD*
D12*
G04 #@! TO.C,D2*
G36*
X204205142Y-97301174D02*
X204228803Y-97304684D01*
X204252007Y-97310496D01*
X204274529Y-97318554D01*
X204296153Y-97328782D01*
X204316670Y-97341079D01*
X204335883Y-97355329D01*
X204353607Y-97371393D01*
X204369671Y-97389117D01*
X204383921Y-97408330D01*
X204396218Y-97428847D01*
X204406446Y-97450471D01*
X204414504Y-97472993D01*
X204420316Y-97496197D01*
X204423826Y-97519858D01*
X204425000Y-97543750D01*
X204425000Y-98456250D01*
X204423826Y-98480142D01*
X204420316Y-98503803D01*
X204414504Y-98527007D01*
X204406446Y-98549529D01*
X204396218Y-98571153D01*
X204383921Y-98591670D01*
X204369671Y-98610883D01*
X204353607Y-98628607D01*
X204335883Y-98644671D01*
X204316670Y-98658921D01*
X204296153Y-98671218D01*
X204274529Y-98681446D01*
X204252007Y-98689504D01*
X204228803Y-98695316D01*
X204205142Y-98698826D01*
X204181250Y-98700000D01*
X203693750Y-98700000D01*
X203669858Y-98698826D01*
X203646197Y-98695316D01*
X203622993Y-98689504D01*
X203600471Y-98681446D01*
X203578847Y-98671218D01*
X203558330Y-98658921D01*
X203539117Y-98644671D01*
X203521393Y-98628607D01*
X203505329Y-98610883D01*
X203491079Y-98591670D01*
X203478782Y-98571153D01*
X203468554Y-98549529D01*
X203460496Y-98527007D01*
X203454684Y-98503803D01*
X203451174Y-98480142D01*
X203450000Y-98456250D01*
X203450000Y-97543750D01*
X203451174Y-97519858D01*
X203454684Y-97496197D01*
X203460496Y-97472993D01*
X203468554Y-97450471D01*
X203478782Y-97428847D01*
X203491079Y-97408330D01*
X203505329Y-97389117D01*
X203521393Y-97371393D01*
X203539117Y-97355329D01*
X203558330Y-97341079D01*
X203578847Y-97328782D01*
X203600471Y-97318554D01*
X203622993Y-97310496D01*
X203646197Y-97304684D01*
X203669858Y-97301174D01*
X203693750Y-97300000D01*
X204181250Y-97300000D01*
X204205142Y-97301174D01*
X204205142Y-97301174D01*
G37*
D14*
X203937500Y-98000000D03*
D12*
G36*
X202330142Y-97301174D02*
X202353803Y-97304684D01*
X202377007Y-97310496D01*
X202399529Y-97318554D01*
X202421153Y-97328782D01*
X202441670Y-97341079D01*
X202460883Y-97355329D01*
X202478607Y-97371393D01*
X202494671Y-97389117D01*
X202508921Y-97408330D01*
X202521218Y-97428847D01*
X202531446Y-97450471D01*
X202539504Y-97472993D01*
X202545316Y-97496197D01*
X202548826Y-97519858D01*
X202550000Y-97543750D01*
X202550000Y-98456250D01*
X202548826Y-98480142D01*
X202545316Y-98503803D01*
X202539504Y-98527007D01*
X202531446Y-98549529D01*
X202521218Y-98571153D01*
X202508921Y-98591670D01*
X202494671Y-98610883D01*
X202478607Y-98628607D01*
X202460883Y-98644671D01*
X202441670Y-98658921D01*
X202421153Y-98671218D01*
X202399529Y-98681446D01*
X202377007Y-98689504D01*
X202353803Y-98695316D01*
X202330142Y-98698826D01*
X202306250Y-98700000D01*
X201818750Y-98700000D01*
X201794858Y-98698826D01*
X201771197Y-98695316D01*
X201747993Y-98689504D01*
X201725471Y-98681446D01*
X201703847Y-98671218D01*
X201683330Y-98658921D01*
X201664117Y-98644671D01*
X201646393Y-98628607D01*
X201630329Y-98610883D01*
X201616079Y-98591670D01*
X201603782Y-98571153D01*
X201593554Y-98549529D01*
X201585496Y-98527007D01*
X201579684Y-98503803D01*
X201576174Y-98480142D01*
X201575000Y-98456250D01*
X201575000Y-97543750D01*
X201576174Y-97519858D01*
X201579684Y-97496197D01*
X201585496Y-97472993D01*
X201593554Y-97450471D01*
X201603782Y-97428847D01*
X201616079Y-97408330D01*
X201630329Y-97389117D01*
X201646393Y-97371393D01*
X201664117Y-97355329D01*
X201683330Y-97341079D01*
X201703847Y-97328782D01*
X201725471Y-97318554D01*
X201747993Y-97310496D01*
X201771197Y-97304684D01*
X201794858Y-97301174D01*
X201818750Y-97300000D01*
X202306250Y-97300000D01*
X202330142Y-97301174D01*
X202330142Y-97301174D01*
G37*
D14*
X202062500Y-98000000D03*
G04 #@! TD*
D12*
G04 #@! TO.C,R11*
G36*
X203646958Y-99180710D02*
X203661276Y-99182834D01*
X203675317Y-99186351D01*
X203688946Y-99191228D01*
X203702031Y-99197417D01*
X203714447Y-99204858D01*
X203726073Y-99213481D01*
X203736798Y-99223202D01*
X203746519Y-99233927D01*
X203755142Y-99245553D01*
X203762583Y-99257969D01*
X203768772Y-99271054D01*
X203773649Y-99284683D01*
X203777166Y-99298724D01*
X203779290Y-99313042D01*
X203780000Y-99327500D01*
X203780000Y-99672500D01*
X203779290Y-99686958D01*
X203777166Y-99701276D01*
X203773649Y-99715317D01*
X203768772Y-99728946D01*
X203762583Y-99742031D01*
X203755142Y-99754447D01*
X203746519Y-99766073D01*
X203736798Y-99776798D01*
X203726073Y-99786519D01*
X203714447Y-99795142D01*
X203702031Y-99802583D01*
X203688946Y-99808772D01*
X203675317Y-99813649D01*
X203661276Y-99817166D01*
X203646958Y-99819290D01*
X203632500Y-99820000D01*
X203337500Y-99820000D01*
X203323042Y-99819290D01*
X203308724Y-99817166D01*
X203294683Y-99813649D01*
X203281054Y-99808772D01*
X203267969Y-99802583D01*
X203255553Y-99795142D01*
X203243927Y-99786519D01*
X203233202Y-99776798D01*
X203223481Y-99766073D01*
X203214858Y-99754447D01*
X203207417Y-99742031D01*
X203201228Y-99728946D01*
X203196351Y-99715317D01*
X203192834Y-99701276D01*
X203190710Y-99686958D01*
X203190000Y-99672500D01*
X203190000Y-99327500D01*
X203190710Y-99313042D01*
X203192834Y-99298724D01*
X203196351Y-99284683D01*
X203201228Y-99271054D01*
X203207417Y-99257969D01*
X203214858Y-99245553D01*
X203223481Y-99233927D01*
X203233202Y-99223202D01*
X203243927Y-99213481D01*
X203255553Y-99204858D01*
X203267969Y-99197417D01*
X203281054Y-99191228D01*
X203294683Y-99186351D01*
X203308724Y-99182834D01*
X203323042Y-99180710D01*
X203337500Y-99180000D01*
X203632500Y-99180000D01*
X203646958Y-99180710D01*
X203646958Y-99180710D01*
G37*
D13*
X203485000Y-99500000D03*
D12*
G36*
X202676958Y-99180710D02*
X202691276Y-99182834D01*
X202705317Y-99186351D01*
X202718946Y-99191228D01*
X202732031Y-99197417D01*
X202744447Y-99204858D01*
X202756073Y-99213481D01*
X202766798Y-99223202D01*
X202776519Y-99233927D01*
X202785142Y-99245553D01*
X202792583Y-99257969D01*
X202798772Y-99271054D01*
X202803649Y-99284683D01*
X202807166Y-99298724D01*
X202809290Y-99313042D01*
X202810000Y-99327500D01*
X202810000Y-99672500D01*
X202809290Y-99686958D01*
X202807166Y-99701276D01*
X202803649Y-99715317D01*
X202798772Y-99728946D01*
X202792583Y-99742031D01*
X202785142Y-99754447D01*
X202776519Y-99766073D01*
X202766798Y-99776798D01*
X202756073Y-99786519D01*
X202744447Y-99795142D01*
X202732031Y-99802583D01*
X202718946Y-99808772D01*
X202705317Y-99813649D01*
X202691276Y-99817166D01*
X202676958Y-99819290D01*
X202662500Y-99820000D01*
X202367500Y-99820000D01*
X202353042Y-99819290D01*
X202338724Y-99817166D01*
X202324683Y-99813649D01*
X202311054Y-99808772D01*
X202297969Y-99802583D01*
X202285553Y-99795142D01*
X202273927Y-99786519D01*
X202263202Y-99776798D01*
X202253481Y-99766073D01*
X202244858Y-99754447D01*
X202237417Y-99742031D01*
X202231228Y-99728946D01*
X202226351Y-99715317D01*
X202222834Y-99701276D01*
X202220710Y-99686958D01*
X202220000Y-99672500D01*
X202220000Y-99327500D01*
X202220710Y-99313042D01*
X202222834Y-99298724D01*
X202226351Y-99284683D01*
X202231228Y-99271054D01*
X202237417Y-99257969D01*
X202244858Y-99245553D01*
X202253481Y-99233927D01*
X202263202Y-99223202D01*
X202273927Y-99213481D01*
X202285553Y-99204858D01*
X202297969Y-99197417D01*
X202311054Y-99191228D01*
X202324683Y-99186351D01*
X202338724Y-99182834D01*
X202353042Y-99180710D01*
X202367500Y-99180000D01*
X202662500Y-99180000D01*
X202676958Y-99180710D01*
X202676958Y-99180710D01*
G37*
D13*
X202515000Y-99500000D03*
G04 #@! TD*
D21*
G04 #@! TO.C,Y1*
X233100000Y-111650000D03*
X230900000Y-111650000D03*
X230900000Y-113350000D03*
X233100000Y-113350000D03*
G04 #@! TD*
D12*
G04 #@! TO.C,C24*
G36*
X227389958Y-120378710D02*
X227404276Y-120380834D01*
X227418317Y-120384351D01*
X227431946Y-120389228D01*
X227445031Y-120395417D01*
X227457447Y-120402858D01*
X227469073Y-120411481D01*
X227479798Y-120421202D01*
X227489519Y-120431927D01*
X227498142Y-120443553D01*
X227505583Y-120455969D01*
X227511772Y-120469054D01*
X227516649Y-120482683D01*
X227520166Y-120496724D01*
X227522290Y-120511042D01*
X227523000Y-120525500D01*
X227523000Y-120820500D01*
X227522290Y-120834958D01*
X227520166Y-120849276D01*
X227516649Y-120863317D01*
X227511772Y-120876946D01*
X227505583Y-120890031D01*
X227498142Y-120902447D01*
X227489519Y-120914073D01*
X227479798Y-120924798D01*
X227469073Y-120934519D01*
X227457447Y-120943142D01*
X227445031Y-120950583D01*
X227431946Y-120956772D01*
X227418317Y-120961649D01*
X227404276Y-120965166D01*
X227389958Y-120967290D01*
X227375500Y-120968000D01*
X227030500Y-120968000D01*
X227016042Y-120967290D01*
X227001724Y-120965166D01*
X226987683Y-120961649D01*
X226974054Y-120956772D01*
X226960969Y-120950583D01*
X226948553Y-120943142D01*
X226936927Y-120934519D01*
X226926202Y-120924798D01*
X226916481Y-120914073D01*
X226907858Y-120902447D01*
X226900417Y-120890031D01*
X226894228Y-120876946D01*
X226889351Y-120863317D01*
X226885834Y-120849276D01*
X226883710Y-120834958D01*
X226883000Y-120820500D01*
X226883000Y-120525500D01*
X226883710Y-120511042D01*
X226885834Y-120496724D01*
X226889351Y-120482683D01*
X226894228Y-120469054D01*
X226900417Y-120455969D01*
X226907858Y-120443553D01*
X226916481Y-120431927D01*
X226926202Y-120421202D01*
X226936927Y-120411481D01*
X226948553Y-120402858D01*
X226960969Y-120395417D01*
X226974054Y-120389228D01*
X226987683Y-120384351D01*
X227001724Y-120380834D01*
X227016042Y-120378710D01*
X227030500Y-120378000D01*
X227375500Y-120378000D01*
X227389958Y-120378710D01*
X227389958Y-120378710D01*
G37*
D13*
X227203000Y-120673000D03*
D12*
G36*
X227389958Y-121348710D02*
X227404276Y-121350834D01*
X227418317Y-121354351D01*
X227431946Y-121359228D01*
X227445031Y-121365417D01*
X227457447Y-121372858D01*
X227469073Y-121381481D01*
X227479798Y-121391202D01*
X227489519Y-121401927D01*
X227498142Y-121413553D01*
X227505583Y-121425969D01*
X227511772Y-121439054D01*
X227516649Y-121452683D01*
X227520166Y-121466724D01*
X227522290Y-121481042D01*
X227523000Y-121495500D01*
X227523000Y-121790500D01*
X227522290Y-121804958D01*
X227520166Y-121819276D01*
X227516649Y-121833317D01*
X227511772Y-121846946D01*
X227505583Y-121860031D01*
X227498142Y-121872447D01*
X227489519Y-121884073D01*
X227479798Y-121894798D01*
X227469073Y-121904519D01*
X227457447Y-121913142D01*
X227445031Y-121920583D01*
X227431946Y-121926772D01*
X227418317Y-121931649D01*
X227404276Y-121935166D01*
X227389958Y-121937290D01*
X227375500Y-121938000D01*
X227030500Y-121938000D01*
X227016042Y-121937290D01*
X227001724Y-121935166D01*
X226987683Y-121931649D01*
X226974054Y-121926772D01*
X226960969Y-121920583D01*
X226948553Y-121913142D01*
X226936927Y-121904519D01*
X226926202Y-121894798D01*
X226916481Y-121884073D01*
X226907858Y-121872447D01*
X226900417Y-121860031D01*
X226894228Y-121846946D01*
X226889351Y-121833317D01*
X226885834Y-121819276D01*
X226883710Y-121804958D01*
X226883000Y-121790500D01*
X226883000Y-121495500D01*
X226883710Y-121481042D01*
X226885834Y-121466724D01*
X226889351Y-121452683D01*
X226894228Y-121439054D01*
X226900417Y-121425969D01*
X226907858Y-121413553D01*
X226916481Y-121401927D01*
X226926202Y-121391202D01*
X226936927Y-121381481D01*
X226948553Y-121372858D01*
X226960969Y-121365417D01*
X226974054Y-121359228D01*
X226987683Y-121354351D01*
X227001724Y-121350834D01*
X227016042Y-121348710D01*
X227030500Y-121348000D01*
X227375500Y-121348000D01*
X227389958Y-121348710D01*
X227389958Y-121348710D01*
G37*
D13*
X227203000Y-121643000D03*
G04 #@! TD*
D12*
G04 #@! TO.C,R10*
G36*
X238432292Y-108030383D02*
X238440010Y-108031528D01*
X238447578Y-108033423D01*
X238454923Y-108036052D01*
X238461976Y-108039387D01*
X238468668Y-108043398D01*
X238474934Y-108048046D01*
X238480715Y-108053285D01*
X238485954Y-108059066D01*
X238490602Y-108065332D01*
X238494613Y-108072024D01*
X238497948Y-108079077D01*
X238500577Y-108086422D01*
X238502472Y-108093990D01*
X238503617Y-108101708D01*
X238504000Y-108109500D01*
X238504000Y-108310500D01*
X238503617Y-108318292D01*
X238502472Y-108326010D01*
X238500577Y-108333578D01*
X238497948Y-108340923D01*
X238494613Y-108347976D01*
X238490602Y-108354668D01*
X238485954Y-108360934D01*
X238480715Y-108366715D01*
X238474934Y-108371954D01*
X238468668Y-108376602D01*
X238461976Y-108380613D01*
X238454923Y-108383948D01*
X238447578Y-108386577D01*
X238440010Y-108388472D01*
X238432292Y-108389617D01*
X238424500Y-108390000D01*
X238265500Y-108390000D01*
X238257708Y-108389617D01*
X238249990Y-108388472D01*
X238242422Y-108386577D01*
X238235077Y-108383948D01*
X238228024Y-108380613D01*
X238221332Y-108376602D01*
X238215066Y-108371954D01*
X238209285Y-108366715D01*
X238204046Y-108360934D01*
X238199398Y-108354668D01*
X238195387Y-108347976D01*
X238192052Y-108340923D01*
X238189423Y-108333578D01*
X238187528Y-108326010D01*
X238186383Y-108318292D01*
X238186000Y-108310500D01*
X238186000Y-108109500D01*
X238186383Y-108101708D01*
X238187528Y-108093990D01*
X238189423Y-108086422D01*
X238192052Y-108079077D01*
X238195387Y-108072024D01*
X238199398Y-108065332D01*
X238204046Y-108059066D01*
X238209285Y-108053285D01*
X238215066Y-108048046D01*
X238221332Y-108043398D01*
X238228024Y-108039387D01*
X238235077Y-108036052D01*
X238242422Y-108033423D01*
X238249990Y-108031528D01*
X238257708Y-108030383D01*
X238265500Y-108030000D01*
X238424500Y-108030000D01*
X238432292Y-108030383D01*
X238432292Y-108030383D01*
G37*
D22*
X238345000Y-108210000D03*
D12*
G36*
X237742292Y-108030383D02*
X237750010Y-108031528D01*
X237757578Y-108033423D01*
X237764923Y-108036052D01*
X237771976Y-108039387D01*
X237778668Y-108043398D01*
X237784934Y-108048046D01*
X237790715Y-108053285D01*
X237795954Y-108059066D01*
X237800602Y-108065332D01*
X237804613Y-108072024D01*
X237807948Y-108079077D01*
X237810577Y-108086422D01*
X237812472Y-108093990D01*
X237813617Y-108101708D01*
X237814000Y-108109500D01*
X237814000Y-108310500D01*
X237813617Y-108318292D01*
X237812472Y-108326010D01*
X237810577Y-108333578D01*
X237807948Y-108340923D01*
X237804613Y-108347976D01*
X237800602Y-108354668D01*
X237795954Y-108360934D01*
X237790715Y-108366715D01*
X237784934Y-108371954D01*
X237778668Y-108376602D01*
X237771976Y-108380613D01*
X237764923Y-108383948D01*
X237757578Y-108386577D01*
X237750010Y-108388472D01*
X237742292Y-108389617D01*
X237734500Y-108390000D01*
X237575500Y-108390000D01*
X237567708Y-108389617D01*
X237559990Y-108388472D01*
X237552422Y-108386577D01*
X237545077Y-108383948D01*
X237538024Y-108380613D01*
X237531332Y-108376602D01*
X237525066Y-108371954D01*
X237519285Y-108366715D01*
X237514046Y-108360934D01*
X237509398Y-108354668D01*
X237505387Y-108347976D01*
X237502052Y-108340923D01*
X237499423Y-108333578D01*
X237497528Y-108326010D01*
X237496383Y-108318292D01*
X237496000Y-108310500D01*
X237496000Y-108109500D01*
X237496383Y-108101708D01*
X237497528Y-108093990D01*
X237499423Y-108086422D01*
X237502052Y-108079077D01*
X237505387Y-108072024D01*
X237509398Y-108065332D01*
X237514046Y-108059066D01*
X237519285Y-108053285D01*
X237525066Y-108048046D01*
X237531332Y-108043398D01*
X237538024Y-108039387D01*
X237545077Y-108036052D01*
X237552422Y-108033423D01*
X237559990Y-108031528D01*
X237567708Y-108030383D01*
X237575500Y-108030000D01*
X237734500Y-108030000D01*
X237742292Y-108030383D01*
X237742292Y-108030383D01*
G37*
D22*
X237655000Y-108210000D03*
G04 #@! TD*
D12*
G04 #@! TO.C,R12-R19*
G36*
X235142292Y-101320383D02*
X235150010Y-101321528D01*
X235157578Y-101323423D01*
X235164923Y-101326052D01*
X235171976Y-101329387D01*
X235178668Y-101333398D01*
X235184934Y-101338046D01*
X235190715Y-101343285D01*
X235195954Y-101349066D01*
X235200602Y-101355332D01*
X235204613Y-101362024D01*
X235207948Y-101369077D01*
X235210577Y-101376422D01*
X235212472Y-101383990D01*
X235213617Y-101391708D01*
X235214000Y-101399500D01*
X235214000Y-101600500D01*
X235213617Y-101608292D01*
X235212472Y-101616010D01*
X235210577Y-101623578D01*
X235207948Y-101630923D01*
X235204613Y-101637976D01*
X235200602Y-101644668D01*
X235195954Y-101650934D01*
X235190715Y-101656715D01*
X235184934Y-101661954D01*
X235178668Y-101666602D01*
X235171976Y-101670613D01*
X235164923Y-101673948D01*
X235157578Y-101676577D01*
X235150010Y-101678472D01*
X235142292Y-101679617D01*
X235134500Y-101680000D01*
X234975500Y-101680000D01*
X234967708Y-101679617D01*
X234959990Y-101678472D01*
X234952422Y-101676577D01*
X234945077Y-101673948D01*
X234938024Y-101670613D01*
X234931332Y-101666602D01*
X234925066Y-101661954D01*
X234919285Y-101656715D01*
X234914046Y-101650934D01*
X234909398Y-101644668D01*
X234905387Y-101637976D01*
X234902052Y-101630923D01*
X234899423Y-101623578D01*
X234897528Y-101616010D01*
X234896383Y-101608292D01*
X234896000Y-101600500D01*
X234896000Y-101399500D01*
X234896383Y-101391708D01*
X234897528Y-101383990D01*
X234899423Y-101376422D01*
X234902052Y-101369077D01*
X234905387Y-101362024D01*
X234909398Y-101355332D01*
X234914046Y-101349066D01*
X234919285Y-101343285D01*
X234925066Y-101338046D01*
X234931332Y-101333398D01*
X234938024Y-101329387D01*
X234945077Y-101326052D01*
X234952422Y-101323423D01*
X234959990Y-101321528D01*
X234967708Y-101320383D01*
X234975500Y-101320000D01*
X235134500Y-101320000D01*
X235142292Y-101320383D01*
X235142292Y-101320383D01*
G37*
D22*
X235055000Y-101500000D03*
D12*
G36*
X235832292Y-101320383D02*
X235840010Y-101321528D01*
X235847578Y-101323423D01*
X235854923Y-101326052D01*
X235861976Y-101329387D01*
X235868668Y-101333398D01*
X235874934Y-101338046D01*
X235880715Y-101343285D01*
X235885954Y-101349066D01*
X235890602Y-101355332D01*
X235894613Y-101362024D01*
X235897948Y-101369077D01*
X235900577Y-101376422D01*
X235902472Y-101383990D01*
X235903617Y-101391708D01*
X235904000Y-101399500D01*
X235904000Y-101600500D01*
X235903617Y-101608292D01*
X235902472Y-101616010D01*
X235900577Y-101623578D01*
X235897948Y-101630923D01*
X235894613Y-101637976D01*
X235890602Y-101644668D01*
X235885954Y-101650934D01*
X235880715Y-101656715D01*
X235874934Y-101661954D01*
X235868668Y-101666602D01*
X235861976Y-101670613D01*
X235854923Y-101673948D01*
X235847578Y-101676577D01*
X235840010Y-101678472D01*
X235832292Y-101679617D01*
X235824500Y-101680000D01*
X235665500Y-101680000D01*
X235657708Y-101679617D01*
X235649990Y-101678472D01*
X235642422Y-101676577D01*
X235635077Y-101673948D01*
X235628024Y-101670613D01*
X235621332Y-101666602D01*
X235615066Y-101661954D01*
X235609285Y-101656715D01*
X235604046Y-101650934D01*
X235599398Y-101644668D01*
X235595387Y-101637976D01*
X235592052Y-101630923D01*
X235589423Y-101623578D01*
X235587528Y-101616010D01*
X235586383Y-101608292D01*
X235586000Y-101600500D01*
X235586000Y-101399500D01*
X235586383Y-101391708D01*
X235587528Y-101383990D01*
X235589423Y-101376422D01*
X235592052Y-101369077D01*
X235595387Y-101362024D01*
X235599398Y-101355332D01*
X235604046Y-101349066D01*
X235609285Y-101343285D01*
X235615066Y-101338046D01*
X235621332Y-101333398D01*
X235628024Y-101329387D01*
X235635077Y-101326052D01*
X235642422Y-101323423D01*
X235649990Y-101321528D01*
X235657708Y-101320383D01*
X235665500Y-101320000D01*
X235824500Y-101320000D01*
X235832292Y-101320383D01*
X235832292Y-101320383D01*
G37*
D22*
X235745000Y-101500000D03*
G04 #@! TD*
D12*
G04 #@! TO.C,R13*
G36*
X235832292Y-102820383D02*
X235840010Y-102821528D01*
X235847578Y-102823423D01*
X235854923Y-102826052D01*
X235861976Y-102829387D01*
X235868668Y-102833398D01*
X235874934Y-102838046D01*
X235880715Y-102843285D01*
X235885954Y-102849066D01*
X235890602Y-102855332D01*
X235894613Y-102862024D01*
X235897948Y-102869077D01*
X235900577Y-102876422D01*
X235902472Y-102883990D01*
X235903617Y-102891708D01*
X235904000Y-102899500D01*
X235904000Y-103100500D01*
X235903617Y-103108292D01*
X235902472Y-103116010D01*
X235900577Y-103123578D01*
X235897948Y-103130923D01*
X235894613Y-103137976D01*
X235890602Y-103144668D01*
X235885954Y-103150934D01*
X235880715Y-103156715D01*
X235874934Y-103161954D01*
X235868668Y-103166602D01*
X235861976Y-103170613D01*
X235854923Y-103173948D01*
X235847578Y-103176577D01*
X235840010Y-103178472D01*
X235832292Y-103179617D01*
X235824500Y-103180000D01*
X235665500Y-103180000D01*
X235657708Y-103179617D01*
X235649990Y-103178472D01*
X235642422Y-103176577D01*
X235635077Y-103173948D01*
X235628024Y-103170613D01*
X235621332Y-103166602D01*
X235615066Y-103161954D01*
X235609285Y-103156715D01*
X235604046Y-103150934D01*
X235599398Y-103144668D01*
X235595387Y-103137976D01*
X235592052Y-103130923D01*
X235589423Y-103123578D01*
X235587528Y-103116010D01*
X235586383Y-103108292D01*
X235586000Y-103100500D01*
X235586000Y-102899500D01*
X235586383Y-102891708D01*
X235587528Y-102883990D01*
X235589423Y-102876422D01*
X235592052Y-102869077D01*
X235595387Y-102862024D01*
X235599398Y-102855332D01*
X235604046Y-102849066D01*
X235609285Y-102843285D01*
X235615066Y-102838046D01*
X235621332Y-102833398D01*
X235628024Y-102829387D01*
X235635077Y-102826052D01*
X235642422Y-102823423D01*
X235649990Y-102821528D01*
X235657708Y-102820383D01*
X235665500Y-102820000D01*
X235824500Y-102820000D01*
X235832292Y-102820383D01*
X235832292Y-102820383D01*
G37*
D22*
X235745000Y-103000000D03*
D12*
G36*
X235142292Y-102820383D02*
X235150010Y-102821528D01*
X235157578Y-102823423D01*
X235164923Y-102826052D01*
X235171976Y-102829387D01*
X235178668Y-102833398D01*
X235184934Y-102838046D01*
X235190715Y-102843285D01*
X235195954Y-102849066D01*
X235200602Y-102855332D01*
X235204613Y-102862024D01*
X235207948Y-102869077D01*
X235210577Y-102876422D01*
X235212472Y-102883990D01*
X235213617Y-102891708D01*
X235214000Y-102899500D01*
X235214000Y-103100500D01*
X235213617Y-103108292D01*
X235212472Y-103116010D01*
X235210577Y-103123578D01*
X235207948Y-103130923D01*
X235204613Y-103137976D01*
X235200602Y-103144668D01*
X235195954Y-103150934D01*
X235190715Y-103156715D01*
X235184934Y-103161954D01*
X235178668Y-103166602D01*
X235171976Y-103170613D01*
X235164923Y-103173948D01*
X235157578Y-103176577D01*
X235150010Y-103178472D01*
X235142292Y-103179617D01*
X235134500Y-103180000D01*
X234975500Y-103180000D01*
X234967708Y-103179617D01*
X234959990Y-103178472D01*
X234952422Y-103176577D01*
X234945077Y-103173948D01*
X234938024Y-103170613D01*
X234931332Y-103166602D01*
X234925066Y-103161954D01*
X234919285Y-103156715D01*
X234914046Y-103150934D01*
X234909398Y-103144668D01*
X234905387Y-103137976D01*
X234902052Y-103130923D01*
X234899423Y-103123578D01*
X234897528Y-103116010D01*
X234896383Y-103108292D01*
X234896000Y-103100500D01*
X234896000Y-102899500D01*
X234896383Y-102891708D01*
X234897528Y-102883990D01*
X234899423Y-102876422D01*
X234902052Y-102869077D01*
X234905387Y-102862024D01*
X234909398Y-102855332D01*
X234914046Y-102849066D01*
X234919285Y-102843285D01*
X234925066Y-102838046D01*
X234931332Y-102833398D01*
X234938024Y-102829387D01*
X234945077Y-102826052D01*
X234952422Y-102823423D01*
X234959990Y-102821528D01*
X234967708Y-102820383D01*
X234975500Y-102820000D01*
X235134500Y-102820000D01*
X235142292Y-102820383D01*
X235142292Y-102820383D01*
G37*
D22*
X235055000Y-103000000D03*
G04 #@! TD*
D12*
G04 #@! TO.C,R14*
G36*
X235832292Y-104420383D02*
X235840010Y-104421528D01*
X235847578Y-104423423D01*
X235854923Y-104426052D01*
X235861976Y-104429387D01*
X235868668Y-104433398D01*
X235874934Y-104438046D01*
X235880715Y-104443285D01*
X235885954Y-104449066D01*
X235890602Y-104455332D01*
X235894613Y-104462024D01*
X235897948Y-104469077D01*
X235900577Y-104476422D01*
X235902472Y-104483990D01*
X235903617Y-104491708D01*
X235904000Y-104499500D01*
X235904000Y-104700500D01*
X235903617Y-104708292D01*
X235902472Y-104716010D01*
X235900577Y-104723578D01*
X235897948Y-104730923D01*
X235894613Y-104737976D01*
X235890602Y-104744668D01*
X235885954Y-104750934D01*
X235880715Y-104756715D01*
X235874934Y-104761954D01*
X235868668Y-104766602D01*
X235861976Y-104770613D01*
X235854923Y-104773948D01*
X235847578Y-104776577D01*
X235840010Y-104778472D01*
X235832292Y-104779617D01*
X235824500Y-104780000D01*
X235665500Y-104780000D01*
X235657708Y-104779617D01*
X235649990Y-104778472D01*
X235642422Y-104776577D01*
X235635077Y-104773948D01*
X235628024Y-104770613D01*
X235621332Y-104766602D01*
X235615066Y-104761954D01*
X235609285Y-104756715D01*
X235604046Y-104750934D01*
X235599398Y-104744668D01*
X235595387Y-104737976D01*
X235592052Y-104730923D01*
X235589423Y-104723578D01*
X235587528Y-104716010D01*
X235586383Y-104708292D01*
X235586000Y-104700500D01*
X235586000Y-104499500D01*
X235586383Y-104491708D01*
X235587528Y-104483990D01*
X235589423Y-104476422D01*
X235592052Y-104469077D01*
X235595387Y-104462024D01*
X235599398Y-104455332D01*
X235604046Y-104449066D01*
X235609285Y-104443285D01*
X235615066Y-104438046D01*
X235621332Y-104433398D01*
X235628024Y-104429387D01*
X235635077Y-104426052D01*
X235642422Y-104423423D01*
X235649990Y-104421528D01*
X235657708Y-104420383D01*
X235665500Y-104420000D01*
X235824500Y-104420000D01*
X235832292Y-104420383D01*
X235832292Y-104420383D01*
G37*
D22*
X235745000Y-104600000D03*
D12*
G36*
X235142292Y-104420383D02*
X235150010Y-104421528D01*
X235157578Y-104423423D01*
X235164923Y-104426052D01*
X235171976Y-104429387D01*
X235178668Y-104433398D01*
X235184934Y-104438046D01*
X235190715Y-104443285D01*
X235195954Y-104449066D01*
X235200602Y-104455332D01*
X235204613Y-104462024D01*
X235207948Y-104469077D01*
X235210577Y-104476422D01*
X235212472Y-104483990D01*
X235213617Y-104491708D01*
X235214000Y-104499500D01*
X235214000Y-104700500D01*
X235213617Y-104708292D01*
X235212472Y-104716010D01*
X235210577Y-104723578D01*
X235207948Y-104730923D01*
X235204613Y-104737976D01*
X235200602Y-104744668D01*
X235195954Y-104750934D01*
X235190715Y-104756715D01*
X235184934Y-104761954D01*
X235178668Y-104766602D01*
X235171976Y-104770613D01*
X235164923Y-104773948D01*
X235157578Y-104776577D01*
X235150010Y-104778472D01*
X235142292Y-104779617D01*
X235134500Y-104780000D01*
X234975500Y-104780000D01*
X234967708Y-104779617D01*
X234959990Y-104778472D01*
X234952422Y-104776577D01*
X234945077Y-104773948D01*
X234938024Y-104770613D01*
X234931332Y-104766602D01*
X234925066Y-104761954D01*
X234919285Y-104756715D01*
X234914046Y-104750934D01*
X234909398Y-104744668D01*
X234905387Y-104737976D01*
X234902052Y-104730923D01*
X234899423Y-104723578D01*
X234897528Y-104716010D01*
X234896383Y-104708292D01*
X234896000Y-104700500D01*
X234896000Y-104499500D01*
X234896383Y-104491708D01*
X234897528Y-104483990D01*
X234899423Y-104476422D01*
X234902052Y-104469077D01*
X234905387Y-104462024D01*
X234909398Y-104455332D01*
X234914046Y-104449066D01*
X234919285Y-104443285D01*
X234925066Y-104438046D01*
X234931332Y-104433398D01*
X234938024Y-104429387D01*
X234945077Y-104426052D01*
X234952422Y-104423423D01*
X234959990Y-104421528D01*
X234967708Y-104420383D01*
X234975500Y-104420000D01*
X235134500Y-104420000D01*
X235142292Y-104420383D01*
X235142292Y-104420383D01*
G37*
D22*
X235055000Y-104600000D03*
G04 #@! TD*
D12*
G04 #@! TO.C,R15*
G36*
X235832292Y-106020383D02*
X235840010Y-106021528D01*
X235847578Y-106023423D01*
X235854923Y-106026052D01*
X235861976Y-106029387D01*
X235868668Y-106033398D01*
X235874934Y-106038046D01*
X235880715Y-106043285D01*
X235885954Y-106049066D01*
X235890602Y-106055332D01*
X235894613Y-106062024D01*
X235897948Y-106069077D01*
X235900577Y-106076422D01*
X235902472Y-106083990D01*
X235903617Y-106091708D01*
X235904000Y-106099500D01*
X235904000Y-106300500D01*
X235903617Y-106308292D01*
X235902472Y-106316010D01*
X235900577Y-106323578D01*
X235897948Y-106330923D01*
X235894613Y-106337976D01*
X235890602Y-106344668D01*
X235885954Y-106350934D01*
X235880715Y-106356715D01*
X235874934Y-106361954D01*
X235868668Y-106366602D01*
X235861976Y-106370613D01*
X235854923Y-106373948D01*
X235847578Y-106376577D01*
X235840010Y-106378472D01*
X235832292Y-106379617D01*
X235824500Y-106380000D01*
X235665500Y-106380000D01*
X235657708Y-106379617D01*
X235649990Y-106378472D01*
X235642422Y-106376577D01*
X235635077Y-106373948D01*
X235628024Y-106370613D01*
X235621332Y-106366602D01*
X235615066Y-106361954D01*
X235609285Y-106356715D01*
X235604046Y-106350934D01*
X235599398Y-106344668D01*
X235595387Y-106337976D01*
X235592052Y-106330923D01*
X235589423Y-106323578D01*
X235587528Y-106316010D01*
X235586383Y-106308292D01*
X235586000Y-106300500D01*
X235586000Y-106099500D01*
X235586383Y-106091708D01*
X235587528Y-106083990D01*
X235589423Y-106076422D01*
X235592052Y-106069077D01*
X235595387Y-106062024D01*
X235599398Y-106055332D01*
X235604046Y-106049066D01*
X235609285Y-106043285D01*
X235615066Y-106038046D01*
X235621332Y-106033398D01*
X235628024Y-106029387D01*
X235635077Y-106026052D01*
X235642422Y-106023423D01*
X235649990Y-106021528D01*
X235657708Y-106020383D01*
X235665500Y-106020000D01*
X235824500Y-106020000D01*
X235832292Y-106020383D01*
X235832292Y-106020383D01*
G37*
D22*
X235745000Y-106200000D03*
D12*
G36*
X235142292Y-106020383D02*
X235150010Y-106021528D01*
X235157578Y-106023423D01*
X235164923Y-106026052D01*
X235171976Y-106029387D01*
X235178668Y-106033398D01*
X235184934Y-106038046D01*
X235190715Y-106043285D01*
X235195954Y-106049066D01*
X235200602Y-106055332D01*
X235204613Y-106062024D01*
X235207948Y-106069077D01*
X235210577Y-106076422D01*
X235212472Y-106083990D01*
X235213617Y-106091708D01*
X235214000Y-106099500D01*
X235214000Y-106300500D01*
X235213617Y-106308292D01*
X235212472Y-106316010D01*
X235210577Y-106323578D01*
X235207948Y-106330923D01*
X235204613Y-106337976D01*
X235200602Y-106344668D01*
X235195954Y-106350934D01*
X235190715Y-106356715D01*
X235184934Y-106361954D01*
X235178668Y-106366602D01*
X235171976Y-106370613D01*
X235164923Y-106373948D01*
X235157578Y-106376577D01*
X235150010Y-106378472D01*
X235142292Y-106379617D01*
X235134500Y-106380000D01*
X234975500Y-106380000D01*
X234967708Y-106379617D01*
X234959990Y-106378472D01*
X234952422Y-106376577D01*
X234945077Y-106373948D01*
X234938024Y-106370613D01*
X234931332Y-106366602D01*
X234925066Y-106361954D01*
X234919285Y-106356715D01*
X234914046Y-106350934D01*
X234909398Y-106344668D01*
X234905387Y-106337976D01*
X234902052Y-106330923D01*
X234899423Y-106323578D01*
X234897528Y-106316010D01*
X234896383Y-106308292D01*
X234896000Y-106300500D01*
X234896000Y-106099500D01*
X234896383Y-106091708D01*
X234897528Y-106083990D01*
X234899423Y-106076422D01*
X234902052Y-106069077D01*
X234905387Y-106062024D01*
X234909398Y-106055332D01*
X234914046Y-106049066D01*
X234919285Y-106043285D01*
X234925066Y-106038046D01*
X234931332Y-106033398D01*
X234938024Y-106029387D01*
X234945077Y-106026052D01*
X234952422Y-106023423D01*
X234959990Y-106021528D01*
X234967708Y-106020383D01*
X234975500Y-106020000D01*
X235134500Y-106020000D01*
X235142292Y-106020383D01*
X235142292Y-106020383D01*
G37*
D22*
X235055000Y-106200000D03*
G04 #@! TD*
D12*
G04 #@! TO.C,R16*
G36*
X235832292Y-102120383D02*
X235840010Y-102121528D01*
X235847578Y-102123423D01*
X235854923Y-102126052D01*
X235861976Y-102129387D01*
X235868668Y-102133398D01*
X235874934Y-102138046D01*
X235880715Y-102143285D01*
X235885954Y-102149066D01*
X235890602Y-102155332D01*
X235894613Y-102162024D01*
X235897948Y-102169077D01*
X235900577Y-102176422D01*
X235902472Y-102183990D01*
X235903617Y-102191708D01*
X235904000Y-102199500D01*
X235904000Y-102400500D01*
X235903617Y-102408292D01*
X235902472Y-102416010D01*
X235900577Y-102423578D01*
X235897948Y-102430923D01*
X235894613Y-102437976D01*
X235890602Y-102444668D01*
X235885954Y-102450934D01*
X235880715Y-102456715D01*
X235874934Y-102461954D01*
X235868668Y-102466602D01*
X235861976Y-102470613D01*
X235854923Y-102473948D01*
X235847578Y-102476577D01*
X235840010Y-102478472D01*
X235832292Y-102479617D01*
X235824500Y-102480000D01*
X235665500Y-102480000D01*
X235657708Y-102479617D01*
X235649990Y-102478472D01*
X235642422Y-102476577D01*
X235635077Y-102473948D01*
X235628024Y-102470613D01*
X235621332Y-102466602D01*
X235615066Y-102461954D01*
X235609285Y-102456715D01*
X235604046Y-102450934D01*
X235599398Y-102444668D01*
X235595387Y-102437976D01*
X235592052Y-102430923D01*
X235589423Y-102423578D01*
X235587528Y-102416010D01*
X235586383Y-102408292D01*
X235586000Y-102400500D01*
X235586000Y-102199500D01*
X235586383Y-102191708D01*
X235587528Y-102183990D01*
X235589423Y-102176422D01*
X235592052Y-102169077D01*
X235595387Y-102162024D01*
X235599398Y-102155332D01*
X235604046Y-102149066D01*
X235609285Y-102143285D01*
X235615066Y-102138046D01*
X235621332Y-102133398D01*
X235628024Y-102129387D01*
X235635077Y-102126052D01*
X235642422Y-102123423D01*
X235649990Y-102121528D01*
X235657708Y-102120383D01*
X235665500Y-102120000D01*
X235824500Y-102120000D01*
X235832292Y-102120383D01*
X235832292Y-102120383D01*
G37*
D22*
X235745000Y-102300000D03*
D12*
G36*
X235142292Y-102120383D02*
X235150010Y-102121528D01*
X235157578Y-102123423D01*
X235164923Y-102126052D01*
X235171976Y-102129387D01*
X235178668Y-102133398D01*
X235184934Y-102138046D01*
X235190715Y-102143285D01*
X235195954Y-102149066D01*
X235200602Y-102155332D01*
X235204613Y-102162024D01*
X235207948Y-102169077D01*
X235210577Y-102176422D01*
X235212472Y-102183990D01*
X235213617Y-102191708D01*
X235214000Y-102199500D01*
X235214000Y-102400500D01*
X235213617Y-102408292D01*
X235212472Y-102416010D01*
X235210577Y-102423578D01*
X235207948Y-102430923D01*
X235204613Y-102437976D01*
X235200602Y-102444668D01*
X235195954Y-102450934D01*
X235190715Y-102456715D01*
X235184934Y-102461954D01*
X235178668Y-102466602D01*
X235171976Y-102470613D01*
X235164923Y-102473948D01*
X235157578Y-102476577D01*
X235150010Y-102478472D01*
X235142292Y-102479617D01*
X235134500Y-102480000D01*
X234975500Y-102480000D01*
X234967708Y-102479617D01*
X234959990Y-102478472D01*
X234952422Y-102476577D01*
X234945077Y-102473948D01*
X234938024Y-102470613D01*
X234931332Y-102466602D01*
X234925066Y-102461954D01*
X234919285Y-102456715D01*
X234914046Y-102450934D01*
X234909398Y-102444668D01*
X234905387Y-102437976D01*
X234902052Y-102430923D01*
X234899423Y-102423578D01*
X234897528Y-102416010D01*
X234896383Y-102408292D01*
X234896000Y-102400500D01*
X234896000Y-102199500D01*
X234896383Y-102191708D01*
X234897528Y-102183990D01*
X234899423Y-102176422D01*
X234902052Y-102169077D01*
X234905387Y-102162024D01*
X234909398Y-102155332D01*
X234914046Y-102149066D01*
X234919285Y-102143285D01*
X234925066Y-102138046D01*
X234931332Y-102133398D01*
X234938024Y-102129387D01*
X234945077Y-102126052D01*
X234952422Y-102123423D01*
X234959990Y-102121528D01*
X234967708Y-102120383D01*
X234975500Y-102120000D01*
X235134500Y-102120000D01*
X235142292Y-102120383D01*
X235142292Y-102120383D01*
G37*
D22*
X235055000Y-102300000D03*
G04 #@! TD*
D12*
G04 #@! TO.C,R17*
G36*
X235142292Y-103620383D02*
X235150010Y-103621528D01*
X235157578Y-103623423D01*
X235164923Y-103626052D01*
X235171976Y-103629387D01*
X235178668Y-103633398D01*
X235184934Y-103638046D01*
X235190715Y-103643285D01*
X235195954Y-103649066D01*
X235200602Y-103655332D01*
X235204613Y-103662024D01*
X235207948Y-103669077D01*
X235210577Y-103676422D01*
X235212472Y-103683990D01*
X235213617Y-103691708D01*
X235214000Y-103699500D01*
X235214000Y-103900500D01*
X235213617Y-103908292D01*
X235212472Y-103916010D01*
X235210577Y-103923578D01*
X235207948Y-103930923D01*
X235204613Y-103937976D01*
X235200602Y-103944668D01*
X235195954Y-103950934D01*
X235190715Y-103956715D01*
X235184934Y-103961954D01*
X235178668Y-103966602D01*
X235171976Y-103970613D01*
X235164923Y-103973948D01*
X235157578Y-103976577D01*
X235150010Y-103978472D01*
X235142292Y-103979617D01*
X235134500Y-103980000D01*
X234975500Y-103980000D01*
X234967708Y-103979617D01*
X234959990Y-103978472D01*
X234952422Y-103976577D01*
X234945077Y-103973948D01*
X234938024Y-103970613D01*
X234931332Y-103966602D01*
X234925066Y-103961954D01*
X234919285Y-103956715D01*
X234914046Y-103950934D01*
X234909398Y-103944668D01*
X234905387Y-103937976D01*
X234902052Y-103930923D01*
X234899423Y-103923578D01*
X234897528Y-103916010D01*
X234896383Y-103908292D01*
X234896000Y-103900500D01*
X234896000Y-103699500D01*
X234896383Y-103691708D01*
X234897528Y-103683990D01*
X234899423Y-103676422D01*
X234902052Y-103669077D01*
X234905387Y-103662024D01*
X234909398Y-103655332D01*
X234914046Y-103649066D01*
X234919285Y-103643285D01*
X234925066Y-103638046D01*
X234931332Y-103633398D01*
X234938024Y-103629387D01*
X234945077Y-103626052D01*
X234952422Y-103623423D01*
X234959990Y-103621528D01*
X234967708Y-103620383D01*
X234975500Y-103620000D01*
X235134500Y-103620000D01*
X235142292Y-103620383D01*
X235142292Y-103620383D01*
G37*
D22*
X235055000Y-103800000D03*
D12*
G36*
X235832292Y-103620383D02*
X235840010Y-103621528D01*
X235847578Y-103623423D01*
X235854923Y-103626052D01*
X235861976Y-103629387D01*
X235868668Y-103633398D01*
X235874934Y-103638046D01*
X235880715Y-103643285D01*
X235885954Y-103649066D01*
X235890602Y-103655332D01*
X235894613Y-103662024D01*
X235897948Y-103669077D01*
X235900577Y-103676422D01*
X235902472Y-103683990D01*
X235903617Y-103691708D01*
X235904000Y-103699500D01*
X235904000Y-103900500D01*
X235903617Y-103908292D01*
X235902472Y-103916010D01*
X235900577Y-103923578D01*
X235897948Y-103930923D01*
X235894613Y-103937976D01*
X235890602Y-103944668D01*
X235885954Y-103950934D01*
X235880715Y-103956715D01*
X235874934Y-103961954D01*
X235868668Y-103966602D01*
X235861976Y-103970613D01*
X235854923Y-103973948D01*
X235847578Y-103976577D01*
X235840010Y-103978472D01*
X235832292Y-103979617D01*
X235824500Y-103980000D01*
X235665500Y-103980000D01*
X235657708Y-103979617D01*
X235649990Y-103978472D01*
X235642422Y-103976577D01*
X235635077Y-103973948D01*
X235628024Y-103970613D01*
X235621332Y-103966602D01*
X235615066Y-103961954D01*
X235609285Y-103956715D01*
X235604046Y-103950934D01*
X235599398Y-103944668D01*
X235595387Y-103937976D01*
X235592052Y-103930923D01*
X235589423Y-103923578D01*
X235587528Y-103916010D01*
X235586383Y-103908292D01*
X235586000Y-103900500D01*
X235586000Y-103699500D01*
X235586383Y-103691708D01*
X235587528Y-103683990D01*
X235589423Y-103676422D01*
X235592052Y-103669077D01*
X235595387Y-103662024D01*
X235599398Y-103655332D01*
X235604046Y-103649066D01*
X235609285Y-103643285D01*
X235615066Y-103638046D01*
X235621332Y-103633398D01*
X235628024Y-103629387D01*
X235635077Y-103626052D01*
X235642422Y-103623423D01*
X235649990Y-103621528D01*
X235657708Y-103620383D01*
X235665500Y-103620000D01*
X235824500Y-103620000D01*
X235832292Y-103620383D01*
X235832292Y-103620383D01*
G37*
D22*
X235745000Y-103800000D03*
G04 #@! TD*
D12*
G04 #@! TO.C,R18*
G36*
X235142292Y-105220383D02*
X235150010Y-105221528D01*
X235157578Y-105223423D01*
X235164923Y-105226052D01*
X235171976Y-105229387D01*
X235178668Y-105233398D01*
X235184934Y-105238046D01*
X235190715Y-105243285D01*
X235195954Y-105249066D01*
X235200602Y-105255332D01*
X235204613Y-105262024D01*
X235207948Y-105269077D01*
X235210577Y-105276422D01*
X235212472Y-105283990D01*
X235213617Y-105291708D01*
X235214000Y-105299500D01*
X235214000Y-105500500D01*
X235213617Y-105508292D01*
X235212472Y-105516010D01*
X235210577Y-105523578D01*
X235207948Y-105530923D01*
X235204613Y-105537976D01*
X235200602Y-105544668D01*
X235195954Y-105550934D01*
X235190715Y-105556715D01*
X235184934Y-105561954D01*
X235178668Y-105566602D01*
X235171976Y-105570613D01*
X235164923Y-105573948D01*
X235157578Y-105576577D01*
X235150010Y-105578472D01*
X235142292Y-105579617D01*
X235134500Y-105580000D01*
X234975500Y-105580000D01*
X234967708Y-105579617D01*
X234959990Y-105578472D01*
X234952422Y-105576577D01*
X234945077Y-105573948D01*
X234938024Y-105570613D01*
X234931332Y-105566602D01*
X234925066Y-105561954D01*
X234919285Y-105556715D01*
X234914046Y-105550934D01*
X234909398Y-105544668D01*
X234905387Y-105537976D01*
X234902052Y-105530923D01*
X234899423Y-105523578D01*
X234897528Y-105516010D01*
X234896383Y-105508292D01*
X234896000Y-105500500D01*
X234896000Y-105299500D01*
X234896383Y-105291708D01*
X234897528Y-105283990D01*
X234899423Y-105276422D01*
X234902052Y-105269077D01*
X234905387Y-105262024D01*
X234909398Y-105255332D01*
X234914046Y-105249066D01*
X234919285Y-105243285D01*
X234925066Y-105238046D01*
X234931332Y-105233398D01*
X234938024Y-105229387D01*
X234945077Y-105226052D01*
X234952422Y-105223423D01*
X234959990Y-105221528D01*
X234967708Y-105220383D01*
X234975500Y-105220000D01*
X235134500Y-105220000D01*
X235142292Y-105220383D01*
X235142292Y-105220383D01*
G37*
D22*
X235055000Y-105400000D03*
D12*
G36*
X235832292Y-105220383D02*
X235840010Y-105221528D01*
X235847578Y-105223423D01*
X235854923Y-105226052D01*
X235861976Y-105229387D01*
X235868668Y-105233398D01*
X235874934Y-105238046D01*
X235880715Y-105243285D01*
X235885954Y-105249066D01*
X235890602Y-105255332D01*
X235894613Y-105262024D01*
X235897948Y-105269077D01*
X235900577Y-105276422D01*
X235902472Y-105283990D01*
X235903617Y-105291708D01*
X235904000Y-105299500D01*
X235904000Y-105500500D01*
X235903617Y-105508292D01*
X235902472Y-105516010D01*
X235900577Y-105523578D01*
X235897948Y-105530923D01*
X235894613Y-105537976D01*
X235890602Y-105544668D01*
X235885954Y-105550934D01*
X235880715Y-105556715D01*
X235874934Y-105561954D01*
X235868668Y-105566602D01*
X235861976Y-105570613D01*
X235854923Y-105573948D01*
X235847578Y-105576577D01*
X235840010Y-105578472D01*
X235832292Y-105579617D01*
X235824500Y-105580000D01*
X235665500Y-105580000D01*
X235657708Y-105579617D01*
X235649990Y-105578472D01*
X235642422Y-105576577D01*
X235635077Y-105573948D01*
X235628024Y-105570613D01*
X235621332Y-105566602D01*
X235615066Y-105561954D01*
X235609285Y-105556715D01*
X235604046Y-105550934D01*
X235599398Y-105544668D01*
X235595387Y-105537976D01*
X235592052Y-105530923D01*
X235589423Y-105523578D01*
X235587528Y-105516010D01*
X235586383Y-105508292D01*
X235586000Y-105500500D01*
X235586000Y-105299500D01*
X235586383Y-105291708D01*
X235587528Y-105283990D01*
X235589423Y-105276422D01*
X235592052Y-105269077D01*
X235595387Y-105262024D01*
X235599398Y-105255332D01*
X235604046Y-105249066D01*
X235609285Y-105243285D01*
X235615066Y-105238046D01*
X235621332Y-105233398D01*
X235628024Y-105229387D01*
X235635077Y-105226052D01*
X235642422Y-105223423D01*
X235649990Y-105221528D01*
X235657708Y-105220383D01*
X235665500Y-105220000D01*
X235824500Y-105220000D01*
X235832292Y-105220383D01*
X235832292Y-105220383D01*
G37*
D22*
X235745000Y-105400000D03*
G04 #@! TD*
D12*
G04 #@! TO.C,R19*
G36*
X235142292Y-106820383D02*
X235150010Y-106821528D01*
X235157578Y-106823423D01*
X235164923Y-106826052D01*
X235171976Y-106829387D01*
X235178668Y-106833398D01*
X235184934Y-106838046D01*
X235190715Y-106843285D01*
X235195954Y-106849066D01*
X235200602Y-106855332D01*
X235204613Y-106862024D01*
X235207948Y-106869077D01*
X235210577Y-106876422D01*
X235212472Y-106883990D01*
X235213617Y-106891708D01*
X235214000Y-106899500D01*
X235214000Y-107100500D01*
X235213617Y-107108292D01*
X235212472Y-107116010D01*
X235210577Y-107123578D01*
X235207948Y-107130923D01*
X235204613Y-107137976D01*
X235200602Y-107144668D01*
X235195954Y-107150934D01*
X235190715Y-107156715D01*
X235184934Y-107161954D01*
X235178668Y-107166602D01*
X235171976Y-107170613D01*
X235164923Y-107173948D01*
X235157578Y-107176577D01*
X235150010Y-107178472D01*
X235142292Y-107179617D01*
X235134500Y-107180000D01*
X234975500Y-107180000D01*
X234967708Y-107179617D01*
X234959990Y-107178472D01*
X234952422Y-107176577D01*
X234945077Y-107173948D01*
X234938024Y-107170613D01*
X234931332Y-107166602D01*
X234925066Y-107161954D01*
X234919285Y-107156715D01*
X234914046Y-107150934D01*
X234909398Y-107144668D01*
X234905387Y-107137976D01*
X234902052Y-107130923D01*
X234899423Y-107123578D01*
X234897528Y-107116010D01*
X234896383Y-107108292D01*
X234896000Y-107100500D01*
X234896000Y-106899500D01*
X234896383Y-106891708D01*
X234897528Y-106883990D01*
X234899423Y-106876422D01*
X234902052Y-106869077D01*
X234905387Y-106862024D01*
X234909398Y-106855332D01*
X234914046Y-106849066D01*
X234919285Y-106843285D01*
X234925066Y-106838046D01*
X234931332Y-106833398D01*
X234938024Y-106829387D01*
X234945077Y-106826052D01*
X234952422Y-106823423D01*
X234959990Y-106821528D01*
X234967708Y-106820383D01*
X234975500Y-106820000D01*
X235134500Y-106820000D01*
X235142292Y-106820383D01*
X235142292Y-106820383D01*
G37*
D22*
X235055000Y-107000000D03*
D12*
G36*
X235832292Y-106820383D02*
X235840010Y-106821528D01*
X235847578Y-106823423D01*
X235854923Y-106826052D01*
X235861976Y-106829387D01*
X235868668Y-106833398D01*
X235874934Y-106838046D01*
X235880715Y-106843285D01*
X235885954Y-106849066D01*
X235890602Y-106855332D01*
X235894613Y-106862024D01*
X235897948Y-106869077D01*
X235900577Y-106876422D01*
X235902472Y-106883990D01*
X235903617Y-106891708D01*
X235904000Y-106899500D01*
X235904000Y-107100500D01*
X235903617Y-107108292D01*
X235902472Y-107116010D01*
X235900577Y-107123578D01*
X235897948Y-107130923D01*
X235894613Y-107137976D01*
X235890602Y-107144668D01*
X235885954Y-107150934D01*
X235880715Y-107156715D01*
X235874934Y-107161954D01*
X235868668Y-107166602D01*
X235861976Y-107170613D01*
X235854923Y-107173948D01*
X235847578Y-107176577D01*
X235840010Y-107178472D01*
X235832292Y-107179617D01*
X235824500Y-107180000D01*
X235665500Y-107180000D01*
X235657708Y-107179617D01*
X235649990Y-107178472D01*
X235642422Y-107176577D01*
X235635077Y-107173948D01*
X235628024Y-107170613D01*
X235621332Y-107166602D01*
X235615066Y-107161954D01*
X235609285Y-107156715D01*
X235604046Y-107150934D01*
X235599398Y-107144668D01*
X235595387Y-107137976D01*
X235592052Y-107130923D01*
X235589423Y-107123578D01*
X235587528Y-107116010D01*
X235586383Y-107108292D01*
X235586000Y-107100500D01*
X235586000Y-106899500D01*
X235586383Y-106891708D01*
X235587528Y-106883990D01*
X235589423Y-106876422D01*
X235592052Y-106869077D01*
X235595387Y-106862024D01*
X235599398Y-106855332D01*
X235604046Y-106849066D01*
X235609285Y-106843285D01*
X235615066Y-106838046D01*
X235621332Y-106833398D01*
X235628024Y-106829387D01*
X235635077Y-106826052D01*
X235642422Y-106823423D01*
X235649990Y-106821528D01*
X235657708Y-106820383D01*
X235665500Y-106820000D01*
X235824500Y-106820000D01*
X235832292Y-106820383D01*
X235832292Y-106820383D01*
G37*
D22*
X235745000Y-107000000D03*
G04 #@! TD*
D12*
G04 #@! TO.C,R20*
G36*
X202676958Y-92180710D02*
X202691276Y-92182834D01*
X202705317Y-92186351D01*
X202718946Y-92191228D01*
X202732031Y-92197417D01*
X202744447Y-92204858D01*
X202756073Y-92213481D01*
X202766798Y-92223202D01*
X202776519Y-92233927D01*
X202785142Y-92245553D01*
X202792583Y-92257969D01*
X202798772Y-92271054D01*
X202803649Y-92284683D01*
X202807166Y-92298724D01*
X202809290Y-92313042D01*
X202810000Y-92327500D01*
X202810000Y-92672500D01*
X202809290Y-92686958D01*
X202807166Y-92701276D01*
X202803649Y-92715317D01*
X202798772Y-92728946D01*
X202792583Y-92742031D01*
X202785142Y-92754447D01*
X202776519Y-92766073D01*
X202766798Y-92776798D01*
X202756073Y-92786519D01*
X202744447Y-92795142D01*
X202732031Y-92802583D01*
X202718946Y-92808772D01*
X202705317Y-92813649D01*
X202691276Y-92817166D01*
X202676958Y-92819290D01*
X202662500Y-92820000D01*
X202367500Y-92820000D01*
X202353042Y-92819290D01*
X202338724Y-92817166D01*
X202324683Y-92813649D01*
X202311054Y-92808772D01*
X202297969Y-92802583D01*
X202285553Y-92795142D01*
X202273927Y-92786519D01*
X202263202Y-92776798D01*
X202253481Y-92766073D01*
X202244858Y-92754447D01*
X202237417Y-92742031D01*
X202231228Y-92728946D01*
X202226351Y-92715317D01*
X202222834Y-92701276D01*
X202220710Y-92686958D01*
X202220000Y-92672500D01*
X202220000Y-92327500D01*
X202220710Y-92313042D01*
X202222834Y-92298724D01*
X202226351Y-92284683D01*
X202231228Y-92271054D01*
X202237417Y-92257969D01*
X202244858Y-92245553D01*
X202253481Y-92233927D01*
X202263202Y-92223202D01*
X202273927Y-92213481D01*
X202285553Y-92204858D01*
X202297969Y-92197417D01*
X202311054Y-92191228D01*
X202324683Y-92186351D01*
X202338724Y-92182834D01*
X202353042Y-92180710D01*
X202367500Y-92180000D01*
X202662500Y-92180000D01*
X202676958Y-92180710D01*
X202676958Y-92180710D01*
G37*
D13*
X202515000Y-92500000D03*
D12*
G36*
X203646958Y-92180710D02*
X203661276Y-92182834D01*
X203675317Y-92186351D01*
X203688946Y-92191228D01*
X203702031Y-92197417D01*
X203714447Y-92204858D01*
X203726073Y-92213481D01*
X203736798Y-92223202D01*
X203746519Y-92233927D01*
X203755142Y-92245553D01*
X203762583Y-92257969D01*
X203768772Y-92271054D01*
X203773649Y-92284683D01*
X203777166Y-92298724D01*
X203779290Y-92313042D01*
X203780000Y-92327500D01*
X203780000Y-92672500D01*
X203779290Y-92686958D01*
X203777166Y-92701276D01*
X203773649Y-92715317D01*
X203768772Y-92728946D01*
X203762583Y-92742031D01*
X203755142Y-92754447D01*
X203746519Y-92766073D01*
X203736798Y-92776798D01*
X203726073Y-92786519D01*
X203714447Y-92795142D01*
X203702031Y-92802583D01*
X203688946Y-92808772D01*
X203675317Y-92813649D01*
X203661276Y-92817166D01*
X203646958Y-92819290D01*
X203632500Y-92820000D01*
X203337500Y-92820000D01*
X203323042Y-92819290D01*
X203308724Y-92817166D01*
X203294683Y-92813649D01*
X203281054Y-92808772D01*
X203267969Y-92802583D01*
X203255553Y-92795142D01*
X203243927Y-92786519D01*
X203233202Y-92776798D01*
X203223481Y-92766073D01*
X203214858Y-92754447D01*
X203207417Y-92742031D01*
X203201228Y-92728946D01*
X203196351Y-92715317D01*
X203192834Y-92701276D01*
X203190710Y-92686958D01*
X203190000Y-92672500D01*
X203190000Y-92327500D01*
X203190710Y-92313042D01*
X203192834Y-92298724D01*
X203196351Y-92284683D01*
X203201228Y-92271054D01*
X203207417Y-92257969D01*
X203214858Y-92245553D01*
X203223481Y-92233927D01*
X203233202Y-92223202D01*
X203243927Y-92213481D01*
X203255553Y-92204858D01*
X203267969Y-92197417D01*
X203281054Y-92191228D01*
X203294683Y-92186351D01*
X203308724Y-92182834D01*
X203323042Y-92180710D01*
X203337500Y-92180000D01*
X203632500Y-92180000D01*
X203646958Y-92180710D01*
X203646958Y-92180710D01*
G37*
D13*
X203485000Y-92500000D03*
G04 #@! TD*
D11*
G04 #@! TO.C,SW3*
X209850000Y-86400000D03*
X209850000Y-92600000D03*
X206150000Y-86400000D03*
X206150000Y-92600000D03*
G04 #@! TD*
D12*
G04 #@! TO.C,U3*
G36*
X228467252Y-94835602D02*
X228479386Y-94837402D01*
X228491286Y-94840382D01*
X228502835Y-94844515D01*
X228513925Y-94849760D01*
X228524446Y-94856066D01*
X228534299Y-94863374D01*
X228543388Y-94871612D01*
X228551626Y-94880701D01*
X228558934Y-94890554D01*
X228565240Y-94901075D01*
X228570485Y-94912165D01*
X228574618Y-94923714D01*
X228577598Y-94935614D01*
X228579398Y-94947748D01*
X228580000Y-94960000D01*
X228580000Y-95210000D01*
X228579398Y-95222252D01*
X228577598Y-95234386D01*
X228574618Y-95246286D01*
X228570485Y-95257835D01*
X228565240Y-95268925D01*
X228558934Y-95279446D01*
X228551626Y-95289299D01*
X228543388Y-95298388D01*
X228534299Y-95306626D01*
X228524446Y-95313934D01*
X228513925Y-95320240D01*
X228502835Y-95325485D01*
X228491286Y-95329618D01*
X228479386Y-95332598D01*
X228467252Y-95334398D01*
X228455000Y-95335000D01*
X227930000Y-95335000D01*
X227917748Y-95334398D01*
X227905614Y-95332598D01*
X227893714Y-95329618D01*
X227882165Y-95325485D01*
X227871075Y-95320240D01*
X227860554Y-95313934D01*
X227850701Y-95306626D01*
X227841612Y-95298388D01*
X227833374Y-95289299D01*
X227826066Y-95279446D01*
X227819760Y-95268925D01*
X227814515Y-95257835D01*
X227810382Y-95246286D01*
X227807402Y-95234386D01*
X227805602Y-95222252D01*
X227805000Y-95210000D01*
X227805000Y-94960000D01*
X227805602Y-94947748D01*
X227807402Y-94935614D01*
X227810382Y-94923714D01*
X227814515Y-94912165D01*
X227819760Y-94901075D01*
X227826066Y-94890554D01*
X227833374Y-94880701D01*
X227841612Y-94871612D01*
X227850701Y-94863374D01*
X227860554Y-94856066D01*
X227871075Y-94849760D01*
X227882165Y-94844515D01*
X227893714Y-94840382D01*
X227905614Y-94837402D01*
X227917748Y-94835602D01*
X227930000Y-94835000D01*
X228455000Y-94835000D01*
X228467252Y-94835602D01*
X228467252Y-94835602D01*
G37*
D23*
X228192500Y-95085000D03*
D12*
G36*
X228467252Y-96105602D02*
X228479386Y-96107402D01*
X228491286Y-96110382D01*
X228502835Y-96114515D01*
X228513925Y-96119760D01*
X228524446Y-96126066D01*
X228534299Y-96133374D01*
X228543388Y-96141612D01*
X228551626Y-96150701D01*
X228558934Y-96160554D01*
X228565240Y-96171075D01*
X228570485Y-96182165D01*
X228574618Y-96193714D01*
X228577598Y-96205614D01*
X228579398Y-96217748D01*
X228580000Y-96230000D01*
X228580000Y-96480000D01*
X228579398Y-96492252D01*
X228577598Y-96504386D01*
X228574618Y-96516286D01*
X228570485Y-96527835D01*
X228565240Y-96538925D01*
X228558934Y-96549446D01*
X228551626Y-96559299D01*
X228543388Y-96568388D01*
X228534299Y-96576626D01*
X228524446Y-96583934D01*
X228513925Y-96590240D01*
X228502835Y-96595485D01*
X228491286Y-96599618D01*
X228479386Y-96602598D01*
X228467252Y-96604398D01*
X228455000Y-96605000D01*
X227930000Y-96605000D01*
X227917748Y-96604398D01*
X227905614Y-96602598D01*
X227893714Y-96599618D01*
X227882165Y-96595485D01*
X227871075Y-96590240D01*
X227860554Y-96583934D01*
X227850701Y-96576626D01*
X227841612Y-96568388D01*
X227833374Y-96559299D01*
X227826066Y-96549446D01*
X227819760Y-96538925D01*
X227814515Y-96527835D01*
X227810382Y-96516286D01*
X227807402Y-96504386D01*
X227805602Y-96492252D01*
X227805000Y-96480000D01*
X227805000Y-96230000D01*
X227805602Y-96217748D01*
X227807402Y-96205614D01*
X227810382Y-96193714D01*
X227814515Y-96182165D01*
X227819760Y-96171075D01*
X227826066Y-96160554D01*
X227833374Y-96150701D01*
X227841612Y-96141612D01*
X227850701Y-96133374D01*
X227860554Y-96126066D01*
X227871075Y-96119760D01*
X227882165Y-96114515D01*
X227893714Y-96110382D01*
X227905614Y-96107402D01*
X227917748Y-96105602D01*
X227930000Y-96105000D01*
X228455000Y-96105000D01*
X228467252Y-96105602D01*
X228467252Y-96105602D01*
G37*
D23*
X228192500Y-96355000D03*
D12*
G36*
X228467252Y-97375602D02*
X228479386Y-97377402D01*
X228491286Y-97380382D01*
X228502835Y-97384515D01*
X228513925Y-97389760D01*
X228524446Y-97396066D01*
X228534299Y-97403374D01*
X228543388Y-97411612D01*
X228551626Y-97420701D01*
X228558934Y-97430554D01*
X228565240Y-97441075D01*
X228570485Y-97452165D01*
X228574618Y-97463714D01*
X228577598Y-97475614D01*
X228579398Y-97487748D01*
X228580000Y-97500000D01*
X228580000Y-97750000D01*
X228579398Y-97762252D01*
X228577598Y-97774386D01*
X228574618Y-97786286D01*
X228570485Y-97797835D01*
X228565240Y-97808925D01*
X228558934Y-97819446D01*
X228551626Y-97829299D01*
X228543388Y-97838388D01*
X228534299Y-97846626D01*
X228524446Y-97853934D01*
X228513925Y-97860240D01*
X228502835Y-97865485D01*
X228491286Y-97869618D01*
X228479386Y-97872598D01*
X228467252Y-97874398D01*
X228455000Y-97875000D01*
X227930000Y-97875000D01*
X227917748Y-97874398D01*
X227905614Y-97872598D01*
X227893714Y-97869618D01*
X227882165Y-97865485D01*
X227871075Y-97860240D01*
X227860554Y-97853934D01*
X227850701Y-97846626D01*
X227841612Y-97838388D01*
X227833374Y-97829299D01*
X227826066Y-97819446D01*
X227819760Y-97808925D01*
X227814515Y-97797835D01*
X227810382Y-97786286D01*
X227807402Y-97774386D01*
X227805602Y-97762252D01*
X227805000Y-97750000D01*
X227805000Y-97500000D01*
X227805602Y-97487748D01*
X227807402Y-97475614D01*
X227810382Y-97463714D01*
X227814515Y-97452165D01*
X227819760Y-97441075D01*
X227826066Y-97430554D01*
X227833374Y-97420701D01*
X227841612Y-97411612D01*
X227850701Y-97403374D01*
X227860554Y-97396066D01*
X227871075Y-97389760D01*
X227882165Y-97384515D01*
X227893714Y-97380382D01*
X227905614Y-97377402D01*
X227917748Y-97375602D01*
X227930000Y-97375000D01*
X228455000Y-97375000D01*
X228467252Y-97375602D01*
X228467252Y-97375602D01*
G37*
D23*
X228192500Y-97625000D03*
D12*
G36*
X228467252Y-98645602D02*
X228479386Y-98647402D01*
X228491286Y-98650382D01*
X228502835Y-98654515D01*
X228513925Y-98659760D01*
X228524446Y-98666066D01*
X228534299Y-98673374D01*
X228543388Y-98681612D01*
X228551626Y-98690701D01*
X228558934Y-98700554D01*
X228565240Y-98711075D01*
X228570485Y-98722165D01*
X228574618Y-98733714D01*
X228577598Y-98745614D01*
X228579398Y-98757748D01*
X228580000Y-98770000D01*
X228580000Y-99020000D01*
X228579398Y-99032252D01*
X228577598Y-99044386D01*
X228574618Y-99056286D01*
X228570485Y-99067835D01*
X228565240Y-99078925D01*
X228558934Y-99089446D01*
X228551626Y-99099299D01*
X228543388Y-99108388D01*
X228534299Y-99116626D01*
X228524446Y-99123934D01*
X228513925Y-99130240D01*
X228502835Y-99135485D01*
X228491286Y-99139618D01*
X228479386Y-99142598D01*
X228467252Y-99144398D01*
X228455000Y-99145000D01*
X227930000Y-99145000D01*
X227917748Y-99144398D01*
X227905614Y-99142598D01*
X227893714Y-99139618D01*
X227882165Y-99135485D01*
X227871075Y-99130240D01*
X227860554Y-99123934D01*
X227850701Y-99116626D01*
X227841612Y-99108388D01*
X227833374Y-99099299D01*
X227826066Y-99089446D01*
X227819760Y-99078925D01*
X227814515Y-99067835D01*
X227810382Y-99056286D01*
X227807402Y-99044386D01*
X227805602Y-99032252D01*
X227805000Y-99020000D01*
X227805000Y-98770000D01*
X227805602Y-98757748D01*
X227807402Y-98745614D01*
X227810382Y-98733714D01*
X227814515Y-98722165D01*
X227819760Y-98711075D01*
X227826066Y-98700554D01*
X227833374Y-98690701D01*
X227841612Y-98681612D01*
X227850701Y-98673374D01*
X227860554Y-98666066D01*
X227871075Y-98659760D01*
X227882165Y-98654515D01*
X227893714Y-98650382D01*
X227905614Y-98647402D01*
X227917748Y-98645602D01*
X227930000Y-98645000D01*
X228455000Y-98645000D01*
X228467252Y-98645602D01*
X228467252Y-98645602D01*
G37*
D23*
X228192500Y-98895000D03*
D12*
G36*
X223142252Y-98645602D02*
X223154386Y-98647402D01*
X223166286Y-98650382D01*
X223177835Y-98654515D01*
X223188925Y-98659760D01*
X223199446Y-98666066D01*
X223209299Y-98673374D01*
X223218388Y-98681612D01*
X223226626Y-98690701D01*
X223233934Y-98700554D01*
X223240240Y-98711075D01*
X223245485Y-98722165D01*
X223249618Y-98733714D01*
X223252598Y-98745614D01*
X223254398Y-98757748D01*
X223255000Y-98770000D01*
X223255000Y-99020000D01*
X223254398Y-99032252D01*
X223252598Y-99044386D01*
X223249618Y-99056286D01*
X223245485Y-99067835D01*
X223240240Y-99078925D01*
X223233934Y-99089446D01*
X223226626Y-99099299D01*
X223218388Y-99108388D01*
X223209299Y-99116626D01*
X223199446Y-99123934D01*
X223188925Y-99130240D01*
X223177835Y-99135485D01*
X223166286Y-99139618D01*
X223154386Y-99142598D01*
X223142252Y-99144398D01*
X223130000Y-99145000D01*
X222605000Y-99145000D01*
X222592748Y-99144398D01*
X222580614Y-99142598D01*
X222568714Y-99139618D01*
X222557165Y-99135485D01*
X222546075Y-99130240D01*
X222535554Y-99123934D01*
X222525701Y-99116626D01*
X222516612Y-99108388D01*
X222508374Y-99099299D01*
X222501066Y-99089446D01*
X222494760Y-99078925D01*
X222489515Y-99067835D01*
X222485382Y-99056286D01*
X222482402Y-99044386D01*
X222480602Y-99032252D01*
X222480000Y-99020000D01*
X222480000Y-98770000D01*
X222480602Y-98757748D01*
X222482402Y-98745614D01*
X222485382Y-98733714D01*
X222489515Y-98722165D01*
X222494760Y-98711075D01*
X222501066Y-98700554D01*
X222508374Y-98690701D01*
X222516612Y-98681612D01*
X222525701Y-98673374D01*
X222535554Y-98666066D01*
X222546075Y-98659760D01*
X222557165Y-98654515D01*
X222568714Y-98650382D01*
X222580614Y-98647402D01*
X222592748Y-98645602D01*
X222605000Y-98645000D01*
X223130000Y-98645000D01*
X223142252Y-98645602D01*
X223142252Y-98645602D01*
G37*
D23*
X222867500Y-98895000D03*
D12*
G36*
X223142252Y-97375602D02*
X223154386Y-97377402D01*
X223166286Y-97380382D01*
X223177835Y-97384515D01*
X223188925Y-97389760D01*
X223199446Y-97396066D01*
X223209299Y-97403374D01*
X223218388Y-97411612D01*
X223226626Y-97420701D01*
X223233934Y-97430554D01*
X223240240Y-97441075D01*
X223245485Y-97452165D01*
X223249618Y-97463714D01*
X223252598Y-97475614D01*
X223254398Y-97487748D01*
X223255000Y-97500000D01*
X223255000Y-97750000D01*
X223254398Y-97762252D01*
X223252598Y-97774386D01*
X223249618Y-97786286D01*
X223245485Y-97797835D01*
X223240240Y-97808925D01*
X223233934Y-97819446D01*
X223226626Y-97829299D01*
X223218388Y-97838388D01*
X223209299Y-97846626D01*
X223199446Y-97853934D01*
X223188925Y-97860240D01*
X223177835Y-97865485D01*
X223166286Y-97869618D01*
X223154386Y-97872598D01*
X223142252Y-97874398D01*
X223130000Y-97875000D01*
X222605000Y-97875000D01*
X222592748Y-97874398D01*
X222580614Y-97872598D01*
X222568714Y-97869618D01*
X222557165Y-97865485D01*
X222546075Y-97860240D01*
X222535554Y-97853934D01*
X222525701Y-97846626D01*
X222516612Y-97838388D01*
X222508374Y-97829299D01*
X222501066Y-97819446D01*
X222494760Y-97808925D01*
X222489515Y-97797835D01*
X222485382Y-97786286D01*
X222482402Y-97774386D01*
X222480602Y-97762252D01*
X222480000Y-97750000D01*
X222480000Y-97500000D01*
X222480602Y-97487748D01*
X222482402Y-97475614D01*
X222485382Y-97463714D01*
X222489515Y-97452165D01*
X222494760Y-97441075D01*
X222501066Y-97430554D01*
X222508374Y-97420701D01*
X222516612Y-97411612D01*
X222525701Y-97403374D01*
X222535554Y-97396066D01*
X222546075Y-97389760D01*
X222557165Y-97384515D01*
X222568714Y-97380382D01*
X222580614Y-97377402D01*
X222592748Y-97375602D01*
X222605000Y-97375000D01*
X223130000Y-97375000D01*
X223142252Y-97375602D01*
X223142252Y-97375602D01*
G37*
D23*
X222867500Y-97625000D03*
D12*
G36*
X223142252Y-96105602D02*
X223154386Y-96107402D01*
X223166286Y-96110382D01*
X223177835Y-96114515D01*
X223188925Y-96119760D01*
X223199446Y-96126066D01*
X223209299Y-96133374D01*
X223218388Y-96141612D01*
X223226626Y-96150701D01*
X223233934Y-96160554D01*
X223240240Y-96171075D01*
X223245485Y-96182165D01*
X223249618Y-96193714D01*
X223252598Y-96205614D01*
X223254398Y-96217748D01*
X223255000Y-96230000D01*
X223255000Y-96480000D01*
X223254398Y-96492252D01*
X223252598Y-96504386D01*
X223249618Y-96516286D01*
X223245485Y-96527835D01*
X223240240Y-96538925D01*
X223233934Y-96549446D01*
X223226626Y-96559299D01*
X223218388Y-96568388D01*
X223209299Y-96576626D01*
X223199446Y-96583934D01*
X223188925Y-96590240D01*
X223177835Y-96595485D01*
X223166286Y-96599618D01*
X223154386Y-96602598D01*
X223142252Y-96604398D01*
X223130000Y-96605000D01*
X222605000Y-96605000D01*
X222592748Y-96604398D01*
X222580614Y-96602598D01*
X222568714Y-96599618D01*
X222557165Y-96595485D01*
X222546075Y-96590240D01*
X222535554Y-96583934D01*
X222525701Y-96576626D01*
X222516612Y-96568388D01*
X222508374Y-96559299D01*
X222501066Y-96549446D01*
X222494760Y-96538925D01*
X222489515Y-96527835D01*
X222485382Y-96516286D01*
X222482402Y-96504386D01*
X222480602Y-96492252D01*
X222480000Y-96480000D01*
X222480000Y-96230000D01*
X222480602Y-96217748D01*
X222482402Y-96205614D01*
X222485382Y-96193714D01*
X222489515Y-96182165D01*
X222494760Y-96171075D01*
X222501066Y-96160554D01*
X222508374Y-96150701D01*
X222516612Y-96141612D01*
X222525701Y-96133374D01*
X222535554Y-96126066D01*
X222546075Y-96119760D01*
X222557165Y-96114515D01*
X222568714Y-96110382D01*
X222580614Y-96107402D01*
X222592748Y-96105602D01*
X222605000Y-96105000D01*
X223130000Y-96105000D01*
X223142252Y-96105602D01*
X223142252Y-96105602D01*
G37*
D23*
X222867500Y-96355000D03*
D12*
G36*
X223142252Y-94835602D02*
X223154386Y-94837402D01*
X223166286Y-94840382D01*
X223177835Y-94844515D01*
X223188925Y-94849760D01*
X223199446Y-94856066D01*
X223209299Y-94863374D01*
X223218388Y-94871612D01*
X223226626Y-94880701D01*
X223233934Y-94890554D01*
X223240240Y-94901075D01*
X223245485Y-94912165D01*
X223249618Y-94923714D01*
X223252598Y-94935614D01*
X223254398Y-94947748D01*
X223255000Y-94960000D01*
X223255000Y-95210000D01*
X223254398Y-95222252D01*
X223252598Y-95234386D01*
X223249618Y-95246286D01*
X223245485Y-95257835D01*
X223240240Y-95268925D01*
X223233934Y-95279446D01*
X223226626Y-95289299D01*
X223218388Y-95298388D01*
X223209299Y-95306626D01*
X223199446Y-95313934D01*
X223188925Y-95320240D01*
X223177835Y-95325485D01*
X223166286Y-95329618D01*
X223154386Y-95332598D01*
X223142252Y-95334398D01*
X223130000Y-95335000D01*
X222605000Y-95335000D01*
X222592748Y-95334398D01*
X222580614Y-95332598D01*
X222568714Y-95329618D01*
X222557165Y-95325485D01*
X222546075Y-95320240D01*
X222535554Y-95313934D01*
X222525701Y-95306626D01*
X222516612Y-95298388D01*
X222508374Y-95289299D01*
X222501066Y-95279446D01*
X222494760Y-95268925D01*
X222489515Y-95257835D01*
X222485382Y-95246286D01*
X222482402Y-95234386D01*
X222480602Y-95222252D01*
X222480000Y-95210000D01*
X222480000Y-94960000D01*
X222480602Y-94947748D01*
X222482402Y-94935614D01*
X222485382Y-94923714D01*
X222489515Y-94912165D01*
X222494760Y-94901075D01*
X222501066Y-94890554D01*
X222508374Y-94880701D01*
X222516612Y-94871612D01*
X222525701Y-94863374D01*
X222535554Y-94856066D01*
X222546075Y-94849760D01*
X222557165Y-94844515D01*
X222568714Y-94840382D01*
X222580614Y-94837402D01*
X222592748Y-94835602D01*
X222605000Y-94835000D01*
X223130000Y-94835000D01*
X223142252Y-94835602D01*
X223142252Y-94835602D01*
G37*
D23*
X222867500Y-95085000D03*
D12*
G36*
X226839504Y-97186204D02*
X226863773Y-97189804D01*
X226887571Y-97195765D01*
X226910671Y-97204030D01*
X226932849Y-97214520D01*
X226953893Y-97227133D01*
X226973598Y-97241747D01*
X226991777Y-97258223D01*
X227008253Y-97276402D01*
X227022867Y-97296107D01*
X227035480Y-97317151D01*
X227045970Y-97339329D01*
X227054235Y-97362429D01*
X227060196Y-97386227D01*
X227063796Y-97410496D01*
X227065000Y-97435000D01*
X227065000Y-98545000D01*
X227063796Y-98569504D01*
X227060196Y-98593773D01*
X227054235Y-98617571D01*
X227045970Y-98640671D01*
X227035480Y-98662849D01*
X227022867Y-98683893D01*
X227008253Y-98703598D01*
X226991777Y-98721777D01*
X226973598Y-98738253D01*
X226953893Y-98752867D01*
X226932849Y-98765480D01*
X226910671Y-98775970D01*
X226887571Y-98784235D01*
X226863773Y-98790196D01*
X226839504Y-98793796D01*
X226815000Y-98795000D01*
X225945000Y-98795000D01*
X225920496Y-98793796D01*
X225896227Y-98790196D01*
X225872429Y-98784235D01*
X225849329Y-98775970D01*
X225827151Y-98765480D01*
X225806107Y-98752867D01*
X225786402Y-98738253D01*
X225768223Y-98721777D01*
X225751747Y-98703598D01*
X225737133Y-98683893D01*
X225724520Y-98662849D01*
X225714030Y-98640671D01*
X225705765Y-98617571D01*
X225699804Y-98593773D01*
X225696204Y-98569504D01*
X225695000Y-98545000D01*
X225695000Y-97435000D01*
X225696204Y-97410496D01*
X225699804Y-97386227D01*
X225705765Y-97362429D01*
X225714030Y-97339329D01*
X225724520Y-97317151D01*
X225737133Y-97296107D01*
X225751747Y-97276402D01*
X225768223Y-97258223D01*
X225786402Y-97241747D01*
X225806107Y-97227133D01*
X225827151Y-97214520D01*
X225849329Y-97204030D01*
X225872429Y-97195765D01*
X225896227Y-97189804D01*
X225920496Y-97186204D01*
X225945000Y-97185000D01*
X226815000Y-97185000D01*
X226839504Y-97186204D01*
X226839504Y-97186204D01*
G37*
D24*
X226380000Y-97990000D03*
D12*
G36*
X226839504Y-95186204D02*
X226863773Y-95189804D01*
X226887571Y-95195765D01*
X226910671Y-95204030D01*
X226932849Y-95214520D01*
X226953893Y-95227133D01*
X226973598Y-95241747D01*
X226991777Y-95258223D01*
X227008253Y-95276402D01*
X227022867Y-95296107D01*
X227035480Y-95317151D01*
X227045970Y-95339329D01*
X227054235Y-95362429D01*
X227060196Y-95386227D01*
X227063796Y-95410496D01*
X227065000Y-95435000D01*
X227065000Y-96545000D01*
X227063796Y-96569504D01*
X227060196Y-96593773D01*
X227054235Y-96617571D01*
X227045970Y-96640671D01*
X227035480Y-96662849D01*
X227022867Y-96683893D01*
X227008253Y-96703598D01*
X226991777Y-96721777D01*
X226973598Y-96738253D01*
X226953893Y-96752867D01*
X226932849Y-96765480D01*
X226910671Y-96775970D01*
X226887571Y-96784235D01*
X226863773Y-96790196D01*
X226839504Y-96793796D01*
X226815000Y-96795000D01*
X225945000Y-96795000D01*
X225920496Y-96793796D01*
X225896227Y-96790196D01*
X225872429Y-96784235D01*
X225849329Y-96775970D01*
X225827151Y-96765480D01*
X225806107Y-96752867D01*
X225786402Y-96738253D01*
X225768223Y-96721777D01*
X225751747Y-96703598D01*
X225737133Y-96683893D01*
X225724520Y-96662849D01*
X225714030Y-96640671D01*
X225705765Y-96617571D01*
X225699804Y-96593773D01*
X225696204Y-96569504D01*
X225695000Y-96545000D01*
X225695000Y-95435000D01*
X225696204Y-95410496D01*
X225699804Y-95386227D01*
X225705765Y-95362429D01*
X225714030Y-95339329D01*
X225724520Y-95317151D01*
X225737133Y-95296107D01*
X225751747Y-95276402D01*
X225768223Y-95258223D01*
X225786402Y-95241747D01*
X225806107Y-95227133D01*
X225827151Y-95214520D01*
X225849329Y-95204030D01*
X225872429Y-95195765D01*
X225896227Y-95189804D01*
X225920496Y-95186204D01*
X225945000Y-95185000D01*
X226815000Y-95185000D01*
X226839504Y-95186204D01*
X226839504Y-95186204D01*
G37*
D24*
X226380000Y-95990000D03*
D12*
G36*
X225139504Y-97186204D02*
X225163773Y-97189804D01*
X225187571Y-97195765D01*
X225210671Y-97204030D01*
X225232849Y-97214520D01*
X225253893Y-97227133D01*
X225273598Y-97241747D01*
X225291777Y-97258223D01*
X225308253Y-97276402D01*
X225322867Y-97296107D01*
X225335480Y-97317151D01*
X225345970Y-97339329D01*
X225354235Y-97362429D01*
X225360196Y-97386227D01*
X225363796Y-97410496D01*
X225365000Y-97435000D01*
X225365000Y-98545000D01*
X225363796Y-98569504D01*
X225360196Y-98593773D01*
X225354235Y-98617571D01*
X225345970Y-98640671D01*
X225335480Y-98662849D01*
X225322867Y-98683893D01*
X225308253Y-98703598D01*
X225291777Y-98721777D01*
X225273598Y-98738253D01*
X225253893Y-98752867D01*
X225232849Y-98765480D01*
X225210671Y-98775970D01*
X225187571Y-98784235D01*
X225163773Y-98790196D01*
X225139504Y-98793796D01*
X225115000Y-98795000D01*
X224245000Y-98795000D01*
X224220496Y-98793796D01*
X224196227Y-98790196D01*
X224172429Y-98784235D01*
X224149329Y-98775970D01*
X224127151Y-98765480D01*
X224106107Y-98752867D01*
X224086402Y-98738253D01*
X224068223Y-98721777D01*
X224051747Y-98703598D01*
X224037133Y-98683893D01*
X224024520Y-98662849D01*
X224014030Y-98640671D01*
X224005765Y-98617571D01*
X223999804Y-98593773D01*
X223996204Y-98569504D01*
X223995000Y-98545000D01*
X223995000Y-97435000D01*
X223996204Y-97410496D01*
X223999804Y-97386227D01*
X224005765Y-97362429D01*
X224014030Y-97339329D01*
X224024520Y-97317151D01*
X224037133Y-97296107D01*
X224051747Y-97276402D01*
X224068223Y-97258223D01*
X224086402Y-97241747D01*
X224106107Y-97227133D01*
X224127151Y-97214520D01*
X224149329Y-97204030D01*
X224172429Y-97195765D01*
X224196227Y-97189804D01*
X224220496Y-97186204D01*
X224245000Y-97185000D01*
X225115000Y-97185000D01*
X225139504Y-97186204D01*
X225139504Y-97186204D01*
G37*
D24*
X224680000Y-97990000D03*
D12*
G36*
X225139504Y-95186204D02*
X225163773Y-95189804D01*
X225187571Y-95195765D01*
X225210671Y-95204030D01*
X225232849Y-95214520D01*
X225253893Y-95227133D01*
X225273598Y-95241747D01*
X225291777Y-95258223D01*
X225308253Y-95276402D01*
X225322867Y-95296107D01*
X225335480Y-95317151D01*
X225345970Y-95339329D01*
X225354235Y-95362429D01*
X225360196Y-95386227D01*
X225363796Y-95410496D01*
X225365000Y-95435000D01*
X225365000Y-96545000D01*
X225363796Y-96569504D01*
X225360196Y-96593773D01*
X225354235Y-96617571D01*
X225345970Y-96640671D01*
X225335480Y-96662849D01*
X225322867Y-96683893D01*
X225308253Y-96703598D01*
X225291777Y-96721777D01*
X225273598Y-96738253D01*
X225253893Y-96752867D01*
X225232849Y-96765480D01*
X225210671Y-96775970D01*
X225187571Y-96784235D01*
X225163773Y-96790196D01*
X225139504Y-96793796D01*
X225115000Y-96795000D01*
X224245000Y-96795000D01*
X224220496Y-96793796D01*
X224196227Y-96790196D01*
X224172429Y-96784235D01*
X224149329Y-96775970D01*
X224127151Y-96765480D01*
X224106107Y-96752867D01*
X224086402Y-96738253D01*
X224068223Y-96721777D01*
X224051747Y-96703598D01*
X224037133Y-96683893D01*
X224024520Y-96662849D01*
X224014030Y-96640671D01*
X224005765Y-96617571D01*
X223999804Y-96593773D01*
X223996204Y-96569504D01*
X223995000Y-96545000D01*
X223995000Y-95435000D01*
X223996204Y-95410496D01*
X223999804Y-95386227D01*
X224005765Y-95362429D01*
X224014030Y-95339329D01*
X224024520Y-95317151D01*
X224037133Y-95296107D01*
X224051747Y-95276402D01*
X224068223Y-95258223D01*
X224086402Y-95241747D01*
X224106107Y-95227133D01*
X224127151Y-95214520D01*
X224149329Y-95204030D01*
X224172429Y-95195765D01*
X224196227Y-95189804D01*
X224220496Y-95186204D01*
X224245000Y-95185000D01*
X225115000Y-95185000D01*
X225139504Y-95186204D01*
X225139504Y-95186204D01*
G37*
D24*
X224680000Y-95990000D03*
G04 #@! TD*
M02*
