M48
; DRILL file {KiCad 5.1.5+dfsg1-2build2} date Wed 18 Nov 2020 17:15:01 GMT
; FORMAT={-:-/ absolute / inch / decimal}
; #@! TF.CreationDate,2020-11-18T17:15:01+00:00
; #@! TF.GenerationSoftware,Kicad,Pcbnew,5.1.5+dfsg1-2build2
; #@! TF.FileFunction,Plated,1,4,PTH
FMAT,2
INCH
T1C0.0079
T2C0.0236
T3C0.0335
T4C0.0394
T5C0.0512
%
G90
G05
T1
X7.8937Y-3.4843
X7.8937Y-4.3898
X8.0118Y-3.3661
X8.0118Y-4.5079
X8.0815Y-4.0661
X8.0982Y-3.797
X8.1142Y-3.6083
X8.1144Y-3.8132
X8.1398Y-3.8268
X8.1693Y-3.8563
X8.2323Y-3.7539
X8.2323Y-3.8898
X8.2854Y-3.8248
X8.2854Y-3.8622
X8.315Y-3.5472
X8.3768Y-4.2969
X8.3878Y-3.7677
X8.3878Y-3.8543
X8.4114Y-3.5472
X8.4193Y-3.7677
X8.4193Y-3.8543
X8.4606Y-3.5807
X8.4764Y-4.2972
X8.5035Y-4.1555
X8.522Y-4.1937
X8.5291Y-4.1575
X8.5335Y-3.874
X8.5524Y-4.1398
X8.5677Y-4.1154
X8.5776Y-3.6555
X8.578Y-4.2957
X8.5866Y-3.8268
X8.598Y-4.1756
X8.6268Y-4.1201
X8.6697Y-4.3047
X8.6846Y-4.1795
X8.6969Y-3.9154
X8.7138Y-4.0791
X8.7169Y-4.1831
X8.7201Y-4.0465
X8.7244Y-3.8705
X8.7244Y-3.8933
X8.7433Y-4.1846
X8.748Y-3.8484
X8.7531Y-3.9894
X8.7535Y-3.9661
X8.785Y-3.9843
X8.785Y-4.0626
X8.785Y-4.126
X8.8248Y-3.8484
X8.8327Y-3.9291
X8.8835Y-3.9732
X8.8835Y-4.1366
X8.8937Y-3.7736
X8.8996Y-3.8307
X8.9213Y-3.8012
X8.935Y-4.1378
X8.9543Y-3.6445
X8.9783Y-3.8031
X8.9907Y-3.6275
X8.9941Y-3.8327
X9.0063Y-3.5953
X9.0098Y-3.8465
X9.0143Y-3.6274
X9.0315Y-3.8642
X9.0332Y-3.6131
X9.0487Y-3.5953
X9.0512Y-3.8917
X9.065Y-3.7598
X9.0669Y-3.9055
X9.0815Y-4.0071
X9.0906Y-3.685
X9.0945Y-3.8091
X9.1043Y-3.9449
X9.1043Y-3.9803
X9.1094Y-3.5197
X9.1142Y-3.7894
X9.1256Y-3.6713
X9.1339Y-4.0079
X9.1378Y-3.4898
X9.1437Y-3.6909
X9.1437Y-3.8386
X9.1516Y-4.065
X9.1589Y-4.1383
X9.1633Y-4.0922
X9.1638Y-3.7061
X9.1668Y-4.1155
X9.1909Y-3.7441
X9.2098Y-3.6539
X9.2106Y-3.8228
X9.2606Y-3.6957
X9.2618Y-3.9114
X9.2697Y-4.2047
X9.2717Y-3.611
X9.2972Y-4.376
X9.3228Y-4.0787
X9.3272Y-3.6579
X9.3425Y-3.5874
X9.3425Y-3.9587
X9.3626Y-3.9933
X9.3752Y-3.5555
X9.378Y-3.9665
X9.3803Y-3.6319
X9.3917Y-4.3839
X9.3976Y-4.2331
X9.4297Y-3.9886
X9.438Y-3.9213
X9.4386Y-3.6799
X9.4536Y-3.9874
X9.4596Y-4.0413
X9.4636Y-3.7106
X9.4636Y-3.7697
X9.4636Y-3.8287
X9.4636Y-3.8878
X9.4685Y-4.0059
X9.4724Y-4.3996
X9.4902Y-4.2244
X9.561Y-3.7106
X9.561Y-3.7697
X9.561Y-3.8287
X9.561Y-3.8878
X9.5669Y-4.0059
X9.7047Y-3.3661
X9.7047Y-4.5079
X9.8228Y-3.4843
X9.8228Y-4.3898
T3
X8.0399Y-3.7402
X8.0399Y-3.937
T4
X9.2026Y-3.4055
X9.3026Y-3.4055
X9.4026Y-3.4055
X9.5026Y-3.4055
X9.6026Y-3.4055
X8.149Y-4.254
X8.149Y-4.354
X8.249Y-4.254
X8.249Y-4.354
X8.349Y-4.254
X8.349Y-4.354
X8.449Y-4.254
X8.449Y-4.354
X8.549Y-4.254
X8.549Y-4.354
X8.649Y-4.254
X8.649Y-4.354
X8.855Y-4.36
X8.855Y-4.46
X9.0494Y-4.254
X9.0494Y-4.354
X9.1494Y-4.254
X9.1494Y-4.354
X9.2494Y-4.254
X9.2494Y-4.354
X9.3494Y-4.254
X9.3494Y-4.354
X9.4494Y-4.254
X9.4494Y-4.354
X9.5494Y-4.254
X9.5494Y-4.354
T5
X9.5472Y-3.5925
X9.5472Y-4.1634
X9.7402Y-3.5689
X9.7402Y-4.187
T2
G00X7.9198Y-3.7008
M15
G01X7.9473Y-3.7008
M16
G05
G00X7.9473Y-3.9764
M15
G01X7.9198Y-3.9764
M16
G05
T0
M30
