G04 #@! TF.GenerationSoftware,KiCad,Pcbnew,5.0.2-bee76a0~70~ubuntu18.04.1*
G04 #@! TF.CreationDate,2020-08-11T13:50:02+01:00*
G04 #@! TF.ProjectId,picodvi,7069636f-6476-4692-9e6b-696361645f70,rev?*
G04 #@! TF.SameCoordinates,Original*
G04 #@! TF.FileFunction,Copper,L3,Inr*
G04 #@! TF.FilePolarity,Positive*
%FSLAX46Y46*%
G04 Gerber Fmt 4.6, Leading zero omitted, Abs format (unit mm)*
G04 Created by KiCad (PCBNEW 5.0.2-bee76a0~70~ubuntu18.04.1) date Tue 11 Aug 2020 13:50:02 BST*
%MOMM*%
%LPD*%
G01*
G04 APERTURE LIST*
G04 #@! TA.AperFunction,ViaPad*
%ADD10C,1.900000*%
G04 #@! TD*
G04 #@! TA.AperFunction,ViaPad*
%ADD11C,1.450000*%
G04 #@! TD*
G04 #@! TA.AperFunction,ViaPad*
%ADD12O,1.900000X1.200000*%
G04 #@! TD*
G04 #@! TA.AperFunction,ViaPad*
%ADD13R,1.700000X1.700000*%
G04 #@! TD*
G04 #@! TA.AperFunction,ViaPad*
%ADD14O,1.700000X1.700000*%
G04 #@! TD*
G04 #@! TA.AperFunction,ViaPad*
%ADD15C,0.600000*%
G04 #@! TD*
G04 #@! TA.AperFunction,ViaPad*
%ADD16C,0.450000*%
G04 #@! TD*
G04 #@! TA.AperFunction,Conductor*
%ADD17C,0.500000*%
G04 #@! TD*
G04 #@! TA.AperFunction,Conductor*
%ADD18C,0.150000*%
G04 #@! TD*
G04 #@! TA.AperFunction,Conductor*
%ADD19C,0.200000*%
G04 #@! TD*
G04 APERTURE END LIST*
D10*
G04 #@! TO.N,GND*
G04 #@! TO.C,J5*
X247400000Y-97150000D03*
X247400000Y-112850000D03*
X242500000Y-97750000D03*
X242500000Y-112250000D03*
G04 #@! TD*
D11*
G04 #@! TO.N,GND*
G04 #@! TO.C,J1*
X204162500Y-102500000D03*
X204162500Y-107500000D03*
D12*
X201462500Y-101500000D03*
X201462500Y-108500000D03*
G04 #@! TD*
D13*
G04 #@! TO.N,/PMOD0_0*
G04 #@! TO.C,J3*
X219710000Y-116840000D03*
D14*
G04 #@! TO.N,/PMOD0_4*
X219710000Y-119380000D03*
G04 #@! TO.N,/PMOD0_1*
X217170000Y-116840000D03*
G04 #@! TO.N,/PMOD0_5*
X217170000Y-119380000D03*
G04 #@! TO.N,/PMOD0_2*
X214630000Y-116840000D03*
G04 #@! TO.N,/PMOD0_6*
X214630000Y-119380000D03*
G04 #@! TO.N,/PMOD0_3*
X212090000Y-116840000D03*
G04 #@! TO.N,/PMOD0_7*
X212090000Y-119380000D03*
G04 #@! TO.N,GND*
X209550000Y-116840000D03*
X209550000Y-119380000D03*
G04 #@! TO.N,+3V3*
X207010000Y-116840000D03*
X207010000Y-119380000D03*
G04 #@! TD*
G04 #@! TO.N,+3V3*
G04 #@! TO.C,J4*
X229870000Y-119380000D03*
X229870000Y-116840000D03*
G04 #@! TO.N,GND*
X232410000Y-119380000D03*
X232410000Y-116840000D03*
G04 #@! TO.N,/PMOD1_7*
X234950000Y-119380000D03*
G04 #@! TO.N,/PMOD1_3*
X234950000Y-116840000D03*
G04 #@! TO.N,/PMOD1_6*
X237490000Y-119380000D03*
G04 #@! TO.N,/PMOD1_2*
X237490000Y-116840000D03*
G04 #@! TO.N,/PMOD1_5*
X240030000Y-119380000D03*
G04 #@! TO.N,/PMOD1_1*
X240030000Y-116840000D03*
G04 #@! TO.N,/PMOD1_4*
X242570000Y-119380000D03*
D13*
G04 #@! TO.N,/PMOD1_0*
X242570000Y-116840000D03*
G04 #@! TD*
G04 #@! TO.N,VBUS*
G04 #@! TO.C,J6*
X224925056Y-119830226D03*
D14*
G04 #@! TO.N,GND*
X224925056Y-122370226D03*
G04 #@! TD*
D13*
G04 #@! TO.N,/UART_RX*
G04 #@! TO.C,J2*
X232840000Y-87500000D03*
D14*
G04 #@! TO.N,/UART_TX*
X235380000Y-87500000D03*
G04 #@! TO.N,/SWCLK*
X237920000Y-87500000D03*
G04 #@! TO.N,/SWDIO*
X240460000Y-87500000D03*
G04 #@! TO.N,GND*
X243000000Y-87500000D03*
G04 #@! TD*
D15*
G04 #@! TO.N,+3V3*
X215500000Y-103600000D03*
D16*
X230600000Y-102300000D03*
X226800000Y-108300000D03*
X233250000Y-108250000D03*
X233200000Y-101800000D03*
X227300000Y-106000000D03*
X226774295Y-101950010D03*
D15*
X227800000Y-117000000D03*
D16*
X230063495Y-107704760D03*
X232625000Y-102375000D03*
X214250000Y-96200000D03*
X204500000Y-99500000D03*
X236000000Y-111750000D03*
X232140000Y-105520000D03*
D15*
X216800000Y-104200000D03*
D16*
X226400000Y-93400000D03*
X227000000Y-93400000D03*
X219300000Y-99200000D03*
G04 #@! TO.N,GND*
X205000000Y-86000000D03*
X234760000Y-113790000D03*
D15*
X216800000Y-105700000D03*
D16*
X229750000Y-105250000D03*
X230250000Y-104750000D03*
X232300000Y-100500000D03*
X220300000Y-102100000D03*
X225200000Y-102100000D03*
D15*
X215500000Y-106400000D03*
D16*
X229250000Y-111150000D03*
X233580000Y-110150000D03*
D15*
X209500000Y-106400000D03*
X204000000Y-116500000D03*
X203000000Y-117500000D03*
X228346000Y-119634000D03*
X227000000Y-116600000D03*
D16*
X230250000Y-105250000D03*
X229750000Y-104750000D03*
X235250000Y-100150000D03*
X223200000Y-104350000D03*
X220200000Y-96200000D03*
X201000000Y-90000000D03*
X201000000Y-120000000D03*
X205000000Y-124000000D03*
X245000000Y-124000000D03*
X249000000Y-120000000D03*
X245000000Y-86000000D03*
X249000000Y-90000000D03*
X215850000Y-91100000D03*
X226100000Y-108200000D03*
X240800000Y-118100000D03*
X224600000Y-115100000D03*
X224790000Y-118364000D03*
X215300000Y-121000000D03*
X232000000Y-110700000D03*
X243000000Y-100750000D03*
X243000000Y-102250000D03*
X243000000Y-103750000D03*
X243000000Y-105250000D03*
X243000000Y-108250000D03*
X223600000Y-93400000D03*
X226100000Y-110400000D03*
X231100000Y-87500000D03*
X240050000Y-99675000D03*
X233581794Y-108818206D03*
X217900000Y-97000000D03*
X240400000Y-105250000D03*
X240400000Y-103750000D03*
X240400000Y-102250000D03*
X240400000Y-100750000D03*
X218160000Y-91040000D03*
X228265694Y-89534306D03*
X230449990Y-98000000D03*
X232660000Y-105000000D03*
X239850000Y-108500000D03*
X241300000Y-115350000D03*
X239800000Y-106200000D03*
X237520000Y-106050000D03*
X235530000Y-107630000D03*
D15*
X212550000Y-105300000D03*
X205600000Y-105750000D03*
X205600000Y-106600000D03*
X207450000Y-104650000D03*
D16*
X234300000Y-101150000D03*
X225500000Y-95400000D03*
X225500000Y-98600000D03*
X223400000Y-97000000D03*
X227600000Y-97000000D03*
X230500000Y-100500000D03*
X223000000Y-93400000D03*
X215850000Y-94150000D03*
G04 #@! TO.N,+1V1*
X230000000Y-102900000D03*
X231500000Y-102900000D03*
X230700000Y-107500000D03*
D15*
G04 #@! TO.N,VBUS*
X209500000Y-103650000D03*
D16*
X240316085Y-108929311D03*
X237250000Y-111750000D03*
X238500000Y-111750000D03*
G04 #@! TO.N,/SWCLK*
X230825740Y-109317935D03*
G04 #@! TO.N,/SWDIO*
X231420028Y-109235259D03*
G04 #@! TO.N,/PMOD0_4*
X222149968Y-116800000D03*
G04 #@! TO.N,/PMOD1_7*
X228072750Y-110500009D03*
G04 #@! TO.N,/PMOD1_6*
X227151957Y-110385519D03*
G04 #@! TO.N,/PMOD1_5*
X226799434Y-109899987D03*
G04 #@! TO.N,/PMOD1_4*
X226136142Y-109599976D03*
G04 #@! TO.N,/RUN_~RST~*
X231924993Y-109559333D03*
X212306797Y-96950010D03*
G04 #@! TO.N,/UART_RX*
X233104754Y-109342833D03*
X237200000Y-90250000D03*
G04 #@! TO.N,/UART_TX*
X232570132Y-109615217D03*
X237793209Y-89642380D03*
G04 #@! TO.N,/USER_LED_BUTTON*
X205000000Y-94000000D03*
X232792998Y-106437529D03*
G04 #@! TO.N,/uC_DVI_SCL*
X237250000Y-108740000D03*
G04 #@! TO.N,/uC_DVI_SDA*
X238494268Y-109190010D03*
G04 #@! TO.N,/uC_DVI_CEC*
X236000000Y-108224999D03*
G04 #@! TD*
D17*
G04 #@! TO.N,VBUS*
X223266000Y-120139282D02*
X223266000Y-124100000D01*
X223575056Y-119830226D02*
X223266000Y-120139282D01*
X224925056Y-119830226D02*
X223575056Y-119830226D01*
X223266000Y-124100000D02*
X242500000Y-124100000D01*
X242500000Y-124100000D02*
X249400000Y-117200000D01*
X247129311Y-108929311D02*
X240634283Y-108929311D01*
X240634283Y-108929311D02*
X240316085Y-108929311D01*
X249400000Y-111200000D02*
X247129311Y-108929311D01*
X249400000Y-117200000D02*
X249400000Y-111200000D01*
D18*
X240316085Y-108929311D02*
X240316085Y-110466085D01*
X240316085Y-110466085D02*
X238992170Y-111790000D01*
X238992170Y-111790000D02*
X237340000Y-111790000D01*
D17*
X209500000Y-105400000D02*
X204400000Y-110500000D01*
X200475010Y-111624990D02*
X200475010Y-116997008D01*
X209500000Y-103650000D02*
X209500000Y-105400000D01*
X200475010Y-116997008D02*
X207578002Y-124100000D01*
X207578002Y-124100000D02*
X223266000Y-124100000D01*
X204400000Y-110500000D02*
X201600000Y-110500000D01*
X201600000Y-110500000D02*
X200475010Y-111624990D01*
G04 #@! TD*
D19*
G04 #@! TO.N,+3V3*
G36*
X247192645Y-85400000D02*
X247082284Y-85400000D01*
X246310446Y-85719706D01*
X245719706Y-86310446D01*
X245400000Y-87082284D01*
X245400000Y-87917716D01*
X245719706Y-88689554D01*
X246310446Y-89280294D01*
X247082284Y-89600000D01*
X247917716Y-89600000D01*
X248689554Y-89280294D01*
X249280294Y-88689554D01*
X249600000Y-87917716D01*
X249600000Y-87736576D01*
X249625000Y-88016697D01*
X249625001Y-110647184D01*
X247556527Y-108578711D01*
X247525839Y-108532783D01*
X247343910Y-108411222D01*
X247183481Y-108379311D01*
X247183480Y-108379311D01*
X247129311Y-108368536D01*
X247075142Y-108379311D01*
X243514693Y-108379311D01*
X243525000Y-108354429D01*
X243525000Y-108145571D01*
X243445073Y-107952612D01*
X243297388Y-107804927D01*
X243104429Y-107725000D01*
X242895571Y-107725000D01*
X242702612Y-107804927D01*
X242554927Y-107952612D01*
X242475000Y-108145571D01*
X242475000Y-108354429D01*
X242485307Y-108379311D01*
X240368265Y-108379311D01*
X240295073Y-108202612D01*
X240147388Y-108054927D01*
X239954429Y-107975000D01*
X239745571Y-107975000D01*
X239552612Y-108054927D01*
X239404927Y-108202612D01*
X239325000Y-108395571D01*
X239325000Y-108604429D01*
X239404927Y-108797388D01*
X239552612Y-108945073D01*
X239745571Y-109025000D01*
X239774344Y-109025000D01*
X239797996Y-109143910D01*
X239919557Y-109325839D01*
X239941085Y-109340224D01*
X239941086Y-110310754D01*
X238872151Y-111379690D01*
X238797388Y-111304927D01*
X238604429Y-111225000D01*
X238395571Y-111225000D01*
X238202612Y-111304927D01*
X238092539Y-111415000D01*
X237657461Y-111415000D01*
X237547388Y-111304927D01*
X237354429Y-111225000D01*
X237145571Y-111225000D01*
X236952612Y-111304927D01*
X236804927Y-111452612D01*
X236725000Y-111645571D01*
X236725000Y-111854429D01*
X236804927Y-112047388D01*
X236952612Y-112195073D01*
X237145571Y-112275000D01*
X237354429Y-112275000D01*
X237547388Y-112195073D01*
X237577461Y-112165000D01*
X238172539Y-112165000D01*
X238202612Y-112195073D01*
X238395571Y-112275000D01*
X238604429Y-112275000D01*
X238797388Y-112195073D01*
X238827461Y-112165000D01*
X238955244Y-112165000D01*
X238992170Y-112172345D01*
X239029096Y-112165000D01*
X239029101Y-112165000D01*
X239138487Y-112143242D01*
X239262529Y-112060359D01*
X239283450Y-112029050D01*
X239311140Y-112001360D01*
X241250000Y-112001360D01*
X241250000Y-112498640D01*
X241440301Y-112958068D01*
X241791932Y-113309699D01*
X242251360Y-113500000D01*
X242748640Y-113500000D01*
X243208068Y-113309699D01*
X243559699Y-112958068D01*
X243707452Y-112601360D01*
X246150000Y-112601360D01*
X246150000Y-113098640D01*
X246340301Y-113558068D01*
X246691932Y-113909699D01*
X247151360Y-114100000D01*
X247648640Y-114100000D01*
X248108068Y-113909699D01*
X248459699Y-113558068D01*
X248650000Y-113098640D01*
X248650000Y-112601360D01*
X248459699Y-112141932D01*
X248108068Y-111790301D01*
X247648640Y-111600000D01*
X247151360Y-111600000D01*
X246691932Y-111790301D01*
X246340301Y-112141932D01*
X246150000Y-112601360D01*
X243707452Y-112601360D01*
X243750000Y-112498640D01*
X243750000Y-112001360D01*
X243559699Y-111541932D01*
X243208068Y-111190301D01*
X242748640Y-111000000D01*
X242251360Y-111000000D01*
X241791932Y-111190301D01*
X241440301Y-111541932D01*
X241250000Y-112001360D01*
X239311140Y-112001360D01*
X240555137Y-110757363D01*
X240586444Y-110736444D01*
X240607504Y-110704927D01*
X240669326Y-110612403D01*
X240669327Y-110612402D01*
X240691085Y-110503016D01*
X240691085Y-110503011D01*
X240698430Y-110466085D01*
X240691085Y-110429159D01*
X240691085Y-109479311D01*
X246901495Y-109479311D01*
X248850001Y-111427818D01*
X248850000Y-116972182D01*
X242272184Y-123550000D01*
X223816000Y-123550000D01*
X223816000Y-122689328D01*
X223841780Y-122818933D01*
X224095953Y-123199329D01*
X224476349Y-123453502D01*
X224811795Y-123520226D01*
X225038317Y-123520226D01*
X225373763Y-123453502D01*
X225754159Y-123199329D01*
X226008332Y-122818933D01*
X226097585Y-122370226D01*
X226008332Y-121921519D01*
X225754159Y-121541123D01*
X225373763Y-121286950D01*
X225038317Y-121220226D01*
X224811795Y-121220226D01*
X224476349Y-121286950D01*
X224095953Y-121541123D01*
X223841780Y-121921519D01*
X223816000Y-122051124D01*
X223816000Y-120832506D01*
X223858768Y-120896514D01*
X223958002Y-120962819D01*
X224075056Y-120986103D01*
X225775056Y-120986103D01*
X225892110Y-120962819D01*
X225991344Y-120896514D01*
X226057649Y-120797280D01*
X226080933Y-120680226D01*
X226080933Y-119514653D01*
X227746000Y-119514653D01*
X227746000Y-119753347D01*
X227837344Y-119973873D01*
X228006127Y-120142656D01*
X228226653Y-120234000D01*
X228465347Y-120234000D01*
X228685873Y-120142656D01*
X228843260Y-119985269D01*
X228860114Y-120028179D01*
X229185034Y-120365306D01*
X229614234Y-120552429D01*
X229657627Y-120561058D01*
X229845000Y-120492219D01*
X229845000Y-119405000D01*
X229895000Y-119405000D01*
X229895000Y-120492219D01*
X230082373Y-120561058D01*
X230125766Y-120552429D01*
X230554966Y-120365306D01*
X230879886Y-120028179D01*
X231051060Y-119592373D01*
X230982242Y-119405000D01*
X229895000Y-119405000D01*
X229845000Y-119405000D01*
X229825000Y-119405000D01*
X229825000Y-119380000D01*
X231237471Y-119380000D01*
X231326724Y-119828707D01*
X231580897Y-120209103D01*
X231961293Y-120463276D01*
X232296739Y-120530000D01*
X232523261Y-120530000D01*
X232858707Y-120463276D01*
X233239103Y-120209103D01*
X233493276Y-119828707D01*
X233582529Y-119380000D01*
X233777471Y-119380000D01*
X233866724Y-119828707D01*
X234120897Y-120209103D01*
X234501293Y-120463276D01*
X234836739Y-120530000D01*
X235063261Y-120530000D01*
X235398707Y-120463276D01*
X235779103Y-120209103D01*
X236033276Y-119828707D01*
X236122529Y-119380000D01*
X236317471Y-119380000D01*
X236406724Y-119828707D01*
X236660897Y-120209103D01*
X237041293Y-120463276D01*
X237376739Y-120530000D01*
X237603261Y-120530000D01*
X237938707Y-120463276D01*
X238319103Y-120209103D01*
X238573276Y-119828707D01*
X238662529Y-119380000D01*
X238573276Y-118931293D01*
X238319103Y-118550897D01*
X237938707Y-118296724D01*
X237603261Y-118230000D01*
X237376739Y-118230000D01*
X237041293Y-118296724D01*
X236660897Y-118550897D01*
X236406724Y-118931293D01*
X236317471Y-119380000D01*
X236122529Y-119380000D01*
X236033276Y-118931293D01*
X235779103Y-118550897D01*
X235398707Y-118296724D01*
X235063261Y-118230000D01*
X234836739Y-118230000D01*
X234501293Y-118296724D01*
X234120897Y-118550897D01*
X233866724Y-118931293D01*
X233777471Y-119380000D01*
X233582529Y-119380000D01*
X233493276Y-118931293D01*
X233239103Y-118550897D01*
X232858707Y-118296724D01*
X232523261Y-118230000D01*
X232296739Y-118230000D01*
X231961293Y-118296724D01*
X231580897Y-118550897D01*
X231326724Y-118931293D01*
X231237471Y-119380000D01*
X229825000Y-119380000D01*
X229825000Y-119355000D01*
X229845000Y-119355000D01*
X229845000Y-118267781D01*
X229895000Y-118267781D01*
X229895000Y-119355000D01*
X230982242Y-119355000D01*
X231051060Y-119167627D01*
X230879886Y-118731821D01*
X230554966Y-118394694D01*
X230125766Y-118207571D01*
X230082373Y-118198942D01*
X229895000Y-118267781D01*
X229845000Y-118267781D01*
X229657627Y-118198942D01*
X229614234Y-118207571D01*
X229185034Y-118394694D01*
X228860114Y-118731821D01*
X228699999Y-119139470D01*
X228685873Y-119125344D01*
X228465347Y-119034000D01*
X228226653Y-119034000D01*
X228006127Y-119125344D01*
X227837344Y-119294127D01*
X227746000Y-119514653D01*
X226080933Y-119514653D01*
X226080933Y-118980226D01*
X226057649Y-118863172D01*
X225991344Y-118763938D01*
X225892110Y-118697633D01*
X225775056Y-118674349D01*
X225222112Y-118674349D01*
X225235073Y-118661388D01*
X225315000Y-118468429D01*
X225315000Y-118259571D01*
X225235073Y-118066612D01*
X225087388Y-117918927D01*
X224894429Y-117839000D01*
X224685571Y-117839000D01*
X224492612Y-117918927D01*
X224344927Y-118066612D01*
X224265000Y-118259571D01*
X224265000Y-118468429D01*
X224344927Y-118661388D01*
X224357888Y-118674349D01*
X224075056Y-118674349D01*
X223958002Y-118697633D01*
X223858768Y-118763938D01*
X223792463Y-118863172D01*
X223769179Y-118980226D01*
X223769179Y-119280226D01*
X223629224Y-119280226D01*
X223575055Y-119269451D01*
X223520886Y-119280226D01*
X223360457Y-119312137D01*
X223178528Y-119433698D01*
X223147840Y-119479626D01*
X222915400Y-119712066D01*
X222869472Y-119742754D01*
X222747911Y-119924684D01*
X222738127Y-119973873D01*
X222705225Y-120139282D01*
X222716000Y-120193451D01*
X222716001Y-123550000D01*
X207805819Y-123550000D01*
X205151390Y-120895571D01*
X214775000Y-120895571D01*
X214775000Y-121104429D01*
X214854927Y-121297388D01*
X215002612Y-121445073D01*
X215195571Y-121525000D01*
X215404429Y-121525000D01*
X215597388Y-121445073D01*
X215745073Y-121297388D01*
X215825000Y-121104429D01*
X215825000Y-120895571D01*
X215745073Y-120702612D01*
X215597388Y-120554927D01*
X215404429Y-120475000D01*
X215195571Y-120475000D01*
X215002612Y-120554927D01*
X214854927Y-120702612D01*
X214775000Y-120895571D01*
X205151390Y-120895571D01*
X203848192Y-119592373D01*
X205828940Y-119592373D01*
X206000114Y-120028179D01*
X206325034Y-120365306D01*
X206754234Y-120552429D01*
X206797627Y-120561058D01*
X206985000Y-120492219D01*
X206985000Y-119405000D01*
X207035000Y-119405000D01*
X207035000Y-120492219D01*
X207222373Y-120561058D01*
X207265766Y-120552429D01*
X207694966Y-120365306D01*
X208019886Y-120028179D01*
X208191060Y-119592373D01*
X208122242Y-119405000D01*
X207035000Y-119405000D01*
X206985000Y-119405000D01*
X205897758Y-119405000D01*
X205828940Y-119592373D01*
X203848192Y-119592373D01*
X203635819Y-119380000D01*
X208377471Y-119380000D01*
X208466724Y-119828707D01*
X208720897Y-120209103D01*
X209101293Y-120463276D01*
X209436739Y-120530000D01*
X209663261Y-120530000D01*
X209998707Y-120463276D01*
X210379103Y-120209103D01*
X210633276Y-119828707D01*
X210722529Y-119380000D01*
X210917471Y-119380000D01*
X211006724Y-119828707D01*
X211260897Y-120209103D01*
X211641293Y-120463276D01*
X211976739Y-120530000D01*
X212203261Y-120530000D01*
X212538707Y-120463276D01*
X212919103Y-120209103D01*
X213173276Y-119828707D01*
X213262529Y-119380000D01*
X213457471Y-119380000D01*
X213546724Y-119828707D01*
X213800897Y-120209103D01*
X214181293Y-120463276D01*
X214516739Y-120530000D01*
X214743261Y-120530000D01*
X215078707Y-120463276D01*
X215459103Y-120209103D01*
X215713276Y-119828707D01*
X215802529Y-119380000D01*
X215997471Y-119380000D01*
X216086724Y-119828707D01*
X216340897Y-120209103D01*
X216721293Y-120463276D01*
X217056739Y-120530000D01*
X217283261Y-120530000D01*
X217618707Y-120463276D01*
X217999103Y-120209103D01*
X218253276Y-119828707D01*
X218342529Y-119380000D01*
X218537471Y-119380000D01*
X218626724Y-119828707D01*
X218880897Y-120209103D01*
X219261293Y-120463276D01*
X219596739Y-120530000D01*
X219823261Y-120530000D01*
X220158707Y-120463276D01*
X220539103Y-120209103D01*
X220793276Y-119828707D01*
X220882529Y-119380000D01*
X220793276Y-118931293D01*
X220539103Y-118550897D01*
X220158707Y-118296724D01*
X219823261Y-118230000D01*
X219596739Y-118230000D01*
X219261293Y-118296724D01*
X218880897Y-118550897D01*
X218626724Y-118931293D01*
X218537471Y-119380000D01*
X218342529Y-119380000D01*
X218253276Y-118931293D01*
X217999103Y-118550897D01*
X217618707Y-118296724D01*
X217283261Y-118230000D01*
X217056739Y-118230000D01*
X216721293Y-118296724D01*
X216340897Y-118550897D01*
X216086724Y-118931293D01*
X215997471Y-119380000D01*
X215802529Y-119380000D01*
X215713276Y-118931293D01*
X215459103Y-118550897D01*
X215078707Y-118296724D01*
X214743261Y-118230000D01*
X214516739Y-118230000D01*
X214181293Y-118296724D01*
X213800897Y-118550897D01*
X213546724Y-118931293D01*
X213457471Y-119380000D01*
X213262529Y-119380000D01*
X213173276Y-118931293D01*
X212919103Y-118550897D01*
X212538707Y-118296724D01*
X212203261Y-118230000D01*
X211976739Y-118230000D01*
X211641293Y-118296724D01*
X211260897Y-118550897D01*
X211006724Y-118931293D01*
X210917471Y-119380000D01*
X210722529Y-119380000D01*
X210633276Y-118931293D01*
X210379103Y-118550897D01*
X209998707Y-118296724D01*
X209663261Y-118230000D01*
X209436739Y-118230000D01*
X209101293Y-118296724D01*
X208720897Y-118550897D01*
X208466724Y-118931293D01*
X208377471Y-119380000D01*
X203635819Y-119380000D01*
X203423446Y-119167627D01*
X205828940Y-119167627D01*
X205897758Y-119355000D01*
X206985000Y-119355000D01*
X206985000Y-118267781D01*
X207035000Y-118267781D01*
X207035000Y-119355000D01*
X208122242Y-119355000D01*
X208191060Y-119167627D01*
X208019886Y-118731821D01*
X207694966Y-118394694D01*
X207265766Y-118207571D01*
X207222373Y-118198942D01*
X207035000Y-118267781D01*
X206985000Y-118267781D01*
X206797627Y-118198942D01*
X206754234Y-118207571D01*
X206325034Y-118394694D01*
X206000114Y-118731821D01*
X205828940Y-119167627D01*
X203423446Y-119167627D01*
X201636472Y-117380653D01*
X202400000Y-117380653D01*
X202400000Y-117619347D01*
X202491344Y-117839873D01*
X202660127Y-118008656D01*
X202880653Y-118100000D01*
X203119347Y-118100000D01*
X203339873Y-118008656D01*
X203508656Y-117839873D01*
X203600000Y-117619347D01*
X203600000Y-117380653D01*
X203508656Y-117160127D01*
X203339873Y-116991344D01*
X203119347Y-116900000D01*
X202880653Y-116900000D01*
X202660127Y-116991344D01*
X202491344Y-117160127D01*
X202400000Y-117380653D01*
X201636472Y-117380653D01*
X201025010Y-116769192D01*
X201025010Y-116380653D01*
X203400000Y-116380653D01*
X203400000Y-116619347D01*
X203491344Y-116839873D01*
X203660127Y-117008656D01*
X203880653Y-117100000D01*
X204119347Y-117100000D01*
X204234329Y-117052373D01*
X205828940Y-117052373D01*
X206000114Y-117488179D01*
X206325034Y-117825306D01*
X206754234Y-118012429D01*
X206797627Y-118021058D01*
X206985000Y-117952219D01*
X206985000Y-116865000D01*
X207035000Y-116865000D01*
X207035000Y-117952219D01*
X207222373Y-118021058D01*
X207265766Y-118012429D01*
X207694966Y-117825306D01*
X208019886Y-117488179D01*
X208191060Y-117052373D01*
X208122242Y-116865000D01*
X207035000Y-116865000D01*
X206985000Y-116865000D01*
X205897758Y-116865000D01*
X205828940Y-117052373D01*
X204234329Y-117052373D01*
X204339873Y-117008656D01*
X204508529Y-116840000D01*
X208377471Y-116840000D01*
X208466724Y-117288707D01*
X208720897Y-117669103D01*
X209101293Y-117923276D01*
X209436739Y-117990000D01*
X209663261Y-117990000D01*
X209998707Y-117923276D01*
X210379103Y-117669103D01*
X210633276Y-117288707D01*
X210722529Y-116840000D01*
X210917471Y-116840000D01*
X211006724Y-117288707D01*
X211260897Y-117669103D01*
X211641293Y-117923276D01*
X211976739Y-117990000D01*
X212203261Y-117990000D01*
X212538707Y-117923276D01*
X212919103Y-117669103D01*
X213173276Y-117288707D01*
X213262529Y-116840000D01*
X213457471Y-116840000D01*
X213546724Y-117288707D01*
X213800897Y-117669103D01*
X214181293Y-117923276D01*
X214516739Y-117990000D01*
X214743261Y-117990000D01*
X215078707Y-117923276D01*
X215459103Y-117669103D01*
X215713276Y-117288707D01*
X215802529Y-116840000D01*
X215997471Y-116840000D01*
X216086724Y-117288707D01*
X216340897Y-117669103D01*
X216721293Y-117923276D01*
X217056739Y-117990000D01*
X217283261Y-117990000D01*
X217618707Y-117923276D01*
X217999103Y-117669103D01*
X218253276Y-117288707D01*
X218342529Y-116840000D01*
X218253276Y-116391293D01*
X217999103Y-116010897D01*
X217967829Y-115990000D01*
X218554123Y-115990000D01*
X218554123Y-117690000D01*
X218577407Y-117807054D01*
X218643712Y-117906288D01*
X218742946Y-117972593D01*
X218860000Y-117995877D01*
X220560000Y-117995877D01*
X220677054Y-117972593D01*
X220776288Y-117906288D01*
X220842593Y-117807054D01*
X220865877Y-117690000D01*
X220865877Y-116695571D01*
X221624968Y-116695571D01*
X221624968Y-116904429D01*
X221704895Y-117097388D01*
X221852580Y-117245073D01*
X222045539Y-117325000D01*
X222254397Y-117325000D01*
X222447356Y-117245073D01*
X222595041Y-117097388D01*
X222674968Y-116904429D01*
X222674968Y-116695571D01*
X222595041Y-116502612D01*
X222573082Y-116480653D01*
X226400000Y-116480653D01*
X226400000Y-116719347D01*
X226491344Y-116939873D01*
X226660127Y-117108656D01*
X226880653Y-117200000D01*
X227119347Y-117200000D01*
X227339873Y-117108656D01*
X227396156Y-117052373D01*
X228688940Y-117052373D01*
X228860114Y-117488179D01*
X229185034Y-117825306D01*
X229614234Y-118012429D01*
X229657627Y-118021058D01*
X229845000Y-117952219D01*
X229845000Y-116865000D01*
X229895000Y-116865000D01*
X229895000Y-117952219D01*
X230082373Y-118021058D01*
X230125766Y-118012429D01*
X230554966Y-117825306D01*
X230879886Y-117488179D01*
X231051060Y-117052373D01*
X230982242Y-116865000D01*
X229895000Y-116865000D01*
X229845000Y-116865000D01*
X228757758Y-116865000D01*
X228688940Y-117052373D01*
X227396156Y-117052373D01*
X227508656Y-116939873D01*
X227550024Y-116840000D01*
X231237471Y-116840000D01*
X231326724Y-117288707D01*
X231580897Y-117669103D01*
X231961293Y-117923276D01*
X232296739Y-117990000D01*
X232523261Y-117990000D01*
X232858707Y-117923276D01*
X233239103Y-117669103D01*
X233493276Y-117288707D01*
X233582529Y-116840000D01*
X233777471Y-116840000D01*
X233866724Y-117288707D01*
X234120897Y-117669103D01*
X234501293Y-117923276D01*
X234836739Y-117990000D01*
X235063261Y-117990000D01*
X235398707Y-117923276D01*
X235779103Y-117669103D01*
X236033276Y-117288707D01*
X236122529Y-116840000D01*
X236317471Y-116840000D01*
X236406724Y-117288707D01*
X236660897Y-117669103D01*
X237041293Y-117923276D01*
X237376739Y-117990000D01*
X237603261Y-117990000D01*
X237938707Y-117923276D01*
X238319103Y-117669103D01*
X238573276Y-117288707D01*
X238662529Y-116840000D01*
X238857471Y-116840000D01*
X238946724Y-117288707D01*
X239200897Y-117669103D01*
X239581293Y-117923276D01*
X239916739Y-117990000D01*
X240143261Y-117990000D01*
X240289344Y-117960942D01*
X240275000Y-117995571D01*
X240275000Y-118204429D01*
X240298372Y-118260853D01*
X240143261Y-118230000D01*
X239916739Y-118230000D01*
X239581293Y-118296724D01*
X239200897Y-118550897D01*
X238946724Y-118931293D01*
X238857471Y-119380000D01*
X238946724Y-119828707D01*
X239200897Y-120209103D01*
X239581293Y-120463276D01*
X239916739Y-120530000D01*
X240143261Y-120530000D01*
X240478707Y-120463276D01*
X240859103Y-120209103D01*
X241113276Y-119828707D01*
X241202529Y-119380000D01*
X241397471Y-119380000D01*
X241486724Y-119828707D01*
X241740897Y-120209103D01*
X242121293Y-120463276D01*
X242456739Y-120530000D01*
X242683261Y-120530000D01*
X243018707Y-120463276D01*
X243399103Y-120209103D01*
X243653276Y-119828707D01*
X243742529Y-119380000D01*
X243653276Y-118931293D01*
X243399103Y-118550897D01*
X243018707Y-118296724D01*
X242683261Y-118230000D01*
X242456739Y-118230000D01*
X242121293Y-118296724D01*
X241740897Y-118550897D01*
X241486724Y-118931293D01*
X241397471Y-119380000D01*
X241202529Y-119380000D01*
X241113276Y-118931293D01*
X240907709Y-118623641D01*
X241097388Y-118545073D01*
X241245073Y-118397388D01*
X241325000Y-118204429D01*
X241325000Y-117995571D01*
X241245073Y-117802612D01*
X241097388Y-117654927D01*
X240918176Y-117580694D01*
X241113276Y-117288707D01*
X241202529Y-116840000D01*
X241113276Y-116391293D01*
X240859103Y-116010897D01*
X240478707Y-115756724D01*
X240143261Y-115690000D01*
X239916739Y-115690000D01*
X239581293Y-115756724D01*
X239200897Y-116010897D01*
X238946724Y-116391293D01*
X238857471Y-116840000D01*
X238662529Y-116840000D01*
X238573276Y-116391293D01*
X238319103Y-116010897D01*
X237938707Y-115756724D01*
X237603261Y-115690000D01*
X237376739Y-115690000D01*
X237041293Y-115756724D01*
X236660897Y-116010897D01*
X236406724Y-116391293D01*
X236317471Y-116840000D01*
X236122529Y-116840000D01*
X236033276Y-116391293D01*
X235779103Y-116010897D01*
X235398707Y-115756724D01*
X235063261Y-115690000D01*
X234836739Y-115690000D01*
X234501293Y-115756724D01*
X234120897Y-116010897D01*
X233866724Y-116391293D01*
X233777471Y-116840000D01*
X233582529Y-116840000D01*
X233493276Y-116391293D01*
X233239103Y-116010897D01*
X232858707Y-115756724D01*
X232523261Y-115690000D01*
X232296739Y-115690000D01*
X231961293Y-115756724D01*
X231580897Y-116010897D01*
X231326724Y-116391293D01*
X231237471Y-116840000D01*
X227550024Y-116840000D01*
X227600000Y-116719347D01*
X227600000Y-116627627D01*
X228688940Y-116627627D01*
X228757758Y-116815000D01*
X229845000Y-116815000D01*
X229845000Y-115727781D01*
X229895000Y-115727781D01*
X229895000Y-116815000D01*
X230982242Y-116815000D01*
X231051060Y-116627627D01*
X230879886Y-116191821D01*
X230554966Y-115854694D01*
X230125766Y-115667571D01*
X230082373Y-115658942D01*
X229895000Y-115727781D01*
X229845000Y-115727781D01*
X229657627Y-115658942D01*
X229614234Y-115667571D01*
X229185034Y-115854694D01*
X228860114Y-116191821D01*
X228688940Y-116627627D01*
X227600000Y-116627627D01*
X227600000Y-116480653D01*
X227508656Y-116260127D01*
X227339873Y-116091344D01*
X227119347Y-116000000D01*
X226880653Y-116000000D01*
X226660127Y-116091344D01*
X226491344Y-116260127D01*
X226400000Y-116480653D01*
X222573082Y-116480653D01*
X222447356Y-116354927D01*
X222254397Y-116275000D01*
X222045539Y-116275000D01*
X221852580Y-116354927D01*
X221704895Y-116502612D01*
X221624968Y-116695571D01*
X220865877Y-116695571D01*
X220865877Y-115990000D01*
X220842593Y-115872946D01*
X220776288Y-115773712D01*
X220677054Y-115707407D01*
X220560000Y-115684123D01*
X218860000Y-115684123D01*
X218742946Y-115707407D01*
X218643712Y-115773712D01*
X218577407Y-115872946D01*
X218554123Y-115990000D01*
X217967829Y-115990000D01*
X217618707Y-115756724D01*
X217283261Y-115690000D01*
X217056739Y-115690000D01*
X216721293Y-115756724D01*
X216340897Y-116010897D01*
X216086724Y-116391293D01*
X215997471Y-116840000D01*
X215802529Y-116840000D01*
X215713276Y-116391293D01*
X215459103Y-116010897D01*
X215078707Y-115756724D01*
X214743261Y-115690000D01*
X214516739Y-115690000D01*
X214181293Y-115756724D01*
X213800897Y-116010897D01*
X213546724Y-116391293D01*
X213457471Y-116840000D01*
X213262529Y-116840000D01*
X213173276Y-116391293D01*
X212919103Y-116010897D01*
X212538707Y-115756724D01*
X212203261Y-115690000D01*
X211976739Y-115690000D01*
X211641293Y-115756724D01*
X211260897Y-116010897D01*
X211006724Y-116391293D01*
X210917471Y-116840000D01*
X210722529Y-116840000D01*
X210633276Y-116391293D01*
X210379103Y-116010897D01*
X209998707Y-115756724D01*
X209663261Y-115690000D01*
X209436739Y-115690000D01*
X209101293Y-115756724D01*
X208720897Y-116010897D01*
X208466724Y-116391293D01*
X208377471Y-116840000D01*
X204508529Y-116840000D01*
X204508656Y-116839873D01*
X204596570Y-116627627D01*
X205828940Y-116627627D01*
X205897758Y-116815000D01*
X206985000Y-116815000D01*
X206985000Y-115727781D01*
X207035000Y-115727781D01*
X207035000Y-116815000D01*
X208122242Y-116815000D01*
X208191060Y-116627627D01*
X208019886Y-116191821D01*
X207694966Y-115854694D01*
X207265766Y-115667571D01*
X207222373Y-115658942D01*
X207035000Y-115727781D01*
X206985000Y-115727781D01*
X206797627Y-115658942D01*
X206754234Y-115667571D01*
X206325034Y-115854694D01*
X206000114Y-116191821D01*
X205828940Y-116627627D01*
X204596570Y-116627627D01*
X204600000Y-116619347D01*
X204600000Y-116380653D01*
X204508656Y-116160127D01*
X204339873Y-115991344D01*
X204119347Y-115900000D01*
X203880653Y-115900000D01*
X203660127Y-115991344D01*
X203491344Y-116160127D01*
X203400000Y-116380653D01*
X201025010Y-116380653D01*
X201025010Y-114995571D01*
X224075000Y-114995571D01*
X224075000Y-115204429D01*
X224154927Y-115397388D01*
X224302612Y-115545073D01*
X224495571Y-115625000D01*
X224704429Y-115625000D01*
X224897388Y-115545073D01*
X225045073Y-115397388D01*
X225107958Y-115245571D01*
X240775000Y-115245571D01*
X240775000Y-115454429D01*
X240854927Y-115647388D01*
X241002612Y-115795073D01*
X241195571Y-115875000D01*
X241404429Y-115875000D01*
X241448129Y-115856899D01*
X241437407Y-115872946D01*
X241414123Y-115990000D01*
X241414123Y-117690000D01*
X241437407Y-117807054D01*
X241503712Y-117906288D01*
X241602946Y-117972593D01*
X241720000Y-117995877D01*
X243420000Y-117995877D01*
X243537054Y-117972593D01*
X243636288Y-117906288D01*
X243702593Y-117807054D01*
X243725877Y-117690000D01*
X243725877Y-115990000D01*
X243702593Y-115872946D01*
X243636288Y-115773712D01*
X243537054Y-115707407D01*
X243420000Y-115684123D01*
X241720000Y-115684123D01*
X241705442Y-115687019D01*
X241745073Y-115647388D01*
X241825000Y-115454429D01*
X241825000Y-115245571D01*
X241745073Y-115052612D01*
X241597388Y-114904927D01*
X241404429Y-114825000D01*
X241195571Y-114825000D01*
X241002612Y-114904927D01*
X240854927Y-115052612D01*
X240775000Y-115245571D01*
X225107958Y-115245571D01*
X225125000Y-115204429D01*
X225125000Y-114995571D01*
X225045073Y-114802612D01*
X224897388Y-114654927D01*
X224704429Y-114575000D01*
X224495571Y-114575000D01*
X224302612Y-114654927D01*
X224154927Y-114802612D01*
X224075000Y-114995571D01*
X201025010Y-114995571D01*
X201025010Y-113685571D01*
X234235000Y-113685571D01*
X234235000Y-113894429D01*
X234314927Y-114087388D01*
X234462612Y-114235073D01*
X234655571Y-114315000D01*
X234864429Y-114315000D01*
X235057388Y-114235073D01*
X235205073Y-114087388D01*
X235285000Y-113894429D01*
X235285000Y-113685571D01*
X235205073Y-113492612D01*
X235057388Y-113344927D01*
X234864429Y-113265000D01*
X234655571Y-113265000D01*
X234462612Y-113344927D01*
X234314927Y-113492612D01*
X234235000Y-113685571D01*
X201025010Y-113685571D01*
X201025010Y-111852806D01*
X201827817Y-111050000D01*
X204345831Y-111050000D01*
X204400000Y-111060775D01*
X204454169Y-111050000D01*
X204454170Y-111050000D01*
X204476436Y-111045571D01*
X228725000Y-111045571D01*
X228725000Y-111254429D01*
X228804927Y-111447388D01*
X228952612Y-111595073D01*
X229145571Y-111675000D01*
X229354429Y-111675000D01*
X229547388Y-111595073D01*
X229695073Y-111447388D01*
X229775000Y-111254429D01*
X229775000Y-111045571D01*
X229695073Y-110852612D01*
X229547388Y-110704927D01*
X229354429Y-110625000D01*
X229145571Y-110625000D01*
X228952612Y-110704927D01*
X228804927Y-110852612D01*
X228725000Y-111045571D01*
X204476436Y-111045571D01*
X204614599Y-111018089D01*
X204796528Y-110896528D01*
X204827216Y-110850600D01*
X205382245Y-110295571D01*
X225575000Y-110295571D01*
X225575000Y-110504429D01*
X225654927Y-110697388D01*
X225802612Y-110845073D01*
X225995571Y-110925000D01*
X226204429Y-110925000D01*
X226397388Y-110845073D01*
X226545073Y-110697388D01*
X226625000Y-110504429D01*
X226625000Y-110395990D01*
X226626957Y-110396800D01*
X226626957Y-110489948D01*
X226706884Y-110682907D01*
X226854569Y-110830592D01*
X227047528Y-110910519D01*
X227256386Y-110910519D01*
X227449345Y-110830592D01*
X227585167Y-110694770D01*
X227627677Y-110797397D01*
X227775362Y-110945082D01*
X227968321Y-111025009D01*
X228177179Y-111025009D01*
X228370138Y-110945082D01*
X228517823Y-110797397D01*
X228597750Y-110604438D01*
X228597750Y-110595571D01*
X231475000Y-110595571D01*
X231475000Y-110804429D01*
X231554927Y-110997388D01*
X231702612Y-111145073D01*
X231895571Y-111225000D01*
X232104429Y-111225000D01*
X232297388Y-111145073D01*
X232445073Y-110997388D01*
X232525000Y-110804429D01*
X232525000Y-110595571D01*
X232445073Y-110402612D01*
X232297388Y-110254927D01*
X232104429Y-110175000D01*
X231895571Y-110175000D01*
X231702612Y-110254927D01*
X231554927Y-110402612D01*
X231475000Y-110595571D01*
X228597750Y-110595571D01*
X228597750Y-110395580D01*
X228517823Y-110202621D01*
X228370138Y-110054936D01*
X228177179Y-109975009D01*
X227968321Y-109975009D01*
X227775362Y-110054936D01*
X227639540Y-110190758D01*
X227597030Y-110088131D01*
X227449345Y-109940446D01*
X227324434Y-109888706D01*
X227324434Y-109795558D01*
X227244507Y-109602599D01*
X227096822Y-109454914D01*
X226903863Y-109374987D01*
X226695005Y-109374987D01*
X226623477Y-109404615D01*
X226581215Y-109302588D01*
X226492133Y-109213506D01*
X230300740Y-109213506D01*
X230300740Y-109422364D01*
X230380667Y-109615323D01*
X230528352Y-109763008D01*
X230721311Y-109842935D01*
X230930169Y-109842935D01*
X231123128Y-109763008D01*
X231181446Y-109704690D01*
X231315599Y-109760259D01*
X231439964Y-109760259D01*
X231479920Y-109856721D01*
X231627605Y-110004406D01*
X231820564Y-110084333D01*
X232029422Y-110084333D01*
X232218477Y-110006023D01*
X232272744Y-110060290D01*
X232465703Y-110140217D01*
X232674561Y-110140217D01*
X232867520Y-110060290D01*
X233015205Y-109912605D01*
X233033750Y-109867833D01*
X233128622Y-109867833D01*
X233055000Y-110045571D01*
X233055000Y-110254429D01*
X233134927Y-110447388D01*
X233282612Y-110595073D01*
X233475571Y-110675000D01*
X233684429Y-110675000D01*
X233877388Y-110595073D01*
X234025073Y-110447388D01*
X234105000Y-110254429D01*
X234105000Y-110045571D01*
X234025073Y-109852612D01*
X233877388Y-109704927D01*
X233684429Y-109625000D01*
X233556132Y-109625000D01*
X233629754Y-109447262D01*
X233629754Y-109343206D01*
X233686223Y-109343206D01*
X233879182Y-109263279D01*
X234026867Y-109115594D01*
X234106794Y-108922635D01*
X234106794Y-108713777D01*
X234026867Y-108520818D01*
X233879182Y-108373133D01*
X233686223Y-108293206D01*
X233477365Y-108293206D01*
X233284406Y-108373133D01*
X233136721Y-108520818D01*
X233056794Y-108713777D01*
X233056794Y-108817833D01*
X233000325Y-108817833D01*
X232807366Y-108897760D01*
X232659681Y-109045445D01*
X232641136Y-109090217D01*
X232465703Y-109090217D01*
X232276648Y-109168527D01*
X232222381Y-109114260D01*
X232029422Y-109034333D01*
X231905057Y-109034333D01*
X231865101Y-108937871D01*
X231717416Y-108790186D01*
X231524457Y-108710259D01*
X231315599Y-108710259D01*
X231122640Y-108790186D01*
X231064322Y-108848504D01*
X230930169Y-108792935D01*
X230721311Y-108792935D01*
X230528352Y-108872862D01*
X230380667Y-109020547D01*
X230300740Y-109213506D01*
X226492133Y-109213506D01*
X226433530Y-109154903D01*
X226240571Y-109074976D01*
X226031713Y-109074976D01*
X225838754Y-109154903D01*
X225691069Y-109302588D01*
X225611142Y-109495547D01*
X225611142Y-109704405D01*
X225691069Y-109897364D01*
X225775622Y-109981917D01*
X225654927Y-110102612D01*
X225575000Y-110295571D01*
X205382245Y-110295571D01*
X207582245Y-108095571D01*
X225575000Y-108095571D01*
X225575000Y-108304429D01*
X225654927Y-108497388D01*
X225802612Y-108645073D01*
X225995571Y-108725000D01*
X226204429Y-108725000D01*
X226397388Y-108645073D01*
X226545073Y-108497388D01*
X226625000Y-108304429D01*
X226625000Y-108095571D01*
X226545073Y-107902612D01*
X226397388Y-107754927D01*
X226204429Y-107675000D01*
X225995571Y-107675000D01*
X225802612Y-107754927D01*
X225654927Y-107902612D01*
X225575000Y-108095571D01*
X207582245Y-108095571D01*
X208282245Y-107395571D01*
X230175000Y-107395571D01*
X230175000Y-107604429D01*
X230254927Y-107797388D01*
X230402612Y-107945073D01*
X230595571Y-108025000D01*
X230804429Y-108025000D01*
X230997388Y-107945073D01*
X231145073Y-107797388D01*
X231225000Y-107604429D01*
X231225000Y-107525571D01*
X235005000Y-107525571D01*
X235005000Y-107734429D01*
X235084927Y-107927388D01*
X235232612Y-108075073D01*
X235425571Y-108155000D01*
X235475000Y-108155000D01*
X235475000Y-108329428D01*
X235554927Y-108522387D01*
X235702612Y-108670072D01*
X235895571Y-108749999D01*
X236104429Y-108749999D01*
X236297388Y-108670072D01*
X236331889Y-108635571D01*
X236725000Y-108635571D01*
X236725000Y-108844429D01*
X236804927Y-109037388D01*
X236952612Y-109185073D01*
X237145571Y-109265000D01*
X237354429Y-109265000D01*
X237547388Y-109185073D01*
X237646880Y-109085581D01*
X237969268Y-109085581D01*
X237969268Y-109294439D01*
X238049195Y-109487398D01*
X238196880Y-109635083D01*
X238389839Y-109715010D01*
X238598697Y-109715010D01*
X238791656Y-109635083D01*
X238939341Y-109487398D01*
X239019268Y-109294439D01*
X239019268Y-109085581D01*
X238939341Y-108892622D01*
X238791656Y-108744937D01*
X238598697Y-108665010D01*
X238389839Y-108665010D01*
X238196880Y-108744937D01*
X238049195Y-108892622D01*
X237969268Y-109085581D01*
X237646880Y-109085581D01*
X237695073Y-109037388D01*
X237775000Y-108844429D01*
X237775000Y-108635571D01*
X237695073Y-108442612D01*
X237547388Y-108294927D01*
X237354429Y-108215000D01*
X237145571Y-108215000D01*
X236952612Y-108294927D01*
X236804927Y-108442612D01*
X236725000Y-108635571D01*
X236331889Y-108635571D01*
X236445073Y-108522387D01*
X236525000Y-108329428D01*
X236525000Y-108120570D01*
X236445073Y-107927611D01*
X236297388Y-107779926D01*
X236104429Y-107699999D01*
X236055000Y-107699999D01*
X236055000Y-107525571D01*
X235975073Y-107332612D01*
X235827388Y-107184927D01*
X235634429Y-107105000D01*
X235425571Y-107105000D01*
X235232612Y-107184927D01*
X235084927Y-107332612D01*
X235005000Y-107525571D01*
X231225000Y-107525571D01*
X231225000Y-107395571D01*
X231145073Y-107202612D01*
X230997388Y-107054927D01*
X230804429Y-106975000D01*
X230595571Y-106975000D01*
X230402612Y-107054927D01*
X230254927Y-107202612D01*
X230175000Y-107395571D01*
X208282245Y-107395571D01*
X208975704Y-106702113D01*
X208991344Y-106739873D01*
X209160127Y-106908656D01*
X209380653Y-107000000D01*
X209619347Y-107000000D01*
X209839873Y-106908656D01*
X210008656Y-106739873D01*
X210100000Y-106519347D01*
X210100000Y-106280653D01*
X214900000Y-106280653D01*
X214900000Y-106519347D01*
X214991344Y-106739873D01*
X215160127Y-106908656D01*
X215380653Y-107000000D01*
X215619347Y-107000000D01*
X215839873Y-106908656D01*
X216008656Y-106739873D01*
X216100000Y-106519347D01*
X216100000Y-106333100D01*
X232267998Y-106333100D01*
X232267998Y-106541958D01*
X232347925Y-106734917D01*
X232495610Y-106882602D01*
X232688569Y-106962529D01*
X232897427Y-106962529D01*
X233090386Y-106882602D01*
X233238071Y-106734917D01*
X233317998Y-106541958D01*
X233317998Y-106333100D01*
X233238071Y-106140141D01*
X233090386Y-105992456D01*
X232977197Y-105945571D01*
X236995000Y-105945571D01*
X236995000Y-106154429D01*
X237074927Y-106347388D01*
X237222612Y-106495073D01*
X237415571Y-106575000D01*
X237624429Y-106575000D01*
X237817388Y-106495073D01*
X237965073Y-106347388D01*
X238045000Y-106154429D01*
X238045000Y-106095571D01*
X239275000Y-106095571D01*
X239275000Y-106304429D01*
X239354927Y-106497388D01*
X239502612Y-106645073D01*
X239695571Y-106725000D01*
X239904429Y-106725000D01*
X240097388Y-106645073D01*
X240245073Y-106497388D01*
X240325000Y-106304429D01*
X240325000Y-106095571D01*
X240245073Y-105902612D01*
X240097388Y-105754927D01*
X239904429Y-105675000D01*
X239695571Y-105675000D01*
X239502612Y-105754927D01*
X239354927Y-105902612D01*
X239275000Y-106095571D01*
X238045000Y-106095571D01*
X238045000Y-105945571D01*
X237965073Y-105752612D01*
X237817388Y-105604927D01*
X237624429Y-105525000D01*
X237415571Y-105525000D01*
X237222612Y-105604927D01*
X237074927Y-105752612D01*
X236995000Y-105945571D01*
X232977197Y-105945571D01*
X232897427Y-105912529D01*
X232688569Y-105912529D01*
X232495610Y-105992456D01*
X232347925Y-106140141D01*
X232267998Y-106333100D01*
X216100000Y-106333100D01*
X216100000Y-106280653D01*
X216008656Y-106060127D01*
X215839873Y-105891344D01*
X215619347Y-105800000D01*
X215380653Y-105800000D01*
X215160127Y-105891344D01*
X214991344Y-106060127D01*
X214900000Y-106280653D01*
X210100000Y-106280653D01*
X210008656Y-106060127D01*
X209839873Y-105891344D01*
X209802113Y-105875704D01*
X209850603Y-105827214D01*
X209896528Y-105796528D01*
X210018089Y-105614599D01*
X210050000Y-105454170D01*
X210060775Y-105400001D01*
X210050000Y-105345832D01*
X210050000Y-105180653D01*
X211950000Y-105180653D01*
X211950000Y-105419347D01*
X212041344Y-105639873D01*
X212210127Y-105808656D01*
X212430653Y-105900000D01*
X212669347Y-105900000D01*
X212889873Y-105808656D01*
X213058656Y-105639873D01*
X213083185Y-105580653D01*
X216200000Y-105580653D01*
X216200000Y-105819347D01*
X216291344Y-106039873D01*
X216460127Y-106208656D01*
X216680653Y-106300000D01*
X216919347Y-106300000D01*
X217139873Y-106208656D01*
X217308656Y-106039873D01*
X217400000Y-105819347D01*
X217400000Y-105580653D01*
X217308656Y-105360127D01*
X217139873Y-105191344D01*
X216919347Y-105100000D01*
X216680653Y-105100000D01*
X216460127Y-105191344D01*
X216291344Y-105360127D01*
X216200000Y-105580653D01*
X213083185Y-105580653D01*
X213150000Y-105419347D01*
X213150000Y-105180653D01*
X213058656Y-104960127D01*
X212889873Y-104791344D01*
X212669347Y-104700000D01*
X212430653Y-104700000D01*
X212210127Y-104791344D01*
X212041344Y-104960127D01*
X211950000Y-105180653D01*
X210050000Y-105180653D01*
X210050000Y-104245571D01*
X222675000Y-104245571D01*
X222675000Y-104454429D01*
X222754927Y-104647388D01*
X222902612Y-104795073D01*
X223095571Y-104875000D01*
X223304429Y-104875000D01*
X223497388Y-104795073D01*
X223645073Y-104647388D01*
X223645825Y-104645571D01*
X229225000Y-104645571D01*
X229225000Y-104854429D01*
X229285298Y-105000000D01*
X229225000Y-105145571D01*
X229225000Y-105354429D01*
X229304927Y-105547388D01*
X229452612Y-105695073D01*
X229645571Y-105775000D01*
X229854429Y-105775000D01*
X230000000Y-105714702D01*
X230145571Y-105775000D01*
X230354429Y-105775000D01*
X230547388Y-105695073D01*
X230695073Y-105547388D01*
X230775000Y-105354429D01*
X230775000Y-105145571D01*
X230714702Y-105000000D01*
X230757958Y-104895571D01*
X232135000Y-104895571D01*
X232135000Y-105104429D01*
X232214927Y-105297388D01*
X232362612Y-105445073D01*
X232555571Y-105525000D01*
X232764429Y-105525000D01*
X232957388Y-105445073D01*
X233105073Y-105297388D01*
X233167958Y-105145571D01*
X239875000Y-105145571D01*
X239875000Y-105354429D01*
X239954927Y-105547388D01*
X240102612Y-105695073D01*
X240295571Y-105775000D01*
X240504429Y-105775000D01*
X240697388Y-105695073D01*
X240845073Y-105547388D01*
X240925000Y-105354429D01*
X240925000Y-105145571D01*
X242475000Y-105145571D01*
X242475000Y-105354429D01*
X242554927Y-105547388D01*
X242702612Y-105695073D01*
X242895571Y-105775000D01*
X243104429Y-105775000D01*
X243297388Y-105695073D01*
X243445073Y-105547388D01*
X243525000Y-105354429D01*
X243525000Y-105145571D01*
X243445073Y-104952612D01*
X243297388Y-104804927D01*
X243104429Y-104725000D01*
X242895571Y-104725000D01*
X242702612Y-104804927D01*
X242554927Y-104952612D01*
X242475000Y-105145571D01*
X240925000Y-105145571D01*
X240845073Y-104952612D01*
X240697388Y-104804927D01*
X240504429Y-104725000D01*
X240295571Y-104725000D01*
X240102612Y-104804927D01*
X239954927Y-104952612D01*
X239875000Y-105145571D01*
X233167958Y-105145571D01*
X233185000Y-105104429D01*
X233185000Y-104895571D01*
X233105073Y-104702612D01*
X232957388Y-104554927D01*
X232764429Y-104475000D01*
X232555571Y-104475000D01*
X232362612Y-104554927D01*
X232214927Y-104702612D01*
X232135000Y-104895571D01*
X230757958Y-104895571D01*
X230775000Y-104854429D01*
X230775000Y-104645571D01*
X230695073Y-104452612D01*
X230547388Y-104304927D01*
X230354429Y-104225000D01*
X230145571Y-104225000D01*
X230000000Y-104285298D01*
X229854429Y-104225000D01*
X229645571Y-104225000D01*
X229452612Y-104304927D01*
X229304927Y-104452612D01*
X229225000Y-104645571D01*
X223645825Y-104645571D01*
X223725000Y-104454429D01*
X223725000Y-104245571D01*
X223645073Y-104052612D01*
X223497388Y-103904927D01*
X223304429Y-103825000D01*
X223095571Y-103825000D01*
X222902612Y-103904927D01*
X222754927Y-104052612D01*
X222675000Y-104245571D01*
X210050000Y-104245571D01*
X210050000Y-103890059D01*
X210100000Y-103769347D01*
X210100000Y-103645571D01*
X239875000Y-103645571D01*
X239875000Y-103854429D01*
X239954927Y-104047388D01*
X240102612Y-104195073D01*
X240295571Y-104275000D01*
X240504429Y-104275000D01*
X240697388Y-104195073D01*
X240845073Y-104047388D01*
X240925000Y-103854429D01*
X240925000Y-103645571D01*
X242475000Y-103645571D01*
X242475000Y-103854429D01*
X242554927Y-104047388D01*
X242702612Y-104195073D01*
X242895571Y-104275000D01*
X243104429Y-104275000D01*
X243297388Y-104195073D01*
X243445073Y-104047388D01*
X243525000Y-103854429D01*
X243525000Y-103645571D01*
X243445073Y-103452612D01*
X243297388Y-103304927D01*
X243104429Y-103225000D01*
X242895571Y-103225000D01*
X242702612Y-103304927D01*
X242554927Y-103452612D01*
X242475000Y-103645571D01*
X240925000Y-103645571D01*
X240845073Y-103452612D01*
X240697388Y-103304927D01*
X240504429Y-103225000D01*
X240295571Y-103225000D01*
X240102612Y-103304927D01*
X239954927Y-103452612D01*
X239875000Y-103645571D01*
X210100000Y-103645571D01*
X210100000Y-103530653D01*
X210008656Y-103310127D01*
X209839873Y-103141344D01*
X209619347Y-103050000D01*
X209380653Y-103050000D01*
X209160127Y-103141344D01*
X208991344Y-103310127D01*
X208900000Y-103530653D01*
X208900000Y-103769347D01*
X208950000Y-103890059D01*
X208950001Y-105172182D01*
X204172184Y-109950000D01*
X201654168Y-109950000D01*
X201599999Y-109939225D01*
X201545830Y-109950000D01*
X201385401Y-109981911D01*
X201203472Y-110103472D01*
X201172787Y-110149396D01*
X200375000Y-110947184D01*
X200375000Y-109016211D01*
X200463636Y-109148864D01*
X200761337Y-109347781D01*
X201023858Y-109400000D01*
X201901142Y-109400000D01*
X202163663Y-109347781D01*
X202461364Y-109148864D01*
X202660281Y-108851163D01*
X202730132Y-108500000D01*
X202660281Y-108148837D01*
X202461364Y-107851136D01*
X202163663Y-107652219D01*
X201901142Y-107600000D01*
X201023858Y-107600000D01*
X200761337Y-107652219D01*
X200463636Y-107851136D01*
X200375000Y-107983789D01*
X200375000Y-107296115D01*
X203137500Y-107296115D01*
X203137500Y-107703885D01*
X203293547Y-108080616D01*
X203581884Y-108368953D01*
X203958615Y-108525000D01*
X204366385Y-108525000D01*
X204743116Y-108368953D01*
X205031453Y-108080616D01*
X205187500Y-107703885D01*
X205187500Y-107296115D01*
X205031453Y-106919384D01*
X204743116Y-106631047D01*
X204366385Y-106475000D01*
X203958615Y-106475000D01*
X203581884Y-106631047D01*
X203293547Y-106919384D01*
X203137500Y-107296115D01*
X200375000Y-107296115D01*
X200375000Y-105630653D01*
X205000000Y-105630653D01*
X205000000Y-105869347D01*
X205091344Y-106089873D01*
X205176471Y-106175000D01*
X205091344Y-106260127D01*
X205000000Y-106480653D01*
X205000000Y-106719347D01*
X205091344Y-106939873D01*
X205260127Y-107108656D01*
X205480653Y-107200000D01*
X205719347Y-107200000D01*
X205939873Y-107108656D01*
X206108656Y-106939873D01*
X206200000Y-106719347D01*
X206200000Y-106480653D01*
X206108656Y-106260127D01*
X206023529Y-106175000D01*
X206108656Y-106089873D01*
X206200000Y-105869347D01*
X206200000Y-105630653D01*
X206108656Y-105410127D01*
X205939873Y-105241344D01*
X205719347Y-105150000D01*
X205480653Y-105150000D01*
X205260127Y-105241344D01*
X205091344Y-105410127D01*
X205000000Y-105630653D01*
X200375000Y-105630653D01*
X200375000Y-104530653D01*
X206850000Y-104530653D01*
X206850000Y-104769347D01*
X206941344Y-104989873D01*
X207110127Y-105158656D01*
X207330653Y-105250000D01*
X207569347Y-105250000D01*
X207789873Y-105158656D01*
X207958656Y-104989873D01*
X208050000Y-104769347D01*
X208050000Y-104530653D01*
X207958656Y-104310127D01*
X207789873Y-104141344D01*
X207569347Y-104050000D01*
X207330653Y-104050000D01*
X207110127Y-104141344D01*
X206941344Y-104310127D01*
X206850000Y-104530653D01*
X200375000Y-104530653D01*
X200375000Y-102016211D01*
X200463636Y-102148864D01*
X200761337Y-102347781D01*
X201023858Y-102400000D01*
X201901142Y-102400000D01*
X202163663Y-102347781D01*
X202240986Y-102296115D01*
X203137500Y-102296115D01*
X203137500Y-102703885D01*
X203293547Y-103080616D01*
X203581884Y-103368953D01*
X203958615Y-103525000D01*
X204366385Y-103525000D01*
X204743116Y-103368953D01*
X205031453Y-103080616D01*
X205149522Y-102795571D01*
X229475000Y-102795571D01*
X229475000Y-103004429D01*
X229554927Y-103197388D01*
X229702612Y-103345073D01*
X229895571Y-103425000D01*
X230104429Y-103425000D01*
X230297388Y-103345073D01*
X230445073Y-103197388D01*
X230525000Y-103004429D01*
X230525000Y-102795571D01*
X230975000Y-102795571D01*
X230975000Y-103004429D01*
X231054927Y-103197388D01*
X231202612Y-103345073D01*
X231395571Y-103425000D01*
X231604429Y-103425000D01*
X231797388Y-103345073D01*
X231945073Y-103197388D01*
X232025000Y-103004429D01*
X232025000Y-102795571D01*
X231945073Y-102602612D01*
X231797388Y-102454927D01*
X231604429Y-102375000D01*
X231395571Y-102375000D01*
X231202612Y-102454927D01*
X231054927Y-102602612D01*
X230975000Y-102795571D01*
X230525000Y-102795571D01*
X230445073Y-102602612D01*
X230297388Y-102454927D01*
X230104429Y-102375000D01*
X229895571Y-102375000D01*
X229702612Y-102454927D01*
X229554927Y-102602612D01*
X229475000Y-102795571D01*
X205149522Y-102795571D01*
X205187500Y-102703885D01*
X205187500Y-102296115D01*
X205063011Y-101995571D01*
X219775000Y-101995571D01*
X219775000Y-102204429D01*
X219854927Y-102397388D01*
X220002612Y-102545073D01*
X220195571Y-102625000D01*
X220404429Y-102625000D01*
X220597388Y-102545073D01*
X220745073Y-102397388D01*
X220825000Y-102204429D01*
X220825000Y-101995571D01*
X224675000Y-101995571D01*
X224675000Y-102204429D01*
X224754927Y-102397388D01*
X224902612Y-102545073D01*
X225095571Y-102625000D01*
X225304429Y-102625000D01*
X225497388Y-102545073D01*
X225645073Y-102397388D01*
X225725000Y-102204429D01*
X225725000Y-102145571D01*
X239875000Y-102145571D01*
X239875000Y-102354429D01*
X239954927Y-102547388D01*
X240102612Y-102695073D01*
X240295571Y-102775000D01*
X240504429Y-102775000D01*
X240697388Y-102695073D01*
X240845073Y-102547388D01*
X240925000Y-102354429D01*
X240925000Y-102145571D01*
X242475000Y-102145571D01*
X242475000Y-102354429D01*
X242554927Y-102547388D01*
X242702612Y-102695073D01*
X242895571Y-102775000D01*
X243104429Y-102775000D01*
X243297388Y-102695073D01*
X243445073Y-102547388D01*
X243525000Y-102354429D01*
X243525000Y-102145571D01*
X243445073Y-101952612D01*
X243297388Y-101804927D01*
X243104429Y-101725000D01*
X242895571Y-101725000D01*
X242702612Y-101804927D01*
X242554927Y-101952612D01*
X242475000Y-102145571D01*
X240925000Y-102145571D01*
X240845073Y-101952612D01*
X240697388Y-101804927D01*
X240504429Y-101725000D01*
X240295571Y-101725000D01*
X240102612Y-101804927D01*
X239954927Y-101952612D01*
X239875000Y-102145571D01*
X225725000Y-102145571D01*
X225725000Y-101995571D01*
X225645073Y-101802612D01*
X225497388Y-101654927D01*
X225304429Y-101575000D01*
X225095571Y-101575000D01*
X224902612Y-101654927D01*
X224754927Y-101802612D01*
X224675000Y-101995571D01*
X220825000Y-101995571D01*
X220745073Y-101802612D01*
X220597388Y-101654927D01*
X220404429Y-101575000D01*
X220195571Y-101575000D01*
X220002612Y-101654927D01*
X219854927Y-101802612D01*
X219775000Y-101995571D01*
X205063011Y-101995571D01*
X205031453Y-101919384D01*
X204743116Y-101631047D01*
X204366385Y-101475000D01*
X203958615Y-101475000D01*
X203581884Y-101631047D01*
X203293547Y-101919384D01*
X203137500Y-102296115D01*
X202240986Y-102296115D01*
X202461364Y-102148864D01*
X202660281Y-101851163D01*
X202730132Y-101500000D01*
X202660281Y-101148837D01*
X202591282Y-101045571D01*
X233775000Y-101045571D01*
X233775000Y-101254429D01*
X233854927Y-101447388D01*
X234002612Y-101595073D01*
X234195571Y-101675000D01*
X234404429Y-101675000D01*
X234597388Y-101595073D01*
X234745073Y-101447388D01*
X234825000Y-101254429D01*
X234825000Y-101045571D01*
X234745073Y-100852612D01*
X234597388Y-100704927D01*
X234404429Y-100625000D01*
X234195571Y-100625000D01*
X234002612Y-100704927D01*
X233854927Y-100852612D01*
X233775000Y-101045571D01*
X202591282Y-101045571D01*
X202461364Y-100851136D01*
X202163663Y-100652219D01*
X201901142Y-100600000D01*
X201023858Y-100600000D01*
X200761337Y-100652219D01*
X200463636Y-100851136D01*
X200375000Y-100983789D01*
X200375000Y-100395571D01*
X229975000Y-100395571D01*
X229975000Y-100604429D01*
X230054927Y-100797388D01*
X230202612Y-100945073D01*
X230395571Y-101025000D01*
X230604429Y-101025000D01*
X230797388Y-100945073D01*
X230945073Y-100797388D01*
X231025000Y-100604429D01*
X231025000Y-100395571D01*
X231775000Y-100395571D01*
X231775000Y-100604429D01*
X231854927Y-100797388D01*
X232002612Y-100945073D01*
X232195571Y-101025000D01*
X232404429Y-101025000D01*
X232597388Y-100945073D01*
X232745073Y-100797388D01*
X232825000Y-100604429D01*
X232825000Y-100395571D01*
X232745073Y-100202612D01*
X232597388Y-100054927D01*
X232574801Y-100045571D01*
X234725000Y-100045571D01*
X234725000Y-100254429D01*
X234804927Y-100447388D01*
X234952612Y-100595073D01*
X235145571Y-100675000D01*
X235354429Y-100675000D01*
X235425476Y-100645571D01*
X239875000Y-100645571D01*
X239875000Y-100854429D01*
X239954927Y-101047388D01*
X240102612Y-101195073D01*
X240295571Y-101275000D01*
X240504429Y-101275000D01*
X240697388Y-101195073D01*
X240845073Y-101047388D01*
X240925000Y-100854429D01*
X240925000Y-100645571D01*
X242475000Y-100645571D01*
X242475000Y-100854429D01*
X242554927Y-101047388D01*
X242702612Y-101195073D01*
X242895571Y-101275000D01*
X243104429Y-101275000D01*
X243297388Y-101195073D01*
X243445073Y-101047388D01*
X243525000Y-100854429D01*
X243525000Y-100645571D01*
X243445073Y-100452612D01*
X243297388Y-100304927D01*
X243104429Y-100225000D01*
X242895571Y-100225000D01*
X242702612Y-100304927D01*
X242554927Y-100452612D01*
X242475000Y-100645571D01*
X240925000Y-100645571D01*
X240845073Y-100452612D01*
X240697388Y-100304927D01*
X240504429Y-100225000D01*
X240295571Y-100225000D01*
X240102612Y-100304927D01*
X239954927Y-100452612D01*
X239875000Y-100645571D01*
X235425476Y-100645571D01*
X235547388Y-100595073D01*
X235695073Y-100447388D01*
X235775000Y-100254429D01*
X235775000Y-100045571D01*
X235695073Y-99852612D01*
X235547388Y-99704927D01*
X235354429Y-99625000D01*
X235145571Y-99625000D01*
X234952612Y-99704927D01*
X234804927Y-99852612D01*
X234725000Y-100045571D01*
X232574801Y-100045571D01*
X232404429Y-99975000D01*
X232195571Y-99975000D01*
X232002612Y-100054927D01*
X231854927Y-100202612D01*
X231775000Y-100395571D01*
X231025000Y-100395571D01*
X230945073Y-100202612D01*
X230797388Y-100054927D01*
X230604429Y-99975000D01*
X230395571Y-99975000D01*
X230202612Y-100054927D01*
X230054927Y-100202612D01*
X229975000Y-100395571D01*
X200375000Y-100395571D01*
X200375000Y-99570571D01*
X239525000Y-99570571D01*
X239525000Y-99779429D01*
X239604927Y-99972388D01*
X239752612Y-100120073D01*
X239945571Y-100200000D01*
X240154429Y-100200000D01*
X240347388Y-100120073D01*
X240495073Y-99972388D01*
X240575000Y-99779429D01*
X240575000Y-99570571D01*
X240495073Y-99377612D01*
X240347388Y-99229927D01*
X240154429Y-99150000D01*
X239945571Y-99150000D01*
X239752612Y-99229927D01*
X239604927Y-99377612D01*
X239525000Y-99570571D01*
X200375000Y-99570571D01*
X200375000Y-98495571D01*
X224975000Y-98495571D01*
X224975000Y-98704429D01*
X225054927Y-98897388D01*
X225202612Y-99045073D01*
X225395571Y-99125000D01*
X225604429Y-99125000D01*
X225797388Y-99045073D01*
X225945073Y-98897388D01*
X226025000Y-98704429D01*
X226025000Y-98495571D01*
X225945073Y-98302612D01*
X225797388Y-98154927D01*
X225604429Y-98075000D01*
X225395571Y-98075000D01*
X225202612Y-98154927D01*
X225054927Y-98302612D01*
X224975000Y-98495571D01*
X200375000Y-98495571D01*
X200375000Y-97895571D01*
X229924990Y-97895571D01*
X229924990Y-98104429D01*
X230004917Y-98297388D01*
X230152602Y-98445073D01*
X230345561Y-98525000D01*
X230554419Y-98525000D01*
X230747378Y-98445073D01*
X230895063Y-98297388D01*
X230974990Y-98104429D01*
X230974990Y-97895571D01*
X230895063Y-97702612D01*
X230747378Y-97554927D01*
X230618058Y-97501360D01*
X241250000Y-97501360D01*
X241250000Y-97998640D01*
X241440301Y-98458068D01*
X241791932Y-98809699D01*
X242251360Y-99000000D01*
X242748640Y-99000000D01*
X243208068Y-98809699D01*
X243559699Y-98458068D01*
X243750000Y-97998640D01*
X243750000Y-97501360D01*
X243559699Y-97041932D01*
X243419127Y-96901360D01*
X246150000Y-96901360D01*
X246150000Y-97398640D01*
X246340301Y-97858068D01*
X246691932Y-98209699D01*
X247151360Y-98400000D01*
X247648640Y-98400000D01*
X248108068Y-98209699D01*
X248459699Y-97858068D01*
X248650000Y-97398640D01*
X248650000Y-96901360D01*
X248459699Y-96441932D01*
X248108068Y-96090301D01*
X247648640Y-95900000D01*
X247151360Y-95900000D01*
X246691932Y-96090301D01*
X246340301Y-96441932D01*
X246150000Y-96901360D01*
X243419127Y-96901360D01*
X243208068Y-96690301D01*
X242748640Y-96500000D01*
X242251360Y-96500000D01*
X241791932Y-96690301D01*
X241440301Y-97041932D01*
X241250000Y-97501360D01*
X230618058Y-97501360D01*
X230554419Y-97475000D01*
X230345561Y-97475000D01*
X230152602Y-97554927D01*
X230004917Y-97702612D01*
X229924990Y-97895571D01*
X200375000Y-97895571D01*
X200375000Y-96845581D01*
X211781797Y-96845581D01*
X211781797Y-97054439D01*
X211861724Y-97247398D01*
X212009409Y-97395083D01*
X212202368Y-97475010D01*
X212411226Y-97475010D01*
X212604185Y-97395083D01*
X212751870Y-97247398D01*
X212831797Y-97054439D01*
X212831797Y-96895571D01*
X217375000Y-96895571D01*
X217375000Y-97104429D01*
X217454927Y-97297388D01*
X217602612Y-97445073D01*
X217795571Y-97525000D01*
X218004429Y-97525000D01*
X218197388Y-97445073D01*
X218345073Y-97297388D01*
X218425000Y-97104429D01*
X218425000Y-96895571D01*
X222875000Y-96895571D01*
X222875000Y-97104429D01*
X222954927Y-97297388D01*
X223102612Y-97445073D01*
X223295571Y-97525000D01*
X223504429Y-97525000D01*
X223697388Y-97445073D01*
X223845073Y-97297388D01*
X223925000Y-97104429D01*
X223925000Y-96895571D01*
X227075000Y-96895571D01*
X227075000Y-97104429D01*
X227154927Y-97297388D01*
X227302612Y-97445073D01*
X227495571Y-97525000D01*
X227704429Y-97525000D01*
X227897388Y-97445073D01*
X228045073Y-97297388D01*
X228125000Y-97104429D01*
X228125000Y-96895571D01*
X228045073Y-96702612D01*
X227897388Y-96554927D01*
X227704429Y-96475000D01*
X227495571Y-96475000D01*
X227302612Y-96554927D01*
X227154927Y-96702612D01*
X227075000Y-96895571D01*
X223925000Y-96895571D01*
X223845073Y-96702612D01*
X223697388Y-96554927D01*
X223504429Y-96475000D01*
X223295571Y-96475000D01*
X223102612Y-96554927D01*
X222954927Y-96702612D01*
X222875000Y-96895571D01*
X218425000Y-96895571D01*
X218345073Y-96702612D01*
X218197388Y-96554927D01*
X218004429Y-96475000D01*
X217795571Y-96475000D01*
X217602612Y-96554927D01*
X217454927Y-96702612D01*
X217375000Y-96895571D01*
X212831797Y-96895571D01*
X212831797Y-96845581D01*
X212751870Y-96652622D01*
X212604185Y-96504937D01*
X212411226Y-96425010D01*
X212202368Y-96425010D01*
X212009409Y-96504937D01*
X211861724Y-96652622D01*
X211781797Y-96845581D01*
X200375000Y-96845581D01*
X200375000Y-96095571D01*
X219675000Y-96095571D01*
X219675000Y-96304429D01*
X219754927Y-96497388D01*
X219902612Y-96645073D01*
X220095571Y-96725000D01*
X220304429Y-96725000D01*
X220497388Y-96645073D01*
X220645073Y-96497388D01*
X220725000Y-96304429D01*
X220725000Y-96095571D01*
X220645073Y-95902612D01*
X220497388Y-95754927D01*
X220304429Y-95675000D01*
X220095571Y-95675000D01*
X219902612Y-95754927D01*
X219754927Y-95902612D01*
X219675000Y-96095571D01*
X200375000Y-96095571D01*
X200375000Y-95295571D01*
X224975000Y-95295571D01*
X224975000Y-95504429D01*
X225054927Y-95697388D01*
X225202612Y-95845073D01*
X225395571Y-95925000D01*
X225604429Y-95925000D01*
X225797388Y-95845073D01*
X225945073Y-95697388D01*
X226025000Y-95504429D01*
X226025000Y-95295571D01*
X225945073Y-95102612D01*
X225797388Y-94954927D01*
X225604429Y-94875000D01*
X225395571Y-94875000D01*
X225202612Y-94954927D01*
X225054927Y-95102612D01*
X224975000Y-95295571D01*
X200375000Y-95295571D01*
X200375000Y-93895571D01*
X204475000Y-93895571D01*
X204475000Y-94104429D01*
X204554927Y-94297388D01*
X204702612Y-94445073D01*
X204895571Y-94525000D01*
X205104429Y-94525000D01*
X205297388Y-94445073D01*
X205445073Y-94297388D01*
X205525000Y-94104429D01*
X205525000Y-94045571D01*
X215325000Y-94045571D01*
X215325000Y-94254429D01*
X215404927Y-94447388D01*
X215552612Y-94595073D01*
X215745571Y-94675000D01*
X215954429Y-94675000D01*
X216147388Y-94595073D01*
X216295073Y-94447388D01*
X216375000Y-94254429D01*
X216375000Y-94045571D01*
X216295073Y-93852612D01*
X216147388Y-93704927D01*
X215954429Y-93625000D01*
X215745571Y-93625000D01*
X215552612Y-93704927D01*
X215404927Y-93852612D01*
X215325000Y-94045571D01*
X205525000Y-94045571D01*
X205525000Y-93895571D01*
X205445073Y-93702612D01*
X205297388Y-93554927D01*
X205104429Y-93475000D01*
X204895571Y-93475000D01*
X204702612Y-93554927D01*
X204554927Y-93702612D01*
X204475000Y-93895571D01*
X200375000Y-93895571D01*
X200375000Y-93295571D01*
X222475000Y-93295571D01*
X222475000Y-93504429D01*
X222554927Y-93697388D01*
X222702612Y-93845073D01*
X222895571Y-93925000D01*
X223104429Y-93925000D01*
X223297388Y-93845073D01*
X223300000Y-93842461D01*
X223302612Y-93845073D01*
X223495571Y-93925000D01*
X223704429Y-93925000D01*
X223897388Y-93845073D01*
X224045073Y-93697388D01*
X224125000Y-93504429D01*
X224125000Y-93295571D01*
X224045073Y-93102612D01*
X223897388Y-92954927D01*
X223704429Y-92875000D01*
X223495571Y-92875000D01*
X223302612Y-92954927D01*
X223300000Y-92957539D01*
X223297388Y-92954927D01*
X223104429Y-92875000D01*
X222895571Y-92875000D01*
X222702612Y-92954927D01*
X222554927Y-93102612D01*
X222475000Y-93295571D01*
X200375000Y-93295571D01*
X200375000Y-90995571D01*
X215325000Y-90995571D01*
X215325000Y-91204429D01*
X215404927Y-91397388D01*
X215552612Y-91545073D01*
X215745571Y-91625000D01*
X215954429Y-91625000D01*
X216147388Y-91545073D01*
X216295073Y-91397388D01*
X216375000Y-91204429D01*
X216375000Y-90995571D01*
X216350147Y-90935571D01*
X217635000Y-90935571D01*
X217635000Y-91144429D01*
X217714927Y-91337388D01*
X217862612Y-91485073D01*
X218055571Y-91565000D01*
X218264429Y-91565000D01*
X218457388Y-91485073D01*
X218605073Y-91337388D01*
X218685000Y-91144429D01*
X218685000Y-90935571D01*
X218605073Y-90742612D01*
X218457388Y-90594927D01*
X218264429Y-90515000D01*
X218055571Y-90515000D01*
X217862612Y-90594927D01*
X217714927Y-90742612D01*
X217635000Y-90935571D01*
X216350147Y-90935571D01*
X216295073Y-90802612D01*
X216147388Y-90654927D01*
X215954429Y-90575000D01*
X215745571Y-90575000D01*
X215552612Y-90654927D01*
X215404927Y-90802612D01*
X215325000Y-90995571D01*
X200375000Y-90995571D01*
X200375000Y-89895571D01*
X200475000Y-89895571D01*
X200475000Y-90104429D01*
X200554927Y-90297388D01*
X200702612Y-90445073D01*
X200895571Y-90525000D01*
X201104429Y-90525000D01*
X201297388Y-90445073D01*
X201445073Y-90297388D01*
X201507958Y-90145571D01*
X236675000Y-90145571D01*
X236675000Y-90354429D01*
X236754927Y-90547388D01*
X236902612Y-90695073D01*
X237095571Y-90775000D01*
X237304429Y-90775000D01*
X237497388Y-90695073D01*
X237645073Y-90547388D01*
X237725000Y-90354429D01*
X237725000Y-90167380D01*
X237897638Y-90167380D01*
X238090597Y-90087453D01*
X238238282Y-89939768D01*
X238256589Y-89895571D01*
X248475000Y-89895571D01*
X248475000Y-90104429D01*
X248554927Y-90297388D01*
X248702612Y-90445073D01*
X248895571Y-90525000D01*
X249104429Y-90525000D01*
X249297388Y-90445073D01*
X249445073Y-90297388D01*
X249525000Y-90104429D01*
X249525000Y-89895571D01*
X249445073Y-89702612D01*
X249297388Y-89554927D01*
X249104429Y-89475000D01*
X248895571Y-89475000D01*
X248702612Y-89554927D01*
X248554927Y-89702612D01*
X248475000Y-89895571D01*
X238256589Y-89895571D01*
X238318209Y-89746809D01*
X238318209Y-89537951D01*
X238238282Y-89344992D01*
X238090597Y-89197307D01*
X237897638Y-89117380D01*
X237688780Y-89117380D01*
X237495821Y-89197307D01*
X237348136Y-89344992D01*
X237268209Y-89537951D01*
X237268209Y-89725000D01*
X237095571Y-89725000D01*
X236902612Y-89804927D01*
X236754927Y-89952612D01*
X236675000Y-90145571D01*
X201507958Y-90145571D01*
X201525000Y-90104429D01*
X201525000Y-89895571D01*
X201445073Y-89702612D01*
X201297388Y-89554927D01*
X201104429Y-89475000D01*
X200895571Y-89475000D01*
X200702612Y-89554927D01*
X200554927Y-89702612D01*
X200475000Y-89895571D01*
X200375000Y-89895571D01*
X200375000Y-88021786D01*
X200400000Y-87807355D01*
X200400000Y-87917716D01*
X200719706Y-88689554D01*
X201310446Y-89280294D01*
X202082284Y-89600000D01*
X202917716Y-89600000D01*
X203328428Y-89429877D01*
X227740694Y-89429877D01*
X227740694Y-89638735D01*
X227820621Y-89831694D01*
X227968306Y-89979379D01*
X228161265Y-90059306D01*
X228370123Y-90059306D01*
X228563082Y-89979379D01*
X228710767Y-89831694D01*
X228790694Y-89638735D01*
X228790694Y-89429877D01*
X228710767Y-89236918D01*
X228563082Y-89089233D01*
X228370123Y-89009306D01*
X228161265Y-89009306D01*
X227968306Y-89089233D01*
X227820621Y-89236918D01*
X227740694Y-89429877D01*
X203328428Y-89429877D01*
X203689554Y-89280294D01*
X204280294Y-88689554D01*
X204600000Y-87917716D01*
X204600000Y-87395571D01*
X230575000Y-87395571D01*
X230575000Y-87604429D01*
X230654927Y-87797388D01*
X230802612Y-87945073D01*
X230995571Y-88025000D01*
X231204429Y-88025000D01*
X231397388Y-87945073D01*
X231545073Y-87797388D01*
X231625000Y-87604429D01*
X231625000Y-87395571D01*
X231545073Y-87202612D01*
X231397388Y-87054927D01*
X231204429Y-86975000D01*
X230995571Y-86975000D01*
X230802612Y-87054927D01*
X230654927Y-87202612D01*
X230575000Y-87395571D01*
X204600000Y-87395571D01*
X204600000Y-87082284D01*
X204420942Y-86650000D01*
X231684123Y-86650000D01*
X231684123Y-88350000D01*
X231707407Y-88467054D01*
X231773712Y-88566288D01*
X231872946Y-88632593D01*
X231990000Y-88655877D01*
X233690000Y-88655877D01*
X233807054Y-88632593D01*
X233906288Y-88566288D01*
X233972593Y-88467054D01*
X233995877Y-88350000D01*
X233995877Y-87500000D01*
X234207471Y-87500000D01*
X234296724Y-87948707D01*
X234550897Y-88329103D01*
X234931293Y-88583276D01*
X235266739Y-88650000D01*
X235493261Y-88650000D01*
X235828707Y-88583276D01*
X236209103Y-88329103D01*
X236463276Y-87948707D01*
X236552529Y-87500000D01*
X236747471Y-87500000D01*
X236836724Y-87948707D01*
X237090897Y-88329103D01*
X237471293Y-88583276D01*
X237806739Y-88650000D01*
X238033261Y-88650000D01*
X238368707Y-88583276D01*
X238749103Y-88329103D01*
X239003276Y-87948707D01*
X239092529Y-87500000D01*
X239287471Y-87500000D01*
X239376724Y-87948707D01*
X239630897Y-88329103D01*
X240011293Y-88583276D01*
X240346739Y-88650000D01*
X240573261Y-88650000D01*
X240908707Y-88583276D01*
X241289103Y-88329103D01*
X241543276Y-87948707D01*
X241632529Y-87500000D01*
X241827471Y-87500000D01*
X241916724Y-87948707D01*
X242170897Y-88329103D01*
X242551293Y-88583276D01*
X242886739Y-88650000D01*
X243113261Y-88650000D01*
X243448707Y-88583276D01*
X243829103Y-88329103D01*
X244083276Y-87948707D01*
X244172529Y-87500000D01*
X244083276Y-87051293D01*
X243829103Y-86670897D01*
X243448707Y-86416724D01*
X243113261Y-86350000D01*
X242886739Y-86350000D01*
X242551293Y-86416724D01*
X242170897Y-86670897D01*
X241916724Y-87051293D01*
X241827471Y-87500000D01*
X241632529Y-87500000D01*
X241543276Y-87051293D01*
X241289103Y-86670897D01*
X240908707Y-86416724D01*
X240573261Y-86350000D01*
X240346739Y-86350000D01*
X240011293Y-86416724D01*
X239630897Y-86670897D01*
X239376724Y-87051293D01*
X239287471Y-87500000D01*
X239092529Y-87500000D01*
X239003276Y-87051293D01*
X238749103Y-86670897D01*
X238368707Y-86416724D01*
X238033261Y-86350000D01*
X237806739Y-86350000D01*
X237471293Y-86416724D01*
X237090897Y-86670897D01*
X236836724Y-87051293D01*
X236747471Y-87500000D01*
X236552529Y-87500000D01*
X236463276Y-87051293D01*
X236209103Y-86670897D01*
X235828707Y-86416724D01*
X235493261Y-86350000D01*
X235266739Y-86350000D01*
X234931293Y-86416724D01*
X234550897Y-86670897D01*
X234296724Y-87051293D01*
X234207471Y-87500000D01*
X233995877Y-87500000D01*
X233995877Y-86650000D01*
X233972593Y-86532946D01*
X233906288Y-86433712D01*
X233807054Y-86367407D01*
X233690000Y-86344123D01*
X231990000Y-86344123D01*
X231872946Y-86367407D01*
X231773712Y-86433712D01*
X231707407Y-86532946D01*
X231684123Y-86650000D01*
X204420942Y-86650000D01*
X204280294Y-86310446D01*
X203865419Y-85895571D01*
X204475000Y-85895571D01*
X204475000Y-86104429D01*
X204554927Y-86297388D01*
X204702612Y-86445073D01*
X204895571Y-86525000D01*
X205104429Y-86525000D01*
X205297388Y-86445073D01*
X205445073Y-86297388D01*
X205525000Y-86104429D01*
X205525000Y-85895571D01*
X244475000Y-85895571D01*
X244475000Y-86104429D01*
X244554927Y-86297388D01*
X244702612Y-86445073D01*
X244895571Y-86525000D01*
X245104429Y-86525000D01*
X245297388Y-86445073D01*
X245445073Y-86297388D01*
X245525000Y-86104429D01*
X245525000Y-85895571D01*
X245445073Y-85702612D01*
X245297388Y-85554927D01*
X245104429Y-85475000D01*
X244895571Y-85475000D01*
X244702612Y-85554927D01*
X244554927Y-85702612D01*
X244475000Y-85895571D01*
X205525000Y-85895571D01*
X205445073Y-85702612D01*
X205297388Y-85554927D01*
X205104429Y-85475000D01*
X204895571Y-85475000D01*
X204702612Y-85554927D01*
X204554927Y-85702612D01*
X204475000Y-85895571D01*
X203865419Y-85895571D01*
X203689554Y-85719706D01*
X202917716Y-85400000D01*
X202736576Y-85400000D01*
X203016697Y-85375000D01*
X246978214Y-85375000D01*
X247192645Y-85400000D01*
X247192645Y-85400000D01*
G37*
X247192645Y-85400000D02*
X247082284Y-85400000D01*
X246310446Y-85719706D01*
X245719706Y-86310446D01*
X245400000Y-87082284D01*
X245400000Y-87917716D01*
X245719706Y-88689554D01*
X246310446Y-89280294D01*
X247082284Y-89600000D01*
X247917716Y-89600000D01*
X248689554Y-89280294D01*
X249280294Y-88689554D01*
X249600000Y-87917716D01*
X249600000Y-87736576D01*
X249625000Y-88016697D01*
X249625001Y-110647184D01*
X247556527Y-108578711D01*
X247525839Y-108532783D01*
X247343910Y-108411222D01*
X247183481Y-108379311D01*
X247183480Y-108379311D01*
X247129311Y-108368536D01*
X247075142Y-108379311D01*
X243514693Y-108379311D01*
X243525000Y-108354429D01*
X243525000Y-108145571D01*
X243445073Y-107952612D01*
X243297388Y-107804927D01*
X243104429Y-107725000D01*
X242895571Y-107725000D01*
X242702612Y-107804927D01*
X242554927Y-107952612D01*
X242475000Y-108145571D01*
X242475000Y-108354429D01*
X242485307Y-108379311D01*
X240368265Y-108379311D01*
X240295073Y-108202612D01*
X240147388Y-108054927D01*
X239954429Y-107975000D01*
X239745571Y-107975000D01*
X239552612Y-108054927D01*
X239404927Y-108202612D01*
X239325000Y-108395571D01*
X239325000Y-108604429D01*
X239404927Y-108797388D01*
X239552612Y-108945073D01*
X239745571Y-109025000D01*
X239774344Y-109025000D01*
X239797996Y-109143910D01*
X239919557Y-109325839D01*
X239941085Y-109340224D01*
X239941086Y-110310754D01*
X238872151Y-111379690D01*
X238797388Y-111304927D01*
X238604429Y-111225000D01*
X238395571Y-111225000D01*
X238202612Y-111304927D01*
X238092539Y-111415000D01*
X237657461Y-111415000D01*
X237547388Y-111304927D01*
X237354429Y-111225000D01*
X237145571Y-111225000D01*
X236952612Y-111304927D01*
X236804927Y-111452612D01*
X236725000Y-111645571D01*
X236725000Y-111854429D01*
X236804927Y-112047388D01*
X236952612Y-112195073D01*
X237145571Y-112275000D01*
X237354429Y-112275000D01*
X237547388Y-112195073D01*
X237577461Y-112165000D01*
X238172539Y-112165000D01*
X238202612Y-112195073D01*
X238395571Y-112275000D01*
X238604429Y-112275000D01*
X238797388Y-112195073D01*
X238827461Y-112165000D01*
X238955244Y-112165000D01*
X238992170Y-112172345D01*
X239029096Y-112165000D01*
X239029101Y-112165000D01*
X239138487Y-112143242D01*
X239262529Y-112060359D01*
X239283450Y-112029050D01*
X239311140Y-112001360D01*
X241250000Y-112001360D01*
X241250000Y-112498640D01*
X241440301Y-112958068D01*
X241791932Y-113309699D01*
X242251360Y-113500000D01*
X242748640Y-113500000D01*
X243208068Y-113309699D01*
X243559699Y-112958068D01*
X243707452Y-112601360D01*
X246150000Y-112601360D01*
X246150000Y-113098640D01*
X246340301Y-113558068D01*
X246691932Y-113909699D01*
X247151360Y-114100000D01*
X247648640Y-114100000D01*
X248108068Y-113909699D01*
X248459699Y-113558068D01*
X248650000Y-113098640D01*
X248650000Y-112601360D01*
X248459699Y-112141932D01*
X248108068Y-111790301D01*
X247648640Y-111600000D01*
X247151360Y-111600000D01*
X246691932Y-111790301D01*
X246340301Y-112141932D01*
X246150000Y-112601360D01*
X243707452Y-112601360D01*
X243750000Y-112498640D01*
X243750000Y-112001360D01*
X243559699Y-111541932D01*
X243208068Y-111190301D01*
X242748640Y-111000000D01*
X242251360Y-111000000D01*
X241791932Y-111190301D01*
X241440301Y-111541932D01*
X241250000Y-112001360D01*
X239311140Y-112001360D01*
X240555137Y-110757363D01*
X240586444Y-110736444D01*
X240607504Y-110704927D01*
X240669326Y-110612403D01*
X240669327Y-110612402D01*
X240691085Y-110503016D01*
X240691085Y-110503011D01*
X240698430Y-110466085D01*
X240691085Y-110429159D01*
X240691085Y-109479311D01*
X246901495Y-109479311D01*
X248850001Y-111427818D01*
X248850000Y-116972182D01*
X242272184Y-123550000D01*
X223816000Y-123550000D01*
X223816000Y-122689328D01*
X223841780Y-122818933D01*
X224095953Y-123199329D01*
X224476349Y-123453502D01*
X224811795Y-123520226D01*
X225038317Y-123520226D01*
X225373763Y-123453502D01*
X225754159Y-123199329D01*
X226008332Y-122818933D01*
X226097585Y-122370226D01*
X226008332Y-121921519D01*
X225754159Y-121541123D01*
X225373763Y-121286950D01*
X225038317Y-121220226D01*
X224811795Y-121220226D01*
X224476349Y-121286950D01*
X224095953Y-121541123D01*
X223841780Y-121921519D01*
X223816000Y-122051124D01*
X223816000Y-120832506D01*
X223858768Y-120896514D01*
X223958002Y-120962819D01*
X224075056Y-120986103D01*
X225775056Y-120986103D01*
X225892110Y-120962819D01*
X225991344Y-120896514D01*
X226057649Y-120797280D01*
X226080933Y-120680226D01*
X226080933Y-119514653D01*
X227746000Y-119514653D01*
X227746000Y-119753347D01*
X227837344Y-119973873D01*
X228006127Y-120142656D01*
X228226653Y-120234000D01*
X228465347Y-120234000D01*
X228685873Y-120142656D01*
X228843260Y-119985269D01*
X228860114Y-120028179D01*
X229185034Y-120365306D01*
X229614234Y-120552429D01*
X229657627Y-120561058D01*
X229845000Y-120492219D01*
X229845000Y-119405000D01*
X229895000Y-119405000D01*
X229895000Y-120492219D01*
X230082373Y-120561058D01*
X230125766Y-120552429D01*
X230554966Y-120365306D01*
X230879886Y-120028179D01*
X231051060Y-119592373D01*
X230982242Y-119405000D01*
X229895000Y-119405000D01*
X229845000Y-119405000D01*
X229825000Y-119405000D01*
X229825000Y-119380000D01*
X231237471Y-119380000D01*
X231326724Y-119828707D01*
X231580897Y-120209103D01*
X231961293Y-120463276D01*
X232296739Y-120530000D01*
X232523261Y-120530000D01*
X232858707Y-120463276D01*
X233239103Y-120209103D01*
X233493276Y-119828707D01*
X233582529Y-119380000D01*
X233777471Y-119380000D01*
X233866724Y-119828707D01*
X234120897Y-120209103D01*
X234501293Y-120463276D01*
X234836739Y-120530000D01*
X235063261Y-120530000D01*
X235398707Y-120463276D01*
X235779103Y-120209103D01*
X236033276Y-119828707D01*
X236122529Y-119380000D01*
X236317471Y-119380000D01*
X236406724Y-119828707D01*
X236660897Y-120209103D01*
X237041293Y-120463276D01*
X237376739Y-120530000D01*
X237603261Y-120530000D01*
X237938707Y-120463276D01*
X238319103Y-120209103D01*
X238573276Y-119828707D01*
X238662529Y-119380000D01*
X238573276Y-118931293D01*
X238319103Y-118550897D01*
X237938707Y-118296724D01*
X237603261Y-118230000D01*
X237376739Y-118230000D01*
X237041293Y-118296724D01*
X236660897Y-118550897D01*
X236406724Y-118931293D01*
X236317471Y-119380000D01*
X236122529Y-119380000D01*
X236033276Y-118931293D01*
X235779103Y-118550897D01*
X235398707Y-118296724D01*
X235063261Y-118230000D01*
X234836739Y-118230000D01*
X234501293Y-118296724D01*
X234120897Y-118550897D01*
X233866724Y-118931293D01*
X233777471Y-119380000D01*
X233582529Y-119380000D01*
X233493276Y-118931293D01*
X233239103Y-118550897D01*
X232858707Y-118296724D01*
X232523261Y-118230000D01*
X232296739Y-118230000D01*
X231961293Y-118296724D01*
X231580897Y-118550897D01*
X231326724Y-118931293D01*
X231237471Y-119380000D01*
X229825000Y-119380000D01*
X229825000Y-119355000D01*
X229845000Y-119355000D01*
X229845000Y-118267781D01*
X229895000Y-118267781D01*
X229895000Y-119355000D01*
X230982242Y-119355000D01*
X231051060Y-119167627D01*
X230879886Y-118731821D01*
X230554966Y-118394694D01*
X230125766Y-118207571D01*
X230082373Y-118198942D01*
X229895000Y-118267781D01*
X229845000Y-118267781D01*
X229657627Y-118198942D01*
X229614234Y-118207571D01*
X229185034Y-118394694D01*
X228860114Y-118731821D01*
X228699999Y-119139470D01*
X228685873Y-119125344D01*
X228465347Y-119034000D01*
X228226653Y-119034000D01*
X228006127Y-119125344D01*
X227837344Y-119294127D01*
X227746000Y-119514653D01*
X226080933Y-119514653D01*
X226080933Y-118980226D01*
X226057649Y-118863172D01*
X225991344Y-118763938D01*
X225892110Y-118697633D01*
X225775056Y-118674349D01*
X225222112Y-118674349D01*
X225235073Y-118661388D01*
X225315000Y-118468429D01*
X225315000Y-118259571D01*
X225235073Y-118066612D01*
X225087388Y-117918927D01*
X224894429Y-117839000D01*
X224685571Y-117839000D01*
X224492612Y-117918927D01*
X224344927Y-118066612D01*
X224265000Y-118259571D01*
X224265000Y-118468429D01*
X224344927Y-118661388D01*
X224357888Y-118674349D01*
X224075056Y-118674349D01*
X223958002Y-118697633D01*
X223858768Y-118763938D01*
X223792463Y-118863172D01*
X223769179Y-118980226D01*
X223769179Y-119280226D01*
X223629224Y-119280226D01*
X223575055Y-119269451D01*
X223520886Y-119280226D01*
X223360457Y-119312137D01*
X223178528Y-119433698D01*
X223147840Y-119479626D01*
X222915400Y-119712066D01*
X222869472Y-119742754D01*
X222747911Y-119924684D01*
X222738127Y-119973873D01*
X222705225Y-120139282D01*
X222716000Y-120193451D01*
X222716001Y-123550000D01*
X207805819Y-123550000D01*
X205151390Y-120895571D01*
X214775000Y-120895571D01*
X214775000Y-121104429D01*
X214854927Y-121297388D01*
X215002612Y-121445073D01*
X215195571Y-121525000D01*
X215404429Y-121525000D01*
X215597388Y-121445073D01*
X215745073Y-121297388D01*
X215825000Y-121104429D01*
X215825000Y-120895571D01*
X215745073Y-120702612D01*
X215597388Y-120554927D01*
X215404429Y-120475000D01*
X215195571Y-120475000D01*
X215002612Y-120554927D01*
X214854927Y-120702612D01*
X214775000Y-120895571D01*
X205151390Y-120895571D01*
X203848192Y-119592373D01*
X205828940Y-119592373D01*
X206000114Y-120028179D01*
X206325034Y-120365306D01*
X206754234Y-120552429D01*
X206797627Y-120561058D01*
X206985000Y-120492219D01*
X206985000Y-119405000D01*
X207035000Y-119405000D01*
X207035000Y-120492219D01*
X207222373Y-120561058D01*
X207265766Y-120552429D01*
X207694966Y-120365306D01*
X208019886Y-120028179D01*
X208191060Y-119592373D01*
X208122242Y-119405000D01*
X207035000Y-119405000D01*
X206985000Y-119405000D01*
X205897758Y-119405000D01*
X205828940Y-119592373D01*
X203848192Y-119592373D01*
X203635819Y-119380000D01*
X208377471Y-119380000D01*
X208466724Y-119828707D01*
X208720897Y-120209103D01*
X209101293Y-120463276D01*
X209436739Y-120530000D01*
X209663261Y-120530000D01*
X209998707Y-120463276D01*
X210379103Y-120209103D01*
X210633276Y-119828707D01*
X210722529Y-119380000D01*
X210917471Y-119380000D01*
X211006724Y-119828707D01*
X211260897Y-120209103D01*
X211641293Y-120463276D01*
X211976739Y-120530000D01*
X212203261Y-120530000D01*
X212538707Y-120463276D01*
X212919103Y-120209103D01*
X213173276Y-119828707D01*
X213262529Y-119380000D01*
X213457471Y-119380000D01*
X213546724Y-119828707D01*
X213800897Y-120209103D01*
X214181293Y-120463276D01*
X214516739Y-120530000D01*
X214743261Y-120530000D01*
X215078707Y-120463276D01*
X215459103Y-120209103D01*
X215713276Y-119828707D01*
X215802529Y-119380000D01*
X215997471Y-119380000D01*
X216086724Y-119828707D01*
X216340897Y-120209103D01*
X216721293Y-120463276D01*
X217056739Y-120530000D01*
X217283261Y-120530000D01*
X217618707Y-120463276D01*
X217999103Y-120209103D01*
X218253276Y-119828707D01*
X218342529Y-119380000D01*
X218537471Y-119380000D01*
X218626724Y-119828707D01*
X218880897Y-120209103D01*
X219261293Y-120463276D01*
X219596739Y-120530000D01*
X219823261Y-120530000D01*
X220158707Y-120463276D01*
X220539103Y-120209103D01*
X220793276Y-119828707D01*
X220882529Y-119380000D01*
X220793276Y-118931293D01*
X220539103Y-118550897D01*
X220158707Y-118296724D01*
X219823261Y-118230000D01*
X219596739Y-118230000D01*
X219261293Y-118296724D01*
X218880897Y-118550897D01*
X218626724Y-118931293D01*
X218537471Y-119380000D01*
X218342529Y-119380000D01*
X218253276Y-118931293D01*
X217999103Y-118550897D01*
X217618707Y-118296724D01*
X217283261Y-118230000D01*
X217056739Y-118230000D01*
X216721293Y-118296724D01*
X216340897Y-118550897D01*
X216086724Y-118931293D01*
X215997471Y-119380000D01*
X215802529Y-119380000D01*
X215713276Y-118931293D01*
X215459103Y-118550897D01*
X215078707Y-118296724D01*
X214743261Y-118230000D01*
X214516739Y-118230000D01*
X214181293Y-118296724D01*
X213800897Y-118550897D01*
X213546724Y-118931293D01*
X213457471Y-119380000D01*
X213262529Y-119380000D01*
X213173276Y-118931293D01*
X212919103Y-118550897D01*
X212538707Y-118296724D01*
X212203261Y-118230000D01*
X211976739Y-118230000D01*
X211641293Y-118296724D01*
X211260897Y-118550897D01*
X211006724Y-118931293D01*
X210917471Y-119380000D01*
X210722529Y-119380000D01*
X210633276Y-118931293D01*
X210379103Y-118550897D01*
X209998707Y-118296724D01*
X209663261Y-118230000D01*
X209436739Y-118230000D01*
X209101293Y-118296724D01*
X208720897Y-118550897D01*
X208466724Y-118931293D01*
X208377471Y-119380000D01*
X203635819Y-119380000D01*
X203423446Y-119167627D01*
X205828940Y-119167627D01*
X205897758Y-119355000D01*
X206985000Y-119355000D01*
X206985000Y-118267781D01*
X207035000Y-118267781D01*
X207035000Y-119355000D01*
X208122242Y-119355000D01*
X208191060Y-119167627D01*
X208019886Y-118731821D01*
X207694966Y-118394694D01*
X207265766Y-118207571D01*
X207222373Y-118198942D01*
X207035000Y-118267781D01*
X206985000Y-118267781D01*
X206797627Y-118198942D01*
X206754234Y-118207571D01*
X206325034Y-118394694D01*
X206000114Y-118731821D01*
X205828940Y-119167627D01*
X203423446Y-119167627D01*
X201636472Y-117380653D01*
X202400000Y-117380653D01*
X202400000Y-117619347D01*
X202491344Y-117839873D01*
X202660127Y-118008656D01*
X202880653Y-118100000D01*
X203119347Y-118100000D01*
X203339873Y-118008656D01*
X203508656Y-117839873D01*
X203600000Y-117619347D01*
X203600000Y-117380653D01*
X203508656Y-117160127D01*
X203339873Y-116991344D01*
X203119347Y-116900000D01*
X202880653Y-116900000D01*
X202660127Y-116991344D01*
X202491344Y-117160127D01*
X202400000Y-117380653D01*
X201636472Y-117380653D01*
X201025010Y-116769192D01*
X201025010Y-116380653D01*
X203400000Y-116380653D01*
X203400000Y-116619347D01*
X203491344Y-116839873D01*
X203660127Y-117008656D01*
X203880653Y-117100000D01*
X204119347Y-117100000D01*
X204234329Y-117052373D01*
X205828940Y-117052373D01*
X206000114Y-117488179D01*
X206325034Y-117825306D01*
X206754234Y-118012429D01*
X206797627Y-118021058D01*
X206985000Y-117952219D01*
X206985000Y-116865000D01*
X207035000Y-116865000D01*
X207035000Y-117952219D01*
X207222373Y-118021058D01*
X207265766Y-118012429D01*
X207694966Y-117825306D01*
X208019886Y-117488179D01*
X208191060Y-117052373D01*
X208122242Y-116865000D01*
X207035000Y-116865000D01*
X206985000Y-116865000D01*
X205897758Y-116865000D01*
X205828940Y-117052373D01*
X204234329Y-117052373D01*
X204339873Y-117008656D01*
X204508529Y-116840000D01*
X208377471Y-116840000D01*
X208466724Y-117288707D01*
X208720897Y-117669103D01*
X209101293Y-117923276D01*
X209436739Y-117990000D01*
X209663261Y-117990000D01*
X209998707Y-117923276D01*
X210379103Y-117669103D01*
X210633276Y-117288707D01*
X210722529Y-116840000D01*
X210917471Y-116840000D01*
X211006724Y-117288707D01*
X211260897Y-117669103D01*
X211641293Y-117923276D01*
X211976739Y-117990000D01*
X212203261Y-117990000D01*
X212538707Y-117923276D01*
X212919103Y-117669103D01*
X213173276Y-117288707D01*
X213262529Y-116840000D01*
X213457471Y-116840000D01*
X213546724Y-117288707D01*
X213800897Y-117669103D01*
X214181293Y-117923276D01*
X214516739Y-117990000D01*
X214743261Y-117990000D01*
X215078707Y-117923276D01*
X215459103Y-117669103D01*
X215713276Y-117288707D01*
X215802529Y-116840000D01*
X215997471Y-116840000D01*
X216086724Y-117288707D01*
X216340897Y-117669103D01*
X216721293Y-117923276D01*
X217056739Y-117990000D01*
X217283261Y-117990000D01*
X217618707Y-117923276D01*
X217999103Y-117669103D01*
X218253276Y-117288707D01*
X218342529Y-116840000D01*
X218253276Y-116391293D01*
X217999103Y-116010897D01*
X217967829Y-115990000D01*
X218554123Y-115990000D01*
X218554123Y-117690000D01*
X218577407Y-117807054D01*
X218643712Y-117906288D01*
X218742946Y-117972593D01*
X218860000Y-117995877D01*
X220560000Y-117995877D01*
X220677054Y-117972593D01*
X220776288Y-117906288D01*
X220842593Y-117807054D01*
X220865877Y-117690000D01*
X220865877Y-116695571D01*
X221624968Y-116695571D01*
X221624968Y-116904429D01*
X221704895Y-117097388D01*
X221852580Y-117245073D01*
X222045539Y-117325000D01*
X222254397Y-117325000D01*
X222447356Y-117245073D01*
X222595041Y-117097388D01*
X222674968Y-116904429D01*
X222674968Y-116695571D01*
X222595041Y-116502612D01*
X222573082Y-116480653D01*
X226400000Y-116480653D01*
X226400000Y-116719347D01*
X226491344Y-116939873D01*
X226660127Y-117108656D01*
X226880653Y-117200000D01*
X227119347Y-117200000D01*
X227339873Y-117108656D01*
X227396156Y-117052373D01*
X228688940Y-117052373D01*
X228860114Y-117488179D01*
X229185034Y-117825306D01*
X229614234Y-118012429D01*
X229657627Y-118021058D01*
X229845000Y-117952219D01*
X229845000Y-116865000D01*
X229895000Y-116865000D01*
X229895000Y-117952219D01*
X230082373Y-118021058D01*
X230125766Y-118012429D01*
X230554966Y-117825306D01*
X230879886Y-117488179D01*
X231051060Y-117052373D01*
X230982242Y-116865000D01*
X229895000Y-116865000D01*
X229845000Y-116865000D01*
X228757758Y-116865000D01*
X228688940Y-117052373D01*
X227396156Y-117052373D01*
X227508656Y-116939873D01*
X227550024Y-116840000D01*
X231237471Y-116840000D01*
X231326724Y-117288707D01*
X231580897Y-117669103D01*
X231961293Y-117923276D01*
X232296739Y-117990000D01*
X232523261Y-117990000D01*
X232858707Y-117923276D01*
X233239103Y-117669103D01*
X233493276Y-117288707D01*
X233582529Y-116840000D01*
X233777471Y-116840000D01*
X233866724Y-117288707D01*
X234120897Y-117669103D01*
X234501293Y-117923276D01*
X234836739Y-117990000D01*
X235063261Y-117990000D01*
X235398707Y-117923276D01*
X235779103Y-117669103D01*
X236033276Y-117288707D01*
X236122529Y-116840000D01*
X236317471Y-116840000D01*
X236406724Y-117288707D01*
X236660897Y-117669103D01*
X237041293Y-117923276D01*
X237376739Y-117990000D01*
X237603261Y-117990000D01*
X237938707Y-117923276D01*
X238319103Y-117669103D01*
X238573276Y-117288707D01*
X238662529Y-116840000D01*
X238857471Y-116840000D01*
X238946724Y-117288707D01*
X239200897Y-117669103D01*
X239581293Y-117923276D01*
X239916739Y-117990000D01*
X240143261Y-117990000D01*
X240289344Y-117960942D01*
X240275000Y-117995571D01*
X240275000Y-118204429D01*
X240298372Y-118260853D01*
X240143261Y-118230000D01*
X239916739Y-118230000D01*
X239581293Y-118296724D01*
X239200897Y-118550897D01*
X238946724Y-118931293D01*
X238857471Y-119380000D01*
X238946724Y-119828707D01*
X239200897Y-120209103D01*
X239581293Y-120463276D01*
X239916739Y-120530000D01*
X240143261Y-120530000D01*
X240478707Y-120463276D01*
X240859103Y-120209103D01*
X241113276Y-119828707D01*
X241202529Y-119380000D01*
X241397471Y-119380000D01*
X241486724Y-119828707D01*
X241740897Y-120209103D01*
X242121293Y-120463276D01*
X242456739Y-120530000D01*
X242683261Y-120530000D01*
X243018707Y-120463276D01*
X243399103Y-120209103D01*
X243653276Y-119828707D01*
X243742529Y-119380000D01*
X243653276Y-118931293D01*
X243399103Y-118550897D01*
X243018707Y-118296724D01*
X242683261Y-118230000D01*
X242456739Y-118230000D01*
X242121293Y-118296724D01*
X241740897Y-118550897D01*
X241486724Y-118931293D01*
X241397471Y-119380000D01*
X241202529Y-119380000D01*
X241113276Y-118931293D01*
X240907709Y-118623641D01*
X241097388Y-118545073D01*
X241245073Y-118397388D01*
X241325000Y-118204429D01*
X241325000Y-117995571D01*
X241245073Y-117802612D01*
X241097388Y-117654927D01*
X240918176Y-117580694D01*
X241113276Y-117288707D01*
X241202529Y-116840000D01*
X241113276Y-116391293D01*
X240859103Y-116010897D01*
X240478707Y-115756724D01*
X240143261Y-115690000D01*
X239916739Y-115690000D01*
X239581293Y-115756724D01*
X239200897Y-116010897D01*
X238946724Y-116391293D01*
X238857471Y-116840000D01*
X238662529Y-116840000D01*
X238573276Y-116391293D01*
X238319103Y-116010897D01*
X237938707Y-115756724D01*
X237603261Y-115690000D01*
X237376739Y-115690000D01*
X237041293Y-115756724D01*
X236660897Y-116010897D01*
X236406724Y-116391293D01*
X236317471Y-116840000D01*
X236122529Y-116840000D01*
X236033276Y-116391293D01*
X235779103Y-116010897D01*
X235398707Y-115756724D01*
X235063261Y-115690000D01*
X234836739Y-115690000D01*
X234501293Y-115756724D01*
X234120897Y-116010897D01*
X233866724Y-116391293D01*
X233777471Y-116840000D01*
X233582529Y-116840000D01*
X233493276Y-116391293D01*
X233239103Y-116010897D01*
X232858707Y-115756724D01*
X232523261Y-115690000D01*
X232296739Y-115690000D01*
X231961293Y-115756724D01*
X231580897Y-116010897D01*
X231326724Y-116391293D01*
X231237471Y-116840000D01*
X227550024Y-116840000D01*
X227600000Y-116719347D01*
X227600000Y-116627627D01*
X228688940Y-116627627D01*
X228757758Y-116815000D01*
X229845000Y-116815000D01*
X229845000Y-115727781D01*
X229895000Y-115727781D01*
X229895000Y-116815000D01*
X230982242Y-116815000D01*
X231051060Y-116627627D01*
X230879886Y-116191821D01*
X230554966Y-115854694D01*
X230125766Y-115667571D01*
X230082373Y-115658942D01*
X229895000Y-115727781D01*
X229845000Y-115727781D01*
X229657627Y-115658942D01*
X229614234Y-115667571D01*
X229185034Y-115854694D01*
X228860114Y-116191821D01*
X228688940Y-116627627D01*
X227600000Y-116627627D01*
X227600000Y-116480653D01*
X227508656Y-116260127D01*
X227339873Y-116091344D01*
X227119347Y-116000000D01*
X226880653Y-116000000D01*
X226660127Y-116091344D01*
X226491344Y-116260127D01*
X226400000Y-116480653D01*
X222573082Y-116480653D01*
X222447356Y-116354927D01*
X222254397Y-116275000D01*
X222045539Y-116275000D01*
X221852580Y-116354927D01*
X221704895Y-116502612D01*
X221624968Y-116695571D01*
X220865877Y-116695571D01*
X220865877Y-115990000D01*
X220842593Y-115872946D01*
X220776288Y-115773712D01*
X220677054Y-115707407D01*
X220560000Y-115684123D01*
X218860000Y-115684123D01*
X218742946Y-115707407D01*
X218643712Y-115773712D01*
X218577407Y-115872946D01*
X218554123Y-115990000D01*
X217967829Y-115990000D01*
X217618707Y-115756724D01*
X217283261Y-115690000D01*
X217056739Y-115690000D01*
X216721293Y-115756724D01*
X216340897Y-116010897D01*
X216086724Y-116391293D01*
X215997471Y-116840000D01*
X215802529Y-116840000D01*
X215713276Y-116391293D01*
X215459103Y-116010897D01*
X215078707Y-115756724D01*
X214743261Y-115690000D01*
X214516739Y-115690000D01*
X214181293Y-115756724D01*
X213800897Y-116010897D01*
X213546724Y-116391293D01*
X213457471Y-116840000D01*
X213262529Y-116840000D01*
X213173276Y-116391293D01*
X212919103Y-116010897D01*
X212538707Y-115756724D01*
X212203261Y-115690000D01*
X211976739Y-115690000D01*
X211641293Y-115756724D01*
X211260897Y-116010897D01*
X211006724Y-116391293D01*
X210917471Y-116840000D01*
X210722529Y-116840000D01*
X210633276Y-116391293D01*
X210379103Y-116010897D01*
X209998707Y-115756724D01*
X209663261Y-115690000D01*
X209436739Y-115690000D01*
X209101293Y-115756724D01*
X208720897Y-116010897D01*
X208466724Y-116391293D01*
X208377471Y-116840000D01*
X204508529Y-116840000D01*
X204508656Y-116839873D01*
X204596570Y-116627627D01*
X205828940Y-116627627D01*
X205897758Y-116815000D01*
X206985000Y-116815000D01*
X206985000Y-115727781D01*
X207035000Y-115727781D01*
X207035000Y-116815000D01*
X208122242Y-116815000D01*
X208191060Y-116627627D01*
X208019886Y-116191821D01*
X207694966Y-115854694D01*
X207265766Y-115667571D01*
X207222373Y-115658942D01*
X207035000Y-115727781D01*
X206985000Y-115727781D01*
X206797627Y-115658942D01*
X206754234Y-115667571D01*
X206325034Y-115854694D01*
X206000114Y-116191821D01*
X205828940Y-116627627D01*
X204596570Y-116627627D01*
X204600000Y-116619347D01*
X204600000Y-116380653D01*
X204508656Y-116160127D01*
X204339873Y-115991344D01*
X204119347Y-115900000D01*
X203880653Y-115900000D01*
X203660127Y-115991344D01*
X203491344Y-116160127D01*
X203400000Y-116380653D01*
X201025010Y-116380653D01*
X201025010Y-114995571D01*
X224075000Y-114995571D01*
X224075000Y-115204429D01*
X224154927Y-115397388D01*
X224302612Y-115545073D01*
X224495571Y-115625000D01*
X224704429Y-115625000D01*
X224897388Y-115545073D01*
X225045073Y-115397388D01*
X225107958Y-115245571D01*
X240775000Y-115245571D01*
X240775000Y-115454429D01*
X240854927Y-115647388D01*
X241002612Y-115795073D01*
X241195571Y-115875000D01*
X241404429Y-115875000D01*
X241448129Y-115856899D01*
X241437407Y-115872946D01*
X241414123Y-115990000D01*
X241414123Y-117690000D01*
X241437407Y-117807054D01*
X241503712Y-117906288D01*
X241602946Y-117972593D01*
X241720000Y-117995877D01*
X243420000Y-117995877D01*
X243537054Y-117972593D01*
X243636288Y-117906288D01*
X243702593Y-117807054D01*
X243725877Y-117690000D01*
X243725877Y-115990000D01*
X243702593Y-115872946D01*
X243636288Y-115773712D01*
X243537054Y-115707407D01*
X243420000Y-115684123D01*
X241720000Y-115684123D01*
X241705442Y-115687019D01*
X241745073Y-115647388D01*
X241825000Y-115454429D01*
X241825000Y-115245571D01*
X241745073Y-115052612D01*
X241597388Y-114904927D01*
X241404429Y-114825000D01*
X241195571Y-114825000D01*
X241002612Y-114904927D01*
X240854927Y-115052612D01*
X240775000Y-115245571D01*
X225107958Y-115245571D01*
X225125000Y-115204429D01*
X225125000Y-114995571D01*
X225045073Y-114802612D01*
X224897388Y-114654927D01*
X224704429Y-114575000D01*
X224495571Y-114575000D01*
X224302612Y-114654927D01*
X224154927Y-114802612D01*
X224075000Y-114995571D01*
X201025010Y-114995571D01*
X201025010Y-113685571D01*
X234235000Y-113685571D01*
X234235000Y-113894429D01*
X234314927Y-114087388D01*
X234462612Y-114235073D01*
X234655571Y-114315000D01*
X234864429Y-114315000D01*
X235057388Y-114235073D01*
X235205073Y-114087388D01*
X235285000Y-113894429D01*
X235285000Y-113685571D01*
X235205073Y-113492612D01*
X235057388Y-113344927D01*
X234864429Y-113265000D01*
X234655571Y-113265000D01*
X234462612Y-113344927D01*
X234314927Y-113492612D01*
X234235000Y-113685571D01*
X201025010Y-113685571D01*
X201025010Y-111852806D01*
X201827817Y-111050000D01*
X204345831Y-111050000D01*
X204400000Y-111060775D01*
X204454169Y-111050000D01*
X204454170Y-111050000D01*
X204476436Y-111045571D01*
X228725000Y-111045571D01*
X228725000Y-111254429D01*
X228804927Y-111447388D01*
X228952612Y-111595073D01*
X229145571Y-111675000D01*
X229354429Y-111675000D01*
X229547388Y-111595073D01*
X229695073Y-111447388D01*
X229775000Y-111254429D01*
X229775000Y-111045571D01*
X229695073Y-110852612D01*
X229547388Y-110704927D01*
X229354429Y-110625000D01*
X229145571Y-110625000D01*
X228952612Y-110704927D01*
X228804927Y-110852612D01*
X228725000Y-111045571D01*
X204476436Y-111045571D01*
X204614599Y-111018089D01*
X204796528Y-110896528D01*
X204827216Y-110850600D01*
X205382245Y-110295571D01*
X225575000Y-110295571D01*
X225575000Y-110504429D01*
X225654927Y-110697388D01*
X225802612Y-110845073D01*
X225995571Y-110925000D01*
X226204429Y-110925000D01*
X226397388Y-110845073D01*
X226545073Y-110697388D01*
X226625000Y-110504429D01*
X226625000Y-110395990D01*
X226626957Y-110396800D01*
X226626957Y-110489948D01*
X226706884Y-110682907D01*
X226854569Y-110830592D01*
X227047528Y-110910519D01*
X227256386Y-110910519D01*
X227449345Y-110830592D01*
X227585167Y-110694770D01*
X227627677Y-110797397D01*
X227775362Y-110945082D01*
X227968321Y-111025009D01*
X228177179Y-111025009D01*
X228370138Y-110945082D01*
X228517823Y-110797397D01*
X228597750Y-110604438D01*
X228597750Y-110595571D01*
X231475000Y-110595571D01*
X231475000Y-110804429D01*
X231554927Y-110997388D01*
X231702612Y-111145073D01*
X231895571Y-111225000D01*
X232104429Y-111225000D01*
X232297388Y-111145073D01*
X232445073Y-110997388D01*
X232525000Y-110804429D01*
X232525000Y-110595571D01*
X232445073Y-110402612D01*
X232297388Y-110254927D01*
X232104429Y-110175000D01*
X231895571Y-110175000D01*
X231702612Y-110254927D01*
X231554927Y-110402612D01*
X231475000Y-110595571D01*
X228597750Y-110595571D01*
X228597750Y-110395580D01*
X228517823Y-110202621D01*
X228370138Y-110054936D01*
X228177179Y-109975009D01*
X227968321Y-109975009D01*
X227775362Y-110054936D01*
X227639540Y-110190758D01*
X227597030Y-110088131D01*
X227449345Y-109940446D01*
X227324434Y-109888706D01*
X227324434Y-109795558D01*
X227244507Y-109602599D01*
X227096822Y-109454914D01*
X226903863Y-109374987D01*
X226695005Y-109374987D01*
X226623477Y-109404615D01*
X226581215Y-109302588D01*
X226492133Y-109213506D01*
X230300740Y-109213506D01*
X230300740Y-109422364D01*
X230380667Y-109615323D01*
X230528352Y-109763008D01*
X230721311Y-109842935D01*
X230930169Y-109842935D01*
X231123128Y-109763008D01*
X231181446Y-109704690D01*
X231315599Y-109760259D01*
X231439964Y-109760259D01*
X231479920Y-109856721D01*
X231627605Y-110004406D01*
X231820564Y-110084333D01*
X232029422Y-110084333D01*
X232218477Y-110006023D01*
X232272744Y-110060290D01*
X232465703Y-110140217D01*
X232674561Y-110140217D01*
X232867520Y-110060290D01*
X233015205Y-109912605D01*
X233033750Y-109867833D01*
X233128622Y-109867833D01*
X233055000Y-110045571D01*
X233055000Y-110254429D01*
X233134927Y-110447388D01*
X233282612Y-110595073D01*
X233475571Y-110675000D01*
X233684429Y-110675000D01*
X233877388Y-110595073D01*
X234025073Y-110447388D01*
X234105000Y-110254429D01*
X234105000Y-110045571D01*
X234025073Y-109852612D01*
X233877388Y-109704927D01*
X233684429Y-109625000D01*
X233556132Y-109625000D01*
X233629754Y-109447262D01*
X233629754Y-109343206D01*
X233686223Y-109343206D01*
X233879182Y-109263279D01*
X234026867Y-109115594D01*
X234106794Y-108922635D01*
X234106794Y-108713777D01*
X234026867Y-108520818D01*
X233879182Y-108373133D01*
X233686223Y-108293206D01*
X233477365Y-108293206D01*
X233284406Y-108373133D01*
X233136721Y-108520818D01*
X233056794Y-108713777D01*
X233056794Y-108817833D01*
X233000325Y-108817833D01*
X232807366Y-108897760D01*
X232659681Y-109045445D01*
X232641136Y-109090217D01*
X232465703Y-109090217D01*
X232276648Y-109168527D01*
X232222381Y-109114260D01*
X232029422Y-109034333D01*
X231905057Y-109034333D01*
X231865101Y-108937871D01*
X231717416Y-108790186D01*
X231524457Y-108710259D01*
X231315599Y-108710259D01*
X231122640Y-108790186D01*
X231064322Y-108848504D01*
X230930169Y-108792935D01*
X230721311Y-108792935D01*
X230528352Y-108872862D01*
X230380667Y-109020547D01*
X230300740Y-109213506D01*
X226492133Y-109213506D01*
X226433530Y-109154903D01*
X226240571Y-109074976D01*
X226031713Y-109074976D01*
X225838754Y-109154903D01*
X225691069Y-109302588D01*
X225611142Y-109495547D01*
X225611142Y-109704405D01*
X225691069Y-109897364D01*
X225775622Y-109981917D01*
X225654927Y-110102612D01*
X225575000Y-110295571D01*
X205382245Y-110295571D01*
X207582245Y-108095571D01*
X225575000Y-108095571D01*
X225575000Y-108304429D01*
X225654927Y-108497388D01*
X225802612Y-108645073D01*
X225995571Y-108725000D01*
X226204429Y-108725000D01*
X226397388Y-108645073D01*
X226545073Y-108497388D01*
X226625000Y-108304429D01*
X226625000Y-108095571D01*
X226545073Y-107902612D01*
X226397388Y-107754927D01*
X226204429Y-107675000D01*
X225995571Y-107675000D01*
X225802612Y-107754927D01*
X225654927Y-107902612D01*
X225575000Y-108095571D01*
X207582245Y-108095571D01*
X208282245Y-107395571D01*
X230175000Y-107395571D01*
X230175000Y-107604429D01*
X230254927Y-107797388D01*
X230402612Y-107945073D01*
X230595571Y-108025000D01*
X230804429Y-108025000D01*
X230997388Y-107945073D01*
X231145073Y-107797388D01*
X231225000Y-107604429D01*
X231225000Y-107525571D01*
X235005000Y-107525571D01*
X235005000Y-107734429D01*
X235084927Y-107927388D01*
X235232612Y-108075073D01*
X235425571Y-108155000D01*
X235475000Y-108155000D01*
X235475000Y-108329428D01*
X235554927Y-108522387D01*
X235702612Y-108670072D01*
X235895571Y-108749999D01*
X236104429Y-108749999D01*
X236297388Y-108670072D01*
X236331889Y-108635571D01*
X236725000Y-108635571D01*
X236725000Y-108844429D01*
X236804927Y-109037388D01*
X236952612Y-109185073D01*
X237145571Y-109265000D01*
X237354429Y-109265000D01*
X237547388Y-109185073D01*
X237646880Y-109085581D01*
X237969268Y-109085581D01*
X237969268Y-109294439D01*
X238049195Y-109487398D01*
X238196880Y-109635083D01*
X238389839Y-109715010D01*
X238598697Y-109715010D01*
X238791656Y-109635083D01*
X238939341Y-109487398D01*
X239019268Y-109294439D01*
X239019268Y-109085581D01*
X238939341Y-108892622D01*
X238791656Y-108744937D01*
X238598697Y-108665010D01*
X238389839Y-108665010D01*
X238196880Y-108744937D01*
X238049195Y-108892622D01*
X237969268Y-109085581D01*
X237646880Y-109085581D01*
X237695073Y-109037388D01*
X237775000Y-108844429D01*
X237775000Y-108635571D01*
X237695073Y-108442612D01*
X237547388Y-108294927D01*
X237354429Y-108215000D01*
X237145571Y-108215000D01*
X236952612Y-108294927D01*
X236804927Y-108442612D01*
X236725000Y-108635571D01*
X236331889Y-108635571D01*
X236445073Y-108522387D01*
X236525000Y-108329428D01*
X236525000Y-108120570D01*
X236445073Y-107927611D01*
X236297388Y-107779926D01*
X236104429Y-107699999D01*
X236055000Y-107699999D01*
X236055000Y-107525571D01*
X235975073Y-107332612D01*
X235827388Y-107184927D01*
X235634429Y-107105000D01*
X235425571Y-107105000D01*
X235232612Y-107184927D01*
X235084927Y-107332612D01*
X235005000Y-107525571D01*
X231225000Y-107525571D01*
X231225000Y-107395571D01*
X231145073Y-107202612D01*
X230997388Y-107054927D01*
X230804429Y-106975000D01*
X230595571Y-106975000D01*
X230402612Y-107054927D01*
X230254927Y-107202612D01*
X230175000Y-107395571D01*
X208282245Y-107395571D01*
X208975704Y-106702113D01*
X208991344Y-106739873D01*
X209160127Y-106908656D01*
X209380653Y-107000000D01*
X209619347Y-107000000D01*
X209839873Y-106908656D01*
X210008656Y-106739873D01*
X210100000Y-106519347D01*
X210100000Y-106280653D01*
X214900000Y-106280653D01*
X214900000Y-106519347D01*
X214991344Y-106739873D01*
X215160127Y-106908656D01*
X215380653Y-107000000D01*
X215619347Y-107000000D01*
X215839873Y-106908656D01*
X216008656Y-106739873D01*
X216100000Y-106519347D01*
X216100000Y-106333100D01*
X232267998Y-106333100D01*
X232267998Y-106541958D01*
X232347925Y-106734917D01*
X232495610Y-106882602D01*
X232688569Y-106962529D01*
X232897427Y-106962529D01*
X233090386Y-106882602D01*
X233238071Y-106734917D01*
X233317998Y-106541958D01*
X233317998Y-106333100D01*
X233238071Y-106140141D01*
X233090386Y-105992456D01*
X232977197Y-105945571D01*
X236995000Y-105945571D01*
X236995000Y-106154429D01*
X237074927Y-106347388D01*
X237222612Y-106495073D01*
X237415571Y-106575000D01*
X237624429Y-106575000D01*
X237817388Y-106495073D01*
X237965073Y-106347388D01*
X238045000Y-106154429D01*
X238045000Y-106095571D01*
X239275000Y-106095571D01*
X239275000Y-106304429D01*
X239354927Y-106497388D01*
X239502612Y-106645073D01*
X239695571Y-106725000D01*
X239904429Y-106725000D01*
X240097388Y-106645073D01*
X240245073Y-106497388D01*
X240325000Y-106304429D01*
X240325000Y-106095571D01*
X240245073Y-105902612D01*
X240097388Y-105754927D01*
X239904429Y-105675000D01*
X239695571Y-105675000D01*
X239502612Y-105754927D01*
X239354927Y-105902612D01*
X239275000Y-106095571D01*
X238045000Y-106095571D01*
X238045000Y-105945571D01*
X237965073Y-105752612D01*
X237817388Y-105604927D01*
X237624429Y-105525000D01*
X237415571Y-105525000D01*
X237222612Y-105604927D01*
X237074927Y-105752612D01*
X236995000Y-105945571D01*
X232977197Y-105945571D01*
X232897427Y-105912529D01*
X232688569Y-105912529D01*
X232495610Y-105992456D01*
X232347925Y-106140141D01*
X232267998Y-106333100D01*
X216100000Y-106333100D01*
X216100000Y-106280653D01*
X216008656Y-106060127D01*
X215839873Y-105891344D01*
X215619347Y-105800000D01*
X215380653Y-105800000D01*
X215160127Y-105891344D01*
X214991344Y-106060127D01*
X214900000Y-106280653D01*
X210100000Y-106280653D01*
X210008656Y-106060127D01*
X209839873Y-105891344D01*
X209802113Y-105875704D01*
X209850603Y-105827214D01*
X209896528Y-105796528D01*
X210018089Y-105614599D01*
X210050000Y-105454170D01*
X210060775Y-105400001D01*
X210050000Y-105345832D01*
X210050000Y-105180653D01*
X211950000Y-105180653D01*
X211950000Y-105419347D01*
X212041344Y-105639873D01*
X212210127Y-105808656D01*
X212430653Y-105900000D01*
X212669347Y-105900000D01*
X212889873Y-105808656D01*
X213058656Y-105639873D01*
X213083185Y-105580653D01*
X216200000Y-105580653D01*
X216200000Y-105819347D01*
X216291344Y-106039873D01*
X216460127Y-106208656D01*
X216680653Y-106300000D01*
X216919347Y-106300000D01*
X217139873Y-106208656D01*
X217308656Y-106039873D01*
X217400000Y-105819347D01*
X217400000Y-105580653D01*
X217308656Y-105360127D01*
X217139873Y-105191344D01*
X216919347Y-105100000D01*
X216680653Y-105100000D01*
X216460127Y-105191344D01*
X216291344Y-105360127D01*
X216200000Y-105580653D01*
X213083185Y-105580653D01*
X213150000Y-105419347D01*
X213150000Y-105180653D01*
X213058656Y-104960127D01*
X212889873Y-104791344D01*
X212669347Y-104700000D01*
X212430653Y-104700000D01*
X212210127Y-104791344D01*
X212041344Y-104960127D01*
X211950000Y-105180653D01*
X210050000Y-105180653D01*
X210050000Y-104245571D01*
X222675000Y-104245571D01*
X222675000Y-104454429D01*
X222754927Y-104647388D01*
X222902612Y-104795073D01*
X223095571Y-104875000D01*
X223304429Y-104875000D01*
X223497388Y-104795073D01*
X223645073Y-104647388D01*
X223645825Y-104645571D01*
X229225000Y-104645571D01*
X229225000Y-104854429D01*
X229285298Y-105000000D01*
X229225000Y-105145571D01*
X229225000Y-105354429D01*
X229304927Y-105547388D01*
X229452612Y-105695073D01*
X229645571Y-105775000D01*
X229854429Y-105775000D01*
X230000000Y-105714702D01*
X230145571Y-105775000D01*
X230354429Y-105775000D01*
X230547388Y-105695073D01*
X230695073Y-105547388D01*
X230775000Y-105354429D01*
X230775000Y-105145571D01*
X230714702Y-105000000D01*
X230757958Y-104895571D01*
X232135000Y-104895571D01*
X232135000Y-105104429D01*
X232214927Y-105297388D01*
X232362612Y-105445073D01*
X232555571Y-105525000D01*
X232764429Y-105525000D01*
X232957388Y-105445073D01*
X233105073Y-105297388D01*
X233167958Y-105145571D01*
X239875000Y-105145571D01*
X239875000Y-105354429D01*
X239954927Y-105547388D01*
X240102612Y-105695073D01*
X240295571Y-105775000D01*
X240504429Y-105775000D01*
X240697388Y-105695073D01*
X240845073Y-105547388D01*
X240925000Y-105354429D01*
X240925000Y-105145571D01*
X242475000Y-105145571D01*
X242475000Y-105354429D01*
X242554927Y-105547388D01*
X242702612Y-105695073D01*
X242895571Y-105775000D01*
X243104429Y-105775000D01*
X243297388Y-105695073D01*
X243445073Y-105547388D01*
X243525000Y-105354429D01*
X243525000Y-105145571D01*
X243445073Y-104952612D01*
X243297388Y-104804927D01*
X243104429Y-104725000D01*
X242895571Y-104725000D01*
X242702612Y-104804927D01*
X242554927Y-104952612D01*
X242475000Y-105145571D01*
X240925000Y-105145571D01*
X240845073Y-104952612D01*
X240697388Y-104804927D01*
X240504429Y-104725000D01*
X240295571Y-104725000D01*
X240102612Y-104804927D01*
X239954927Y-104952612D01*
X239875000Y-105145571D01*
X233167958Y-105145571D01*
X233185000Y-105104429D01*
X233185000Y-104895571D01*
X233105073Y-104702612D01*
X232957388Y-104554927D01*
X232764429Y-104475000D01*
X232555571Y-104475000D01*
X232362612Y-104554927D01*
X232214927Y-104702612D01*
X232135000Y-104895571D01*
X230757958Y-104895571D01*
X230775000Y-104854429D01*
X230775000Y-104645571D01*
X230695073Y-104452612D01*
X230547388Y-104304927D01*
X230354429Y-104225000D01*
X230145571Y-104225000D01*
X230000000Y-104285298D01*
X229854429Y-104225000D01*
X229645571Y-104225000D01*
X229452612Y-104304927D01*
X229304927Y-104452612D01*
X229225000Y-104645571D01*
X223645825Y-104645571D01*
X223725000Y-104454429D01*
X223725000Y-104245571D01*
X223645073Y-104052612D01*
X223497388Y-103904927D01*
X223304429Y-103825000D01*
X223095571Y-103825000D01*
X222902612Y-103904927D01*
X222754927Y-104052612D01*
X222675000Y-104245571D01*
X210050000Y-104245571D01*
X210050000Y-103890059D01*
X210100000Y-103769347D01*
X210100000Y-103645571D01*
X239875000Y-103645571D01*
X239875000Y-103854429D01*
X239954927Y-104047388D01*
X240102612Y-104195073D01*
X240295571Y-104275000D01*
X240504429Y-104275000D01*
X240697388Y-104195073D01*
X240845073Y-104047388D01*
X240925000Y-103854429D01*
X240925000Y-103645571D01*
X242475000Y-103645571D01*
X242475000Y-103854429D01*
X242554927Y-104047388D01*
X242702612Y-104195073D01*
X242895571Y-104275000D01*
X243104429Y-104275000D01*
X243297388Y-104195073D01*
X243445073Y-104047388D01*
X243525000Y-103854429D01*
X243525000Y-103645571D01*
X243445073Y-103452612D01*
X243297388Y-103304927D01*
X243104429Y-103225000D01*
X242895571Y-103225000D01*
X242702612Y-103304927D01*
X242554927Y-103452612D01*
X242475000Y-103645571D01*
X240925000Y-103645571D01*
X240845073Y-103452612D01*
X240697388Y-103304927D01*
X240504429Y-103225000D01*
X240295571Y-103225000D01*
X240102612Y-103304927D01*
X239954927Y-103452612D01*
X239875000Y-103645571D01*
X210100000Y-103645571D01*
X210100000Y-103530653D01*
X210008656Y-103310127D01*
X209839873Y-103141344D01*
X209619347Y-103050000D01*
X209380653Y-103050000D01*
X209160127Y-103141344D01*
X208991344Y-103310127D01*
X208900000Y-103530653D01*
X208900000Y-103769347D01*
X208950000Y-103890059D01*
X208950001Y-105172182D01*
X204172184Y-109950000D01*
X201654168Y-109950000D01*
X201599999Y-109939225D01*
X201545830Y-109950000D01*
X201385401Y-109981911D01*
X201203472Y-110103472D01*
X201172787Y-110149396D01*
X200375000Y-110947184D01*
X200375000Y-109016211D01*
X200463636Y-109148864D01*
X200761337Y-109347781D01*
X201023858Y-109400000D01*
X201901142Y-109400000D01*
X202163663Y-109347781D01*
X202461364Y-109148864D01*
X202660281Y-108851163D01*
X202730132Y-108500000D01*
X202660281Y-108148837D01*
X202461364Y-107851136D01*
X202163663Y-107652219D01*
X201901142Y-107600000D01*
X201023858Y-107600000D01*
X200761337Y-107652219D01*
X200463636Y-107851136D01*
X200375000Y-107983789D01*
X200375000Y-107296115D01*
X203137500Y-107296115D01*
X203137500Y-107703885D01*
X203293547Y-108080616D01*
X203581884Y-108368953D01*
X203958615Y-108525000D01*
X204366385Y-108525000D01*
X204743116Y-108368953D01*
X205031453Y-108080616D01*
X205187500Y-107703885D01*
X205187500Y-107296115D01*
X205031453Y-106919384D01*
X204743116Y-106631047D01*
X204366385Y-106475000D01*
X203958615Y-106475000D01*
X203581884Y-106631047D01*
X203293547Y-106919384D01*
X203137500Y-107296115D01*
X200375000Y-107296115D01*
X200375000Y-105630653D01*
X205000000Y-105630653D01*
X205000000Y-105869347D01*
X205091344Y-106089873D01*
X205176471Y-106175000D01*
X205091344Y-106260127D01*
X205000000Y-106480653D01*
X205000000Y-106719347D01*
X205091344Y-106939873D01*
X205260127Y-107108656D01*
X205480653Y-107200000D01*
X205719347Y-107200000D01*
X205939873Y-107108656D01*
X206108656Y-106939873D01*
X206200000Y-106719347D01*
X206200000Y-106480653D01*
X206108656Y-106260127D01*
X206023529Y-106175000D01*
X206108656Y-106089873D01*
X206200000Y-105869347D01*
X206200000Y-105630653D01*
X206108656Y-105410127D01*
X205939873Y-105241344D01*
X205719347Y-105150000D01*
X205480653Y-105150000D01*
X205260127Y-105241344D01*
X205091344Y-105410127D01*
X205000000Y-105630653D01*
X200375000Y-105630653D01*
X200375000Y-104530653D01*
X206850000Y-104530653D01*
X206850000Y-104769347D01*
X206941344Y-104989873D01*
X207110127Y-105158656D01*
X207330653Y-105250000D01*
X207569347Y-105250000D01*
X207789873Y-105158656D01*
X207958656Y-104989873D01*
X208050000Y-104769347D01*
X208050000Y-104530653D01*
X207958656Y-104310127D01*
X207789873Y-104141344D01*
X207569347Y-104050000D01*
X207330653Y-104050000D01*
X207110127Y-104141344D01*
X206941344Y-104310127D01*
X206850000Y-104530653D01*
X200375000Y-104530653D01*
X200375000Y-102016211D01*
X200463636Y-102148864D01*
X200761337Y-102347781D01*
X201023858Y-102400000D01*
X201901142Y-102400000D01*
X202163663Y-102347781D01*
X202240986Y-102296115D01*
X203137500Y-102296115D01*
X203137500Y-102703885D01*
X203293547Y-103080616D01*
X203581884Y-103368953D01*
X203958615Y-103525000D01*
X204366385Y-103525000D01*
X204743116Y-103368953D01*
X205031453Y-103080616D01*
X205149522Y-102795571D01*
X229475000Y-102795571D01*
X229475000Y-103004429D01*
X229554927Y-103197388D01*
X229702612Y-103345073D01*
X229895571Y-103425000D01*
X230104429Y-103425000D01*
X230297388Y-103345073D01*
X230445073Y-103197388D01*
X230525000Y-103004429D01*
X230525000Y-102795571D01*
X230975000Y-102795571D01*
X230975000Y-103004429D01*
X231054927Y-103197388D01*
X231202612Y-103345073D01*
X231395571Y-103425000D01*
X231604429Y-103425000D01*
X231797388Y-103345073D01*
X231945073Y-103197388D01*
X232025000Y-103004429D01*
X232025000Y-102795571D01*
X231945073Y-102602612D01*
X231797388Y-102454927D01*
X231604429Y-102375000D01*
X231395571Y-102375000D01*
X231202612Y-102454927D01*
X231054927Y-102602612D01*
X230975000Y-102795571D01*
X230525000Y-102795571D01*
X230445073Y-102602612D01*
X230297388Y-102454927D01*
X230104429Y-102375000D01*
X229895571Y-102375000D01*
X229702612Y-102454927D01*
X229554927Y-102602612D01*
X229475000Y-102795571D01*
X205149522Y-102795571D01*
X205187500Y-102703885D01*
X205187500Y-102296115D01*
X205063011Y-101995571D01*
X219775000Y-101995571D01*
X219775000Y-102204429D01*
X219854927Y-102397388D01*
X220002612Y-102545073D01*
X220195571Y-102625000D01*
X220404429Y-102625000D01*
X220597388Y-102545073D01*
X220745073Y-102397388D01*
X220825000Y-102204429D01*
X220825000Y-101995571D01*
X224675000Y-101995571D01*
X224675000Y-102204429D01*
X224754927Y-102397388D01*
X224902612Y-102545073D01*
X225095571Y-102625000D01*
X225304429Y-102625000D01*
X225497388Y-102545073D01*
X225645073Y-102397388D01*
X225725000Y-102204429D01*
X225725000Y-102145571D01*
X239875000Y-102145571D01*
X239875000Y-102354429D01*
X239954927Y-102547388D01*
X240102612Y-102695073D01*
X240295571Y-102775000D01*
X240504429Y-102775000D01*
X240697388Y-102695073D01*
X240845073Y-102547388D01*
X240925000Y-102354429D01*
X240925000Y-102145571D01*
X242475000Y-102145571D01*
X242475000Y-102354429D01*
X242554927Y-102547388D01*
X242702612Y-102695073D01*
X242895571Y-102775000D01*
X243104429Y-102775000D01*
X243297388Y-102695073D01*
X243445073Y-102547388D01*
X243525000Y-102354429D01*
X243525000Y-102145571D01*
X243445073Y-101952612D01*
X243297388Y-101804927D01*
X243104429Y-101725000D01*
X242895571Y-101725000D01*
X242702612Y-101804927D01*
X242554927Y-101952612D01*
X242475000Y-102145571D01*
X240925000Y-102145571D01*
X240845073Y-101952612D01*
X240697388Y-101804927D01*
X240504429Y-101725000D01*
X240295571Y-101725000D01*
X240102612Y-101804927D01*
X239954927Y-101952612D01*
X239875000Y-102145571D01*
X225725000Y-102145571D01*
X225725000Y-101995571D01*
X225645073Y-101802612D01*
X225497388Y-101654927D01*
X225304429Y-101575000D01*
X225095571Y-101575000D01*
X224902612Y-101654927D01*
X224754927Y-101802612D01*
X224675000Y-101995571D01*
X220825000Y-101995571D01*
X220745073Y-101802612D01*
X220597388Y-101654927D01*
X220404429Y-101575000D01*
X220195571Y-101575000D01*
X220002612Y-101654927D01*
X219854927Y-101802612D01*
X219775000Y-101995571D01*
X205063011Y-101995571D01*
X205031453Y-101919384D01*
X204743116Y-101631047D01*
X204366385Y-101475000D01*
X203958615Y-101475000D01*
X203581884Y-101631047D01*
X203293547Y-101919384D01*
X203137500Y-102296115D01*
X202240986Y-102296115D01*
X202461364Y-102148864D01*
X202660281Y-101851163D01*
X202730132Y-101500000D01*
X202660281Y-101148837D01*
X202591282Y-101045571D01*
X233775000Y-101045571D01*
X233775000Y-101254429D01*
X233854927Y-101447388D01*
X234002612Y-101595073D01*
X234195571Y-101675000D01*
X234404429Y-101675000D01*
X234597388Y-101595073D01*
X234745073Y-101447388D01*
X234825000Y-101254429D01*
X234825000Y-101045571D01*
X234745073Y-100852612D01*
X234597388Y-100704927D01*
X234404429Y-100625000D01*
X234195571Y-100625000D01*
X234002612Y-100704927D01*
X233854927Y-100852612D01*
X233775000Y-101045571D01*
X202591282Y-101045571D01*
X202461364Y-100851136D01*
X202163663Y-100652219D01*
X201901142Y-100600000D01*
X201023858Y-100600000D01*
X200761337Y-100652219D01*
X200463636Y-100851136D01*
X200375000Y-100983789D01*
X200375000Y-100395571D01*
X229975000Y-100395571D01*
X229975000Y-100604429D01*
X230054927Y-100797388D01*
X230202612Y-100945073D01*
X230395571Y-101025000D01*
X230604429Y-101025000D01*
X230797388Y-100945073D01*
X230945073Y-100797388D01*
X231025000Y-100604429D01*
X231025000Y-100395571D01*
X231775000Y-100395571D01*
X231775000Y-100604429D01*
X231854927Y-100797388D01*
X232002612Y-100945073D01*
X232195571Y-101025000D01*
X232404429Y-101025000D01*
X232597388Y-100945073D01*
X232745073Y-100797388D01*
X232825000Y-100604429D01*
X232825000Y-100395571D01*
X232745073Y-100202612D01*
X232597388Y-100054927D01*
X232574801Y-100045571D01*
X234725000Y-100045571D01*
X234725000Y-100254429D01*
X234804927Y-100447388D01*
X234952612Y-100595073D01*
X235145571Y-100675000D01*
X235354429Y-100675000D01*
X235425476Y-100645571D01*
X239875000Y-100645571D01*
X239875000Y-100854429D01*
X239954927Y-101047388D01*
X240102612Y-101195073D01*
X240295571Y-101275000D01*
X240504429Y-101275000D01*
X240697388Y-101195073D01*
X240845073Y-101047388D01*
X240925000Y-100854429D01*
X240925000Y-100645571D01*
X242475000Y-100645571D01*
X242475000Y-100854429D01*
X242554927Y-101047388D01*
X242702612Y-101195073D01*
X242895571Y-101275000D01*
X243104429Y-101275000D01*
X243297388Y-101195073D01*
X243445073Y-101047388D01*
X243525000Y-100854429D01*
X243525000Y-100645571D01*
X243445073Y-100452612D01*
X243297388Y-100304927D01*
X243104429Y-100225000D01*
X242895571Y-100225000D01*
X242702612Y-100304927D01*
X242554927Y-100452612D01*
X242475000Y-100645571D01*
X240925000Y-100645571D01*
X240845073Y-100452612D01*
X240697388Y-100304927D01*
X240504429Y-100225000D01*
X240295571Y-100225000D01*
X240102612Y-100304927D01*
X239954927Y-100452612D01*
X239875000Y-100645571D01*
X235425476Y-100645571D01*
X235547388Y-100595073D01*
X235695073Y-100447388D01*
X235775000Y-100254429D01*
X235775000Y-100045571D01*
X235695073Y-99852612D01*
X235547388Y-99704927D01*
X235354429Y-99625000D01*
X235145571Y-99625000D01*
X234952612Y-99704927D01*
X234804927Y-99852612D01*
X234725000Y-100045571D01*
X232574801Y-100045571D01*
X232404429Y-99975000D01*
X232195571Y-99975000D01*
X232002612Y-100054927D01*
X231854927Y-100202612D01*
X231775000Y-100395571D01*
X231025000Y-100395571D01*
X230945073Y-100202612D01*
X230797388Y-100054927D01*
X230604429Y-99975000D01*
X230395571Y-99975000D01*
X230202612Y-100054927D01*
X230054927Y-100202612D01*
X229975000Y-100395571D01*
X200375000Y-100395571D01*
X200375000Y-99570571D01*
X239525000Y-99570571D01*
X239525000Y-99779429D01*
X239604927Y-99972388D01*
X239752612Y-100120073D01*
X239945571Y-100200000D01*
X240154429Y-100200000D01*
X240347388Y-100120073D01*
X240495073Y-99972388D01*
X240575000Y-99779429D01*
X240575000Y-99570571D01*
X240495073Y-99377612D01*
X240347388Y-99229927D01*
X240154429Y-99150000D01*
X239945571Y-99150000D01*
X239752612Y-99229927D01*
X239604927Y-99377612D01*
X239525000Y-99570571D01*
X200375000Y-99570571D01*
X200375000Y-98495571D01*
X224975000Y-98495571D01*
X224975000Y-98704429D01*
X225054927Y-98897388D01*
X225202612Y-99045073D01*
X225395571Y-99125000D01*
X225604429Y-99125000D01*
X225797388Y-99045073D01*
X225945073Y-98897388D01*
X226025000Y-98704429D01*
X226025000Y-98495571D01*
X225945073Y-98302612D01*
X225797388Y-98154927D01*
X225604429Y-98075000D01*
X225395571Y-98075000D01*
X225202612Y-98154927D01*
X225054927Y-98302612D01*
X224975000Y-98495571D01*
X200375000Y-98495571D01*
X200375000Y-97895571D01*
X229924990Y-97895571D01*
X229924990Y-98104429D01*
X230004917Y-98297388D01*
X230152602Y-98445073D01*
X230345561Y-98525000D01*
X230554419Y-98525000D01*
X230747378Y-98445073D01*
X230895063Y-98297388D01*
X230974990Y-98104429D01*
X230974990Y-97895571D01*
X230895063Y-97702612D01*
X230747378Y-97554927D01*
X230618058Y-97501360D01*
X241250000Y-97501360D01*
X241250000Y-97998640D01*
X241440301Y-98458068D01*
X241791932Y-98809699D01*
X242251360Y-99000000D01*
X242748640Y-99000000D01*
X243208068Y-98809699D01*
X243559699Y-98458068D01*
X243750000Y-97998640D01*
X243750000Y-97501360D01*
X243559699Y-97041932D01*
X243419127Y-96901360D01*
X246150000Y-96901360D01*
X246150000Y-97398640D01*
X246340301Y-97858068D01*
X246691932Y-98209699D01*
X247151360Y-98400000D01*
X247648640Y-98400000D01*
X248108068Y-98209699D01*
X248459699Y-97858068D01*
X248650000Y-97398640D01*
X248650000Y-96901360D01*
X248459699Y-96441932D01*
X248108068Y-96090301D01*
X247648640Y-95900000D01*
X247151360Y-95900000D01*
X246691932Y-96090301D01*
X246340301Y-96441932D01*
X246150000Y-96901360D01*
X243419127Y-96901360D01*
X243208068Y-96690301D01*
X242748640Y-96500000D01*
X242251360Y-96500000D01*
X241791932Y-96690301D01*
X241440301Y-97041932D01*
X241250000Y-97501360D01*
X230618058Y-97501360D01*
X230554419Y-97475000D01*
X230345561Y-97475000D01*
X230152602Y-97554927D01*
X230004917Y-97702612D01*
X229924990Y-97895571D01*
X200375000Y-97895571D01*
X200375000Y-96845581D01*
X211781797Y-96845581D01*
X211781797Y-97054439D01*
X211861724Y-97247398D01*
X212009409Y-97395083D01*
X212202368Y-97475010D01*
X212411226Y-97475010D01*
X212604185Y-97395083D01*
X212751870Y-97247398D01*
X212831797Y-97054439D01*
X212831797Y-96895571D01*
X217375000Y-96895571D01*
X217375000Y-97104429D01*
X217454927Y-97297388D01*
X217602612Y-97445073D01*
X217795571Y-97525000D01*
X218004429Y-97525000D01*
X218197388Y-97445073D01*
X218345073Y-97297388D01*
X218425000Y-97104429D01*
X218425000Y-96895571D01*
X222875000Y-96895571D01*
X222875000Y-97104429D01*
X222954927Y-97297388D01*
X223102612Y-97445073D01*
X223295571Y-97525000D01*
X223504429Y-97525000D01*
X223697388Y-97445073D01*
X223845073Y-97297388D01*
X223925000Y-97104429D01*
X223925000Y-96895571D01*
X227075000Y-96895571D01*
X227075000Y-97104429D01*
X227154927Y-97297388D01*
X227302612Y-97445073D01*
X227495571Y-97525000D01*
X227704429Y-97525000D01*
X227897388Y-97445073D01*
X228045073Y-97297388D01*
X228125000Y-97104429D01*
X228125000Y-96895571D01*
X228045073Y-96702612D01*
X227897388Y-96554927D01*
X227704429Y-96475000D01*
X227495571Y-96475000D01*
X227302612Y-96554927D01*
X227154927Y-96702612D01*
X227075000Y-96895571D01*
X223925000Y-96895571D01*
X223845073Y-96702612D01*
X223697388Y-96554927D01*
X223504429Y-96475000D01*
X223295571Y-96475000D01*
X223102612Y-96554927D01*
X222954927Y-96702612D01*
X222875000Y-96895571D01*
X218425000Y-96895571D01*
X218345073Y-96702612D01*
X218197388Y-96554927D01*
X218004429Y-96475000D01*
X217795571Y-96475000D01*
X217602612Y-96554927D01*
X217454927Y-96702612D01*
X217375000Y-96895571D01*
X212831797Y-96895571D01*
X212831797Y-96845581D01*
X212751870Y-96652622D01*
X212604185Y-96504937D01*
X212411226Y-96425010D01*
X212202368Y-96425010D01*
X212009409Y-96504937D01*
X211861724Y-96652622D01*
X211781797Y-96845581D01*
X200375000Y-96845581D01*
X200375000Y-96095571D01*
X219675000Y-96095571D01*
X219675000Y-96304429D01*
X219754927Y-96497388D01*
X219902612Y-96645073D01*
X220095571Y-96725000D01*
X220304429Y-96725000D01*
X220497388Y-96645073D01*
X220645073Y-96497388D01*
X220725000Y-96304429D01*
X220725000Y-96095571D01*
X220645073Y-95902612D01*
X220497388Y-95754927D01*
X220304429Y-95675000D01*
X220095571Y-95675000D01*
X219902612Y-95754927D01*
X219754927Y-95902612D01*
X219675000Y-96095571D01*
X200375000Y-96095571D01*
X200375000Y-95295571D01*
X224975000Y-95295571D01*
X224975000Y-95504429D01*
X225054927Y-95697388D01*
X225202612Y-95845073D01*
X225395571Y-95925000D01*
X225604429Y-95925000D01*
X225797388Y-95845073D01*
X225945073Y-95697388D01*
X226025000Y-95504429D01*
X226025000Y-95295571D01*
X225945073Y-95102612D01*
X225797388Y-94954927D01*
X225604429Y-94875000D01*
X225395571Y-94875000D01*
X225202612Y-94954927D01*
X225054927Y-95102612D01*
X224975000Y-95295571D01*
X200375000Y-95295571D01*
X200375000Y-93895571D01*
X204475000Y-93895571D01*
X204475000Y-94104429D01*
X204554927Y-94297388D01*
X204702612Y-94445073D01*
X204895571Y-94525000D01*
X205104429Y-94525000D01*
X205297388Y-94445073D01*
X205445073Y-94297388D01*
X205525000Y-94104429D01*
X205525000Y-94045571D01*
X215325000Y-94045571D01*
X215325000Y-94254429D01*
X215404927Y-94447388D01*
X215552612Y-94595073D01*
X215745571Y-94675000D01*
X215954429Y-94675000D01*
X216147388Y-94595073D01*
X216295073Y-94447388D01*
X216375000Y-94254429D01*
X216375000Y-94045571D01*
X216295073Y-93852612D01*
X216147388Y-93704927D01*
X215954429Y-93625000D01*
X215745571Y-93625000D01*
X215552612Y-93704927D01*
X215404927Y-93852612D01*
X215325000Y-94045571D01*
X205525000Y-94045571D01*
X205525000Y-93895571D01*
X205445073Y-93702612D01*
X205297388Y-93554927D01*
X205104429Y-93475000D01*
X204895571Y-93475000D01*
X204702612Y-93554927D01*
X204554927Y-93702612D01*
X204475000Y-93895571D01*
X200375000Y-93895571D01*
X200375000Y-93295571D01*
X222475000Y-93295571D01*
X222475000Y-93504429D01*
X222554927Y-93697388D01*
X222702612Y-93845073D01*
X222895571Y-93925000D01*
X223104429Y-93925000D01*
X223297388Y-93845073D01*
X223300000Y-93842461D01*
X223302612Y-93845073D01*
X223495571Y-93925000D01*
X223704429Y-93925000D01*
X223897388Y-93845073D01*
X224045073Y-93697388D01*
X224125000Y-93504429D01*
X224125000Y-93295571D01*
X224045073Y-93102612D01*
X223897388Y-92954927D01*
X223704429Y-92875000D01*
X223495571Y-92875000D01*
X223302612Y-92954927D01*
X223300000Y-92957539D01*
X223297388Y-92954927D01*
X223104429Y-92875000D01*
X222895571Y-92875000D01*
X222702612Y-92954927D01*
X222554927Y-93102612D01*
X222475000Y-93295571D01*
X200375000Y-93295571D01*
X200375000Y-90995571D01*
X215325000Y-90995571D01*
X215325000Y-91204429D01*
X215404927Y-91397388D01*
X215552612Y-91545073D01*
X215745571Y-91625000D01*
X215954429Y-91625000D01*
X216147388Y-91545073D01*
X216295073Y-91397388D01*
X216375000Y-91204429D01*
X216375000Y-90995571D01*
X216350147Y-90935571D01*
X217635000Y-90935571D01*
X217635000Y-91144429D01*
X217714927Y-91337388D01*
X217862612Y-91485073D01*
X218055571Y-91565000D01*
X218264429Y-91565000D01*
X218457388Y-91485073D01*
X218605073Y-91337388D01*
X218685000Y-91144429D01*
X218685000Y-90935571D01*
X218605073Y-90742612D01*
X218457388Y-90594927D01*
X218264429Y-90515000D01*
X218055571Y-90515000D01*
X217862612Y-90594927D01*
X217714927Y-90742612D01*
X217635000Y-90935571D01*
X216350147Y-90935571D01*
X216295073Y-90802612D01*
X216147388Y-90654927D01*
X215954429Y-90575000D01*
X215745571Y-90575000D01*
X215552612Y-90654927D01*
X215404927Y-90802612D01*
X215325000Y-90995571D01*
X200375000Y-90995571D01*
X200375000Y-89895571D01*
X200475000Y-89895571D01*
X200475000Y-90104429D01*
X200554927Y-90297388D01*
X200702612Y-90445073D01*
X200895571Y-90525000D01*
X201104429Y-90525000D01*
X201297388Y-90445073D01*
X201445073Y-90297388D01*
X201507958Y-90145571D01*
X236675000Y-90145571D01*
X236675000Y-90354429D01*
X236754927Y-90547388D01*
X236902612Y-90695073D01*
X237095571Y-90775000D01*
X237304429Y-90775000D01*
X237497388Y-90695073D01*
X237645073Y-90547388D01*
X237725000Y-90354429D01*
X237725000Y-90167380D01*
X237897638Y-90167380D01*
X238090597Y-90087453D01*
X238238282Y-89939768D01*
X238256589Y-89895571D01*
X248475000Y-89895571D01*
X248475000Y-90104429D01*
X248554927Y-90297388D01*
X248702612Y-90445073D01*
X248895571Y-90525000D01*
X249104429Y-90525000D01*
X249297388Y-90445073D01*
X249445073Y-90297388D01*
X249525000Y-90104429D01*
X249525000Y-89895571D01*
X249445073Y-89702612D01*
X249297388Y-89554927D01*
X249104429Y-89475000D01*
X248895571Y-89475000D01*
X248702612Y-89554927D01*
X248554927Y-89702612D01*
X248475000Y-89895571D01*
X238256589Y-89895571D01*
X238318209Y-89746809D01*
X238318209Y-89537951D01*
X238238282Y-89344992D01*
X238090597Y-89197307D01*
X237897638Y-89117380D01*
X237688780Y-89117380D01*
X237495821Y-89197307D01*
X237348136Y-89344992D01*
X237268209Y-89537951D01*
X237268209Y-89725000D01*
X237095571Y-89725000D01*
X236902612Y-89804927D01*
X236754927Y-89952612D01*
X236675000Y-90145571D01*
X201507958Y-90145571D01*
X201525000Y-90104429D01*
X201525000Y-89895571D01*
X201445073Y-89702612D01*
X201297388Y-89554927D01*
X201104429Y-89475000D01*
X200895571Y-89475000D01*
X200702612Y-89554927D01*
X200554927Y-89702612D01*
X200475000Y-89895571D01*
X200375000Y-89895571D01*
X200375000Y-88021786D01*
X200400000Y-87807355D01*
X200400000Y-87917716D01*
X200719706Y-88689554D01*
X201310446Y-89280294D01*
X202082284Y-89600000D01*
X202917716Y-89600000D01*
X203328428Y-89429877D01*
X227740694Y-89429877D01*
X227740694Y-89638735D01*
X227820621Y-89831694D01*
X227968306Y-89979379D01*
X228161265Y-90059306D01*
X228370123Y-90059306D01*
X228563082Y-89979379D01*
X228710767Y-89831694D01*
X228790694Y-89638735D01*
X228790694Y-89429877D01*
X228710767Y-89236918D01*
X228563082Y-89089233D01*
X228370123Y-89009306D01*
X228161265Y-89009306D01*
X227968306Y-89089233D01*
X227820621Y-89236918D01*
X227740694Y-89429877D01*
X203328428Y-89429877D01*
X203689554Y-89280294D01*
X204280294Y-88689554D01*
X204600000Y-87917716D01*
X204600000Y-87395571D01*
X230575000Y-87395571D01*
X230575000Y-87604429D01*
X230654927Y-87797388D01*
X230802612Y-87945073D01*
X230995571Y-88025000D01*
X231204429Y-88025000D01*
X231397388Y-87945073D01*
X231545073Y-87797388D01*
X231625000Y-87604429D01*
X231625000Y-87395571D01*
X231545073Y-87202612D01*
X231397388Y-87054927D01*
X231204429Y-86975000D01*
X230995571Y-86975000D01*
X230802612Y-87054927D01*
X230654927Y-87202612D01*
X230575000Y-87395571D01*
X204600000Y-87395571D01*
X204600000Y-87082284D01*
X204420942Y-86650000D01*
X231684123Y-86650000D01*
X231684123Y-88350000D01*
X231707407Y-88467054D01*
X231773712Y-88566288D01*
X231872946Y-88632593D01*
X231990000Y-88655877D01*
X233690000Y-88655877D01*
X233807054Y-88632593D01*
X233906288Y-88566288D01*
X233972593Y-88467054D01*
X233995877Y-88350000D01*
X233995877Y-87500000D01*
X234207471Y-87500000D01*
X234296724Y-87948707D01*
X234550897Y-88329103D01*
X234931293Y-88583276D01*
X235266739Y-88650000D01*
X235493261Y-88650000D01*
X235828707Y-88583276D01*
X236209103Y-88329103D01*
X236463276Y-87948707D01*
X236552529Y-87500000D01*
X236747471Y-87500000D01*
X236836724Y-87948707D01*
X237090897Y-88329103D01*
X237471293Y-88583276D01*
X237806739Y-88650000D01*
X238033261Y-88650000D01*
X238368707Y-88583276D01*
X238749103Y-88329103D01*
X239003276Y-87948707D01*
X239092529Y-87500000D01*
X239287471Y-87500000D01*
X239376724Y-87948707D01*
X239630897Y-88329103D01*
X240011293Y-88583276D01*
X240346739Y-88650000D01*
X240573261Y-88650000D01*
X240908707Y-88583276D01*
X241289103Y-88329103D01*
X241543276Y-87948707D01*
X241632529Y-87500000D01*
X241827471Y-87500000D01*
X241916724Y-87948707D01*
X242170897Y-88329103D01*
X242551293Y-88583276D01*
X242886739Y-88650000D01*
X243113261Y-88650000D01*
X243448707Y-88583276D01*
X243829103Y-88329103D01*
X244083276Y-87948707D01*
X244172529Y-87500000D01*
X244083276Y-87051293D01*
X243829103Y-86670897D01*
X243448707Y-86416724D01*
X243113261Y-86350000D01*
X242886739Y-86350000D01*
X242551293Y-86416724D01*
X242170897Y-86670897D01*
X241916724Y-87051293D01*
X241827471Y-87500000D01*
X241632529Y-87500000D01*
X241543276Y-87051293D01*
X241289103Y-86670897D01*
X240908707Y-86416724D01*
X240573261Y-86350000D01*
X240346739Y-86350000D01*
X240011293Y-86416724D01*
X239630897Y-86670897D01*
X239376724Y-87051293D01*
X239287471Y-87500000D01*
X239092529Y-87500000D01*
X239003276Y-87051293D01*
X238749103Y-86670897D01*
X238368707Y-86416724D01*
X238033261Y-86350000D01*
X237806739Y-86350000D01*
X237471293Y-86416724D01*
X237090897Y-86670897D01*
X236836724Y-87051293D01*
X236747471Y-87500000D01*
X236552529Y-87500000D01*
X236463276Y-87051293D01*
X236209103Y-86670897D01*
X235828707Y-86416724D01*
X235493261Y-86350000D01*
X235266739Y-86350000D01*
X234931293Y-86416724D01*
X234550897Y-86670897D01*
X234296724Y-87051293D01*
X234207471Y-87500000D01*
X233995877Y-87500000D01*
X233995877Y-86650000D01*
X233972593Y-86532946D01*
X233906288Y-86433712D01*
X233807054Y-86367407D01*
X233690000Y-86344123D01*
X231990000Y-86344123D01*
X231872946Y-86367407D01*
X231773712Y-86433712D01*
X231707407Y-86532946D01*
X231684123Y-86650000D01*
X204420942Y-86650000D01*
X204280294Y-86310446D01*
X203865419Y-85895571D01*
X204475000Y-85895571D01*
X204475000Y-86104429D01*
X204554927Y-86297388D01*
X204702612Y-86445073D01*
X204895571Y-86525000D01*
X205104429Y-86525000D01*
X205297388Y-86445073D01*
X205445073Y-86297388D01*
X205525000Y-86104429D01*
X205525000Y-85895571D01*
X244475000Y-85895571D01*
X244475000Y-86104429D01*
X244554927Y-86297388D01*
X244702612Y-86445073D01*
X244895571Y-86525000D01*
X245104429Y-86525000D01*
X245297388Y-86445073D01*
X245445073Y-86297388D01*
X245525000Y-86104429D01*
X245525000Y-85895571D01*
X245445073Y-85702612D01*
X245297388Y-85554927D01*
X245104429Y-85475000D01*
X244895571Y-85475000D01*
X244702612Y-85554927D01*
X244554927Y-85702612D01*
X244475000Y-85895571D01*
X205525000Y-85895571D01*
X205445073Y-85702612D01*
X205297388Y-85554927D01*
X205104429Y-85475000D01*
X204895571Y-85475000D01*
X204702612Y-85554927D01*
X204554927Y-85702612D01*
X204475000Y-85895571D01*
X203865419Y-85895571D01*
X203689554Y-85719706D01*
X202917716Y-85400000D01*
X202736576Y-85400000D01*
X203016697Y-85375000D01*
X246978214Y-85375000D01*
X247192645Y-85400000D01*
G04 #@! TD*
M02*
