M48
;DRILL file {KiCad 5.0.2-bee76a0~70~ubuntu18.04.1} date Tue 11 Aug 2020 13:49:40 BST
;FORMAT={-:-/ absolute / inch / decimal}
FMAT,2
INCH,TZ
T1C0.0079
T2C0.0118
T3C0.0236
T4C0.0335
T5C0.0394
T6C0.0512
T7C0.0945
%
G90
G05
T1
X7.9134Y-3.5433
X7.9134Y-4.7244
X8.0512Y-3.9173
X8.0709Y-3.3858
X8.0709Y-3.7008
X8.0709Y-4.8819
X8.3585Y-3.8169
X8.435Y-3.7874
X8.4764Y-4.7638
X8.498Y-3.5866
X8.498Y-3.7067
X8.5787Y-3.8189
X8.589Y-3.5843
X8.6339Y-3.9055
X8.6693Y-3.7874
X8.6732Y-4.0197
X8.7461Y-4.5984
X8.7795Y-3.6772
X8.7874Y-4.1083
X8.7953Y-3.8189
X8.8031Y-3.6772
X8.8425Y-4.5315
X8.85Y-4.66
X8.8661Y-4.0197
X8.878Y-3.7559
X8.878Y-3.8819
X8.9016Y-4.2598
X8.9016Y-4.3465
X8.903Y-4.315
X8.9134Y-3.6772
X8.9281Y-4.0138
X8.9291Y-4.3268
X8.9291Y-4.2638
X8.937Y-3.6772
X8.943Y-4.3459
X8.9488Y-4.1732
X8.9606Y-3.8189
X8.9792Y-4.3504
X8.9868Y-3.525
X9.0256Y-4.376
X9.0453Y-4.124
X9.0453Y-4.1437
X9.0551Y-4.0512
X9.0576Y-4.2403
X9.065Y-4.124
X9.065Y-4.1437
X9.0728Y-3.8583
X9.0748Y-3.9567
X9.0787Y-4.0276
X9.0827Y-4.2323
X9.0876Y-4.3039
X9.0984Y-3.4449
X9.111Y-4.3006
X9.1142Y-4.0512
X9.1309Y-4.3134
X9.1339Y-4.3583
X9.1394Y-4.1543
X9.1457Y-3.9567
X9.1563Y-4.3156
X9.1585Y-4.0305
X9.1598Y-4.1339
X9.1651Y-4.1905
X9.1774Y-4.3048
X9.1811Y-4.0079
X9.1831Y-4.2618
X9.1961Y-4.3366
X9.1961Y-4.2842
X9.2244Y-3.9823
X9.2425Y-4.4799
X9.2618Y-3.9429
X9.2728Y-4.2374
X9.2913Y-4.2608
X9.2913Y-4.3996
X9.3386Y-3.5531
X9.3406Y-4.2811
X9.3406Y-4.3996
X9.3512Y-4.1752
X9.3619Y-3.5292
X9.3895Y-4.2988
X9.3898Y-4.3996
X9.4409Y-4.1811
X9.4429Y-4.2717
X9.4508Y-3.9242
X9.4613Y-4.2886
X9.4646Y-3.9665
X9.4646Y-4.0256
X9.4646Y-4.0846
X9.4646Y-4.1437
X9.4803Y-4.6496
X9.5Y-4.5413
X9.5669Y-3.9665
X9.5669Y-4.0256
X9.5669Y-4.0846
X9.5669Y-4.1437
X9.5669Y-4.2618
X9.6457Y-3.3858
X9.6457Y-4.8819
X9.8031Y-3.5433
X9.8031Y-4.7244
T2
X7.9921Y-4.626
X8.0315Y-4.5866
X8.0945Y-4.1634
X8.0945Y-4.1969
X8.1673Y-4.1201
X8.248Y-4.0807
X8.248Y-4.189
X8.3681Y-4.1457
X8.4843Y-4.0787
X8.4843Y-4.189
X8.5354Y-4.1024
X8.5354Y-4.1614
X8.937Y-4.5906
X8.9685Y-4.6063
X8.99Y-4.71
T4
X8.0379Y-4.0354
X8.0379Y-4.2323
T5
X8.8553Y-4.7177
X8.8553Y-4.8177
X8.15Y-4.6
X8.15Y-4.7
X8.25Y-4.6
X8.25Y-4.7
X8.35Y-4.6
X8.35Y-4.7
X8.45Y-4.6
X8.45Y-4.7
X8.55Y-4.6
X8.55Y-4.7
X8.65Y-4.6
X8.65Y-4.7
X9.05Y-4.6
X9.05Y-4.7
X9.15Y-4.6
X9.15Y-4.7
X9.25Y-4.6
X9.25Y-4.7
X9.35Y-4.6
X9.35Y-4.7
X9.45Y-4.6
X9.45Y-4.7
X9.55Y-4.6
X9.55Y-4.7
X9.1669Y-3.4449
X9.2669Y-3.4449
X9.3669Y-3.4449
X9.4669Y-3.4449
X9.5669Y-3.4449
T6
X9.5472Y-3.8484
X9.5472Y-4.4193
X9.7402Y-3.8248
X9.7402Y-4.4429
T7
X7.9724Y-4.8228
X7.9724Y-3.4449
X9.7441Y-4.8228
X9.7441Y-3.4449
T3
X7.9178Y-3.9961G85X7.9454Y-3.9961
G05
X7.9454Y-4.2717G85X7.9178Y-4.2717
G05
T0
M30
