G04 #@! TF.GenerationSoftware,KiCad,Pcbnew,5.0.2-bee76a0~70~ubuntu18.04.1*
G04 #@! TF.CreationDate,2020-08-11T13:50:02+01:00*
G04 #@! TF.ProjectId,picodvi,7069636f-6476-4692-9e6b-696361645f70,rev?*
G04 #@! TF.SameCoordinates,Original*
G04 #@! TF.FileFunction,Paste,Bot*
G04 #@! TF.FilePolarity,Positive*
%FSLAX46Y46*%
G04 Gerber Fmt 4.6, Leading zero omitted, Abs format (unit mm)*
G04 Created by KiCad (PCBNEW 5.0.2-bee76a0~70~ubuntu18.04.1) date Tue 11 Aug 2020 13:50:02 BST*
%MOMM*%
%LPD*%
G01*
G04 APERTURE LIST*
%ADD10C,0.100000*%
%ADD11C,0.590000*%
G04 APERTURE END LIST*
D10*
G04 #@! TO.C,C2*
G36*
X230186958Y-105720710D02*
X230201276Y-105722834D01*
X230215317Y-105726351D01*
X230228946Y-105731228D01*
X230242031Y-105737417D01*
X230254447Y-105744858D01*
X230266073Y-105753481D01*
X230276798Y-105763202D01*
X230286519Y-105773927D01*
X230295142Y-105785553D01*
X230302583Y-105797969D01*
X230308772Y-105811054D01*
X230313649Y-105824683D01*
X230317166Y-105838724D01*
X230319290Y-105853042D01*
X230320000Y-105867500D01*
X230320000Y-106162500D01*
X230319290Y-106176958D01*
X230317166Y-106191276D01*
X230313649Y-106205317D01*
X230308772Y-106218946D01*
X230302583Y-106232031D01*
X230295142Y-106244447D01*
X230286519Y-106256073D01*
X230276798Y-106266798D01*
X230266073Y-106276519D01*
X230254447Y-106285142D01*
X230242031Y-106292583D01*
X230228946Y-106298772D01*
X230215317Y-106303649D01*
X230201276Y-106307166D01*
X230186958Y-106309290D01*
X230172500Y-106310000D01*
X229827500Y-106310000D01*
X229813042Y-106309290D01*
X229798724Y-106307166D01*
X229784683Y-106303649D01*
X229771054Y-106298772D01*
X229757969Y-106292583D01*
X229745553Y-106285142D01*
X229733927Y-106276519D01*
X229723202Y-106266798D01*
X229713481Y-106256073D01*
X229704858Y-106244447D01*
X229697417Y-106232031D01*
X229691228Y-106218946D01*
X229686351Y-106205317D01*
X229682834Y-106191276D01*
X229680710Y-106176958D01*
X229680000Y-106162500D01*
X229680000Y-105867500D01*
X229680710Y-105853042D01*
X229682834Y-105838724D01*
X229686351Y-105824683D01*
X229691228Y-105811054D01*
X229697417Y-105797969D01*
X229704858Y-105785553D01*
X229713481Y-105773927D01*
X229723202Y-105763202D01*
X229733927Y-105753481D01*
X229745553Y-105744858D01*
X229757969Y-105737417D01*
X229771054Y-105731228D01*
X229784683Y-105726351D01*
X229798724Y-105722834D01*
X229813042Y-105720710D01*
X229827500Y-105720000D01*
X230172500Y-105720000D01*
X230186958Y-105720710D01*
X230186958Y-105720710D01*
G37*
D11*
X230000000Y-106015000D03*
D10*
G36*
X230186958Y-106690710D02*
X230201276Y-106692834D01*
X230215317Y-106696351D01*
X230228946Y-106701228D01*
X230242031Y-106707417D01*
X230254447Y-106714858D01*
X230266073Y-106723481D01*
X230276798Y-106733202D01*
X230286519Y-106743927D01*
X230295142Y-106755553D01*
X230302583Y-106767969D01*
X230308772Y-106781054D01*
X230313649Y-106794683D01*
X230317166Y-106808724D01*
X230319290Y-106823042D01*
X230320000Y-106837500D01*
X230320000Y-107132500D01*
X230319290Y-107146958D01*
X230317166Y-107161276D01*
X230313649Y-107175317D01*
X230308772Y-107188946D01*
X230302583Y-107202031D01*
X230295142Y-107214447D01*
X230286519Y-107226073D01*
X230276798Y-107236798D01*
X230266073Y-107246519D01*
X230254447Y-107255142D01*
X230242031Y-107262583D01*
X230228946Y-107268772D01*
X230215317Y-107273649D01*
X230201276Y-107277166D01*
X230186958Y-107279290D01*
X230172500Y-107280000D01*
X229827500Y-107280000D01*
X229813042Y-107279290D01*
X229798724Y-107277166D01*
X229784683Y-107273649D01*
X229771054Y-107268772D01*
X229757969Y-107262583D01*
X229745553Y-107255142D01*
X229733927Y-107246519D01*
X229723202Y-107236798D01*
X229713481Y-107226073D01*
X229704858Y-107214447D01*
X229697417Y-107202031D01*
X229691228Y-107188946D01*
X229686351Y-107175317D01*
X229682834Y-107161276D01*
X229680710Y-107146958D01*
X229680000Y-107132500D01*
X229680000Y-106837500D01*
X229680710Y-106823042D01*
X229682834Y-106808724D01*
X229686351Y-106794683D01*
X229691228Y-106781054D01*
X229697417Y-106767969D01*
X229704858Y-106755553D01*
X229713481Y-106743927D01*
X229723202Y-106733202D01*
X229733927Y-106723481D01*
X229745553Y-106714858D01*
X229757969Y-106707417D01*
X229771054Y-106701228D01*
X229784683Y-106696351D01*
X229798724Y-106692834D01*
X229813042Y-106690710D01*
X229827500Y-106690000D01*
X230172500Y-106690000D01*
X230186958Y-106690710D01*
X230186958Y-106690710D01*
G37*
D11*
X230000000Y-106985000D03*
G04 #@! TD*
D10*
G04 #@! TO.C,C3*
G36*
X232436958Y-103690710D02*
X232451276Y-103692834D01*
X232465317Y-103696351D01*
X232478946Y-103701228D01*
X232492031Y-103707417D01*
X232504447Y-103714858D01*
X232516073Y-103723481D01*
X232526798Y-103733202D01*
X232536519Y-103743927D01*
X232545142Y-103755553D01*
X232552583Y-103767969D01*
X232558772Y-103781054D01*
X232563649Y-103794683D01*
X232567166Y-103808724D01*
X232569290Y-103823042D01*
X232570000Y-103837500D01*
X232570000Y-104132500D01*
X232569290Y-104146958D01*
X232567166Y-104161276D01*
X232563649Y-104175317D01*
X232558772Y-104188946D01*
X232552583Y-104202031D01*
X232545142Y-104214447D01*
X232536519Y-104226073D01*
X232526798Y-104236798D01*
X232516073Y-104246519D01*
X232504447Y-104255142D01*
X232492031Y-104262583D01*
X232478946Y-104268772D01*
X232465317Y-104273649D01*
X232451276Y-104277166D01*
X232436958Y-104279290D01*
X232422500Y-104280000D01*
X232077500Y-104280000D01*
X232063042Y-104279290D01*
X232048724Y-104277166D01*
X232034683Y-104273649D01*
X232021054Y-104268772D01*
X232007969Y-104262583D01*
X231995553Y-104255142D01*
X231983927Y-104246519D01*
X231973202Y-104236798D01*
X231963481Y-104226073D01*
X231954858Y-104214447D01*
X231947417Y-104202031D01*
X231941228Y-104188946D01*
X231936351Y-104175317D01*
X231932834Y-104161276D01*
X231930710Y-104146958D01*
X231930000Y-104132500D01*
X231930000Y-103837500D01*
X231930710Y-103823042D01*
X231932834Y-103808724D01*
X231936351Y-103794683D01*
X231941228Y-103781054D01*
X231947417Y-103767969D01*
X231954858Y-103755553D01*
X231963481Y-103743927D01*
X231973202Y-103733202D01*
X231983927Y-103723481D01*
X231995553Y-103714858D01*
X232007969Y-103707417D01*
X232021054Y-103701228D01*
X232034683Y-103696351D01*
X232048724Y-103692834D01*
X232063042Y-103690710D01*
X232077500Y-103690000D01*
X232422500Y-103690000D01*
X232436958Y-103690710D01*
X232436958Y-103690710D01*
G37*
D11*
X232250000Y-103985000D03*
D10*
G36*
X232436958Y-102720710D02*
X232451276Y-102722834D01*
X232465317Y-102726351D01*
X232478946Y-102731228D01*
X232492031Y-102737417D01*
X232504447Y-102744858D01*
X232516073Y-102753481D01*
X232526798Y-102763202D01*
X232536519Y-102773927D01*
X232545142Y-102785553D01*
X232552583Y-102797969D01*
X232558772Y-102811054D01*
X232563649Y-102824683D01*
X232567166Y-102838724D01*
X232569290Y-102853042D01*
X232570000Y-102867500D01*
X232570000Y-103162500D01*
X232569290Y-103176958D01*
X232567166Y-103191276D01*
X232563649Y-103205317D01*
X232558772Y-103218946D01*
X232552583Y-103232031D01*
X232545142Y-103244447D01*
X232536519Y-103256073D01*
X232526798Y-103266798D01*
X232516073Y-103276519D01*
X232504447Y-103285142D01*
X232492031Y-103292583D01*
X232478946Y-103298772D01*
X232465317Y-103303649D01*
X232451276Y-103307166D01*
X232436958Y-103309290D01*
X232422500Y-103310000D01*
X232077500Y-103310000D01*
X232063042Y-103309290D01*
X232048724Y-103307166D01*
X232034683Y-103303649D01*
X232021054Y-103298772D01*
X232007969Y-103292583D01*
X231995553Y-103285142D01*
X231983927Y-103276519D01*
X231973202Y-103266798D01*
X231963481Y-103256073D01*
X231954858Y-103244447D01*
X231947417Y-103232031D01*
X231941228Y-103218946D01*
X231936351Y-103205317D01*
X231932834Y-103191276D01*
X231930710Y-103176958D01*
X231930000Y-103162500D01*
X231930000Y-102867500D01*
X231930710Y-102853042D01*
X231932834Y-102838724D01*
X231936351Y-102824683D01*
X231941228Y-102811054D01*
X231947417Y-102797969D01*
X231954858Y-102785553D01*
X231963481Y-102773927D01*
X231973202Y-102763202D01*
X231983927Y-102753481D01*
X231995553Y-102744858D01*
X232007969Y-102737417D01*
X232021054Y-102731228D01*
X232034683Y-102726351D01*
X232048724Y-102722834D01*
X232063042Y-102720710D01*
X232077500Y-102720000D01*
X232422500Y-102720000D01*
X232436958Y-102720710D01*
X232436958Y-102720710D01*
G37*
D11*
X232250000Y-103015000D03*
G04 #@! TD*
D10*
G04 #@! TO.C,C4*
G36*
X232046958Y-104680710D02*
X232061276Y-104682834D01*
X232075317Y-104686351D01*
X232088946Y-104691228D01*
X232102031Y-104697417D01*
X232114447Y-104704858D01*
X232126073Y-104713481D01*
X232136798Y-104723202D01*
X232146519Y-104733927D01*
X232155142Y-104745553D01*
X232162583Y-104757969D01*
X232168772Y-104771054D01*
X232173649Y-104784683D01*
X232177166Y-104798724D01*
X232179290Y-104813042D01*
X232180000Y-104827500D01*
X232180000Y-105172500D01*
X232179290Y-105186958D01*
X232177166Y-105201276D01*
X232173649Y-105215317D01*
X232168772Y-105228946D01*
X232162583Y-105242031D01*
X232155142Y-105254447D01*
X232146519Y-105266073D01*
X232136798Y-105276798D01*
X232126073Y-105286519D01*
X232114447Y-105295142D01*
X232102031Y-105302583D01*
X232088946Y-105308772D01*
X232075317Y-105313649D01*
X232061276Y-105317166D01*
X232046958Y-105319290D01*
X232032500Y-105320000D01*
X231737500Y-105320000D01*
X231723042Y-105319290D01*
X231708724Y-105317166D01*
X231694683Y-105313649D01*
X231681054Y-105308772D01*
X231667969Y-105302583D01*
X231655553Y-105295142D01*
X231643927Y-105286519D01*
X231633202Y-105276798D01*
X231623481Y-105266073D01*
X231614858Y-105254447D01*
X231607417Y-105242031D01*
X231601228Y-105228946D01*
X231596351Y-105215317D01*
X231592834Y-105201276D01*
X231590710Y-105186958D01*
X231590000Y-105172500D01*
X231590000Y-104827500D01*
X231590710Y-104813042D01*
X231592834Y-104798724D01*
X231596351Y-104784683D01*
X231601228Y-104771054D01*
X231607417Y-104757969D01*
X231614858Y-104745553D01*
X231623481Y-104733927D01*
X231633202Y-104723202D01*
X231643927Y-104713481D01*
X231655553Y-104704858D01*
X231667969Y-104697417D01*
X231681054Y-104691228D01*
X231694683Y-104686351D01*
X231708724Y-104682834D01*
X231723042Y-104680710D01*
X231737500Y-104680000D01*
X232032500Y-104680000D01*
X232046958Y-104680710D01*
X232046958Y-104680710D01*
G37*
D11*
X231885000Y-105000000D03*
D10*
G36*
X231076958Y-104680710D02*
X231091276Y-104682834D01*
X231105317Y-104686351D01*
X231118946Y-104691228D01*
X231132031Y-104697417D01*
X231144447Y-104704858D01*
X231156073Y-104713481D01*
X231166798Y-104723202D01*
X231176519Y-104733927D01*
X231185142Y-104745553D01*
X231192583Y-104757969D01*
X231198772Y-104771054D01*
X231203649Y-104784683D01*
X231207166Y-104798724D01*
X231209290Y-104813042D01*
X231210000Y-104827500D01*
X231210000Y-105172500D01*
X231209290Y-105186958D01*
X231207166Y-105201276D01*
X231203649Y-105215317D01*
X231198772Y-105228946D01*
X231192583Y-105242031D01*
X231185142Y-105254447D01*
X231176519Y-105266073D01*
X231166798Y-105276798D01*
X231156073Y-105286519D01*
X231144447Y-105295142D01*
X231132031Y-105302583D01*
X231118946Y-105308772D01*
X231105317Y-105313649D01*
X231091276Y-105317166D01*
X231076958Y-105319290D01*
X231062500Y-105320000D01*
X230767500Y-105320000D01*
X230753042Y-105319290D01*
X230738724Y-105317166D01*
X230724683Y-105313649D01*
X230711054Y-105308772D01*
X230697969Y-105302583D01*
X230685553Y-105295142D01*
X230673927Y-105286519D01*
X230663202Y-105276798D01*
X230653481Y-105266073D01*
X230644858Y-105254447D01*
X230637417Y-105242031D01*
X230631228Y-105228946D01*
X230626351Y-105215317D01*
X230622834Y-105201276D01*
X230620710Y-105186958D01*
X230620000Y-105172500D01*
X230620000Y-104827500D01*
X230620710Y-104813042D01*
X230622834Y-104798724D01*
X230626351Y-104784683D01*
X230631228Y-104771054D01*
X230637417Y-104757969D01*
X230644858Y-104745553D01*
X230653481Y-104733927D01*
X230663202Y-104723202D01*
X230673927Y-104713481D01*
X230685553Y-104704858D01*
X230697969Y-104697417D01*
X230711054Y-104691228D01*
X230724683Y-104686351D01*
X230738724Y-104682834D01*
X230753042Y-104680710D01*
X230767500Y-104680000D01*
X231062500Y-104680000D01*
X231076958Y-104680710D01*
X231076958Y-104680710D01*
G37*
D11*
X230915000Y-105000000D03*
G04 #@! TD*
D10*
G04 #@! TO.C,C5*
G36*
X231436958Y-105720710D02*
X231451276Y-105722834D01*
X231465317Y-105726351D01*
X231478946Y-105731228D01*
X231492031Y-105737417D01*
X231504447Y-105744858D01*
X231516073Y-105753481D01*
X231526798Y-105763202D01*
X231536519Y-105773927D01*
X231545142Y-105785553D01*
X231552583Y-105797969D01*
X231558772Y-105811054D01*
X231563649Y-105824683D01*
X231567166Y-105838724D01*
X231569290Y-105853042D01*
X231570000Y-105867500D01*
X231570000Y-106162500D01*
X231569290Y-106176958D01*
X231567166Y-106191276D01*
X231563649Y-106205317D01*
X231558772Y-106218946D01*
X231552583Y-106232031D01*
X231545142Y-106244447D01*
X231536519Y-106256073D01*
X231526798Y-106266798D01*
X231516073Y-106276519D01*
X231504447Y-106285142D01*
X231492031Y-106292583D01*
X231478946Y-106298772D01*
X231465317Y-106303649D01*
X231451276Y-106307166D01*
X231436958Y-106309290D01*
X231422500Y-106310000D01*
X231077500Y-106310000D01*
X231063042Y-106309290D01*
X231048724Y-106307166D01*
X231034683Y-106303649D01*
X231021054Y-106298772D01*
X231007969Y-106292583D01*
X230995553Y-106285142D01*
X230983927Y-106276519D01*
X230973202Y-106266798D01*
X230963481Y-106256073D01*
X230954858Y-106244447D01*
X230947417Y-106232031D01*
X230941228Y-106218946D01*
X230936351Y-106205317D01*
X230932834Y-106191276D01*
X230930710Y-106176958D01*
X230930000Y-106162500D01*
X230930000Y-105867500D01*
X230930710Y-105853042D01*
X230932834Y-105838724D01*
X230936351Y-105824683D01*
X230941228Y-105811054D01*
X230947417Y-105797969D01*
X230954858Y-105785553D01*
X230963481Y-105773927D01*
X230973202Y-105763202D01*
X230983927Y-105753481D01*
X230995553Y-105744858D01*
X231007969Y-105737417D01*
X231021054Y-105731228D01*
X231034683Y-105726351D01*
X231048724Y-105722834D01*
X231063042Y-105720710D01*
X231077500Y-105720000D01*
X231422500Y-105720000D01*
X231436958Y-105720710D01*
X231436958Y-105720710D01*
G37*
D11*
X231250000Y-106015000D03*
D10*
G36*
X231436958Y-106690710D02*
X231451276Y-106692834D01*
X231465317Y-106696351D01*
X231478946Y-106701228D01*
X231492031Y-106707417D01*
X231504447Y-106714858D01*
X231516073Y-106723481D01*
X231526798Y-106733202D01*
X231536519Y-106743927D01*
X231545142Y-106755553D01*
X231552583Y-106767969D01*
X231558772Y-106781054D01*
X231563649Y-106794683D01*
X231567166Y-106808724D01*
X231569290Y-106823042D01*
X231570000Y-106837500D01*
X231570000Y-107132500D01*
X231569290Y-107146958D01*
X231567166Y-107161276D01*
X231563649Y-107175317D01*
X231558772Y-107188946D01*
X231552583Y-107202031D01*
X231545142Y-107214447D01*
X231536519Y-107226073D01*
X231526798Y-107236798D01*
X231516073Y-107246519D01*
X231504447Y-107255142D01*
X231492031Y-107262583D01*
X231478946Y-107268772D01*
X231465317Y-107273649D01*
X231451276Y-107277166D01*
X231436958Y-107279290D01*
X231422500Y-107280000D01*
X231077500Y-107280000D01*
X231063042Y-107279290D01*
X231048724Y-107277166D01*
X231034683Y-107273649D01*
X231021054Y-107268772D01*
X231007969Y-107262583D01*
X230995553Y-107255142D01*
X230983927Y-107246519D01*
X230973202Y-107236798D01*
X230963481Y-107226073D01*
X230954858Y-107214447D01*
X230947417Y-107202031D01*
X230941228Y-107188946D01*
X230936351Y-107175317D01*
X230932834Y-107161276D01*
X230930710Y-107146958D01*
X230930000Y-107132500D01*
X230930000Y-106837500D01*
X230930710Y-106823042D01*
X230932834Y-106808724D01*
X230936351Y-106794683D01*
X230941228Y-106781054D01*
X230947417Y-106767969D01*
X230954858Y-106755553D01*
X230963481Y-106743927D01*
X230973202Y-106733202D01*
X230983927Y-106723481D01*
X230995553Y-106714858D01*
X231007969Y-106707417D01*
X231021054Y-106701228D01*
X231034683Y-106696351D01*
X231048724Y-106692834D01*
X231063042Y-106690710D01*
X231077500Y-106690000D01*
X231422500Y-106690000D01*
X231436958Y-106690710D01*
X231436958Y-106690710D01*
G37*
D11*
X231250000Y-106985000D03*
G04 #@! TD*
D10*
G04 #@! TO.C,C6*
G36*
X229146958Y-105680710D02*
X229161276Y-105682834D01*
X229175317Y-105686351D01*
X229188946Y-105691228D01*
X229202031Y-105697417D01*
X229214447Y-105704858D01*
X229226073Y-105713481D01*
X229236798Y-105723202D01*
X229246519Y-105733927D01*
X229255142Y-105745553D01*
X229262583Y-105757969D01*
X229268772Y-105771054D01*
X229273649Y-105784683D01*
X229277166Y-105798724D01*
X229279290Y-105813042D01*
X229280000Y-105827500D01*
X229280000Y-106172500D01*
X229279290Y-106186958D01*
X229277166Y-106201276D01*
X229273649Y-106215317D01*
X229268772Y-106228946D01*
X229262583Y-106242031D01*
X229255142Y-106254447D01*
X229246519Y-106266073D01*
X229236798Y-106276798D01*
X229226073Y-106286519D01*
X229214447Y-106295142D01*
X229202031Y-106302583D01*
X229188946Y-106308772D01*
X229175317Y-106313649D01*
X229161276Y-106317166D01*
X229146958Y-106319290D01*
X229132500Y-106320000D01*
X228837500Y-106320000D01*
X228823042Y-106319290D01*
X228808724Y-106317166D01*
X228794683Y-106313649D01*
X228781054Y-106308772D01*
X228767969Y-106302583D01*
X228755553Y-106295142D01*
X228743927Y-106286519D01*
X228733202Y-106276798D01*
X228723481Y-106266073D01*
X228714858Y-106254447D01*
X228707417Y-106242031D01*
X228701228Y-106228946D01*
X228696351Y-106215317D01*
X228692834Y-106201276D01*
X228690710Y-106186958D01*
X228690000Y-106172500D01*
X228690000Y-105827500D01*
X228690710Y-105813042D01*
X228692834Y-105798724D01*
X228696351Y-105784683D01*
X228701228Y-105771054D01*
X228707417Y-105757969D01*
X228714858Y-105745553D01*
X228723481Y-105733927D01*
X228733202Y-105723202D01*
X228743927Y-105713481D01*
X228755553Y-105704858D01*
X228767969Y-105697417D01*
X228781054Y-105691228D01*
X228794683Y-105686351D01*
X228808724Y-105682834D01*
X228823042Y-105680710D01*
X228837500Y-105680000D01*
X229132500Y-105680000D01*
X229146958Y-105680710D01*
X229146958Y-105680710D01*
G37*
D11*
X228985000Y-106000000D03*
D10*
G36*
X228176958Y-105680710D02*
X228191276Y-105682834D01*
X228205317Y-105686351D01*
X228218946Y-105691228D01*
X228232031Y-105697417D01*
X228244447Y-105704858D01*
X228256073Y-105713481D01*
X228266798Y-105723202D01*
X228276519Y-105733927D01*
X228285142Y-105745553D01*
X228292583Y-105757969D01*
X228298772Y-105771054D01*
X228303649Y-105784683D01*
X228307166Y-105798724D01*
X228309290Y-105813042D01*
X228310000Y-105827500D01*
X228310000Y-106172500D01*
X228309290Y-106186958D01*
X228307166Y-106201276D01*
X228303649Y-106215317D01*
X228298772Y-106228946D01*
X228292583Y-106242031D01*
X228285142Y-106254447D01*
X228276519Y-106266073D01*
X228266798Y-106276798D01*
X228256073Y-106286519D01*
X228244447Y-106295142D01*
X228232031Y-106302583D01*
X228218946Y-106308772D01*
X228205317Y-106313649D01*
X228191276Y-106317166D01*
X228176958Y-106319290D01*
X228162500Y-106320000D01*
X227867500Y-106320000D01*
X227853042Y-106319290D01*
X227838724Y-106317166D01*
X227824683Y-106313649D01*
X227811054Y-106308772D01*
X227797969Y-106302583D01*
X227785553Y-106295142D01*
X227773927Y-106286519D01*
X227763202Y-106276798D01*
X227753481Y-106266073D01*
X227744858Y-106254447D01*
X227737417Y-106242031D01*
X227731228Y-106228946D01*
X227726351Y-106215317D01*
X227722834Y-106201276D01*
X227720710Y-106186958D01*
X227720000Y-106172500D01*
X227720000Y-105827500D01*
X227720710Y-105813042D01*
X227722834Y-105798724D01*
X227726351Y-105784683D01*
X227731228Y-105771054D01*
X227737417Y-105757969D01*
X227744858Y-105745553D01*
X227753481Y-105733927D01*
X227763202Y-105723202D01*
X227773927Y-105713481D01*
X227785553Y-105704858D01*
X227797969Y-105697417D01*
X227811054Y-105691228D01*
X227824683Y-105686351D01*
X227838724Y-105682834D01*
X227853042Y-105680710D01*
X227867500Y-105680000D01*
X228162500Y-105680000D01*
X228176958Y-105680710D01*
X228176958Y-105680710D01*
G37*
D11*
X228015000Y-106000000D03*
G04 #@! TD*
D10*
G04 #@! TO.C,C8*
G36*
X229436958Y-102720710D02*
X229451276Y-102722834D01*
X229465317Y-102726351D01*
X229478946Y-102731228D01*
X229492031Y-102737417D01*
X229504447Y-102744858D01*
X229516073Y-102753481D01*
X229526798Y-102763202D01*
X229536519Y-102773927D01*
X229545142Y-102785553D01*
X229552583Y-102797969D01*
X229558772Y-102811054D01*
X229563649Y-102824683D01*
X229567166Y-102838724D01*
X229569290Y-102853042D01*
X229570000Y-102867500D01*
X229570000Y-103162500D01*
X229569290Y-103176958D01*
X229567166Y-103191276D01*
X229563649Y-103205317D01*
X229558772Y-103218946D01*
X229552583Y-103232031D01*
X229545142Y-103244447D01*
X229536519Y-103256073D01*
X229526798Y-103266798D01*
X229516073Y-103276519D01*
X229504447Y-103285142D01*
X229492031Y-103292583D01*
X229478946Y-103298772D01*
X229465317Y-103303649D01*
X229451276Y-103307166D01*
X229436958Y-103309290D01*
X229422500Y-103310000D01*
X229077500Y-103310000D01*
X229063042Y-103309290D01*
X229048724Y-103307166D01*
X229034683Y-103303649D01*
X229021054Y-103298772D01*
X229007969Y-103292583D01*
X228995553Y-103285142D01*
X228983927Y-103276519D01*
X228973202Y-103266798D01*
X228963481Y-103256073D01*
X228954858Y-103244447D01*
X228947417Y-103232031D01*
X228941228Y-103218946D01*
X228936351Y-103205317D01*
X228932834Y-103191276D01*
X228930710Y-103176958D01*
X228930000Y-103162500D01*
X228930000Y-102867500D01*
X228930710Y-102853042D01*
X228932834Y-102838724D01*
X228936351Y-102824683D01*
X228941228Y-102811054D01*
X228947417Y-102797969D01*
X228954858Y-102785553D01*
X228963481Y-102773927D01*
X228973202Y-102763202D01*
X228983927Y-102753481D01*
X228995553Y-102744858D01*
X229007969Y-102737417D01*
X229021054Y-102731228D01*
X229034683Y-102726351D01*
X229048724Y-102722834D01*
X229063042Y-102720710D01*
X229077500Y-102720000D01*
X229422500Y-102720000D01*
X229436958Y-102720710D01*
X229436958Y-102720710D01*
G37*
D11*
X229250000Y-103015000D03*
D10*
G36*
X229436958Y-103690710D02*
X229451276Y-103692834D01*
X229465317Y-103696351D01*
X229478946Y-103701228D01*
X229492031Y-103707417D01*
X229504447Y-103714858D01*
X229516073Y-103723481D01*
X229526798Y-103733202D01*
X229536519Y-103743927D01*
X229545142Y-103755553D01*
X229552583Y-103767969D01*
X229558772Y-103781054D01*
X229563649Y-103794683D01*
X229567166Y-103808724D01*
X229569290Y-103823042D01*
X229570000Y-103837500D01*
X229570000Y-104132500D01*
X229569290Y-104146958D01*
X229567166Y-104161276D01*
X229563649Y-104175317D01*
X229558772Y-104188946D01*
X229552583Y-104202031D01*
X229545142Y-104214447D01*
X229536519Y-104226073D01*
X229526798Y-104236798D01*
X229516073Y-104246519D01*
X229504447Y-104255142D01*
X229492031Y-104262583D01*
X229478946Y-104268772D01*
X229465317Y-104273649D01*
X229451276Y-104277166D01*
X229436958Y-104279290D01*
X229422500Y-104280000D01*
X229077500Y-104280000D01*
X229063042Y-104279290D01*
X229048724Y-104277166D01*
X229034683Y-104273649D01*
X229021054Y-104268772D01*
X229007969Y-104262583D01*
X228995553Y-104255142D01*
X228983927Y-104246519D01*
X228973202Y-104236798D01*
X228963481Y-104226073D01*
X228954858Y-104214447D01*
X228947417Y-104202031D01*
X228941228Y-104188946D01*
X228936351Y-104175317D01*
X228932834Y-104161276D01*
X228930710Y-104146958D01*
X228930000Y-104132500D01*
X228930000Y-103837500D01*
X228930710Y-103823042D01*
X228932834Y-103808724D01*
X228936351Y-103794683D01*
X228941228Y-103781054D01*
X228947417Y-103767969D01*
X228954858Y-103755553D01*
X228963481Y-103743927D01*
X228973202Y-103733202D01*
X228983927Y-103723481D01*
X228995553Y-103714858D01*
X229007969Y-103707417D01*
X229021054Y-103701228D01*
X229034683Y-103696351D01*
X229048724Y-103692834D01*
X229063042Y-103690710D01*
X229077500Y-103690000D01*
X229422500Y-103690000D01*
X229436958Y-103690710D01*
X229436958Y-103690710D01*
G37*
D11*
X229250000Y-103985000D03*
G04 #@! TD*
D10*
G04 #@! TO.C,C9*
G36*
X230936958Y-102720710D02*
X230951276Y-102722834D01*
X230965317Y-102726351D01*
X230978946Y-102731228D01*
X230992031Y-102737417D01*
X231004447Y-102744858D01*
X231016073Y-102753481D01*
X231026798Y-102763202D01*
X231036519Y-102773927D01*
X231045142Y-102785553D01*
X231052583Y-102797969D01*
X231058772Y-102811054D01*
X231063649Y-102824683D01*
X231067166Y-102838724D01*
X231069290Y-102853042D01*
X231070000Y-102867500D01*
X231070000Y-103162500D01*
X231069290Y-103176958D01*
X231067166Y-103191276D01*
X231063649Y-103205317D01*
X231058772Y-103218946D01*
X231052583Y-103232031D01*
X231045142Y-103244447D01*
X231036519Y-103256073D01*
X231026798Y-103266798D01*
X231016073Y-103276519D01*
X231004447Y-103285142D01*
X230992031Y-103292583D01*
X230978946Y-103298772D01*
X230965317Y-103303649D01*
X230951276Y-103307166D01*
X230936958Y-103309290D01*
X230922500Y-103310000D01*
X230577500Y-103310000D01*
X230563042Y-103309290D01*
X230548724Y-103307166D01*
X230534683Y-103303649D01*
X230521054Y-103298772D01*
X230507969Y-103292583D01*
X230495553Y-103285142D01*
X230483927Y-103276519D01*
X230473202Y-103266798D01*
X230463481Y-103256073D01*
X230454858Y-103244447D01*
X230447417Y-103232031D01*
X230441228Y-103218946D01*
X230436351Y-103205317D01*
X230432834Y-103191276D01*
X230430710Y-103176958D01*
X230430000Y-103162500D01*
X230430000Y-102867500D01*
X230430710Y-102853042D01*
X230432834Y-102838724D01*
X230436351Y-102824683D01*
X230441228Y-102811054D01*
X230447417Y-102797969D01*
X230454858Y-102785553D01*
X230463481Y-102773927D01*
X230473202Y-102763202D01*
X230483927Y-102753481D01*
X230495553Y-102744858D01*
X230507969Y-102737417D01*
X230521054Y-102731228D01*
X230534683Y-102726351D01*
X230548724Y-102722834D01*
X230563042Y-102720710D01*
X230577500Y-102720000D01*
X230922500Y-102720000D01*
X230936958Y-102720710D01*
X230936958Y-102720710D01*
G37*
D11*
X230750000Y-103015000D03*
D10*
G36*
X230936958Y-103690710D02*
X230951276Y-103692834D01*
X230965317Y-103696351D01*
X230978946Y-103701228D01*
X230992031Y-103707417D01*
X231004447Y-103714858D01*
X231016073Y-103723481D01*
X231026798Y-103733202D01*
X231036519Y-103743927D01*
X231045142Y-103755553D01*
X231052583Y-103767969D01*
X231058772Y-103781054D01*
X231063649Y-103794683D01*
X231067166Y-103808724D01*
X231069290Y-103823042D01*
X231070000Y-103837500D01*
X231070000Y-104132500D01*
X231069290Y-104146958D01*
X231067166Y-104161276D01*
X231063649Y-104175317D01*
X231058772Y-104188946D01*
X231052583Y-104202031D01*
X231045142Y-104214447D01*
X231036519Y-104226073D01*
X231026798Y-104236798D01*
X231016073Y-104246519D01*
X231004447Y-104255142D01*
X230992031Y-104262583D01*
X230978946Y-104268772D01*
X230965317Y-104273649D01*
X230951276Y-104277166D01*
X230936958Y-104279290D01*
X230922500Y-104280000D01*
X230577500Y-104280000D01*
X230563042Y-104279290D01*
X230548724Y-104277166D01*
X230534683Y-104273649D01*
X230521054Y-104268772D01*
X230507969Y-104262583D01*
X230495553Y-104255142D01*
X230483927Y-104246519D01*
X230473202Y-104236798D01*
X230463481Y-104226073D01*
X230454858Y-104214447D01*
X230447417Y-104202031D01*
X230441228Y-104188946D01*
X230436351Y-104175317D01*
X230432834Y-104161276D01*
X230430710Y-104146958D01*
X230430000Y-104132500D01*
X230430000Y-103837500D01*
X230430710Y-103823042D01*
X230432834Y-103808724D01*
X230436351Y-103794683D01*
X230441228Y-103781054D01*
X230447417Y-103767969D01*
X230454858Y-103755553D01*
X230463481Y-103743927D01*
X230473202Y-103733202D01*
X230483927Y-103723481D01*
X230495553Y-103714858D01*
X230507969Y-103707417D01*
X230521054Y-103701228D01*
X230534683Y-103696351D01*
X230548724Y-103692834D01*
X230563042Y-103690710D01*
X230577500Y-103690000D01*
X230922500Y-103690000D01*
X230936958Y-103690710D01*
X230936958Y-103690710D01*
G37*
D11*
X230750000Y-103985000D03*
G04 #@! TD*
D10*
G04 #@! TO.C,R7*
G36*
X236186958Y-110440710D02*
X236201276Y-110442834D01*
X236215317Y-110446351D01*
X236228946Y-110451228D01*
X236242031Y-110457417D01*
X236254447Y-110464858D01*
X236266073Y-110473481D01*
X236276798Y-110483202D01*
X236286519Y-110493927D01*
X236295142Y-110505553D01*
X236302583Y-110517969D01*
X236308772Y-110531054D01*
X236313649Y-110544683D01*
X236317166Y-110558724D01*
X236319290Y-110573042D01*
X236320000Y-110587500D01*
X236320000Y-110882500D01*
X236319290Y-110896958D01*
X236317166Y-110911276D01*
X236313649Y-110925317D01*
X236308772Y-110938946D01*
X236302583Y-110952031D01*
X236295142Y-110964447D01*
X236286519Y-110976073D01*
X236276798Y-110986798D01*
X236266073Y-110996519D01*
X236254447Y-111005142D01*
X236242031Y-111012583D01*
X236228946Y-111018772D01*
X236215317Y-111023649D01*
X236201276Y-111027166D01*
X236186958Y-111029290D01*
X236172500Y-111030000D01*
X235827500Y-111030000D01*
X235813042Y-111029290D01*
X235798724Y-111027166D01*
X235784683Y-111023649D01*
X235771054Y-111018772D01*
X235757969Y-111012583D01*
X235745553Y-111005142D01*
X235733927Y-110996519D01*
X235723202Y-110986798D01*
X235713481Y-110976073D01*
X235704858Y-110964447D01*
X235697417Y-110952031D01*
X235691228Y-110938946D01*
X235686351Y-110925317D01*
X235682834Y-110911276D01*
X235680710Y-110896958D01*
X235680000Y-110882500D01*
X235680000Y-110587500D01*
X235680710Y-110573042D01*
X235682834Y-110558724D01*
X235686351Y-110544683D01*
X235691228Y-110531054D01*
X235697417Y-110517969D01*
X235704858Y-110505553D01*
X235713481Y-110493927D01*
X235723202Y-110483202D01*
X235733927Y-110473481D01*
X235745553Y-110464858D01*
X235757969Y-110457417D01*
X235771054Y-110451228D01*
X235784683Y-110446351D01*
X235798724Y-110442834D01*
X235813042Y-110440710D01*
X235827500Y-110440000D01*
X236172500Y-110440000D01*
X236186958Y-110440710D01*
X236186958Y-110440710D01*
G37*
D11*
X236000000Y-110735000D03*
D10*
G36*
X236186958Y-109470710D02*
X236201276Y-109472834D01*
X236215317Y-109476351D01*
X236228946Y-109481228D01*
X236242031Y-109487417D01*
X236254447Y-109494858D01*
X236266073Y-109503481D01*
X236276798Y-109513202D01*
X236286519Y-109523927D01*
X236295142Y-109535553D01*
X236302583Y-109547969D01*
X236308772Y-109561054D01*
X236313649Y-109574683D01*
X236317166Y-109588724D01*
X236319290Y-109603042D01*
X236320000Y-109617500D01*
X236320000Y-109912500D01*
X236319290Y-109926958D01*
X236317166Y-109941276D01*
X236313649Y-109955317D01*
X236308772Y-109968946D01*
X236302583Y-109982031D01*
X236295142Y-109994447D01*
X236286519Y-110006073D01*
X236276798Y-110016798D01*
X236266073Y-110026519D01*
X236254447Y-110035142D01*
X236242031Y-110042583D01*
X236228946Y-110048772D01*
X236215317Y-110053649D01*
X236201276Y-110057166D01*
X236186958Y-110059290D01*
X236172500Y-110060000D01*
X235827500Y-110060000D01*
X235813042Y-110059290D01*
X235798724Y-110057166D01*
X235784683Y-110053649D01*
X235771054Y-110048772D01*
X235757969Y-110042583D01*
X235745553Y-110035142D01*
X235733927Y-110026519D01*
X235723202Y-110016798D01*
X235713481Y-110006073D01*
X235704858Y-109994447D01*
X235697417Y-109982031D01*
X235691228Y-109968946D01*
X235686351Y-109955317D01*
X235682834Y-109941276D01*
X235680710Y-109926958D01*
X235680000Y-109912500D01*
X235680000Y-109617500D01*
X235680710Y-109603042D01*
X235682834Y-109588724D01*
X235686351Y-109574683D01*
X235691228Y-109561054D01*
X235697417Y-109547969D01*
X235704858Y-109535553D01*
X235713481Y-109523927D01*
X235723202Y-109513202D01*
X235733927Y-109503481D01*
X235745553Y-109494858D01*
X235757969Y-109487417D01*
X235771054Y-109481228D01*
X235784683Y-109476351D01*
X235798724Y-109472834D01*
X235813042Y-109470710D01*
X235827500Y-109470000D01*
X236172500Y-109470000D01*
X236186958Y-109470710D01*
X236186958Y-109470710D01*
G37*
D11*
X236000000Y-109765000D03*
G04 #@! TD*
D10*
G04 #@! TO.C,R8*
G36*
X237436958Y-110440710D02*
X237451276Y-110442834D01*
X237465317Y-110446351D01*
X237478946Y-110451228D01*
X237492031Y-110457417D01*
X237504447Y-110464858D01*
X237516073Y-110473481D01*
X237526798Y-110483202D01*
X237536519Y-110493927D01*
X237545142Y-110505553D01*
X237552583Y-110517969D01*
X237558772Y-110531054D01*
X237563649Y-110544683D01*
X237567166Y-110558724D01*
X237569290Y-110573042D01*
X237570000Y-110587500D01*
X237570000Y-110882500D01*
X237569290Y-110896958D01*
X237567166Y-110911276D01*
X237563649Y-110925317D01*
X237558772Y-110938946D01*
X237552583Y-110952031D01*
X237545142Y-110964447D01*
X237536519Y-110976073D01*
X237526798Y-110986798D01*
X237516073Y-110996519D01*
X237504447Y-111005142D01*
X237492031Y-111012583D01*
X237478946Y-111018772D01*
X237465317Y-111023649D01*
X237451276Y-111027166D01*
X237436958Y-111029290D01*
X237422500Y-111030000D01*
X237077500Y-111030000D01*
X237063042Y-111029290D01*
X237048724Y-111027166D01*
X237034683Y-111023649D01*
X237021054Y-111018772D01*
X237007969Y-111012583D01*
X236995553Y-111005142D01*
X236983927Y-110996519D01*
X236973202Y-110986798D01*
X236963481Y-110976073D01*
X236954858Y-110964447D01*
X236947417Y-110952031D01*
X236941228Y-110938946D01*
X236936351Y-110925317D01*
X236932834Y-110911276D01*
X236930710Y-110896958D01*
X236930000Y-110882500D01*
X236930000Y-110587500D01*
X236930710Y-110573042D01*
X236932834Y-110558724D01*
X236936351Y-110544683D01*
X236941228Y-110531054D01*
X236947417Y-110517969D01*
X236954858Y-110505553D01*
X236963481Y-110493927D01*
X236973202Y-110483202D01*
X236983927Y-110473481D01*
X236995553Y-110464858D01*
X237007969Y-110457417D01*
X237021054Y-110451228D01*
X237034683Y-110446351D01*
X237048724Y-110442834D01*
X237063042Y-110440710D01*
X237077500Y-110440000D01*
X237422500Y-110440000D01*
X237436958Y-110440710D01*
X237436958Y-110440710D01*
G37*
D11*
X237250000Y-110735000D03*
D10*
G36*
X237436958Y-109470710D02*
X237451276Y-109472834D01*
X237465317Y-109476351D01*
X237478946Y-109481228D01*
X237492031Y-109487417D01*
X237504447Y-109494858D01*
X237516073Y-109503481D01*
X237526798Y-109513202D01*
X237536519Y-109523927D01*
X237545142Y-109535553D01*
X237552583Y-109547969D01*
X237558772Y-109561054D01*
X237563649Y-109574683D01*
X237567166Y-109588724D01*
X237569290Y-109603042D01*
X237570000Y-109617500D01*
X237570000Y-109912500D01*
X237569290Y-109926958D01*
X237567166Y-109941276D01*
X237563649Y-109955317D01*
X237558772Y-109968946D01*
X237552583Y-109982031D01*
X237545142Y-109994447D01*
X237536519Y-110006073D01*
X237526798Y-110016798D01*
X237516073Y-110026519D01*
X237504447Y-110035142D01*
X237492031Y-110042583D01*
X237478946Y-110048772D01*
X237465317Y-110053649D01*
X237451276Y-110057166D01*
X237436958Y-110059290D01*
X237422500Y-110060000D01*
X237077500Y-110060000D01*
X237063042Y-110059290D01*
X237048724Y-110057166D01*
X237034683Y-110053649D01*
X237021054Y-110048772D01*
X237007969Y-110042583D01*
X236995553Y-110035142D01*
X236983927Y-110026519D01*
X236973202Y-110016798D01*
X236963481Y-110006073D01*
X236954858Y-109994447D01*
X236947417Y-109982031D01*
X236941228Y-109968946D01*
X236936351Y-109955317D01*
X236932834Y-109941276D01*
X236930710Y-109926958D01*
X236930000Y-109912500D01*
X236930000Y-109617500D01*
X236930710Y-109603042D01*
X236932834Y-109588724D01*
X236936351Y-109574683D01*
X236941228Y-109561054D01*
X236947417Y-109547969D01*
X236954858Y-109535553D01*
X236963481Y-109523927D01*
X236973202Y-109513202D01*
X236983927Y-109503481D01*
X236995553Y-109494858D01*
X237007969Y-109487417D01*
X237021054Y-109481228D01*
X237034683Y-109476351D01*
X237048724Y-109472834D01*
X237063042Y-109470710D01*
X237077500Y-109470000D01*
X237422500Y-109470000D01*
X237436958Y-109470710D01*
X237436958Y-109470710D01*
G37*
D11*
X237250000Y-109765000D03*
G04 #@! TD*
D10*
G04 #@! TO.C,R9*
G36*
X238686958Y-110440710D02*
X238701276Y-110442834D01*
X238715317Y-110446351D01*
X238728946Y-110451228D01*
X238742031Y-110457417D01*
X238754447Y-110464858D01*
X238766073Y-110473481D01*
X238776798Y-110483202D01*
X238786519Y-110493927D01*
X238795142Y-110505553D01*
X238802583Y-110517969D01*
X238808772Y-110531054D01*
X238813649Y-110544683D01*
X238817166Y-110558724D01*
X238819290Y-110573042D01*
X238820000Y-110587500D01*
X238820000Y-110882500D01*
X238819290Y-110896958D01*
X238817166Y-110911276D01*
X238813649Y-110925317D01*
X238808772Y-110938946D01*
X238802583Y-110952031D01*
X238795142Y-110964447D01*
X238786519Y-110976073D01*
X238776798Y-110986798D01*
X238766073Y-110996519D01*
X238754447Y-111005142D01*
X238742031Y-111012583D01*
X238728946Y-111018772D01*
X238715317Y-111023649D01*
X238701276Y-111027166D01*
X238686958Y-111029290D01*
X238672500Y-111030000D01*
X238327500Y-111030000D01*
X238313042Y-111029290D01*
X238298724Y-111027166D01*
X238284683Y-111023649D01*
X238271054Y-111018772D01*
X238257969Y-111012583D01*
X238245553Y-111005142D01*
X238233927Y-110996519D01*
X238223202Y-110986798D01*
X238213481Y-110976073D01*
X238204858Y-110964447D01*
X238197417Y-110952031D01*
X238191228Y-110938946D01*
X238186351Y-110925317D01*
X238182834Y-110911276D01*
X238180710Y-110896958D01*
X238180000Y-110882500D01*
X238180000Y-110587500D01*
X238180710Y-110573042D01*
X238182834Y-110558724D01*
X238186351Y-110544683D01*
X238191228Y-110531054D01*
X238197417Y-110517969D01*
X238204858Y-110505553D01*
X238213481Y-110493927D01*
X238223202Y-110483202D01*
X238233927Y-110473481D01*
X238245553Y-110464858D01*
X238257969Y-110457417D01*
X238271054Y-110451228D01*
X238284683Y-110446351D01*
X238298724Y-110442834D01*
X238313042Y-110440710D01*
X238327500Y-110440000D01*
X238672500Y-110440000D01*
X238686958Y-110440710D01*
X238686958Y-110440710D01*
G37*
D11*
X238500000Y-110735000D03*
D10*
G36*
X238686958Y-109470710D02*
X238701276Y-109472834D01*
X238715317Y-109476351D01*
X238728946Y-109481228D01*
X238742031Y-109487417D01*
X238754447Y-109494858D01*
X238766073Y-109503481D01*
X238776798Y-109513202D01*
X238786519Y-109523927D01*
X238795142Y-109535553D01*
X238802583Y-109547969D01*
X238808772Y-109561054D01*
X238813649Y-109574683D01*
X238817166Y-109588724D01*
X238819290Y-109603042D01*
X238820000Y-109617500D01*
X238820000Y-109912500D01*
X238819290Y-109926958D01*
X238817166Y-109941276D01*
X238813649Y-109955317D01*
X238808772Y-109968946D01*
X238802583Y-109982031D01*
X238795142Y-109994447D01*
X238786519Y-110006073D01*
X238776798Y-110016798D01*
X238766073Y-110026519D01*
X238754447Y-110035142D01*
X238742031Y-110042583D01*
X238728946Y-110048772D01*
X238715317Y-110053649D01*
X238701276Y-110057166D01*
X238686958Y-110059290D01*
X238672500Y-110060000D01*
X238327500Y-110060000D01*
X238313042Y-110059290D01*
X238298724Y-110057166D01*
X238284683Y-110053649D01*
X238271054Y-110048772D01*
X238257969Y-110042583D01*
X238245553Y-110035142D01*
X238233927Y-110026519D01*
X238223202Y-110016798D01*
X238213481Y-110006073D01*
X238204858Y-109994447D01*
X238197417Y-109982031D01*
X238191228Y-109968946D01*
X238186351Y-109955317D01*
X238182834Y-109941276D01*
X238180710Y-109926958D01*
X238180000Y-109912500D01*
X238180000Y-109617500D01*
X238180710Y-109603042D01*
X238182834Y-109588724D01*
X238186351Y-109574683D01*
X238191228Y-109561054D01*
X238197417Y-109547969D01*
X238204858Y-109535553D01*
X238213481Y-109523927D01*
X238223202Y-109513202D01*
X238233927Y-109503481D01*
X238245553Y-109494858D01*
X238257969Y-109487417D01*
X238271054Y-109481228D01*
X238284683Y-109476351D01*
X238298724Y-109472834D01*
X238313042Y-109470710D01*
X238327500Y-109470000D01*
X238672500Y-109470000D01*
X238686958Y-109470710D01*
X238686958Y-109470710D01*
G37*
D11*
X238500000Y-109765000D03*
G04 #@! TD*
M02*
