G04 #@! TF.GenerationSoftware,KiCad,Pcbnew,5.1.5+dfsg1-2build2*
G04 #@! TF.CreationDate,2020-11-18T17:14:58+00:00*
G04 #@! TF.ProjectId,picodvi,7069636f-6476-4692-9e6b-696361645f70,rev?*
G04 #@! TF.SameCoordinates,Original*
G04 #@! TF.FileFunction,Paste,Top*
G04 #@! TF.FilePolarity,Positive*
%FSLAX46Y46*%
G04 Gerber Fmt 4.6, Leading zero omitted, Abs format (unit mm)*
G04 Created by KiCad (PCBNEW 5.1.5+dfsg1-2build2) date 2020-11-18 17:14:58*
%MOMM*%
%LPD*%
G04 APERTURE LIST*
%ADD10R,0.650000X1.050000*%
%ADD11C,0.100000*%
%ADD12R,1.900000X0.300000*%
%ADD13R,1.900000X1.500000*%
%ADD14R,1.350000X0.400000*%
%ADD15C,0.200000*%
%ADD16R,1.560000X0.650000*%
%ADD17R,1.400000X1.200000*%
G04 APERTURE END LIST*
D10*
X214925000Y-90075000D03*
X214925000Y-85925000D03*
X217075000Y-90075000D03*
X217075000Y-85925000D03*
X210425000Y-90075000D03*
X210425000Y-85925000D03*
X212575000Y-90075000D03*
X212575000Y-85925000D03*
X208075000Y-85925000D03*
X208075000Y-90075000D03*
X205925000Y-85925000D03*
X205925000Y-90075000D03*
D11*
G36*
X201330142Y-103051174D02*
G01*
X201353803Y-103054684D01*
X201377007Y-103060496D01*
X201399529Y-103068554D01*
X201421153Y-103078782D01*
X201441670Y-103091079D01*
X201460883Y-103105329D01*
X201478607Y-103121393D01*
X201494671Y-103139117D01*
X201508921Y-103158330D01*
X201521218Y-103178847D01*
X201531446Y-103200471D01*
X201539504Y-103222993D01*
X201545316Y-103246197D01*
X201548826Y-103269858D01*
X201550000Y-103293750D01*
X201550000Y-104206250D01*
X201548826Y-104230142D01*
X201545316Y-104253803D01*
X201539504Y-104277007D01*
X201531446Y-104299529D01*
X201521218Y-104321153D01*
X201508921Y-104341670D01*
X201494671Y-104360883D01*
X201478607Y-104378607D01*
X201460883Y-104394671D01*
X201441670Y-104408921D01*
X201421153Y-104421218D01*
X201399529Y-104431446D01*
X201377007Y-104439504D01*
X201353803Y-104445316D01*
X201330142Y-104448826D01*
X201306250Y-104450000D01*
X200818750Y-104450000D01*
X200794858Y-104448826D01*
X200771197Y-104445316D01*
X200747993Y-104439504D01*
X200725471Y-104431446D01*
X200703847Y-104421218D01*
X200683330Y-104408921D01*
X200664117Y-104394671D01*
X200646393Y-104378607D01*
X200630329Y-104360883D01*
X200616079Y-104341670D01*
X200603782Y-104321153D01*
X200593554Y-104299529D01*
X200585496Y-104277007D01*
X200579684Y-104253803D01*
X200576174Y-104230142D01*
X200575000Y-104206250D01*
X200575000Y-103293750D01*
X200576174Y-103269858D01*
X200579684Y-103246197D01*
X200585496Y-103222993D01*
X200593554Y-103200471D01*
X200603782Y-103178847D01*
X200616079Y-103158330D01*
X200630329Y-103139117D01*
X200646393Y-103121393D01*
X200664117Y-103105329D01*
X200683330Y-103091079D01*
X200703847Y-103078782D01*
X200725471Y-103068554D01*
X200747993Y-103060496D01*
X200771197Y-103054684D01*
X200794858Y-103051174D01*
X200818750Y-103050000D01*
X201306250Y-103050000D01*
X201330142Y-103051174D01*
G37*
G36*
X203205142Y-103051174D02*
G01*
X203228803Y-103054684D01*
X203252007Y-103060496D01*
X203274529Y-103068554D01*
X203296153Y-103078782D01*
X203316670Y-103091079D01*
X203335883Y-103105329D01*
X203353607Y-103121393D01*
X203369671Y-103139117D01*
X203383921Y-103158330D01*
X203396218Y-103178847D01*
X203406446Y-103200471D01*
X203414504Y-103222993D01*
X203420316Y-103246197D01*
X203423826Y-103269858D01*
X203425000Y-103293750D01*
X203425000Y-104206250D01*
X203423826Y-104230142D01*
X203420316Y-104253803D01*
X203414504Y-104277007D01*
X203406446Y-104299529D01*
X203396218Y-104321153D01*
X203383921Y-104341670D01*
X203369671Y-104360883D01*
X203353607Y-104378607D01*
X203335883Y-104394671D01*
X203316670Y-104408921D01*
X203296153Y-104421218D01*
X203274529Y-104431446D01*
X203252007Y-104439504D01*
X203228803Y-104445316D01*
X203205142Y-104448826D01*
X203181250Y-104450000D01*
X202693750Y-104450000D01*
X202669858Y-104448826D01*
X202646197Y-104445316D01*
X202622993Y-104439504D01*
X202600471Y-104431446D01*
X202578847Y-104421218D01*
X202558330Y-104408921D01*
X202539117Y-104394671D01*
X202521393Y-104378607D01*
X202505329Y-104360883D01*
X202491079Y-104341670D01*
X202478782Y-104321153D01*
X202468554Y-104299529D01*
X202460496Y-104277007D01*
X202454684Y-104253803D01*
X202451174Y-104230142D01*
X202450000Y-104206250D01*
X202450000Y-103293750D01*
X202451174Y-103269858D01*
X202454684Y-103246197D01*
X202460496Y-103222993D01*
X202468554Y-103200471D01*
X202478782Y-103178847D01*
X202491079Y-103158330D01*
X202505329Y-103139117D01*
X202521393Y-103121393D01*
X202539117Y-103105329D01*
X202558330Y-103091079D01*
X202578847Y-103078782D01*
X202600471Y-103068554D01*
X202622993Y-103060496D01*
X202646197Y-103054684D01*
X202669858Y-103051174D01*
X202693750Y-103050000D01*
X203181250Y-103050000D01*
X203205142Y-103051174D01*
G37*
D12*
X241600000Y-102750000D03*
X241600000Y-102250000D03*
X241600000Y-101750000D03*
X241600000Y-101250000D03*
X241600000Y-100750000D03*
X241600000Y-100250000D03*
X241600000Y-99750000D03*
X241600000Y-99250000D03*
X241600000Y-98750000D03*
X241600000Y-98250000D03*
X241600000Y-97750000D03*
X241600000Y-97250000D03*
X241600000Y-96750000D03*
X241600000Y-96250000D03*
X241600000Y-95750000D03*
X241600000Y-95250000D03*
X241600000Y-94750000D03*
X241600000Y-94250000D03*
X241600000Y-93750000D03*
D11*
G36*
X207706958Y-95920710D02*
G01*
X207721276Y-95922834D01*
X207735317Y-95926351D01*
X207748946Y-95931228D01*
X207762031Y-95937417D01*
X207774447Y-95944858D01*
X207786073Y-95953481D01*
X207796798Y-95963202D01*
X207806519Y-95973927D01*
X207815142Y-95985553D01*
X207822583Y-95997969D01*
X207828772Y-96011054D01*
X207833649Y-96024683D01*
X207837166Y-96038724D01*
X207839290Y-96053042D01*
X207840000Y-96067500D01*
X207840000Y-96362500D01*
X207839290Y-96376958D01*
X207837166Y-96391276D01*
X207833649Y-96405317D01*
X207828772Y-96418946D01*
X207822583Y-96432031D01*
X207815142Y-96444447D01*
X207806519Y-96456073D01*
X207796798Y-96466798D01*
X207786073Y-96476519D01*
X207774447Y-96485142D01*
X207762031Y-96492583D01*
X207748946Y-96498772D01*
X207735317Y-96503649D01*
X207721276Y-96507166D01*
X207706958Y-96509290D01*
X207692500Y-96510000D01*
X207347500Y-96510000D01*
X207333042Y-96509290D01*
X207318724Y-96507166D01*
X207304683Y-96503649D01*
X207291054Y-96498772D01*
X207277969Y-96492583D01*
X207265553Y-96485142D01*
X207253927Y-96476519D01*
X207243202Y-96466798D01*
X207233481Y-96456073D01*
X207224858Y-96444447D01*
X207217417Y-96432031D01*
X207211228Y-96418946D01*
X207206351Y-96405317D01*
X207202834Y-96391276D01*
X207200710Y-96376958D01*
X207200000Y-96362500D01*
X207200000Y-96067500D01*
X207200710Y-96053042D01*
X207202834Y-96038724D01*
X207206351Y-96024683D01*
X207211228Y-96011054D01*
X207217417Y-95997969D01*
X207224858Y-95985553D01*
X207233481Y-95973927D01*
X207243202Y-95963202D01*
X207253927Y-95953481D01*
X207265553Y-95944858D01*
X207277969Y-95937417D01*
X207291054Y-95931228D01*
X207304683Y-95926351D01*
X207318724Y-95922834D01*
X207333042Y-95920710D01*
X207347500Y-95920000D01*
X207692500Y-95920000D01*
X207706958Y-95920710D01*
G37*
G36*
X207706958Y-96890710D02*
G01*
X207721276Y-96892834D01*
X207735317Y-96896351D01*
X207748946Y-96901228D01*
X207762031Y-96907417D01*
X207774447Y-96914858D01*
X207786073Y-96923481D01*
X207796798Y-96933202D01*
X207806519Y-96943927D01*
X207815142Y-96955553D01*
X207822583Y-96967969D01*
X207828772Y-96981054D01*
X207833649Y-96994683D01*
X207837166Y-97008724D01*
X207839290Y-97023042D01*
X207840000Y-97037500D01*
X207840000Y-97332500D01*
X207839290Y-97346958D01*
X207837166Y-97361276D01*
X207833649Y-97375317D01*
X207828772Y-97388946D01*
X207822583Y-97402031D01*
X207815142Y-97414447D01*
X207806519Y-97426073D01*
X207796798Y-97436798D01*
X207786073Y-97446519D01*
X207774447Y-97455142D01*
X207762031Y-97462583D01*
X207748946Y-97468772D01*
X207735317Y-97473649D01*
X207721276Y-97477166D01*
X207706958Y-97479290D01*
X207692500Y-97480000D01*
X207347500Y-97480000D01*
X207333042Y-97479290D01*
X207318724Y-97477166D01*
X207304683Y-97473649D01*
X207291054Y-97468772D01*
X207277969Y-97462583D01*
X207265553Y-97455142D01*
X207253927Y-97446519D01*
X207243202Y-97436798D01*
X207233481Y-97426073D01*
X207224858Y-97414447D01*
X207217417Y-97402031D01*
X207211228Y-97388946D01*
X207206351Y-97375317D01*
X207202834Y-97361276D01*
X207200710Y-97346958D01*
X207200000Y-97332500D01*
X207200000Y-97037500D01*
X207200710Y-97023042D01*
X207202834Y-97008724D01*
X207206351Y-96994683D01*
X207211228Y-96981054D01*
X207217417Y-96967969D01*
X207224858Y-96955553D01*
X207233481Y-96943927D01*
X207243202Y-96933202D01*
X207253927Y-96923481D01*
X207265553Y-96914858D01*
X207277969Y-96907417D01*
X207291054Y-96901228D01*
X207304683Y-96896351D01*
X207318724Y-96892834D01*
X207333042Y-96890710D01*
X207347500Y-96890000D01*
X207692500Y-96890000D01*
X207706958Y-96890710D01*
G37*
G36*
X232286958Y-90075710D02*
G01*
X232301276Y-90077834D01*
X232315317Y-90081351D01*
X232328946Y-90086228D01*
X232342031Y-90092417D01*
X232354447Y-90099858D01*
X232366073Y-90108481D01*
X232376798Y-90118202D01*
X232386519Y-90128927D01*
X232395142Y-90140553D01*
X232402583Y-90152969D01*
X232408772Y-90166054D01*
X232413649Y-90179683D01*
X232417166Y-90193724D01*
X232419290Y-90208042D01*
X232420000Y-90222500D01*
X232420000Y-90517500D01*
X232419290Y-90531958D01*
X232417166Y-90546276D01*
X232413649Y-90560317D01*
X232408772Y-90573946D01*
X232402583Y-90587031D01*
X232395142Y-90599447D01*
X232386519Y-90611073D01*
X232376798Y-90621798D01*
X232366073Y-90631519D01*
X232354447Y-90640142D01*
X232342031Y-90647583D01*
X232328946Y-90653772D01*
X232315317Y-90658649D01*
X232301276Y-90662166D01*
X232286958Y-90664290D01*
X232272500Y-90665000D01*
X231927500Y-90665000D01*
X231913042Y-90664290D01*
X231898724Y-90662166D01*
X231884683Y-90658649D01*
X231871054Y-90653772D01*
X231857969Y-90647583D01*
X231845553Y-90640142D01*
X231833927Y-90631519D01*
X231823202Y-90621798D01*
X231813481Y-90611073D01*
X231804858Y-90599447D01*
X231797417Y-90587031D01*
X231791228Y-90573946D01*
X231786351Y-90560317D01*
X231782834Y-90546276D01*
X231780710Y-90531958D01*
X231780000Y-90517500D01*
X231780000Y-90222500D01*
X231780710Y-90208042D01*
X231782834Y-90193724D01*
X231786351Y-90179683D01*
X231791228Y-90166054D01*
X231797417Y-90152969D01*
X231804858Y-90140553D01*
X231813481Y-90128927D01*
X231823202Y-90118202D01*
X231833927Y-90108481D01*
X231845553Y-90099858D01*
X231857969Y-90092417D01*
X231871054Y-90086228D01*
X231884683Y-90081351D01*
X231898724Y-90077834D01*
X231913042Y-90075710D01*
X231927500Y-90075000D01*
X232272500Y-90075000D01*
X232286958Y-90075710D01*
G37*
G36*
X232286958Y-89105710D02*
G01*
X232301276Y-89107834D01*
X232315317Y-89111351D01*
X232328946Y-89116228D01*
X232342031Y-89122417D01*
X232354447Y-89129858D01*
X232366073Y-89138481D01*
X232376798Y-89148202D01*
X232386519Y-89158927D01*
X232395142Y-89170553D01*
X232402583Y-89182969D01*
X232408772Y-89196054D01*
X232413649Y-89209683D01*
X232417166Y-89223724D01*
X232419290Y-89238042D01*
X232420000Y-89252500D01*
X232420000Y-89547500D01*
X232419290Y-89561958D01*
X232417166Y-89576276D01*
X232413649Y-89590317D01*
X232408772Y-89603946D01*
X232402583Y-89617031D01*
X232395142Y-89629447D01*
X232386519Y-89641073D01*
X232376798Y-89651798D01*
X232366073Y-89661519D01*
X232354447Y-89670142D01*
X232342031Y-89677583D01*
X232328946Y-89683772D01*
X232315317Y-89688649D01*
X232301276Y-89692166D01*
X232286958Y-89694290D01*
X232272500Y-89695000D01*
X231927500Y-89695000D01*
X231913042Y-89694290D01*
X231898724Y-89692166D01*
X231884683Y-89688649D01*
X231871054Y-89683772D01*
X231857969Y-89677583D01*
X231845553Y-89670142D01*
X231833927Y-89661519D01*
X231823202Y-89651798D01*
X231813481Y-89641073D01*
X231804858Y-89629447D01*
X231797417Y-89617031D01*
X231791228Y-89603946D01*
X231786351Y-89590317D01*
X231782834Y-89576276D01*
X231780710Y-89561958D01*
X231780000Y-89547500D01*
X231780000Y-89252500D01*
X231780710Y-89238042D01*
X231782834Y-89223724D01*
X231786351Y-89209683D01*
X231791228Y-89196054D01*
X231797417Y-89182969D01*
X231804858Y-89170553D01*
X231813481Y-89158927D01*
X231823202Y-89148202D01*
X231833927Y-89138481D01*
X231845553Y-89129858D01*
X231857969Y-89122417D01*
X231871054Y-89116228D01*
X231884683Y-89111351D01*
X231898724Y-89107834D01*
X231913042Y-89105710D01*
X231927500Y-89105000D01*
X232272500Y-89105000D01*
X232286958Y-89105710D01*
G37*
G36*
X213626958Y-96890710D02*
G01*
X213641276Y-96892834D01*
X213655317Y-96896351D01*
X213668946Y-96901228D01*
X213682031Y-96907417D01*
X213694447Y-96914858D01*
X213706073Y-96923481D01*
X213716798Y-96933202D01*
X213726519Y-96943927D01*
X213735142Y-96955553D01*
X213742583Y-96967969D01*
X213748772Y-96981054D01*
X213753649Y-96994683D01*
X213757166Y-97008724D01*
X213759290Y-97023042D01*
X213760000Y-97037500D01*
X213760000Y-97332500D01*
X213759290Y-97346958D01*
X213757166Y-97361276D01*
X213753649Y-97375317D01*
X213748772Y-97388946D01*
X213742583Y-97402031D01*
X213735142Y-97414447D01*
X213726519Y-97426073D01*
X213716798Y-97436798D01*
X213706073Y-97446519D01*
X213694447Y-97455142D01*
X213682031Y-97462583D01*
X213668946Y-97468772D01*
X213655317Y-97473649D01*
X213641276Y-97477166D01*
X213626958Y-97479290D01*
X213612500Y-97480000D01*
X213267500Y-97480000D01*
X213253042Y-97479290D01*
X213238724Y-97477166D01*
X213224683Y-97473649D01*
X213211054Y-97468772D01*
X213197969Y-97462583D01*
X213185553Y-97455142D01*
X213173927Y-97446519D01*
X213163202Y-97436798D01*
X213153481Y-97426073D01*
X213144858Y-97414447D01*
X213137417Y-97402031D01*
X213131228Y-97388946D01*
X213126351Y-97375317D01*
X213122834Y-97361276D01*
X213120710Y-97346958D01*
X213120000Y-97332500D01*
X213120000Y-97037500D01*
X213120710Y-97023042D01*
X213122834Y-97008724D01*
X213126351Y-96994683D01*
X213131228Y-96981054D01*
X213137417Y-96967969D01*
X213144858Y-96955553D01*
X213153481Y-96943927D01*
X213163202Y-96933202D01*
X213173927Y-96923481D01*
X213185553Y-96914858D01*
X213197969Y-96907417D01*
X213211054Y-96901228D01*
X213224683Y-96896351D01*
X213238724Y-96892834D01*
X213253042Y-96890710D01*
X213267500Y-96890000D01*
X213612500Y-96890000D01*
X213626958Y-96890710D01*
G37*
G36*
X213626958Y-95920710D02*
G01*
X213641276Y-95922834D01*
X213655317Y-95926351D01*
X213668946Y-95931228D01*
X213682031Y-95937417D01*
X213694447Y-95944858D01*
X213706073Y-95953481D01*
X213716798Y-95963202D01*
X213726519Y-95973927D01*
X213735142Y-95985553D01*
X213742583Y-95997969D01*
X213748772Y-96011054D01*
X213753649Y-96024683D01*
X213757166Y-96038724D01*
X213759290Y-96053042D01*
X213760000Y-96067500D01*
X213760000Y-96362500D01*
X213759290Y-96376958D01*
X213757166Y-96391276D01*
X213753649Y-96405317D01*
X213748772Y-96418946D01*
X213742583Y-96432031D01*
X213735142Y-96444447D01*
X213726519Y-96456073D01*
X213716798Y-96466798D01*
X213706073Y-96476519D01*
X213694447Y-96485142D01*
X213682031Y-96492583D01*
X213668946Y-96498772D01*
X213655317Y-96503649D01*
X213641276Y-96507166D01*
X213626958Y-96509290D01*
X213612500Y-96510000D01*
X213267500Y-96510000D01*
X213253042Y-96509290D01*
X213238724Y-96507166D01*
X213224683Y-96503649D01*
X213211054Y-96498772D01*
X213197969Y-96492583D01*
X213185553Y-96485142D01*
X213173927Y-96476519D01*
X213163202Y-96466798D01*
X213153481Y-96456073D01*
X213144858Y-96444447D01*
X213137417Y-96432031D01*
X213131228Y-96418946D01*
X213126351Y-96405317D01*
X213122834Y-96391276D01*
X213120710Y-96376958D01*
X213120000Y-96362500D01*
X213120000Y-96067500D01*
X213120710Y-96053042D01*
X213122834Y-96038724D01*
X213126351Y-96024683D01*
X213131228Y-96011054D01*
X213137417Y-95997969D01*
X213144858Y-95985553D01*
X213153481Y-95973927D01*
X213163202Y-95963202D01*
X213173927Y-95953481D01*
X213185553Y-95944858D01*
X213197969Y-95937417D01*
X213211054Y-95931228D01*
X213224683Y-95926351D01*
X213238724Y-95922834D01*
X213253042Y-95920710D01*
X213267500Y-95920000D01*
X213612500Y-95920000D01*
X213626958Y-95920710D01*
G37*
G36*
X237486958Y-90025710D02*
G01*
X237501276Y-90027834D01*
X237515317Y-90031351D01*
X237528946Y-90036228D01*
X237542031Y-90042417D01*
X237554447Y-90049858D01*
X237566073Y-90058481D01*
X237576798Y-90068202D01*
X237586519Y-90078927D01*
X237595142Y-90090553D01*
X237602583Y-90102969D01*
X237608772Y-90116054D01*
X237613649Y-90129683D01*
X237617166Y-90143724D01*
X237619290Y-90158042D01*
X237620000Y-90172500D01*
X237620000Y-90467500D01*
X237619290Y-90481958D01*
X237617166Y-90496276D01*
X237613649Y-90510317D01*
X237608772Y-90523946D01*
X237602583Y-90537031D01*
X237595142Y-90549447D01*
X237586519Y-90561073D01*
X237576798Y-90571798D01*
X237566073Y-90581519D01*
X237554447Y-90590142D01*
X237542031Y-90597583D01*
X237528946Y-90603772D01*
X237515317Y-90608649D01*
X237501276Y-90612166D01*
X237486958Y-90614290D01*
X237472500Y-90615000D01*
X237127500Y-90615000D01*
X237113042Y-90614290D01*
X237098724Y-90612166D01*
X237084683Y-90608649D01*
X237071054Y-90603772D01*
X237057969Y-90597583D01*
X237045553Y-90590142D01*
X237033927Y-90581519D01*
X237023202Y-90571798D01*
X237013481Y-90561073D01*
X237004858Y-90549447D01*
X236997417Y-90537031D01*
X236991228Y-90523946D01*
X236986351Y-90510317D01*
X236982834Y-90496276D01*
X236980710Y-90481958D01*
X236980000Y-90467500D01*
X236980000Y-90172500D01*
X236980710Y-90158042D01*
X236982834Y-90143724D01*
X236986351Y-90129683D01*
X236991228Y-90116054D01*
X236997417Y-90102969D01*
X237004858Y-90090553D01*
X237013481Y-90078927D01*
X237023202Y-90068202D01*
X237033927Y-90058481D01*
X237045553Y-90049858D01*
X237057969Y-90042417D01*
X237071054Y-90036228D01*
X237084683Y-90031351D01*
X237098724Y-90027834D01*
X237113042Y-90025710D01*
X237127500Y-90025000D01*
X237472500Y-90025000D01*
X237486958Y-90025710D01*
G37*
G36*
X237486958Y-89055710D02*
G01*
X237501276Y-89057834D01*
X237515317Y-89061351D01*
X237528946Y-89066228D01*
X237542031Y-89072417D01*
X237554447Y-89079858D01*
X237566073Y-89088481D01*
X237576798Y-89098202D01*
X237586519Y-89108927D01*
X237595142Y-89120553D01*
X237602583Y-89132969D01*
X237608772Y-89146054D01*
X237613649Y-89159683D01*
X237617166Y-89173724D01*
X237619290Y-89188042D01*
X237620000Y-89202500D01*
X237620000Y-89497500D01*
X237619290Y-89511958D01*
X237617166Y-89526276D01*
X237613649Y-89540317D01*
X237608772Y-89553946D01*
X237602583Y-89567031D01*
X237595142Y-89579447D01*
X237586519Y-89591073D01*
X237576798Y-89601798D01*
X237566073Y-89611519D01*
X237554447Y-89620142D01*
X237542031Y-89627583D01*
X237528946Y-89633772D01*
X237515317Y-89638649D01*
X237501276Y-89642166D01*
X237486958Y-89644290D01*
X237472500Y-89645000D01*
X237127500Y-89645000D01*
X237113042Y-89644290D01*
X237098724Y-89642166D01*
X237084683Y-89638649D01*
X237071054Y-89633772D01*
X237057969Y-89627583D01*
X237045553Y-89620142D01*
X237033927Y-89611519D01*
X237023202Y-89601798D01*
X237013481Y-89591073D01*
X237004858Y-89579447D01*
X236997417Y-89567031D01*
X236991228Y-89553946D01*
X236986351Y-89540317D01*
X236982834Y-89526276D01*
X236980710Y-89511958D01*
X236980000Y-89497500D01*
X236980000Y-89202500D01*
X236980710Y-89188042D01*
X236982834Y-89173724D01*
X236986351Y-89159683D01*
X236991228Y-89146054D01*
X236997417Y-89132969D01*
X237004858Y-89120553D01*
X237013481Y-89108927D01*
X237023202Y-89098202D01*
X237033927Y-89088481D01*
X237045553Y-89079858D01*
X237057969Y-89072417D01*
X237071054Y-89066228D01*
X237084683Y-89061351D01*
X237098724Y-89057834D01*
X237113042Y-89055710D01*
X237127500Y-89055000D01*
X237472500Y-89055000D01*
X237486958Y-89055710D01*
G37*
G36*
X222536958Y-101920710D02*
G01*
X222551276Y-101922834D01*
X222565317Y-101926351D01*
X222578946Y-101931228D01*
X222592031Y-101937417D01*
X222604447Y-101944858D01*
X222616073Y-101953481D01*
X222626798Y-101963202D01*
X222636519Y-101973927D01*
X222645142Y-101985553D01*
X222652583Y-101997969D01*
X222658772Y-102011054D01*
X222663649Y-102024683D01*
X222667166Y-102038724D01*
X222669290Y-102053042D01*
X222670000Y-102067500D01*
X222670000Y-102362500D01*
X222669290Y-102376958D01*
X222667166Y-102391276D01*
X222663649Y-102405317D01*
X222658772Y-102418946D01*
X222652583Y-102432031D01*
X222645142Y-102444447D01*
X222636519Y-102456073D01*
X222626798Y-102466798D01*
X222616073Y-102476519D01*
X222604447Y-102485142D01*
X222592031Y-102492583D01*
X222578946Y-102498772D01*
X222565317Y-102503649D01*
X222551276Y-102507166D01*
X222536958Y-102509290D01*
X222522500Y-102510000D01*
X222177500Y-102510000D01*
X222163042Y-102509290D01*
X222148724Y-102507166D01*
X222134683Y-102503649D01*
X222121054Y-102498772D01*
X222107969Y-102492583D01*
X222095553Y-102485142D01*
X222083927Y-102476519D01*
X222073202Y-102466798D01*
X222063481Y-102456073D01*
X222054858Y-102444447D01*
X222047417Y-102432031D01*
X222041228Y-102418946D01*
X222036351Y-102405317D01*
X222032834Y-102391276D01*
X222030710Y-102376958D01*
X222030000Y-102362500D01*
X222030000Y-102067500D01*
X222030710Y-102053042D01*
X222032834Y-102038724D01*
X222036351Y-102024683D01*
X222041228Y-102011054D01*
X222047417Y-101997969D01*
X222054858Y-101985553D01*
X222063481Y-101973927D01*
X222073202Y-101963202D01*
X222083927Y-101953481D01*
X222095553Y-101944858D01*
X222107969Y-101937417D01*
X222121054Y-101931228D01*
X222134683Y-101926351D01*
X222148724Y-101922834D01*
X222163042Y-101920710D01*
X222177500Y-101920000D01*
X222522500Y-101920000D01*
X222536958Y-101920710D01*
G37*
G36*
X222536958Y-102890710D02*
G01*
X222551276Y-102892834D01*
X222565317Y-102896351D01*
X222578946Y-102901228D01*
X222592031Y-102907417D01*
X222604447Y-102914858D01*
X222616073Y-102923481D01*
X222626798Y-102933202D01*
X222636519Y-102943927D01*
X222645142Y-102955553D01*
X222652583Y-102967969D01*
X222658772Y-102981054D01*
X222663649Y-102994683D01*
X222667166Y-103008724D01*
X222669290Y-103023042D01*
X222670000Y-103037500D01*
X222670000Y-103332500D01*
X222669290Y-103346958D01*
X222667166Y-103361276D01*
X222663649Y-103375317D01*
X222658772Y-103388946D01*
X222652583Y-103402031D01*
X222645142Y-103414447D01*
X222636519Y-103426073D01*
X222626798Y-103436798D01*
X222616073Y-103446519D01*
X222604447Y-103455142D01*
X222592031Y-103462583D01*
X222578946Y-103468772D01*
X222565317Y-103473649D01*
X222551276Y-103477166D01*
X222536958Y-103479290D01*
X222522500Y-103480000D01*
X222177500Y-103480000D01*
X222163042Y-103479290D01*
X222148724Y-103477166D01*
X222134683Y-103473649D01*
X222121054Y-103468772D01*
X222107969Y-103462583D01*
X222095553Y-103455142D01*
X222083927Y-103446519D01*
X222073202Y-103436798D01*
X222063481Y-103426073D01*
X222054858Y-103414447D01*
X222047417Y-103402031D01*
X222041228Y-103388946D01*
X222036351Y-103375317D01*
X222032834Y-103361276D01*
X222030710Y-103346958D01*
X222030000Y-103332500D01*
X222030000Y-103037500D01*
X222030710Y-103023042D01*
X222032834Y-103008724D01*
X222036351Y-102994683D01*
X222041228Y-102981054D01*
X222047417Y-102967969D01*
X222054858Y-102955553D01*
X222063481Y-102943927D01*
X222073202Y-102933202D01*
X222083927Y-102923481D01*
X222095553Y-102914858D01*
X222107969Y-102907417D01*
X222121054Y-102901228D01*
X222134683Y-102896351D01*
X222148724Y-102892834D01*
X222163042Y-102890710D01*
X222177500Y-102890000D01*
X222522500Y-102890000D01*
X222536958Y-102890710D01*
G37*
G36*
X201330142Y-90551174D02*
G01*
X201353803Y-90554684D01*
X201377007Y-90560496D01*
X201399529Y-90568554D01*
X201421153Y-90578782D01*
X201441670Y-90591079D01*
X201460883Y-90605329D01*
X201478607Y-90621393D01*
X201494671Y-90639117D01*
X201508921Y-90658330D01*
X201521218Y-90678847D01*
X201531446Y-90700471D01*
X201539504Y-90722993D01*
X201545316Y-90746197D01*
X201548826Y-90769858D01*
X201550000Y-90793750D01*
X201550000Y-91706250D01*
X201548826Y-91730142D01*
X201545316Y-91753803D01*
X201539504Y-91777007D01*
X201531446Y-91799529D01*
X201521218Y-91821153D01*
X201508921Y-91841670D01*
X201494671Y-91860883D01*
X201478607Y-91878607D01*
X201460883Y-91894671D01*
X201441670Y-91908921D01*
X201421153Y-91921218D01*
X201399529Y-91931446D01*
X201377007Y-91939504D01*
X201353803Y-91945316D01*
X201330142Y-91948826D01*
X201306250Y-91950000D01*
X200818750Y-91950000D01*
X200794858Y-91948826D01*
X200771197Y-91945316D01*
X200747993Y-91939504D01*
X200725471Y-91931446D01*
X200703847Y-91921218D01*
X200683330Y-91908921D01*
X200664117Y-91894671D01*
X200646393Y-91878607D01*
X200630329Y-91860883D01*
X200616079Y-91841670D01*
X200603782Y-91821153D01*
X200593554Y-91799529D01*
X200585496Y-91777007D01*
X200579684Y-91753803D01*
X200576174Y-91730142D01*
X200575000Y-91706250D01*
X200575000Y-90793750D01*
X200576174Y-90769858D01*
X200579684Y-90746197D01*
X200585496Y-90722993D01*
X200593554Y-90700471D01*
X200603782Y-90678847D01*
X200616079Y-90658330D01*
X200630329Y-90639117D01*
X200646393Y-90621393D01*
X200664117Y-90605329D01*
X200683330Y-90591079D01*
X200703847Y-90578782D01*
X200725471Y-90568554D01*
X200747993Y-90560496D01*
X200771197Y-90554684D01*
X200794858Y-90551174D01*
X200818750Y-90550000D01*
X201306250Y-90550000D01*
X201330142Y-90551174D01*
G37*
G36*
X203205142Y-90551174D02*
G01*
X203228803Y-90554684D01*
X203252007Y-90560496D01*
X203274529Y-90568554D01*
X203296153Y-90578782D01*
X203316670Y-90591079D01*
X203335883Y-90605329D01*
X203353607Y-90621393D01*
X203369671Y-90639117D01*
X203383921Y-90658330D01*
X203396218Y-90678847D01*
X203406446Y-90700471D01*
X203414504Y-90722993D01*
X203420316Y-90746197D01*
X203423826Y-90769858D01*
X203425000Y-90793750D01*
X203425000Y-91706250D01*
X203423826Y-91730142D01*
X203420316Y-91753803D01*
X203414504Y-91777007D01*
X203406446Y-91799529D01*
X203396218Y-91821153D01*
X203383921Y-91841670D01*
X203369671Y-91860883D01*
X203353607Y-91878607D01*
X203335883Y-91894671D01*
X203316670Y-91908921D01*
X203296153Y-91921218D01*
X203274529Y-91931446D01*
X203252007Y-91939504D01*
X203228803Y-91945316D01*
X203205142Y-91948826D01*
X203181250Y-91950000D01*
X202693750Y-91950000D01*
X202669858Y-91948826D01*
X202646197Y-91945316D01*
X202622993Y-91939504D01*
X202600471Y-91931446D01*
X202578847Y-91921218D01*
X202558330Y-91908921D01*
X202539117Y-91894671D01*
X202521393Y-91878607D01*
X202505329Y-91860883D01*
X202491079Y-91841670D01*
X202478782Y-91821153D01*
X202468554Y-91799529D01*
X202460496Y-91777007D01*
X202454684Y-91753803D01*
X202451174Y-91730142D01*
X202450000Y-91706250D01*
X202450000Y-90793750D01*
X202451174Y-90769858D01*
X202454684Y-90746197D01*
X202460496Y-90722993D01*
X202468554Y-90700471D01*
X202478782Y-90678847D01*
X202491079Y-90658330D01*
X202505329Y-90639117D01*
X202521393Y-90621393D01*
X202539117Y-90605329D01*
X202558330Y-90591079D01*
X202578847Y-90578782D01*
X202600471Y-90568554D01*
X202622993Y-90560496D01*
X202646197Y-90554684D01*
X202669858Y-90551174D01*
X202693750Y-90550000D01*
X203181250Y-90550000D01*
X203205142Y-90551174D01*
G37*
D13*
X201512500Y-98500000D03*
D14*
X204212500Y-96850000D03*
X204212500Y-96200000D03*
X204212500Y-98800000D03*
X204212500Y-98150000D03*
X204212500Y-97500000D03*
D13*
X201512500Y-96500000D03*
D11*
G36*
X221576958Y-105180710D02*
G01*
X221591276Y-105182834D01*
X221605317Y-105186351D01*
X221618946Y-105191228D01*
X221632031Y-105197417D01*
X221644447Y-105204858D01*
X221656073Y-105213481D01*
X221666798Y-105223202D01*
X221676519Y-105233927D01*
X221685142Y-105245553D01*
X221692583Y-105257969D01*
X221698772Y-105271054D01*
X221703649Y-105284683D01*
X221707166Y-105298724D01*
X221709290Y-105313042D01*
X221710000Y-105327500D01*
X221710000Y-105672500D01*
X221709290Y-105686958D01*
X221707166Y-105701276D01*
X221703649Y-105715317D01*
X221698772Y-105728946D01*
X221692583Y-105742031D01*
X221685142Y-105754447D01*
X221676519Y-105766073D01*
X221666798Y-105776798D01*
X221656073Y-105786519D01*
X221644447Y-105795142D01*
X221632031Y-105802583D01*
X221618946Y-105808772D01*
X221605317Y-105813649D01*
X221591276Y-105817166D01*
X221576958Y-105819290D01*
X221562500Y-105820000D01*
X221267500Y-105820000D01*
X221253042Y-105819290D01*
X221238724Y-105817166D01*
X221224683Y-105813649D01*
X221211054Y-105808772D01*
X221197969Y-105802583D01*
X221185553Y-105795142D01*
X221173927Y-105786519D01*
X221163202Y-105776798D01*
X221153481Y-105766073D01*
X221144858Y-105754447D01*
X221137417Y-105742031D01*
X221131228Y-105728946D01*
X221126351Y-105715317D01*
X221122834Y-105701276D01*
X221120710Y-105686958D01*
X221120000Y-105672500D01*
X221120000Y-105327500D01*
X221120710Y-105313042D01*
X221122834Y-105298724D01*
X221126351Y-105284683D01*
X221131228Y-105271054D01*
X221137417Y-105257969D01*
X221144858Y-105245553D01*
X221153481Y-105233927D01*
X221163202Y-105223202D01*
X221173927Y-105213481D01*
X221185553Y-105204858D01*
X221197969Y-105197417D01*
X221211054Y-105191228D01*
X221224683Y-105186351D01*
X221238724Y-105182834D01*
X221253042Y-105180710D01*
X221267500Y-105180000D01*
X221562500Y-105180000D01*
X221576958Y-105180710D01*
G37*
G36*
X222546958Y-105180710D02*
G01*
X222561276Y-105182834D01*
X222575317Y-105186351D01*
X222588946Y-105191228D01*
X222602031Y-105197417D01*
X222614447Y-105204858D01*
X222626073Y-105213481D01*
X222636798Y-105223202D01*
X222646519Y-105233927D01*
X222655142Y-105245553D01*
X222662583Y-105257969D01*
X222668772Y-105271054D01*
X222673649Y-105284683D01*
X222677166Y-105298724D01*
X222679290Y-105313042D01*
X222680000Y-105327500D01*
X222680000Y-105672500D01*
X222679290Y-105686958D01*
X222677166Y-105701276D01*
X222673649Y-105715317D01*
X222668772Y-105728946D01*
X222662583Y-105742031D01*
X222655142Y-105754447D01*
X222646519Y-105766073D01*
X222636798Y-105776798D01*
X222626073Y-105786519D01*
X222614447Y-105795142D01*
X222602031Y-105802583D01*
X222588946Y-105808772D01*
X222575317Y-105813649D01*
X222561276Y-105817166D01*
X222546958Y-105819290D01*
X222532500Y-105820000D01*
X222237500Y-105820000D01*
X222223042Y-105819290D01*
X222208724Y-105817166D01*
X222194683Y-105813649D01*
X222181054Y-105808772D01*
X222167969Y-105802583D01*
X222155553Y-105795142D01*
X222143927Y-105786519D01*
X222133202Y-105776798D01*
X222123481Y-105766073D01*
X222114858Y-105754447D01*
X222107417Y-105742031D01*
X222101228Y-105728946D01*
X222096351Y-105715317D01*
X222092834Y-105701276D01*
X222090710Y-105686958D01*
X222090000Y-105672500D01*
X222090000Y-105327500D01*
X222090710Y-105313042D01*
X222092834Y-105298724D01*
X222096351Y-105284683D01*
X222101228Y-105271054D01*
X222107417Y-105257969D01*
X222114858Y-105245553D01*
X222123481Y-105233927D01*
X222133202Y-105223202D01*
X222143927Y-105213481D01*
X222155553Y-105204858D01*
X222167969Y-105197417D01*
X222181054Y-105191228D01*
X222194683Y-105186351D01*
X222208724Y-105182834D01*
X222223042Y-105180710D01*
X222237500Y-105180000D01*
X222532500Y-105180000D01*
X222546958Y-105180710D01*
G37*
G36*
X221576958Y-104180710D02*
G01*
X221591276Y-104182834D01*
X221605317Y-104186351D01*
X221618946Y-104191228D01*
X221632031Y-104197417D01*
X221644447Y-104204858D01*
X221656073Y-104213481D01*
X221666798Y-104223202D01*
X221676519Y-104233927D01*
X221685142Y-104245553D01*
X221692583Y-104257969D01*
X221698772Y-104271054D01*
X221703649Y-104284683D01*
X221707166Y-104298724D01*
X221709290Y-104313042D01*
X221710000Y-104327500D01*
X221710000Y-104672500D01*
X221709290Y-104686958D01*
X221707166Y-104701276D01*
X221703649Y-104715317D01*
X221698772Y-104728946D01*
X221692583Y-104742031D01*
X221685142Y-104754447D01*
X221676519Y-104766073D01*
X221666798Y-104776798D01*
X221656073Y-104786519D01*
X221644447Y-104795142D01*
X221632031Y-104802583D01*
X221618946Y-104808772D01*
X221605317Y-104813649D01*
X221591276Y-104817166D01*
X221576958Y-104819290D01*
X221562500Y-104820000D01*
X221267500Y-104820000D01*
X221253042Y-104819290D01*
X221238724Y-104817166D01*
X221224683Y-104813649D01*
X221211054Y-104808772D01*
X221197969Y-104802583D01*
X221185553Y-104795142D01*
X221173927Y-104786519D01*
X221163202Y-104776798D01*
X221153481Y-104766073D01*
X221144858Y-104754447D01*
X221137417Y-104742031D01*
X221131228Y-104728946D01*
X221126351Y-104715317D01*
X221122834Y-104701276D01*
X221120710Y-104686958D01*
X221120000Y-104672500D01*
X221120000Y-104327500D01*
X221120710Y-104313042D01*
X221122834Y-104298724D01*
X221126351Y-104284683D01*
X221131228Y-104271054D01*
X221137417Y-104257969D01*
X221144858Y-104245553D01*
X221153481Y-104233927D01*
X221163202Y-104223202D01*
X221173927Y-104213481D01*
X221185553Y-104204858D01*
X221197969Y-104197417D01*
X221211054Y-104191228D01*
X221224683Y-104186351D01*
X221238724Y-104182834D01*
X221253042Y-104180710D01*
X221267500Y-104180000D01*
X221562500Y-104180000D01*
X221576958Y-104180710D01*
G37*
G36*
X222546958Y-104180710D02*
G01*
X222561276Y-104182834D01*
X222575317Y-104186351D01*
X222588946Y-104191228D01*
X222602031Y-104197417D01*
X222614447Y-104204858D01*
X222626073Y-104213481D01*
X222636798Y-104223202D01*
X222646519Y-104233927D01*
X222655142Y-104245553D01*
X222662583Y-104257969D01*
X222668772Y-104271054D01*
X222673649Y-104284683D01*
X222677166Y-104298724D01*
X222679290Y-104313042D01*
X222680000Y-104327500D01*
X222680000Y-104672500D01*
X222679290Y-104686958D01*
X222677166Y-104701276D01*
X222673649Y-104715317D01*
X222668772Y-104728946D01*
X222662583Y-104742031D01*
X222655142Y-104754447D01*
X222646519Y-104766073D01*
X222636798Y-104776798D01*
X222626073Y-104786519D01*
X222614447Y-104795142D01*
X222602031Y-104802583D01*
X222588946Y-104808772D01*
X222575317Y-104813649D01*
X222561276Y-104817166D01*
X222546958Y-104819290D01*
X222532500Y-104820000D01*
X222237500Y-104820000D01*
X222223042Y-104819290D01*
X222208724Y-104817166D01*
X222194683Y-104813649D01*
X222181054Y-104808772D01*
X222167969Y-104802583D01*
X222155553Y-104795142D01*
X222143927Y-104786519D01*
X222133202Y-104776798D01*
X222123481Y-104766073D01*
X222114858Y-104754447D01*
X222107417Y-104742031D01*
X222101228Y-104728946D01*
X222096351Y-104715317D01*
X222092834Y-104701276D01*
X222090710Y-104686958D01*
X222090000Y-104672500D01*
X222090000Y-104327500D01*
X222090710Y-104313042D01*
X222092834Y-104298724D01*
X222096351Y-104284683D01*
X222101228Y-104271054D01*
X222107417Y-104257969D01*
X222114858Y-104245553D01*
X222123481Y-104233927D01*
X222133202Y-104223202D01*
X222143927Y-104213481D01*
X222155553Y-104204858D01*
X222167969Y-104197417D01*
X222181054Y-104191228D01*
X222194683Y-104186351D01*
X222208724Y-104182834D01*
X222223042Y-104180710D01*
X222237500Y-104180000D01*
X222532500Y-104180000D01*
X222546958Y-104180710D01*
G37*
G36*
X226046958Y-97780710D02*
G01*
X226061276Y-97782834D01*
X226075317Y-97786351D01*
X226088946Y-97791228D01*
X226102031Y-97797417D01*
X226114447Y-97804858D01*
X226126073Y-97813481D01*
X226136798Y-97823202D01*
X226146519Y-97833927D01*
X226155142Y-97845553D01*
X226162583Y-97857969D01*
X226168772Y-97871054D01*
X226173649Y-97884683D01*
X226177166Y-97898724D01*
X226179290Y-97913042D01*
X226180000Y-97927500D01*
X226180000Y-98272500D01*
X226179290Y-98286958D01*
X226177166Y-98301276D01*
X226173649Y-98315317D01*
X226168772Y-98328946D01*
X226162583Y-98342031D01*
X226155142Y-98354447D01*
X226146519Y-98366073D01*
X226136798Y-98376798D01*
X226126073Y-98386519D01*
X226114447Y-98395142D01*
X226102031Y-98402583D01*
X226088946Y-98408772D01*
X226075317Y-98413649D01*
X226061276Y-98417166D01*
X226046958Y-98419290D01*
X226032500Y-98420000D01*
X225737500Y-98420000D01*
X225723042Y-98419290D01*
X225708724Y-98417166D01*
X225694683Y-98413649D01*
X225681054Y-98408772D01*
X225667969Y-98402583D01*
X225655553Y-98395142D01*
X225643927Y-98386519D01*
X225633202Y-98376798D01*
X225623481Y-98366073D01*
X225614858Y-98354447D01*
X225607417Y-98342031D01*
X225601228Y-98328946D01*
X225596351Y-98315317D01*
X225592834Y-98301276D01*
X225590710Y-98286958D01*
X225590000Y-98272500D01*
X225590000Y-97927500D01*
X225590710Y-97913042D01*
X225592834Y-97898724D01*
X225596351Y-97884683D01*
X225601228Y-97871054D01*
X225607417Y-97857969D01*
X225614858Y-97845553D01*
X225623481Y-97833927D01*
X225633202Y-97823202D01*
X225643927Y-97813481D01*
X225655553Y-97804858D01*
X225667969Y-97797417D01*
X225681054Y-97791228D01*
X225694683Y-97786351D01*
X225708724Y-97782834D01*
X225723042Y-97780710D01*
X225737500Y-97780000D01*
X226032500Y-97780000D01*
X226046958Y-97780710D01*
G37*
G36*
X225076958Y-97780710D02*
G01*
X225091276Y-97782834D01*
X225105317Y-97786351D01*
X225118946Y-97791228D01*
X225132031Y-97797417D01*
X225144447Y-97804858D01*
X225156073Y-97813481D01*
X225166798Y-97823202D01*
X225176519Y-97833927D01*
X225185142Y-97845553D01*
X225192583Y-97857969D01*
X225198772Y-97871054D01*
X225203649Y-97884683D01*
X225207166Y-97898724D01*
X225209290Y-97913042D01*
X225210000Y-97927500D01*
X225210000Y-98272500D01*
X225209290Y-98286958D01*
X225207166Y-98301276D01*
X225203649Y-98315317D01*
X225198772Y-98328946D01*
X225192583Y-98342031D01*
X225185142Y-98354447D01*
X225176519Y-98366073D01*
X225166798Y-98376798D01*
X225156073Y-98386519D01*
X225144447Y-98395142D01*
X225132031Y-98402583D01*
X225118946Y-98408772D01*
X225105317Y-98413649D01*
X225091276Y-98417166D01*
X225076958Y-98419290D01*
X225062500Y-98420000D01*
X224767500Y-98420000D01*
X224753042Y-98419290D01*
X224738724Y-98417166D01*
X224724683Y-98413649D01*
X224711054Y-98408772D01*
X224697969Y-98402583D01*
X224685553Y-98395142D01*
X224673927Y-98386519D01*
X224663202Y-98376798D01*
X224653481Y-98366073D01*
X224644858Y-98354447D01*
X224637417Y-98342031D01*
X224631228Y-98328946D01*
X224626351Y-98315317D01*
X224622834Y-98301276D01*
X224620710Y-98286958D01*
X224620000Y-98272500D01*
X224620000Y-97927500D01*
X224620710Y-97913042D01*
X224622834Y-97898724D01*
X224626351Y-97884683D01*
X224631228Y-97871054D01*
X224637417Y-97857969D01*
X224644858Y-97845553D01*
X224653481Y-97833927D01*
X224663202Y-97823202D01*
X224673927Y-97813481D01*
X224685553Y-97804858D01*
X224697969Y-97797417D01*
X224711054Y-97791228D01*
X224724683Y-97786351D01*
X224738724Y-97782834D01*
X224753042Y-97780710D01*
X224767500Y-97780000D01*
X225062500Y-97780000D01*
X225076958Y-97780710D01*
G37*
G36*
X225076958Y-98780710D02*
G01*
X225091276Y-98782834D01*
X225105317Y-98786351D01*
X225118946Y-98791228D01*
X225132031Y-98797417D01*
X225144447Y-98804858D01*
X225156073Y-98813481D01*
X225166798Y-98823202D01*
X225176519Y-98833927D01*
X225185142Y-98845553D01*
X225192583Y-98857969D01*
X225198772Y-98871054D01*
X225203649Y-98884683D01*
X225207166Y-98898724D01*
X225209290Y-98913042D01*
X225210000Y-98927500D01*
X225210000Y-99272500D01*
X225209290Y-99286958D01*
X225207166Y-99301276D01*
X225203649Y-99315317D01*
X225198772Y-99328946D01*
X225192583Y-99342031D01*
X225185142Y-99354447D01*
X225176519Y-99366073D01*
X225166798Y-99376798D01*
X225156073Y-99386519D01*
X225144447Y-99395142D01*
X225132031Y-99402583D01*
X225118946Y-99408772D01*
X225105317Y-99413649D01*
X225091276Y-99417166D01*
X225076958Y-99419290D01*
X225062500Y-99420000D01*
X224767500Y-99420000D01*
X224753042Y-99419290D01*
X224738724Y-99417166D01*
X224724683Y-99413649D01*
X224711054Y-99408772D01*
X224697969Y-99402583D01*
X224685553Y-99395142D01*
X224673927Y-99386519D01*
X224663202Y-99376798D01*
X224653481Y-99366073D01*
X224644858Y-99354447D01*
X224637417Y-99342031D01*
X224631228Y-99328946D01*
X224626351Y-99315317D01*
X224622834Y-99301276D01*
X224620710Y-99286958D01*
X224620000Y-99272500D01*
X224620000Y-98927500D01*
X224620710Y-98913042D01*
X224622834Y-98898724D01*
X224626351Y-98884683D01*
X224631228Y-98871054D01*
X224637417Y-98857969D01*
X224644858Y-98845553D01*
X224653481Y-98833927D01*
X224663202Y-98823202D01*
X224673927Y-98813481D01*
X224685553Y-98804858D01*
X224697969Y-98797417D01*
X224711054Y-98791228D01*
X224724683Y-98786351D01*
X224738724Y-98782834D01*
X224753042Y-98780710D01*
X224767500Y-98780000D01*
X225062500Y-98780000D01*
X225076958Y-98780710D01*
G37*
G36*
X226046958Y-98780710D02*
G01*
X226061276Y-98782834D01*
X226075317Y-98786351D01*
X226088946Y-98791228D01*
X226102031Y-98797417D01*
X226114447Y-98804858D01*
X226126073Y-98813481D01*
X226136798Y-98823202D01*
X226146519Y-98833927D01*
X226155142Y-98845553D01*
X226162583Y-98857969D01*
X226168772Y-98871054D01*
X226173649Y-98884683D01*
X226177166Y-98898724D01*
X226179290Y-98913042D01*
X226180000Y-98927500D01*
X226180000Y-99272500D01*
X226179290Y-99286958D01*
X226177166Y-99301276D01*
X226173649Y-99315317D01*
X226168772Y-99328946D01*
X226162583Y-99342031D01*
X226155142Y-99354447D01*
X226146519Y-99366073D01*
X226136798Y-99376798D01*
X226126073Y-99386519D01*
X226114447Y-99395142D01*
X226102031Y-99402583D01*
X226088946Y-99408772D01*
X226075317Y-99413649D01*
X226061276Y-99417166D01*
X226046958Y-99419290D01*
X226032500Y-99420000D01*
X225737500Y-99420000D01*
X225723042Y-99419290D01*
X225708724Y-99417166D01*
X225694683Y-99413649D01*
X225681054Y-99408772D01*
X225667969Y-99402583D01*
X225655553Y-99395142D01*
X225643927Y-99386519D01*
X225633202Y-99376798D01*
X225623481Y-99366073D01*
X225614858Y-99354447D01*
X225607417Y-99342031D01*
X225601228Y-99328946D01*
X225596351Y-99315317D01*
X225592834Y-99301276D01*
X225590710Y-99286958D01*
X225590000Y-99272500D01*
X225590000Y-98927500D01*
X225590710Y-98913042D01*
X225592834Y-98898724D01*
X225596351Y-98884683D01*
X225601228Y-98871054D01*
X225607417Y-98857969D01*
X225614858Y-98845553D01*
X225623481Y-98833927D01*
X225633202Y-98823202D01*
X225643927Y-98813481D01*
X225655553Y-98804858D01*
X225667969Y-98797417D01*
X225681054Y-98791228D01*
X225694683Y-98786351D01*
X225708724Y-98782834D01*
X225723042Y-98780710D01*
X225737500Y-98780000D01*
X226032500Y-98780000D01*
X226046958Y-98780710D01*
G37*
G36*
X204376958Y-91980710D02*
G01*
X204391276Y-91982834D01*
X204405317Y-91986351D01*
X204418946Y-91991228D01*
X204432031Y-91997417D01*
X204444447Y-92004858D01*
X204456073Y-92013481D01*
X204466798Y-92023202D01*
X204476519Y-92033927D01*
X204485142Y-92045553D01*
X204492583Y-92057969D01*
X204498772Y-92071054D01*
X204503649Y-92084683D01*
X204507166Y-92098724D01*
X204509290Y-92113042D01*
X204510000Y-92127500D01*
X204510000Y-92472500D01*
X204509290Y-92486958D01*
X204507166Y-92501276D01*
X204503649Y-92515317D01*
X204498772Y-92528946D01*
X204492583Y-92542031D01*
X204485142Y-92554447D01*
X204476519Y-92566073D01*
X204466798Y-92576798D01*
X204456073Y-92586519D01*
X204444447Y-92595142D01*
X204432031Y-92602583D01*
X204418946Y-92608772D01*
X204405317Y-92613649D01*
X204391276Y-92617166D01*
X204376958Y-92619290D01*
X204362500Y-92620000D01*
X204067500Y-92620000D01*
X204053042Y-92619290D01*
X204038724Y-92617166D01*
X204024683Y-92613649D01*
X204011054Y-92608772D01*
X203997969Y-92602583D01*
X203985553Y-92595142D01*
X203973927Y-92586519D01*
X203963202Y-92576798D01*
X203953481Y-92566073D01*
X203944858Y-92554447D01*
X203937417Y-92542031D01*
X203931228Y-92528946D01*
X203926351Y-92515317D01*
X203922834Y-92501276D01*
X203920710Y-92486958D01*
X203920000Y-92472500D01*
X203920000Y-92127500D01*
X203920710Y-92113042D01*
X203922834Y-92098724D01*
X203926351Y-92084683D01*
X203931228Y-92071054D01*
X203937417Y-92057969D01*
X203944858Y-92045553D01*
X203953481Y-92033927D01*
X203963202Y-92023202D01*
X203973927Y-92013481D01*
X203985553Y-92004858D01*
X203997969Y-91997417D01*
X204011054Y-91991228D01*
X204024683Y-91986351D01*
X204038724Y-91982834D01*
X204053042Y-91980710D01*
X204067500Y-91980000D01*
X204362500Y-91980000D01*
X204376958Y-91980710D01*
G37*
G36*
X205346958Y-91980710D02*
G01*
X205361276Y-91982834D01*
X205375317Y-91986351D01*
X205388946Y-91991228D01*
X205402031Y-91997417D01*
X205414447Y-92004858D01*
X205426073Y-92013481D01*
X205436798Y-92023202D01*
X205446519Y-92033927D01*
X205455142Y-92045553D01*
X205462583Y-92057969D01*
X205468772Y-92071054D01*
X205473649Y-92084683D01*
X205477166Y-92098724D01*
X205479290Y-92113042D01*
X205480000Y-92127500D01*
X205480000Y-92472500D01*
X205479290Y-92486958D01*
X205477166Y-92501276D01*
X205473649Y-92515317D01*
X205468772Y-92528946D01*
X205462583Y-92542031D01*
X205455142Y-92554447D01*
X205446519Y-92566073D01*
X205436798Y-92576798D01*
X205426073Y-92586519D01*
X205414447Y-92595142D01*
X205402031Y-92602583D01*
X205388946Y-92608772D01*
X205375317Y-92613649D01*
X205361276Y-92617166D01*
X205346958Y-92619290D01*
X205332500Y-92620000D01*
X205037500Y-92620000D01*
X205023042Y-92619290D01*
X205008724Y-92617166D01*
X204994683Y-92613649D01*
X204981054Y-92608772D01*
X204967969Y-92602583D01*
X204955553Y-92595142D01*
X204943927Y-92586519D01*
X204933202Y-92576798D01*
X204923481Y-92566073D01*
X204914858Y-92554447D01*
X204907417Y-92542031D01*
X204901228Y-92528946D01*
X204896351Y-92515317D01*
X204892834Y-92501276D01*
X204890710Y-92486958D01*
X204890000Y-92472500D01*
X204890000Y-92127500D01*
X204890710Y-92113042D01*
X204892834Y-92098724D01*
X204896351Y-92084683D01*
X204901228Y-92071054D01*
X204907417Y-92057969D01*
X204914858Y-92045553D01*
X204923481Y-92033927D01*
X204933202Y-92023202D01*
X204943927Y-92013481D01*
X204955553Y-92004858D01*
X204967969Y-91997417D01*
X204981054Y-91991228D01*
X204994683Y-91986351D01*
X205008724Y-91982834D01*
X205023042Y-91980710D01*
X205037500Y-91980000D01*
X205332500Y-91980000D01*
X205346958Y-91980710D01*
G37*
D15*
X232169239Y-101096194D02*
X231603553Y-100530508D01*
X232452082Y-100813352D02*
X231886396Y-100247666D01*
X232734925Y-100530509D02*
X232169239Y-99964823D01*
X233017767Y-100247666D02*
X232452081Y-99681980D01*
X233300610Y-99964824D02*
X232734924Y-99399138D01*
X233583453Y-99681981D02*
X233017767Y-99116295D01*
X233866295Y-99399138D02*
X233300609Y-98833452D01*
X234149138Y-99116295D02*
X233583452Y-98550609D01*
X234431981Y-98833453D02*
X233866295Y-98267767D01*
X234714824Y-98550610D02*
X234149138Y-97984924D01*
X234997666Y-98267767D02*
X234431980Y-97702081D01*
X235280509Y-97984925D02*
X234714823Y-97419239D01*
X235563352Y-97702082D02*
X234997666Y-97136396D01*
X235846194Y-97419239D02*
X235280508Y-96853553D01*
X235280508Y-96146447D02*
X235846194Y-95580761D01*
X234997666Y-95863604D02*
X235563352Y-95297918D01*
X234714823Y-95580761D02*
X235280509Y-95015075D01*
X234431980Y-95297919D02*
X234997666Y-94732233D01*
X234149138Y-95015076D02*
X234714824Y-94449390D01*
X233866295Y-94732233D02*
X234431981Y-94166547D01*
X233583452Y-94449391D02*
X234149138Y-93883705D01*
X233300609Y-94166548D02*
X233866295Y-93600862D01*
X233017767Y-93883705D02*
X233583453Y-93318019D01*
X232734924Y-93600862D02*
X233300610Y-93035176D01*
X232452081Y-93318020D02*
X233017767Y-92752334D01*
X232169239Y-93035177D02*
X232734925Y-92469491D01*
X231886396Y-92752334D02*
X232452082Y-92186648D01*
X231603553Y-92469492D02*
X232169239Y-91903806D01*
X230896447Y-92469492D02*
X230330761Y-91903806D01*
X230613604Y-92752334D02*
X230047918Y-92186648D01*
X230330761Y-93035177D02*
X229765075Y-92469491D01*
X230047919Y-93318020D02*
X229482233Y-92752334D01*
X229765076Y-93600862D02*
X229199390Y-93035176D01*
X229482233Y-93883705D02*
X228916547Y-93318019D01*
X229199391Y-94166548D02*
X228633705Y-93600862D01*
X228916548Y-94449391D02*
X228350862Y-93883705D01*
X228633705Y-94732233D02*
X228068019Y-94166547D01*
X228350862Y-95015076D02*
X227785176Y-94449390D01*
X228068020Y-95297919D02*
X227502334Y-94732233D01*
X227785177Y-95580761D02*
X227219491Y-95015075D01*
X227502334Y-95863604D02*
X226936648Y-95297918D01*
X227219492Y-96146447D02*
X226653806Y-95580761D01*
X226653806Y-97419239D02*
X227219492Y-96853553D01*
X226936648Y-97702082D02*
X227502334Y-97136396D01*
X227219491Y-97984925D02*
X227785177Y-97419239D01*
X227502334Y-98267767D02*
X228068020Y-97702081D01*
X227785176Y-98550610D02*
X228350862Y-97984924D01*
X228068019Y-98833453D02*
X228633705Y-98267767D01*
X228350862Y-99116295D02*
X228916548Y-98550609D01*
X228633705Y-99399138D02*
X229199391Y-98833452D01*
X228916547Y-99681981D02*
X229482233Y-99116295D01*
X229199390Y-99964824D02*
X229765076Y-99399138D01*
X229482233Y-100247666D02*
X230047919Y-99681980D01*
X229765075Y-100530509D02*
X230330761Y-99964823D01*
X230047918Y-100813352D02*
X230613604Y-100247666D01*
X230330761Y-101096194D02*
X230896447Y-100530508D01*
D11*
G36*
X232239949Y-97631371D02*
G01*
X231250000Y-98621320D01*
X230260051Y-97631371D01*
X231250000Y-96641422D01*
X232239949Y-97631371D01*
G37*
G36*
X233371320Y-96500000D02*
G01*
X232381371Y-97489949D01*
X231391422Y-96500000D01*
X232381371Y-95510051D01*
X233371320Y-96500000D01*
G37*
G36*
X231108578Y-96500000D02*
G01*
X230118629Y-97489949D01*
X229128680Y-96500000D01*
X230118629Y-95510051D01*
X231108578Y-96500000D01*
G37*
G36*
X232239949Y-95368629D02*
G01*
X231250000Y-96358578D01*
X230260051Y-95368629D01*
X231250000Y-94378680D01*
X232239949Y-95368629D01*
G37*
D16*
X209100000Y-96200000D03*
X209100000Y-97150000D03*
X209100000Y-98100000D03*
X211800000Y-98100000D03*
X211800000Y-96200000D03*
D11*
G36*
X204686958Y-102970710D02*
G01*
X204701276Y-102972834D01*
X204715317Y-102976351D01*
X204728946Y-102981228D01*
X204742031Y-102987417D01*
X204754447Y-102994858D01*
X204766073Y-103003481D01*
X204776798Y-103013202D01*
X204786519Y-103023927D01*
X204795142Y-103035553D01*
X204802583Y-103047969D01*
X204808772Y-103061054D01*
X204813649Y-103074683D01*
X204817166Y-103088724D01*
X204819290Y-103103042D01*
X204820000Y-103117500D01*
X204820000Y-103412500D01*
X204819290Y-103426958D01*
X204817166Y-103441276D01*
X204813649Y-103455317D01*
X204808772Y-103468946D01*
X204802583Y-103482031D01*
X204795142Y-103494447D01*
X204786519Y-103506073D01*
X204776798Y-103516798D01*
X204766073Y-103526519D01*
X204754447Y-103535142D01*
X204742031Y-103542583D01*
X204728946Y-103548772D01*
X204715317Y-103553649D01*
X204701276Y-103557166D01*
X204686958Y-103559290D01*
X204672500Y-103560000D01*
X204327500Y-103560000D01*
X204313042Y-103559290D01*
X204298724Y-103557166D01*
X204284683Y-103553649D01*
X204271054Y-103548772D01*
X204257969Y-103542583D01*
X204245553Y-103535142D01*
X204233927Y-103526519D01*
X204223202Y-103516798D01*
X204213481Y-103506073D01*
X204204858Y-103494447D01*
X204197417Y-103482031D01*
X204191228Y-103468946D01*
X204186351Y-103455317D01*
X204182834Y-103441276D01*
X204180710Y-103426958D01*
X204180000Y-103412500D01*
X204180000Y-103117500D01*
X204180710Y-103103042D01*
X204182834Y-103088724D01*
X204186351Y-103074683D01*
X204191228Y-103061054D01*
X204197417Y-103047969D01*
X204204858Y-103035553D01*
X204213481Y-103023927D01*
X204223202Y-103013202D01*
X204233927Y-103003481D01*
X204245553Y-102994858D01*
X204257969Y-102987417D01*
X204271054Y-102981228D01*
X204284683Y-102976351D01*
X204298724Y-102972834D01*
X204313042Y-102970710D01*
X204327500Y-102970000D01*
X204672500Y-102970000D01*
X204686958Y-102970710D01*
G37*
G36*
X204686958Y-103940710D02*
G01*
X204701276Y-103942834D01*
X204715317Y-103946351D01*
X204728946Y-103951228D01*
X204742031Y-103957417D01*
X204754447Y-103964858D01*
X204766073Y-103973481D01*
X204776798Y-103983202D01*
X204786519Y-103993927D01*
X204795142Y-104005553D01*
X204802583Y-104017969D01*
X204808772Y-104031054D01*
X204813649Y-104044683D01*
X204817166Y-104058724D01*
X204819290Y-104073042D01*
X204820000Y-104087500D01*
X204820000Y-104382500D01*
X204819290Y-104396958D01*
X204817166Y-104411276D01*
X204813649Y-104425317D01*
X204808772Y-104438946D01*
X204802583Y-104452031D01*
X204795142Y-104464447D01*
X204786519Y-104476073D01*
X204776798Y-104486798D01*
X204766073Y-104496519D01*
X204754447Y-104505142D01*
X204742031Y-104512583D01*
X204728946Y-104518772D01*
X204715317Y-104523649D01*
X204701276Y-104527166D01*
X204686958Y-104529290D01*
X204672500Y-104530000D01*
X204327500Y-104530000D01*
X204313042Y-104529290D01*
X204298724Y-104527166D01*
X204284683Y-104523649D01*
X204271054Y-104518772D01*
X204257969Y-104512583D01*
X204245553Y-104505142D01*
X204233927Y-104496519D01*
X204223202Y-104486798D01*
X204213481Y-104476073D01*
X204204858Y-104464447D01*
X204197417Y-104452031D01*
X204191228Y-104438946D01*
X204186351Y-104425317D01*
X204182834Y-104411276D01*
X204180710Y-104396958D01*
X204180000Y-104382500D01*
X204180000Y-104087500D01*
X204180710Y-104073042D01*
X204182834Y-104058724D01*
X204186351Y-104044683D01*
X204191228Y-104031054D01*
X204197417Y-104017969D01*
X204204858Y-104005553D01*
X204213481Y-103993927D01*
X204223202Y-103983202D01*
X204233927Y-103973481D01*
X204245553Y-103964858D01*
X204257969Y-103957417D01*
X204271054Y-103951228D01*
X204284683Y-103946351D01*
X204298724Y-103942834D01*
X204313042Y-103940710D01*
X204327500Y-103940000D01*
X204672500Y-103940000D01*
X204686958Y-103940710D01*
G37*
D17*
X233590000Y-90670000D03*
X235790000Y-90670000D03*
X235790000Y-88970000D03*
X233590000Y-88970000D03*
D11*
G36*
X227386958Y-111234710D02*
G01*
X227401276Y-111236834D01*
X227415317Y-111240351D01*
X227428946Y-111245228D01*
X227442031Y-111251417D01*
X227454447Y-111258858D01*
X227466073Y-111267481D01*
X227476798Y-111277202D01*
X227486519Y-111287927D01*
X227495142Y-111299553D01*
X227502583Y-111311969D01*
X227508772Y-111325054D01*
X227513649Y-111338683D01*
X227517166Y-111352724D01*
X227519290Y-111367042D01*
X227520000Y-111381500D01*
X227520000Y-111676500D01*
X227519290Y-111690958D01*
X227517166Y-111705276D01*
X227513649Y-111719317D01*
X227508772Y-111732946D01*
X227502583Y-111746031D01*
X227495142Y-111758447D01*
X227486519Y-111770073D01*
X227476798Y-111780798D01*
X227466073Y-111790519D01*
X227454447Y-111799142D01*
X227442031Y-111806583D01*
X227428946Y-111812772D01*
X227415317Y-111817649D01*
X227401276Y-111821166D01*
X227386958Y-111823290D01*
X227372500Y-111824000D01*
X227027500Y-111824000D01*
X227013042Y-111823290D01*
X226998724Y-111821166D01*
X226984683Y-111817649D01*
X226971054Y-111812772D01*
X226957969Y-111806583D01*
X226945553Y-111799142D01*
X226933927Y-111790519D01*
X226923202Y-111780798D01*
X226913481Y-111770073D01*
X226904858Y-111758447D01*
X226897417Y-111746031D01*
X226891228Y-111732946D01*
X226886351Y-111719317D01*
X226882834Y-111705276D01*
X226880710Y-111690958D01*
X226880000Y-111676500D01*
X226880000Y-111381500D01*
X226880710Y-111367042D01*
X226882834Y-111352724D01*
X226886351Y-111338683D01*
X226891228Y-111325054D01*
X226897417Y-111311969D01*
X226904858Y-111299553D01*
X226913481Y-111287927D01*
X226923202Y-111277202D01*
X226933927Y-111267481D01*
X226945553Y-111258858D01*
X226957969Y-111251417D01*
X226971054Y-111245228D01*
X226984683Y-111240351D01*
X226998724Y-111236834D01*
X227013042Y-111234710D01*
X227027500Y-111234000D01*
X227372500Y-111234000D01*
X227386958Y-111234710D01*
G37*
G36*
X227386958Y-112204710D02*
G01*
X227401276Y-112206834D01*
X227415317Y-112210351D01*
X227428946Y-112215228D01*
X227442031Y-112221417D01*
X227454447Y-112228858D01*
X227466073Y-112237481D01*
X227476798Y-112247202D01*
X227486519Y-112257927D01*
X227495142Y-112269553D01*
X227502583Y-112281969D01*
X227508772Y-112295054D01*
X227513649Y-112308683D01*
X227517166Y-112322724D01*
X227519290Y-112337042D01*
X227520000Y-112351500D01*
X227520000Y-112646500D01*
X227519290Y-112660958D01*
X227517166Y-112675276D01*
X227513649Y-112689317D01*
X227508772Y-112702946D01*
X227502583Y-112716031D01*
X227495142Y-112728447D01*
X227486519Y-112740073D01*
X227476798Y-112750798D01*
X227466073Y-112760519D01*
X227454447Y-112769142D01*
X227442031Y-112776583D01*
X227428946Y-112782772D01*
X227415317Y-112787649D01*
X227401276Y-112791166D01*
X227386958Y-112793290D01*
X227372500Y-112794000D01*
X227027500Y-112794000D01*
X227013042Y-112793290D01*
X226998724Y-112791166D01*
X226984683Y-112787649D01*
X226971054Y-112782772D01*
X226957969Y-112776583D01*
X226945553Y-112769142D01*
X226933927Y-112760519D01*
X226923202Y-112750798D01*
X226913481Y-112740073D01*
X226904858Y-112728447D01*
X226897417Y-112716031D01*
X226891228Y-112702946D01*
X226886351Y-112689317D01*
X226882834Y-112675276D01*
X226880710Y-112660958D01*
X226880000Y-112646500D01*
X226880000Y-112351500D01*
X226880710Y-112337042D01*
X226882834Y-112322724D01*
X226886351Y-112308683D01*
X226891228Y-112295054D01*
X226897417Y-112281969D01*
X226904858Y-112269553D01*
X226913481Y-112257927D01*
X226923202Y-112247202D01*
X226933927Y-112237481D01*
X226945553Y-112228858D01*
X226957969Y-112221417D01*
X226971054Y-112215228D01*
X226984683Y-112210351D01*
X226998724Y-112206834D01*
X227013042Y-112204710D01*
X227027500Y-112204000D01*
X227372500Y-112204000D01*
X227386958Y-112204710D01*
G37*
G36*
X204376958Y-91030710D02*
G01*
X204391276Y-91032834D01*
X204405317Y-91036351D01*
X204418946Y-91041228D01*
X204432031Y-91047417D01*
X204444447Y-91054858D01*
X204456073Y-91063481D01*
X204466798Y-91073202D01*
X204476519Y-91083927D01*
X204485142Y-91095553D01*
X204492583Y-91107969D01*
X204498772Y-91121054D01*
X204503649Y-91134683D01*
X204507166Y-91148724D01*
X204509290Y-91163042D01*
X204510000Y-91177500D01*
X204510000Y-91522500D01*
X204509290Y-91536958D01*
X204507166Y-91551276D01*
X204503649Y-91565317D01*
X204498772Y-91578946D01*
X204492583Y-91592031D01*
X204485142Y-91604447D01*
X204476519Y-91616073D01*
X204466798Y-91626798D01*
X204456073Y-91636519D01*
X204444447Y-91645142D01*
X204432031Y-91652583D01*
X204418946Y-91658772D01*
X204405317Y-91663649D01*
X204391276Y-91667166D01*
X204376958Y-91669290D01*
X204362500Y-91670000D01*
X204067500Y-91670000D01*
X204053042Y-91669290D01*
X204038724Y-91667166D01*
X204024683Y-91663649D01*
X204011054Y-91658772D01*
X203997969Y-91652583D01*
X203985553Y-91645142D01*
X203973927Y-91636519D01*
X203963202Y-91626798D01*
X203953481Y-91616073D01*
X203944858Y-91604447D01*
X203937417Y-91592031D01*
X203931228Y-91578946D01*
X203926351Y-91565317D01*
X203922834Y-91551276D01*
X203920710Y-91536958D01*
X203920000Y-91522500D01*
X203920000Y-91177500D01*
X203920710Y-91163042D01*
X203922834Y-91148724D01*
X203926351Y-91134683D01*
X203931228Y-91121054D01*
X203937417Y-91107969D01*
X203944858Y-91095553D01*
X203953481Y-91083927D01*
X203963202Y-91073202D01*
X203973927Y-91063481D01*
X203985553Y-91054858D01*
X203997969Y-91047417D01*
X204011054Y-91041228D01*
X204024683Y-91036351D01*
X204038724Y-91032834D01*
X204053042Y-91030710D01*
X204067500Y-91030000D01*
X204362500Y-91030000D01*
X204376958Y-91030710D01*
G37*
G36*
X205346958Y-91030710D02*
G01*
X205361276Y-91032834D01*
X205375317Y-91036351D01*
X205388946Y-91041228D01*
X205402031Y-91047417D01*
X205414447Y-91054858D01*
X205426073Y-91063481D01*
X205436798Y-91073202D01*
X205446519Y-91083927D01*
X205455142Y-91095553D01*
X205462583Y-91107969D01*
X205468772Y-91121054D01*
X205473649Y-91134683D01*
X205477166Y-91148724D01*
X205479290Y-91163042D01*
X205480000Y-91177500D01*
X205480000Y-91522500D01*
X205479290Y-91536958D01*
X205477166Y-91551276D01*
X205473649Y-91565317D01*
X205468772Y-91578946D01*
X205462583Y-91592031D01*
X205455142Y-91604447D01*
X205446519Y-91616073D01*
X205436798Y-91626798D01*
X205426073Y-91636519D01*
X205414447Y-91645142D01*
X205402031Y-91652583D01*
X205388946Y-91658772D01*
X205375317Y-91663649D01*
X205361276Y-91667166D01*
X205346958Y-91669290D01*
X205332500Y-91670000D01*
X205037500Y-91670000D01*
X205023042Y-91669290D01*
X205008724Y-91667166D01*
X204994683Y-91663649D01*
X204981054Y-91658772D01*
X204967969Y-91652583D01*
X204955553Y-91645142D01*
X204943927Y-91636519D01*
X204933202Y-91626798D01*
X204923481Y-91616073D01*
X204914858Y-91604447D01*
X204907417Y-91592031D01*
X204901228Y-91578946D01*
X204896351Y-91565317D01*
X204892834Y-91551276D01*
X204890710Y-91536958D01*
X204890000Y-91522500D01*
X204890000Y-91177500D01*
X204890710Y-91163042D01*
X204892834Y-91148724D01*
X204896351Y-91134683D01*
X204901228Y-91121054D01*
X204907417Y-91107969D01*
X204914858Y-91095553D01*
X204923481Y-91083927D01*
X204933202Y-91073202D01*
X204943927Y-91063481D01*
X204955553Y-91054858D01*
X204967969Y-91047417D01*
X204981054Y-91041228D01*
X204994683Y-91036351D01*
X205008724Y-91032834D01*
X205023042Y-91030710D01*
X205037500Y-91030000D01*
X205332500Y-91030000D01*
X205346958Y-91030710D01*
G37*
G36*
X223882252Y-99950602D02*
G01*
X223894386Y-99952402D01*
X223906286Y-99955382D01*
X223917835Y-99959515D01*
X223928925Y-99964760D01*
X223939446Y-99971066D01*
X223949299Y-99978374D01*
X223958388Y-99986612D01*
X223966626Y-99995701D01*
X223973934Y-100005554D01*
X223980240Y-100016075D01*
X223985485Y-100027165D01*
X223989618Y-100038714D01*
X223992598Y-100050614D01*
X223994398Y-100062748D01*
X223995000Y-100075000D01*
X223995000Y-100600000D01*
X223994398Y-100612252D01*
X223992598Y-100624386D01*
X223989618Y-100636286D01*
X223985485Y-100647835D01*
X223980240Y-100658925D01*
X223973934Y-100669446D01*
X223966626Y-100679299D01*
X223958388Y-100688388D01*
X223949299Y-100696626D01*
X223939446Y-100703934D01*
X223928925Y-100710240D01*
X223917835Y-100715485D01*
X223906286Y-100719618D01*
X223894386Y-100722598D01*
X223882252Y-100724398D01*
X223870000Y-100725000D01*
X223620000Y-100725000D01*
X223607748Y-100724398D01*
X223595614Y-100722598D01*
X223583714Y-100719618D01*
X223572165Y-100715485D01*
X223561075Y-100710240D01*
X223550554Y-100703934D01*
X223540701Y-100696626D01*
X223531612Y-100688388D01*
X223523374Y-100679299D01*
X223516066Y-100669446D01*
X223509760Y-100658925D01*
X223504515Y-100647835D01*
X223500382Y-100636286D01*
X223497402Y-100624386D01*
X223495602Y-100612252D01*
X223495000Y-100600000D01*
X223495000Y-100075000D01*
X223495602Y-100062748D01*
X223497402Y-100050614D01*
X223500382Y-100038714D01*
X223504515Y-100027165D01*
X223509760Y-100016075D01*
X223516066Y-100005554D01*
X223523374Y-99995701D01*
X223531612Y-99986612D01*
X223540701Y-99978374D01*
X223550554Y-99971066D01*
X223561075Y-99964760D01*
X223572165Y-99959515D01*
X223583714Y-99955382D01*
X223595614Y-99952402D01*
X223607748Y-99950602D01*
X223620000Y-99950000D01*
X223870000Y-99950000D01*
X223882252Y-99950602D01*
G37*
G36*
X225152252Y-99950602D02*
G01*
X225164386Y-99952402D01*
X225176286Y-99955382D01*
X225187835Y-99959515D01*
X225198925Y-99964760D01*
X225209446Y-99971066D01*
X225219299Y-99978374D01*
X225228388Y-99986612D01*
X225236626Y-99995701D01*
X225243934Y-100005554D01*
X225250240Y-100016075D01*
X225255485Y-100027165D01*
X225259618Y-100038714D01*
X225262598Y-100050614D01*
X225264398Y-100062748D01*
X225265000Y-100075000D01*
X225265000Y-100600000D01*
X225264398Y-100612252D01*
X225262598Y-100624386D01*
X225259618Y-100636286D01*
X225255485Y-100647835D01*
X225250240Y-100658925D01*
X225243934Y-100669446D01*
X225236626Y-100679299D01*
X225228388Y-100688388D01*
X225219299Y-100696626D01*
X225209446Y-100703934D01*
X225198925Y-100710240D01*
X225187835Y-100715485D01*
X225176286Y-100719618D01*
X225164386Y-100722598D01*
X225152252Y-100724398D01*
X225140000Y-100725000D01*
X224890000Y-100725000D01*
X224877748Y-100724398D01*
X224865614Y-100722598D01*
X224853714Y-100719618D01*
X224842165Y-100715485D01*
X224831075Y-100710240D01*
X224820554Y-100703934D01*
X224810701Y-100696626D01*
X224801612Y-100688388D01*
X224793374Y-100679299D01*
X224786066Y-100669446D01*
X224779760Y-100658925D01*
X224774515Y-100647835D01*
X224770382Y-100636286D01*
X224767402Y-100624386D01*
X224765602Y-100612252D01*
X224765000Y-100600000D01*
X224765000Y-100075000D01*
X224765602Y-100062748D01*
X224767402Y-100050614D01*
X224770382Y-100038714D01*
X224774515Y-100027165D01*
X224779760Y-100016075D01*
X224786066Y-100005554D01*
X224793374Y-99995701D01*
X224801612Y-99986612D01*
X224810701Y-99978374D01*
X224820554Y-99971066D01*
X224831075Y-99964760D01*
X224842165Y-99959515D01*
X224853714Y-99955382D01*
X224865614Y-99952402D01*
X224877748Y-99950602D01*
X224890000Y-99950000D01*
X225140000Y-99950000D01*
X225152252Y-99950602D01*
G37*
G36*
X226422252Y-99950602D02*
G01*
X226434386Y-99952402D01*
X226446286Y-99955382D01*
X226457835Y-99959515D01*
X226468925Y-99964760D01*
X226479446Y-99971066D01*
X226489299Y-99978374D01*
X226498388Y-99986612D01*
X226506626Y-99995701D01*
X226513934Y-100005554D01*
X226520240Y-100016075D01*
X226525485Y-100027165D01*
X226529618Y-100038714D01*
X226532598Y-100050614D01*
X226534398Y-100062748D01*
X226535000Y-100075000D01*
X226535000Y-100600000D01*
X226534398Y-100612252D01*
X226532598Y-100624386D01*
X226529618Y-100636286D01*
X226525485Y-100647835D01*
X226520240Y-100658925D01*
X226513934Y-100669446D01*
X226506626Y-100679299D01*
X226498388Y-100688388D01*
X226489299Y-100696626D01*
X226479446Y-100703934D01*
X226468925Y-100710240D01*
X226457835Y-100715485D01*
X226446286Y-100719618D01*
X226434386Y-100722598D01*
X226422252Y-100724398D01*
X226410000Y-100725000D01*
X226160000Y-100725000D01*
X226147748Y-100724398D01*
X226135614Y-100722598D01*
X226123714Y-100719618D01*
X226112165Y-100715485D01*
X226101075Y-100710240D01*
X226090554Y-100703934D01*
X226080701Y-100696626D01*
X226071612Y-100688388D01*
X226063374Y-100679299D01*
X226056066Y-100669446D01*
X226049760Y-100658925D01*
X226044515Y-100647835D01*
X226040382Y-100636286D01*
X226037402Y-100624386D01*
X226035602Y-100612252D01*
X226035000Y-100600000D01*
X226035000Y-100075000D01*
X226035602Y-100062748D01*
X226037402Y-100050614D01*
X226040382Y-100038714D01*
X226044515Y-100027165D01*
X226049760Y-100016075D01*
X226056066Y-100005554D01*
X226063374Y-99995701D01*
X226071612Y-99986612D01*
X226080701Y-99978374D01*
X226090554Y-99971066D01*
X226101075Y-99964760D01*
X226112165Y-99959515D01*
X226123714Y-99955382D01*
X226135614Y-99952402D01*
X226147748Y-99950602D01*
X226160000Y-99950000D01*
X226410000Y-99950000D01*
X226422252Y-99950602D01*
G37*
G36*
X227692252Y-99950602D02*
G01*
X227704386Y-99952402D01*
X227716286Y-99955382D01*
X227727835Y-99959515D01*
X227738925Y-99964760D01*
X227749446Y-99971066D01*
X227759299Y-99978374D01*
X227768388Y-99986612D01*
X227776626Y-99995701D01*
X227783934Y-100005554D01*
X227790240Y-100016075D01*
X227795485Y-100027165D01*
X227799618Y-100038714D01*
X227802598Y-100050614D01*
X227804398Y-100062748D01*
X227805000Y-100075000D01*
X227805000Y-100600000D01*
X227804398Y-100612252D01*
X227802598Y-100624386D01*
X227799618Y-100636286D01*
X227795485Y-100647835D01*
X227790240Y-100658925D01*
X227783934Y-100669446D01*
X227776626Y-100679299D01*
X227768388Y-100688388D01*
X227759299Y-100696626D01*
X227749446Y-100703934D01*
X227738925Y-100710240D01*
X227727835Y-100715485D01*
X227716286Y-100719618D01*
X227704386Y-100722598D01*
X227692252Y-100724398D01*
X227680000Y-100725000D01*
X227430000Y-100725000D01*
X227417748Y-100724398D01*
X227405614Y-100722598D01*
X227393714Y-100719618D01*
X227382165Y-100715485D01*
X227371075Y-100710240D01*
X227360554Y-100703934D01*
X227350701Y-100696626D01*
X227341612Y-100688388D01*
X227333374Y-100679299D01*
X227326066Y-100669446D01*
X227319760Y-100658925D01*
X227314515Y-100647835D01*
X227310382Y-100636286D01*
X227307402Y-100624386D01*
X227305602Y-100612252D01*
X227305000Y-100600000D01*
X227305000Y-100075000D01*
X227305602Y-100062748D01*
X227307402Y-100050614D01*
X227310382Y-100038714D01*
X227314515Y-100027165D01*
X227319760Y-100016075D01*
X227326066Y-100005554D01*
X227333374Y-99995701D01*
X227341612Y-99986612D01*
X227350701Y-99978374D01*
X227360554Y-99971066D01*
X227371075Y-99964760D01*
X227382165Y-99959515D01*
X227393714Y-99955382D01*
X227405614Y-99952402D01*
X227417748Y-99950602D01*
X227430000Y-99950000D01*
X227680000Y-99950000D01*
X227692252Y-99950602D01*
G37*
G36*
X227692252Y-105275602D02*
G01*
X227704386Y-105277402D01*
X227716286Y-105280382D01*
X227727835Y-105284515D01*
X227738925Y-105289760D01*
X227749446Y-105296066D01*
X227759299Y-105303374D01*
X227768388Y-105311612D01*
X227776626Y-105320701D01*
X227783934Y-105330554D01*
X227790240Y-105341075D01*
X227795485Y-105352165D01*
X227799618Y-105363714D01*
X227802598Y-105375614D01*
X227804398Y-105387748D01*
X227805000Y-105400000D01*
X227805000Y-105925000D01*
X227804398Y-105937252D01*
X227802598Y-105949386D01*
X227799618Y-105961286D01*
X227795485Y-105972835D01*
X227790240Y-105983925D01*
X227783934Y-105994446D01*
X227776626Y-106004299D01*
X227768388Y-106013388D01*
X227759299Y-106021626D01*
X227749446Y-106028934D01*
X227738925Y-106035240D01*
X227727835Y-106040485D01*
X227716286Y-106044618D01*
X227704386Y-106047598D01*
X227692252Y-106049398D01*
X227680000Y-106050000D01*
X227430000Y-106050000D01*
X227417748Y-106049398D01*
X227405614Y-106047598D01*
X227393714Y-106044618D01*
X227382165Y-106040485D01*
X227371075Y-106035240D01*
X227360554Y-106028934D01*
X227350701Y-106021626D01*
X227341612Y-106013388D01*
X227333374Y-106004299D01*
X227326066Y-105994446D01*
X227319760Y-105983925D01*
X227314515Y-105972835D01*
X227310382Y-105961286D01*
X227307402Y-105949386D01*
X227305602Y-105937252D01*
X227305000Y-105925000D01*
X227305000Y-105400000D01*
X227305602Y-105387748D01*
X227307402Y-105375614D01*
X227310382Y-105363714D01*
X227314515Y-105352165D01*
X227319760Y-105341075D01*
X227326066Y-105330554D01*
X227333374Y-105320701D01*
X227341612Y-105311612D01*
X227350701Y-105303374D01*
X227360554Y-105296066D01*
X227371075Y-105289760D01*
X227382165Y-105284515D01*
X227393714Y-105280382D01*
X227405614Y-105277402D01*
X227417748Y-105275602D01*
X227430000Y-105275000D01*
X227680000Y-105275000D01*
X227692252Y-105275602D01*
G37*
G36*
X226422252Y-105275602D02*
G01*
X226434386Y-105277402D01*
X226446286Y-105280382D01*
X226457835Y-105284515D01*
X226468925Y-105289760D01*
X226479446Y-105296066D01*
X226489299Y-105303374D01*
X226498388Y-105311612D01*
X226506626Y-105320701D01*
X226513934Y-105330554D01*
X226520240Y-105341075D01*
X226525485Y-105352165D01*
X226529618Y-105363714D01*
X226532598Y-105375614D01*
X226534398Y-105387748D01*
X226535000Y-105400000D01*
X226535000Y-105925000D01*
X226534398Y-105937252D01*
X226532598Y-105949386D01*
X226529618Y-105961286D01*
X226525485Y-105972835D01*
X226520240Y-105983925D01*
X226513934Y-105994446D01*
X226506626Y-106004299D01*
X226498388Y-106013388D01*
X226489299Y-106021626D01*
X226479446Y-106028934D01*
X226468925Y-106035240D01*
X226457835Y-106040485D01*
X226446286Y-106044618D01*
X226434386Y-106047598D01*
X226422252Y-106049398D01*
X226410000Y-106050000D01*
X226160000Y-106050000D01*
X226147748Y-106049398D01*
X226135614Y-106047598D01*
X226123714Y-106044618D01*
X226112165Y-106040485D01*
X226101075Y-106035240D01*
X226090554Y-106028934D01*
X226080701Y-106021626D01*
X226071612Y-106013388D01*
X226063374Y-106004299D01*
X226056066Y-105994446D01*
X226049760Y-105983925D01*
X226044515Y-105972835D01*
X226040382Y-105961286D01*
X226037402Y-105949386D01*
X226035602Y-105937252D01*
X226035000Y-105925000D01*
X226035000Y-105400000D01*
X226035602Y-105387748D01*
X226037402Y-105375614D01*
X226040382Y-105363714D01*
X226044515Y-105352165D01*
X226049760Y-105341075D01*
X226056066Y-105330554D01*
X226063374Y-105320701D01*
X226071612Y-105311612D01*
X226080701Y-105303374D01*
X226090554Y-105296066D01*
X226101075Y-105289760D01*
X226112165Y-105284515D01*
X226123714Y-105280382D01*
X226135614Y-105277402D01*
X226147748Y-105275602D01*
X226160000Y-105275000D01*
X226410000Y-105275000D01*
X226422252Y-105275602D01*
G37*
G36*
X225152252Y-105275602D02*
G01*
X225164386Y-105277402D01*
X225176286Y-105280382D01*
X225187835Y-105284515D01*
X225198925Y-105289760D01*
X225209446Y-105296066D01*
X225219299Y-105303374D01*
X225228388Y-105311612D01*
X225236626Y-105320701D01*
X225243934Y-105330554D01*
X225250240Y-105341075D01*
X225255485Y-105352165D01*
X225259618Y-105363714D01*
X225262598Y-105375614D01*
X225264398Y-105387748D01*
X225265000Y-105400000D01*
X225265000Y-105925000D01*
X225264398Y-105937252D01*
X225262598Y-105949386D01*
X225259618Y-105961286D01*
X225255485Y-105972835D01*
X225250240Y-105983925D01*
X225243934Y-105994446D01*
X225236626Y-106004299D01*
X225228388Y-106013388D01*
X225219299Y-106021626D01*
X225209446Y-106028934D01*
X225198925Y-106035240D01*
X225187835Y-106040485D01*
X225176286Y-106044618D01*
X225164386Y-106047598D01*
X225152252Y-106049398D01*
X225140000Y-106050000D01*
X224890000Y-106050000D01*
X224877748Y-106049398D01*
X224865614Y-106047598D01*
X224853714Y-106044618D01*
X224842165Y-106040485D01*
X224831075Y-106035240D01*
X224820554Y-106028934D01*
X224810701Y-106021626D01*
X224801612Y-106013388D01*
X224793374Y-106004299D01*
X224786066Y-105994446D01*
X224779760Y-105983925D01*
X224774515Y-105972835D01*
X224770382Y-105961286D01*
X224767402Y-105949386D01*
X224765602Y-105937252D01*
X224765000Y-105925000D01*
X224765000Y-105400000D01*
X224765602Y-105387748D01*
X224767402Y-105375614D01*
X224770382Y-105363714D01*
X224774515Y-105352165D01*
X224779760Y-105341075D01*
X224786066Y-105330554D01*
X224793374Y-105320701D01*
X224801612Y-105311612D01*
X224810701Y-105303374D01*
X224820554Y-105296066D01*
X224831075Y-105289760D01*
X224842165Y-105284515D01*
X224853714Y-105280382D01*
X224865614Y-105277402D01*
X224877748Y-105275602D01*
X224890000Y-105275000D01*
X225140000Y-105275000D01*
X225152252Y-105275602D01*
G37*
G36*
X223882252Y-105275602D02*
G01*
X223894386Y-105277402D01*
X223906286Y-105280382D01*
X223917835Y-105284515D01*
X223928925Y-105289760D01*
X223939446Y-105296066D01*
X223949299Y-105303374D01*
X223958388Y-105311612D01*
X223966626Y-105320701D01*
X223973934Y-105330554D01*
X223980240Y-105341075D01*
X223985485Y-105352165D01*
X223989618Y-105363714D01*
X223992598Y-105375614D01*
X223994398Y-105387748D01*
X223995000Y-105400000D01*
X223995000Y-105925000D01*
X223994398Y-105937252D01*
X223992598Y-105949386D01*
X223989618Y-105961286D01*
X223985485Y-105972835D01*
X223980240Y-105983925D01*
X223973934Y-105994446D01*
X223966626Y-106004299D01*
X223958388Y-106013388D01*
X223949299Y-106021626D01*
X223939446Y-106028934D01*
X223928925Y-106035240D01*
X223917835Y-106040485D01*
X223906286Y-106044618D01*
X223894386Y-106047598D01*
X223882252Y-106049398D01*
X223870000Y-106050000D01*
X223620000Y-106050000D01*
X223607748Y-106049398D01*
X223595614Y-106047598D01*
X223583714Y-106044618D01*
X223572165Y-106040485D01*
X223561075Y-106035240D01*
X223550554Y-106028934D01*
X223540701Y-106021626D01*
X223531612Y-106013388D01*
X223523374Y-106004299D01*
X223516066Y-105994446D01*
X223509760Y-105983925D01*
X223504515Y-105972835D01*
X223500382Y-105961286D01*
X223497402Y-105949386D01*
X223495602Y-105937252D01*
X223495000Y-105925000D01*
X223495000Y-105400000D01*
X223495602Y-105387748D01*
X223497402Y-105375614D01*
X223500382Y-105363714D01*
X223504515Y-105352165D01*
X223509760Y-105341075D01*
X223516066Y-105330554D01*
X223523374Y-105320701D01*
X223531612Y-105311612D01*
X223540701Y-105303374D01*
X223550554Y-105296066D01*
X223561075Y-105289760D01*
X223572165Y-105284515D01*
X223583714Y-105280382D01*
X223595614Y-105277402D01*
X223607748Y-105275602D01*
X223620000Y-105275000D01*
X223870000Y-105275000D01*
X223882252Y-105275602D01*
G37*
G36*
X227229504Y-101466204D02*
G01*
X227253773Y-101469804D01*
X227277571Y-101475765D01*
X227300671Y-101484030D01*
X227322849Y-101494520D01*
X227343893Y-101507133D01*
X227363598Y-101521747D01*
X227381777Y-101538223D01*
X227398253Y-101556402D01*
X227412867Y-101576107D01*
X227425480Y-101597151D01*
X227435970Y-101619329D01*
X227444235Y-101642429D01*
X227450196Y-101666227D01*
X227453796Y-101690496D01*
X227455000Y-101715000D01*
X227455000Y-102585000D01*
X227453796Y-102609504D01*
X227450196Y-102633773D01*
X227444235Y-102657571D01*
X227435970Y-102680671D01*
X227425480Y-102702849D01*
X227412867Y-102723893D01*
X227398253Y-102743598D01*
X227381777Y-102761777D01*
X227363598Y-102778253D01*
X227343893Y-102792867D01*
X227322849Y-102805480D01*
X227300671Y-102815970D01*
X227277571Y-102824235D01*
X227253773Y-102830196D01*
X227229504Y-102833796D01*
X227205000Y-102835000D01*
X226095000Y-102835000D01*
X226070496Y-102833796D01*
X226046227Y-102830196D01*
X226022429Y-102824235D01*
X225999329Y-102815970D01*
X225977151Y-102805480D01*
X225956107Y-102792867D01*
X225936402Y-102778253D01*
X225918223Y-102761777D01*
X225901747Y-102743598D01*
X225887133Y-102723893D01*
X225874520Y-102702849D01*
X225864030Y-102680671D01*
X225855765Y-102657571D01*
X225849804Y-102633773D01*
X225846204Y-102609504D01*
X225845000Y-102585000D01*
X225845000Y-101715000D01*
X225846204Y-101690496D01*
X225849804Y-101666227D01*
X225855765Y-101642429D01*
X225864030Y-101619329D01*
X225874520Y-101597151D01*
X225887133Y-101576107D01*
X225901747Y-101556402D01*
X225918223Y-101538223D01*
X225936402Y-101521747D01*
X225956107Y-101507133D01*
X225977151Y-101494520D01*
X225999329Y-101484030D01*
X226022429Y-101475765D01*
X226046227Y-101469804D01*
X226070496Y-101466204D01*
X226095000Y-101465000D01*
X227205000Y-101465000D01*
X227229504Y-101466204D01*
G37*
G36*
X225229504Y-101466204D02*
G01*
X225253773Y-101469804D01*
X225277571Y-101475765D01*
X225300671Y-101484030D01*
X225322849Y-101494520D01*
X225343893Y-101507133D01*
X225363598Y-101521747D01*
X225381777Y-101538223D01*
X225398253Y-101556402D01*
X225412867Y-101576107D01*
X225425480Y-101597151D01*
X225435970Y-101619329D01*
X225444235Y-101642429D01*
X225450196Y-101666227D01*
X225453796Y-101690496D01*
X225455000Y-101715000D01*
X225455000Y-102585000D01*
X225453796Y-102609504D01*
X225450196Y-102633773D01*
X225444235Y-102657571D01*
X225435970Y-102680671D01*
X225425480Y-102702849D01*
X225412867Y-102723893D01*
X225398253Y-102743598D01*
X225381777Y-102761777D01*
X225363598Y-102778253D01*
X225343893Y-102792867D01*
X225322849Y-102805480D01*
X225300671Y-102815970D01*
X225277571Y-102824235D01*
X225253773Y-102830196D01*
X225229504Y-102833796D01*
X225205000Y-102835000D01*
X224095000Y-102835000D01*
X224070496Y-102833796D01*
X224046227Y-102830196D01*
X224022429Y-102824235D01*
X223999329Y-102815970D01*
X223977151Y-102805480D01*
X223956107Y-102792867D01*
X223936402Y-102778253D01*
X223918223Y-102761777D01*
X223901747Y-102743598D01*
X223887133Y-102723893D01*
X223874520Y-102702849D01*
X223864030Y-102680671D01*
X223855765Y-102657571D01*
X223849804Y-102633773D01*
X223846204Y-102609504D01*
X223845000Y-102585000D01*
X223845000Y-101715000D01*
X223846204Y-101690496D01*
X223849804Y-101666227D01*
X223855765Y-101642429D01*
X223864030Y-101619329D01*
X223874520Y-101597151D01*
X223887133Y-101576107D01*
X223901747Y-101556402D01*
X223918223Y-101538223D01*
X223936402Y-101521747D01*
X223956107Y-101507133D01*
X223977151Y-101494520D01*
X223999329Y-101484030D01*
X224022429Y-101475765D01*
X224046227Y-101469804D01*
X224070496Y-101466204D01*
X224095000Y-101465000D01*
X225205000Y-101465000D01*
X225229504Y-101466204D01*
G37*
G36*
X227229504Y-103166204D02*
G01*
X227253773Y-103169804D01*
X227277571Y-103175765D01*
X227300671Y-103184030D01*
X227322849Y-103194520D01*
X227343893Y-103207133D01*
X227363598Y-103221747D01*
X227381777Y-103238223D01*
X227398253Y-103256402D01*
X227412867Y-103276107D01*
X227425480Y-103297151D01*
X227435970Y-103319329D01*
X227444235Y-103342429D01*
X227450196Y-103366227D01*
X227453796Y-103390496D01*
X227455000Y-103415000D01*
X227455000Y-104285000D01*
X227453796Y-104309504D01*
X227450196Y-104333773D01*
X227444235Y-104357571D01*
X227435970Y-104380671D01*
X227425480Y-104402849D01*
X227412867Y-104423893D01*
X227398253Y-104443598D01*
X227381777Y-104461777D01*
X227363598Y-104478253D01*
X227343893Y-104492867D01*
X227322849Y-104505480D01*
X227300671Y-104515970D01*
X227277571Y-104524235D01*
X227253773Y-104530196D01*
X227229504Y-104533796D01*
X227205000Y-104535000D01*
X226095000Y-104535000D01*
X226070496Y-104533796D01*
X226046227Y-104530196D01*
X226022429Y-104524235D01*
X225999329Y-104515970D01*
X225977151Y-104505480D01*
X225956107Y-104492867D01*
X225936402Y-104478253D01*
X225918223Y-104461777D01*
X225901747Y-104443598D01*
X225887133Y-104423893D01*
X225874520Y-104402849D01*
X225864030Y-104380671D01*
X225855765Y-104357571D01*
X225849804Y-104333773D01*
X225846204Y-104309504D01*
X225845000Y-104285000D01*
X225845000Y-103415000D01*
X225846204Y-103390496D01*
X225849804Y-103366227D01*
X225855765Y-103342429D01*
X225864030Y-103319329D01*
X225874520Y-103297151D01*
X225887133Y-103276107D01*
X225901747Y-103256402D01*
X225918223Y-103238223D01*
X225936402Y-103221747D01*
X225956107Y-103207133D01*
X225977151Y-103194520D01*
X225999329Y-103184030D01*
X226022429Y-103175765D01*
X226046227Y-103169804D01*
X226070496Y-103166204D01*
X226095000Y-103165000D01*
X227205000Y-103165000D01*
X227229504Y-103166204D01*
G37*
G36*
X225229504Y-103166204D02*
G01*
X225253773Y-103169804D01*
X225277571Y-103175765D01*
X225300671Y-103184030D01*
X225322849Y-103194520D01*
X225343893Y-103207133D01*
X225363598Y-103221747D01*
X225381777Y-103238223D01*
X225398253Y-103256402D01*
X225412867Y-103276107D01*
X225425480Y-103297151D01*
X225435970Y-103319329D01*
X225444235Y-103342429D01*
X225450196Y-103366227D01*
X225453796Y-103390496D01*
X225455000Y-103415000D01*
X225455000Y-104285000D01*
X225453796Y-104309504D01*
X225450196Y-104333773D01*
X225444235Y-104357571D01*
X225435970Y-104380671D01*
X225425480Y-104402849D01*
X225412867Y-104423893D01*
X225398253Y-104443598D01*
X225381777Y-104461777D01*
X225363598Y-104478253D01*
X225343893Y-104492867D01*
X225322849Y-104505480D01*
X225300671Y-104515970D01*
X225277571Y-104524235D01*
X225253773Y-104530196D01*
X225229504Y-104533796D01*
X225205000Y-104535000D01*
X224095000Y-104535000D01*
X224070496Y-104533796D01*
X224046227Y-104530196D01*
X224022429Y-104524235D01*
X223999329Y-104515970D01*
X223977151Y-104505480D01*
X223956107Y-104492867D01*
X223936402Y-104478253D01*
X223918223Y-104461777D01*
X223901747Y-104443598D01*
X223887133Y-104423893D01*
X223874520Y-104402849D01*
X223864030Y-104380671D01*
X223855765Y-104357571D01*
X223849804Y-104333773D01*
X223846204Y-104309504D01*
X223845000Y-104285000D01*
X223845000Y-103415000D01*
X223846204Y-103390496D01*
X223849804Y-103366227D01*
X223855765Y-103342429D01*
X223864030Y-103319329D01*
X223874520Y-103297151D01*
X223887133Y-103276107D01*
X223901747Y-103256402D01*
X223918223Y-103238223D01*
X223936402Y-103221747D01*
X223956107Y-103207133D01*
X223977151Y-103194520D01*
X223999329Y-103184030D01*
X224022429Y-103175765D01*
X224046227Y-103169804D01*
X224070496Y-103166204D01*
X224095000Y-103165000D01*
X225205000Y-103165000D01*
X225229504Y-103166204D01*
G37*
G36*
X238896958Y-92855710D02*
G01*
X238911276Y-92857834D01*
X238925317Y-92861351D01*
X238938946Y-92866228D01*
X238952031Y-92872417D01*
X238964447Y-92879858D01*
X238976073Y-92888481D01*
X238986798Y-92898202D01*
X238996519Y-92908927D01*
X239005142Y-92920553D01*
X239012583Y-92932969D01*
X239018772Y-92946054D01*
X239023649Y-92959683D01*
X239027166Y-92973724D01*
X239029290Y-92988042D01*
X239030000Y-93002500D01*
X239030000Y-93347500D01*
X239029290Y-93361958D01*
X239027166Y-93376276D01*
X239023649Y-93390317D01*
X239018772Y-93403946D01*
X239012583Y-93417031D01*
X239005142Y-93429447D01*
X238996519Y-93441073D01*
X238986798Y-93451798D01*
X238976073Y-93461519D01*
X238964447Y-93470142D01*
X238952031Y-93477583D01*
X238938946Y-93483772D01*
X238925317Y-93488649D01*
X238911276Y-93492166D01*
X238896958Y-93494290D01*
X238882500Y-93495000D01*
X238587500Y-93495000D01*
X238573042Y-93494290D01*
X238558724Y-93492166D01*
X238544683Y-93488649D01*
X238531054Y-93483772D01*
X238517969Y-93477583D01*
X238505553Y-93470142D01*
X238493927Y-93461519D01*
X238483202Y-93451798D01*
X238473481Y-93441073D01*
X238464858Y-93429447D01*
X238457417Y-93417031D01*
X238451228Y-93403946D01*
X238446351Y-93390317D01*
X238442834Y-93376276D01*
X238440710Y-93361958D01*
X238440000Y-93347500D01*
X238440000Y-93002500D01*
X238440710Y-92988042D01*
X238442834Y-92973724D01*
X238446351Y-92959683D01*
X238451228Y-92946054D01*
X238457417Y-92932969D01*
X238464858Y-92920553D01*
X238473481Y-92908927D01*
X238483202Y-92898202D01*
X238493927Y-92888481D01*
X238505553Y-92879858D01*
X238517969Y-92872417D01*
X238531054Y-92866228D01*
X238544683Y-92861351D01*
X238558724Y-92857834D01*
X238573042Y-92855710D01*
X238587500Y-92855000D01*
X238882500Y-92855000D01*
X238896958Y-92855710D01*
G37*
G36*
X237926958Y-92855710D02*
G01*
X237941276Y-92857834D01*
X237955317Y-92861351D01*
X237968946Y-92866228D01*
X237982031Y-92872417D01*
X237994447Y-92879858D01*
X238006073Y-92888481D01*
X238016798Y-92898202D01*
X238026519Y-92908927D01*
X238035142Y-92920553D01*
X238042583Y-92932969D01*
X238048772Y-92946054D01*
X238053649Y-92959683D01*
X238057166Y-92973724D01*
X238059290Y-92988042D01*
X238060000Y-93002500D01*
X238060000Y-93347500D01*
X238059290Y-93361958D01*
X238057166Y-93376276D01*
X238053649Y-93390317D01*
X238048772Y-93403946D01*
X238042583Y-93417031D01*
X238035142Y-93429447D01*
X238026519Y-93441073D01*
X238016798Y-93451798D01*
X238006073Y-93461519D01*
X237994447Y-93470142D01*
X237982031Y-93477583D01*
X237968946Y-93483772D01*
X237955317Y-93488649D01*
X237941276Y-93492166D01*
X237926958Y-93494290D01*
X237912500Y-93495000D01*
X237617500Y-93495000D01*
X237603042Y-93494290D01*
X237588724Y-93492166D01*
X237574683Y-93488649D01*
X237561054Y-93483772D01*
X237547969Y-93477583D01*
X237535553Y-93470142D01*
X237523927Y-93461519D01*
X237513202Y-93451798D01*
X237503481Y-93441073D01*
X237494858Y-93429447D01*
X237487417Y-93417031D01*
X237481228Y-93403946D01*
X237476351Y-93390317D01*
X237472834Y-93376276D01*
X237470710Y-93361958D01*
X237470000Y-93347500D01*
X237470000Y-93002500D01*
X237470710Y-92988042D01*
X237472834Y-92973724D01*
X237476351Y-92959683D01*
X237481228Y-92946054D01*
X237487417Y-92932969D01*
X237494858Y-92920553D01*
X237503481Y-92908927D01*
X237513202Y-92898202D01*
X237523927Y-92888481D01*
X237535553Y-92879858D01*
X237547969Y-92872417D01*
X237561054Y-92866228D01*
X237574683Y-92861351D01*
X237588724Y-92857834D01*
X237603042Y-92855710D01*
X237617500Y-92855000D01*
X237912500Y-92855000D01*
X237926958Y-92855710D01*
G37*
G36*
X238896958Y-94755710D02*
G01*
X238911276Y-94757834D01*
X238925317Y-94761351D01*
X238938946Y-94766228D01*
X238952031Y-94772417D01*
X238964447Y-94779858D01*
X238976073Y-94788481D01*
X238986798Y-94798202D01*
X238996519Y-94808927D01*
X239005142Y-94820553D01*
X239012583Y-94832969D01*
X239018772Y-94846054D01*
X239023649Y-94859683D01*
X239027166Y-94873724D01*
X239029290Y-94888042D01*
X239030000Y-94902500D01*
X239030000Y-95247500D01*
X239029290Y-95261958D01*
X239027166Y-95276276D01*
X239023649Y-95290317D01*
X239018772Y-95303946D01*
X239012583Y-95317031D01*
X239005142Y-95329447D01*
X238996519Y-95341073D01*
X238986798Y-95351798D01*
X238976073Y-95361519D01*
X238964447Y-95370142D01*
X238952031Y-95377583D01*
X238938946Y-95383772D01*
X238925317Y-95388649D01*
X238911276Y-95392166D01*
X238896958Y-95394290D01*
X238882500Y-95395000D01*
X238587500Y-95395000D01*
X238573042Y-95394290D01*
X238558724Y-95392166D01*
X238544683Y-95388649D01*
X238531054Y-95383772D01*
X238517969Y-95377583D01*
X238505553Y-95370142D01*
X238493927Y-95361519D01*
X238483202Y-95351798D01*
X238473481Y-95341073D01*
X238464858Y-95329447D01*
X238457417Y-95317031D01*
X238451228Y-95303946D01*
X238446351Y-95290317D01*
X238442834Y-95276276D01*
X238440710Y-95261958D01*
X238440000Y-95247500D01*
X238440000Y-94902500D01*
X238440710Y-94888042D01*
X238442834Y-94873724D01*
X238446351Y-94859683D01*
X238451228Y-94846054D01*
X238457417Y-94832969D01*
X238464858Y-94820553D01*
X238473481Y-94808927D01*
X238483202Y-94798202D01*
X238493927Y-94788481D01*
X238505553Y-94779858D01*
X238517969Y-94772417D01*
X238531054Y-94766228D01*
X238544683Y-94761351D01*
X238558724Y-94757834D01*
X238573042Y-94755710D01*
X238587500Y-94755000D01*
X238882500Y-94755000D01*
X238896958Y-94755710D01*
G37*
G36*
X237926958Y-94755710D02*
G01*
X237941276Y-94757834D01*
X237955317Y-94761351D01*
X237968946Y-94766228D01*
X237982031Y-94772417D01*
X237994447Y-94779858D01*
X238006073Y-94788481D01*
X238016798Y-94798202D01*
X238026519Y-94808927D01*
X238035142Y-94820553D01*
X238042583Y-94832969D01*
X238048772Y-94846054D01*
X238053649Y-94859683D01*
X238057166Y-94873724D01*
X238059290Y-94888042D01*
X238060000Y-94902500D01*
X238060000Y-95247500D01*
X238059290Y-95261958D01*
X238057166Y-95276276D01*
X238053649Y-95290317D01*
X238048772Y-95303946D01*
X238042583Y-95317031D01*
X238035142Y-95329447D01*
X238026519Y-95341073D01*
X238016798Y-95351798D01*
X238006073Y-95361519D01*
X237994447Y-95370142D01*
X237982031Y-95377583D01*
X237968946Y-95383772D01*
X237955317Y-95388649D01*
X237941276Y-95392166D01*
X237926958Y-95394290D01*
X237912500Y-95395000D01*
X237617500Y-95395000D01*
X237603042Y-95394290D01*
X237588724Y-95392166D01*
X237574683Y-95388649D01*
X237561054Y-95383772D01*
X237547969Y-95377583D01*
X237535553Y-95370142D01*
X237523927Y-95361519D01*
X237513202Y-95351798D01*
X237503481Y-95341073D01*
X237494858Y-95329447D01*
X237487417Y-95317031D01*
X237481228Y-95303946D01*
X237476351Y-95290317D01*
X237472834Y-95276276D01*
X237470710Y-95261958D01*
X237470000Y-95247500D01*
X237470000Y-94902500D01*
X237470710Y-94888042D01*
X237472834Y-94873724D01*
X237476351Y-94859683D01*
X237481228Y-94846054D01*
X237487417Y-94832969D01*
X237494858Y-94820553D01*
X237503481Y-94808927D01*
X237513202Y-94798202D01*
X237523927Y-94788481D01*
X237535553Y-94779858D01*
X237547969Y-94772417D01*
X237561054Y-94766228D01*
X237574683Y-94761351D01*
X237588724Y-94757834D01*
X237603042Y-94755710D01*
X237617500Y-94755000D01*
X237912500Y-94755000D01*
X237926958Y-94755710D01*
G37*
G36*
X238896958Y-96655710D02*
G01*
X238911276Y-96657834D01*
X238925317Y-96661351D01*
X238938946Y-96666228D01*
X238952031Y-96672417D01*
X238964447Y-96679858D01*
X238976073Y-96688481D01*
X238986798Y-96698202D01*
X238996519Y-96708927D01*
X239005142Y-96720553D01*
X239012583Y-96732969D01*
X239018772Y-96746054D01*
X239023649Y-96759683D01*
X239027166Y-96773724D01*
X239029290Y-96788042D01*
X239030000Y-96802500D01*
X239030000Y-97147500D01*
X239029290Y-97161958D01*
X239027166Y-97176276D01*
X239023649Y-97190317D01*
X239018772Y-97203946D01*
X239012583Y-97217031D01*
X239005142Y-97229447D01*
X238996519Y-97241073D01*
X238986798Y-97251798D01*
X238976073Y-97261519D01*
X238964447Y-97270142D01*
X238952031Y-97277583D01*
X238938946Y-97283772D01*
X238925317Y-97288649D01*
X238911276Y-97292166D01*
X238896958Y-97294290D01*
X238882500Y-97295000D01*
X238587500Y-97295000D01*
X238573042Y-97294290D01*
X238558724Y-97292166D01*
X238544683Y-97288649D01*
X238531054Y-97283772D01*
X238517969Y-97277583D01*
X238505553Y-97270142D01*
X238493927Y-97261519D01*
X238483202Y-97251798D01*
X238473481Y-97241073D01*
X238464858Y-97229447D01*
X238457417Y-97217031D01*
X238451228Y-97203946D01*
X238446351Y-97190317D01*
X238442834Y-97176276D01*
X238440710Y-97161958D01*
X238440000Y-97147500D01*
X238440000Y-96802500D01*
X238440710Y-96788042D01*
X238442834Y-96773724D01*
X238446351Y-96759683D01*
X238451228Y-96746054D01*
X238457417Y-96732969D01*
X238464858Y-96720553D01*
X238473481Y-96708927D01*
X238483202Y-96698202D01*
X238493927Y-96688481D01*
X238505553Y-96679858D01*
X238517969Y-96672417D01*
X238531054Y-96666228D01*
X238544683Y-96661351D01*
X238558724Y-96657834D01*
X238573042Y-96655710D01*
X238587500Y-96655000D01*
X238882500Y-96655000D01*
X238896958Y-96655710D01*
G37*
G36*
X237926958Y-96655710D02*
G01*
X237941276Y-96657834D01*
X237955317Y-96661351D01*
X237968946Y-96666228D01*
X237982031Y-96672417D01*
X237994447Y-96679858D01*
X238006073Y-96688481D01*
X238016798Y-96698202D01*
X238026519Y-96708927D01*
X238035142Y-96720553D01*
X238042583Y-96732969D01*
X238048772Y-96746054D01*
X238053649Y-96759683D01*
X238057166Y-96773724D01*
X238059290Y-96788042D01*
X238060000Y-96802500D01*
X238060000Y-97147500D01*
X238059290Y-97161958D01*
X238057166Y-97176276D01*
X238053649Y-97190317D01*
X238048772Y-97203946D01*
X238042583Y-97217031D01*
X238035142Y-97229447D01*
X238026519Y-97241073D01*
X238016798Y-97251798D01*
X238006073Y-97261519D01*
X237994447Y-97270142D01*
X237982031Y-97277583D01*
X237968946Y-97283772D01*
X237955317Y-97288649D01*
X237941276Y-97292166D01*
X237926958Y-97294290D01*
X237912500Y-97295000D01*
X237617500Y-97295000D01*
X237603042Y-97294290D01*
X237588724Y-97292166D01*
X237574683Y-97288649D01*
X237561054Y-97283772D01*
X237547969Y-97277583D01*
X237535553Y-97270142D01*
X237523927Y-97261519D01*
X237513202Y-97251798D01*
X237503481Y-97241073D01*
X237494858Y-97229447D01*
X237487417Y-97217031D01*
X237481228Y-97203946D01*
X237476351Y-97190317D01*
X237472834Y-97176276D01*
X237470710Y-97161958D01*
X237470000Y-97147500D01*
X237470000Y-96802500D01*
X237470710Y-96788042D01*
X237472834Y-96773724D01*
X237476351Y-96759683D01*
X237481228Y-96746054D01*
X237487417Y-96732969D01*
X237494858Y-96720553D01*
X237503481Y-96708927D01*
X237513202Y-96698202D01*
X237523927Y-96688481D01*
X237535553Y-96679858D01*
X237547969Y-96672417D01*
X237561054Y-96666228D01*
X237574683Y-96661351D01*
X237588724Y-96657834D01*
X237603042Y-96655710D01*
X237617500Y-96655000D01*
X237912500Y-96655000D01*
X237926958Y-96655710D01*
G37*
G36*
X238896958Y-98555710D02*
G01*
X238911276Y-98557834D01*
X238925317Y-98561351D01*
X238938946Y-98566228D01*
X238952031Y-98572417D01*
X238964447Y-98579858D01*
X238976073Y-98588481D01*
X238986798Y-98598202D01*
X238996519Y-98608927D01*
X239005142Y-98620553D01*
X239012583Y-98632969D01*
X239018772Y-98646054D01*
X239023649Y-98659683D01*
X239027166Y-98673724D01*
X239029290Y-98688042D01*
X239030000Y-98702500D01*
X239030000Y-99047500D01*
X239029290Y-99061958D01*
X239027166Y-99076276D01*
X239023649Y-99090317D01*
X239018772Y-99103946D01*
X239012583Y-99117031D01*
X239005142Y-99129447D01*
X238996519Y-99141073D01*
X238986798Y-99151798D01*
X238976073Y-99161519D01*
X238964447Y-99170142D01*
X238952031Y-99177583D01*
X238938946Y-99183772D01*
X238925317Y-99188649D01*
X238911276Y-99192166D01*
X238896958Y-99194290D01*
X238882500Y-99195000D01*
X238587500Y-99195000D01*
X238573042Y-99194290D01*
X238558724Y-99192166D01*
X238544683Y-99188649D01*
X238531054Y-99183772D01*
X238517969Y-99177583D01*
X238505553Y-99170142D01*
X238493927Y-99161519D01*
X238483202Y-99151798D01*
X238473481Y-99141073D01*
X238464858Y-99129447D01*
X238457417Y-99117031D01*
X238451228Y-99103946D01*
X238446351Y-99090317D01*
X238442834Y-99076276D01*
X238440710Y-99061958D01*
X238440000Y-99047500D01*
X238440000Y-98702500D01*
X238440710Y-98688042D01*
X238442834Y-98673724D01*
X238446351Y-98659683D01*
X238451228Y-98646054D01*
X238457417Y-98632969D01*
X238464858Y-98620553D01*
X238473481Y-98608927D01*
X238483202Y-98598202D01*
X238493927Y-98588481D01*
X238505553Y-98579858D01*
X238517969Y-98572417D01*
X238531054Y-98566228D01*
X238544683Y-98561351D01*
X238558724Y-98557834D01*
X238573042Y-98555710D01*
X238587500Y-98555000D01*
X238882500Y-98555000D01*
X238896958Y-98555710D01*
G37*
G36*
X237926958Y-98555710D02*
G01*
X237941276Y-98557834D01*
X237955317Y-98561351D01*
X237968946Y-98566228D01*
X237982031Y-98572417D01*
X237994447Y-98579858D01*
X238006073Y-98588481D01*
X238016798Y-98598202D01*
X238026519Y-98608927D01*
X238035142Y-98620553D01*
X238042583Y-98632969D01*
X238048772Y-98646054D01*
X238053649Y-98659683D01*
X238057166Y-98673724D01*
X238059290Y-98688042D01*
X238060000Y-98702500D01*
X238060000Y-99047500D01*
X238059290Y-99061958D01*
X238057166Y-99076276D01*
X238053649Y-99090317D01*
X238048772Y-99103946D01*
X238042583Y-99117031D01*
X238035142Y-99129447D01*
X238026519Y-99141073D01*
X238016798Y-99151798D01*
X238006073Y-99161519D01*
X237994447Y-99170142D01*
X237982031Y-99177583D01*
X237968946Y-99183772D01*
X237955317Y-99188649D01*
X237941276Y-99192166D01*
X237926958Y-99194290D01*
X237912500Y-99195000D01*
X237617500Y-99195000D01*
X237603042Y-99194290D01*
X237588724Y-99192166D01*
X237574683Y-99188649D01*
X237561054Y-99183772D01*
X237547969Y-99177583D01*
X237535553Y-99170142D01*
X237523927Y-99161519D01*
X237513202Y-99151798D01*
X237503481Y-99141073D01*
X237494858Y-99129447D01*
X237487417Y-99117031D01*
X237481228Y-99103946D01*
X237476351Y-99090317D01*
X237472834Y-99076276D01*
X237470710Y-99061958D01*
X237470000Y-99047500D01*
X237470000Y-98702500D01*
X237470710Y-98688042D01*
X237472834Y-98673724D01*
X237476351Y-98659683D01*
X237481228Y-98646054D01*
X237487417Y-98632969D01*
X237494858Y-98620553D01*
X237503481Y-98608927D01*
X237513202Y-98598202D01*
X237523927Y-98588481D01*
X237535553Y-98579858D01*
X237547969Y-98572417D01*
X237561054Y-98566228D01*
X237574683Y-98561351D01*
X237588724Y-98557834D01*
X237603042Y-98555710D01*
X237617500Y-98555000D01*
X237912500Y-98555000D01*
X237926958Y-98555710D01*
G37*
G36*
X237926958Y-93805710D02*
G01*
X237941276Y-93807834D01*
X237955317Y-93811351D01*
X237968946Y-93816228D01*
X237982031Y-93822417D01*
X237994447Y-93829858D01*
X238006073Y-93838481D01*
X238016798Y-93848202D01*
X238026519Y-93858927D01*
X238035142Y-93870553D01*
X238042583Y-93882969D01*
X238048772Y-93896054D01*
X238053649Y-93909683D01*
X238057166Y-93923724D01*
X238059290Y-93938042D01*
X238060000Y-93952500D01*
X238060000Y-94297500D01*
X238059290Y-94311958D01*
X238057166Y-94326276D01*
X238053649Y-94340317D01*
X238048772Y-94353946D01*
X238042583Y-94367031D01*
X238035142Y-94379447D01*
X238026519Y-94391073D01*
X238016798Y-94401798D01*
X238006073Y-94411519D01*
X237994447Y-94420142D01*
X237982031Y-94427583D01*
X237968946Y-94433772D01*
X237955317Y-94438649D01*
X237941276Y-94442166D01*
X237926958Y-94444290D01*
X237912500Y-94445000D01*
X237617500Y-94445000D01*
X237603042Y-94444290D01*
X237588724Y-94442166D01*
X237574683Y-94438649D01*
X237561054Y-94433772D01*
X237547969Y-94427583D01*
X237535553Y-94420142D01*
X237523927Y-94411519D01*
X237513202Y-94401798D01*
X237503481Y-94391073D01*
X237494858Y-94379447D01*
X237487417Y-94367031D01*
X237481228Y-94353946D01*
X237476351Y-94340317D01*
X237472834Y-94326276D01*
X237470710Y-94311958D01*
X237470000Y-94297500D01*
X237470000Y-93952500D01*
X237470710Y-93938042D01*
X237472834Y-93923724D01*
X237476351Y-93909683D01*
X237481228Y-93896054D01*
X237487417Y-93882969D01*
X237494858Y-93870553D01*
X237503481Y-93858927D01*
X237513202Y-93848202D01*
X237523927Y-93838481D01*
X237535553Y-93829858D01*
X237547969Y-93822417D01*
X237561054Y-93816228D01*
X237574683Y-93811351D01*
X237588724Y-93807834D01*
X237603042Y-93805710D01*
X237617500Y-93805000D01*
X237912500Y-93805000D01*
X237926958Y-93805710D01*
G37*
G36*
X238896958Y-93805710D02*
G01*
X238911276Y-93807834D01*
X238925317Y-93811351D01*
X238938946Y-93816228D01*
X238952031Y-93822417D01*
X238964447Y-93829858D01*
X238976073Y-93838481D01*
X238986798Y-93848202D01*
X238996519Y-93858927D01*
X239005142Y-93870553D01*
X239012583Y-93882969D01*
X239018772Y-93896054D01*
X239023649Y-93909683D01*
X239027166Y-93923724D01*
X239029290Y-93938042D01*
X239030000Y-93952500D01*
X239030000Y-94297500D01*
X239029290Y-94311958D01*
X239027166Y-94326276D01*
X239023649Y-94340317D01*
X239018772Y-94353946D01*
X239012583Y-94367031D01*
X239005142Y-94379447D01*
X238996519Y-94391073D01*
X238986798Y-94401798D01*
X238976073Y-94411519D01*
X238964447Y-94420142D01*
X238952031Y-94427583D01*
X238938946Y-94433772D01*
X238925317Y-94438649D01*
X238911276Y-94442166D01*
X238896958Y-94444290D01*
X238882500Y-94445000D01*
X238587500Y-94445000D01*
X238573042Y-94444290D01*
X238558724Y-94442166D01*
X238544683Y-94438649D01*
X238531054Y-94433772D01*
X238517969Y-94427583D01*
X238505553Y-94420142D01*
X238493927Y-94411519D01*
X238483202Y-94401798D01*
X238473481Y-94391073D01*
X238464858Y-94379447D01*
X238457417Y-94367031D01*
X238451228Y-94353946D01*
X238446351Y-94340317D01*
X238442834Y-94326276D01*
X238440710Y-94311958D01*
X238440000Y-94297500D01*
X238440000Y-93952500D01*
X238440710Y-93938042D01*
X238442834Y-93923724D01*
X238446351Y-93909683D01*
X238451228Y-93896054D01*
X238457417Y-93882969D01*
X238464858Y-93870553D01*
X238473481Y-93858927D01*
X238483202Y-93848202D01*
X238493927Y-93838481D01*
X238505553Y-93829858D01*
X238517969Y-93822417D01*
X238531054Y-93816228D01*
X238544683Y-93811351D01*
X238558724Y-93807834D01*
X238573042Y-93805710D01*
X238587500Y-93805000D01*
X238882500Y-93805000D01*
X238896958Y-93805710D01*
G37*
G36*
X237926958Y-95705710D02*
G01*
X237941276Y-95707834D01*
X237955317Y-95711351D01*
X237968946Y-95716228D01*
X237982031Y-95722417D01*
X237994447Y-95729858D01*
X238006073Y-95738481D01*
X238016798Y-95748202D01*
X238026519Y-95758927D01*
X238035142Y-95770553D01*
X238042583Y-95782969D01*
X238048772Y-95796054D01*
X238053649Y-95809683D01*
X238057166Y-95823724D01*
X238059290Y-95838042D01*
X238060000Y-95852500D01*
X238060000Y-96197500D01*
X238059290Y-96211958D01*
X238057166Y-96226276D01*
X238053649Y-96240317D01*
X238048772Y-96253946D01*
X238042583Y-96267031D01*
X238035142Y-96279447D01*
X238026519Y-96291073D01*
X238016798Y-96301798D01*
X238006073Y-96311519D01*
X237994447Y-96320142D01*
X237982031Y-96327583D01*
X237968946Y-96333772D01*
X237955317Y-96338649D01*
X237941276Y-96342166D01*
X237926958Y-96344290D01*
X237912500Y-96345000D01*
X237617500Y-96345000D01*
X237603042Y-96344290D01*
X237588724Y-96342166D01*
X237574683Y-96338649D01*
X237561054Y-96333772D01*
X237547969Y-96327583D01*
X237535553Y-96320142D01*
X237523927Y-96311519D01*
X237513202Y-96301798D01*
X237503481Y-96291073D01*
X237494858Y-96279447D01*
X237487417Y-96267031D01*
X237481228Y-96253946D01*
X237476351Y-96240317D01*
X237472834Y-96226276D01*
X237470710Y-96211958D01*
X237470000Y-96197500D01*
X237470000Y-95852500D01*
X237470710Y-95838042D01*
X237472834Y-95823724D01*
X237476351Y-95809683D01*
X237481228Y-95796054D01*
X237487417Y-95782969D01*
X237494858Y-95770553D01*
X237503481Y-95758927D01*
X237513202Y-95748202D01*
X237523927Y-95738481D01*
X237535553Y-95729858D01*
X237547969Y-95722417D01*
X237561054Y-95716228D01*
X237574683Y-95711351D01*
X237588724Y-95707834D01*
X237603042Y-95705710D01*
X237617500Y-95705000D01*
X237912500Y-95705000D01*
X237926958Y-95705710D01*
G37*
G36*
X238896958Y-95705710D02*
G01*
X238911276Y-95707834D01*
X238925317Y-95711351D01*
X238938946Y-95716228D01*
X238952031Y-95722417D01*
X238964447Y-95729858D01*
X238976073Y-95738481D01*
X238986798Y-95748202D01*
X238996519Y-95758927D01*
X239005142Y-95770553D01*
X239012583Y-95782969D01*
X239018772Y-95796054D01*
X239023649Y-95809683D01*
X239027166Y-95823724D01*
X239029290Y-95838042D01*
X239030000Y-95852500D01*
X239030000Y-96197500D01*
X239029290Y-96211958D01*
X239027166Y-96226276D01*
X239023649Y-96240317D01*
X239018772Y-96253946D01*
X239012583Y-96267031D01*
X239005142Y-96279447D01*
X238996519Y-96291073D01*
X238986798Y-96301798D01*
X238976073Y-96311519D01*
X238964447Y-96320142D01*
X238952031Y-96327583D01*
X238938946Y-96333772D01*
X238925317Y-96338649D01*
X238911276Y-96342166D01*
X238896958Y-96344290D01*
X238882500Y-96345000D01*
X238587500Y-96345000D01*
X238573042Y-96344290D01*
X238558724Y-96342166D01*
X238544683Y-96338649D01*
X238531054Y-96333772D01*
X238517969Y-96327583D01*
X238505553Y-96320142D01*
X238493927Y-96311519D01*
X238483202Y-96301798D01*
X238473481Y-96291073D01*
X238464858Y-96279447D01*
X238457417Y-96267031D01*
X238451228Y-96253946D01*
X238446351Y-96240317D01*
X238442834Y-96226276D01*
X238440710Y-96211958D01*
X238440000Y-96197500D01*
X238440000Y-95852500D01*
X238440710Y-95838042D01*
X238442834Y-95823724D01*
X238446351Y-95809683D01*
X238451228Y-95796054D01*
X238457417Y-95782969D01*
X238464858Y-95770553D01*
X238473481Y-95758927D01*
X238483202Y-95748202D01*
X238493927Y-95738481D01*
X238505553Y-95729858D01*
X238517969Y-95722417D01*
X238531054Y-95716228D01*
X238544683Y-95711351D01*
X238558724Y-95707834D01*
X238573042Y-95705710D01*
X238587500Y-95705000D01*
X238882500Y-95705000D01*
X238896958Y-95705710D01*
G37*
G36*
X237926958Y-97605710D02*
G01*
X237941276Y-97607834D01*
X237955317Y-97611351D01*
X237968946Y-97616228D01*
X237982031Y-97622417D01*
X237994447Y-97629858D01*
X238006073Y-97638481D01*
X238016798Y-97648202D01*
X238026519Y-97658927D01*
X238035142Y-97670553D01*
X238042583Y-97682969D01*
X238048772Y-97696054D01*
X238053649Y-97709683D01*
X238057166Y-97723724D01*
X238059290Y-97738042D01*
X238060000Y-97752500D01*
X238060000Y-98097500D01*
X238059290Y-98111958D01*
X238057166Y-98126276D01*
X238053649Y-98140317D01*
X238048772Y-98153946D01*
X238042583Y-98167031D01*
X238035142Y-98179447D01*
X238026519Y-98191073D01*
X238016798Y-98201798D01*
X238006073Y-98211519D01*
X237994447Y-98220142D01*
X237982031Y-98227583D01*
X237968946Y-98233772D01*
X237955317Y-98238649D01*
X237941276Y-98242166D01*
X237926958Y-98244290D01*
X237912500Y-98245000D01*
X237617500Y-98245000D01*
X237603042Y-98244290D01*
X237588724Y-98242166D01*
X237574683Y-98238649D01*
X237561054Y-98233772D01*
X237547969Y-98227583D01*
X237535553Y-98220142D01*
X237523927Y-98211519D01*
X237513202Y-98201798D01*
X237503481Y-98191073D01*
X237494858Y-98179447D01*
X237487417Y-98167031D01*
X237481228Y-98153946D01*
X237476351Y-98140317D01*
X237472834Y-98126276D01*
X237470710Y-98111958D01*
X237470000Y-98097500D01*
X237470000Y-97752500D01*
X237470710Y-97738042D01*
X237472834Y-97723724D01*
X237476351Y-97709683D01*
X237481228Y-97696054D01*
X237487417Y-97682969D01*
X237494858Y-97670553D01*
X237503481Y-97658927D01*
X237513202Y-97648202D01*
X237523927Y-97638481D01*
X237535553Y-97629858D01*
X237547969Y-97622417D01*
X237561054Y-97616228D01*
X237574683Y-97611351D01*
X237588724Y-97607834D01*
X237603042Y-97605710D01*
X237617500Y-97605000D01*
X237912500Y-97605000D01*
X237926958Y-97605710D01*
G37*
G36*
X238896958Y-97605710D02*
G01*
X238911276Y-97607834D01*
X238925317Y-97611351D01*
X238938946Y-97616228D01*
X238952031Y-97622417D01*
X238964447Y-97629858D01*
X238976073Y-97638481D01*
X238986798Y-97648202D01*
X238996519Y-97658927D01*
X239005142Y-97670553D01*
X239012583Y-97682969D01*
X239018772Y-97696054D01*
X239023649Y-97709683D01*
X239027166Y-97723724D01*
X239029290Y-97738042D01*
X239030000Y-97752500D01*
X239030000Y-98097500D01*
X239029290Y-98111958D01*
X239027166Y-98126276D01*
X239023649Y-98140317D01*
X239018772Y-98153946D01*
X239012583Y-98167031D01*
X239005142Y-98179447D01*
X238996519Y-98191073D01*
X238986798Y-98201798D01*
X238976073Y-98211519D01*
X238964447Y-98220142D01*
X238952031Y-98227583D01*
X238938946Y-98233772D01*
X238925317Y-98238649D01*
X238911276Y-98242166D01*
X238896958Y-98244290D01*
X238882500Y-98245000D01*
X238587500Y-98245000D01*
X238573042Y-98244290D01*
X238558724Y-98242166D01*
X238544683Y-98238649D01*
X238531054Y-98233772D01*
X238517969Y-98227583D01*
X238505553Y-98220142D01*
X238493927Y-98211519D01*
X238483202Y-98201798D01*
X238473481Y-98191073D01*
X238464858Y-98179447D01*
X238457417Y-98167031D01*
X238451228Y-98153946D01*
X238446351Y-98140317D01*
X238442834Y-98126276D01*
X238440710Y-98111958D01*
X238440000Y-98097500D01*
X238440000Y-97752500D01*
X238440710Y-97738042D01*
X238442834Y-97723724D01*
X238446351Y-97709683D01*
X238451228Y-97696054D01*
X238457417Y-97682969D01*
X238464858Y-97670553D01*
X238473481Y-97658927D01*
X238483202Y-97648202D01*
X238493927Y-97638481D01*
X238505553Y-97629858D01*
X238517969Y-97622417D01*
X238531054Y-97616228D01*
X238544683Y-97611351D01*
X238558724Y-97607834D01*
X238573042Y-97605710D01*
X238587500Y-97605000D01*
X238882500Y-97605000D01*
X238896958Y-97605710D01*
G37*
G36*
X237926958Y-99505710D02*
G01*
X237941276Y-99507834D01*
X237955317Y-99511351D01*
X237968946Y-99516228D01*
X237982031Y-99522417D01*
X237994447Y-99529858D01*
X238006073Y-99538481D01*
X238016798Y-99548202D01*
X238026519Y-99558927D01*
X238035142Y-99570553D01*
X238042583Y-99582969D01*
X238048772Y-99596054D01*
X238053649Y-99609683D01*
X238057166Y-99623724D01*
X238059290Y-99638042D01*
X238060000Y-99652500D01*
X238060000Y-99997500D01*
X238059290Y-100011958D01*
X238057166Y-100026276D01*
X238053649Y-100040317D01*
X238048772Y-100053946D01*
X238042583Y-100067031D01*
X238035142Y-100079447D01*
X238026519Y-100091073D01*
X238016798Y-100101798D01*
X238006073Y-100111519D01*
X237994447Y-100120142D01*
X237982031Y-100127583D01*
X237968946Y-100133772D01*
X237955317Y-100138649D01*
X237941276Y-100142166D01*
X237926958Y-100144290D01*
X237912500Y-100145000D01*
X237617500Y-100145000D01*
X237603042Y-100144290D01*
X237588724Y-100142166D01*
X237574683Y-100138649D01*
X237561054Y-100133772D01*
X237547969Y-100127583D01*
X237535553Y-100120142D01*
X237523927Y-100111519D01*
X237513202Y-100101798D01*
X237503481Y-100091073D01*
X237494858Y-100079447D01*
X237487417Y-100067031D01*
X237481228Y-100053946D01*
X237476351Y-100040317D01*
X237472834Y-100026276D01*
X237470710Y-100011958D01*
X237470000Y-99997500D01*
X237470000Y-99652500D01*
X237470710Y-99638042D01*
X237472834Y-99623724D01*
X237476351Y-99609683D01*
X237481228Y-99596054D01*
X237487417Y-99582969D01*
X237494858Y-99570553D01*
X237503481Y-99558927D01*
X237513202Y-99548202D01*
X237523927Y-99538481D01*
X237535553Y-99529858D01*
X237547969Y-99522417D01*
X237561054Y-99516228D01*
X237574683Y-99511351D01*
X237588724Y-99507834D01*
X237603042Y-99505710D01*
X237617500Y-99505000D01*
X237912500Y-99505000D01*
X237926958Y-99505710D01*
G37*
G36*
X238896958Y-99505710D02*
G01*
X238911276Y-99507834D01*
X238925317Y-99511351D01*
X238938946Y-99516228D01*
X238952031Y-99522417D01*
X238964447Y-99529858D01*
X238976073Y-99538481D01*
X238986798Y-99548202D01*
X238996519Y-99558927D01*
X239005142Y-99570553D01*
X239012583Y-99582969D01*
X239018772Y-99596054D01*
X239023649Y-99609683D01*
X239027166Y-99623724D01*
X239029290Y-99638042D01*
X239030000Y-99652500D01*
X239030000Y-99997500D01*
X239029290Y-100011958D01*
X239027166Y-100026276D01*
X239023649Y-100040317D01*
X239018772Y-100053946D01*
X239012583Y-100067031D01*
X239005142Y-100079447D01*
X238996519Y-100091073D01*
X238986798Y-100101798D01*
X238976073Y-100111519D01*
X238964447Y-100120142D01*
X238952031Y-100127583D01*
X238938946Y-100133772D01*
X238925317Y-100138649D01*
X238911276Y-100142166D01*
X238896958Y-100144290D01*
X238882500Y-100145000D01*
X238587500Y-100145000D01*
X238573042Y-100144290D01*
X238558724Y-100142166D01*
X238544683Y-100138649D01*
X238531054Y-100133772D01*
X238517969Y-100127583D01*
X238505553Y-100120142D01*
X238493927Y-100111519D01*
X238483202Y-100101798D01*
X238473481Y-100091073D01*
X238464858Y-100079447D01*
X238457417Y-100067031D01*
X238451228Y-100053946D01*
X238446351Y-100040317D01*
X238442834Y-100026276D01*
X238440710Y-100011958D01*
X238440000Y-99997500D01*
X238440000Y-99652500D01*
X238440710Y-99638042D01*
X238442834Y-99623724D01*
X238446351Y-99609683D01*
X238451228Y-99596054D01*
X238457417Y-99582969D01*
X238464858Y-99570553D01*
X238473481Y-99558927D01*
X238483202Y-99548202D01*
X238493927Y-99538481D01*
X238505553Y-99529858D01*
X238517969Y-99522417D01*
X238531054Y-99516228D01*
X238544683Y-99511351D01*
X238558724Y-99507834D01*
X238573042Y-99505710D01*
X238587500Y-99505000D01*
X238882500Y-99505000D01*
X238896958Y-99505710D01*
G37*
M02*
