G04 #@! TF.GenerationSoftware,KiCad,Pcbnew,5.1.5+dfsg1-2build2*
G04 #@! TF.CreationDate,2020-11-18T17:14:58+00:00*
G04 #@! TF.ProjectId,picodvi,7069636f-6476-4692-9e6b-696361645f70,rev?*
G04 #@! TF.SameCoordinates,Original*
G04 #@! TF.FileFunction,Legend,Bot*
G04 #@! TF.FilePolarity,Positive*
%FSLAX46Y46*%
G04 Gerber Fmt 4.6, Leading zero omitted, Abs format (unit mm)*
G04 Created by KiCad (PCBNEW 5.1.5+dfsg1-2build2) date 2020-11-18 17:14:58*
%MOMM*%
%LPD*%
G04 APERTURE LIST*
%ADD10C,0.120000*%
G04 APERTURE END LIST*
D10*
X237755333Y-114066666D02*
X237755333Y-113366666D01*
X237488666Y-113366666D01*
X237422000Y-113400000D01*
X237388666Y-113433333D01*
X237355333Y-113500000D01*
X237355333Y-113600000D01*
X237388666Y-113666666D01*
X237422000Y-113700000D01*
X237488666Y-113733333D01*
X237755333Y-113733333D01*
X237055333Y-114066666D02*
X237055333Y-113366666D01*
X236822000Y-113866666D01*
X236588666Y-113366666D01*
X236588666Y-114066666D01*
X236122000Y-113366666D02*
X235988666Y-113366666D01*
X235922000Y-113400000D01*
X235855333Y-113466666D01*
X235822000Y-113600000D01*
X235822000Y-113833333D01*
X235855333Y-113966666D01*
X235922000Y-114033333D01*
X235988666Y-114066666D01*
X236122000Y-114066666D01*
X236188666Y-114033333D01*
X236255333Y-113966666D01*
X236288666Y-113833333D01*
X236288666Y-113600000D01*
X236255333Y-113466666D01*
X236188666Y-113400000D01*
X236122000Y-113366666D01*
X235522000Y-114066666D02*
X235522000Y-113366666D01*
X235355333Y-113366666D01*
X235255333Y-113400000D01*
X235188666Y-113466666D01*
X235155333Y-113533333D01*
X235122000Y-113666666D01*
X235122000Y-113766666D01*
X235155333Y-113900000D01*
X235188666Y-113966666D01*
X235255333Y-114033333D01*
X235355333Y-114066666D01*
X235522000Y-114066666D01*
X234688666Y-113366666D02*
X234622000Y-113366666D01*
X234555333Y-113400000D01*
X234522000Y-113433333D01*
X234488666Y-113500000D01*
X234455333Y-113633333D01*
X234455333Y-113800000D01*
X234488666Y-113933333D01*
X234522000Y-114000000D01*
X234555333Y-114033333D01*
X234622000Y-114066666D01*
X234688666Y-114066666D01*
X234755333Y-114033333D01*
X234788666Y-114000000D01*
X234822000Y-113933333D01*
X234855333Y-113800000D01*
X234855333Y-113633333D01*
X234822000Y-113500000D01*
X234788666Y-113433333D01*
X234755333Y-113400000D01*
X234688666Y-113366666D01*
X214505333Y-114066666D02*
X214505333Y-113366666D01*
X214238666Y-113366666D01*
X214172000Y-113400000D01*
X214138666Y-113433333D01*
X214105333Y-113500000D01*
X214105333Y-113600000D01*
X214138666Y-113666666D01*
X214172000Y-113700000D01*
X214238666Y-113733333D01*
X214505333Y-113733333D01*
X213805333Y-114066666D02*
X213805333Y-113366666D01*
X213572000Y-113866666D01*
X213338666Y-113366666D01*
X213338666Y-114066666D01*
X212872000Y-113366666D02*
X212738666Y-113366666D01*
X212672000Y-113400000D01*
X212605333Y-113466666D01*
X212572000Y-113600000D01*
X212572000Y-113833333D01*
X212605333Y-113966666D01*
X212672000Y-114033333D01*
X212738666Y-114066666D01*
X212872000Y-114066666D01*
X212938666Y-114033333D01*
X213005333Y-113966666D01*
X213038666Y-113833333D01*
X213038666Y-113600000D01*
X213005333Y-113466666D01*
X212938666Y-113400000D01*
X212872000Y-113366666D01*
X212272000Y-114066666D02*
X212272000Y-113366666D01*
X212105333Y-113366666D01*
X212005333Y-113400000D01*
X211938666Y-113466666D01*
X211905333Y-113533333D01*
X211872000Y-113666666D01*
X211872000Y-113766666D01*
X211905333Y-113900000D01*
X211938666Y-113966666D01*
X212005333Y-114033333D01*
X212105333Y-114066666D01*
X212272000Y-114066666D01*
X211205333Y-114066666D02*
X211605333Y-114066666D01*
X211405333Y-114066666D02*
X211405333Y-113366666D01*
X211472000Y-113466666D01*
X211538666Y-113533333D01*
X211605333Y-113566666D01*
X225255333Y-92721666D02*
X225255333Y-92021666D01*
X224988666Y-92021666D01*
X224922000Y-92055000D01*
X224888666Y-92088333D01*
X224855333Y-92155000D01*
X224855333Y-92255000D01*
X224888666Y-92321666D01*
X224922000Y-92355000D01*
X224988666Y-92388333D01*
X225255333Y-92388333D01*
X224555333Y-92721666D02*
X224555333Y-92021666D01*
X224322000Y-92521666D01*
X224088666Y-92021666D01*
X224088666Y-92721666D01*
X223622000Y-92021666D02*
X223488666Y-92021666D01*
X223422000Y-92055000D01*
X223355333Y-92121666D01*
X223322000Y-92255000D01*
X223322000Y-92488333D01*
X223355333Y-92621666D01*
X223422000Y-92688333D01*
X223488666Y-92721666D01*
X223622000Y-92721666D01*
X223688666Y-92688333D01*
X223755333Y-92621666D01*
X223788666Y-92488333D01*
X223788666Y-92255000D01*
X223755333Y-92121666D01*
X223688666Y-92055000D01*
X223622000Y-92021666D01*
X223022000Y-92721666D02*
X223022000Y-92021666D01*
X222855333Y-92021666D01*
X222755333Y-92055000D01*
X222688666Y-92121666D01*
X222655333Y-92188333D01*
X222622000Y-92321666D01*
X222622000Y-92421666D01*
X222655333Y-92555000D01*
X222688666Y-92621666D01*
X222755333Y-92688333D01*
X222855333Y-92721666D01*
X223022000Y-92721666D01*
X222188666Y-92021666D02*
X222122000Y-92021666D01*
X222055333Y-92055000D01*
X222022000Y-92088333D01*
X221988666Y-92155000D01*
X221955333Y-92288333D01*
X221955333Y-92455000D01*
X221988666Y-92588333D01*
X222022000Y-92655000D01*
X222055333Y-92688333D01*
X222122000Y-92721666D01*
X222188666Y-92721666D01*
X222255333Y-92688333D01*
X222288666Y-92655000D01*
X222322000Y-92588333D01*
X222355333Y-92455000D01*
X222355333Y-92288333D01*
X222322000Y-92155000D01*
X222288666Y-92088333D01*
X222255333Y-92055000D01*
X222188666Y-92021666D01*
X221655333Y-92655000D02*
X221622000Y-92688333D01*
X221655333Y-92721666D01*
X221688666Y-92688333D01*
X221655333Y-92655000D01*
X221655333Y-92721666D01*
X221655333Y-92288333D02*
X221622000Y-92321666D01*
X221655333Y-92355000D01*
X221688666Y-92321666D01*
X221655333Y-92288333D01*
X221655333Y-92355000D01*
X220422000Y-92055000D02*
X220488666Y-92021666D01*
X220588666Y-92021666D01*
X220688666Y-92055000D01*
X220755333Y-92121666D01*
X220788666Y-92188333D01*
X220822000Y-92321666D01*
X220822000Y-92421666D01*
X220788666Y-92555000D01*
X220755333Y-92621666D01*
X220688666Y-92688333D01*
X220588666Y-92721666D01*
X220522000Y-92721666D01*
X220422000Y-92688333D01*
X220388666Y-92655000D01*
X220388666Y-92421666D01*
X220522000Y-92421666D01*
X220088666Y-92721666D02*
X220088666Y-92021666D01*
X219822000Y-92021666D01*
X219755333Y-92055000D01*
X219722000Y-92088333D01*
X219688666Y-92155000D01*
X219688666Y-92255000D01*
X219722000Y-92321666D01*
X219755333Y-92355000D01*
X219822000Y-92388333D01*
X220088666Y-92388333D01*
X219388666Y-92721666D02*
X219388666Y-92021666D01*
X218922000Y-92021666D02*
X218788666Y-92021666D01*
X218722000Y-92055000D01*
X218655333Y-92121666D01*
X218622000Y-92255000D01*
X218622000Y-92488333D01*
X218655333Y-92621666D01*
X218722000Y-92688333D01*
X218788666Y-92721666D01*
X218922000Y-92721666D01*
X218988666Y-92688333D01*
X219055333Y-92621666D01*
X219088666Y-92488333D01*
X219088666Y-92255000D01*
X219055333Y-92121666D01*
X218988666Y-92055000D01*
X218922000Y-92021666D01*
X218188666Y-92021666D02*
X218122000Y-92021666D01*
X218055333Y-92055000D01*
X218022000Y-92088333D01*
X217988666Y-92155000D01*
X217955333Y-92288333D01*
X217955333Y-92455000D01*
X217988666Y-92588333D01*
X218022000Y-92655000D01*
X218055333Y-92688333D01*
X218122000Y-92721666D01*
X218188666Y-92721666D01*
X218255333Y-92688333D01*
X218288666Y-92655000D01*
X218322000Y-92588333D01*
X218355333Y-92455000D01*
X218355333Y-92288333D01*
X218322000Y-92155000D01*
X218288666Y-92088333D01*
X218255333Y-92055000D01*
X218188666Y-92021666D01*
X217655333Y-92455000D02*
X217122000Y-92455000D01*
X216788666Y-92255000D02*
X216255333Y-92455000D01*
X216788666Y-92655000D01*
X215988666Y-92021666D02*
X215522000Y-92021666D01*
X215822000Y-92721666D01*
X225255333Y-93891666D02*
X225255333Y-93191666D01*
X224988666Y-93191666D01*
X224922000Y-93225000D01*
X224888666Y-93258333D01*
X224855333Y-93325000D01*
X224855333Y-93425000D01*
X224888666Y-93491666D01*
X224922000Y-93525000D01*
X224988666Y-93558333D01*
X225255333Y-93558333D01*
X224555333Y-93891666D02*
X224555333Y-93191666D01*
X224322000Y-93691666D01*
X224088666Y-93191666D01*
X224088666Y-93891666D01*
X223622000Y-93191666D02*
X223488666Y-93191666D01*
X223422000Y-93225000D01*
X223355333Y-93291666D01*
X223322000Y-93425000D01*
X223322000Y-93658333D01*
X223355333Y-93791666D01*
X223422000Y-93858333D01*
X223488666Y-93891666D01*
X223622000Y-93891666D01*
X223688666Y-93858333D01*
X223755333Y-93791666D01*
X223788666Y-93658333D01*
X223788666Y-93425000D01*
X223755333Y-93291666D01*
X223688666Y-93225000D01*
X223622000Y-93191666D01*
X223022000Y-93891666D02*
X223022000Y-93191666D01*
X222855333Y-93191666D01*
X222755333Y-93225000D01*
X222688666Y-93291666D01*
X222655333Y-93358333D01*
X222622000Y-93491666D01*
X222622000Y-93591666D01*
X222655333Y-93725000D01*
X222688666Y-93791666D01*
X222755333Y-93858333D01*
X222855333Y-93891666D01*
X223022000Y-93891666D01*
X221955333Y-93891666D02*
X222355333Y-93891666D01*
X222155333Y-93891666D02*
X222155333Y-93191666D01*
X222222000Y-93291666D01*
X222288666Y-93358333D01*
X222355333Y-93391666D01*
X221655333Y-93825000D02*
X221622000Y-93858333D01*
X221655333Y-93891666D01*
X221688666Y-93858333D01*
X221655333Y-93825000D01*
X221655333Y-93891666D01*
X221655333Y-93458333D02*
X221622000Y-93491666D01*
X221655333Y-93525000D01*
X221688666Y-93491666D01*
X221655333Y-93458333D01*
X221655333Y-93525000D01*
X220422000Y-93225000D02*
X220488666Y-93191666D01*
X220588666Y-93191666D01*
X220688666Y-93225000D01*
X220755333Y-93291666D01*
X220788666Y-93358333D01*
X220822000Y-93491666D01*
X220822000Y-93591666D01*
X220788666Y-93725000D01*
X220755333Y-93791666D01*
X220688666Y-93858333D01*
X220588666Y-93891666D01*
X220522000Y-93891666D01*
X220422000Y-93858333D01*
X220388666Y-93825000D01*
X220388666Y-93591666D01*
X220522000Y-93591666D01*
X220088666Y-93891666D02*
X220088666Y-93191666D01*
X219822000Y-93191666D01*
X219755333Y-93225000D01*
X219722000Y-93258333D01*
X219688666Y-93325000D01*
X219688666Y-93425000D01*
X219722000Y-93491666D01*
X219755333Y-93525000D01*
X219822000Y-93558333D01*
X220088666Y-93558333D01*
X219388666Y-93891666D02*
X219388666Y-93191666D01*
X218922000Y-93191666D02*
X218788666Y-93191666D01*
X218722000Y-93225000D01*
X218655333Y-93291666D01*
X218622000Y-93425000D01*
X218622000Y-93658333D01*
X218655333Y-93791666D01*
X218722000Y-93858333D01*
X218788666Y-93891666D01*
X218922000Y-93891666D01*
X218988666Y-93858333D01*
X219055333Y-93791666D01*
X219088666Y-93658333D01*
X219088666Y-93425000D01*
X219055333Y-93291666D01*
X218988666Y-93225000D01*
X218922000Y-93191666D01*
X218355333Y-93258333D02*
X218322000Y-93225000D01*
X218255333Y-93191666D01*
X218088666Y-93191666D01*
X218022000Y-93225000D01*
X217988666Y-93258333D01*
X217955333Y-93325000D01*
X217955333Y-93391666D01*
X217988666Y-93491666D01*
X218388666Y-93891666D01*
X217955333Y-93891666D01*
X217688666Y-93258333D02*
X217655333Y-93225000D01*
X217588666Y-93191666D01*
X217422000Y-93191666D01*
X217355333Y-93225000D01*
X217322000Y-93258333D01*
X217288666Y-93325000D01*
X217288666Y-93391666D01*
X217322000Y-93491666D01*
X217722000Y-93891666D01*
X217288666Y-93891666D01*
X216988666Y-93625000D02*
X216455333Y-93625000D01*
X216122000Y-93425000D02*
X215588666Y-93625000D01*
X216122000Y-93825000D01*
X215288666Y-93258333D02*
X215255333Y-93225000D01*
X215188666Y-93191666D01*
X215022000Y-93191666D01*
X214955333Y-93225000D01*
X214922000Y-93258333D01*
X214888666Y-93325000D01*
X214888666Y-93391666D01*
X214922000Y-93491666D01*
X215322000Y-93891666D01*
X214888666Y-93891666D01*
X214555333Y-93891666D02*
X214422000Y-93891666D01*
X214355333Y-93858333D01*
X214322000Y-93825000D01*
X214255333Y-93725000D01*
X214222000Y-93591666D01*
X214222000Y-93325000D01*
X214255333Y-93258333D01*
X214288666Y-93225000D01*
X214355333Y-93191666D01*
X214488666Y-93191666D01*
X214555333Y-93225000D01*
X214588666Y-93258333D01*
X214622000Y-93325000D01*
X214622000Y-93491666D01*
X214588666Y-93558333D01*
X214555333Y-93591666D01*
X214488666Y-93625000D01*
X214355333Y-93625000D01*
X214288666Y-93591666D01*
X214255333Y-93558333D01*
X214222000Y-93491666D01*
X213188666Y-94158333D02*
X213222000Y-94125000D01*
X213288666Y-94025000D01*
X213322000Y-93958333D01*
X213355333Y-93858333D01*
X213388666Y-93691666D01*
X213388666Y-93558333D01*
X213355333Y-93391666D01*
X213322000Y-93291666D01*
X213288666Y-93225000D01*
X213222000Y-93125000D01*
X213188666Y-93091666D01*
X212922000Y-93891666D02*
X212922000Y-93425000D01*
X212922000Y-93191666D02*
X212955333Y-93225000D01*
X212922000Y-93258333D01*
X212888666Y-93225000D01*
X212922000Y-93191666D01*
X212922000Y-93258333D01*
X212588666Y-93425000D02*
X212588666Y-93891666D01*
X212588666Y-93491666D02*
X212555333Y-93458333D01*
X212488666Y-93425000D01*
X212388666Y-93425000D01*
X212322000Y-93458333D01*
X212288666Y-93525000D01*
X212288666Y-93891666D01*
X211655333Y-93858333D02*
X211722000Y-93891666D01*
X211855333Y-93891666D01*
X211922000Y-93858333D01*
X211955333Y-93825000D01*
X211988666Y-93758333D01*
X211988666Y-93558333D01*
X211955333Y-93491666D01*
X211922000Y-93458333D01*
X211855333Y-93425000D01*
X211722000Y-93425000D01*
X211655333Y-93458333D01*
X211255333Y-93891666D02*
X211322000Y-93858333D01*
X211355333Y-93791666D01*
X211355333Y-93191666D01*
X210688666Y-93425000D02*
X210688666Y-93891666D01*
X210988666Y-93425000D02*
X210988666Y-93791666D01*
X210955333Y-93858333D01*
X210888666Y-93891666D01*
X210788666Y-93891666D01*
X210722000Y-93858333D01*
X210688666Y-93825000D01*
X210055333Y-93891666D02*
X210055333Y-93191666D01*
X210055333Y-93858333D02*
X210122000Y-93891666D01*
X210255333Y-93891666D01*
X210322000Y-93858333D01*
X210355333Y-93825000D01*
X210388666Y-93758333D01*
X210388666Y-93558333D01*
X210355333Y-93491666D01*
X210322000Y-93458333D01*
X210255333Y-93425000D01*
X210122000Y-93425000D01*
X210055333Y-93458333D01*
X209455333Y-93858333D02*
X209522000Y-93891666D01*
X209655333Y-93891666D01*
X209722000Y-93858333D01*
X209755333Y-93791666D01*
X209755333Y-93525000D01*
X209722000Y-93458333D01*
X209655333Y-93425000D01*
X209522000Y-93425000D01*
X209455333Y-93458333D01*
X209422000Y-93525000D01*
X209422000Y-93591666D01*
X209755333Y-93658333D01*
X209155333Y-93858333D02*
X209088666Y-93891666D01*
X208955333Y-93891666D01*
X208888666Y-93858333D01*
X208855333Y-93791666D01*
X208855333Y-93758333D01*
X208888666Y-93691666D01*
X208955333Y-93658333D01*
X209055333Y-93658333D01*
X209122000Y-93625000D01*
X209155333Y-93558333D01*
X209155333Y-93525000D01*
X209122000Y-93458333D01*
X209055333Y-93425000D01*
X208955333Y-93425000D01*
X208888666Y-93458333D01*
X208055333Y-93691666D02*
X207722000Y-93691666D01*
X208122000Y-93891666D02*
X207888666Y-93191666D01*
X207655333Y-93891666D01*
X207422000Y-93891666D02*
X207422000Y-93191666D01*
X207255333Y-93191666D01*
X207155333Y-93225000D01*
X207088666Y-93291666D01*
X207055333Y-93358333D01*
X207022000Y-93491666D01*
X207022000Y-93591666D01*
X207055333Y-93725000D01*
X207088666Y-93791666D01*
X207155333Y-93858333D01*
X207255333Y-93891666D01*
X207422000Y-93891666D01*
X206322000Y-93825000D02*
X206355333Y-93858333D01*
X206455333Y-93891666D01*
X206522000Y-93891666D01*
X206622000Y-93858333D01*
X206688666Y-93791666D01*
X206722000Y-93725000D01*
X206755333Y-93591666D01*
X206755333Y-93491666D01*
X206722000Y-93358333D01*
X206688666Y-93291666D01*
X206622000Y-93225000D01*
X206522000Y-93191666D01*
X206455333Y-93191666D01*
X206355333Y-93225000D01*
X206322000Y-93258333D01*
X206088666Y-94158333D02*
X206055333Y-94125000D01*
X205988666Y-94025000D01*
X205955333Y-93958333D01*
X205922000Y-93858333D01*
X205888666Y-93691666D01*
X205888666Y-93558333D01*
X205922000Y-93391666D01*
X205955333Y-93291666D01*
X205988666Y-93225000D01*
X206055333Y-93125000D01*
X206088666Y-93091666D01*
X225255333Y-94361666D02*
X225255333Y-94928333D01*
X225222000Y-94995000D01*
X225188666Y-95028333D01*
X225122000Y-95061666D01*
X224988666Y-95061666D01*
X224922000Y-95028333D01*
X224888666Y-94995000D01*
X224855333Y-94928333D01*
X224855333Y-94361666D01*
X224555333Y-95028333D02*
X224488666Y-95061666D01*
X224355333Y-95061666D01*
X224288666Y-95028333D01*
X224255333Y-94961666D01*
X224255333Y-94928333D01*
X224288666Y-94861666D01*
X224355333Y-94828333D01*
X224455333Y-94828333D01*
X224522000Y-94795000D01*
X224555333Y-94728333D01*
X224555333Y-94695000D01*
X224522000Y-94628333D01*
X224455333Y-94595000D01*
X224355333Y-94595000D01*
X224288666Y-94628333D01*
X223688666Y-95028333D02*
X223755333Y-95061666D01*
X223888666Y-95061666D01*
X223955333Y-95028333D01*
X223988666Y-94961666D01*
X223988666Y-94695000D01*
X223955333Y-94628333D01*
X223888666Y-94595000D01*
X223755333Y-94595000D01*
X223688666Y-94628333D01*
X223655333Y-94695000D01*
X223655333Y-94761666D01*
X223988666Y-94828333D01*
X223355333Y-95061666D02*
X223355333Y-94595000D01*
X223355333Y-94728333D02*
X223322000Y-94661666D01*
X223288666Y-94628333D01*
X223222000Y-94595000D01*
X223155333Y-94595000D01*
X222055333Y-95061666D02*
X222388666Y-95061666D01*
X222388666Y-94361666D01*
X221822000Y-94695000D02*
X221588666Y-94695000D01*
X221488666Y-95061666D02*
X221822000Y-95061666D01*
X221822000Y-94361666D01*
X221488666Y-94361666D01*
X221188666Y-95061666D02*
X221188666Y-94361666D01*
X221022000Y-94361666D01*
X220922000Y-94395000D01*
X220855333Y-94461666D01*
X220822000Y-94528333D01*
X220788666Y-94661666D01*
X220788666Y-94761666D01*
X220822000Y-94895000D01*
X220855333Y-94961666D01*
X220922000Y-95028333D01*
X221022000Y-95061666D01*
X221188666Y-95061666D01*
X219988666Y-94328333D02*
X220588666Y-95228333D01*
X219522000Y-94695000D02*
X219422000Y-94728333D01*
X219388666Y-94761666D01*
X219355333Y-94828333D01*
X219355333Y-94928333D01*
X219388666Y-94995000D01*
X219422000Y-95028333D01*
X219488666Y-95061666D01*
X219755333Y-95061666D01*
X219755333Y-94361666D01*
X219522000Y-94361666D01*
X219455333Y-94395000D01*
X219422000Y-94428333D01*
X219388666Y-94495000D01*
X219388666Y-94561666D01*
X219422000Y-94628333D01*
X219455333Y-94661666D01*
X219522000Y-94695000D01*
X219755333Y-94695000D01*
X218755333Y-94595000D02*
X218755333Y-95061666D01*
X219055333Y-94595000D02*
X219055333Y-94961666D01*
X219022000Y-95028333D01*
X218955333Y-95061666D01*
X218855333Y-95061666D01*
X218788666Y-95028333D01*
X218755333Y-94995000D01*
X218522000Y-94595000D02*
X218255333Y-94595000D01*
X218422000Y-94361666D02*
X218422000Y-94961666D01*
X218388666Y-95028333D01*
X218322000Y-95061666D01*
X218255333Y-95061666D01*
X218122000Y-94595000D02*
X217855333Y-94595000D01*
X218022000Y-94361666D02*
X218022000Y-94961666D01*
X217988666Y-95028333D01*
X217922000Y-95061666D01*
X217855333Y-95061666D01*
X217522000Y-95061666D02*
X217588666Y-95028333D01*
X217622000Y-94995000D01*
X217655333Y-94928333D01*
X217655333Y-94728333D01*
X217622000Y-94661666D01*
X217588666Y-94628333D01*
X217522000Y-94595000D01*
X217422000Y-94595000D01*
X217355333Y-94628333D01*
X217322000Y-94661666D01*
X217288666Y-94728333D01*
X217288666Y-94928333D01*
X217322000Y-94995000D01*
X217355333Y-95028333D01*
X217422000Y-95061666D01*
X217522000Y-95061666D01*
X216988666Y-94595000D02*
X216988666Y-95061666D01*
X216988666Y-94661666D02*
X216955333Y-94628333D01*
X216888666Y-94595000D01*
X216788666Y-94595000D01*
X216722000Y-94628333D01*
X216688666Y-94695000D01*
X216688666Y-95061666D01*
X216355333Y-94995000D02*
X216322000Y-95028333D01*
X216355333Y-95061666D01*
X216388666Y-95028333D01*
X216355333Y-94995000D01*
X216355333Y-95061666D01*
X216355333Y-94628333D02*
X216322000Y-94661666D01*
X216355333Y-94695000D01*
X216388666Y-94661666D01*
X216355333Y-94628333D01*
X216355333Y-94695000D01*
X215122000Y-94395000D02*
X215188666Y-94361666D01*
X215288666Y-94361666D01*
X215388666Y-94395000D01*
X215455333Y-94461666D01*
X215488666Y-94528333D01*
X215522000Y-94661666D01*
X215522000Y-94761666D01*
X215488666Y-94895000D01*
X215455333Y-94961666D01*
X215388666Y-95028333D01*
X215288666Y-95061666D01*
X215222000Y-95061666D01*
X215122000Y-95028333D01*
X215088666Y-94995000D01*
X215088666Y-94761666D01*
X215222000Y-94761666D01*
X214788666Y-95061666D02*
X214788666Y-94361666D01*
X214522000Y-94361666D01*
X214455333Y-94395000D01*
X214422000Y-94428333D01*
X214388666Y-94495000D01*
X214388666Y-94595000D01*
X214422000Y-94661666D01*
X214455333Y-94695000D01*
X214522000Y-94728333D01*
X214788666Y-94728333D01*
X214088666Y-95061666D02*
X214088666Y-94361666D01*
X213622000Y-94361666D02*
X213488666Y-94361666D01*
X213422000Y-94395000D01*
X213355333Y-94461666D01*
X213322000Y-94595000D01*
X213322000Y-94828333D01*
X213355333Y-94961666D01*
X213422000Y-95028333D01*
X213488666Y-95061666D01*
X213622000Y-95061666D01*
X213688666Y-95028333D01*
X213755333Y-94961666D01*
X213788666Y-94828333D01*
X213788666Y-94595000D01*
X213755333Y-94461666D01*
X213688666Y-94395000D01*
X213622000Y-94361666D01*
X213055333Y-94428333D02*
X213022000Y-94395000D01*
X212955333Y-94361666D01*
X212788666Y-94361666D01*
X212722000Y-94395000D01*
X212688666Y-94428333D01*
X212655333Y-94495000D01*
X212655333Y-94561666D01*
X212688666Y-94661666D01*
X213088666Y-95061666D01*
X212655333Y-95061666D01*
X211988666Y-95061666D02*
X212388666Y-95061666D01*
X212188666Y-95061666D02*
X212188666Y-94361666D01*
X212255333Y-94461666D01*
X212322000Y-94528333D01*
X212388666Y-94561666D01*
X210955333Y-95328333D02*
X210988666Y-95295000D01*
X211055333Y-95195000D01*
X211088666Y-95128333D01*
X211122000Y-95028333D01*
X211155333Y-94861666D01*
X211155333Y-94728333D01*
X211122000Y-94561666D01*
X211088666Y-94461666D01*
X211055333Y-94395000D01*
X210988666Y-94295000D01*
X210955333Y-94261666D01*
X210388666Y-95061666D02*
X210388666Y-94361666D01*
X210388666Y-95028333D02*
X210455333Y-95061666D01*
X210588666Y-95061666D01*
X210655333Y-95028333D01*
X210688666Y-94995000D01*
X210722000Y-94928333D01*
X210722000Y-94728333D01*
X210688666Y-94661666D01*
X210655333Y-94628333D01*
X210588666Y-94595000D01*
X210455333Y-94595000D01*
X210388666Y-94628333D01*
X210055333Y-95061666D02*
X210055333Y-94595000D01*
X210055333Y-94728333D02*
X210022000Y-94661666D01*
X209988666Y-94628333D01*
X209922000Y-94595000D01*
X209855333Y-94595000D01*
X209622000Y-95061666D02*
X209622000Y-94595000D01*
X209622000Y-94361666D02*
X209655333Y-94395000D01*
X209622000Y-94428333D01*
X209588666Y-94395000D01*
X209622000Y-94361666D01*
X209622000Y-94428333D01*
X209355333Y-94595000D02*
X209188666Y-95061666D01*
X209022000Y-94595000D01*
X208488666Y-95028333D02*
X208555333Y-95061666D01*
X208688666Y-95061666D01*
X208755333Y-95028333D01*
X208788666Y-94961666D01*
X208788666Y-94695000D01*
X208755333Y-94628333D01*
X208688666Y-94595000D01*
X208555333Y-94595000D01*
X208488666Y-94628333D01*
X208455333Y-94695000D01*
X208455333Y-94761666D01*
X208788666Y-94828333D01*
X207622000Y-95061666D02*
X207622000Y-94361666D01*
X207322000Y-95061666D02*
X207322000Y-94695000D01*
X207355333Y-94628333D01*
X207422000Y-94595000D01*
X207522000Y-94595000D01*
X207588666Y-94628333D01*
X207622000Y-94661666D01*
X206988666Y-95061666D02*
X206988666Y-94595000D01*
X206988666Y-94361666D02*
X207022000Y-94395000D01*
X206988666Y-94428333D01*
X206955333Y-94395000D01*
X206988666Y-94361666D01*
X206988666Y-94428333D01*
X206355333Y-94595000D02*
X206355333Y-95161666D01*
X206388666Y-95228333D01*
X206422000Y-95261666D01*
X206488666Y-95295000D01*
X206588666Y-95295000D01*
X206655333Y-95261666D01*
X206355333Y-95028333D02*
X206422000Y-95061666D01*
X206555333Y-95061666D01*
X206622000Y-95028333D01*
X206655333Y-94995000D01*
X206688666Y-94928333D01*
X206688666Y-94728333D01*
X206655333Y-94661666D01*
X206622000Y-94628333D01*
X206555333Y-94595000D01*
X206422000Y-94595000D01*
X206355333Y-94628333D01*
X206022000Y-95061666D02*
X206022000Y-94361666D01*
X205722000Y-95061666D02*
X205722000Y-94695000D01*
X205755333Y-94628333D01*
X205822000Y-94595000D01*
X205922000Y-94595000D01*
X205988666Y-94628333D01*
X206022000Y-94661666D01*
X225355333Y-95765000D02*
X225088666Y-95765000D01*
X225255333Y-96231666D02*
X225255333Y-95631666D01*
X225222000Y-95565000D01*
X225155333Y-95531666D01*
X225088666Y-95531666D01*
X224755333Y-96231666D02*
X224822000Y-96198333D01*
X224855333Y-96165000D01*
X224888666Y-96098333D01*
X224888666Y-95898333D01*
X224855333Y-95831666D01*
X224822000Y-95798333D01*
X224755333Y-95765000D01*
X224655333Y-95765000D01*
X224588666Y-95798333D01*
X224555333Y-95831666D01*
X224522000Y-95898333D01*
X224522000Y-96098333D01*
X224555333Y-96165000D01*
X224588666Y-96198333D01*
X224655333Y-96231666D01*
X224755333Y-96231666D01*
X224222000Y-96231666D02*
X224222000Y-95765000D01*
X224222000Y-95898333D02*
X224188666Y-95831666D01*
X224155333Y-95798333D01*
X224088666Y-95765000D01*
X224022000Y-95765000D01*
X222921999Y-96231666D02*
X223255333Y-96231666D01*
X223255333Y-95531666D01*
X222688666Y-95865000D02*
X222455333Y-95865000D01*
X222355333Y-96231666D02*
X222688666Y-96231666D01*
X222688666Y-95531666D01*
X222355333Y-95531666D01*
X222055333Y-96231666D02*
X222055333Y-95531666D01*
X221888666Y-95531666D01*
X221788666Y-95565000D01*
X221721999Y-95631666D01*
X221688666Y-95698333D01*
X221655333Y-95831666D01*
X221655333Y-95931666D01*
X221688666Y-96065000D01*
X221721999Y-96131666D01*
X221788666Y-96198333D01*
X221888666Y-96231666D01*
X222055333Y-96231666D01*
X221321999Y-96198333D02*
X221321999Y-96231666D01*
X221355333Y-96298333D01*
X221388666Y-96331666D01*
X220488666Y-95765000D02*
X220488666Y-96465000D01*
X220488666Y-95798333D02*
X220421999Y-95765000D01*
X220288666Y-95765000D01*
X220221999Y-95798333D01*
X220188666Y-95831666D01*
X220155333Y-95898333D01*
X220155333Y-96098333D01*
X220188666Y-96165000D01*
X220221999Y-96198333D01*
X220288666Y-96231666D01*
X220421999Y-96231666D01*
X220488666Y-96198333D01*
X219555333Y-95765000D02*
X219555333Y-96231666D01*
X219855333Y-95765000D02*
X219855333Y-96131666D01*
X219821999Y-96198333D01*
X219755333Y-96231666D01*
X219655333Y-96231666D01*
X219588666Y-96198333D01*
X219555333Y-96165000D01*
X219121999Y-96231666D02*
X219188666Y-96198333D01*
X219221999Y-96131666D01*
X219221999Y-95531666D01*
X218755333Y-96231666D02*
X218821999Y-96198333D01*
X218855333Y-96131666D01*
X218855333Y-95531666D01*
X218188666Y-95765000D02*
X218188666Y-96231666D01*
X218488666Y-95765000D02*
X218488666Y-96131666D01*
X218455333Y-96198333D01*
X218388666Y-96231666D01*
X218288666Y-96231666D01*
X218221999Y-96198333D01*
X218188666Y-96165000D01*
X217855333Y-95765000D02*
X217855333Y-96465000D01*
X217855333Y-95798333D02*
X217788666Y-95765000D01*
X217655333Y-95765000D01*
X217588666Y-95798333D01*
X217555333Y-95831666D01*
X217521999Y-95898333D01*
X217521999Y-96098333D01*
X217555333Y-96165000D01*
X217588666Y-96198333D01*
X217655333Y-96231666D01*
X217788666Y-96231666D01*
X217855333Y-96198333D01*
X216788666Y-95765000D02*
X216521999Y-95765000D01*
X216688666Y-95531666D02*
X216688666Y-96131666D01*
X216655333Y-96198333D01*
X216588666Y-96231666D01*
X216521999Y-96231666D01*
X216188666Y-96231666D02*
X216255333Y-96198333D01*
X216288666Y-96165000D01*
X216321999Y-96098333D01*
X216321999Y-95898333D01*
X216288666Y-95831666D01*
X216255333Y-95798333D01*
X216188666Y-95765000D01*
X216088666Y-95765000D01*
X216021999Y-95798333D01*
X215988666Y-95831666D01*
X215955333Y-95898333D01*
X215955333Y-96098333D01*
X215988666Y-96165000D01*
X216021999Y-96198333D01*
X216088666Y-96231666D01*
X216188666Y-96231666D01*
X214821999Y-96198333D02*
X214888666Y-96231666D01*
X215021999Y-96231666D01*
X215088666Y-96198333D01*
X215121999Y-96165000D01*
X215155333Y-96098333D01*
X215155333Y-95898333D01*
X215121999Y-95831666D01*
X215088666Y-95798333D01*
X215021999Y-95765000D01*
X214888666Y-95765000D01*
X214821999Y-95798333D01*
X214521999Y-96231666D02*
X214521999Y-95531666D01*
X214221999Y-96231666D02*
X214221999Y-95865000D01*
X214255333Y-95798333D01*
X214321999Y-95765000D01*
X214421999Y-95765000D01*
X214488666Y-95798333D01*
X214521999Y-95831666D01*
X213621999Y-96198333D02*
X213688666Y-96231666D01*
X213821999Y-96231666D01*
X213888666Y-96198333D01*
X213921999Y-96131666D01*
X213921999Y-95865000D01*
X213888666Y-95798333D01*
X213821999Y-95765000D01*
X213688666Y-95765000D01*
X213621999Y-95798333D01*
X213588666Y-95865000D01*
X213588666Y-95931666D01*
X213921999Y-95998333D01*
X212988666Y-96198333D02*
X213055333Y-96231666D01*
X213188666Y-96231666D01*
X213255333Y-96198333D01*
X213288666Y-96165000D01*
X213321999Y-96098333D01*
X213321999Y-95898333D01*
X213288666Y-95831666D01*
X213255333Y-95798333D01*
X213188666Y-95765000D01*
X213055333Y-95765000D01*
X212988666Y-95798333D01*
X212688666Y-96231666D02*
X212688666Y-95531666D01*
X212621999Y-95965000D02*
X212421999Y-96231666D01*
X212421999Y-95765000D02*
X212688666Y-96031666D01*
X211588666Y-96231666D02*
X211588666Y-95531666D01*
X211588666Y-95798333D02*
X211521999Y-95765000D01*
X211388666Y-95765000D01*
X211321999Y-95798333D01*
X211288666Y-95831666D01*
X211255333Y-95898333D01*
X211255333Y-96098333D01*
X211288666Y-96165000D01*
X211321999Y-96198333D01*
X211388666Y-96231666D01*
X211521999Y-96231666D01*
X211588666Y-96198333D01*
X210655333Y-95765000D02*
X210655333Y-96231666D01*
X210955333Y-95765000D02*
X210955333Y-96131666D01*
X210921999Y-96198333D01*
X210855333Y-96231666D01*
X210755333Y-96231666D01*
X210688666Y-96198333D01*
X210655333Y-96165000D01*
X210421999Y-95765000D02*
X210155333Y-95765000D01*
X210321999Y-95531666D02*
X210321999Y-96131666D01*
X210288666Y-96198333D01*
X210221999Y-96231666D01*
X210155333Y-96231666D01*
X210021999Y-95765000D02*
X209755333Y-95765000D01*
X209921999Y-95531666D02*
X209921999Y-96131666D01*
X209888666Y-96198333D01*
X209821999Y-96231666D01*
X209755333Y-96231666D01*
X209421999Y-96231666D02*
X209488666Y-96198333D01*
X209521999Y-96165000D01*
X209555333Y-96098333D01*
X209555333Y-95898333D01*
X209521999Y-95831666D01*
X209488666Y-95798333D01*
X209421999Y-95765000D01*
X209321999Y-95765000D01*
X209255333Y-95798333D01*
X209221999Y-95831666D01*
X209188666Y-95898333D01*
X209188666Y-96098333D01*
X209221999Y-96165000D01*
X209255333Y-96198333D01*
X209321999Y-96231666D01*
X209421999Y-96231666D01*
X208888666Y-95765000D02*
X208888666Y-96231666D01*
X208888666Y-95831666D02*
X208855333Y-95798333D01*
X208788666Y-95765000D01*
X208688666Y-95765000D01*
X208621999Y-95798333D01*
X208588666Y-95865000D01*
X208588666Y-96231666D01*
X208321999Y-96498333D02*
X208288666Y-96465000D01*
X208221999Y-96365000D01*
X208188666Y-96298333D01*
X208155333Y-96198333D01*
X208121999Y-96031666D01*
X208121999Y-95898333D01*
X208155333Y-95731666D01*
X208188666Y-95631666D01*
X208221999Y-95565000D01*
X208288666Y-95465000D01*
X208321999Y-95431666D01*
X225255333Y-96701666D02*
X225255333Y-97268333D01*
X225222000Y-97335000D01*
X225188666Y-97368333D01*
X225122000Y-97401666D01*
X224988666Y-97401666D01*
X224922000Y-97368333D01*
X224888666Y-97335000D01*
X224855333Y-97268333D01*
X224855333Y-96701666D01*
X224555333Y-97201666D02*
X224222000Y-97201666D01*
X224622000Y-97401666D02*
X224388666Y-96701666D01*
X224155333Y-97401666D01*
X223522000Y-97401666D02*
X223755333Y-97068333D01*
X223922000Y-97401666D02*
X223922000Y-96701666D01*
X223655333Y-96701666D01*
X223588666Y-96735000D01*
X223555333Y-96768333D01*
X223522000Y-96835000D01*
X223522000Y-96935000D01*
X223555333Y-97001666D01*
X223588666Y-97035000D01*
X223655333Y-97068333D01*
X223922000Y-97068333D01*
X223322000Y-96701666D02*
X222922000Y-96701666D01*
X223122000Y-97401666D02*
X223122000Y-96701666D01*
X222688666Y-97335000D02*
X222655333Y-97368333D01*
X222688666Y-97401666D01*
X222722000Y-97368333D01*
X222688666Y-97335000D01*
X222688666Y-97401666D01*
X222688666Y-96968333D02*
X222655333Y-97001666D01*
X222688666Y-97035000D01*
X222722000Y-97001666D01*
X222688666Y-96968333D01*
X222688666Y-97035000D01*
X221455333Y-96735000D02*
X221522000Y-96701666D01*
X221622000Y-96701666D01*
X221722000Y-96735000D01*
X221788666Y-96801666D01*
X221822000Y-96868333D01*
X221855333Y-97001666D01*
X221855333Y-97101666D01*
X221822000Y-97235000D01*
X221788666Y-97301666D01*
X221722000Y-97368333D01*
X221622000Y-97401666D01*
X221555333Y-97401666D01*
X221455333Y-97368333D01*
X221422000Y-97335000D01*
X221422000Y-97101666D01*
X221555333Y-97101666D01*
X221122000Y-97401666D02*
X221122000Y-96701666D01*
X220855333Y-96701666D01*
X220788666Y-96735000D01*
X220755333Y-96768333D01*
X220722000Y-96835000D01*
X220722000Y-96935000D01*
X220755333Y-97001666D01*
X220788666Y-97035000D01*
X220855333Y-97068333D01*
X221122000Y-97068333D01*
X220422000Y-97401666D02*
X220422000Y-96701666D01*
X219955333Y-96701666D02*
X219822000Y-96701666D01*
X219755333Y-96735000D01*
X219688666Y-96801666D01*
X219655333Y-96935000D01*
X219655333Y-97168333D01*
X219688666Y-97301666D01*
X219755333Y-97368333D01*
X219822000Y-97401666D01*
X219955333Y-97401666D01*
X220022000Y-97368333D01*
X220088666Y-97301666D01*
X220122000Y-97168333D01*
X220122000Y-96935000D01*
X220088666Y-96801666D01*
X220022000Y-96735000D01*
X219955333Y-96701666D01*
X218988666Y-97401666D02*
X219388666Y-97401666D01*
X219188666Y-97401666D02*
X219188666Y-96701666D01*
X219255333Y-96801666D01*
X219322000Y-96868333D01*
X219388666Y-96901666D01*
X218388666Y-96701666D02*
X218522000Y-96701666D01*
X218588666Y-96735000D01*
X218622000Y-96768333D01*
X218688666Y-96868333D01*
X218722000Y-97001666D01*
X218722000Y-97268333D01*
X218688666Y-97335000D01*
X218655333Y-97368333D01*
X218588666Y-97401666D01*
X218455333Y-97401666D01*
X218388666Y-97368333D01*
X218355333Y-97335000D01*
X218322000Y-97268333D01*
X218322000Y-97101666D01*
X218355333Y-97035000D01*
X218388666Y-97001666D01*
X218455333Y-96968333D01*
X218588666Y-96968333D01*
X218655333Y-97001666D01*
X218688666Y-97035000D01*
X218722000Y-97101666D01*
X217522000Y-96668333D02*
X218122000Y-97568333D01*
X216922000Y-97401666D02*
X217322000Y-97401666D01*
X217122000Y-97401666D02*
X217122000Y-96701666D01*
X217188666Y-96801666D01*
X217255333Y-96868333D01*
X217322000Y-96901666D01*
X216688666Y-96701666D02*
X216222000Y-96701666D01*
X216522000Y-97401666D01*
X215522000Y-96701666D02*
X215122000Y-96701666D01*
X215322000Y-97401666D02*
X215322000Y-96701666D01*
X214955333Y-96701666D02*
X214488666Y-97401666D01*
X214488666Y-96701666D02*
X214955333Y-97401666D01*
X213722000Y-96668333D02*
X214322000Y-97568333D01*
X213088666Y-97401666D02*
X213322000Y-97068333D01*
X213488666Y-97401666D02*
X213488666Y-96701666D01*
X213222000Y-96701666D01*
X213155333Y-96735000D01*
X213122000Y-96768333D01*
X213088666Y-96835000D01*
X213088666Y-96935000D01*
X213122000Y-97001666D01*
X213155333Y-97035000D01*
X213222000Y-97068333D01*
X213488666Y-97068333D01*
X212855333Y-96701666D02*
X212388666Y-97401666D01*
X212388666Y-96701666D02*
X212855333Y-97401666D01*
X211388666Y-97668333D02*
X211422000Y-97635000D01*
X211488666Y-97535000D01*
X211522000Y-97468333D01*
X211555333Y-97368333D01*
X211588666Y-97201666D01*
X211588666Y-97068333D01*
X211555333Y-96901666D01*
X211522000Y-96801666D01*
X211488666Y-96735000D01*
X211422000Y-96635000D01*
X211388666Y-96601666D01*
X211122000Y-96701666D02*
X211122000Y-97268333D01*
X211088666Y-97335000D01*
X211055333Y-97368333D01*
X210988666Y-97401666D01*
X210855333Y-97401666D01*
X210788666Y-97368333D01*
X210755333Y-97335000D01*
X210722000Y-97268333D01*
X210722000Y-96701666D01*
X210422000Y-97201666D02*
X210088666Y-97201666D01*
X210488666Y-97401666D02*
X210255333Y-96701666D01*
X210022000Y-97401666D01*
X209388666Y-97401666D02*
X209622000Y-97068333D01*
X209788666Y-97401666D02*
X209788666Y-96701666D01*
X209522000Y-96701666D01*
X209455333Y-96735000D01*
X209422000Y-96768333D01*
X209388666Y-96835000D01*
X209388666Y-96935000D01*
X209422000Y-97001666D01*
X209455333Y-97035000D01*
X209522000Y-97068333D01*
X209788666Y-97068333D01*
X209188666Y-96701666D02*
X208788666Y-96701666D01*
X208988666Y-97401666D02*
X208988666Y-96701666D01*
X208422000Y-96701666D02*
X208355333Y-96701666D01*
X208288666Y-96735000D01*
X208255333Y-96768333D01*
X208222000Y-96835000D01*
X208188666Y-96968333D01*
X208188666Y-97135000D01*
X208222000Y-97268333D01*
X208255333Y-97335000D01*
X208288666Y-97368333D01*
X208355333Y-97401666D01*
X208422000Y-97401666D01*
X208488666Y-97368333D01*
X208522000Y-97335000D01*
X208555333Y-97268333D01*
X208588666Y-97135000D01*
X208588666Y-96968333D01*
X208555333Y-96835000D01*
X208522000Y-96768333D01*
X208488666Y-96735000D01*
X208422000Y-96701666D01*
X207955333Y-97668333D02*
X207922000Y-97635000D01*
X207855333Y-97535000D01*
X207822000Y-97468333D01*
X207788666Y-97368333D01*
X207755333Y-97201666D01*
X207755333Y-97068333D01*
X207788666Y-96901666D01*
X207822000Y-96801666D01*
X207855333Y-96735000D01*
X207922000Y-96635000D01*
X207955333Y-96601666D01*
X225255333Y-98571666D02*
X225255333Y-97871666D01*
X225088666Y-97871666D01*
X224988666Y-97905000D01*
X224922000Y-97971666D01*
X224888666Y-98038333D01*
X224855333Y-98171666D01*
X224855333Y-98271666D01*
X224888666Y-98405000D01*
X224922000Y-98471666D01*
X224988666Y-98538333D01*
X225088666Y-98571666D01*
X225255333Y-98571666D01*
X224655333Y-97871666D02*
X224422000Y-98571666D01*
X224188666Y-97871666D01*
X223955333Y-98571666D02*
X223955333Y-97871666D01*
X223622000Y-98505000D02*
X223588666Y-98538333D01*
X223622000Y-98571666D01*
X223655333Y-98538333D01*
X223622000Y-98505000D01*
X223622000Y-98571666D01*
X223622000Y-98138333D02*
X223588666Y-98171666D01*
X223622000Y-98205000D01*
X223655333Y-98171666D01*
X223622000Y-98138333D01*
X223622000Y-98205000D01*
X222388666Y-97905000D02*
X222455333Y-97871666D01*
X222555333Y-97871666D01*
X222655333Y-97905000D01*
X222722000Y-97971666D01*
X222755333Y-98038333D01*
X222788666Y-98171666D01*
X222788666Y-98271666D01*
X222755333Y-98405000D01*
X222722000Y-98471666D01*
X222655333Y-98538333D01*
X222555333Y-98571666D01*
X222488666Y-98571666D01*
X222388666Y-98538333D01*
X222355333Y-98505000D01*
X222355333Y-98271666D01*
X222488666Y-98271666D01*
X222055333Y-98571666D02*
X222055333Y-97871666D01*
X221788666Y-97871666D01*
X221722000Y-97905000D01*
X221688666Y-97938333D01*
X221655333Y-98005000D01*
X221655333Y-98105000D01*
X221688666Y-98171666D01*
X221722000Y-98205000D01*
X221788666Y-98238333D01*
X222055333Y-98238333D01*
X221355333Y-98571666D02*
X221355333Y-97871666D01*
X220888666Y-97871666D02*
X220755333Y-97871666D01*
X220688666Y-97905000D01*
X220622000Y-97971666D01*
X220588666Y-98105000D01*
X220588666Y-98338333D01*
X220622000Y-98471666D01*
X220688666Y-98538333D01*
X220755333Y-98571666D01*
X220888666Y-98571666D01*
X220955333Y-98538333D01*
X221022000Y-98471666D01*
X221055333Y-98338333D01*
X221055333Y-98105000D01*
X221022000Y-97971666D01*
X220955333Y-97905000D01*
X220888666Y-97871666D01*
X220188666Y-98171666D02*
X220255333Y-98138333D01*
X220288666Y-98105000D01*
X220322000Y-98038333D01*
X220322000Y-98005000D01*
X220288666Y-97938333D01*
X220255333Y-97905000D01*
X220188666Y-97871666D01*
X220055333Y-97871666D01*
X219988666Y-97905000D01*
X219955333Y-97938333D01*
X219922000Y-98005000D01*
X219922000Y-98038333D01*
X219955333Y-98105000D01*
X219988666Y-98138333D01*
X220055333Y-98171666D01*
X220188666Y-98171666D01*
X220255333Y-98205000D01*
X220288666Y-98238333D01*
X220322000Y-98305000D01*
X220322000Y-98438333D01*
X220288666Y-98505000D01*
X220255333Y-98538333D01*
X220188666Y-98571666D01*
X220055333Y-98571666D01*
X219988666Y-98538333D01*
X219955333Y-98505000D01*
X219922000Y-98438333D01*
X219922000Y-98305000D01*
X219955333Y-98238333D01*
X219988666Y-98205000D01*
X220055333Y-98171666D01*
X219622000Y-98305000D02*
X219088666Y-98305000D01*
X218755333Y-98105000D02*
X218222000Y-98305000D01*
X218755333Y-98505000D01*
X217522000Y-98571666D02*
X217922000Y-98571666D01*
X217722000Y-98571666D02*
X217722000Y-97871666D01*
X217788666Y-97971666D01*
X217855333Y-98038333D01*
X217922000Y-98071666D01*
X216888666Y-97871666D02*
X217222000Y-97871666D01*
X217255333Y-98205000D01*
X217222000Y-98171666D01*
X217155333Y-98138333D01*
X216988666Y-98138333D01*
X216922000Y-98171666D01*
X216888666Y-98205000D01*
X216855333Y-98271666D01*
X216855333Y-98438333D01*
X216888666Y-98505000D01*
X216922000Y-98538333D01*
X216988666Y-98571666D01*
X217155333Y-98571666D01*
X217222000Y-98538333D01*
X217255333Y-98505000D01*
X216522000Y-98538333D02*
X216522000Y-98571666D01*
X216555333Y-98638333D01*
X216588666Y-98671666D01*
X215288666Y-98505000D02*
X215322000Y-98538333D01*
X215422000Y-98571666D01*
X215488666Y-98571666D01*
X215588666Y-98538333D01*
X215655333Y-98471666D01*
X215688666Y-98405000D01*
X215722000Y-98271666D01*
X215722000Y-98171666D01*
X215688666Y-98038333D01*
X215655333Y-97971666D01*
X215588666Y-97905000D01*
X215488666Y-97871666D01*
X215422000Y-97871666D01*
X215322000Y-97905000D01*
X215288666Y-97938333D01*
X214988666Y-98571666D02*
X214988666Y-97871666D01*
X214588666Y-98571666D02*
X214888666Y-98171666D01*
X214588666Y-97871666D02*
X214988666Y-98271666D01*
X213755333Y-98571666D02*
X213755333Y-97871666D01*
X213588666Y-97871666D01*
X213488666Y-97905000D01*
X213422000Y-97971666D01*
X213388666Y-98038333D01*
X213355333Y-98171666D01*
X213355333Y-98271666D01*
X213388666Y-98405000D01*
X213422000Y-98471666D01*
X213488666Y-98538333D01*
X213588666Y-98571666D01*
X213755333Y-98571666D01*
X212922000Y-97871666D02*
X212855333Y-97871666D01*
X212788666Y-97905000D01*
X212755333Y-97938333D01*
X212722000Y-98005000D01*
X212688666Y-98138333D01*
X212688666Y-98305000D01*
X212722000Y-98438333D01*
X212755333Y-98505000D01*
X212788666Y-98538333D01*
X212855333Y-98571666D01*
X212922000Y-98571666D01*
X212988666Y-98538333D01*
X213022000Y-98505000D01*
X213055333Y-98438333D01*
X213088666Y-98305000D01*
X213088666Y-98138333D01*
X213055333Y-98005000D01*
X213022000Y-97938333D01*
X212988666Y-97905000D01*
X212922000Y-97871666D01*
X211855333Y-98571666D02*
X211855333Y-97871666D01*
X211688666Y-97871666D01*
X211588666Y-97905000D01*
X211522000Y-97971666D01*
X211488666Y-98038333D01*
X211455333Y-98171666D01*
X211455333Y-98271666D01*
X211488666Y-98405000D01*
X211522000Y-98471666D01*
X211588666Y-98538333D01*
X211688666Y-98571666D01*
X211855333Y-98571666D01*
X210788666Y-98571666D02*
X211188666Y-98571666D01*
X210988666Y-98571666D02*
X210988666Y-97871666D01*
X211055333Y-97971666D01*
X211122000Y-98038333D01*
X211188666Y-98071666D01*
X209955333Y-98571666D02*
X209955333Y-97871666D01*
X209788666Y-97871666D01*
X209688666Y-97905000D01*
X209622000Y-97971666D01*
X209588666Y-98038333D01*
X209555333Y-98171666D01*
X209555333Y-98271666D01*
X209588666Y-98405000D01*
X209622000Y-98471666D01*
X209688666Y-98538333D01*
X209788666Y-98571666D01*
X209955333Y-98571666D01*
X209288666Y-97938333D02*
X209255333Y-97905000D01*
X209188666Y-97871666D01*
X209022000Y-97871666D01*
X208955333Y-97905000D01*
X208922000Y-97938333D01*
X208888666Y-98005000D01*
X208888666Y-98071666D01*
X208922000Y-98171666D01*
X209322000Y-98571666D01*
X208888666Y-98571666D01*
X208555333Y-98538333D02*
X208555333Y-98571666D01*
X208588666Y-98638333D01*
X208622000Y-98671666D01*
X207722000Y-98305000D02*
X207188666Y-98305000D01*
X206322000Y-98305000D02*
X205788666Y-98305000D01*
X206055333Y-98571666D02*
X206055333Y-98038333D01*
X225255333Y-99741666D02*
X225255333Y-99041666D01*
X225088666Y-99041666D01*
X224988666Y-99075000D01*
X224922000Y-99141666D01*
X224888666Y-99208333D01*
X224855333Y-99341666D01*
X224855333Y-99441666D01*
X224888666Y-99575000D01*
X224922000Y-99641666D01*
X224988666Y-99708333D01*
X225088666Y-99741666D01*
X225255333Y-99741666D01*
X224555333Y-99741666D02*
X224555333Y-99041666D01*
X224388666Y-99041666D01*
X224288666Y-99075000D01*
X224222000Y-99141666D01*
X224188666Y-99208333D01*
X224155333Y-99341666D01*
X224155333Y-99441666D01*
X224188666Y-99575000D01*
X224222000Y-99641666D01*
X224288666Y-99708333D01*
X224388666Y-99741666D01*
X224555333Y-99741666D01*
X223455333Y-99675000D02*
X223488666Y-99708333D01*
X223588666Y-99741666D01*
X223655333Y-99741666D01*
X223755333Y-99708333D01*
X223822000Y-99641666D01*
X223855333Y-99575000D01*
X223888666Y-99441666D01*
X223888666Y-99341666D01*
X223855333Y-99208333D01*
X223822000Y-99141666D01*
X223755333Y-99075000D01*
X223655333Y-99041666D01*
X223588666Y-99041666D01*
X223488666Y-99075000D01*
X223455333Y-99108333D01*
X223155333Y-99675000D02*
X223122000Y-99708333D01*
X223155333Y-99741666D01*
X223188666Y-99708333D01*
X223155333Y-99675000D01*
X223155333Y-99741666D01*
X223155333Y-99308333D02*
X223122000Y-99341666D01*
X223155333Y-99375000D01*
X223188666Y-99341666D01*
X223155333Y-99308333D01*
X223155333Y-99375000D01*
X221922000Y-99075000D02*
X221988666Y-99041666D01*
X222088666Y-99041666D01*
X222188666Y-99075000D01*
X222255333Y-99141666D01*
X222288666Y-99208333D01*
X222322000Y-99341666D01*
X222322000Y-99441666D01*
X222288666Y-99575000D01*
X222255333Y-99641666D01*
X222188666Y-99708333D01*
X222088666Y-99741666D01*
X222022000Y-99741666D01*
X221922000Y-99708333D01*
X221888666Y-99675000D01*
X221888666Y-99441666D01*
X222022000Y-99441666D01*
X221588666Y-99741666D02*
X221588666Y-99041666D01*
X221322000Y-99041666D01*
X221255333Y-99075000D01*
X221222000Y-99108333D01*
X221188666Y-99175000D01*
X221188666Y-99275000D01*
X221222000Y-99341666D01*
X221255333Y-99375000D01*
X221322000Y-99408333D01*
X221588666Y-99408333D01*
X220888666Y-99741666D02*
X220888666Y-99041666D01*
X220422000Y-99041666D02*
X220288666Y-99041666D01*
X220222000Y-99075000D01*
X220155333Y-99141666D01*
X220122000Y-99275000D01*
X220122000Y-99508333D01*
X220155333Y-99641666D01*
X220222000Y-99708333D01*
X220288666Y-99741666D01*
X220422000Y-99741666D01*
X220488666Y-99708333D01*
X220555333Y-99641666D01*
X220588666Y-99508333D01*
X220588666Y-99275000D01*
X220555333Y-99141666D01*
X220488666Y-99075000D01*
X220422000Y-99041666D01*
X219455333Y-99741666D02*
X219855333Y-99741666D01*
X219655333Y-99741666D02*
X219655333Y-99041666D01*
X219722000Y-99141666D01*
X219788666Y-99208333D01*
X219855333Y-99241666D01*
X219055333Y-99341666D02*
X219122000Y-99308333D01*
X219155333Y-99275000D01*
X219188666Y-99208333D01*
X219188666Y-99175000D01*
X219155333Y-99108333D01*
X219122000Y-99075000D01*
X219055333Y-99041666D01*
X218922000Y-99041666D01*
X218855333Y-99075000D01*
X218822000Y-99108333D01*
X218788666Y-99175000D01*
X218788666Y-99208333D01*
X218822000Y-99275000D01*
X218855333Y-99308333D01*
X218922000Y-99341666D01*
X219055333Y-99341666D01*
X219122000Y-99375000D01*
X219155333Y-99408333D01*
X219188666Y-99475000D01*
X219188666Y-99608333D01*
X219155333Y-99675000D01*
X219122000Y-99708333D01*
X219055333Y-99741666D01*
X218922000Y-99741666D01*
X218855333Y-99708333D01*
X218822000Y-99675000D01*
X218788666Y-99608333D01*
X218788666Y-99475000D01*
X218822000Y-99408333D01*
X218855333Y-99375000D01*
X218922000Y-99341666D01*
X217988666Y-99008333D02*
X218588666Y-99908333D01*
X217388666Y-99741666D02*
X217788666Y-99741666D01*
X217588666Y-99741666D02*
X217588666Y-99041666D01*
X217655333Y-99141666D01*
X217722000Y-99208333D01*
X217788666Y-99241666D01*
X217055333Y-99741666D02*
X216922000Y-99741666D01*
X216855333Y-99708333D01*
X216822000Y-99675000D01*
X216755333Y-99575000D01*
X216722000Y-99441666D01*
X216722000Y-99175000D01*
X216755333Y-99108333D01*
X216788666Y-99075000D01*
X216855333Y-99041666D01*
X216988666Y-99041666D01*
X217055333Y-99075000D01*
X217088666Y-99108333D01*
X217122000Y-99175000D01*
X217122000Y-99341666D01*
X217088666Y-99408333D01*
X217055333Y-99441666D01*
X216988666Y-99475000D01*
X216855333Y-99475000D01*
X216788666Y-99441666D01*
X216755333Y-99408333D01*
X216722000Y-99341666D01*
X215922000Y-99708333D02*
X215822000Y-99741666D01*
X215655333Y-99741666D01*
X215588666Y-99708333D01*
X215555333Y-99675000D01*
X215522000Y-99608333D01*
X215522000Y-99541666D01*
X215555333Y-99475000D01*
X215588666Y-99441666D01*
X215655333Y-99408333D01*
X215788666Y-99375000D01*
X215855333Y-99341666D01*
X215888666Y-99308333D01*
X215922000Y-99241666D01*
X215922000Y-99175000D01*
X215888666Y-99108333D01*
X215855333Y-99075000D01*
X215788666Y-99041666D01*
X215622000Y-99041666D01*
X215522000Y-99075000D01*
X215222000Y-99741666D02*
X215222000Y-99041666D01*
X215055333Y-99041666D01*
X214955333Y-99075000D01*
X214888666Y-99141666D01*
X214855333Y-99208333D01*
X214822000Y-99341666D01*
X214822000Y-99441666D01*
X214855333Y-99575000D01*
X214888666Y-99641666D01*
X214955333Y-99708333D01*
X215055333Y-99741666D01*
X215222000Y-99741666D01*
X214555333Y-99541666D02*
X214222000Y-99541666D01*
X214622000Y-99741666D02*
X214388666Y-99041666D01*
X214155333Y-99741666D01*
X213422000Y-99008333D02*
X214022000Y-99908333D01*
X213222000Y-99708333D02*
X213122000Y-99741666D01*
X212955333Y-99741666D01*
X212888666Y-99708333D01*
X212855333Y-99675000D01*
X212822000Y-99608333D01*
X212822000Y-99541666D01*
X212855333Y-99475000D01*
X212888666Y-99441666D01*
X212955333Y-99408333D01*
X213088666Y-99375000D01*
X213155333Y-99341666D01*
X213188666Y-99308333D01*
X213222000Y-99241666D01*
X213222000Y-99175000D01*
X213188666Y-99108333D01*
X213155333Y-99075000D01*
X213088666Y-99041666D01*
X212922000Y-99041666D01*
X212822000Y-99075000D01*
X212122000Y-99675000D02*
X212155333Y-99708333D01*
X212255333Y-99741666D01*
X212322000Y-99741666D01*
X212422000Y-99708333D01*
X212488666Y-99641666D01*
X212522000Y-99575000D01*
X212555333Y-99441666D01*
X212555333Y-99341666D01*
X212522000Y-99208333D01*
X212488666Y-99141666D01*
X212422000Y-99075000D01*
X212322000Y-99041666D01*
X212255333Y-99041666D01*
X212155333Y-99075000D01*
X212122000Y-99108333D01*
X211488666Y-99741666D02*
X211822000Y-99741666D01*
X211822000Y-99041666D01*
X224855333Y-100845000D02*
X224888666Y-100878333D01*
X224988666Y-100911666D01*
X225055333Y-100911666D01*
X225155333Y-100878333D01*
X225222000Y-100811666D01*
X225255333Y-100745000D01*
X225288666Y-100611666D01*
X225288666Y-100511666D01*
X225255333Y-100378333D01*
X225222000Y-100311666D01*
X225155333Y-100245000D01*
X225055333Y-100211666D01*
X224988666Y-100211666D01*
X224888666Y-100245000D01*
X224855333Y-100278333D01*
X224555333Y-100545000D02*
X224322000Y-100545000D01*
X224222000Y-100911666D02*
X224555333Y-100911666D01*
X224555333Y-100211666D01*
X224222000Y-100211666D01*
X223522000Y-100845000D02*
X223555333Y-100878333D01*
X223655333Y-100911666D01*
X223722000Y-100911666D01*
X223822000Y-100878333D01*
X223888666Y-100811666D01*
X223922000Y-100745000D01*
X223955333Y-100611666D01*
X223955333Y-100511666D01*
X223922000Y-100378333D01*
X223888666Y-100311666D01*
X223822000Y-100245000D01*
X223722000Y-100211666D01*
X223655333Y-100211666D01*
X223555333Y-100245000D01*
X223522000Y-100278333D01*
X223222000Y-100845000D02*
X223188666Y-100878333D01*
X223222000Y-100911666D01*
X223255333Y-100878333D01*
X223222000Y-100845000D01*
X223222000Y-100911666D01*
X223222000Y-100478333D02*
X223188666Y-100511666D01*
X223222000Y-100545000D01*
X223255333Y-100511666D01*
X223222000Y-100478333D01*
X223222000Y-100545000D01*
X221988666Y-100245000D02*
X222055333Y-100211666D01*
X222155333Y-100211666D01*
X222255333Y-100245000D01*
X222322000Y-100311666D01*
X222355333Y-100378333D01*
X222388666Y-100511666D01*
X222388666Y-100611666D01*
X222355333Y-100745000D01*
X222322000Y-100811666D01*
X222255333Y-100878333D01*
X222155333Y-100911666D01*
X222088666Y-100911666D01*
X221988666Y-100878333D01*
X221955333Y-100845000D01*
X221955333Y-100611666D01*
X222088666Y-100611666D01*
X221655333Y-100911666D02*
X221655333Y-100211666D01*
X221388666Y-100211666D01*
X221322000Y-100245000D01*
X221288666Y-100278333D01*
X221255333Y-100345000D01*
X221255333Y-100445000D01*
X221288666Y-100511666D01*
X221322000Y-100545000D01*
X221388666Y-100578333D01*
X221655333Y-100578333D01*
X220955333Y-100911666D02*
X220955333Y-100211666D01*
X220488666Y-100211666D02*
X220355333Y-100211666D01*
X220288666Y-100245000D01*
X220222000Y-100311666D01*
X220188666Y-100445000D01*
X220188666Y-100678333D01*
X220222000Y-100811666D01*
X220288666Y-100878333D01*
X220355333Y-100911666D01*
X220488666Y-100911666D01*
X220555333Y-100878333D01*
X220622000Y-100811666D01*
X220655333Y-100678333D01*
X220655333Y-100445000D01*
X220622000Y-100311666D01*
X220555333Y-100245000D01*
X220488666Y-100211666D01*
X219922000Y-100278333D02*
X219888666Y-100245000D01*
X219822000Y-100211666D01*
X219655333Y-100211666D01*
X219588666Y-100245000D01*
X219555333Y-100278333D01*
X219522000Y-100345000D01*
X219522000Y-100411666D01*
X219555333Y-100511666D01*
X219955333Y-100911666D01*
X219522000Y-100911666D01*
X219088666Y-100211666D02*
X219022000Y-100211666D01*
X218955333Y-100245000D01*
X218922000Y-100278333D01*
X218888666Y-100345000D01*
X218855333Y-100478333D01*
X218855333Y-100645000D01*
X218888666Y-100778333D01*
X218922000Y-100845000D01*
X218955333Y-100878333D01*
X219022000Y-100911666D01*
X219088666Y-100911666D01*
X219155333Y-100878333D01*
X219188666Y-100845000D01*
X219222000Y-100778333D01*
X219255333Y-100645000D01*
X219255333Y-100478333D01*
X219222000Y-100345000D01*
X219188666Y-100278333D01*
X219155333Y-100245000D01*
X219088666Y-100211666D01*
X226021761Y-108361904D02*
X226288428Y-107980952D01*
X226478904Y-108361904D02*
X226478904Y-107561904D01*
X226174142Y-107561904D01*
X226097952Y-107600000D01*
X226059857Y-107638095D01*
X226021761Y-107714285D01*
X226021761Y-107828571D01*
X226059857Y-107904761D01*
X226097952Y-107942857D01*
X226174142Y-107980952D01*
X226478904Y-107980952D01*
X225374142Y-108323809D02*
X225450333Y-108361904D01*
X225602714Y-108361904D01*
X225678904Y-108323809D01*
X225717000Y-108247619D01*
X225717000Y-107942857D01*
X225678904Y-107866666D01*
X225602714Y-107828571D01*
X225450333Y-107828571D01*
X225374142Y-107866666D01*
X225336047Y-107942857D01*
X225336047Y-108019047D01*
X225717000Y-108095238D01*
X225069380Y-107828571D02*
X224878904Y-108361904D01*
X224688428Y-107828571D01*
X223317000Y-108285714D02*
X223355095Y-108323809D01*
X223469380Y-108361904D01*
X223545571Y-108361904D01*
X223659857Y-108323809D01*
X223736047Y-108247619D01*
X223774142Y-108171428D01*
X223812238Y-108019047D01*
X223812238Y-107904761D01*
X223774142Y-107752380D01*
X223736047Y-107676190D01*
X223659857Y-107600000D01*
X223545571Y-107561904D01*
X223469380Y-107561904D01*
X223355095Y-107600000D01*
X223317000Y-107638095D01*
M02*
