G04 #@! TF.GenerationSoftware,KiCad,Pcbnew,5.0.2-bee76a0~70~ubuntu18.04.1*
G04 #@! TF.CreationDate,2020-08-11T13:50:02+01:00*
G04 #@! TF.ProjectId,picodvi,7069636f-6476-4692-9e6b-696361645f70,rev?*
G04 #@! TF.SameCoordinates,Original*
G04 #@! TF.FileFunction,Copper,L2,Inr*
G04 #@! TF.FilePolarity,Positive*
%FSLAX46Y46*%
G04 Gerber Fmt 4.6, Leading zero omitted, Abs format (unit mm)*
G04 Created by KiCad (PCBNEW 5.0.2-bee76a0~70~ubuntu18.04.1) date Tue 11 Aug 2020 13:50:02 BST*
%MOMM*%
%LPD*%
G01*
G04 APERTURE LIST*
G04 #@! TA.AperFunction,ViaPad*
%ADD10C,1.900000*%
G04 #@! TD*
G04 #@! TA.AperFunction,ViaPad*
%ADD11C,1.450000*%
G04 #@! TD*
G04 #@! TA.AperFunction,ViaPad*
%ADD12O,1.900000X1.200000*%
G04 #@! TD*
G04 #@! TA.AperFunction,ViaPad*
%ADD13R,1.700000X1.700000*%
G04 #@! TD*
G04 #@! TA.AperFunction,ViaPad*
%ADD14O,1.700000X1.700000*%
G04 #@! TD*
G04 #@! TA.AperFunction,ViaPad*
%ADD15C,0.600000*%
G04 #@! TD*
G04 #@! TA.AperFunction,ViaPad*
%ADD16C,0.450000*%
G04 #@! TD*
G04 #@! TA.AperFunction,Conductor*
%ADD17C,0.200000*%
G04 #@! TD*
G04 APERTURE END LIST*
D10*
G04 #@! TO.N,GND*
G04 #@! TO.C,J5*
X247400000Y-97150000D03*
X247400000Y-112850000D03*
X242500000Y-97750000D03*
X242500000Y-112250000D03*
G04 #@! TD*
D11*
G04 #@! TO.N,GND*
G04 #@! TO.C,J1*
X204162500Y-102500000D03*
X204162500Y-107500000D03*
D12*
X201462500Y-101500000D03*
X201462500Y-108500000D03*
G04 #@! TD*
D13*
G04 #@! TO.N,/PMOD0_0*
G04 #@! TO.C,J3*
X219710000Y-116840000D03*
D14*
G04 #@! TO.N,/PMOD0_4*
X219710000Y-119380000D03*
G04 #@! TO.N,/PMOD0_1*
X217170000Y-116840000D03*
G04 #@! TO.N,/PMOD0_5*
X217170000Y-119380000D03*
G04 #@! TO.N,/PMOD0_2*
X214630000Y-116840000D03*
G04 #@! TO.N,/PMOD0_6*
X214630000Y-119380000D03*
G04 #@! TO.N,/PMOD0_3*
X212090000Y-116840000D03*
G04 #@! TO.N,/PMOD0_7*
X212090000Y-119380000D03*
G04 #@! TO.N,GND*
X209550000Y-116840000D03*
X209550000Y-119380000D03*
G04 #@! TO.N,+3V3*
X207010000Y-116840000D03*
X207010000Y-119380000D03*
G04 #@! TD*
G04 #@! TO.N,+3V3*
G04 #@! TO.C,J4*
X229870000Y-119380000D03*
X229870000Y-116840000D03*
G04 #@! TO.N,GND*
X232410000Y-119380000D03*
X232410000Y-116840000D03*
G04 #@! TO.N,/PMOD1_7*
X234950000Y-119380000D03*
G04 #@! TO.N,/PMOD1_3*
X234950000Y-116840000D03*
G04 #@! TO.N,/PMOD1_6*
X237490000Y-119380000D03*
G04 #@! TO.N,/PMOD1_2*
X237490000Y-116840000D03*
G04 #@! TO.N,/PMOD1_5*
X240030000Y-119380000D03*
G04 #@! TO.N,/PMOD1_1*
X240030000Y-116840000D03*
G04 #@! TO.N,/PMOD1_4*
X242570000Y-119380000D03*
D13*
G04 #@! TO.N,/PMOD1_0*
X242570000Y-116840000D03*
G04 #@! TD*
G04 #@! TO.N,VBUS*
G04 #@! TO.C,J6*
X224925056Y-119830226D03*
D14*
G04 #@! TO.N,GND*
X224925056Y-122370226D03*
G04 #@! TD*
D13*
G04 #@! TO.N,/UART_RX*
G04 #@! TO.C,J2*
X232840000Y-87500000D03*
D14*
G04 #@! TO.N,/UART_TX*
X235380000Y-87500000D03*
G04 #@! TO.N,/SWCLK*
X237920000Y-87500000D03*
G04 #@! TO.N,/SWDIO*
X240460000Y-87500000D03*
G04 #@! TO.N,GND*
X243000000Y-87500000D03*
G04 #@! TD*
D15*
G04 #@! TO.N,+3V3*
X215500000Y-103600000D03*
D16*
X230600000Y-102300000D03*
X226800000Y-108300000D03*
X233250000Y-108250000D03*
X233200000Y-101800000D03*
X227300000Y-106000000D03*
X226774295Y-101950010D03*
D15*
X227800000Y-117000000D03*
D16*
X230063495Y-107704760D03*
X232625000Y-102375000D03*
X214250000Y-96200000D03*
X204500000Y-99500000D03*
X236000000Y-111750000D03*
X232140000Y-105520000D03*
D15*
X216800000Y-104200000D03*
D16*
X226400000Y-93400000D03*
X227000000Y-93400000D03*
X219300000Y-99200000D03*
G04 #@! TO.N,GND*
X205000000Y-86000000D03*
X234760000Y-113790000D03*
D15*
X216800000Y-105700000D03*
D16*
X229750000Y-105250000D03*
X230250000Y-104750000D03*
X232300000Y-100500000D03*
X220300000Y-102100000D03*
X225200000Y-102100000D03*
D15*
X215500000Y-106400000D03*
D16*
X229250000Y-111150000D03*
X233580000Y-110150000D03*
D15*
X209500000Y-106400000D03*
X204000000Y-116500000D03*
X203000000Y-117500000D03*
X228346000Y-119634000D03*
X227000000Y-116600000D03*
D16*
X230250000Y-105250000D03*
X229750000Y-104750000D03*
X235250000Y-100150000D03*
X223200000Y-104350000D03*
X220200000Y-96200000D03*
X201000000Y-90000000D03*
X201000000Y-120000000D03*
X205000000Y-124000000D03*
X245000000Y-124000000D03*
X249000000Y-120000000D03*
X245000000Y-86000000D03*
X249000000Y-90000000D03*
X215850000Y-91100000D03*
X226100000Y-108200000D03*
X240800000Y-118100000D03*
X224600000Y-115100000D03*
X224790000Y-118364000D03*
X215300000Y-121000000D03*
X232000000Y-110700000D03*
X243000000Y-100750000D03*
X243000000Y-102250000D03*
X243000000Y-103750000D03*
X243000000Y-105250000D03*
X243000000Y-108250000D03*
X223600000Y-93400000D03*
X226100000Y-110400000D03*
X231100000Y-87500000D03*
X240050000Y-99675000D03*
X233581794Y-108818206D03*
X217900000Y-97000000D03*
X240400000Y-105250000D03*
X240400000Y-103750000D03*
X240400000Y-102250000D03*
X240400000Y-100750000D03*
X218160000Y-91040000D03*
X228265694Y-89534306D03*
X230449990Y-98000000D03*
X232660000Y-105000000D03*
X239850000Y-108500000D03*
X241300000Y-115350000D03*
X239800000Y-106200000D03*
X237520000Y-106050000D03*
X235530000Y-107630000D03*
D15*
X212550000Y-105300000D03*
X205600000Y-105750000D03*
X205600000Y-106600000D03*
X207450000Y-104650000D03*
D16*
X234300000Y-101150000D03*
X225500000Y-95400000D03*
X225500000Y-98600000D03*
X223400000Y-97000000D03*
X227600000Y-97000000D03*
X230500000Y-100500000D03*
X223000000Y-93400000D03*
X215850000Y-94150000D03*
G04 #@! TO.N,+1V1*
X230000000Y-102900000D03*
X231500000Y-102900000D03*
X230700000Y-107500000D03*
D15*
G04 #@! TO.N,VBUS*
X209500000Y-103650000D03*
D16*
X240316085Y-108929311D03*
X237250000Y-111750000D03*
X238500000Y-111750000D03*
G04 #@! TO.N,/SWCLK*
X230825740Y-109317935D03*
G04 #@! TO.N,/SWDIO*
X231420028Y-109235259D03*
G04 #@! TO.N,/PMOD0_4*
X222149968Y-116800000D03*
G04 #@! TO.N,/PMOD1_7*
X228072750Y-110500009D03*
G04 #@! TO.N,/PMOD1_6*
X227151957Y-110385519D03*
G04 #@! TO.N,/PMOD1_5*
X226799434Y-109899987D03*
G04 #@! TO.N,/PMOD1_4*
X226136142Y-109599976D03*
G04 #@! TO.N,/RUN_~RST~*
X231924993Y-109559333D03*
X212306797Y-96950010D03*
G04 #@! TO.N,/UART_RX*
X233104754Y-109342833D03*
X237200000Y-90250000D03*
G04 #@! TO.N,/UART_TX*
X232570132Y-109615217D03*
X237793209Y-89642380D03*
G04 #@! TO.N,/USER_LED_BUTTON*
X205000000Y-94000000D03*
X232792998Y-106437529D03*
G04 #@! TO.N,/uC_DVI_SCL*
X237250000Y-108740000D03*
G04 #@! TO.N,/uC_DVI_SDA*
X238494268Y-109190010D03*
G04 #@! TO.N,/uC_DVI_CEC*
X236000000Y-108224999D03*
G04 #@! TD*
D17*
G04 #@! TO.N,GND*
G36*
X247192645Y-85400000D02*
X247082284Y-85400000D01*
X246310446Y-85719706D01*
X245719706Y-86310446D01*
X245400000Y-87082284D01*
X245400000Y-87917716D01*
X245719706Y-88689554D01*
X246310446Y-89280294D01*
X247082284Y-89600000D01*
X247917716Y-89600000D01*
X248689554Y-89280294D01*
X249280294Y-88689554D01*
X249600000Y-87917716D01*
X249600000Y-87736576D01*
X249625000Y-88016697D01*
X249625001Y-121978205D01*
X249600000Y-122192644D01*
X249600000Y-122082284D01*
X249280294Y-121310446D01*
X248689554Y-120719706D01*
X247917716Y-120400000D01*
X247082284Y-120400000D01*
X246310446Y-120719706D01*
X245719706Y-121310446D01*
X245400000Y-122082284D01*
X245400000Y-122917716D01*
X245719706Y-123689554D01*
X246310446Y-124280294D01*
X247082284Y-124600000D01*
X247263425Y-124600000D01*
X246983304Y-124625000D01*
X203021787Y-124625000D01*
X202807356Y-124600000D01*
X202917716Y-124600000D01*
X203689554Y-124280294D01*
X204280294Y-123689554D01*
X204600000Y-122917716D01*
X204600000Y-122582599D01*
X223743998Y-122582599D01*
X223752627Y-122625992D01*
X223939750Y-123055192D01*
X224276877Y-123380112D01*
X224712683Y-123551286D01*
X224900056Y-123482468D01*
X224900056Y-122395226D01*
X224950056Y-122395226D01*
X224950056Y-123482468D01*
X225137429Y-123551286D01*
X225573235Y-123380112D01*
X225910362Y-123055192D01*
X226097485Y-122625992D01*
X226106114Y-122582599D01*
X226037275Y-122395226D01*
X224950056Y-122395226D01*
X224900056Y-122395226D01*
X223812837Y-122395226D01*
X223743998Y-122582599D01*
X204600000Y-122582599D01*
X204600000Y-122157853D01*
X223743998Y-122157853D01*
X223812837Y-122345226D01*
X224900056Y-122345226D01*
X224900056Y-121257984D01*
X224950056Y-121257984D01*
X224950056Y-122345226D01*
X226037275Y-122345226D01*
X226106114Y-122157853D01*
X226097485Y-122114460D01*
X225910362Y-121685260D01*
X225573235Y-121360340D01*
X225137429Y-121189166D01*
X224950056Y-121257984D01*
X224900056Y-121257984D01*
X224712683Y-121189166D01*
X224276877Y-121360340D01*
X223939750Y-121685260D01*
X223752627Y-122114460D01*
X223743998Y-122157853D01*
X204600000Y-122157853D01*
X204600000Y-122082284D01*
X204280294Y-121310446D01*
X203689554Y-120719706D01*
X202917716Y-120400000D01*
X202082284Y-120400000D01*
X201310446Y-120719706D01*
X200719706Y-121310446D01*
X200400000Y-122082284D01*
X200400000Y-122263425D01*
X200375000Y-121983304D01*
X200375000Y-119380000D01*
X205837471Y-119380000D01*
X205926724Y-119828707D01*
X206180897Y-120209103D01*
X206561293Y-120463276D01*
X206896739Y-120530000D01*
X207123261Y-120530000D01*
X207458707Y-120463276D01*
X207839103Y-120209103D01*
X208093276Y-119828707D01*
X208140285Y-119592373D01*
X208368940Y-119592373D01*
X208540114Y-120028179D01*
X208865034Y-120365306D01*
X209294234Y-120552429D01*
X209337627Y-120561058D01*
X209525000Y-120492219D01*
X209525000Y-119405000D01*
X209575000Y-119405000D01*
X209575000Y-120492219D01*
X209762373Y-120561058D01*
X209805766Y-120552429D01*
X210234966Y-120365306D01*
X210559886Y-120028179D01*
X210731060Y-119592373D01*
X210662242Y-119405000D01*
X209575000Y-119405000D01*
X209525000Y-119405000D01*
X208437758Y-119405000D01*
X208368940Y-119592373D01*
X208140285Y-119592373D01*
X208182529Y-119380000D01*
X210917471Y-119380000D01*
X211006724Y-119828707D01*
X211260897Y-120209103D01*
X211641293Y-120463276D01*
X211976739Y-120530000D01*
X212203261Y-120530000D01*
X212538707Y-120463276D01*
X212919103Y-120209103D01*
X213173276Y-119828707D01*
X213262529Y-119380000D01*
X213457471Y-119380000D01*
X213546724Y-119828707D01*
X213800897Y-120209103D01*
X214181293Y-120463276D01*
X214516739Y-120530000D01*
X214743261Y-120530000D01*
X215078707Y-120463276D01*
X215459103Y-120209103D01*
X215713276Y-119828707D01*
X215802529Y-119380000D01*
X215997471Y-119380000D01*
X216086724Y-119828707D01*
X216340897Y-120209103D01*
X216721293Y-120463276D01*
X217056739Y-120530000D01*
X217283261Y-120530000D01*
X217618707Y-120463276D01*
X217999103Y-120209103D01*
X218253276Y-119828707D01*
X218342529Y-119380000D01*
X218537471Y-119380000D01*
X218626724Y-119828707D01*
X218880897Y-120209103D01*
X219261293Y-120463276D01*
X219596739Y-120530000D01*
X219823261Y-120530000D01*
X220158707Y-120463276D01*
X220539103Y-120209103D01*
X220793276Y-119828707D01*
X220882529Y-119380000D01*
X220803010Y-118980226D01*
X223769179Y-118980226D01*
X223769179Y-120680226D01*
X223792463Y-120797280D01*
X223858768Y-120896514D01*
X223958002Y-120962819D01*
X224075056Y-120986103D01*
X225775056Y-120986103D01*
X225892110Y-120962819D01*
X225991344Y-120896514D01*
X226057649Y-120797280D01*
X226080933Y-120680226D01*
X226080933Y-119380000D01*
X228697471Y-119380000D01*
X228786724Y-119828707D01*
X229040897Y-120209103D01*
X229421293Y-120463276D01*
X229756739Y-120530000D01*
X229983261Y-120530000D01*
X230318707Y-120463276D01*
X230699103Y-120209103D01*
X230953276Y-119828707D01*
X231000285Y-119592373D01*
X231228940Y-119592373D01*
X231400114Y-120028179D01*
X231725034Y-120365306D01*
X232154234Y-120552429D01*
X232197627Y-120561058D01*
X232385000Y-120492219D01*
X232385000Y-119405000D01*
X232435000Y-119405000D01*
X232435000Y-120492219D01*
X232622373Y-120561058D01*
X232665766Y-120552429D01*
X233094966Y-120365306D01*
X233419886Y-120028179D01*
X233591060Y-119592373D01*
X233522242Y-119405000D01*
X232435000Y-119405000D01*
X232385000Y-119405000D01*
X231297758Y-119405000D01*
X231228940Y-119592373D01*
X231000285Y-119592373D01*
X231042529Y-119380000D01*
X233777471Y-119380000D01*
X233866724Y-119828707D01*
X234120897Y-120209103D01*
X234501293Y-120463276D01*
X234836739Y-120530000D01*
X235063261Y-120530000D01*
X235398707Y-120463276D01*
X235779103Y-120209103D01*
X236033276Y-119828707D01*
X236122529Y-119380000D01*
X236317471Y-119380000D01*
X236406724Y-119828707D01*
X236660897Y-120209103D01*
X237041293Y-120463276D01*
X237376739Y-120530000D01*
X237603261Y-120530000D01*
X237938707Y-120463276D01*
X238319103Y-120209103D01*
X238573276Y-119828707D01*
X238662529Y-119380000D01*
X238857471Y-119380000D01*
X238946724Y-119828707D01*
X239200897Y-120209103D01*
X239581293Y-120463276D01*
X239916739Y-120530000D01*
X240143261Y-120530000D01*
X240478707Y-120463276D01*
X240859103Y-120209103D01*
X241113276Y-119828707D01*
X241202529Y-119380000D01*
X241397471Y-119380000D01*
X241486724Y-119828707D01*
X241740897Y-120209103D01*
X242121293Y-120463276D01*
X242456739Y-120530000D01*
X242683261Y-120530000D01*
X243018707Y-120463276D01*
X243399103Y-120209103D01*
X243653276Y-119828707D01*
X243742529Y-119380000D01*
X243653276Y-118931293D01*
X243399103Y-118550897D01*
X243018707Y-118296724D01*
X242683261Y-118230000D01*
X242456739Y-118230000D01*
X242121293Y-118296724D01*
X241740897Y-118550897D01*
X241486724Y-118931293D01*
X241397471Y-119380000D01*
X241202529Y-119380000D01*
X241113276Y-118931293D01*
X240859103Y-118550897D01*
X240478707Y-118296724D01*
X240143261Y-118230000D01*
X239916739Y-118230000D01*
X239581293Y-118296724D01*
X239200897Y-118550897D01*
X238946724Y-118931293D01*
X238857471Y-119380000D01*
X238662529Y-119380000D01*
X238573276Y-118931293D01*
X238319103Y-118550897D01*
X237938707Y-118296724D01*
X237603261Y-118230000D01*
X237376739Y-118230000D01*
X237041293Y-118296724D01*
X236660897Y-118550897D01*
X236406724Y-118931293D01*
X236317471Y-119380000D01*
X236122529Y-119380000D01*
X236033276Y-118931293D01*
X235779103Y-118550897D01*
X235398707Y-118296724D01*
X235063261Y-118230000D01*
X234836739Y-118230000D01*
X234501293Y-118296724D01*
X234120897Y-118550897D01*
X233866724Y-118931293D01*
X233777471Y-119380000D01*
X231042529Y-119380000D01*
X231000286Y-119167627D01*
X231228940Y-119167627D01*
X231297758Y-119355000D01*
X232385000Y-119355000D01*
X232385000Y-118267781D01*
X232435000Y-118267781D01*
X232435000Y-119355000D01*
X233522242Y-119355000D01*
X233591060Y-119167627D01*
X233419886Y-118731821D01*
X233094966Y-118394694D01*
X232665766Y-118207571D01*
X232622373Y-118198942D01*
X232435000Y-118267781D01*
X232385000Y-118267781D01*
X232197627Y-118198942D01*
X232154234Y-118207571D01*
X231725034Y-118394694D01*
X231400114Y-118731821D01*
X231228940Y-119167627D01*
X231000286Y-119167627D01*
X230953276Y-118931293D01*
X230699103Y-118550897D01*
X230318707Y-118296724D01*
X229983261Y-118230000D01*
X229756739Y-118230000D01*
X229421293Y-118296724D01*
X229040897Y-118550897D01*
X228786724Y-118931293D01*
X228697471Y-119380000D01*
X226080933Y-119380000D01*
X226080933Y-118980226D01*
X226057649Y-118863172D01*
X225991344Y-118763938D01*
X225892110Y-118697633D01*
X225775056Y-118674349D01*
X224075056Y-118674349D01*
X223958002Y-118697633D01*
X223858768Y-118763938D01*
X223792463Y-118863172D01*
X223769179Y-118980226D01*
X220803010Y-118980226D01*
X220793276Y-118931293D01*
X220539103Y-118550897D01*
X220158707Y-118296724D01*
X219823261Y-118230000D01*
X219596739Y-118230000D01*
X219261293Y-118296724D01*
X218880897Y-118550897D01*
X218626724Y-118931293D01*
X218537471Y-119380000D01*
X218342529Y-119380000D01*
X218253276Y-118931293D01*
X217999103Y-118550897D01*
X217618707Y-118296724D01*
X217283261Y-118230000D01*
X217056739Y-118230000D01*
X216721293Y-118296724D01*
X216340897Y-118550897D01*
X216086724Y-118931293D01*
X215997471Y-119380000D01*
X215802529Y-119380000D01*
X215713276Y-118931293D01*
X215459103Y-118550897D01*
X215078707Y-118296724D01*
X214743261Y-118230000D01*
X214516739Y-118230000D01*
X214181293Y-118296724D01*
X213800897Y-118550897D01*
X213546724Y-118931293D01*
X213457471Y-119380000D01*
X213262529Y-119380000D01*
X213173276Y-118931293D01*
X212919103Y-118550897D01*
X212538707Y-118296724D01*
X212203261Y-118230000D01*
X211976739Y-118230000D01*
X211641293Y-118296724D01*
X211260897Y-118550897D01*
X211006724Y-118931293D01*
X210917471Y-119380000D01*
X208182529Y-119380000D01*
X208140286Y-119167627D01*
X208368940Y-119167627D01*
X208437758Y-119355000D01*
X209525000Y-119355000D01*
X209525000Y-118267781D01*
X209575000Y-118267781D01*
X209575000Y-119355000D01*
X210662242Y-119355000D01*
X210731060Y-119167627D01*
X210559886Y-118731821D01*
X210234966Y-118394694D01*
X209805766Y-118207571D01*
X209762373Y-118198942D01*
X209575000Y-118267781D01*
X209525000Y-118267781D01*
X209337627Y-118198942D01*
X209294234Y-118207571D01*
X208865034Y-118394694D01*
X208540114Y-118731821D01*
X208368940Y-119167627D01*
X208140286Y-119167627D01*
X208093276Y-118931293D01*
X207839103Y-118550897D01*
X207458707Y-118296724D01*
X207123261Y-118230000D01*
X206896739Y-118230000D01*
X206561293Y-118296724D01*
X206180897Y-118550897D01*
X205926724Y-118931293D01*
X205837471Y-119380000D01*
X200375000Y-119380000D01*
X200375000Y-116840000D01*
X205837471Y-116840000D01*
X205926724Y-117288707D01*
X206180897Y-117669103D01*
X206561293Y-117923276D01*
X206896739Y-117990000D01*
X207123261Y-117990000D01*
X207458707Y-117923276D01*
X207839103Y-117669103D01*
X208093276Y-117288707D01*
X208140285Y-117052373D01*
X208368940Y-117052373D01*
X208540114Y-117488179D01*
X208865034Y-117825306D01*
X209294234Y-118012429D01*
X209337627Y-118021058D01*
X209525000Y-117952219D01*
X209525000Y-116865000D01*
X209575000Y-116865000D01*
X209575000Y-117952219D01*
X209762373Y-118021058D01*
X209805766Y-118012429D01*
X210234966Y-117825306D01*
X210559886Y-117488179D01*
X210731060Y-117052373D01*
X210662242Y-116865000D01*
X209575000Y-116865000D01*
X209525000Y-116865000D01*
X208437758Y-116865000D01*
X208368940Y-117052373D01*
X208140285Y-117052373D01*
X208182529Y-116840000D01*
X210917471Y-116840000D01*
X211006724Y-117288707D01*
X211260897Y-117669103D01*
X211641293Y-117923276D01*
X211976739Y-117990000D01*
X212203261Y-117990000D01*
X212538707Y-117923276D01*
X212919103Y-117669103D01*
X213173276Y-117288707D01*
X213262529Y-116840000D01*
X213457471Y-116840000D01*
X213546724Y-117288707D01*
X213800897Y-117669103D01*
X214181293Y-117923276D01*
X214516739Y-117990000D01*
X214743261Y-117990000D01*
X215078707Y-117923276D01*
X215459103Y-117669103D01*
X215713276Y-117288707D01*
X215802529Y-116840000D01*
X215997471Y-116840000D01*
X216086724Y-117288707D01*
X216340897Y-117669103D01*
X216721293Y-117923276D01*
X217056739Y-117990000D01*
X217283261Y-117990000D01*
X217618707Y-117923276D01*
X217999103Y-117669103D01*
X218253276Y-117288707D01*
X218342529Y-116840000D01*
X218253276Y-116391293D01*
X217999103Y-116010897D01*
X217967829Y-115990000D01*
X218554123Y-115990000D01*
X218554123Y-117690000D01*
X218577407Y-117807054D01*
X218643712Y-117906288D01*
X218742946Y-117972593D01*
X218860000Y-117995877D01*
X220560000Y-117995877D01*
X220677054Y-117972593D01*
X220776288Y-117906288D01*
X220842593Y-117807054D01*
X220865877Y-117690000D01*
X220865877Y-116695571D01*
X221624968Y-116695571D01*
X221624968Y-116904429D01*
X221704895Y-117097388D01*
X221852580Y-117245073D01*
X222045539Y-117325000D01*
X222254397Y-117325000D01*
X222447356Y-117245073D01*
X222595041Y-117097388D01*
X222674968Y-116904429D01*
X222674968Y-116880653D01*
X227200000Y-116880653D01*
X227200000Y-117119347D01*
X227291344Y-117339873D01*
X227460127Y-117508656D01*
X227680653Y-117600000D01*
X227919347Y-117600000D01*
X228139873Y-117508656D01*
X228308656Y-117339873D01*
X228400000Y-117119347D01*
X228400000Y-116880653D01*
X228383162Y-116840000D01*
X228697471Y-116840000D01*
X228786724Y-117288707D01*
X229040897Y-117669103D01*
X229421293Y-117923276D01*
X229756739Y-117990000D01*
X229983261Y-117990000D01*
X230318707Y-117923276D01*
X230699103Y-117669103D01*
X230953276Y-117288707D01*
X231000285Y-117052373D01*
X231228940Y-117052373D01*
X231400114Y-117488179D01*
X231725034Y-117825306D01*
X232154234Y-118012429D01*
X232197627Y-118021058D01*
X232385000Y-117952219D01*
X232385000Y-116865000D01*
X232435000Y-116865000D01*
X232435000Y-117952219D01*
X232622373Y-118021058D01*
X232665766Y-118012429D01*
X233094966Y-117825306D01*
X233419886Y-117488179D01*
X233591060Y-117052373D01*
X233522242Y-116865000D01*
X232435000Y-116865000D01*
X232385000Y-116865000D01*
X231297758Y-116865000D01*
X231228940Y-117052373D01*
X231000285Y-117052373D01*
X231042529Y-116840000D01*
X233777471Y-116840000D01*
X233866724Y-117288707D01*
X234120897Y-117669103D01*
X234501293Y-117923276D01*
X234836739Y-117990000D01*
X235063261Y-117990000D01*
X235398707Y-117923276D01*
X235779103Y-117669103D01*
X236033276Y-117288707D01*
X236122529Y-116840000D01*
X236317471Y-116840000D01*
X236406724Y-117288707D01*
X236660897Y-117669103D01*
X237041293Y-117923276D01*
X237376739Y-117990000D01*
X237603261Y-117990000D01*
X237938707Y-117923276D01*
X238319103Y-117669103D01*
X238573276Y-117288707D01*
X238662529Y-116840000D01*
X238857471Y-116840000D01*
X238946724Y-117288707D01*
X239200897Y-117669103D01*
X239581293Y-117923276D01*
X239916739Y-117990000D01*
X240143261Y-117990000D01*
X240478707Y-117923276D01*
X240859103Y-117669103D01*
X241113276Y-117288707D01*
X241202529Y-116840000D01*
X241113276Y-116391293D01*
X240859103Y-116010897D01*
X240827829Y-115990000D01*
X241414123Y-115990000D01*
X241414123Y-117690000D01*
X241437407Y-117807054D01*
X241503712Y-117906288D01*
X241602946Y-117972593D01*
X241720000Y-117995877D01*
X243420000Y-117995877D01*
X243537054Y-117972593D01*
X243636288Y-117906288D01*
X243702593Y-117807054D01*
X243725877Y-117690000D01*
X243725877Y-115990000D01*
X243702593Y-115872946D01*
X243636288Y-115773712D01*
X243537054Y-115707407D01*
X243420000Y-115684123D01*
X241720000Y-115684123D01*
X241602946Y-115707407D01*
X241503712Y-115773712D01*
X241437407Y-115872946D01*
X241414123Y-115990000D01*
X240827829Y-115990000D01*
X240478707Y-115756724D01*
X240143261Y-115690000D01*
X239916739Y-115690000D01*
X239581293Y-115756724D01*
X239200897Y-116010897D01*
X238946724Y-116391293D01*
X238857471Y-116840000D01*
X238662529Y-116840000D01*
X238573276Y-116391293D01*
X238319103Y-116010897D01*
X237938707Y-115756724D01*
X237603261Y-115690000D01*
X237376739Y-115690000D01*
X237041293Y-115756724D01*
X236660897Y-116010897D01*
X236406724Y-116391293D01*
X236317471Y-116840000D01*
X236122529Y-116840000D01*
X236033276Y-116391293D01*
X235779103Y-116010897D01*
X235398707Y-115756724D01*
X235063261Y-115690000D01*
X234836739Y-115690000D01*
X234501293Y-115756724D01*
X234120897Y-116010897D01*
X233866724Y-116391293D01*
X233777471Y-116840000D01*
X231042529Y-116840000D01*
X231000286Y-116627627D01*
X231228940Y-116627627D01*
X231297758Y-116815000D01*
X232385000Y-116815000D01*
X232385000Y-115727781D01*
X232435000Y-115727781D01*
X232435000Y-116815000D01*
X233522242Y-116815000D01*
X233591060Y-116627627D01*
X233419886Y-116191821D01*
X233094966Y-115854694D01*
X232665766Y-115667571D01*
X232622373Y-115658942D01*
X232435000Y-115727781D01*
X232385000Y-115727781D01*
X232197627Y-115658942D01*
X232154234Y-115667571D01*
X231725034Y-115854694D01*
X231400114Y-116191821D01*
X231228940Y-116627627D01*
X231000286Y-116627627D01*
X230953276Y-116391293D01*
X230699103Y-116010897D01*
X230318707Y-115756724D01*
X229983261Y-115690000D01*
X229756739Y-115690000D01*
X229421293Y-115756724D01*
X229040897Y-116010897D01*
X228786724Y-116391293D01*
X228697471Y-116840000D01*
X228383162Y-116840000D01*
X228308656Y-116660127D01*
X228139873Y-116491344D01*
X227919347Y-116400000D01*
X227680653Y-116400000D01*
X227460127Y-116491344D01*
X227291344Y-116660127D01*
X227200000Y-116880653D01*
X222674968Y-116880653D01*
X222674968Y-116695571D01*
X222595041Y-116502612D01*
X222447356Y-116354927D01*
X222254397Y-116275000D01*
X222045539Y-116275000D01*
X221852580Y-116354927D01*
X221704895Y-116502612D01*
X221624968Y-116695571D01*
X220865877Y-116695571D01*
X220865877Y-115990000D01*
X220842593Y-115872946D01*
X220776288Y-115773712D01*
X220677054Y-115707407D01*
X220560000Y-115684123D01*
X218860000Y-115684123D01*
X218742946Y-115707407D01*
X218643712Y-115773712D01*
X218577407Y-115872946D01*
X218554123Y-115990000D01*
X217967829Y-115990000D01*
X217618707Y-115756724D01*
X217283261Y-115690000D01*
X217056739Y-115690000D01*
X216721293Y-115756724D01*
X216340897Y-116010897D01*
X216086724Y-116391293D01*
X215997471Y-116840000D01*
X215802529Y-116840000D01*
X215713276Y-116391293D01*
X215459103Y-116010897D01*
X215078707Y-115756724D01*
X214743261Y-115690000D01*
X214516739Y-115690000D01*
X214181293Y-115756724D01*
X213800897Y-116010897D01*
X213546724Y-116391293D01*
X213457471Y-116840000D01*
X213262529Y-116840000D01*
X213173276Y-116391293D01*
X212919103Y-116010897D01*
X212538707Y-115756724D01*
X212203261Y-115690000D01*
X211976739Y-115690000D01*
X211641293Y-115756724D01*
X211260897Y-116010897D01*
X211006724Y-116391293D01*
X210917471Y-116840000D01*
X208182529Y-116840000D01*
X208140286Y-116627627D01*
X208368940Y-116627627D01*
X208437758Y-116815000D01*
X209525000Y-116815000D01*
X209525000Y-115727781D01*
X209575000Y-115727781D01*
X209575000Y-116815000D01*
X210662242Y-116815000D01*
X210731060Y-116627627D01*
X210559886Y-116191821D01*
X210234966Y-115854694D01*
X209805766Y-115667571D01*
X209762373Y-115658942D01*
X209575000Y-115727781D01*
X209525000Y-115727781D01*
X209337627Y-115658942D01*
X209294234Y-115667571D01*
X208865034Y-115854694D01*
X208540114Y-116191821D01*
X208368940Y-116627627D01*
X208140286Y-116627627D01*
X208093276Y-116391293D01*
X207839103Y-116010897D01*
X207458707Y-115756724D01*
X207123261Y-115690000D01*
X206896739Y-115690000D01*
X206561293Y-115756724D01*
X206180897Y-116010897D01*
X205926724Y-116391293D01*
X205837471Y-116840000D01*
X200375000Y-116840000D01*
X200375000Y-113742876D01*
X246542480Y-113742876D01*
X246641273Y-113936830D01*
X247114940Y-114144452D01*
X247632004Y-114155006D01*
X248113747Y-113966884D01*
X248158727Y-113936830D01*
X248257520Y-113742876D01*
X247400000Y-112885355D01*
X246542480Y-113742876D01*
X200375000Y-113742876D01*
X200375000Y-113142876D01*
X241642480Y-113142876D01*
X241741273Y-113336830D01*
X242214940Y-113544452D01*
X242732004Y-113555006D01*
X243213747Y-113366884D01*
X243258727Y-113336830D01*
X243357520Y-113142876D01*
X242500000Y-112285355D01*
X241642480Y-113142876D01*
X200375000Y-113142876D01*
X200375000Y-112482004D01*
X241194994Y-112482004D01*
X241383116Y-112963747D01*
X241413170Y-113008727D01*
X241607124Y-113107520D01*
X242464645Y-112250000D01*
X242535355Y-112250000D01*
X243392876Y-113107520D01*
X243442969Y-113082004D01*
X246094994Y-113082004D01*
X246283116Y-113563747D01*
X246313170Y-113608727D01*
X246507124Y-113707520D01*
X247364645Y-112850000D01*
X247435355Y-112850000D01*
X248292876Y-113707520D01*
X248486830Y-113608727D01*
X248694452Y-113135060D01*
X248705006Y-112617996D01*
X248516884Y-112136253D01*
X248486830Y-112091273D01*
X248292876Y-111992480D01*
X247435355Y-112850000D01*
X247364645Y-112850000D01*
X246507124Y-111992480D01*
X246313170Y-112091273D01*
X246105548Y-112564940D01*
X246094994Y-113082004D01*
X243442969Y-113082004D01*
X243586830Y-113008727D01*
X243794452Y-112535060D01*
X243805006Y-112017996D01*
X243781236Y-111957124D01*
X246542480Y-111957124D01*
X247400000Y-112814645D01*
X248257520Y-111957124D01*
X248158727Y-111763170D01*
X247685060Y-111555548D01*
X247167996Y-111544994D01*
X246686253Y-111733116D01*
X246641273Y-111763170D01*
X246542480Y-111957124D01*
X243781236Y-111957124D01*
X243616884Y-111536253D01*
X243586830Y-111491273D01*
X243392876Y-111392480D01*
X242535355Y-112250000D01*
X242464645Y-112250000D01*
X241607124Y-111392480D01*
X241413170Y-111491273D01*
X241205548Y-111964940D01*
X241194994Y-112482004D01*
X200375000Y-112482004D01*
X200375000Y-111645571D01*
X235475000Y-111645571D01*
X235475000Y-111854429D01*
X235554927Y-112047388D01*
X235702612Y-112195073D01*
X235895571Y-112275000D01*
X236104429Y-112275000D01*
X236297388Y-112195073D01*
X236445073Y-112047388D01*
X236525000Y-111854429D01*
X236525000Y-111645571D01*
X236725000Y-111645571D01*
X236725000Y-111854429D01*
X236804927Y-112047388D01*
X236952612Y-112195073D01*
X237145571Y-112275000D01*
X237354429Y-112275000D01*
X237547388Y-112195073D01*
X237695073Y-112047388D01*
X237775000Y-111854429D01*
X237775000Y-111645571D01*
X237975000Y-111645571D01*
X237975000Y-111854429D01*
X238054927Y-112047388D01*
X238202612Y-112195073D01*
X238395571Y-112275000D01*
X238604429Y-112275000D01*
X238797388Y-112195073D01*
X238945073Y-112047388D01*
X239025000Y-111854429D01*
X239025000Y-111645571D01*
X238945073Y-111452612D01*
X238849585Y-111357124D01*
X241642480Y-111357124D01*
X242500000Y-112214645D01*
X243357520Y-111357124D01*
X243258727Y-111163170D01*
X242785060Y-110955548D01*
X242267996Y-110944994D01*
X241786253Y-111133116D01*
X241741273Y-111163170D01*
X241642480Y-111357124D01*
X238849585Y-111357124D01*
X238797388Y-111304927D01*
X238604429Y-111225000D01*
X238395571Y-111225000D01*
X238202612Y-111304927D01*
X238054927Y-111452612D01*
X237975000Y-111645571D01*
X237775000Y-111645571D01*
X237695073Y-111452612D01*
X237547388Y-111304927D01*
X237354429Y-111225000D01*
X237145571Y-111225000D01*
X236952612Y-111304927D01*
X236804927Y-111452612D01*
X236725000Y-111645571D01*
X236525000Y-111645571D01*
X236445073Y-111452612D01*
X236297388Y-111304927D01*
X236104429Y-111225000D01*
X235895571Y-111225000D01*
X235702612Y-111304927D01*
X235554927Y-111452612D01*
X235475000Y-111645571D01*
X200375000Y-111645571D01*
X200375000Y-109495547D01*
X225611142Y-109495547D01*
X225611142Y-109704405D01*
X225691069Y-109897364D01*
X225838754Y-110045049D01*
X226031713Y-110124976D01*
X226240571Y-110124976D01*
X226312099Y-110095348D01*
X226354361Y-110197375D01*
X226502046Y-110345060D01*
X226626957Y-110396800D01*
X226626957Y-110489948D01*
X226706884Y-110682907D01*
X226854569Y-110830592D01*
X227047528Y-110910519D01*
X227256386Y-110910519D01*
X227449345Y-110830592D01*
X227585167Y-110694770D01*
X227627677Y-110797397D01*
X227775362Y-110945082D01*
X227968321Y-111025009D01*
X228177179Y-111025009D01*
X228370138Y-110945082D01*
X228517823Y-110797397D01*
X228597750Y-110604438D01*
X228597750Y-110395580D01*
X228517823Y-110202621D01*
X228370138Y-110054936D01*
X228177179Y-109975009D01*
X227968321Y-109975009D01*
X227775362Y-110054936D01*
X227639540Y-110190758D01*
X227597030Y-110088131D01*
X227449345Y-109940446D01*
X227324434Y-109888706D01*
X227324434Y-109795558D01*
X227244507Y-109602599D01*
X227096822Y-109454914D01*
X226903863Y-109374987D01*
X226695005Y-109374987D01*
X226623477Y-109404615D01*
X226581215Y-109302588D01*
X226492133Y-109213506D01*
X230300740Y-109213506D01*
X230300740Y-109422364D01*
X230380667Y-109615323D01*
X230528352Y-109763008D01*
X230721311Y-109842935D01*
X230930169Y-109842935D01*
X231123128Y-109763008D01*
X231181446Y-109704690D01*
X231315599Y-109760259D01*
X231439964Y-109760259D01*
X231479920Y-109856721D01*
X231627605Y-110004406D01*
X231820564Y-110084333D01*
X232029422Y-110084333D01*
X232218477Y-110006023D01*
X232272744Y-110060290D01*
X232465703Y-110140217D01*
X232674561Y-110140217D01*
X232867520Y-110060290D01*
X233015205Y-109912605D01*
X233033750Y-109867833D01*
X233209183Y-109867833D01*
X233402142Y-109787906D01*
X233549827Y-109640221D01*
X233629754Y-109447262D01*
X233629754Y-109238404D01*
X233549827Y-109045445D01*
X233402142Y-108897760D01*
X233209183Y-108817833D01*
X233000325Y-108817833D01*
X232807366Y-108897760D01*
X232659681Y-109045445D01*
X232641136Y-109090217D01*
X232465703Y-109090217D01*
X232276648Y-109168527D01*
X232222381Y-109114260D01*
X232029422Y-109034333D01*
X231905057Y-109034333D01*
X231865101Y-108937871D01*
X231717416Y-108790186D01*
X231524457Y-108710259D01*
X231315599Y-108710259D01*
X231122640Y-108790186D01*
X231064322Y-108848504D01*
X230930169Y-108792935D01*
X230721311Y-108792935D01*
X230528352Y-108872862D01*
X230380667Y-109020547D01*
X230300740Y-109213506D01*
X226492133Y-109213506D01*
X226433530Y-109154903D01*
X226240571Y-109074976D01*
X226031713Y-109074976D01*
X225838754Y-109154903D01*
X225691069Y-109302588D01*
X225611142Y-109495547D01*
X200375000Y-109495547D01*
X200375000Y-109077863D01*
X200423071Y-109154073D01*
X200725854Y-109368118D01*
X201087500Y-109450000D01*
X201437500Y-109450000D01*
X201437500Y-108525000D01*
X201487500Y-108525000D01*
X201487500Y-109450000D01*
X201837500Y-109450000D01*
X202199146Y-109368118D01*
X202501929Y-109154073D01*
X202699752Y-108840452D01*
X202746568Y-108673253D01*
X202674638Y-108525000D01*
X201487500Y-108525000D01*
X201437500Y-108525000D01*
X201417500Y-108525000D01*
X201417500Y-108475000D01*
X201437500Y-108475000D01*
X201437500Y-107550000D01*
X201487500Y-107550000D01*
X201487500Y-108475000D01*
X202674638Y-108475000D01*
X202746568Y-108326747D01*
X202719652Y-108230618D01*
X203467237Y-108230618D01*
X203538645Y-108401195D01*
X203931006Y-108571335D01*
X204358609Y-108578373D01*
X204756357Y-108421239D01*
X204786355Y-108401195D01*
X204857763Y-108230618D01*
X204822716Y-108195571D01*
X226275000Y-108195571D01*
X226275000Y-108404429D01*
X226354927Y-108597388D01*
X226502612Y-108745073D01*
X226695571Y-108825000D01*
X226904429Y-108825000D01*
X227097388Y-108745073D01*
X227245073Y-108597388D01*
X227325000Y-108404429D01*
X227325000Y-108195571D01*
X227245073Y-108002612D01*
X227097388Y-107854927D01*
X226904429Y-107775000D01*
X226695571Y-107775000D01*
X226502612Y-107854927D01*
X226354927Y-108002612D01*
X226275000Y-108195571D01*
X204822716Y-108195571D01*
X204162500Y-107535355D01*
X203467237Y-108230618D01*
X202719652Y-108230618D01*
X202699752Y-108159548D01*
X202501929Y-107845927D01*
X202290000Y-107696109D01*
X203084127Y-107696109D01*
X203241261Y-108093857D01*
X203261305Y-108123855D01*
X203431882Y-108195263D01*
X204127145Y-107500000D01*
X204197855Y-107500000D01*
X204893118Y-108195263D01*
X205063695Y-108123855D01*
X205233835Y-107731494D01*
X205235993Y-107600331D01*
X229538495Y-107600331D01*
X229538495Y-107809189D01*
X229618422Y-108002148D01*
X229766107Y-108149833D01*
X229959066Y-108229760D01*
X230167924Y-108229760D01*
X230360883Y-108149833D01*
X230365145Y-108145571D01*
X232725000Y-108145571D01*
X232725000Y-108354429D01*
X232804927Y-108547388D01*
X232952612Y-108695073D01*
X233145571Y-108775000D01*
X233354429Y-108775000D01*
X233547388Y-108695073D01*
X233695073Y-108547388D01*
X233775000Y-108354429D01*
X233775000Y-108145571D01*
X233764645Y-108120570D01*
X235475000Y-108120570D01*
X235475000Y-108329428D01*
X235554927Y-108522387D01*
X235702612Y-108670072D01*
X235895571Y-108749999D01*
X236104429Y-108749999D01*
X236297388Y-108670072D01*
X236331889Y-108635571D01*
X236725000Y-108635571D01*
X236725000Y-108844429D01*
X236804927Y-109037388D01*
X236952612Y-109185073D01*
X237145571Y-109265000D01*
X237354429Y-109265000D01*
X237547388Y-109185073D01*
X237646880Y-109085581D01*
X237969268Y-109085581D01*
X237969268Y-109294439D01*
X238049195Y-109487398D01*
X238196880Y-109635083D01*
X238389839Y-109715010D01*
X238598697Y-109715010D01*
X238791656Y-109635083D01*
X238939341Y-109487398D01*
X239019268Y-109294439D01*
X239019268Y-109085581D01*
X238939341Y-108892622D01*
X238871601Y-108824882D01*
X239791085Y-108824882D01*
X239791085Y-109033740D01*
X239871012Y-109226699D01*
X240018697Y-109374384D01*
X240211656Y-109454311D01*
X240420514Y-109454311D01*
X240613473Y-109374384D01*
X240761158Y-109226699D01*
X240841085Y-109033740D01*
X240841085Y-108824882D01*
X240761158Y-108631923D01*
X240613473Y-108484238D01*
X240420514Y-108404311D01*
X240211656Y-108404311D01*
X240018697Y-108484238D01*
X239871012Y-108631923D01*
X239791085Y-108824882D01*
X238871601Y-108824882D01*
X238791656Y-108744937D01*
X238598697Y-108665010D01*
X238389839Y-108665010D01*
X238196880Y-108744937D01*
X238049195Y-108892622D01*
X237969268Y-109085581D01*
X237646880Y-109085581D01*
X237695073Y-109037388D01*
X237775000Y-108844429D01*
X237775000Y-108635571D01*
X237695073Y-108442612D01*
X237547388Y-108294927D01*
X237354429Y-108215000D01*
X237145571Y-108215000D01*
X236952612Y-108294927D01*
X236804927Y-108442612D01*
X236725000Y-108635571D01*
X236331889Y-108635571D01*
X236445073Y-108522387D01*
X236525000Y-108329428D01*
X236525000Y-108120570D01*
X236445073Y-107927611D01*
X236297388Y-107779926D01*
X236104429Y-107699999D01*
X235895571Y-107699999D01*
X235702612Y-107779926D01*
X235554927Y-107927611D01*
X235475000Y-108120570D01*
X233764645Y-108120570D01*
X233695073Y-107952612D01*
X233547388Y-107804927D01*
X233354429Y-107725000D01*
X233145571Y-107725000D01*
X232952612Y-107804927D01*
X232804927Y-107952612D01*
X232725000Y-108145571D01*
X230365145Y-108145571D01*
X230508568Y-108002148D01*
X230513230Y-107990893D01*
X230595571Y-108025000D01*
X230804429Y-108025000D01*
X230997388Y-107945073D01*
X231145073Y-107797388D01*
X231225000Y-107604429D01*
X231225000Y-107395571D01*
X231145073Y-107202612D01*
X230997388Y-107054927D01*
X230804429Y-106975000D01*
X230595571Y-106975000D01*
X230402612Y-107054927D01*
X230254927Y-107202612D01*
X230250265Y-107213867D01*
X230167924Y-107179760D01*
X229959066Y-107179760D01*
X229766107Y-107259687D01*
X229618422Y-107407372D01*
X229538495Y-107600331D01*
X205235993Y-107600331D01*
X205240873Y-107303891D01*
X205083739Y-106906143D01*
X205063695Y-106876145D01*
X204893118Y-106804737D01*
X204197855Y-107500000D01*
X204127145Y-107500000D01*
X203431882Y-106804737D01*
X203261305Y-106876145D01*
X203091165Y-107268506D01*
X203084127Y-107696109D01*
X202290000Y-107696109D01*
X202199146Y-107631882D01*
X201837500Y-107550000D01*
X201487500Y-107550000D01*
X201437500Y-107550000D01*
X201087500Y-107550000D01*
X200725854Y-107631882D01*
X200423071Y-107845927D01*
X200375000Y-107922137D01*
X200375000Y-106769382D01*
X203467237Y-106769382D01*
X204162500Y-107464645D01*
X204857763Y-106769382D01*
X204786355Y-106598805D01*
X204393994Y-106428665D01*
X203966391Y-106421627D01*
X203568643Y-106578761D01*
X203538645Y-106598805D01*
X203467237Y-106769382D01*
X200375000Y-106769382D01*
X200375000Y-105895571D01*
X226775000Y-105895571D01*
X226775000Y-106104429D01*
X226854927Y-106297388D01*
X227002612Y-106445073D01*
X227195571Y-106525000D01*
X227404429Y-106525000D01*
X227597388Y-106445073D01*
X227709361Y-106333100D01*
X232267998Y-106333100D01*
X232267998Y-106541958D01*
X232347925Y-106734917D01*
X232495610Y-106882602D01*
X232688569Y-106962529D01*
X232897427Y-106962529D01*
X233090386Y-106882602D01*
X233238071Y-106734917D01*
X233317998Y-106541958D01*
X233317998Y-106333100D01*
X233238071Y-106140141D01*
X233090386Y-105992456D01*
X232897427Y-105912529D01*
X232688569Y-105912529D01*
X232495610Y-105992456D01*
X232347925Y-106140141D01*
X232267998Y-106333100D01*
X227709361Y-106333100D01*
X227745073Y-106297388D01*
X227825000Y-106104429D01*
X227825000Y-105895571D01*
X227745073Y-105702612D01*
X227597388Y-105554927D01*
X227404429Y-105475000D01*
X227195571Y-105475000D01*
X227002612Y-105554927D01*
X226854927Y-105702612D01*
X226775000Y-105895571D01*
X200375000Y-105895571D01*
X200375000Y-105415571D01*
X231615000Y-105415571D01*
X231615000Y-105624429D01*
X231694927Y-105817388D01*
X231842612Y-105965073D01*
X232035571Y-106045000D01*
X232244429Y-106045000D01*
X232437388Y-105965073D01*
X232585073Y-105817388D01*
X232665000Y-105624429D01*
X232665000Y-105415571D01*
X232585073Y-105222612D01*
X232437388Y-105074927D01*
X232244429Y-104995000D01*
X232035571Y-104995000D01*
X231842612Y-105074927D01*
X231694927Y-105222612D01*
X231615000Y-105415571D01*
X200375000Y-105415571D01*
X200375000Y-103230618D01*
X203467237Y-103230618D01*
X203538645Y-103401195D01*
X203931006Y-103571335D01*
X204358609Y-103578373D01*
X204479401Y-103530653D01*
X208900000Y-103530653D01*
X208900000Y-103769347D01*
X208991344Y-103989873D01*
X209160127Y-104158656D01*
X209380653Y-104250000D01*
X209619347Y-104250000D01*
X209839873Y-104158656D01*
X210008656Y-103989873D01*
X210100000Y-103769347D01*
X210100000Y-103530653D01*
X210079290Y-103480653D01*
X214900000Y-103480653D01*
X214900000Y-103719347D01*
X214991344Y-103939873D01*
X215160127Y-104108656D01*
X215380653Y-104200000D01*
X215619347Y-104200000D01*
X215839873Y-104108656D01*
X215867876Y-104080653D01*
X216200000Y-104080653D01*
X216200000Y-104319347D01*
X216291344Y-104539873D01*
X216460127Y-104708656D01*
X216680653Y-104800000D01*
X216919347Y-104800000D01*
X217139873Y-104708656D01*
X217308656Y-104539873D01*
X217400000Y-104319347D01*
X217400000Y-104080653D01*
X217308656Y-103860127D01*
X217139873Y-103691344D01*
X216919347Y-103600000D01*
X216680653Y-103600000D01*
X216460127Y-103691344D01*
X216291344Y-103860127D01*
X216200000Y-104080653D01*
X215867876Y-104080653D01*
X216008656Y-103939873D01*
X216100000Y-103719347D01*
X216100000Y-103480653D01*
X216008656Y-103260127D01*
X215839873Y-103091344D01*
X215619347Y-103000000D01*
X215380653Y-103000000D01*
X215160127Y-103091344D01*
X214991344Y-103260127D01*
X214900000Y-103480653D01*
X210079290Y-103480653D01*
X210008656Y-103310127D01*
X209839873Y-103141344D01*
X209619347Y-103050000D01*
X209380653Y-103050000D01*
X209160127Y-103141344D01*
X208991344Y-103310127D01*
X208900000Y-103530653D01*
X204479401Y-103530653D01*
X204756357Y-103421239D01*
X204786355Y-103401195D01*
X204857763Y-103230618D01*
X204162500Y-102535355D01*
X203467237Y-103230618D01*
X200375000Y-103230618D01*
X200375000Y-102696109D01*
X203084127Y-102696109D01*
X203241261Y-103093857D01*
X203261305Y-103123855D01*
X203431882Y-103195263D01*
X204127145Y-102500000D01*
X204197855Y-102500000D01*
X204893118Y-103195263D01*
X205063695Y-103123855D01*
X205206049Y-102795571D01*
X229475000Y-102795571D01*
X229475000Y-103004429D01*
X229554927Y-103197388D01*
X229702612Y-103345073D01*
X229895571Y-103425000D01*
X230104429Y-103425000D01*
X230297388Y-103345073D01*
X230445073Y-103197388D01*
X230525000Y-103004429D01*
X230525000Y-102825000D01*
X230704429Y-102825000D01*
X230775476Y-102795571D01*
X230975000Y-102795571D01*
X230975000Y-103004429D01*
X231054927Y-103197388D01*
X231202612Y-103345073D01*
X231395571Y-103425000D01*
X231604429Y-103425000D01*
X231797388Y-103345073D01*
X231945073Y-103197388D01*
X232025000Y-103004429D01*
X232025000Y-102795571D01*
X231945073Y-102602612D01*
X231797388Y-102454927D01*
X231604429Y-102375000D01*
X231395571Y-102375000D01*
X231202612Y-102454927D01*
X231054927Y-102602612D01*
X230975000Y-102795571D01*
X230775476Y-102795571D01*
X230897388Y-102745073D01*
X231045073Y-102597388D01*
X231125000Y-102404429D01*
X231125000Y-102270571D01*
X232100000Y-102270571D01*
X232100000Y-102479429D01*
X232179927Y-102672388D01*
X232327612Y-102820073D01*
X232520571Y-102900000D01*
X232729429Y-102900000D01*
X232922388Y-102820073D01*
X233070073Y-102672388D01*
X233150000Y-102479429D01*
X233150000Y-102325000D01*
X233304429Y-102325000D01*
X233497388Y-102245073D01*
X233645073Y-102097388D01*
X233725000Y-101904429D01*
X233725000Y-101695571D01*
X233645073Y-101502612D01*
X233497388Y-101354927D01*
X233304429Y-101275000D01*
X233095571Y-101275000D01*
X232902612Y-101354927D01*
X232754927Y-101502612D01*
X232675000Y-101695571D01*
X232675000Y-101850000D01*
X232520571Y-101850000D01*
X232327612Y-101929927D01*
X232179927Y-102077612D01*
X232100000Y-102270571D01*
X231125000Y-102270571D01*
X231125000Y-102195571D01*
X231045073Y-102002612D01*
X230897388Y-101854927D01*
X230704429Y-101775000D01*
X230495571Y-101775000D01*
X230302612Y-101854927D01*
X230154927Y-102002612D01*
X230075000Y-102195571D01*
X230075000Y-102375000D01*
X229895571Y-102375000D01*
X229702612Y-102454927D01*
X229554927Y-102602612D01*
X229475000Y-102795571D01*
X205206049Y-102795571D01*
X205233835Y-102731494D01*
X205240873Y-102303891D01*
X205083739Y-101906143D01*
X205063695Y-101876145D01*
X204990685Y-101845581D01*
X226249295Y-101845581D01*
X226249295Y-102054439D01*
X226329222Y-102247398D01*
X226476907Y-102395083D01*
X226669866Y-102475010D01*
X226878724Y-102475010D01*
X227071683Y-102395083D01*
X227219368Y-102247398D01*
X227299295Y-102054439D01*
X227299295Y-101845581D01*
X227219368Y-101652622D01*
X227071683Y-101504937D01*
X226878724Y-101425010D01*
X226669866Y-101425010D01*
X226476907Y-101504937D01*
X226329222Y-101652622D01*
X226249295Y-101845581D01*
X204990685Y-101845581D01*
X204893118Y-101804737D01*
X204197855Y-102500000D01*
X204127145Y-102500000D01*
X203431882Y-101804737D01*
X203261305Y-101876145D01*
X203091165Y-102268506D01*
X203084127Y-102696109D01*
X200375000Y-102696109D01*
X200375000Y-102077863D01*
X200423071Y-102154073D01*
X200725854Y-102368118D01*
X201087500Y-102450000D01*
X201437500Y-102450000D01*
X201437500Y-101525000D01*
X201487500Y-101525000D01*
X201487500Y-102450000D01*
X201837500Y-102450000D01*
X202199146Y-102368118D01*
X202501929Y-102154073D01*
X202699752Y-101840452D01*
X202719651Y-101769382D01*
X203467237Y-101769382D01*
X204162500Y-102464645D01*
X204857763Y-101769382D01*
X204786355Y-101598805D01*
X204393994Y-101428665D01*
X203966391Y-101421627D01*
X203568643Y-101578761D01*
X203538645Y-101598805D01*
X203467237Y-101769382D01*
X202719651Y-101769382D01*
X202746568Y-101673253D01*
X202674638Y-101525000D01*
X201487500Y-101525000D01*
X201437500Y-101525000D01*
X201417500Y-101525000D01*
X201417500Y-101475000D01*
X201437500Y-101475000D01*
X201437500Y-100550000D01*
X201487500Y-100550000D01*
X201487500Y-101475000D01*
X202674638Y-101475000D01*
X202746568Y-101326747D01*
X202699752Y-101159548D01*
X202501929Y-100845927D01*
X202199146Y-100631882D01*
X201837500Y-100550000D01*
X201487500Y-100550000D01*
X201437500Y-100550000D01*
X201087500Y-100550000D01*
X200725854Y-100631882D01*
X200423071Y-100845927D01*
X200375000Y-100922137D01*
X200375000Y-99395571D01*
X203975000Y-99395571D01*
X203975000Y-99604429D01*
X204054927Y-99797388D01*
X204202612Y-99945073D01*
X204395571Y-100025000D01*
X204604429Y-100025000D01*
X204797388Y-99945073D01*
X204945073Y-99797388D01*
X205025000Y-99604429D01*
X205025000Y-99395571D01*
X204945073Y-99202612D01*
X204838032Y-99095571D01*
X218775000Y-99095571D01*
X218775000Y-99304429D01*
X218854927Y-99497388D01*
X219002612Y-99645073D01*
X219195571Y-99725000D01*
X219404429Y-99725000D01*
X219597388Y-99645073D01*
X219745073Y-99497388D01*
X219825000Y-99304429D01*
X219825000Y-99095571D01*
X219745073Y-98902612D01*
X219597388Y-98754927D01*
X219404429Y-98675000D01*
X219195571Y-98675000D01*
X219002612Y-98754927D01*
X218854927Y-98902612D01*
X218775000Y-99095571D01*
X204838032Y-99095571D01*
X204797388Y-99054927D01*
X204604429Y-98975000D01*
X204395571Y-98975000D01*
X204202612Y-99054927D01*
X204054927Y-99202612D01*
X203975000Y-99395571D01*
X200375000Y-99395571D01*
X200375000Y-98642876D01*
X241642480Y-98642876D01*
X241741273Y-98836830D01*
X242214940Y-99044452D01*
X242732004Y-99055006D01*
X243213747Y-98866884D01*
X243258727Y-98836830D01*
X243357520Y-98642876D01*
X242500000Y-97785355D01*
X241642480Y-98642876D01*
X200375000Y-98642876D01*
X200375000Y-97982004D01*
X241194994Y-97982004D01*
X241383116Y-98463747D01*
X241413170Y-98508727D01*
X241607124Y-98607520D01*
X242464645Y-97750000D01*
X242535355Y-97750000D01*
X243392876Y-98607520D01*
X243586830Y-98508727D01*
X243791026Y-98042876D01*
X246542480Y-98042876D01*
X246641273Y-98236830D01*
X247114940Y-98444452D01*
X247632004Y-98455006D01*
X248113747Y-98266884D01*
X248158727Y-98236830D01*
X248257520Y-98042876D01*
X247400000Y-97185355D01*
X246542480Y-98042876D01*
X243791026Y-98042876D01*
X243794452Y-98035060D01*
X243805006Y-97517996D01*
X243751901Y-97382004D01*
X246094994Y-97382004D01*
X246283116Y-97863747D01*
X246313170Y-97908727D01*
X246507124Y-98007520D01*
X247364645Y-97150000D01*
X247435355Y-97150000D01*
X248292876Y-98007520D01*
X248486830Y-97908727D01*
X248694452Y-97435060D01*
X248705006Y-96917996D01*
X248516884Y-96436253D01*
X248486830Y-96391273D01*
X248292876Y-96292480D01*
X247435355Y-97150000D01*
X247364645Y-97150000D01*
X246507124Y-96292480D01*
X246313170Y-96391273D01*
X246105548Y-96864940D01*
X246094994Y-97382004D01*
X243751901Y-97382004D01*
X243616884Y-97036253D01*
X243586830Y-96991273D01*
X243392876Y-96892480D01*
X242535355Y-97750000D01*
X242464645Y-97750000D01*
X241607124Y-96892480D01*
X241413170Y-96991273D01*
X241205548Y-97464940D01*
X241194994Y-97982004D01*
X200375000Y-97982004D01*
X200375000Y-96845581D01*
X211781797Y-96845581D01*
X211781797Y-97054439D01*
X211861724Y-97247398D01*
X212009409Y-97395083D01*
X212202368Y-97475010D01*
X212411226Y-97475010D01*
X212604185Y-97395083D01*
X212751870Y-97247398D01*
X212831797Y-97054439D01*
X212831797Y-96857124D01*
X241642480Y-96857124D01*
X242500000Y-97714645D01*
X243357520Y-96857124D01*
X243258727Y-96663170D01*
X242785060Y-96455548D01*
X242267996Y-96444994D01*
X241786253Y-96633116D01*
X241741273Y-96663170D01*
X241642480Y-96857124D01*
X212831797Y-96857124D01*
X212831797Y-96845581D01*
X212751870Y-96652622D01*
X212604185Y-96504937D01*
X212411226Y-96425010D01*
X212202368Y-96425010D01*
X212009409Y-96504937D01*
X211861724Y-96652622D01*
X211781797Y-96845581D01*
X200375000Y-96845581D01*
X200375000Y-96095571D01*
X213725000Y-96095571D01*
X213725000Y-96304429D01*
X213804927Y-96497388D01*
X213952612Y-96645073D01*
X214145571Y-96725000D01*
X214354429Y-96725000D01*
X214547388Y-96645073D01*
X214695073Y-96497388D01*
X214775000Y-96304429D01*
X214775000Y-96257124D01*
X246542480Y-96257124D01*
X247400000Y-97114645D01*
X248257520Y-96257124D01*
X248158727Y-96063170D01*
X247685060Y-95855548D01*
X247167996Y-95844994D01*
X246686253Y-96033116D01*
X246641273Y-96063170D01*
X246542480Y-96257124D01*
X214775000Y-96257124D01*
X214775000Y-96095571D01*
X214695073Y-95902612D01*
X214547388Y-95754927D01*
X214354429Y-95675000D01*
X214145571Y-95675000D01*
X213952612Y-95754927D01*
X213804927Y-95902612D01*
X213725000Y-96095571D01*
X200375000Y-96095571D01*
X200375000Y-93895571D01*
X204475000Y-93895571D01*
X204475000Y-94104429D01*
X204554927Y-94297388D01*
X204702612Y-94445073D01*
X204895571Y-94525000D01*
X205104429Y-94525000D01*
X205297388Y-94445073D01*
X205445073Y-94297388D01*
X205525000Y-94104429D01*
X205525000Y-93895571D01*
X205445073Y-93702612D01*
X205297388Y-93554927D01*
X205104429Y-93475000D01*
X204895571Y-93475000D01*
X204702612Y-93554927D01*
X204554927Y-93702612D01*
X204475000Y-93895571D01*
X200375000Y-93895571D01*
X200375000Y-93295571D01*
X225875000Y-93295571D01*
X225875000Y-93504429D01*
X225954927Y-93697388D01*
X226102612Y-93845073D01*
X226295571Y-93925000D01*
X226504429Y-93925000D01*
X226697388Y-93845073D01*
X226700000Y-93842461D01*
X226702612Y-93845073D01*
X226895571Y-93925000D01*
X227104429Y-93925000D01*
X227297388Y-93845073D01*
X227445073Y-93697388D01*
X227525000Y-93504429D01*
X227525000Y-93295571D01*
X227445073Y-93102612D01*
X227297388Y-92954927D01*
X227104429Y-92875000D01*
X226895571Y-92875000D01*
X226702612Y-92954927D01*
X226700000Y-92957539D01*
X226697388Y-92954927D01*
X226504429Y-92875000D01*
X226295571Y-92875000D01*
X226102612Y-92954927D01*
X225954927Y-93102612D01*
X225875000Y-93295571D01*
X200375000Y-93295571D01*
X200375000Y-90145571D01*
X236675000Y-90145571D01*
X236675000Y-90354429D01*
X236754927Y-90547388D01*
X236902612Y-90695073D01*
X237095571Y-90775000D01*
X237304429Y-90775000D01*
X237497388Y-90695073D01*
X237645073Y-90547388D01*
X237725000Y-90354429D01*
X237725000Y-90167380D01*
X237897638Y-90167380D01*
X238090597Y-90087453D01*
X238238282Y-89939768D01*
X238318209Y-89746809D01*
X238318209Y-89537951D01*
X238238282Y-89344992D01*
X238090597Y-89197307D01*
X237897638Y-89117380D01*
X237688780Y-89117380D01*
X237495821Y-89197307D01*
X237348136Y-89344992D01*
X237268209Y-89537951D01*
X237268209Y-89725000D01*
X237095571Y-89725000D01*
X236902612Y-89804927D01*
X236754927Y-89952612D01*
X236675000Y-90145571D01*
X200375000Y-90145571D01*
X200375000Y-88021786D01*
X200400000Y-87807355D01*
X200400000Y-87917716D01*
X200719706Y-88689554D01*
X201310446Y-89280294D01*
X202082284Y-89600000D01*
X202917716Y-89600000D01*
X203689554Y-89280294D01*
X204280294Y-88689554D01*
X204600000Y-87917716D01*
X204600000Y-87082284D01*
X204420942Y-86650000D01*
X231684123Y-86650000D01*
X231684123Y-88350000D01*
X231707407Y-88467054D01*
X231773712Y-88566288D01*
X231872946Y-88632593D01*
X231990000Y-88655877D01*
X233690000Y-88655877D01*
X233807054Y-88632593D01*
X233906288Y-88566288D01*
X233972593Y-88467054D01*
X233995877Y-88350000D01*
X233995877Y-87500000D01*
X234207471Y-87500000D01*
X234296724Y-87948707D01*
X234550897Y-88329103D01*
X234931293Y-88583276D01*
X235266739Y-88650000D01*
X235493261Y-88650000D01*
X235828707Y-88583276D01*
X236209103Y-88329103D01*
X236463276Y-87948707D01*
X236552529Y-87500000D01*
X236747471Y-87500000D01*
X236836724Y-87948707D01*
X237090897Y-88329103D01*
X237471293Y-88583276D01*
X237806739Y-88650000D01*
X238033261Y-88650000D01*
X238368707Y-88583276D01*
X238749103Y-88329103D01*
X239003276Y-87948707D01*
X239092529Y-87500000D01*
X239287471Y-87500000D01*
X239376724Y-87948707D01*
X239630897Y-88329103D01*
X240011293Y-88583276D01*
X240346739Y-88650000D01*
X240573261Y-88650000D01*
X240908707Y-88583276D01*
X241289103Y-88329103D01*
X241543276Y-87948707D01*
X241590285Y-87712373D01*
X241818940Y-87712373D01*
X241990114Y-88148179D01*
X242315034Y-88485306D01*
X242744234Y-88672429D01*
X242787627Y-88681058D01*
X242975000Y-88612219D01*
X242975000Y-87525000D01*
X243025000Y-87525000D01*
X243025000Y-88612219D01*
X243212373Y-88681058D01*
X243255766Y-88672429D01*
X243684966Y-88485306D01*
X244009886Y-88148179D01*
X244181060Y-87712373D01*
X244112242Y-87525000D01*
X243025000Y-87525000D01*
X242975000Y-87525000D01*
X241887758Y-87525000D01*
X241818940Y-87712373D01*
X241590285Y-87712373D01*
X241632529Y-87500000D01*
X241590286Y-87287627D01*
X241818940Y-87287627D01*
X241887758Y-87475000D01*
X242975000Y-87475000D01*
X242975000Y-86387781D01*
X243025000Y-86387781D01*
X243025000Y-87475000D01*
X244112242Y-87475000D01*
X244181060Y-87287627D01*
X244009886Y-86851821D01*
X243684966Y-86514694D01*
X243255766Y-86327571D01*
X243212373Y-86318942D01*
X243025000Y-86387781D01*
X242975000Y-86387781D01*
X242787627Y-86318942D01*
X242744234Y-86327571D01*
X242315034Y-86514694D01*
X241990114Y-86851821D01*
X241818940Y-87287627D01*
X241590286Y-87287627D01*
X241543276Y-87051293D01*
X241289103Y-86670897D01*
X240908707Y-86416724D01*
X240573261Y-86350000D01*
X240346739Y-86350000D01*
X240011293Y-86416724D01*
X239630897Y-86670897D01*
X239376724Y-87051293D01*
X239287471Y-87500000D01*
X239092529Y-87500000D01*
X239003276Y-87051293D01*
X238749103Y-86670897D01*
X238368707Y-86416724D01*
X238033261Y-86350000D01*
X237806739Y-86350000D01*
X237471293Y-86416724D01*
X237090897Y-86670897D01*
X236836724Y-87051293D01*
X236747471Y-87500000D01*
X236552529Y-87500000D01*
X236463276Y-87051293D01*
X236209103Y-86670897D01*
X235828707Y-86416724D01*
X235493261Y-86350000D01*
X235266739Y-86350000D01*
X234931293Y-86416724D01*
X234550897Y-86670897D01*
X234296724Y-87051293D01*
X234207471Y-87500000D01*
X233995877Y-87500000D01*
X233995877Y-86650000D01*
X233972593Y-86532946D01*
X233906288Y-86433712D01*
X233807054Y-86367407D01*
X233690000Y-86344123D01*
X231990000Y-86344123D01*
X231872946Y-86367407D01*
X231773712Y-86433712D01*
X231707407Y-86532946D01*
X231684123Y-86650000D01*
X204420942Y-86650000D01*
X204280294Y-86310446D01*
X203689554Y-85719706D01*
X202917716Y-85400000D01*
X202736576Y-85400000D01*
X203016697Y-85375000D01*
X246978214Y-85375000D01*
X247192645Y-85400000D01*
X247192645Y-85400000D01*
G37*
X247192645Y-85400000D02*
X247082284Y-85400000D01*
X246310446Y-85719706D01*
X245719706Y-86310446D01*
X245400000Y-87082284D01*
X245400000Y-87917716D01*
X245719706Y-88689554D01*
X246310446Y-89280294D01*
X247082284Y-89600000D01*
X247917716Y-89600000D01*
X248689554Y-89280294D01*
X249280294Y-88689554D01*
X249600000Y-87917716D01*
X249600000Y-87736576D01*
X249625000Y-88016697D01*
X249625001Y-121978205D01*
X249600000Y-122192644D01*
X249600000Y-122082284D01*
X249280294Y-121310446D01*
X248689554Y-120719706D01*
X247917716Y-120400000D01*
X247082284Y-120400000D01*
X246310446Y-120719706D01*
X245719706Y-121310446D01*
X245400000Y-122082284D01*
X245400000Y-122917716D01*
X245719706Y-123689554D01*
X246310446Y-124280294D01*
X247082284Y-124600000D01*
X247263425Y-124600000D01*
X246983304Y-124625000D01*
X203021787Y-124625000D01*
X202807356Y-124600000D01*
X202917716Y-124600000D01*
X203689554Y-124280294D01*
X204280294Y-123689554D01*
X204600000Y-122917716D01*
X204600000Y-122582599D01*
X223743998Y-122582599D01*
X223752627Y-122625992D01*
X223939750Y-123055192D01*
X224276877Y-123380112D01*
X224712683Y-123551286D01*
X224900056Y-123482468D01*
X224900056Y-122395226D01*
X224950056Y-122395226D01*
X224950056Y-123482468D01*
X225137429Y-123551286D01*
X225573235Y-123380112D01*
X225910362Y-123055192D01*
X226097485Y-122625992D01*
X226106114Y-122582599D01*
X226037275Y-122395226D01*
X224950056Y-122395226D01*
X224900056Y-122395226D01*
X223812837Y-122395226D01*
X223743998Y-122582599D01*
X204600000Y-122582599D01*
X204600000Y-122157853D01*
X223743998Y-122157853D01*
X223812837Y-122345226D01*
X224900056Y-122345226D01*
X224900056Y-121257984D01*
X224950056Y-121257984D01*
X224950056Y-122345226D01*
X226037275Y-122345226D01*
X226106114Y-122157853D01*
X226097485Y-122114460D01*
X225910362Y-121685260D01*
X225573235Y-121360340D01*
X225137429Y-121189166D01*
X224950056Y-121257984D01*
X224900056Y-121257984D01*
X224712683Y-121189166D01*
X224276877Y-121360340D01*
X223939750Y-121685260D01*
X223752627Y-122114460D01*
X223743998Y-122157853D01*
X204600000Y-122157853D01*
X204600000Y-122082284D01*
X204280294Y-121310446D01*
X203689554Y-120719706D01*
X202917716Y-120400000D01*
X202082284Y-120400000D01*
X201310446Y-120719706D01*
X200719706Y-121310446D01*
X200400000Y-122082284D01*
X200400000Y-122263425D01*
X200375000Y-121983304D01*
X200375000Y-119380000D01*
X205837471Y-119380000D01*
X205926724Y-119828707D01*
X206180897Y-120209103D01*
X206561293Y-120463276D01*
X206896739Y-120530000D01*
X207123261Y-120530000D01*
X207458707Y-120463276D01*
X207839103Y-120209103D01*
X208093276Y-119828707D01*
X208140285Y-119592373D01*
X208368940Y-119592373D01*
X208540114Y-120028179D01*
X208865034Y-120365306D01*
X209294234Y-120552429D01*
X209337627Y-120561058D01*
X209525000Y-120492219D01*
X209525000Y-119405000D01*
X209575000Y-119405000D01*
X209575000Y-120492219D01*
X209762373Y-120561058D01*
X209805766Y-120552429D01*
X210234966Y-120365306D01*
X210559886Y-120028179D01*
X210731060Y-119592373D01*
X210662242Y-119405000D01*
X209575000Y-119405000D01*
X209525000Y-119405000D01*
X208437758Y-119405000D01*
X208368940Y-119592373D01*
X208140285Y-119592373D01*
X208182529Y-119380000D01*
X210917471Y-119380000D01*
X211006724Y-119828707D01*
X211260897Y-120209103D01*
X211641293Y-120463276D01*
X211976739Y-120530000D01*
X212203261Y-120530000D01*
X212538707Y-120463276D01*
X212919103Y-120209103D01*
X213173276Y-119828707D01*
X213262529Y-119380000D01*
X213457471Y-119380000D01*
X213546724Y-119828707D01*
X213800897Y-120209103D01*
X214181293Y-120463276D01*
X214516739Y-120530000D01*
X214743261Y-120530000D01*
X215078707Y-120463276D01*
X215459103Y-120209103D01*
X215713276Y-119828707D01*
X215802529Y-119380000D01*
X215997471Y-119380000D01*
X216086724Y-119828707D01*
X216340897Y-120209103D01*
X216721293Y-120463276D01*
X217056739Y-120530000D01*
X217283261Y-120530000D01*
X217618707Y-120463276D01*
X217999103Y-120209103D01*
X218253276Y-119828707D01*
X218342529Y-119380000D01*
X218537471Y-119380000D01*
X218626724Y-119828707D01*
X218880897Y-120209103D01*
X219261293Y-120463276D01*
X219596739Y-120530000D01*
X219823261Y-120530000D01*
X220158707Y-120463276D01*
X220539103Y-120209103D01*
X220793276Y-119828707D01*
X220882529Y-119380000D01*
X220803010Y-118980226D01*
X223769179Y-118980226D01*
X223769179Y-120680226D01*
X223792463Y-120797280D01*
X223858768Y-120896514D01*
X223958002Y-120962819D01*
X224075056Y-120986103D01*
X225775056Y-120986103D01*
X225892110Y-120962819D01*
X225991344Y-120896514D01*
X226057649Y-120797280D01*
X226080933Y-120680226D01*
X226080933Y-119380000D01*
X228697471Y-119380000D01*
X228786724Y-119828707D01*
X229040897Y-120209103D01*
X229421293Y-120463276D01*
X229756739Y-120530000D01*
X229983261Y-120530000D01*
X230318707Y-120463276D01*
X230699103Y-120209103D01*
X230953276Y-119828707D01*
X231000285Y-119592373D01*
X231228940Y-119592373D01*
X231400114Y-120028179D01*
X231725034Y-120365306D01*
X232154234Y-120552429D01*
X232197627Y-120561058D01*
X232385000Y-120492219D01*
X232385000Y-119405000D01*
X232435000Y-119405000D01*
X232435000Y-120492219D01*
X232622373Y-120561058D01*
X232665766Y-120552429D01*
X233094966Y-120365306D01*
X233419886Y-120028179D01*
X233591060Y-119592373D01*
X233522242Y-119405000D01*
X232435000Y-119405000D01*
X232385000Y-119405000D01*
X231297758Y-119405000D01*
X231228940Y-119592373D01*
X231000285Y-119592373D01*
X231042529Y-119380000D01*
X233777471Y-119380000D01*
X233866724Y-119828707D01*
X234120897Y-120209103D01*
X234501293Y-120463276D01*
X234836739Y-120530000D01*
X235063261Y-120530000D01*
X235398707Y-120463276D01*
X235779103Y-120209103D01*
X236033276Y-119828707D01*
X236122529Y-119380000D01*
X236317471Y-119380000D01*
X236406724Y-119828707D01*
X236660897Y-120209103D01*
X237041293Y-120463276D01*
X237376739Y-120530000D01*
X237603261Y-120530000D01*
X237938707Y-120463276D01*
X238319103Y-120209103D01*
X238573276Y-119828707D01*
X238662529Y-119380000D01*
X238857471Y-119380000D01*
X238946724Y-119828707D01*
X239200897Y-120209103D01*
X239581293Y-120463276D01*
X239916739Y-120530000D01*
X240143261Y-120530000D01*
X240478707Y-120463276D01*
X240859103Y-120209103D01*
X241113276Y-119828707D01*
X241202529Y-119380000D01*
X241397471Y-119380000D01*
X241486724Y-119828707D01*
X241740897Y-120209103D01*
X242121293Y-120463276D01*
X242456739Y-120530000D01*
X242683261Y-120530000D01*
X243018707Y-120463276D01*
X243399103Y-120209103D01*
X243653276Y-119828707D01*
X243742529Y-119380000D01*
X243653276Y-118931293D01*
X243399103Y-118550897D01*
X243018707Y-118296724D01*
X242683261Y-118230000D01*
X242456739Y-118230000D01*
X242121293Y-118296724D01*
X241740897Y-118550897D01*
X241486724Y-118931293D01*
X241397471Y-119380000D01*
X241202529Y-119380000D01*
X241113276Y-118931293D01*
X240859103Y-118550897D01*
X240478707Y-118296724D01*
X240143261Y-118230000D01*
X239916739Y-118230000D01*
X239581293Y-118296724D01*
X239200897Y-118550897D01*
X238946724Y-118931293D01*
X238857471Y-119380000D01*
X238662529Y-119380000D01*
X238573276Y-118931293D01*
X238319103Y-118550897D01*
X237938707Y-118296724D01*
X237603261Y-118230000D01*
X237376739Y-118230000D01*
X237041293Y-118296724D01*
X236660897Y-118550897D01*
X236406724Y-118931293D01*
X236317471Y-119380000D01*
X236122529Y-119380000D01*
X236033276Y-118931293D01*
X235779103Y-118550897D01*
X235398707Y-118296724D01*
X235063261Y-118230000D01*
X234836739Y-118230000D01*
X234501293Y-118296724D01*
X234120897Y-118550897D01*
X233866724Y-118931293D01*
X233777471Y-119380000D01*
X231042529Y-119380000D01*
X231000286Y-119167627D01*
X231228940Y-119167627D01*
X231297758Y-119355000D01*
X232385000Y-119355000D01*
X232385000Y-118267781D01*
X232435000Y-118267781D01*
X232435000Y-119355000D01*
X233522242Y-119355000D01*
X233591060Y-119167627D01*
X233419886Y-118731821D01*
X233094966Y-118394694D01*
X232665766Y-118207571D01*
X232622373Y-118198942D01*
X232435000Y-118267781D01*
X232385000Y-118267781D01*
X232197627Y-118198942D01*
X232154234Y-118207571D01*
X231725034Y-118394694D01*
X231400114Y-118731821D01*
X231228940Y-119167627D01*
X231000286Y-119167627D01*
X230953276Y-118931293D01*
X230699103Y-118550897D01*
X230318707Y-118296724D01*
X229983261Y-118230000D01*
X229756739Y-118230000D01*
X229421293Y-118296724D01*
X229040897Y-118550897D01*
X228786724Y-118931293D01*
X228697471Y-119380000D01*
X226080933Y-119380000D01*
X226080933Y-118980226D01*
X226057649Y-118863172D01*
X225991344Y-118763938D01*
X225892110Y-118697633D01*
X225775056Y-118674349D01*
X224075056Y-118674349D01*
X223958002Y-118697633D01*
X223858768Y-118763938D01*
X223792463Y-118863172D01*
X223769179Y-118980226D01*
X220803010Y-118980226D01*
X220793276Y-118931293D01*
X220539103Y-118550897D01*
X220158707Y-118296724D01*
X219823261Y-118230000D01*
X219596739Y-118230000D01*
X219261293Y-118296724D01*
X218880897Y-118550897D01*
X218626724Y-118931293D01*
X218537471Y-119380000D01*
X218342529Y-119380000D01*
X218253276Y-118931293D01*
X217999103Y-118550897D01*
X217618707Y-118296724D01*
X217283261Y-118230000D01*
X217056739Y-118230000D01*
X216721293Y-118296724D01*
X216340897Y-118550897D01*
X216086724Y-118931293D01*
X215997471Y-119380000D01*
X215802529Y-119380000D01*
X215713276Y-118931293D01*
X215459103Y-118550897D01*
X215078707Y-118296724D01*
X214743261Y-118230000D01*
X214516739Y-118230000D01*
X214181293Y-118296724D01*
X213800897Y-118550897D01*
X213546724Y-118931293D01*
X213457471Y-119380000D01*
X213262529Y-119380000D01*
X213173276Y-118931293D01*
X212919103Y-118550897D01*
X212538707Y-118296724D01*
X212203261Y-118230000D01*
X211976739Y-118230000D01*
X211641293Y-118296724D01*
X211260897Y-118550897D01*
X211006724Y-118931293D01*
X210917471Y-119380000D01*
X208182529Y-119380000D01*
X208140286Y-119167627D01*
X208368940Y-119167627D01*
X208437758Y-119355000D01*
X209525000Y-119355000D01*
X209525000Y-118267781D01*
X209575000Y-118267781D01*
X209575000Y-119355000D01*
X210662242Y-119355000D01*
X210731060Y-119167627D01*
X210559886Y-118731821D01*
X210234966Y-118394694D01*
X209805766Y-118207571D01*
X209762373Y-118198942D01*
X209575000Y-118267781D01*
X209525000Y-118267781D01*
X209337627Y-118198942D01*
X209294234Y-118207571D01*
X208865034Y-118394694D01*
X208540114Y-118731821D01*
X208368940Y-119167627D01*
X208140286Y-119167627D01*
X208093276Y-118931293D01*
X207839103Y-118550897D01*
X207458707Y-118296724D01*
X207123261Y-118230000D01*
X206896739Y-118230000D01*
X206561293Y-118296724D01*
X206180897Y-118550897D01*
X205926724Y-118931293D01*
X205837471Y-119380000D01*
X200375000Y-119380000D01*
X200375000Y-116840000D01*
X205837471Y-116840000D01*
X205926724Y-117288707D01*
X206180897Y-117669103D01*
X206561293Y-117923276D01*
X206896739Y-117990000D01*
X207123261Y-117990000D01*
X207458707Y-117923276D01*
X207839103Y-117669103D01*
X208093276Y-117288707D01*
X208140285Y-117052373D01*
X208368940Y-117052373D01*
X208540114Y-117488179D01*
X208865034Y-117825306D01*
X209294234Y-118012429D01*
X209337627Y-118021058D01*
X209525000Y-117952219D01*
X209525000Y-116865000D01*
X209575000Y-116865000D01*
X209575000Y-117952219D01*
X209762373Y-118021058D01*
X209805766Y-118012429D01*
X210234966Y-117825306D01*
X210559886Y-117488179D01*
X210731060Y-117052373D01*
X210662242Y-116865000D01*
X209575000Y-116865000D01*
X209525000Y-116865000D01*
X208437758Y-116865000D01*
X208368940Y-117052373D01*
X208140285Y-117052373D01*
X208182529Y-116840000D01*
X210917471Y-116840000D01*
X211006724Y-117288707D01*
X211260897Y-117669103D01*
X211641293Y-117923276D01*
X211976739Y-117990000D01*
X212203261Y-117990000D01*
X212538707Y-117923276D01*
X212919103Y-117669103D01*
X213173276Y-117288707D01*
X213262529Y-116840000D01*
X213457471Y-116840000D01*
X213546724Y-117288707D01*
X213800897Y-117669103D01*
X214181293Y-117923276D01*
X214516739Y-117990000D01*
X214743261Y-117990000D01*
X215078707Y-117923276D01*
X215459103Y-117669103D01*
X215713276Y-117288707D01*
X215802529Y-116840000D01*
X215997471Y-116840000D01*
X216086724Y-117288707D01*
X216340897Y-117669103D01*
X216721293Y-117923276D01*
X217056739Y-117990000D01*
X217283261Y-117990000D01*
X217618707Y-117923276D01*
X217999103Y-117669103D01*
X218253276Y-117288707D01*
X218342529Y-116840000D01*
X218253276Y-116391293D01*
X217999103Y-116010897D01*
X217967829Y-115990000D01*
X218554123Y-115990000D01*
X218554123Y-117690000D01*
X218577407Y-117807054D01*
X218643712Y-117906288D01*
X218742946Y-117972593D01*
X218860000Y-117995877D01*
X220560000Y-117995877D01*
X220677054Y-117972593D01*
X220776288Y-117906288D01*
X220842593Y-117807054D01*
X220865877Y-117690000D01*
X220865877Y-116695571D01*
X221624968Y-116695571D01*
X221624968Y-116904429D01*
X221704895Y-117097388D01*
X221852580Y-117245073D01*
X222045539Y-117325000D01*
X222254397Y-117325000D01*
X222447356Y-117245073D01*
X222595041Y-117097388D01*
X222674968Y-116904429D01*
X222674968Y-116880653D01*
X227200000Y-116880653D01*
X227200000Y-117119347D01*
X227291344Y-117339873D01*
X227460127Y-117508656D01*
X227680653Y-117600000D01*
X227919347Y-117600000D01*
X228139873Y-117508656D01*
X228308656Y-117339873D01*
X228400000Y-117119347D01*
X228400000Y-116880653D01*
X228383162Y-116840000D01*
X228697471Y-116840000D01*
X228786724Y-117288707D01*
X229040897Y-117669103D01*
X229421293Y-117923276D01*
X229756739Y-117990000D01*
X229983261Y-117990000D01*
X230318707Y-117923276D01*
X230699103Y-117669103D01*
X230953276Y-117288707D01*
X231000285Y-117052373D01*
X231228940Y-117052373D01*
X231400114Y-117488179D01*
X231725034Y-117825306D01*
X232154234Y-118012429D01*
X232197627Y-118021058D01*
X232385000Y-117952219D01*
X232385000Y-116865000D01*
X232435000Y-116865000D01*
X232435000Y-117952219D01*
X232622373Y-118021058D01*
X232665766Y-118012429D01*
X233094966Y-117825306D01*
X233419886Y-117488179D01*
X233591060Y-117052373D01*
X233522242Y-116865000D01*
X232435000Y-116865000D01*
X232385000Y-116865000D01*
X231297758Y-116865000D01*
X231228940Y-117052373D01*
X231000285Y-117052373D01*
X231042529Y-116840000D01*
X233777471Y-116840000D01*
X233866724Y-117288707D01*
X234120897Y-117669103D01*
X234501293Y-117923276D01*
X234836739Y-117990000D01*
X235063261Y-117990000D01*
X235398707Y-117923276D01*
X235779103Y-117669103D01*
X236033276Y-117288707D01*
X236122529Y-116840000D01*
X236317471Y-116840000D01*
X236406724Y-117288707D01*
X236660897Y-117669103D01*
X237041293Y-117923276D01*
X237376739Y-117990000D01*
X237603261Y-117990000D01*
X237938707Y-117923276D01*
X238319103Y-117669103D01*
X238573276Y-117288707D01*
X238662529Y-116840000D01*
X238857471Y-116840000D01*
X238946724Y-117288707D01*
X239200897Y-117669103D01*
X239581293Y-117923276D01*
X239916739Y-117990000D01*
X240143261Y-117990000D01*
X240478707Y-117923276D01*
X240859103Y-117669103D01*
X241113276Y-117288707D01*
X241202529Y-116840000D01*
X241113276Y-116391293D01*
X240859103Y-116010897D01*
X240827829Y-115990000D01*
X241414123Y-115990000D01*
X241414123Y-117690000D01*
X241437407Y-117807054D01*
X241503712Y-117906288D01*
X241602946Y-117972593D01*
X241720000Y-117995877D01*
X243420000Y-117995877D01*
X243537054Y-117972593D01*
X243636288Y-117906288D01*
X243702593Y-117807054D01*
X243725877Y-117690000D01*
X243725877Y-115990000D01*
X243702593Y-115872946D01*
X243636288Y-115773712D01*
X243537054Y-115707407D01*
X243420000Y-115684123D01*
X241720000Y-115684123D01*
X241602946Y-115707407D01*
X241503712Y-115773712D01*
X241437407Y-115872946D01*
X241414123Y-115990000D01*
X240827829Y-115990000D01*
X240478707Y-115756724D01*
X240143261Y-115690000D01*
X239916739Y-115690000D01*
X239581293Y-115756724D01*
X239200897Y-116010897D01*
X238946724Y-116391293D01*
X238857471Y-116840000D01*
X238662529Y-116840000D01*
X238573276Y-116391293D01*
X238319103Y-116010897D01*
X237938707Y-115756724D01*
X237603261Y-115690000D01*
X237376739Y-115690000D01*
X237041293Y-115756724D01*
X236660897Y-116010897D01*
X236406724Y-116391293D01*
X236317471Y-116840000D01*
X236122529Y-116840000D01*
X236033276Y-116391293D01*
X235779103Y-116010897D01*
X235398707Y-115756724D01*
X235063261Y-115690000D01*
X234836739Y-115690000D01*
X234501293Y-115756724D01*
X234120897Y-116010897D01*
X233866724Y-116391293D01*
X233777471Y-116840000D01*
X231042529Y-116840000D01*
X231000286Y-116627627D01*
X231228940Y-116627627D01*
X231297758Y-116815000D01*
X232385000Y-116815000D01*
X232385000Y-115727781D01*
X232435000Y-115727781D01*
X232435000Y-116815000D01*
X233522242Y-116815000D01*
X233591060Y-116627627D01*
X233419886Y-116191821D01*
X233094966Y-115854694D01*
X232665766Y-115667571D01*
X232622373Y-115658942D01*
X232435000Y-115727781D01*
X232385000Y-115727781D01*
X232197627Y-115658942D01*
X232154234Y-115667571D01*
X231725034Y-115854694D01*
X231400114Y-116191821D01*
X231228940Y-116627627D01*
X231000286Y-116627627D01*
X230953276Y-116391293D01*
X230699103Y-116010897D01*
X230318707Y-115756724D01*
X229983261Y-115690000D01*
X229756739Y-115690000D01*
X229421293Y-115756724D01*
X229040897Y-116010897D01*
X228786724Y-116391293D01*
X228697471Y-116840000D01*
X228383162Y-116840000D01*
X228308656Y-116660127D01*
X228139873Y-116491344D01*
X227919347Y-116400000D01*
X227680653Y-116400000D01*
X227460127Y-116491344D01*
X227291344Y-116660127D01*
X227200000Y-116880653D01*
X222674968Y-116880653D01*
X222674968Y-116695571D01*
X222595041Y-116502612D01*
X222447356Y-116354927D01*
X222254397Y-116275000D01*
X222045539Y-116275000D01*
X221852580Y-116354927D01*
X221704895Y-116502612D01*
X221624968Y-116695571D01*
X220865877Y-116695571D01*
X220865877Y-115990000D01*
X220842593Y-115872946D01*
X220776288Y-115773712D01*
X220677054Y-115707407D01*
X220560000Y-115684123D01*
X218860000Y-115684123D01*
X218742946Y-115707407D01*
X218643712Y-115773712D01*
X218577407Y-115872946D01*
X218554123Y-115990000D01*
X217967829Y-115990000D01*
X217618707Y-115756724D01*
X217283261Y-115690000D01*
X217056739Y-115690000D01*
X216721293Y-115756724D01*
X216340897Y-116010897D01*
X216086724Y-116391293D01*
X215997471Y-116840000D01*
X215802529Y-116840000D01*
X215713276Y-116391293D01*
X215459103Y-116010897D01*
X215078707Y-115756724D01*
X214743261Y-115690000D01*
X214516739Y-115690000D01*
X214181293Y-115756724D01*
X213800897Y-116010897D01*
X213546724Y-116391293D01*
X213457471Y-116840000D01*
X213262529Y-116840000D01*
X213173276Y-116391293D01*
X212919103Y-116010897D01*
X212538707Y-115756724D01*
X212203261Y-115690000D01*
X211976739Y-115690000D01*
X211641293Y-115756724D01*
X211260897Y-116010897D01*
X211006724Y-116391293D01*
X210917471Y-116840000D01*
X208182529Y-116840000D01*
X208140286Y-116627627D01*
X208368940Y-116627627D01*
X208437758Y-116815000D01*
X209525000Y-116815000D01*
X209525000Y-115727781D01*
X209575000Y-115727781D01*
X209575000Y-116815000D01*
X210662242Y-116815000D01*
X210731060Y-116627627D01*
X210559886Y-116191821D01*
X210234966Y-115854694D01*
X209805766Y-115667571D01*
X209762373Y-115658942D01*
X209575000Y-115727781D01*
X209525000Y-115727781D01*
X209337627Y-115658942D01*
X209294234Y-115667571D01*
X208865034Y-115854694D01*
X208540114Y-116191821D01*
X208368940Y-116627627D01*
X208140286Y-116627627D01*
X208093276Y-116391293D01*
X207839103Y-116010897D01*
X207458707Y-115756724D01*
X207123261Y-115690000D01*
X206896739Y-115690000D01*
X206561293Y-115756724D01*
X206180897Y-116010897D01*
X205926724Y-116391293D01*
X205837471Y-116840000D01*
X200375000Y-116840000D01*
X200375000Y-113742876D01*
X246542480Y-113742876D01*
X246641273Y-113936830D01*
X247114940Y-114144452D01*
X247632004Y-114155006D01*
X248113747Y-113966884D01*
X248158727Y-113936830D01*
X248257520Y-113742876D01*
X247400000Y-112885355D01*
X246542480Y-113742876D01*
X200375000Y-113742876D01*
X200375000Y-113142876D01*
X241642480Y-113142876D01*
X241741273Y-113336830D01*
X242214940Y-113544452D01*
X242732004Y-113555006D01*
X243213747Y-113366884D01*
X243258727Y-113336830D01*
X243357520Y-113142876D01*
X242500000Y-112285355D01*
X241642480Y-113142876D01*
X200375000Y-113142876D01*
X200375000Y-112482004D01*
X241194994Y-112482004D01*
X241383116Y-112963747D01*
X241413170Y-113008727D01*
X241607124Y-113107520D01*
X242464645Y-112250000D01*
X242535355Y-112250000D01*
X243392876Y-113107520D01*
X243442969Y-113082004D01*
X246094994Y-113082004D01*
X246283116Y-113563747D01*
X246313170Y-113608727D01*
X246507124Y-113707520D01*
X247364645Y-112850000D01*
X247435355Y-112850000D01*
X248292876Y-113707520D01*
X248486830Y-113608727D01*
X248694452Y-113135060D01*
X248705006Y-112617996D01*
X248516884Y-112136253D01*
X248486830Y-112091273D01*
X248292876Y-111992480D01*
X247435355Y-112850000D01*
X247364645Y-112850000D01*
X246507124Y-111992480D01*
X246313170Y-112091273D01*
X246105548Y-112564940D01*
X246094994Y-113082004D01*
X243442969Y-113082004D01*
X243586830Y-113008727D01*
X243794452Y-112535060D01*
X243805006Y-112017996D01*
X243781236Y-111957124D01*
X246542480Y-111957124D01*
X247400000Y-112814645D01*
X248257520Y-111957124D01*
X248158727Y-111763170D01*
X247685060Y-111555548D01*
X247167996Y-111544994D01*
X246686253Y-111733116D01*
X246641273Y-111763170D01*
X246542480Y-111957124D01*
X243781236Y-111957124D01*
X243616884Y-111536253D01*
X243586830Y-111491273D01*
X243392876Y-111392480D01*
X242535355Y-112250000D01*
X242464645Y-112250000D01*
X241607124Y-111392480D01*
X241413170Y-111491273D01*
X241205548Y-111964940D01*
X241194994Y-112482004D01*
X200375000Y-112482004D01*
X200375000Y-111645571D01*
X235475000Y-111645571D01*
X235475000Y-111854429D01*
X235554927Y-112047388D01*
X235702612Y-112195073D01*
X235895571Y-112275000D01*
X236104429Y-112275000D01*
X236297388Y-112195073D01*
X236445073Y-112047388D01*
X236525000Y-111854429D01*
X236525000Y-111645571D01*
X236725000Y-111645571D01*
X236725000Y-111854429D01*
X236804927Y-112047388D01*
X236952612Y-112195073D01*
X237145571Y-112275000D01*
X237354429Y-112275000D01*
X237547388Y-112195073D01*
X237695073Y-112047388D01*
X237775000Y-111854429D01*
X237775000Y-111645571D01*
X237975000Y-111645571D01*
X237975000Y-111854429D01*
X238054927Y-112047388D01*
X238202612Y-112195073D01*
X238395571Y-112275000D01*
X238604429Y-112275000D01*
X238797388Y-112195073D01*
X238945073Y-112047388D01*
X239025000Y-111854429D01*
X239025000Y-111645571D01*
X238945073Y-111452612D01*
X238849585Y-111357124D01*
X241642480Y-111357124D01*
X242500000Y-112214645D01*
X243357520Y-111357124D01*
X243258727Y-111163170D01*
X242785060Y-110955548D01*
X242267996Y-110944994D01*
X241786253Y-111133116D01*
X241741273Y-111163170D01*
X241642480Y-111357124D01*
X238849585Y-111357124D01*
X238797388Y-111304927D01*
X238604429Y-111225000D01*
X238395571Y-111225000D01*
X238202612Y-111304927D01*
X238054927Y-111452612D01*
X237975000Y-111645571D01*
X237775000Y-111645571D01*
X237695073Y-111452612D01*
X237547388Y-111304927D01*
X237354429Y-111225000D01*
X237145571Y-111225000D01*
X236952612Y-111304927D01*
X236804927Y-111452612D01*
X236725000Y-111645571D01*
X236525000Y-111645571D01*
X236445073Y-111452612D01*
X236297388Y-111304927D01*
X236104429Y-111225000D01*
X235895571Y-111225000D01*
X235702612Y-111304927D01*
X235554927Y-111452612D01*
X235475000Y-111645571D01*
X200375000Y-111645571D01*
X200375000Y-109495547D01*
X225611142Y-109495547D01*
X225611142Y-109704405D01*
X225691069Y-109897364D01*
X225838754Y-110045049D01*
X226031713Y-110124976D01*
X226240571Y-110124976D01*
X226312099Y-110095348D01*
X226354361Y-110197375D01*
X226502046Y-110345060D01*
X226626957Y-110396800D01*
X226626957Y-110489948D01*
X226706884Y-110682907D01*
X226854569Y-110830592D01*
X227047528Y-110910519D01*
X227256386Y-110910519D01*
X227449345Y-110830592D01*
X227585167Y-110694770D01*
X227627677Y-110797397D01*
X227775362Y-110945082D01*
X227968321Y-111025009D01*
X228177179Y-111025009D01*
X228370138Y-110945082D01*
X228517823Y-110797397D01*
X228597750Y-110604438D01*
X228597750Y-110395580D01*
X228517823Y-110202621D01*
X228370138Y-110054936D01*
X228177179Y-109975009D01*
X227968321Y-109975009D01*
X227775362Y-110054936D01*
X227639540Y-110190758D01*
X227597030Y-110088131D01*
X227449345Y-109940446D01*
X227324434Y-109888706D01*
X227324434Y-109795558D01*
X227244507Y-109602599D01*
X227096822Y-109454914D01*
X226903863Y-109374987D01*
X226695005Y-109374987D01*
X226623477Y-109404615D01*
X226581215Y-109302588D01*
X226492133Y-109213506D01*
X230300740Y-109213506D01*
X230300740Y-109422364D01*
X230380667Y-109615323D01*
X230528352Y-109763008D01*
X230721311Y-109842935D01*
X230930169Y-109842935D01*
X231123128Y-109763008D01*
X231181446Y-109704690D01*
X231315599Y-109760259D01*
X231439964Y-109760259D01*
X231479920Y-109856721D01*
X231627605Y-110004406D01*
X231820564Y-110084333D01*
X232029422Y-110084333D01*
X232218477Y-110006023D01*
X232272744Y-110060290D01*
X232465703Y-110140217D01*
X232674561Y-110140217D01*
X232867520Y-110060290D01*
X233015205Y-109912605D01*
X233033750Y-109867833D01*
X233209183Y-109867833D01*
X233402142Y-109787906D01*
X233549827Y-109640221D01*
X233629754Y-109447262D01*
X233629754Y-109238404D01*
X233549827Y-109045445D01*
X233402142Y-108897760D01*
X233209183Y-108817833D01*
X233000325Y-108817833D01*
X232807366Y-108897760D01*
X232659681Y-109045445D01*
X232641136Y-109090217D01*
X232465703Y-109090217D01*
X232276648Y-109168527D01*
X232222381Y-109114260D01*
X232029422Y-109034333D01*
X231905057Y-109034333D01*
X231865101Y-108937871D01*
X231717416Y-108790186D01*
X231524457Y-108710259D01*
X231315599Y-108710259D01*
X231122640Y-108790186D01*
X231064322Y-108848504D01*
X230930169Y-108792935D01*
X230721311Y-108792935D01*
X230528352Y-108872862D01*
X230380667Y-109020547D01*
X230300740Y-109213506D01*
X226492133Y-109213506D01*
X226433530Y-109154903D01*
X226240571Y-109074976D01*
X226031713Y-109074976D01*
X225838754Y-109154903D01*
X225691069Y-109302588D01*
X225611142Y-109495547D01*
X200375000Y-109495547D01*
X200375000Y-109077863D01*
X200423071Y-109154073D01*
X200725854Y-109368118D01*
X201087500Y-109450000D01*
X201437500Y-109450000D01*
X201437500Y-108525000D01*
X201487500Y-108525000D01*
X201487500Y-109450000D01*
X201837500Y-109450000D01*
X202199146Y-109368118D01*
X202501929Y-109154073D01*
X202699752Y-108840452D01*
X202746568Y-108673253D01*
X202674638Y-108525000D01*
X201487500Y-108525000D01*
X201437500Y-108525000D01*
X201417500Y-108525000D01*
X201417500Y-108475000D01*
X201437500Y-108475000D01*
X201437500Y-107550000D01*
X201487500Y-107550000D01*
X201487500Y-108475000D01*
X202674638Y-108475000D01*
X202746568Y-108326747D01*
X202719652Y-108230618D01*
X203467237Y-108230618D01*
X203538645Y-108401195D01*
X203931006Y-108571335D01*
X204358609Y-108578373D01*
X204756357Y-108421239D01*
X204786355Y-108401195D01*
X204857763Y-108230618D01*
X204822716Y-108195571D01*
X226275000Y-108195571D01*
X226275000Y-108404429D01*
X226354927Y-108597388D01*
X226502612Y-108745073D01*
X226695571Y-108825000D01*
X226904429Y-108825000D01*
X227097388Y-108745073D01*
X227245073Y-108597388D01*
X227325000Y-108404429D01*
X227325000Y-108195571D01*
X227245073Y-108002612D01*
X227097388Y-107854927D01*
X226904429Y-107775000D01*
X226695571Y-107775000D01*
X226502612Y-107854927D01*
X226354927Y-108002612D01*
X226275000Y-108195571D01*
X204822716Y-108195571D01*
X204162500Y-107535355D01*
X203467237Y-108230618D01*
X202719652Y-108230618D01*
X202699752Y-108159548D01*
X202501929Y-107845927D01*
X202290000Y-107696109D01*
X203084127Y-107696109D01*
X203241261Y-108093857D01*
X203261305Y-108123855D01*
X203431882Y-108195263D01*
X204127145Y-107500000D01*
X204197855Y-107500000D01*
X204893118Y-108195263D01*
X205063695Y-108123855D01*
X205233835Y-107731494D01*
X205235993Y-107600331D01*
X229538495Y-107600331D01*
X229538495Y-107809189D01*
X229618422Y-108002148D01*
X229766107Y-108149833D01*
X229959066Y-108229760D01*
X230167924Y-108229760D01*
X230360883Y-108149833D01*
X230365145Y-108145571D01*
X232725000Y-108145571D01*
X232725000Y-108354429D01*
X232804927Y-108547388D01*
X232952612Y-108695073D01*
X233145571Y-108775000D01*
X233354429Y-108775000D01*
X233547388Y-108695073D01*
X233695073Y-108547388D01*
X233775000Y-108354429D01*
X233775000Y-108145571D01*
X233764645Y-108120570D01*
X235475000Y-108120570D01*
X235475000Y-108329428D01*
X235554927Y-108522387D01*
X235702612Y-108670072D01*
X235895571Y-108749999D01*
X236104429Y-108749999D01*
X236297388Y-108670072D01*
X236331889Y-108635571D01*
X236725000Y-108635571D01*
X236725000Y-108844429D01*
X236804927Y-109037388D01*
X236952612Y-109185073D01*
X237145571Y-109265000D01*
X237354429Y-109265000D01*
X237547388Y-109185073D01*
X237646880Y-109085581D01*
X237969268Y-109085581D01*
X237969268Y-109294439D01*
X238049195Y-109487398D01*
X238196880Y-109635083D01*
X238389839Y-109715010D01*
X238598697Y-109715010D01*
X238791656Y-109635083D01*
X238939341Y-109487398D01*
X239019268Y-109294439D01*
X239019268Y-109085581D01*
X238939341Y-108892622D01*
X238871601Y-108824882D01*
X239791085Y-108824882D01*
X239791085Y-109033740D01*
X239871012Y-109226699D01*
X240018697Y-109374384D01*
X240211656Y-109454311D01*
X240420514Y-109454311D01*
X240613473Y-109374384D01*
X240761158Y-109226699D01*
X240841085Y-109033740D01*
X240841085Y-108824882D01*
X240761158Y-108631923D01*
X240613473Y-108484238D01*
X240420514Y-108404311D01*
X240211656Y-108404311D01*
X240018697Y-108484238D01*
X239871012Y-108631923D01*
X239791085Y-108824882D01*
X238871601Y-108824882D01*
X238791656Y-108744937D01*
X238598697Y-108665010D01*
X238389839Y-108665010D01*
X238196880Y-108744937D01*
X238049195Y-108892622D01*
X237969268Y-109085581D01*
X237646880Y-109085581D01*
X237695073Y-109037388D01*
X237775000Y-108844429D01*
X237775000Y-108635571D01*
X237695073Y-108442612D01*
X237547388Y-108294927D01*
X237354429Y-108215000D01*
X237145571Y-108215000D01*
X236952612Y-108294927D01*
X236804927Y-108442612D01*
X236725000Y-108635571D01*
X236331889Y-108635571D01*
X236445073Y-108522387D01*
X236525000Y-108329428D01*
X236525000Y-108120570D01*
X236445073Y-107927611D01*
X236297388Y-107779926D01*
X236104429Y-107699999D01*
X235895571Y-107699999D01*
X235702612Y-107779926D01*
X235554927Y-107927611D01*
X235475000Y-108120570D01*
X233764645Y-108120570D01*
X233695073Y-107952612D01*
X233547388Y-107804927D01*
X233354429Y-107725000D01*
X233145571Y-107725000D01*
X232952612Y-107804927D01*
X232804927Y-107952612D01*
X232725000Y-108145571D01*
X230365145Y-108145571D01*
X230508568Y-108002148D01*
X230513230Y-107990893D01*
X230595571Y-108025000D01*
X230804429Y-108025000D01*
X230997388Y-107945073D01*
X231145073Y-107797388D01*
X231225000Y-107604429D01*
X231225000Y-107395571D01*
X231145073Y-107202612D01*
X230997388Y-107054927D01*
X230804429Y-106975000D01*
X230595571Y-106975000D01*
X230402612Y-107054927D01*
X230254927Y-107202612D01*
X230250265Y-107213867D01*
X230167924Y-107179760D01*
X229959066Y-107179760D01*
X229766107Y-107259687D01*
X229618422Y-107407372D01*
X229538495Y-107600331D01*
X205235993Y-107600331D01*
X205240873Y-107303891D01*
X205083739Y-106906143D01*
X205063695Y-106876145D01*
X204893118Y-106804737D01*
X204197855Y-107500000D01*
X204127145Y-107500000D01*
X203431882Y-106804737D01*
X203261305Y-106876145D01*
X203091165Y-107268506D01*
X203084127Y-107696109D01*
X202290000Y-107696109D01*
X202199146Y-107631882D01*
X201837500Y-107550000D01*
X201487500Y-107550000D01*
X201437500Y-107550000D01*
X201087500Y-107550000D01*
X200725854Y-107631882D01*
X200423071Y-107845927D01*
X200375000Y-107922137D01*
X200375000Y-106769382D01*
X203467237Y-106769382D01*
X204162500Y-107464645D01*
X204857763Y-106769382D01*
X204786355Y-106598805D01*
X204393994Y-106428665D01*
X203966391Y-106421627D01*
X203568643Y-106578761D01*
X203538645Y-106598805D01*
X203467237Y-106769382D01*
X200375000Y-106769382D01*
X200375000Y-105895571D01*
X226775000Y-105895571D01*
X226775000Y-106104429D01*
X226854927Y-106297388D01*
X227002612Y-106445073D01*
X227195571Y-106525000D01*
X227404429Y-106525000D01*
X227597388Y-106445073D01*
X227709361Y-106333100D01*
X232267998Y-106333100D01*
X232267998Y-106541958D01*
X232347925Y-106734917D01*
X232495610Y-106882602D01*
X232688569Y-106962529D01*
X232897427Y-106962529D01*
X233090386Y-106882602D01*
X233238071Y-106734917D01*
X233317998Y-106541958D01*
X233317998Y-106333100D01*
X233238071Y-106140141D01*
X233090386Y-105992456D01*
X232897427Y-105912529D01*
X232688569Y-105912529D01*
X232495610Y-105992456D01*
X232347925Y-106140141D01*
X232267998Y-106333100D01*
X227709361Y-106333100D01*
X227745073Y-106297388D01*
X227825000Y-106104429D01*
X227825000Y-105895571D01*
X227745073Y-105702612D01*
X227597388Y-105554927D01*
X227404429Y-105475000D01*
X227195571Y-105475000D01*
X227002612Y-105554927D01*
X226854927Y-105702612D01*
X226775000Y-105895571D01*
X200375000Y-105895571D01*
X200375000Y-105415571D01*
X231615000Y-105415571D01*
X231615000Y-105624429D01*
X231694927Y-105817388D01*
X231842612Y-105965073D01*
X232035571Y-106045000D01*
X232244429Y-106045000D01*
X232437388Y-105965073D01*
X232585073Y-105817388D01*
X232665000Y-105624429D01*
X232665000Y-105415571D01*
X232585073Y-105222612D01*
X232437388Y-105074927D01*
X232244429Y-104995000D01*
X232035571Y-104995000D01*
X231842612Y-105074927D01*
X231694927Y-105222612D01*
X231615000Y-105415571D01*
X200375000Y-105415571D01*
X200375000Y-103230618D01*
X203467237Y-103230618D01*
X203538645Y-103401195D01*
X203931006Y-103571335D01*
X204358609Y-103578373D01*
X204479401Y-103530653D01*
X208900000Y-103530653D01*
X208900000Y-103769347D01*
X208991344Y-103989873D01*
X209160127Y-104158656D01*
X209380653Y-104250000D01*
X209619347Y-104250000D01*
X209839873Y-104158656D01*
X210008656Y-103989873D01*
X210100000Y-103769347D01*
X210100000Y-103530653D01*
X210079290Y-103480653D01*
X214900000Y-103480653D01*
X214900000Y-103719347D01*
X214991344Y-103939873D01*
X215160127Y-104108656D01*
X215380653Y-104200000D01*
X215619347Y-104200000D01*
X215839873Y-104108656D01*
X215867876Y-104080653D01*
X216200000Y-104080653D01*
X216200000Y-104319347D01*
X216291344Y-104539873D01*
X216460127Y-104708656D01*
X216680653Y-104800000D01*
X216919347Y-104800000D01*
X217139873Y-104708656D01*
X217308656Y-104539873D01*
X217400000Y-104319347D01*
X217400000Y-104080653D01*
X217308656Y-103860127D01*
X217139873Y-103691344D01*
X216919347Y-103600000D01*
X216680653Y-103600000D01*
X216460127Y-103691344D01*
X216291344Y-103860127D01*
X216200000Y-104080653D01*
X215867876Y-104080653D01*
X216008656Y-103939873D01*
X216100000Y-103719347D01*
X216100000Y-103480653D01*
X216008656Y-103260127D01*
X215839873Y-103091344D01*
X215619347Y-103000000D01*
X215380653Y-103000000D01*
X215160127Y-103091344D01*
X214991344Y-103260127D01*
X214900000Y-103480653D01*
X210079290Y-103480653D01*
X210008656Y-103310127D01*
X209839873Y-103141344D01*
X209619347Y-103050000D01*
X209380653Y-103050000D01*
X209160127Y-103141344D01*
X208991344Y-103310127D01*
X208900000Y-103530653D01*
X204479401Y-103530653D01*
X204756357Y-103421239D01*
X204786355Y-103401195D01*
X204857763Y-103230618D01*
X204162500Y-102535355D01*
X203467237Y-103230618D01*
X200375000Y-103230618D01*
X200375000Y-102696109D01*
X203084127Y-102696109D01*
X203241261Y-103093857D01*
X203261305Y-103123855D01*
X203431882Y-103195263D01*
X204127145Y-102500000D01*
X204197855Y-102500000D01*
X204893118Y-103195263D01*
X205063695Y-103123855D01*
X205206049Y-102795571D01*
X229475000Y-102795571D01*
X229475000Y-103004429D01*
X229554927Y-103197388D01*
X229702612Y-103345073D01*
X229895571Y-103425000D01*
X230104429Y-103425000D01*
X230297388Y-103345073D01*
X230445073Y-103197388D01*
X230525000Y-103004429D01*
X230525000Y-102825000D01*
X230704429Y-102825000D01*
X230775476Y-102795571D01*
X230975000Y-102795571D01*
X230975000Y-103004429D01*
X231054927Y-103197388D01*
X231202612Y-103345073D01*
X231395571Y-103425000D01*
X231604429Y-103425000D01*
X231797388Y-103345073D01*
X231945073Y-103197388D01*
X232025000Y-103004429D01*
X232025000Y-102795571D01*
X231945073Y-102602612D01*
X231797388Y-102454927D01*
X231604429Y-102375000D01*
X231395571Y-102375000D01*
X231202612Y-102454927D01*
X231054927Y-102602612D01*
X230975000Y-102795571D01*
X230775476Y-102795571D01*
X230897388Y-102745073D01*
X231045073Y-102597388D01*
X231125000Y-102404429D01*
X231125000Y-102270571D01*
X232100000Y-102270571D01*
X232100000Y-102479429D01*
X232179927Y-102672388D01*
X232327612Y-102820073D01*
X232520571Y-102900000D01*
X232729429Y-102900000D01*
X232922388Y-102820073D01*
X233070073Y-102672388D01*
X233150000Y-102479429D01*
X233150000Y-102325000D01*
X233304429Y-102325000D01*
X233497388Y-102245073D01*
X233645073Y-102097388D01*
X233725000Y-101904429D01*
X233725000Y-101695571D01*
X233645073Y-101502612D01*
X233497388Y-101354927D01*
X233304429Y-101275000D01*
X233095571Y-101275000D01*
X232902612Y-101354927D01*
X232754927Y-101502612D01*
X232675000Y-101695571D01*
X232675000Y-101850000D01*
X232520571Y-101850000D01*
X232327612Y-101929927D01*
X232179927Y-102077612D01*
X232100000Y-102270571D01*
X231125000Y-102270571D01*
X231125000Y-102195571D01*
X231045073Y-102002612D01*
X230897388Y-101854927D01*
X230704429Y-101775000D01*
X230495571Y-101775000D01*
X230302612Y-101854927D01*
X230154927Y-102002612D01*
X230075000Y-102195571D01*
X230075000Y-102375000D01*
X229895571Y-102375000D01*
X229702612Y-102454927D01*
X229554927Y-102602612D01*
X229475000Y-102795571D01*
X205206049Y-102795571D01*
X205233835Y-102731494D01*
X205240873Y-102303891D01*
X205083739Y-101906143D01*
X205063695Y-101876145D01*
X204990685Y-101845581D01*
X226249295Y-101845581D01*
X226249295Y-102054439D01*
X226329222Y-102247398D01*
X226476907Y-102395083D01*
X226669866Y-102475010D01*
X226878724Y-102475010D01*
X227071683Y-102395083D01*
X227219368Y-102247398D01*
X227299295Y-102054439D01*
X227299295Y-101845581D01*
X227219368Y-101652622D01*
X227071683Y-101504937D01*
X226878724Y-101425010D01*
X226669866Y-101425010D01*
X226476907Y-101504937D01*
X226329222Y-101652622D01*
X226249295Y-101845581D01*
X204990685Y-101845581D01*
X204893118Y-101804737D01*
X204197855Y-102500000D01*
X204127145Y-102500000D01*
X203431882Y-101804737D01*
X203261305Y-101876145D01*
X203091165Y-102268506D01*
X203084127Y-102696109D01*
X200375000Y-102696109D01*
X200375000Y-102077863D01*
X200423071Y-102154073D01*
X200725854Y-102368118D01*
X201087500Y-102450000D01*
X201437500Y-102450000D01*
X201437500Y-101525000D01*
X201487500Y-101525000D01*
X201487500Y-102450000D01*
X201837500Y-102450000D01*
X202199146Y-102368118D01*
X202501929Y-102154073D01*
X202699752Y-101840452D01*
X202719651Y-101769382D01*
X203467237Y-101769382D01*
X204162500Y-102464645D01*
X204857763Y-101769382D01*
X204786355Y-101598805D01*
X204393994Y-101428665D01*
X203966391Y-101421627D01*
X203568643Y-101578761D01*
X203538645Y-101598805D01*
X203467237Y-101769382D01*
X202719651Y-101769382D01*
X202746568Y-101673253D01*
X202674638Y-101525000D01*
X201487500Y-101525000D01*
X201437500Y-101525000D01*
X201417500Y-101525000D01*
X201417500Y-101475000D01*
X201437500Y-101475000D01*
X201437500Y-100550000D01*
X201487500Y-100550000D01*
X201487500Y-101475000D01*
X202674638Y-101475000D01*
X202746568Y-101326747D01*
X202699752Y-101159548D01*
X202501929Y-100845927D01*
X202199146Y-100631882D01*
X201837500Y-100550000D01*
X201487500Y-100550000D01*
X201437500Y-100550000D01*
X201087500Y-100550000D01*
X200725854Y-100631882D01*
X200423071Y-100845927D01*
X200375000Y-100922137D01*
X200375000Y-99395571D01*
X203975000Y-99395571D01*
X203975000Y-99604429D01*
X204054927Y-99797388D01*
X204202612Y-99945073D01*
X204395571Y-100025000D01*
X204604429Y-100025000D01*
X204797388Y-99945073D01*
X204945073Y-99797388D01*
X205025000Y-99604429D01*
X205025000Y-99395571D01*
X204945073Y-99202612D01*
X204838032Y-99095571D01*
X218775000Y-99095571D01*
X218775000Y-99304429D01*
X218854927Y-99497388D01*
X219002612Y-99645073D01*
X219195571Y-99725000D01*
X219404429Y-99725000D01*
X219597388Y-99645073D01*
X219745073Y-99497388D01*
X219825000Y-99304429D01*
X219825000Y-99095571D01*
X219745073Y-98902612D01*
X219597388Y-98754927D01*
X219404429Y-98675000D01*
X219195571Y-98675000D01*
X219002612Y-98754927D01*
X218854927Y-98902612D01*
X218775000Y-99095571D01*
X204838032Y-99095571D01*
X204797388Y-99054927D01*
X204604429Y-98975000D01*
X204395571Y-98975000D01*
X204202612Y-99054927D01*
X204054927Y-99202612D01*
X203975000Y-99395571D01*
X200375000Y-99395571D01*
X200375000Y-98642876D01*
X241642480Y-98642876D01*
X241741273Y-98836830D01*
X242214940Y-99044452D01*
X242732004Y-99055006D01*
X243213747Y-98866884D01*
X243258727Y-98836830D01*
X243357520Y-98642876D01*
X242500000Y-97785355D01*
X241642480Y-98642876D01*
X200375000Y-98642876D01*
X200375000Y-97982004D01*
X241194994Y-97982004D01*
X241383116Y-98463747D01*
X241413170Y-98508727D01*
X241607124Y-98607520D01*
X242464645Y-97750000D01*
X242535355Y-97750000D01*
X243392876Y-98607520D01*
X243586830Y-98508727D01*
X243791026Y-98042876D01*
X246542480Y-98042876D01*
X246641273Y-98236830D01*
X247114940Y-98444452D01*
X247632004Y-98455006D01*
X248113747Y-98266884D01*
X248158727Y-98236830D01*
X248257520Y-98042876D01*
X247400000Y-97185355D01*
X246542480Y-98042876D01*
X243791026Y-98042876D01*
X243794452Y-98035060D01*
X243805006Y-97517996D01*
X243751901Y-97382004D01*
X246094994Y-97382004D01*
X246283116Y-97863747D01*
X246313170Y-97908727D01*
X246507124Y-98007520D01*
X247364645Y-97150000D01*
X247435355Y-97150000D01*
X248292876Y-98007520D01*
X248486830Y-97908727D01*
X248694452Y-97435060D01*
X248705006Y-96917996D01*
X248516884Y-96436253D01*
X248486830Y-96391273D01*
X248292876Y-96292480D01*
X247435355Y-97150000D01*
X247364645Y-97150000D01*
X246507124Y-96292480D01*
X246313170Y-96391273D01*
X246105548Y-96864940D01*
X246094994Y-97382004D01*
X243751901Y-97382004D01*
X243616884Y-97036253D01*
X243586830Y-96991273D01*
X243392876Y-96892480D01*
X242535355Y-97750000D01*
X242464645Y-97750000D01*
X241607124Y-96892480D01*
X241413170Y-96991273D01*
X241205548Y-97464940D01*
X241194994Y-97982004D01*
X200375000Y-97982004D01*
X200375000Y-96845581D01*
X211781797Y-96845581D01*
X211781797Y-97054439D01*
X211861724Y-97247398D01*
X212009409Y-97395083D01*
X212202368Y-97475010D01*
X212411226Y-97475010D01*
X212604185Y-97395083D01*
X212751870Y-97247398D01*
X212831797Y-97054439D01*
X212831797Y-96857124D01*
X241642480Y-96857124D01*
X242500000Y-97714645D01*
X243357520Y-96857124D01*
X243258727Y-96663170D01*
X242785060Y-96455548D01*
X242267996Y-96444994D01*
X241786253Y-96633116D01*
X241741273Y-96663170D01*
X241642480Y-96857124D01*
X212831797Y-96857124D01*
X212831797Y-96845581D01*
X212751870Y-96652622D01*
X212604185Y-96504937D01*
X212411226Y-96425010D01*
X212202368Y-96425010D01*
X212009409Y-96504937D01*
X211861724Y-96652622D01*
X211781797Y-96845581D01*
X200375000Y-96845581D01*
X200375000Y-96095571D01*
X213725000Y-96095571D01*
X213725000Y-96304429D01*
X213804927Y-96497388D01*
X213952612Y-96645073D01*
X214145571Y-96725000D01*
X214354429Y-96725000D01*
X214547388Y-96645073D01*
X214695073Y-96497388D01*
X214775000Y-96304429D01*
X214775000Y-96257124D01*
X246542480Y-96257124D01*
X247400000Y-97114645D01*
X248257520Y-96257124D01*
X248158727Y-96063170D01*
X247685060Y-95855548D01*
X247167996Y-95844994D01*
X246686253Y-96033116D01*
X246641273Y-96063170D01*
X246542480Y-96257124D01*
X214775000Y-96257124D01*
X214775000Y-96095571D01*
X214695073Y-95902612D01*
X214547388Y-95754927D01*
X214354429Y-95675000D01*
X214145571Y-95675000D01*
X213952612Y-95754927D01*
X213804927Y-95902612D01*
X213725000Y-96095571D01*
X200375000Y-96095571D01*
X200375000Y-93895571D01*
X204475000Y-93895571D01*
X204475000Y-94104429D01*
X204554927Y-94297388D01*
X204702612Y-94445073D01*
X204895571Y-94525000D01*
X205104429Y-94525000D01*
X205297388Y-94445073D01*
X205445073Y-94297388D01*
X205525000Y-94104429D01*
X205525000Y-93895571D01*
X205445073Y-93702612D01*
X205297388Y-93554927D01*
X205104429Y-93475000D01*
X204895571Y-93475000D01*
X204702612Y-93554927D01*
X204554927Y-93702612D01*
X204475000Y-93895571D01*
X200375000Y-93895571D01*
X200375000Y-93295571D01*
X225875000Y-93295571D01*
X225875000Y-93504429D01*
X225954927Y-93697388D01*
X226102612Y-93845073D01*
X226295571Y-93925000D01*
X226504429Y-93925000D01*
X226697388Y-93845073D01*
X226700000Y-93842461D01*
X226702612Y-93845073D01*
X226895571Y-93925000D01*
X227104429Y-93925000D01*
X227297388Y-93845073D01*
X227445073Y-93697388D01*
X227525000Y-93504429D01*
X227525000Y-93295571D01*
X227445073Y-93102612D01*
X227297388Y-92954927D01*
X227104429Y-92875000D01*
X226895571Y-92875000D01*
X226702612Y-92954927D01*
X226700000Y-92957539D01*
X226697388Y-92954927D01*
X226504429Y-92875000D01*
X226295571Y-92875000D01*
X226102612Y-92954927D01*
X225954927Y-93102612D01*
X225875000Y-93295571D01*
X200375000Y-93295571D01*
X200375000Y-90145571D01*
X236675000Y-90145571D01*
X236675000Y-90354429D01*
X236754927Y-90547388D01*
X236902612Y-90695073D01*
X237095571Y-90775000D01*
X237304429Y-90775000D01*
X237497388Y-90695073D01*
X237645073Y-90547388D01*
X237725000Y-90354429D01*
X237725000Y-90167380D01*
X237897638Y-90167380D01*
X238090597Y-90087453D01*
X238238282Y-89939768D01*
X238318209Y-89746809D01*
X238318209Y-89537951D01*
X238238282Y-89344992D01*
X238090597Y-89197307D01*
X237897638Y-89117380D01*
X237688780Y-89117380D01*
X237495821Y-89197307D01*
X237348136Y-89344992D01*
X237268209Y-89537951D01*
X237268209Y-89725000D01*
X237095571Y-89725000D01*
X236902612Y-89804927D01*
X236754927Y-89952612D01*
X236675000Y-90145571D01*
X200375000Y-90145571D01*
X200375000Y-88021786D01*
X200400000Y-87807355D01*
X200400000Y-87917716D01*
X200719706Y-88689554D01*
X201310446Y-89280294D01*
X202082284Y-89600000D01*
X202917716Y-89600000D01*
X203689554Y-89280294D01*
X204280294Y-88689554D01*
X204600000Y-87917716D01*
X204600000Y-87082284D01*
X204420942Y-86650000D01*
X231684123Y-86650000D01*
X231684123Y-88350000D01*
X231707407Y-88467054D01*
X231773712Y-88566288D01*
X231872946Y-88632593D01*
X231990000Y-88655877D01*
X233690000Y-88655877D01*
X233807054Y-88632593D01*
X233906288Y-88566288D01*
X233972593Y-88467054D01*
X233995877Y-88350000D01*
X233995877Y-87500000D01*
X234207471Y-87500000D01*
X234296724Y-87948707D01*
X234550897Y-88329103D01*
X234931293Y-88583276D01*
X235266739Y-88650000D01*
X235493261Y-88650000D01*
X235828707Y-88583276D01*
X236209103Y-88329103D01*
X236463276Y-87948707D01*
X236552529Y-87500000D01*
X236747471Y-87500000D01*
X236836724Y-87948707D01*
X237090897Y-88329103D01*
X237471293Y-88583276D01*
X237806739Y-88650000D01*
X238033261Y-88650000D01*
X238368707Y-88583276D01*
X238749103Y-88329103D01*
X239003276Y-87948707D01*
X239092529Y-87500000D01*
X239287471Y-87500000D01*
X239376724Y-87948707D01*
X239630897Y-88329103D01*
X240011293Y-88583276D01*
X240346739Y-88650000D01*
X240573261Y-88650000D01*
X240908707Y-88583276D01*
X241289103Y-88329103D01*
X241543276Y-87948707D01*
X241590285Y-87712373D01*
X241818940Y-87712373D01*
X241990114Y-88148179D01*
X242315034Y-88485306D01*
X242744234Y-88672429D01*
X242787627Y-88681058D01*
X242975000Y-88612219D01*
X242975000Y-87525000D01*
X243025000Y-87525000D01*
X243025000Y-88612219D01*
X243212373Y-88681058D01*
X243255766Y-88672429D01*
X243684966Y-88485306D01*
X244009886Y-88148179D01*
X244181060Y-87712373D01*
X244112242Y-87525000D01*
X243025000Y-87525000D01*
X242975000Y-87525000D01*
X241887758Y-87525000D01*
X241818940Y-87712373D01*
X241590285Y-87712373D01*
X241632529Y-87500000D01*
X241590286Y-87287627D01*
X241818940Y-87287627D01*
X241887758Y-87475000D01*
X242975000Y-87475000D01*
X242975000Y-86387781D01*
X243025000Y-86387781D01*
X243025000Y-87475000D01*
X244112242Y-87475000D01*
X244181060Y-87287627D01*
X244009886Y-86851821D01*
X243684966Y-86514694D01*
X243255766Y-86327571D01*
X243212373Y-86318942D01*
X243025000Y-86387781D01*
X242975000Y-86387781D01*
X242787627Y-86318942D01*
X242744234Y-86327571D01*
X242315034Y-86514694D01*
X241990114Y-86851821D01*
X241818940Y-87287627D01*
X241590286Y-87287627D01*
X241543276Y-87051293D01*
X241289103Y-86670897D01*
X240908707Y-86416724D01*
X240573261Y-86350000D01*
X240346739Y-86350000D01*
X240011293Y-86416724D01*
X239630897Y-86670897D01*
X239376724Y-87051293D01*
X239287471Y-87500000D01*
X239092529Y-87500000D01*
X239003276Y-87051293D01*
X238749103Y-86670897D01*
X238368707Y-86416724D01*
X238033261Y-86350000D01*
X237806739Y-86350000D01*
X237471293Y-86416724D01*
X237090897Y-86670897D01*
X236836724Y-87051293D01*
X236747471Y-87500000D01*
X236552529Y-87500000D01*
X236463276Y-87051293D01*
X236209103Y-86670897D01*
X235828707Y-86416724D01*
X235493261Y-86350000D01*
X235266739Y-86350000D01*
X234931293Y-86416724D01*
X234550897Y-86670897D01*
X234296724Y-87051293D01*
X234207471Y-87500000D01*
X233995877Y-87500000D01*
X233995877Y-86650000D01*
X233972593Y-86532946D01*
X233906288Y-86433712D01*
X233807054Y-86367407D01*
X233690000Y-86344123D01*
X231990000Y-86344123D01*
X231872946Y-86367407D01*
X231773712Y-86433712D01*
X231707407Y-86532946D01*
X231684123Y-86650000D01*
X204420942Y-86650000D01*
X204280294Y-86310446D01*
X203689554Y-85719706D01*
X202917716Y-85400000D01*
X202736576Y-85400000D01*
X203016697Y-85375000D01*
X246978214Y-85375000D01*
X247192645Y-85400000D01*
G04 #@! TD*
M02*
