G04 #@! TF.GenerationSoftware,KiCad,Pcbnew,5.0.2-bee76a0~70~ubuntu18.04.1*
G04 #@! TF.CreationDate,2020-08-11T13:50:02+01:00*
G04 #@! TF.ProjectId,picodvi,7069636f-6476-4692-9e6b-696361645f70,rev?*
G04 #@! TF.SameCoordinates,Original*
G04 #@! TF.FileFunction,Soldermask,Top*
G04 #@! TF.FilePolarity,Negative*
%FSLAX46Y46*%
G04 Gerber Fmt 4.6, Leading zero omitted, Abs format (unit mm)*
G04 Created by KiCad (PCBNEW 5.0.2-bee76a0~70~ubuntu18.04.1) date Tue 11 Aug 2020 13:50:02 BST*
%MOMM*%
%LPD*%
G01*
G04 APERTURE LIST*
%ADD10C,0.100000*%
G04 APERTURE END LIST*
D10*
G36*
X248068795Y-120624937D02*
X248423670Y-120771932D01*
X248423671Y-120771933D01*
X248743052Y-120985336D01*
X249014664Y-121256948D01*
X249071123Y-121341445D01*
X249228068Y-121576330D01*
X249375063Y-121931205D01*
X249450000Y-122307942D01*
X249450000Y-122692058D01*
X249375063Y-123068795D01*
X249228068Y-123423670D01*
X249014663Y-123743053D01*
X248743053Y-124014663D01*
X248423670Y-124228068D01*
X248068795Y-124375063D01*
X247692058Y-124450000D01*
X247307942Y-124450000D01*
X246931205Y-124375063D01*
X246576330Y-124228068D01*
X246256947Y-124014663D01*
X245985337Y-123743053D01*
X245771932Y-123423670D01*
X245624937Y-123068795D01*
X245550000Y-122692058D01*
X245550000Y-122307942D01*
X245624937Y-121931205D01*
X245771932Y-121576330D01*
X245928877Y-121341445D01*
X245985336Y-121256948D01*
X246256948Y-120985336D01*
X246576329Y-120771933D01*
X246576330Y-120771932D01*
X246931205Y-120624937D01*
X247307942Y-120550000D01*
X247692058Y-120550000D01*
X248068795Y-120624937D01*
X248068795Y-120624937D01*
G37*
G36*
X203068795Y-120624937D02*
X203423670Y-120771932D01*
X203423671Y-120771933D01*
X203743052Y-120985336D01*
X204014664Y-121256948D01*
X204071123Y-121341445D01*
X204228068Y-121576330D01*
X204375063Y-121931205D01*
X204450000Y-122307942D01*
X204450000Y-122692058D01*
X204375063Y-123068795D01*
X204228068Y-123423670D01*
X204014663Y-123743053D01*
X203743053Y-124014663D01*
X203423670Y-124228068D01*
X203068795Y-124375063D01*
X202692058Y-124450000D01*
X202307942Y-124450000D01*
X201931205Y-124375063D01*
X201576330Y-124228068D01*
X201256947Y-124014663D01*
X200985337Y-123743053D01*
X200771932Y-123423670D01*
X200624937Y-123068795D01*
X200550000Y-122692058D01*
X200550000Y-122307942D01*
X200624937Y-121931205D01*
X200771932Y-121576330D01*
X200928877Y-121341445D01*
X200985336Y-121256948D01*
X201256948Y-120985336D01*
X201576329Y-120771933D01*
X201576330Y-120771932D01*
X201931205Y-120624937D01*
X202307942Y-120550000D01*
X202692058Y-120550000D01*
X203068795Y-120624937D01*
X203068795Y-120624937D01*
G37*
G36*
X225101487Y-121483249D02*
X225271140Y-121534713D01*
X225411441Y-121609706D01*
X225427488Y-121618283D01*
X225564531Y-121730751D01*
X225676999Y-121867794D01*
X225677000Y-121867796D01*
X225760569Y-122024142D01*
X225812033Y-122193795D01*
X225829410Y-122370226D01*
X225812033Y-122546657D01*
X225760569Y-122716310D01*
X225685576Y-122856611D01*
X225676999Y-122872658D01*
X225564531Y-123009701D01*
X225427488Y-123122169D01*
X225427486Y-123122170D01*
X225271140Y-123205739D01*
X225101487Y-123257203D01*
X224969263Y-123270226D01*
X224880849Y-123270226D01*
X224748625Y-123257203D01*
X224578972Y-123205739D01*
X224422626Y-123122170D01*
X224422624Y-123122169D01*
X224285581Y-123009701D01*
X224173113Y-122872658D01*
X224164536Y-122856611D01*
X224089543Y-122716310D01*
X224038079Y-122546657D01*
X224020702Y-122370226D01*
X224038079Y-122193795D01*
X224089543Y-122024142D01*
X224173112Y-121867796D01*
X224173113Y-121867794D01*
X224285581Y-121730751D01*
X224422624Y-121618283D01*
X224438671Y-121609706D01*
X224578972Y-121534713D01*
X224748625Y-121483249D01*
X224880849Y-121470226D01*
X224969263Y-121470226D01*
X225101487Y-121483249D01*
X225101487Y-121483249D01*
G37*
G36*
X227454031Y-121301074D02*
X227481699Y-121309468D01*
X227507200Y-121323098D01*
X227529555Y-121341445D01*
X227547902Y-121363800D01*
X227561532Y-121389301D01*
X227569926Y-121416969D01*
X227573000Y-121448185D01*
X227573000Y-121837815D01*
X227569926Y-121869031D01*
X227561532Y-121896699D01*
X227547902Y-121922200D01*
X227529555Y-121944555D01*
X227507200Y-121962902D01*
X227481699Y-121976532D01*
X227454031Y-121984926D01*
X227422815Y-121988000D01*
X226983185Y-121988000D01*
X226951969Y-121984926D01*
X226924301Y-121976532D01*
X226898800Y-121962902D01*
X226876445Y-121944555D01*
X226858098Y-121922200D01*
X226844468Y-121896699D01*
X226836074Y-121869031D01*
X226833000Y-121837815D01*
X226833000Y-121448185D01*
X226836074Y-121416969D01*
X226844468Y-121389301D01*
X226858098Y-121363800D01*
X226876445Y-121341445D01*
X226898800Y-121323098D01*
X226924301Y-121309468D01*
X226951969Y-121301074D01*
X226983185Y-121298000D01*
X227422815Y-121298000D01*
X227454031Y-121301074D01*
X227454031Y-121301074D01*
G37*
G36*
X227454031Y-120331074D02*
X227481699Y-120339468D01*
X227507200Y-120353098D01*
X227529555Y-120371445D01*
X227547902Y-120393800D01*
X227561532Y-120419301D01*
X227569926Y-120446969D01*
X227573000Y-120478185D01*
X227573000Y-120867815D01*
X227569926Y-120899031D01*
X227561532Y-120926699D01*
X227547902Y-120952200D01*
X227529555Y-120974555D01*
X227507200Y-120992902D01*
X227481699Y-121006532D01*
X227454031Y-121014926D01*
X227422815Y-121018000D01*
X226983185Y-121018000D01*
X226951969Y-121014926D01*
X226924301Y-121006532D01*
X226898800Y-120992902D01*
X226876445Y-120974555D01*
X226858098Y-120952200D01*
X226844468Y-120926699D01*
X226836074Y-120899031D01*
X226833000Y-120867815D01*
X226833000Y-120478185D01*
X226836074Y-120446969D01*
X226844468Y-120419301D01*
X226858098Y-120393800D01*
X226876445Y-120371445D01*
X226898800Y-120353098D01*
X226924301Y-120339468D01*
X226951969Y-120331074D01*
X226983185Y-120328000D01*
X227422815Y-120328000D01*
X227454031Y-120331074D01*
X227454031Y-120331074D01*
G37*
G36*
X225825056Y-120730226D02*
X224025056Y-120730226D01*
X224025056Y-118930226D01*
X225825056Y-118930226D01*
X225825056Y-120730226D01*
X225825056Y-120730226D01*
G37*
G36*
X214806431Y-118493023D02*
X214976084Y-118544487D01*
X215116385Y-118619480D01*
X215132432Y-118628057D01*
X215269475Y-118740525D01*
X215381943Y-118877568D01*
X215381944Y-118877570D01*
X215465513Y-119033916D01*
X215516977Y-119203569D01*
X215534354Y-119380000D01*
X215516977Y-119556431D01*
X215465513Y-119726084D01*
X215390520Y-119866385D01*
X215381943Y-119882432D01*
X215269475Y-120019475D01*
X215132432Y-120131943D01*
X215132430Y-120131944D01*
X214976084Y-120215513D01*
X214976081Y-120215514D01*
X214806431Y-120266977D01*
X214674207Y-120280000D01*
X214585793Y-120280000D01*
X214453569Y-120266977D01*
X214283919Y-120215514D01*
X214283916Y-120215513D01*
X214127570Y-120131944D01*
X214127568Y-120131943D01*
X213990525Y-120019475D01*
X213878057Y-119882432D01*
X213869480Y-119866385D01*
X213794487Y-119726084D01*
X213743023Y-119556431D01*
X213725646Y-119380000D01*
X213743023Y-119203569D01*
X213794487Y-119033916D01*
X213878056Y-118877570D01*
X213878057Y-118877568D01*
X213990525Y-118740525D01*
X214127568Y-118628057D01*
X214143615Y-118619480D01*
X214283916Y-118544487D01*
X214453569Y-118493023D01*
X214585793Y-118480000D01*
X214674207Y-118480000D01*
X214806431Y-118493023D01*
X214806431Y-118493023D01*
G37*
G36*
X207186431Y-118493023D02*
X207356084Y-118544487D01*
X207496385Y-118619480D01*
X207512432Y-118628057D01*
X207649475Y-118740525D01*
X207761943Y-118877568D01*
X207761944Y-118877570D01*
X207845513Y-119033916D01*
X207896977Y-119203569D01*
X207914354Y-119380000D01*
X207896977Y-119556431D01*
X207845513Y-119726084D01*
X207770520Y-119866385D01*
X207761943Y-119882432D01*
X207649475Y-120019475D01*
X207512432Y-120131943D01*
X207512430Y-120131944D01*
X207356084Y-120215513D01*
X207356081Y-120215514D01*
X207186431Y-120266977D01*
X207054207Y-120280000D01*
X206965793Y-120280000D01*
X206833569Y-120266977D01*
X206663919Y-120215514D01*
X206663916Y-120215513D01*
X206507570Y-120131944D01*
X206507568Y-120131943D01*
X206370525Y-120019475D01*
X206258057Y-119882432D01*
X206249480Y-119866385D01*
X206174487Y-119726084D01*
X206123023Y-119556431D01*
X206105646Y-119380000D01*
X206123023Y-119203569D01*
X206174487Y-119033916D01*
X206258056Y-118877570D01*
X206258057Y-118877568D01*
X206370525Y-118740525D01*
X206507568Y-118628057D01*
X206523615Y-118619480D01*
X206663916Y-118544487D01*
X206833569Y-118493023D01*
X206965793Y-118480000D01*
X207054207Y-118480000D01*
X207186431Y-118493023D01*
X207186431Y-118493023D01*
G37*
G36*
X209726431Y-118493023D02*
X209896084Y-118544487D01*
X210036385Y-118619480D01*
X210052432Y-118628057D01*
X210189475Y-118740525D01*
X210301943Y-118877568D01*
X210301944Y-118877570D01*
X210385513Y-119033916D01*
X210436977Y-119203569D01*
X210454354Y-119380000D01*
X210436977Y-119556431D01*
X210385513Y-119726084D01*
X210310520Y-119866385D01*
X210301943Y-119882432D01*
X210189475Y-120019475D01*
X210052432Y-120131943D01*
X210052430Y-120131944D01*
X209896084Y-120215513D01*
X209896081Y-120215514D01*
X209726431Y-120266977D01*
X209594207Y-120280000D01*
X209505793Y-120280000D01*
X209373569Y-120266977D01*
X209203919Y-120215514D01*
X209203916Y-120215513D01*
X209047570Y-120131944D01*
X209047568Y-120131943D01*
X208910525Y-120019475D01*
X208798057Y-119882432D01*
X208789480Y-119866385D01*
X208714487Y-119726084D01*
X208663023Y-119556431D01*
X208645646Y-119380000D01*
X208663023Y-119203569D01*
X208714487Y-119033916D01*
X208798056Y-118877570D01*
X208798057Y-118877568D01*
X208910525Y-118740525D01*
X209047568Y-118628057D01*
X209063615Y-118619480D01*
X209203916Y-118544487D01*
X209373569Y-118493023D01*
X209505793Y-118480000D01*
X209594207Y-118480000D01*
X209726431Y-118493023D01*
X209726431Y-118493023D01*
G37*
G36*
X212266431Y-118493023D02*
X212436084Y-118544487D01*
X212576385Y-118619480D01*
X212592432Y-118628057D01*
X212729475Y-118740525D01*
X212841943Y-118877568D01*
X212841944Y-118877570D01*
X212925513Y-119033916D01*
X212976977Y-119203569D01*
X212994354Y-119380000D01*
X212976977Y-119556431D01*
X212925513Y-119726084D01*
X212850520Y-119866385D01*
X212841943Y-119882432D01*
X212729475Y-120019475D01*
X212592432Y-120131943D01*
X212592430Y-120131944D01*
X212436084Y-120215513D01*
X212436081Y-120215514D01*
X212266431Y-120266977D01*
X212134207Y-120280000D01*
X212045793Y-120280000D01*
X211913569Y-120266977D01*
X211743919Y-120215514D01*
X211743916Y-120215513D01*
X211587570Y-120131944D01*
X211587568Y-120131943D01*
X211450525Y-120019475D01*
X211338057Y-119882432D01*
X211329480Y-119866385D01*
X211254487Y-119726084D01*
X211203023Y-119556431D01*
X211185646Y-119380000D01*
X211203023Y-119203569D01*
X211254487Y-119033916D01*
X211338056Y-118877570D01*
X211338057Y-118877568D01*
X211450525Y-118740525D01*
X211587568Y-118628057D01*
X211603615Y-118619480D01*
X211743916Y-118544487D01*
X211913569Y-118493023D01*
X212045793Y-118480000D01*
X212134207Y-118480000D01*
X212266431Y-118493023D01*
X212266431Y-118493023D01*
G37*
G36*
X219886431Y-118493023D02*
X220056084Y-118544487D01*
X220196385Y-118619480D01*
X220212432Y-118628057D01*
X220349475Y-118740525D01*
X220461943Y-118877568D01*
X220461944Y-118877570D01*
X220545513Y-119033916D01*
X220596977Y-119203569D01*
X220614354Y-119380000D01*
X220596977Y-119556431D01*
X220545513Y-119726084D01*
X220470520Y-119866385D01*
X220461943Y-119882432D01*
X220349475Y-120019475D01*
X220212432Y-120131943D01*
X220212430Y-120131944D01*
X220056084Y-120215513D01*
X220056081Y-120215514D01*
X219886431Y-120266977D01*
X219754207Y-120280000D01*
X219665793Y-120280000D01*
X219533569Y-120266977D01*
X219363919Y-120215514D01*
X219363916Y-120215513D01*
X219207570Y-120131944D01*
X219207568Y-120131943D01*
X219070525Y-120019475D01*
X218958057Y-119882432D01*
X218949480Y-119866385D01*
X218874487Y-119726084D01*
X218823023Y-119556431D01*
X218805646Y-119380000D01*
X218823023Y-119203569D01*
X218874487Y-119033916D01*
X218958056Y-118877570D01*
X218958057Y-118877568D01*
X219070525Y-118740525D01*
X219207568Y-118628057D01*
X219223615Y-118619480D01*
X219363916Y-118544487D01*
X219533569Y-118493023D01*
X219665793Y-118480000D01*
X219754207Y-118480000D01*
X219886431Y-118493023D01*
X219886431Y-118493023D01*
G37*
G36*
X242746431Y-118493023D02*
X242916084Y-118544487D01*
X243056385Y-118619480D01*
X243072432Y-118628057D01*
X243209475Y-118740525D01*
X243321943Y-118877568D01*
X243321944Y-118877570D01*
X243405513Y-119033916D01*
X243456977Y-119203569D01*
X243474354Y-119380000D01*
X243456977Y-119556431D01*
X243405513Y-119726084D01*
X243330520Y-119866385D01*
X243321943Y-119882432D01*
X243209475Y-120019475D01*
X243072432Y-120131943D01*
X243072430Y-120131944D01*
X242916084Y-120215513D01*
X242746431Y-120266977D01*
X242614207Y-120280000D01*
X242525793Y-120280000D01*
X242393569Y-120266977D01*
X242223916Y-120215513D01*
X242067570Y-120131944D01*
X242067568Y-120131943D01*
X241930525Y-120019475D01*
X241818057Y-119882432D01*
X241809480Y-119866385D01*
X241734487Y-119726084D01*
X241683023Y-119556431D01*
X241665646Y-119380000D01*
X241683023Y-119203569D01*
X241734487Y-119033916D01*
X241818056Y-118877570D01*
X241818057Y-118877568D01*
X241930525Y-118740525D01*
X242067568Y-118628057D01*
X242083615Y-118619480D01*
X242223916Y-118544487D01*
X242393569Y-118493023D01*
X242525793Y-118480000D01*
X242614207Y-118480000D01*
X242746431Y-118493023D01*
X242746431Y-118493023D01*
G37*
G36*
X240206431Y-118493023D02*
X240376084Y-118544487D01*
X240516385Y-118619480D01*
X240532432Y-118628057D01*
X240669475Y-118740525D01*
X240781943Y-118877568D01*
X240781944Y-118877570D01*
X240865513Y-119033916D01*
X240916977Y-119203569D01*
X240934354Y-119380000D01*
X240916977Y-119556431D01*
X240865513Y-119726084D01*
X240790520Y-119866385D01*
X240781943Y-119882432D01*
X240669475Y-120019475D01*
X240532432Y-120131943D01*
X240532430Y-120131944D01*
X240376084Y-120215513D01*
X240206431Y-120266977D01*
X240074207Y-120280000D01*
X239985793Y-120280000D01*
X239853569Y-120266977D01*
X239683916Y-120215513D01*
X239527570Y-120131944D01*
X239527568Y-120131943D01*
X239390525Y-120019475D01*
X239278057Y-119882432D01*
X239269480Y-119866385D01*
X239194487Y-119726084D01*
X239143023Y-119556431D01*
X239125646Y-119380000D01*
X239143023Y-119203569D01*
X239194487Y-119033916D01*
X239278056Y-118877570D01*
X239278057Y-118877568D01*
X239390525Y-118740525D01*
X239527568Y-118628057D01*
X239543615Y-118619480D01*
X239683916Y-118544487D01*
X239853569Y-118493023D01*
X239985793Y-118480000D01*
X240074207Y-118480000D01*
X240206431Y-118493023D01*
X240206431Y-118493023D01*
G37*
G36*
X237666431Y-118493023D02*
X237836084Y-118544487D01*
X237976385Y-118619480D01*
X237992432Y-118628057D01*
X238129475Y-118740525D01*
X238241943Y-118877568D01*
X238241944Y-118877570D01*
X238325513Y-119033916D01*
X238376977Y-119203569D01*
X238394354Y-119380000D01*
X238376977Y-119556431D01*
X238325513Y-119726084D01*
X238250520Y-119866385D01*
X238241943Y-119882432D01*
X238129475Y-120019475D01*
X237992432Y-120131943D01*
X237992430Y-120131944D01*
X237836084Y-120215513D01*
X237666431Y-120266977D01*
X237534207Y-120280000D01*
X237445793Y-120280000D01*
X237313569Y-120266977D01*
X237143916Y-120215513D01*
X236987570Y-120131944D01*
X236987568Y-120131943D01*
X236850525Y-120019475D01*
X236738057Y-119882432D01*
X236729480Y-119866385D01*
X236654487Y-119726084D01*
X236603023Y-119556431D01*
X236585646Y-119380000D01*
X236603023Y-119203569D01*
X236654487Y-119033916D01*
X236738056Y-118877570D01*
X236738057Y-118877568D01*
X236850525Y-118740525D01*
X236987568Y-118628057D01*
X237003615Y-118619480D01*
X237143916Y-118544487D01*
X237313569Y-118493023D01*
X237445793Y-118480000D01*
X237534207Y-118480000D01*
X237666431Y-118493023D01*
X237666431Y-118493023D01*
G37*
G36*
X235126431Y-118493023D02*
X235296084Y-118544487D01*
X235436385Y-118619480D01*
X235452432Y-118628057D01*
X235589475Y-118740525D01*
X235701943Y-118877568D01*
X235701944Y-118877570D01*
X235785513Y-119033916D01*
X235836977Y-119203569D01*
X235854354Y-119380000D01*
X235836977Y-119556431D01*
X235785513Y-119726084D01*
X235710520Y-119866385D01*
X235701943Y-119882432D01*
X235589475Y-120019475D01*
X235452432Y-120131943D01*
X235452430Y-120131944D01*
X235296084Y-120215513D01*
X235126431Y-120266977D01*
X234994207Y-120280000D01*
X234905793Y-120280000D01*
X234773569Y-120266977D01*
X234603916Y-120215513D01*
X234447570Y-120131944D01*
X234447568Y-120131943D01*
X234310525Y-120019475D01*
X234198057Y-119882432D01*
X234189480Y-119866385D01*
X234114487Y-119726084D01*
X234063023Y-119556431D01*
X234045646Y-119380000D01*
X234063023Y-119203569D01*
X234114487Y-119033916D01*
X234198056Y-118877570D01*
X234198057Y-118877568D01*
X234310525Y-118740525D01*
X234447568Y-118628057D01*
X234463615Y-118619480D01*
X234603916Y-118544487D01*
X234773569Y-118493023D01*
X234905793Y-118480000D01*
X234994207Y-118480000D01*
X235126431Y-118493023D01*
X235126431Y-118493023D01*
G37*
G36*
X232586431Y-118493023D02*
X232756084Y-118544487D01*
X232896385Y-118619480D01*
X232912432Y-118628057D01*
X233049475Y-118740525D01*
X233161943Y-118877568D01*
X233161944Y-118877570D01*
X233245513Y-119033916D01*
X233296977Y-119203569D01*
X233314354Y-119380000D01*
X233296977Y-119556431D01*
X233245513Y-119726084D01*
X233170520Y-119866385D01*
X233161943Y-119882432D01*
X233049475Y-120019475D01*
X232912432Y-120131943D01*
X232912430Y-120131944D01*
X232756084Y-120215513D01*
X232586431Y-120266977D01*
X232454207Y-120280000D01*
X232365793Y-120280000D01*
X232233569Y-120266977D01*
X232063916Y-120215513D01*
X231907570Y-120131944D01*
X231907568Y-120131943D01*
X231770525Y-120019475D01*
X231658057Y-119882432D01*
X231649480Y-119866385D01*
X231574487Y-119726084D01*
X231523023Y-119556431D01*
X231505646Y-119380000D01*
X231523023Y-119203569D01*
X231574487Y-119033916D01*
X231658056Y-118877570D01*
X231658057Y-118877568D01*
X231770525Y-118740525D01*
X231907568Y-118628057D01*
X231923615Y-118619480D01*
X232063916Y-118544487D01*
X232233569Y-118493023D01*
X232365793Y-118480000D01*
X232454207Y-118480000D01*
X232586431Y-118493023D01*
X232586431Y-118493023D01*
G37*
G36*
X230046431Y-118493023D02*
X230216084Y-118544487D01*
X230356385Y-118619480D01*
X230372432Y-118628057D01*
X230509475Y-118740525D01*
X230621943Y-118877568D01*
X230621944Y-118877570D01*
X230705513Y-119033916D01*
X230756977Y-119203569D01*
X230774354Y-119380000D01*
X230756977Y-119556431D01*
X230705513Y-119726084D01*
X230630520Y-119866385D01*
X230621943Y-119882432D01*
X230509475Y-120019475D01*
X230372432Y-120131943D01*
X230372430Y-120131944D01*
X230216084Y-120215513D01*
X230046431Y-120266977D01*
X229914207Y-120280000D01*
X229825793Y-120280000D01*
X229693569Y-120266977D01*
X229523916Y-120215513D01*
X229367570Y-120131944D01*
X229367568Y-120131943D01*
X229230525Y-120019475D01*
X229118057Y-119882432D01*
X229109480Y-119866385D01*
X229034487Y-119726084D01*
X228983023Y-119556431D01*
X228965646Y-119380000D01*
X228983023Y-119203569D01*
X229034487Y-119033916D01*
X229118056Y-118877570D01*
X229118057Y-118877568D01*
X229230525Y-118740525D01*
X229367568Y-118628057D01*
X229383615Y-118619480D01*
X229523916Y-118544487D01*
X229693569Y-118493023D01*
X229825793Y-118480000D01*
X229914207Y-118480000D01*
X230046431Y-118493023D01*
X230046431Y-118493023D01*
G37*
G36*
X217346431Y-118493023D02*
X217516084Y-118544487D01*
X217656385Y-118619480D01*
X217672432Y-118628057D01*
X217809475Y-118740525D01*
X217921943Y-118877568D01*
X217921944Y-118877570D01*
X218005513Y-119033916D01*
X218056977Y-119203569D01*
X218074354Y-119380000D01*
X218056977Y-119556431D01*
X218005513Y-119726084D01*
X217930520Y-119866385D01*
X217921943Y-119882432D01*
X217809475Y-120019475D01*
X217672432Y-120131943D01*
X217672430Y-120131944D01*
X217516084Y-120215513D01*
X217516081Y-120215514D01*
X217346431Y-120266977D01*
X217214207Y-120280000D01*
X217125793Y-120280000D01*
X216993569Y-120266977D01*
X216823919Y-120215514D01*
X216823916Y-120215513D01*
X216667570Y-120131944D01*
X216667568Y-120131943D01*
X216530525Y-120019475D01*
X216418057Y-119882432D01*
X216409480Y-119866385D01*
X216334487Y-119726084D01*
X216283023Y-119556431D01*
X216265646Y-119380000D01*
X216283023Y-119203569D01*
X216334487Y-119033916D01*
X216418056Y-118877570D01*
X216418057Y-118877568D01*
X216530525Y-118740525D01*
X216667568Y-118628057D01*
X216683615Y-118619480D01*
X216823916Y-118544487D01*
X216993569Y-118493023D01*
X217125793Y-118480000D01*
X217214207Y-118480000D01*
X217346431Y-118493023D01*
X217346431Y-118493023D01*
G37*
G36*
X227581031Y-118253074D02*
X227608699Y-118261468D01*
X227634200Y-118275098D01*
X227656555Y-118293445D01*
X227674902Y-118315800D01*
X227688532Y-118341301D01*
X227696926Y-118368969D01*
X227700000Y-118400185D01*
X227700000Y-118789815D01*
X227696926Y-118821031D01*
X227688532Y-118848699D01*
X227674902Y-118874200D01*
X227656555Y-118896555D01*
X227634200Y-118914902D01*
X227608699Y-118928532D01*
X227581031Y-118936926D01*
X227549815Y-118940000D01*
X227110185Y-118940000D01*
X227078969Y-118936926D01*
X227051301Y-118928532D01*
X227025800Y-118914902D01*
X227003445Y-118896555D01*
X226985098Y-118874200D01*
X226971468Y-118848699D01*
X226963074Y-118821031D01*
X226960000Y-118789815D01*
X226960000Y-118400185D01*
X226963074Y-118368969D01*
X226971468Y-118341301D01*
X226985098Y-118315800D01*
X227003445Y-118293445D01*
X227025800Y-118275098D01*
X227051301Y-118261468D01*
X227078969Y-118253074D01*
X227110185Y-118250000D01*
X227549815Y-118250000D01*
X227581031Y-118253074D01*
X227581031Y-118253074D01*
G37*
G36*
X204251031Y-118143074D02*
X204278699Y-118151468D01*
X204304200Y-118165098D01*
X204326555Y-118183445D01*
X204344902Y-118205800D01*
X204358532Y-118231301D01*
X204366926Y-118258969D01*
X204370000Y-118290185D01*
X204370000Y-118679815D01*
X204366926Y-118711031D01*
X204358532Y-118738699D01*
X204344902Y-118764200D01*
X204326555Y-118786555D01*
X204304200Y-118804902D01*
X204278699Y-118818532D01*
X204251031Y-118826926D01*
X204219815Y-118830000D01*
X203780185Y-118830000D01*
X203748969Y-118826926D01*
X203721301Y-118818532D01*
X203695800Y-118804902D01*
X203673445Y-118786555D01*
X203655098Y-118764200D01*
X203641468Y-118738699D01*
X203633074Y-118711031D01*
X203630000Y-118679815D01*
X203630000Y-118290185D01*
X203633074Y-118258969D01*
X203641468Y-118231301D01*
X203655098Y-118205800D01*
X203673445Y-118183445D01*
X203695800Y-118165098D01*
X203721301Y-118151468D01*
X203748969Y-118143074D01*
X203780185Y-118140000D01*
X204219815Y-118140000D01*
X204251031Y-118143074D01*
X204251031Y-118143074D01*
G37*
G36*
X227581031Y-117283074D02*
X227608699Y-117291468D01*
X227634200Y-117305098D01*
X227656555Y-117323445D01*
X227674902Y-117345800D01*
X227688532Y-117371301D01*
X227696926Y-117398969D01*
X227700000Y-117430185D01*
X227700000Y-117819815D01*
X227696926Y-117851031D01*
X227688532Y-117878699D01*
X227674902Y-117904200D01*
X227656555Y-117926555D01*
X227634200Y-117944902D01*
X227608699Y-117958532D01*
X227581031Y-117966926D01*
X227549815Y-117970000D01*
X227110185Y-117970000D01*
X227078969Y-117966926D01*
X227051301Y-117958532D01*
X227025800Y-117944902D01*
X227003445Y-117926555D01*
X226985098Y-117904200D01*
X226971468Y-117878699D01*
X226963074Y-117851031D01*
X226960000Y-117819815D01*
X226960000Y-117430185D01*
X226963074Y-117398969D01*
X226971468Y-117371301D01*
X226985098Y-117345800D01*
X227003445Y-117323445D01*
X227025800Y-117305098D01*
X227051301Y-117291468D01*
X227078969Y-117283074D01*
X227110185Y-117280000D01*
X227549815Y-117280000D01*
X227581031Y-117283074D01*
X227581031Y-117283074D01*
G37*
G36*
X204251031Y-117173074D02*
X204278699Y-117181468D01*
X204304200Y-117195098D01*
X204326555Y-117213445D01*
X204344902Y-117235800D01*
X204358532Y-117261301D01*
X204366926Y-117288969D01*
X204370000Y-117320185D01*
X204370000Y-117709815D01*
X204366926Y-117741031D01*
X204358532Y-117768699D01*
X204344902Y-117794200D01*
X204326555Y-117816555D01*
X204304200Y-117834902D01*
X204278699Y-117848532D01*
X204251031Y-117856926D01*
X204219815Y-117860000D01*
X203780185Y-117860000D01*
X203748969Y-117856926D01*
X203721301Y-117848532D01*
X203695800Y-117834902D01*
X203673445Y-117816555D01*
X203655098Y-117794200D01*
X203641468Y-117768699D01*
X203633074Y-117741031D01*
X203630000Y-117709815D01*
X203630000Y-117320185D01*
X203633074Y-117288969D01*
X203641468Y-117261301D01*
X203655098Y-117235800D01*
X203673445Y-117213445D01*
X203695800Y-117195098D01*
X203721301Y-117181468D01*
X203748969Y-117173074D01*
X203780185Y-117170000D01*
X204219815Y-117170000D01*
X204251031Y-117173074D01*
X204251031Y-117173074D01*
G37*
G36*
X235126431Y-115953023D02*
X235296084Y-116004487D01*
X235436385Y-116079480D01*
X235452432Y-116088057D01*
X235589475Y-116200525D01*
X235701943Y-116337568D01*
X235701944Y-116337570D01*
X235785513Y-116493916D01*
X235785514Y-116493919D01*
X235836977Y-116663569D01*
X235854354Y-116840000D01*
X235836977Y-117016431D01*
X235789387Y-117173315D01*
X235785513Y-117186084D01*
X235719775Y-117309071D01*
X235701943Y-117342432D01*
X235589475Y-117479475D01*
X235452432Y-117591943D01*
X235452430Y-117591944D01*
X235296084Y-117675513D01*
X235296081Y-117675514D01*
X235126431Y-117726977D01*
X234994207Y-117740000D01*
X234905793Y-117740000D01*
X234773569Y-117726977D01*
X234603919Y-117675514D01*
X234603916Y-117675513D01*
X234447570Y-117591944D01*
X234447568Y-117591943D01*
X234310525Y-117479475D01*
X234198057Y-117342432D01*
X234180225Y-117309071D01*
X234114487Y-117186084D01*
X234110614Y-117173315D01*
X234063023Y-117016431D01*
X234045646Y-116840000D01*
X234063023Y-116663569D01*
X234114486Y-116493919D01*
X234114487Y-116493916D01*
X234198056Y-116337570D01*
X234198057Y-116337568D01*
X234310525Y-116200525D01*
X234447568Y-116088057D01*
X234463615Y-116079480D01*
X234603916Y-116004487D01*
X234773569Y-115953023D01*
X234905793Y-115940000D01*
X234994207Y-115940000D01*
X235126431Y-115953023D01*
X235126431Y-115953023D01*
G37*
G36*
X240206431Y-115953023D02*
X240376084Y-116004487D01*
X240516385Y-116079480D01*
X240532432Y-116088057D01*
X240669475Y-116200525D01*
X240781943Y-116337568D01*
X240781944Y-116337570D01*
X240865513Y-116493916D01*
X240865514Y-116493919D01*
X240916977Y-116663569D01*
X240934354Y-116840000D01*
X240916977Y-117016431D01*
X240869387Y-117173315D01*
X240865513Y-117186084D01*
X240799775Y-117309071D01*
X240781943Y-117342432D01*
X240669475Y-117479475D01*
X240532432Y-117591943D01*
X240532430Y-117591944D01*
X240376084Y-117675513D01*
X240376081Y-117675514D01*
X240206431Y-117726977D01*
X240074207Y-117740000D01*
X239985793Y-117740000D01*
X239853569Y-117726977D01*
X239683919Y-117675514D01*
X239683916Y-117675513D01*
X239527570Y-117591944D01*
X239527568Y-117591943D01*
X239390525Y-117479475D01*
X239278057Y-117342432D01*
X239260225Y-117309071D01*
X239194487Y-117186084D01*
X239190614Y-117173315D01*
X239143023Y-117016431D01*
X239125646Y-116840000D01*
X239143023Y-116663569D01*
X239194486Y-116493919D01*
X239194487Y-116493916D01*
X239278056Y-116337570D01*
X239278057Y-116337568D01*
X239390525Y-116200525D01*
X239527568Y-116088057D01*
X239543615Y-116079480D01*
X239683916Y-116004487D01*
X239853569Y-115953023D01*
X239985793Y-115940000D01*
X240074207Y-115940000D01*
X240206431Y-115953023D01*
X240206431Y-115953023D01*
G37*
G36*
X217346431Y-115953023D02*
X217516084Y-116004487D01*
X217656385Y-116079480D01*
X217672432Y-116088057D01*
X217809475Y-116200525D01*
X217921943Y-116337568D01*
X217921944Y-116337570D01*
X218005513Y-116493916D01*
X218005514Y-116493919D01*
X218056977Y-116663569D01*
X218074354Y-116840000D01*
X218056977Y-117016431D01*
X218009387Y-117173315D01*
X218005513Y-117186084D01*
X217939775Y-117309071D01*
X217921943Y-117342432D01*
X217809475Y-117479475D01*
X217672432Y-117591943D01*
X217672430Y-117591944D01*
X217516084Y-117675513D01*
X217516081Y-117675514D01*
X217403006Y-117709815D01*
X217346431Y-117726977D01*
X217214207Y-117740000D01*
X217125793Y-117740000D01*
X216993569Y-117726977D01*
X216936994Y-117709815D01*
X216823919Y-117675514D01*
X216823916Y-117675513D01*
X216667570Y-117591944D01*
X216667568Y-117591943D01*
X216530525Y-117479475D01*
X216418057Y-117342432D01*
X216400225Y-117309071D01*
X216334487Y-117186084D01*
X216330614Y-117173315D01*
X216283023Y-117016431D01*
X216265646Y-116840000D01*
X216283023Y-116663569D01*
X216334486Y-116493919D01*
X216334487Y-116493916D01*
X216418056Y-116337570D01*
X216418057Y-116337568D01*
X216530525Y-116200525D01*
X216667568Y-116088057D01*
X216683615Y-116079480D01*
X216823916Y-116004487D01*
X216993569Y-115953023D01*
X217125793Y-115940000D01*
X217214207Y-115940000D01*
X217346431Y-115953023D01*
X217346431Y-115953023D01*
G37*
G36*
X243470000Y-117740000D02*
X241670000Y-117740000D01*
X241670000Y-115940000D01*
X243470000Y-115940000D01*
X243470000Y-117740000D01*
X243470000Y-117740000D01*
G37*
G36*
X220610000Y-117740000D02*
X218810000Y-117740000D01*
X218810000Y-115940000D01*
X220610000Y-115940000D01*
X220610000Y-117740000D01*
X220610000Y-117740000D01*
G37*
G36*
X214806431Y-115953023D02*
X214976084Y-116004487D01*
X215116385Y-116079480D01*
X215132432Y-116088057D01*
X215269475Y-116200525D01*
X215381943Y-116337568D01*
X215381944Y-116337570D01*
X215465513Y-116493916D01*
X215465514Y-116493919D01*
X215516977Y-116663569D01*
X215534354Y-116840000D01*
X215516977Y-117016431D01*
X215469387Y-117173315D01*
X215465513Y-117186084D01*
X215399775Y-117309071D01*
X215381943Y-117342432D01*
X215269475Y-117479475D01*
X215132432Y-117591943D01*
X215132430Y-117591944D01*
X214976084Y-117675513D01*
X214976081Y-117675514D01*
X214806431Y-117726977D01*
X214674207Y-117740000D01*
X214585793Y-117740000D01*
X214453569Y-117726977D01*
X214283919Y-117675514D01*
X214283916Y-117675513D01*
X214127570Y-117591944D01*
X214127568Y-117591943D01*
X213990525Y-117479475D01*
X213878057Y-117342432D01*
X213860225Y-117309071D01*
X213794487Y-117186084D01*
X213790614Y-117173315D01*
X213743023Y-117016431D01*
X213725646Y-116840000D01*
X213743023Y-116663569D01*
X213794486Y-116493919D01*
X213794487Y-116493916D01*
X213878056Y-116337570D01*
X213878057Y-116337568D01*
X213990525Y-116200525D01*
X214127568Y-116088057D01*
X214143615Y-116079480D01*
X214283916Y-116004487D01*
X214453569Y-115953023D01*
X214585793Y-115940000D01*
X214674207Y-115940000D01*
X214806431Y-115953023D01*
X214806431Y-115953023D01*
G37*
G36*
X212266431Y-115953023D02*
X212436084Y-116004487D01*
X212576385Y-116079480D01*
X212592432Y-116088057D01*
X212729475Y-116200525D01*
X212841943Y-116337568D01*
X212841944Y-116337570D01*
X212925513Y-116493916D01*
X212925514Y-116493919D01*
X212976977Y-116663569D01*
X212994354Y-116840000D01*
X212976977Y-117016431D01*
X212929387Y-117173315D01*
X212925513Y-117186084D01*
X212859775Y-117309071D01*
X212841943Y-117342432D01*
X212729475Y-117479475D01*
X212592432Y-117591943D01*
X212592430Y-117591944D01*
X212436084Y-117675513D01*
X212436081Y-117675514D01*
X212266431Y-117726977D01*
X212134207Y-117740000D01*
X212045793Y-117740000D01*
X211913569Y-117726977D01*
X211743919Y-117675514D01*
X211743916Y-117675513D01*
X211587570Y-117591944D01*
X211587568Y-117591943D01*
X211450525Y-117479475D01*
X211338057Y-117342432D01*
X211320225Y-117309071D01*
X211254487Y-117186084D01*
X211250614Y-117173315D01*
X211203023Y-117016431D01*
X211185646Y-116840000D01*
X211203023Y-116663569D01*
X211254486Y-116493919D01*
X211254487Y-116493916D01*
X211338056Y-116337570D01*
X211338057Y-116337568D01*
X211450525Y-116200525D01*
X211587568Y-116088057D01*
X211603615Y-116079480D01*
X211743916Y-116004487D01*
X211913569Y-115953023D01*
X212045793Y-115940000D01*
X212134207Y-115940000D01*
X212266431Y-115953023D01*
X212266431Y-115953023D01*
G37*
G36*
X209726431Y-115953023D02*
X209896084Y-116004487D01*
X210036385Y-116079480D01*
X210052432Y-116088057D01*
X210189475Y-116200525D01*
X210301943Y-116337568D01*
X210301944Y-116337570D01*
X210385513Y-116493916D01*
X210385514Y-116493919D01*
X210436977Y-116663569D01*
X210454354Y-116840000D01*
X210436977Y-117016431D01*
X210389387Y-117173315D01*
X210385513Y-117186084D01*
X210319775Y-117309071D01*
X210301943Y-117342432D01*
X210189475Y-117479475D01*
X210052432Y-117591943D01*
X210052430Y-117591944D01*
X209896084Y-117675513D01*
X209896081Y-117675514D01*
X209726431Y-117726977D01*
X209594207Y-117740000D01*
X209505793Y-117740000D01*
X209373569Y-117726977D01*
X209203919Y-117675514D01*
X209203916Y-117675513D01*
X209047570Y-117591944D01*
X209047568Y-117591943D01*
X208910525Y-117479475D01*
X208798057Y-117342432D01*
X208780225Y-117309071D01*
X208714487Y-117186084D01*
X208710614Y-117173315D01*
X208663023Y-117016431D01*
X208645646Y-116840000D01*
X208663023Y-116663569D01*
X208714486Y-116493919D01*
X208714487Y-116493916D01*
X208798056Y-116337570D01*
X208798057Y-116337568D01*
X208910525Y-116200525D01*
X209047568Y-116088057D01*
X209063615Y-116079480D01*
X209203916Y-116004487D01*
X209373569Y-115953023D01*
X209505793Y-115940000D01*
X209594207Y-115940000D01*
X209726431Y-115953023D01*
X209726431Y-115953023D01*
G37*
G36*
X232586431Y-115953023D02*
X232756084Y-116004487D01*
X232896385Y-116079480D01*
X232912432Y-116088057D01*
X233049475Y-116200525D01*
X233161943Y-116337568D01*
X233161944Y-116337570D01*
X233245513Y-116493916D01*
X233245514Y-116493919D01*
X233296977Y-116663569D01*
X233314354Y-116840000D01*
X233296977Y-117016431D01*
X233249387Y-117173315D01*
X233245513Y-117186084D01*
X233179775Y-117309071D01*
X233161943Y-117342432D01*
X233049475Y-117479475D01*
X232912432Y-117591943D01*
X232912430Y-117591944D01*
X232756084Y-117675513D01*
X232756081Y-117675514D01*
X232586431Y-117726977D01*
X232454207Y-117740000D01*
X232365793Y-117740000D01*
X232233569Y-117726977D01*
X232063919Y-117675514D01*
X232063916Y-117675513D01*
X231907570Y-117591944D01*
X231907568Y-117591943D01*
X231770525Y-117479475D01*
X231658057Y-117342432D01*
X231640225Y-117309071D01*
X231574487Y-117186084D01*
X231570614Y-117173315D01*
X231523023Y-117016431D01*
X231505646Y-116840000D01*
X231523023Y-116663569D01*
X231574486Y-116493919D01*
X231574487Y-116493916D01*
X231658056Y-116337570D01*
X231658057Y-116337568D01*
X231770525Y-116200525D01*
X231907568Y-116088057D01*
X231923615Y-116079480D01*
X232063916Y-116004487D01*
X232233569Y-115953023D01*
X232365793Y-115940000D01*
X232454207Y-115940000D01*
X232586431Y-115953023D01*
X232586431Y-115953023D01*
G37*
G36*
X230046431Y-115953023D02*
X230216084Y-116004487D01*
X230356385Y-116079480D01*
X230372432Y-116088057D01*
X230509475Y-116200525D01*
X230621943Y-116337568D01*
X230621944Y-116337570D01*
X230705513Y-116493916D01*
X230705514Y-116493919D01*
X230756977Y-116663569D01*
X230774354Y-116840000D01*
X230756977Y-117016431D01*
X230709387Y-117173315D01*
X230705513Y-117186084D01*
X230639775Y-117309071D01*
X230621943Y-117342432D01*
X230509475Y-117479475D01*
X230372432Y-117591943D01*
X230372430Y-117591944D01*
X230216084Y-117675513D01*
X230216081Y-117675514D01*
X230046431Y-117726977D01*
X229914207Y-117740000D01*
X229825793Y-117740000D01*
X229693569Y-117726977D01*
X229523919Y-117675514D01*
X229523916Y-117675513D01*
X229367570Y-117591944D01*
X229367568Y-117591943D01*
X229230525Y-117479475D01*
X229118057Y-117342432D01*
X229100225Y-117309071D01*
X229034487Y-117186084D01*
X229030614Y-117173315D01*
X228983023Y-117016431D01*
X228965646Y-116840000D01*
X228983023Y-116663569D01*
X229034486Y-116493919D01*
X229034487Y-116493916D01*
X229118056Y-116337570D01*
X229118057Y-116337568D01*
X229230525Y-116200525D01*
X229367568Y-116088057D01*
X229383615Y-116079480D01*
X229523916Y-116004487D01*
X229693569Y-115953023D01*
X229825793Y-115940000D01*
X229914207Y-115940000D01*
X230046431Y-115953023D01*
X230046431Y-115953023D01*
G37*
G36*
X207186431Y-115953023D02*
X207356084Y-116004487D01*
X207496385Y-116079480D01*
X207512432Y-116088057D01*
X207649475Y-116200525D01*
X207761943Y-116337568D01*
X207761944Y-116337570D01*
X207845513Y-116493916D01*
X207845514Y-116493919D01*
X207896977Y-116663569D01*
X207914354Y-116840000D01*
X207896977Y-117016431D01*
X207849387Y-117173315D01*
X207845513Y-117186084D01*
X207779775Y-117309071D01*
X207761943Y-117342432D01*
X207649475Y-117479475D01*
X207512432Y-117591943D01*
X207512430Y-117591944D01*
X207356084Y-117675513D01*
X207356081Y-117675514D01*
X207186431Y-117726977D01*
X207054207Y-117740000D01*
X206965793Y-117740000D01*
X206833569Y-117726977D01*
X206663919Y-117675514D01*
X206663916Y-117675513D01*
X206507570Y-117591944D01*
X206507568Y-117591943D01*
X206370525Y-117479475D01*
X206258057Y-117342432D01*
X206240225Y-117309071D01*
X206174487Y-117186084D01*
X206170614Y-117173315D01*
X206123023Y-117016431D01*
X206105646Y-116840000D01*
X206123023Y-116663569D01*
X206174486Y-116493919D01*
X206174487Y-116493916D01*
X206258056Y-116337570D01*
X206258057Y-116337568D01*
X206370525Y-116200525D01*
X206507568Y-116088057D01*
X206523615Y-116079480D01*
X206663916Y-116004487D01*
X206833569Y-115953023D01*
X206965793Y-115940000D01*
X207054207Y-115940000D01*
X207186431Y-115953023D01*
X207186431Y-115953023D01*
G37*
G36*
X237666431Y-115953023D02*
X237836084Y-116004487D01*
X237976385Y-116079480D01*
X237992432Y-116088057D01*
X238129475Y-116200525D01*
X238241943Y-116337568D01*
X238241944Y-116337570D01*
X238325513Y-116493916D01*
X238325514Y-116493919D01*
X238376977Y-116663569D01*
X238394354Y-116840000D01*
X238376977Y-117016431D01*
X238329387Y-117173315D01*
X238325513Y-117186084D01*
X238259775Y-117309071D01*
X238241943Y-117342432D01*
X238129475Y-117479475D01*
X237992432Y-117591943D01*
X237992430Y-117591944D01*
X237836084Y-117675513D01*
X237836081Y-117675514D01*
X237666431Y-117726977D01*
X237534207Y-117740000D01*
X237445793Y-117740000D01*
X237313569Y-117726977D01*
X237143919Y-117675514D01*
X237143916Y-117675513D01*
X236987570Y-117591944D01*
X236987568Y-117591943D01*
X236850525Y-117479475D01*
X236738057Y-117342432D01*
X236720225Y-117309071D01*
X236654487Y-117186084D01*
X236650614Y-117173315D01*
X236603023Y-117016431D01*
X236585646Y-116840000D01*
X236603023Y-116663569D01*
X236654486Y-116493919D01*
X236654487Y-116493916D01*
X236738056Y-116337570D01*
X236738057Y-116337568D01*
X236850525Y-116200525D01*
X236987568Y-116088057D01*
X237003615Y-116079480D01*
X237143916Y-116004487D01*
X237313569Y-115953023D01*
X237445793Y-115940000D01*
X237534207Y-115940000D01*
X237666431Y-115953023D01*
X237666431Y-115953023D01*
G37*
G36*
X231650000Y-114000000D02*
X230150000Y-114000000D01*
X230150000Y-112700000D01*
X231650000Y-112700000D01*
X231650000Y-114000000D01*
X231650000Y-114000000D01*
G37*
G36*
X233850000Y-114000000D02*
X232350000Y-114000000D01*
X232350000Y-112700000D01*
X233850000Y-112700000D01*
X233850000Y-114000000D01*
X233850000Y-114000000D01*
G37*
G36*
X247691689Y-111888429D02*
X247873678Y-111963811D01*
X248037463Y-112073249D01*
X248176751Y-112212537D01*
X248286189Y-112376322D01*
X248361571Y-112558311D01*
X248400000Y-112751509D01*
X248400000Y-112948491D01*
X248361571Y-113141689D01*
X248286189Y-113323678D01*
X248176751Y-113487463D01*
X248037463Y-113626751D01*
X247873678Y-113736189D01*
X247691689Y-113811571D01*
X247498491Y-113850000D01*
X247301509Y-113850000D01*
X247108311Y-113811571D01*
X246926322Y-113736189D01*
X246762537Y-113626751D01*
X246623249Y-113487463D01*
X246513811Y-113323678D01*
X246438429Y-113141689D01*
X246400000Y-112948491D01*
X246400000Y-112751509D01*
X246438429Y-112558311D01*
X246513811Y-112376322D01*
X246623249Y-112212537D01*
X246762537Y-112073249D01*
X246926322Y-111963811D01*
X247108311Y-111888429D01*
X247301509Y-111850000D01*
X247498491Y-111850000D01*
X247691689Y-111888429D01*
X247691689Y-111888429D01*
G37*
G36*
X229501031Y-112643074D02*
X229528699Y-112651468D01*
X229554200Y-112665098D01*
X229576555Y-112683445D01*
X229594902Y-112705800D01*
X229608532Y-112731301D01*
X229616926Y-112758969D01*
X229620000Y-112790185D01*
X229620000Y-113179815D01*
X229616926Y-113211031D01*
X229608532Y-113238699D01*
X229594902Y-113264200D01*
X229576555Y-113286555D01*
X229554200Y-113304902D01*
X229528699Y-113318532D01*
X229501031Y-113326926D01*
X229469815Y-113330000D01*
X229030185Y-113330000D01*
X228998969Y-113326926D01*
X228971301Y-113318532D01*
X228945800Y-113304902D01*
X228923445Y-113286555D01*
X228905098Y-113264200D01*
X228891468Y-113238699D01*
X228883074Y-113211031D01*
X228880000Y-113179815D01*
X228880000Y-112790185D01*
X228883074Y-112758969D01*
X228891468Y-112731301D01*
X228905098Y-112705800D01*
X228923445Y-112683445D01*
X228945800Y-112665098D01*
X228971301Y-112651468D01*
X228998969Y-112643074D01*
X229030185Y-112640000D01*
X229469815Y-112640000D01*
X229501031Y-112643074D01*
X229501031Y-112643074D01*
G37*
G36*
X235001031Y-112643074D02*
X235028699Y-112651468D01*
X235054200Y-112665098D01*
X235076555Y-112683445D01*
X235094902Y-112705800D01*
X235108532Y-112731301D01*
X235116926Y-112758969D01*
X235120000Y-112790185D01*
X235120000Y-113179815D01*
X235116926Y-113211031D01*
X235108532Y-113238699D01*
X235094902Y-113264200D01*
X235076555Y-113286555D01*
X235054200Y-113304902D01*
X235028699Y-113318532D01*
X235001031Y-113326926D01*
X234969815Y-113330000D01*
X234530185Y-113330000D01*
X234498969Y-113326926D01*
X234471301Y-113318532D01*
X234445800Y-113304902D01*
X234423445Y-113286555D01*
X234405098Y-113264200D01*
X234391468Y-113238699D01*
X234383074Y-113211031D01*
X234380000Y-113179815D01*
X234380000Y-112790185D01*
X234383074Y-112758969D01*
X234391468Y-112731301D01*
X234405098Y-112705800D01*
X234423445Y-112683445D01*
X234445800Y-112665098D01*
X234471301Y-112651468D01*
X234498969Y-112643074D01*
X234530185Y-112640000D01*
X234969815Y-112640000D01*
X235001031Y-112643074D01*
X235001031Y-112643074D01*
G37*
G36*
X242791689Y-111288429D02*
X242973678Y-111363811D01*
X243137463Y-111473249D01*
X243276751Y-111612537D01*
X243386189Y-111776322D01*
X243461571Y-111958311D01*
X243500000Y-112151509D01*
X243500000Y-112348491D01*
X243461571Y-112541689D01*
X243386189Y-112723678D01*
X243276751Y-112887463D01*
X243137463Y-113026751D01*
X242973678Y-113136189D01*
X242791689Y-113211571D01*
X242598491Y-113250000D01*
X242401509Y-113250000D01*
X242208311Y-113211571D01*
X242026322Y-113136189D01*
X241862537Y-113026751D01*
X241723249Y-112887463D01*
X241613811Y-112723678D01*
X241538429Y-112541689D01*
X241500000Y-112348491D01*
X241500000Y-112151509D01*
X241538429Y-111958311D01*
X241613811Y-111776322D01*
X241723249Y-111612537D01*
X241862537Y-111473249D01*
X242026322Y-111363811D01*
X242208311Y-111288429D01*
X242401509Y-111250000D01*
X242598491Y-111250000D01*
X242791689Y-111288429D01*
X242791689Y-111288429D01*
G37*
G36*
X235001031Y-111673074D02*
X235028699Y-111681468D01*
X235054200Y-111695098D01*
X235076555Y-111713445D01*
X235094902Y-111735800D01*
X235108532Y-111761301D01*
X235116926Y-111788969D01*
X235120000Y-111820185D01*
X235120000Y-112209815D01*
X235116926Y-112241031D01*
X235108532Y-112268699D01*
X235094902Y-112294200D01*
X235076555Y-112316555D01*
X235054200Y-112334902D01*
X235028699Y-112348532D01*
X235001031Y-112356926D01*
X234969815Y-112360000D01*
X234530185Y-112360000D01*
X234498969Y-112356926D01*
X234471301Y-112348532D01*
X234445800Y-112334902D01*
X234423445Y-112316555D01*
X234405098Y-112294200D01*
X234391468Y-112268699D01*
X234383074Y-112241031D01*
X234380000Y-112209815D01*
X234380000Y-111820185D01*
X234383074Y-111788969D01*
X234391468Y-111761301D01*
X234405098Y-111735800D01*
X234423445Y-111713445D01*
X234445800Y-111695098D01*
X234471301Y-111681468D01*
X234498969Y-111673074D01*
X234530185Y-111670000D01*
X234969815Y-111670000D01*
X235001031Y-111673074D01*
X235001031Y-111673074D01*
G37*
G36*
X229501031Y-111673074D02*
X229528699Y-111681468D01*
X229554200Y-111695098D01*
X229576555Y-111713445D01*
X229594902Y-111735800D01*
X229608532Y-111761301D01*
X229616926Y-111788969D01*
X229620000Y-111820185D01*
X229620000Y-112209815D01*
X229616926Y-112241031D01*
X229608532Y-112268699D01*
X229594902Y-112294200D01*
X229576555Y-112316555D01*
X229554200Y-112334902D01*
X229528699Y-112348532D01*
X229501031Y-112356926D01*
X229469815Y-112360000D01*
X229030185Y-112360000D01*
X228998969Y-112356926D01*
X228971301Y-112348532D01*
X228945800Y-112334902D01*
X228923445Y-112316555D01*
X228905098Y-112294200D01*
X228891468Y-112268699D01*
X228883074Y-112241031D01*
X228880000Y-112209815D01*
X228880000Y-111820185D01*
X228883074Y-111788969D01*
X228891468Y-111761301D01*
X228905098Y-111735800D01*
X228923445Y-111713445D01*
X228945800Y-111695098D01*
X228971301Y-111681468D01*
X228998969Y-111673074D01*
X229030185Y-111670000D01*
X229469815Y-111670000D01*
X229501031Y-111673074D01*
X229501031Y-111673074D01*
G37*
G36*
X231650000Y-112300000D02*
X230150000Y-112300000D01*
X230150000Y-111000000D01*
X231650000Y-111000000D01*
X231650000Y-112300000D01*
X231650000Y-112300000D01*
G37*
G36*
X233850000Y-112300000D02*
X232350000Y-112300000D01*
X232350000Y-111000000D01*
X233850000Y-111000000D01*
X233850000Y-112300000D01*
X233850000Y-112300000D01*
G37*
G36*
X242600000Y-109450000D02*
X240600000Y-109450000D01*
X240600000Y-109050000D01*
X242600000Y-109050000D01*
X242600000Y-109450000D01*
X242600000Y-109450000D01*
G37*
G36*
X202462500Y-108465639D02*
X202462737Y-108470480D01*
X202465645Y-108500000D01*
X202462737Y-108529524D01*
X202462500Y-108534358D01*
X202462500Y-108575603D01*
X202459852Y-108580557D01*
X202456324Y-108594642D01*
X202453095Y-108627422D01*
X202415927Y-108749948D01*
X202355570Y-108862868D01*
X202274343Y-108961843D01*
X202175368Y-109043070D01*
X202062448Y-109103427D01*
X201939922Y-109140595D01*
X201844432Y-109150000D01*
X201080568Y-109150000D01*
X200985078Y-109140595D01*
X200862552Y-109103427D01*
X200749632Y-109043070D01*
X200650657Y-108961843D01*
X200569430Y-108862868D01*
X200509073Y-108749948D01*
X200471905Y-108627422D01*
X200468676Y-108594638D01*
X200466784Y-108585131D01*
X200463071Y-108576166D01*
X200462500Y-108575311D01*
X200462500Y-108534358D01*
X200462263Y-108529524D01*
X200459355Y-108500000D01*
X200462263Y-108470480D01*
X200462500Y-108465639D01*
X200462500Y-107250000D01*
X202462500Y-107250000D01*
X202462500Y-108465639D01*
X202462500Y-108465639D01*
G37*
G36*
X231029406Y-107952171D02*
X231057679Y-107960747D01*
X231083740Y-107974678D01*
X231101840Y-107989532D01*
X231106579Y-107993421D01*
X231111527Y-107999450D01*
X231125324Y-108016262D01*
X231139253Y-108042320D01*
X231147829Y-108070593D01*
X231150000Y-108092638D01*
X231150000Y-108907362D01*
X231147829Y-108929407D01*
X231139253Y-108957680D01*
X231125324Y-108983738D01*
X231106579Y-109006579D01*
X231083738Y-109025324D01*
X231057680Y-109039253D01*
X231029407Y-109047829D01*
X231000000Y-109050725D01*
X230970594Y-109047829D01*
X230942321Y-109039253D01*
X230916263Y-109025324D01*
X230893422Y-109006579D01*
X230874677Y-108983738D01*
X230860748Y-108957680D01*
X230852172Y-108929407D01*
X230850001Y-108907362D01*
X230850000Y-108092639D01*
X230852171Y-108070594D01*
X230860747Y-108042321D01*
X230874678Y-108016260D01*
X230893419Y-107993423D01*
X230893424Y-107993419D01*
X230899450Y-107988473D01*
X230916262Y-107974676D01*
X230942320Y-107960747D01*
X230970593Y-107952171D01*
X231000000Y-107949275D01*
X231029406Y-107952171D01*
X231029406Y-107952171D01*
G37*
G36*
X227829406Y-107952171D02*
X227857679Y-107960747D01*
X227883740Y-107974678D01*
X227901840Y-107989532D01*
X227906579Y-107993421D01*
X227911527Y-107999450D01*
X227925324Y-108016262D01*
X227939253Y-108042320D01*
X227947829Y-108070593D01*
X227950000Y-108092638D01*
X227950000Y-108907362D01*
X227947829Y-108929407D01*
X227939253Y-108957680D01*
X227925324Y-108983738D01*
X227906579Y-109006579D01*
X227883738Y-109025324D01*
X227857680Y-109039253D01*
X227829407Y-109047829D01*
X227800000Y-109050725D01*
X227770594Y-109047829D01*
X227742321Y-109039253D01*
X227716263Y-109025324D01*
X227693422Y-109006579D01*
X227674677Y-108983738D01*
X227660748Y-108957680D01*
X227652172Y-108929407D01*
X227650001Y-108907362D01*
X227650000Y-108092639D01*
X227652171Y-108070594D01*
X227660747Y-108042321D01*
X227674678Y-108016260D01*
X227693419Y-107993423D01*
X227693424Y-107993419D01*
X227699450Y-107988473D01*
X227716262Y-107974676D01*
X227742320Y-107960747D01*
X227770593Y-107952171D01*
X227800000Y-107949275D01*
X227829406Y-107952171D01*
X227829406Y-107952171D01*
G37*
G36*
X231829406Y-107952171D02*
X231857679Y-107960747D01*
X231883740Y-107974678D01*
X231901840Y-107989532D01*
X231906579Y-107993421D01*
X231911527Y-107999450D01*
X231925324Y-108016262D01*
X231939253Y-108042320D01*
X231947829Y-108070593D01*
X231950000Y-108092638D01*
X231950000Y-108907362D01*
X231947829Y-108929407D01*
X231939253Y-108957680D01*
X231925324Y-108983738D01*
X231906579Y-109006579D01*
X231883738Y-109025324D01*
X231857680Y-109039253D01*
X231829407Y-109047829D01*
X231800000Y-109050725D01*
X231770594Y-109047829D01*
X231742321Y-109039253D01*
X231716263Y-109025324D01*
X231693422Y-109006579D01*
X231674677Y-108983738D01*
X231660748Y-108957680D01*
X231652172Y-108929407D01*
X231650001Y-108907362D01*
X231650000Y-108092639D01*
X231652171Y-108070594D01*
X231660747Y-108042321D01*
X231674678Y-108016260D01*
X231693419Y-107993423D01*
X231693424Y-107993419D01*
X231699450Y-107988473D01*
X231716262Y-107974676D01*
X231742320Y-107960747D01*
X231770593Y-107952171D01*
X231800000Y-107949275D01*
X231829406Y-107952171D01*
X231829406Y-107952171D01*
G37*
G36*
X232229406Y-107952171D02*
X232257679Y-107960747D01*
X232283740Y-107974678D01*
X232301840Y-107989532D01*
X232306579Y-107993421D01*
X232311527Y-107999450D01*
X232325324Y-108016262D01*
X232339253Y-108042320D01*
X232347829Y-108070593D01*
X232350000Y-108092638D01*
X232350000Y-108907362D01*
X232347829Y-108929407D01*
X232339253Y-108957680D01*
X232325324Y-108983738D01*
X232306579Y-109006579D01*
X232283738Y-109025324D01*
X232257680Y-109039253D01*
X232229407Y-109047829D01*
X232200000Y-109050725D01*
X232170594Y-109047829D01*
X232142321Y-109039253D01*
X232116263Y-109025324D01*
X232093422Y-109006579D01*
X232074677Y-108983738D01*
X232060748Y-108957680D01*
X232052172Y-108929407D01*
X232050001Y-108907362D01*
X232050000Y-108092639D01*
X232052171Y-108070594D01*
X232060747Y-108042321D01*
X232074678Y-108016260D01*
X232093419Y-107993423D01*
X232093424Y-107993419D01*
X232099450Y-107988473D01*
X232116262Y-107974676D01*
X232142320Y-107960747D01*
X232170593Y-107952171D01*
X232200000Y-107949275D01*
X232229406Y-107952171D01*
X232229406Y-107952171D01*
G37*
G36*
X230629406Y-107952171D02*
X230657679Y-107960747D01*
X230683740Y-107974678D01*
X230701840Y-107989532D01*
X230706579Y-107993421D01*
X230711527Y-107999450D01*
X230725324Y-108016262D01*
X230739253Y-108042320D01*
X230747829Y-108070593D01*
X230750000Y-108092638D01*
X230750000Y-108907362D01*
X230747829Y-108929407D01*
X230739253Y-108957680D01*
X230725324Y-108983738D01*
X230706579Y-109006579D01*
X230683738Y-109025324D01*
X230657680Y-109039253D01*
X230629407Y-109047829D01*
X230600000Y-109050725D01*
X230570594Y-109047829D01*
X230542321Y-109039253D01*
X230516263Y-109025324D01*
X230493422Y-109006579D01*
X230474677Y-108983738D01*
X230460748Y-108957680D01*
X230452172Y-108929407D01*
X230450001Y-108907362D01*
X230450000Y-108092639D01*
X230452171Y-108070594D01*
X230460747Y-108042321D01*
X230474678Y-108016260D01*
X230493419Y-107993423D01*
X230493424Y-107993419D01*
X230499450Y-107988473D01*
X230516262Y-107974676D01*
X230542320Y-107960747D01*
X230570593Y-107952171D01*
X230600000Y-107949275D01*
X230629406Y-107952171D01*
X230629406Y-107952171D01*
G37*
G36*
X230229406Y-107952171D02*
X230257679Y-107960747D01*
X230283740Y-107974678D01*
X230301840Y-107989532D01*
X230306579Y-107993421D01*
X230311527Y-107999450D01*
X230325324Y-108016262D01*
X230339253Y-108042320D01*
X230347829Y-108070593D01*
X230350000Y-108092638D01*
X230350000Y-108907362D01*
X230347829Y-108929407D01*
X230339253Y-108957680D01*
X230325324Y-108983738D01*
X230306579Y-109006579D01*
X230283738Y-109025324D01*
X230257680Y-109039253D01*
X230229407Y-109047829D01*
X230200000Y-109050725D01*
X230170594Y-109047829D01*
X230142321Y-109039253D01*
X230116263Y-109025324D01*
X230093422Y-109006579D01*
X230074677Y-108983738D01*
X230060748Y-108957680D01*
X230052172Y-108929407D01*
X230050001Y-108907362D01*
X230050000Y-108092639D01*
X230052171Y-108070594D01*
X230060747Y-108042321D01*
X230074678Y-108016260D01*
X230093419Y-107993423D01*
X230093424Y-107993419D01*
X230099450Y-107988473D01*
X230116262Y-107974676D01*
X230142320Y-107960747D01*
X230170593Y-107952171D01*
X230200000Y-107949275D01*
X230229406Y-107952171D01*
X230229406Y-107952171D01*
G37*
G36*
X232629406Y-107952171D02*
X232657679Y-107960747D01*
X232683740Y-107974678D01*
X232701840Y-107989532D01*
X232706579Y-107993421D01*
X232711527Y-107999450D01*
X232725324Y-108016262D01*
X232739253Y-108042320D01*
X232747829Y-108070593D01*
X232750000Y-108092638D01*
X232750000Y-108907362D01*
X232747829Y-108929407D01*
X232739253Y-108957680D01*
X232725324Y-108983738D01*
X232706579Y-109006579D01*
X232683738Y-109025324D01*
X232657680Y-109039253D01*
X232629407Y-109047829D01*
X232600000Y-109050725D01*
X232570594Y-109047829D01*
X232542321Y-109039253D01*
X232516263Y-109025324D01*
X232493422Y-109006579D01*
X232474677Y-108983738D01*
X232460748Y-108957680D01*
X232452172Y-108929407D01*
X232450001Y-108907362D01*
X232450000Y-108092639D01*
X232452171Y-108070594D01*
X232460747Y-108042321D01*
X232474678Y-108016260D01*
X232493419Y-107993423D01*
X232493424Y-107993419D01*
X232499450Y-107988473D01*
X232516262Y-107974676D01*
X232542320Y-107960747D01*
X232570593Y-107952171D01*
X232600000Y-107949275D01*
X232629406Y-107952171D01*
X232629406Y-107952171D01*
G37*
G36*
X227429406Y-107952171D02*
X227457679Y-107960747D01*
X227483740Y-107974678D01*
X227501840Y-107989532D01*
X227506579Y-107993421D01*
X227511527Y-107999450D01*
X227525324Y-108016262D01*
X227539253Y-108042320D01*
X227547829Y-108070593D01*
X227550000Y-108092638D01*
X227550000Y-108907362D01*
X227547829Y-108929407D01*
X227539253Y-108957680D01*
X227525324Y-108983738D01*
X227506579Y-109006579D01*
X227483738Y-109025324D01*
X227457680Y-109039253D01*
X227429407Y-109047829D01*
X227400000Y-109050725D01*
X227370594Y-109047829D01*
X227342321Y-109039253D01*
X227316263Y-109025324D01*
X227293422Y-109006579D01*
X227274677Y-108983738D01*
X227260748Y-108957680D01*
X227252172Y-108929407D01*
X227250001Y-108907362D01*
X227250000Y-108092639D01*
X227252171Y-108070594D01*
X227260747Y-108042321D01*
X227274678Y-108016260D01*
X227293419Y-107993423D01*
X227293424Y-107993419D01*
X227299450Y-107988473D01*
X227316262Y-107974676D01*
X227342320Y-107960747D01*
X227370593Y-107952171D01*
X227400000Y-107949275D01*
X227429406Y-107952171D01*
X227429406Y-107952171D01*
G37*
G36*
X229829406Y-107952171D02*
X229857679Y-107960747D01*
X229883740Y-107974678D01*
X229901840Y-107989532D01*
X229906579Y-107993421D01*
X229911527Y-107999450D01*
X229925324Y-108016262D01*
X229939253Y-108042320D01*
X229947829Y-108070593D01*
X229950000Y-108092638D01*
X229950000Y-108907362D01*
X229947829Y-108929407D01*
X229939253Y-108957680D01*
X229925324Y-108983738D01*
X229906579Y-109006579D01*
X229883738Y-109025324D01*
X229857680Y-109039253D01*
X229829407Y-109047829D01*
X229800000Y-109050725D01*
X229770594Y-109047829D01*
X229742321Y-109039253D01*
X229716263Y-109025324D01*
X229693422Y-109006579D01*
X229674677Y-108983738D01*
X229660748Y-108957680D01*
X229652172Y-108929407D01*
X229650001Y-108907362D01*
X229650000Y-108092639D01*
X229652171Y-108070594D01*
X229660747Y-108042321D01*
X229674678Y-108016260D01*
X229693419Y-107993423D01*
X229693424Y-107993419D01*
X229699450Y-107988473D01*
X229716262Y-107974676D01*
X229742320Y-107960747D01*
X229770593Y-107952171D01*
X229800000Y-107949275D01*
X229829406Y-107952171D01*
X229829406Y-107952171D01*
G37*
G36*
X229429406Y-107952171D02*
X229457679Y-107960747D01*
X229483740Y-107974678D01*
X229501840Y-107989532D01*
X229506579Y-107993421D01*
X229511527Y-107999450D01*
X229525324Y-108016262D01*
X229539253Y-108042320D01*
X229547829Y-108070593D01*
X229550000Y-108092638D01*
X229550000Y-108907362D01*
X229547829Y-108929407D01*
X229539253Y-108957680D01*
X229525324Y-108983738D01*
X229506579Y-109006579D01*
X229483738Y-109025324D01*
X229457680Y-109039253D01*
X229429407Y-109047829D01*
X229400000Y-109050725D01*
X229370594Y-109047829D01*
X229342321Y-109039253D01*
X229316263Y-109025324D01*
X229293422Y-109006579D01*
X229274677Y-108983738D01*
X229260748Y-108957680D01*
X229252172Y-108929407D01*
X229250001Y-108907362D01*
X229250000Y-108092639D01*
X229252171Y-108070594D01*
X229260747Y-108042321D01*
X229274678Y-108016260D01*
X229293419Y-107993423D01*
X229293424Y-107993419D01*
X229299450Y-107988473D01*
X229316262Y-107974676D01*
X229342320Y-107960747D01*
X229370593Y-107952171D01*
X229400000Y-107949275D01*
X229429406Y-107952171D01*
X229429406Y-107952171D01*
G37*
G36*
X229029406Y-107952171D02*
X229057679Y-107960747D01*
X229083740Y-107974678D01*
X229101840Y-107989532D01*
X229106579Y-107993421D01*
X229111527Y-107999450D01*
X229125324Y-108016262D01*
X229139253Y-108042320D01*
X229147829Y-108070593D01*
X229150000Y-108092638D01*
X229150000Y-108907362D01*
X229147829Y-108929407D01*
X229139253Y-108957680D01*
X229125324Y-108983738D01*
X229106579Y-109006579D01*
X229083738Y-109025324D01*
X229057680Y-109039253D01*
X229029407Y-109047829D01*
X229000000Y-109050725D01*
X228970594Y-109047829D01*
X228942321Y-109039253D01*
X228916263Y-109025324D01*
X228893422Y-109006579D01*
X228874677Y-108983738D01*
X228860748Y-108957680D01*
X228852172Y-108929407D01*
X228850001Y-108907362D01*
X228850000Y-108092639D01*
X228852171Y-108070594D01*
X228860747Y-108042321D01*
X228874678Y-108016260D01*
X228893419Y-107993423D01*
X228893424Y-107993419D01*
X228899450Y-107988473D01*
X228916262Y-107974676D01*
X228942320Y-107960747D01*
X228970593Y-107952171D01*
X229000000Y-107949275D01*
X229029406Y-107952171D01*
X229029406Y-107952171D01*
G37*
G36*
X231429406Y-107952171D02*
X231457679Y-107960747D01*
X231483740Y-107974678D01*
X231501840Y-107989532D01*
X231506579Y-107993421D01*
X231511527Y-107999450D01*
X231525324Y-108016262D01*
X231539253Y-108042320D01*
X231547829Y-108070593D01*
X231550000Y-108092638D01*
X231550000Y-108907362D01*
X231547829Y-108929407D01*
X231539253Y-108957680D01*
X231525324Y-108983738D01*
X231506579Y-109006579D01*
X231483738Y-109025324D01*
X231457680Y-109039253D01*
X231429407Y-109047829D01*
X231400000Y-109050725D01*
X231370594Y-109047829D01*
X231342321Y-109039253D01*
X231316263Y-109025324D01*
X231293422Y-109006579D01*
X231274677Y-108983738D01*
X231260748Y-108957680D01*
X231252172Y-108929407D01*
X231250001Y-108907362D01*
X231250000Y-108092639D01*
X231252171Y-108070594D01*
X231260747Y-108042321D01*
X231274678Y-108016260D01*
X231293419Y-107993423D01*
X231293424Y-107993419D01*
X231299450Y-107988473D01*
X231316262Y-107974676D01*
X231342320Y-107960747D01*
X231370593Y-107952171D01*
X231400000Y-107949275D01*
X231429406Y-107952171D01*
X231429406Y-107952171D01*
G37*
G36*
X228229406Y-107952171D02*
X228257679Y-107960747D01*
X228283740Y-107974678D01*
X228301840Y-107989532D01*
X228306579Y-107993421D01*
X228311527Y-107999450D01*
X228325324Y-108016262D01*
X228339253Y-108042320D01*
X228347829Y-108070593D01*
X228350000Y-108092638D01*
X228350000Y-108907362D01*
X228347829Y-108929407D01*
X228339253Y-108957680D01*
X228325324Y-108983738D01*
X228306579Y-109006579D01*
X228283738Y-109025324D01*
X228257680Y-109039253D01*
X228229407Y-109047829D01*
X228200000Y-109050725D01*
X228170594Y-109047829D01*
X228142321Y-109039253D01*
X228116263Y-109025324D01*
X228093422Y-109006579D01*
X228074677Y-108983738D01*
X228060748Y-108957680D01*
X228052172Y-108929407D01*
X228050001Y-108907362D01*
X228050000Y-108092639D01*
X228052171Y-108070594D01*
X228060747Y-108042321D01*
X228074678Y-108016260D01*
X228093419Y-107993423D01*
X228093424Y-107993419D01*
X228099450Y-107988473D01*
X228116262Y-107974676D01*
X228142320Y-107960747D01*
X228170593Y-107952171D01*
X228200000Y-107949275D01*
X228229406Y-107952171D01*
X228229406Y-107952171D01*
G37*
G36*
X228629406Y-107952171D02*
X228657679Y-107960747D01*
X228683740Y-107974678D01*
X228701840Y-107989532D01*
X228706579Y-107993421D01*
X228711527Y-107999450D01*
X228725324Y-108016262D01*
X228739253Y-108042320D01*
X228747829Y-108070593D01*
X228750000Y-108092638D01*
X228750000Y-108907362D01*
X228747829Y-108929407D01*
X228739253Y-108957680D01*
X228725324Y-108983738D01*
X228706579Y-109006579D01*
X228683738Y-109025324D01*
X228657680Y-109039253D01*
X228629407Y-109047829D01*
X228600000Y-109050725D01*
X228570594Y-109047829D01*
X228542321Y-109039253D01*
X228516263Y-109025324D01*
X228493422Y-109006579D01*
X228474677Y-108983738D01*
X228460748Y-108957680D01*
X228452172Y-108929407D01*
X228450001Y-108907362D01*
X228450000Y-108092639D01*
X228452171Y-108070594D01*
X228460747Y-108042321D01*
X228474678Y-108016260D01*
X228493419Y-107993423D01*
X228493424Y-107993419D01*
X228499450Y-107988473D01*
X228516262Y-107974676D01*
X228542320Y-107960747D01*
X228570593Y-107952171D01*
X228600000Y-107949275D01*
X228629406Y-107952171D01*
X228629406Y-107952171D01*
G37*
G36*
X242600000Y-108950000D02*
X240600000Y-108950000D01*
X240600000Y-108550000D01*
X242600000Y-108550000D01*
X242600000Y-108950000D01*
X242600000Y-108950000D01*
G37*
G36*
X237879264Y-107962161D02*
X237898024Y-107967853D01*
X237915310Y-107977091D01*
X237930468Y-107989532D01*
X237942909Y-108004690D01*
X237952148Y-108021977D01*
X237952632Y-108023572D01*
X237956345Y-108032537D01*
X237961736Y-108040606D01*
X237968598Y-108047467D01*
X237976666Y-108052858D01*
X237985631Y-108056572D01*
X237995149Y-108058465D01*
X238004852Y-108058465D01*
X238014369Y-108056571D01*
X238023334Y-108052858D01*
X238031403Y-108047467D01*
X238038264Y-108040605D01*
X238043655Y-108032537D01*
X238047368Y-108023572D01*
X238047852Y-108021977D01*
X238057091Y-108004690D01*
X238069532Y-107989532D01*
X238084690Y-107977091D01*
X238101976Y-107967853D01*
X238120736Y-107962161D01*
X238142684Y-107960000D01*
X238497316Y-107960000D01*
X238519264Y-107962161D01*
X238538024Y-107967853D01*
X238555310Y-107977091D01*
X238570468Y-107989532D01*
X238582909Y-108004690D01*
X238592147Y-108021976D01*
X238597839Y-108040736D01*
X238600000Y-108062684D01*
X238600000Y-108357316D01*
X238597839Y-108379264D01*
X238592147Y-108398024D01*
X238582909Y-108415310D01*
X238570468Y-108430468D01*
X238555310Y-108442909D01*
X238538024Y-108452147D01*
X238519264Y-108457839D01*
X238497316Y-108460000D01*
X238142684Y-108460000D01*
X238120736Y-108457839D01*
X238101976Y-108452147D01*
X238084690Y-108442909D01*
X238069532Y-108430468D01*
X238057091Y-108415310D01*
X238047852Y-108398023D01*
X238047368Y-108396428D01*
X238043655Y-108387463D01*
X238038264Y-108379394D01*
X238031402Y-108372533D01*
X238023334Y-108367142D01*
X238014369Y-108363428D01*
X238004851Y-108361535D01*
X237995148Y-108361535D01*
X237985631Y-108363429D01*
X237976666Y-108367142D01*
X237968597Y-108372533D01*
X237961736Y-108379395D01*
X237956345Y-108387463D01*
X237952632Y-108396428D01*
X237952148Y-108398023D01*
X237942909Y-108415310D01*
X237930468Y-108430468D01*
X237915310Y-108442909D01*
X237898024Y-108452147D01*
X237879264Y-108457839D01*
X237857316Y-108460000D01*
X237502684Y-108460000D01*
X237480736Y-108457839D01*
X237461976Y-108452147D01*
X237444690Y-108442909D01*
X237429532Y-108430468D01*
X237417091Y-108415310D01*
X237407853Y-108398024D01*
X237402161Y-108379264D01*
X237400000Y-108357316D01*
X237400000Y-108062684D01*
X237402161Y-108040736D01*
X237407853Y-108021976D01*
X237417091Y-108004690D01*
X237429532Y-107989532D01*
X237444690Y-107977091D01*
X237461976Y-107967853D01*
X237480736Y-107962161D01*
X237502684Y-107960000D01*
X237857316Y-107960000D01*
X237879264Y-107962161D01*
X237879264Y-107962161D01*
G37*
G36*
X242600000Y-108450000D02*
X240600000Y-108450000D01*
X240600000Y-108050000D01*
X242600000Y-108050000D01*
X242600000Y-108450000D01*
X242600000Y-108450000D01*
G37*
G36*
X204313695Y-106739891D02*
X204388560Y-106754783D01*
X204426728Y-106770593D01*
X204529600Y-106813204D01*
X204656534Y-106898018D01*
X204764482Y-107005966D01*
X204849296Y-107132900D01*
X204879289Y-107205310D01*
X204907717Y-107273940D01*
X204937500Y-107423670D01*
X204937500Y-107576330D01*
X204907717Y-107726060D01*
X204888243Y-107773073D01*
X204849296Y-107867100D01*
X204764482Y-107994034D01*
X204656534Y-108101982D01*
X204529600Y-108186796D01*
X204435573Y-108225743D01*
X204388560Y-108245217D01*
X204313695Y-108260109D01*
X204238831Y-108275000D01*
X204086169Y-108275000D01*
X204011305Y-108260109D01*
X203936440Y-108245217D01*
X203889427Y-108225743D01*
X203795400Y-108186796D01*
X203668466Y-108101982D01*
X203560518Y-107994034D01*
X203475704Y-107867100D01*
X203436757Y-107773073D01*
X203417283Y-107726060D01*
X203387500Y-107576330D01*
X203387500Y-107423670D01*
X203417283Y-107273940D01*
X203445711Y-107205310D01*
X203475704Y-107132900D01*
X203560518Y-107005966D01*
X203668466Y-106898018D01*
X203795400Y-106813204D01*
X203898272Y-106770593D01*
X203936440Y-106754783D01*
X204011305Y-106739891D01*
X204086169Y-106725000D01*
X204238831Y-106725000D01*
X204313695Y-106739891D01*
X204313695Y-106739891D01*
G37*
G36*
X242600000Y-107950000D02*
X240600000Y-107950000D01*
X240600000Y-107550000D01*
X242600000Y-107550000D01*
X242600000Y-107950000D01*
X242600000Y-107950000D01*
G37*
G36*
X226929407Y-107452171D02*
X226957680Y-107460747D01*
X226983738Y-107474676D01*
X227006579Y-107493421D01*
X227025324Y-107516262D01*
X227039253Y-107542320D01*
X227047829Y-107570593D01*
X227050725Y-107600000D01*
X227047829Y-107629407D01*
X227039253Y-107657680D01*
X227025324Y-107683738D01*
X227006579Y-107706579D01*
X226983738Y-107725324D01*
X226957680Y-107739253D01*
X226929407Y-107747829D01*
X226907362Y-107750000D01*
X226092638Y-107750000D01*
X226070593Y-107747829D01*
X226042320Y-107739253D01*
X226016262Y-107725324D01*
X225993421Y-107706579D01*
X225974676Y-107683738D01*
X225960747Y-107657680D01*
X225952171Y-107629407D01*
X225949275Y-107600000D01*
X225952171Y-107570593D01*
X225960747Y-107542320D01*
X225974676Y-107516262D01*
X225993421Y-107493421D01*
X226016262Y-107474676D01*
X226042320Y-107460747D01*
X226070593Y-107452171D01*
X226092638Y-107450000D01*
X226907362Y-107450000D01*
X226929407Y-107452171D01*
X226929407Y-107452171D01*
G37*
G36*
X233929407Y-107452171D02*
X233957680Y-107460747D01*
X233983738Y-107474676D01*
X234006579Y-107493421D01*
X234025324Y-107516262D01*
X234039253Y-107542320D01*
X234047829Y-107570593D01*
X234050725Y-107600000D01*
X234047829Y-107629407D01*
X234039253Y-107657680D01*
X234025324Y-107683738D01*
X234006579Y-107706579D01*
X233983738Y-107725324D01*
X233957680Y-107739253D01*
X233929407Y-107747829D01*
X233907362Y-107750000D01*
X233092638Y-107750000D01*
X233070593Y-107747829D01*
X233042320Y-107739253D01*
X233016262Y-107725324D01*
X232993421Y-107706579D01*
X232974676Y-107683738D01*
X232960747Y-107657680D01*
X232952171Y-107629407D01*
X232949275Y-107600000D01*
X232952171Y-107570593D01*
X232960747Y-107542320D01*
X232974676Y-107516262D01*
X232993421Y-107493421D01*
X233016262Y-107474676D01*
X233042320Y-107460747D01*
X233070593Y-107452171D01*
X233092638Y-107450000D01*
X233907362Y-107450000D01*
X233929407Y-107452171D01*
X233929407Y-107452171D01*
G37*
G36*
X242600000Y-107450000D02*
X240600000Y-107450000D01*
X240600000Y-107050000D01*
X242600000Y-107050000D01*
X242600000Y-107450000D01*
X242600000Y-107450000D01*
G37*
G36*
X233929407Y-107052171D02*
X233957680Y-107060747D01*
X233983738Y-107074676D01*
X234006579Y-107093421D01*
X234025324Y-107116262D01*
X234039253Y-107142320D01*
X234047829Y-107170593D01*
X234050725Y-107200000D01*
X234047829Y-107229407D01*
X234039253Y-107257680D01*
X234025324Y-107283738D01*
X234006579Y-107306579D01*
X233983738Y-107325324D01*
X233957680Y-107339253D01*
X233929407Y-107347829D01*
X233907362Y-107350000D01*
X233092638Y-107350000D01*
X233070593Y-107347829D01*
X233042320Y-107339253D01*
X233016262Y-107325324D01*
X232993421Y-107306579D01*
X232974676Y-107283738D01*
X232960747Y-107257680D01*
X232952171Y-107229407D01*
X232949275Y-107200000D01*
X232952171Y-107170593D01*
X232960747Y-107142320D01*
X232974676Y-107116262D01*
X232993421Y-107093421D01*
X233016262Y-107074676D01*
X233042320Y-107060747D01*
X233070593Y-107052171D01*
X233092638Y-107050000D01*
X233907362Y-107050000D01*
X233929407Y-107052171D01*
X233929407Y-107052171D01*
G37*
G36*
X226929407Y-107052171D02*
X226957680Y-107060747D01*
X226983738Y-107074676D01*
X227006579Y-107093421D01*
X227025324Y-107116262D01*
X227039253Y-107142320D01*
X227047829Y-107170593D01*
X227050725Y-107200000D01*
X227047829Y-107229407D01*
X227039253Y-107257680D01*
X227025324Y-107283738D01*
X227006579Y-107306579D01*
X226983738Y-107325324D01*
X226957680Y-107339253D01*
X226929407Y-107347829D01*
X226907362Y-107350000D01*
X226092638Y-107350000D01*
X226070593Y-107347829D01*
X226042320Y-107339253D01*
X226016262Y-107325324D01*
X225993421Y-107306579D01*
X225974676Y-107283738D01*
X225960747Y-107257680D01*
X225952171Y-107229407D01*
X225949275Y-107200000D01*
X225952171Y-107170593D01*
X225960747Y-107142320D01*
X225974676Y-107116262D01*
X225993421Y-107093421D01*
X226016262Y-107074676D01*
X226042320Y-107060747D01*
X226070593Y-107052171D01*
X226092638Y-107050000D01*
X226907362Y-107050000D01*
X226929407Y-107052171D01*
X226929407Y-107052171D01*
G37*
G36*
X235279264Y-106752161D02*
X235298024Y-106757853D01*
X235315310Y-106767091D01*
X235330468Y-106779532D01*
X235342909Y-106794690D01*
X235352148Y-106811977D01*
X235352632Y-106813572D01*
X235356345Y-106822537D01*
X235361736Y-106830606D01*
X235368598Y-106837467D01*
X235376666Y-106842858D01*
X235385631Y-106846572D01*
X235395149Y-106848465D01*
X235404852Y-106848465D01*
X235414369Y-106846571D01*
X235423334Y-106842858D01*
X235431403Y-106837467D01*
X235438264Y-106830605D01*
X235443655Y-106822537D01*
X235447368Y-106813572D01*
X235447852Y-106811977D01*
X235457091Y-106794690D01*
X235469532Y-106779532D01*
X235484690Y-106767091D01*
X235501976Y-106757853D01*
X235520736Y-106752161D01*
X235542684Y-106750000D01*
X235897316Y-106750000D01*
X235919264Y-106752161D01*
X235938024Y-106757853D01*
X235955310Y-106767091D01*
X235970468Y-106779532D01*
X235982909Y-106794690D01*
X235992147Y-106811976D01*
X235997839Y-106830736D01*
X236000000Y-106852684D01*
X236000000Y-107147316D01*
X235997839Y-107169264D01*
X235992147Y-107188024D01*
X235982909Y-107205310D01*
X235970468Y-107220468D01*
X235955310Y-107232909D01*
X235938024Y-107242147D01*
X235919264Y-107247839D01*
X235897316Y-107250000D01*
X235542684Y-107250000D01*
X235520736Y-107247839D01*
X235501976Y-107242147D01*
X235484690Y-107232909D01*
X235469532Y-107220468D01*
X235457091Y-107205310D01*
X235447852Y-107188023D01*
X235447368Y-107186428D01*
X235443655Y-107177463D01*
X235438264Y-107169394D01*
X235431402Y-107162533D01*
X235423334Y-107157142D01*
X235414369Y-107153428D01*
X235404851Y-107151535D01*
X235395148Y-107151535D01*
X235385631Y-107153429D01*
X235376666Y-107157142D01*
X235368597Y-107162533D01*
X235361736Y-107169395D01*
X235356345Y-107177463D01*
X235352632Y-107186428D01*
X235352148Y-107188023D01*
X235342909Y-107205310D01*
X235330468Y-107220468D01*
X235315310Y-107232909D01*
X235298024Y-107242147D01*
X235279264Y-107247839D01*
X235257316Y-107250000D01*
X234902684Y-107250000D01*
X234880736Y-107247839D01*
X234861976Y-107242147D01*
X234844690Y-107232909D01*
X234829532Y-107220468D01*
X234817091Y-107205310D01*
X234807853Y-107188024D01*
X234802161Y-107169264D01*
X234800000Y-107147316D01*
X234800000Y-106852684D01*
X234802161Y-106830736D01*
X234807853Y-106811976D01*
X234817091Y-106794690D01*
X234829532Y-106779532D01*
X234844690Y-106767091D01*
X234861976Y-106757853D01*
X234880736Y-106752161D01*
X234902684Y-106750000D01*
X235257316Y-106750000D01*
X235279264Y-106752161D01*
X235279264Y-106752161D01*
G37*
G36*
X226929407Y-106652171D02*
X226957680Y-106660747D01*
X226983738Y-106674676D01*
X227006579Y-106693421D01*
X227025324Y-106716262D01*
X227039253Y-106742320D01*
X227047829Y-106770593D01*
X227050725Y-106800000D01*
X227047829Y-106829407D01*
X227039253Y-106857680D01*
X227025324Y-106883738D01*
X227006579Y-106906579D01*
X226983738Y-106925324D01*
X226957680Y-106939253D01*
X226929407Y-106947829D01*
X226907362Y-106950000D01*
X226092638Y-106950000D01*
X226070593Y-106947829D01*
X226042320Y-106939253D01*
X226016262Y-106925324D01*
X225993421Y-106906579D01*
X225974676Y-106883738D01*
X225960747Y-106857680D01*
X225952171Y-106829407D01*
X225949275Y-106800000D01*
X225952171Y-106770593D01*
X225960747Y-106742320D01*
X225974676Y-106716262D01*
X225993421Y-106693421D01*
X226016262Y-106674676D01*
X226042320Y-106660747D01*
X226070593Y-106652171D01*
X226092638Y-106650000D01*
X226907362Y-106650000D01*
X226929407Y-106652171D01*
X226929407Y-106652171D01*
G37*
G36*
X242600000Y-106950000D02*
X240600000Y-106950000D01*
X240600000Y-106550000D01*
X242600000Y-106550000D01*
X242600000Y-106950000D01*
X242600000Y-106950000D01*
G37*
G36*
X233929407Y-106652171D02*
X233957680Y-106660747D01*
X233983738Y-106674676D01*
X234006579Y-106693421D01*
X234025324Y-106716262D01*
X234039253Y-106742320D01*
X234047829Y-106770593D01*
X234050725Y-106800000D01*
X234047829Y-106829407D01*
X234039253Y-106857680D01*
X234025324Y-106883738D01*
X234006579Y-106906579D01*
X233983738Y-106925324D01*
X233957680Y-106939253D01*
X233929407Y-106947829D01*
X233907362Y-106950000D01*
X233092638Y-106950000D01*
X233070593Y-106947829D01*
X233042320Y-106939253D01*
X233016262Y-106925324D01*
X232993421Y-106906579D01*
X232974676Y-106883738D01*
X232960747Y-106857680D01*
X232952171Y-106829407D01*
X232949275Y-106800000D01*
X232952171Y-106770593D01*
X232960747Y-106742320D01*
X232974676Y-106716262D01*
X232993421Y-106693421D01*
X233016262Y-106674676D01*
X233042320Y-106660747D01*
X233070593Y-106652171D01*
X233092638Y-106650000D01*
X233907362Y-106650000D01*
X233929407Y-106652171D01*
X233929407Y-106652171D01*
G37*
G36*
X202462500Y-106800000D02*
X200462500Y-106800000D01*
X200462500Y-105200000D01*
X202462500Y-105200000D01*
X202462500Y-106800000D01*
X202462500Y-106800000D01*
G37*
G36*
X231650000Y-106650000D02*
X228350000Y-106650000D01*
X228350000Y-103350000D01*
X231650000Y-103350000D01*
X231650000Y-106650000D01*
X231650000Y-106650000D01*
G37*
G36*
X204887500Y-106550000D02*
X203437500Y-106550000D01*
X203437500Y-106050000D01*
X204887500Y-106050000D01*
X204887500Y-106550000D01*
X204887500Y-106550000D01*
G37*
G36*
X233929407Y-106252171D02*
X233957680Y-106260747D01*
X233983738Y-106274676D01*
X234006579Y-106293421D01*
X234025324Y-106316262D01*
X234039253Y-106342320D01*
X234047829Y-106370593D01*
X234050725Y-106400000D01*
X234047829Y-106429407D01*
X234039253Y-106457680D01*
X234025324Y-106483738D01*
X234006579Y-106506579D01*
X233983738Y-106525324D01*
X233957680Y-106539253D01*
X233929407Y-106547829D01*
X233907362Y-106550000D01*
X233092638Y-106550000D01*
X233070593Y-106547829D01*
X233042320Y-106539253D01*
X233016262Y-106525324D01*
X232993421Y-106506579D01*
X232974676Y-106483738D01*
X232960747Y-106457680D01*
X232952171Y-106429407D01*
X232949275Y-106400000D01*
X232952171Y-106370593D01*
X232960747Y-106342320D01*
X232974676Y-106316262D01*
X232993421Y-106293421D01*
X233016262Y-106274676D01*
X233042320Y-106260747D01*
X233070593Y-106252171D01*
X233092638Y-106250000D01*
X233907362Y-106250000D01*
X233929407Y-106252171D01*
X233929407Y-106252171D01*
G37*
G36*
X226929407Y-106252171D02*
X226957680Y-106260747D01*
X226983738Y-106274676D01*
X227006579Y-106293421D01*
X227025324Y-106316262D01*
X227039253Y-106342320D01*
X227047829Y-106370593D01*
X227050725Y-106400000D01*
X227047829Y-106429407D01*
X227039253Y-106457680D01*
X227025324Y-106483738D01*
X227006579Y-106506579D01*
X226983738Y-106525324D01*
X226957680Y-106539253D01*
X226929407Y-106547829D01*
X226907362Y-106550000D01*
X226092638Y-106550000D01*
X226070593Y-106547829D01*
X226042320Y-106539253D01*
X226016262Y-106525324D01*
X225993421Y-106506579D01*
X225974676Y-106483738D01*
X225960747Y-106457680D01*
X225952171Y-106429407D01*
X225949275Y-106400000D01*
X225952171Y-106370593D01*
X225960747Y-106342320D01*
X225974676Y-106316262D01*
X225993421Y-106293421D01*
X226016262Y-106274676D01*
X226042320Y-106260747D01*
X226070593Y-106252171D01*
X226092638Y-106250000D01*
X226907362Y-106250000D01*
X226929407Y-106252171D01*
X226929407Y-106252171D01*
G37*
G36*
X242600000Y-106450000D02*
X240600000Y-106450000D01*
X240600000Y-106050000D01*
X242600000Y-106050000D01*
X242600000Y-106450000D01*
X242600000Y-106450000D01*
G37*
G36*
X235279264Y-105952161D02*
X235298024Y-105957853D01*
X235315310Y-105967091D01*
X235330468Y-105979532D01*
X235342909Y-105994690D01*
X235352148Y-106011977D01*
X235352632Y-106013572D01*
X235356345Y-106022537D01*
X235361736Y-106030606D01*
X235368598Y-106037467D01*
X235376666Y-106042858D01*
X235385631Y-106046572D01*
X235395149Y-106048465D01*
X235404852Y-106048465D01*
X235414369Y-106046571D01*
X235423334Y-106042858D01*
X235431403Y-106037467D01*
X235438264Y-106030605D01*
X235443655Y-106022537D01*
X235447368Y-106013572D01*
X235447852Y-106011977D01*
X235457091Y-105994690D01*
X235469532Y-105979532D01*
X235484690Y-105967091D01*
X235501976Y-105957853D01*
X235520736Y-105952161D01*
X235542684Y-105950000D01*
X235897316Y-105950000D01*
X235919264Y-105952161D01*
X235938024Y-105957853D01*
X235955310Y-105967091D01*
X235970468Y-105979532D01*
X235982909Y-105994690D01*
X235992147Y-106011976D01*
X235997839Y-106030736D01*
X236000000Y-106052684D01*
X236000000Y-106347316D01*
X235997839Y-106369264D01*
X235992147Y-106388024D01*
X235982909Y-106405310D01*
X235970468Y-106420468D01*
X235955310Y-106432909D01*
X235938024Y-106442147D01*
X235919264Y-106447839D01*
X235897316Y-106450000D01*
X235542684Y-106450000D01*
X235520736Y-106447839D01*
X235501976Y-106442147D01*
X235484690Y-106432909D01*
X235469532Y-106420468D01*
X235457091Y-106405310D01*
X235447852Y-106388023D01*
X235447368Y-106386428D01*
X235443655Y-106377463D01*
X235438264Y-106369394D01*
X235431402Y-106362533D01*
X235423334Y-106357142D01*
X235414369Y-106353428D01*
X235404851Y-106351535D01*
X235395148Y-106351535D01*
X235385631Y-106353429D01*
X235376666Y-106357142D01*
X235368597Y-106362533D01*
X235361736Y-106369395D01*
X235356345Y-106377463D01*
X235352632Y-106386428D01*
X235352148Y-106388023D01*
X235342909Y-106405310D01*
X235330468Y-106420468D01*
X235315310Y-106432909D01*
X235298024Y-106442147D01*
X235279264Y-106447839D01*
X235257316Y-106450000D01*
X234902684Y-106450000D01*
X234880736Y-106447839D01*
X234861976Y-106442147D01*
X234844690Y-106432909D01*
X234829532Y-106420468D01*
X234817091Y-106405310D01*
X234807853Y-106388024D01*
X234802161Y-106369264D01*
X234800000Y-106347316D01*
X234800000Y-106052684D01*
X234802161Y-106030736D01*
X234807853Y-106011976D01*
X234817091Y-105994690D01*
X234829532Y-105979532D01*
X234844690Y-105967091D01*
X234861976Y-105957853D01*
X234880736Y-105952161D01*
X234902684Y-105950000D01*
X235257316Y-105950000D01*
X235279264Y-105952161D01*
X235279264Y-105952161D01*
G37*
G36*
X214680000Y-106325000D02*
X213020000Y-106325000D01*
X213020000Y-105575000D01*
X214680000Y-105575000D01*
X214680000Y-106325000D01*
X214680000Y-106325000D01*
G37*
G36*
X211980000Y-106325000D02*
X210320000Y-106325000D01*
X210320000Y-105575000D01*
X211980000Y-105575000D01*
X211980000Y-106325000D01*
X211980000Y-106325000D01*
G37*
G36*
X226929407Y-105852171D02*
X226957680Y-105860747D01*
X226983738Y-105874676D01*
X227006579Y-105893421D01*
X227025324Y-105916262D01*
X227039253Y-105942320D01*
X227047829Y-105970593D01*
X227050725Y-106000000D01*
X227047829Y-106029407D01*
X227039253Y-106057680D01*
X227025324Y-106083738D01*
X227006579Y-106106579D01*
X226983738Y-106125324D01*
X226957680Y-106139253D01*
X226929407Y-106147829D01*
X226907362Y-106150000D01*
X226092638Y-106150000D01*
X226070593Y-106147829D01*
X226042320Y-106139253D01*
X226016262Y-106125324D01*
X225993421Y-106106579D01*
X225974676Y-106083738D01*
X225960747Y-106057680D01*
X225952171Y-106029407D01*
X225949275Y-106000000D01*
X225952171Y-105970593D01*
X225960747Y-105942320D01*
X225974676Y-105916262D01*
X225993421Y-105893421D01*
X226016262Y-105874676D01*
X226042320Y-105860747D01*
X226070593Y-105852171D01*
X226092638Y-105850000D01*
X226907362Y-105850000D01*
X226929407Y-105852171D01*
X226929407Y-105852171D01*
G37*
G36*
X233929407Y-105852171D02*
X233957680Y-105860747D01*
X233983738Y-105874676D01*
X234006579Y-105893421D01*
X234025324Y-105916262D01*
X234039253Y-105942320D01*
X234047829Y-105970593D01*
X234050725Y-106000000D01*
X234047829Y-106029407D01*
X234039253Y-106057680D01*
X234025324Y-106083738D01*
X234006579Y-106106579D01*
X233983738Y-106125324D01*
X233957680Y-106139253D01*
X233929407Y-106147829D01*
X233907362Y-106150000D01*
X233092638Y-106150000D01*
X233070593Y-106147829D01*
X233042320Y-106139253D01*
X233016262Y-106125324D01*
X232993421Y-106106579D01*
X232974676Y-106083738D01*
X232960747Y-106057680D01*
X232952171Y-106029407D01*
X232949275Y-106000000D01*
X232952171Y-105970593D01*
X232960747Y-105942320D01*
X232974676Y-105916262D01*
X232993421Y-105893421D01*
X233016262Y-105874676D01*
X233042320Y-105860747D01*
X233070593Y-105852171D01*
X233092638Y-105850000D01*
X233907362Y-105850000D01*
X233929407Y-105852171D01*
X233929407Y-105852171D01*
G37*
G36*
X242600000Y-105950000D02*
X240600000Y-105950000D01*
X240600000Y-105550000D01*
X242600000Y-105550000D01*
X242600000Y-105950000D01*
X242600000Y-105950000D01*
G37*
G36*
X204887500Y-105900000D02*
X203437500Y-105900000D01*
X203437500Y-105400000D01*
X204887500Y-105400000D01*
X204887500Y-105900000D01*
X204887500Y-105900000D01*
G37*
G36*
X215751031Y-105143074D02*
X215778699Y-105151468D01*
X215804200Y-105165098D01*
X215826555Y-105183445D01*
X215844902Y-105205800D01*
X215858532Y-105231301D01*
X215866926Y-105258969D01*
X215870000Y-105290185D01*
X215870000Y-105679815D01*
X215866926Y-105711031D01*
X215858532Y-105738699D01*
X215844902Y-105764200D01*
X215826555Y-105786555D01*
X215804200Y-105804902D01*
X215778699Y-105818532D01*
X215751031Y-105826926D01*
X215719815Y-105830000D01*
X215280185Y-105830000D01*
X215248969Y-105826926D01*
X215221301Y-105818532D01*
X215195800Y-105804902D01*
X215173445Y-105786555D01*
X215155098Y-105764200D01*
X215141468Y-105738699D01*
X215133074Y-105711031D01*
X215130000Y-105679815D01*
X215130000Y-105290185D01*
X215133074Y-105258969D01*
X215141468Y-105231301D01*
X215155098Y-105205800D01*
X215173445Y-105183445D01*
X215195800Y-105165098D01*
X215221301Y-105151468D01*
X215248969Y-105143074D01*
X215280185Y-105140000D01*
X215719815Y-105140000D01*
X215751031Y-105143074D01*
X215751031Y-105143074D01*
G37*
G36*
X209751031Y-105143074D02*
X209778699Y-105151468D01*
X209804200Y-105165098D01*
X209826555Y-105183445D01*
X209844902Y-105205800D01*
X209858532Y-105231301D01*
X209866926Y-105258969D01*
X209870000Y-105290185D01*
X209870000Y-105679815D01*
X209866926Y-105711031D01*
X209858532Y-105738699D01*
X209844902Y-105764200D01*
X209826555Y-105786555D01*
X209804200Y-105804902D01*
X209778699Y-105818532D01*
X209751031Y-105826926D01*
X209719815Y-105830000D01*
X209280185Y-105830000D01*
X209248969Y-105826926D01*
X209221301Y-105818532D01*
X209195800Y-105804902D01*
X209173445Y-105786555D01*
X209155098Y-105764200D01*
X209141468Y-105738699D01*
X209133074Y-105711031D01*
X209130000Y-105679815D01*
X209130000Y-105290185D01*
X209133074Y-105258969D01*
X209141468Y-105231301D01*
X209155098Y-105205800D01*
X209173445Y-105183445D01*
X209195800Y-105165098D01*
X209221301Y-105151468D01*
X209248969Y-105143074D01*
X209280185Y-105140000D01*
X209719815Y-105140000D01*
X209751031Y-105143074D01*
X209751031Y-105143074D01*
G37*
G36*
X226929407Y-105452171D02*
X226957680Y-105460747D01*
X226983738Y-105474676D01*
X227006579Y-105493421D01*
X227025324Y-105516262D01*
X227039253Y-105542320D01*
X227047829Y-105570593D01*
X227050725Y-105600000D01*
X227047829Y-105629407D01*
X227039253Y-105657680D01*
X227025324Y-105683738D01*
X227006579Y-105706579D01*
X226983738Y-105725324D01*
X226957680Y-105739253D01*
X226929407Y-105747829D01*
X226907362Y-105750000D01*
X226092638Y-105750000D01*
X226070593Y-105747829D01*
X226042320Y-105739253D01*
X226016262Y-105725324D01*
X225993421Y-105706579D01*
X225974676Y-105683738D01*
X225960747Y-105657680D01*
X225952171Y-105629407D01*
X225949275Y-105600000D01*
X225952171Y-105570593D01*
X225960747Y-105542320D01*
X225974676Y-105516262D01*
X225993421Y-105493421D01*
X226016262Y-105474676D01*
X226042320Y-105460747D01*
X226070593Y-105452171D01*
X226092638Y-105450000D01*
X226907362Y-105450000D01*
X226929407Y-105452171D01*
X226929407Y-105452171D01*
G37*
G36*
X233929407Y-105452171D02*
X233957680Y-105460747D01*
X233983738Y-105474676D01*
X234006579Y-105493421D01*
X234025324Y-105516262D01*
X234039253Y-105542320D01*
X234047829Y-105570593D01*
X234050725Y-105600000D01*
X234047829Y-105629407D01*
X234039253Y-105657680D01*
X234025324Y-105683738D01*
X234006579Y-105706579D01*
X233983738Y-105725324D01*
X233957680Y-105739253D01*
X233929407Y-105747829D01*
X233907362Y-105750000D01*
X233092638Y-105750000D01*
X233070593Y-105747829D01*
X233042320Y-105739253D01*
X233016262Y-105725324D01*
X232993421Y-105706579D01*
X232974676Y-105683738D01*
X232960747Y-105657680D01*
X232952171Y-105629407D01*
X232949275Y-105600000D01*
X232952171Y-105570593D01*
X232960747Y-105542320D01*
X232974676Y-105516262D01*
X232993421Y-105493421D01*
X233016262Y-105474676D01*
X233042320Y-105460747D01*
X233070593Y-105452171D01*
X233092638Y-105450000D01*
X233907362Y-105450000D01*
X233929407Y-105452171D01*
X233929407Y-105452171D01*
G37*
G36*
X235279264Y-105152161D02*
X235298024Y-105157853D01*
X235315310Y-105167091D01*
X235330468Y-105179532D01*
X235342909Y-105194690D01*
X235352148Y-105211977D01*
X235352632Y-105213572D01*
X235356345Y-105222537D01*
X235361736Y-105230606D01*
X235368598Y-105237467D01*
X235376666Y-105242858D01*
X235385631Y-105246572D01*
X235395149Y-105248465D01*
X235404852Y-105248465D01*
X235414369Y-105246571D01*
X235423334Y-105242858D01*
X235431403Y-105237467D01*
X235438264Y-105230605D01*
X235443655Y-105222537D01*
X235447368Y-105213572D01*
X235447852Y-105211977D01*
X235457091Y-105194690D01*
X235469532Y-105179532D01*
X235484690Y-105167091D01*
X235501976Y-105157853D01*
X235520736Y-105152161D01*
X235542684Y-105150000D01*
X235897316Y-105150000D01*
X235919264Y-105152161D01*
X235938024Y-105157853D01*
X235955310Y-105167091D01*
X235970468Y-105179532D01*
X235982909Y-105194690D01*
X235992147Y-105211976D01*
X235997839Y-105230736D01*
X236000000Y-105252684D01*
X236000000Y-105547316D01*
X235997839Y-105569264D01*
X235992147Y-105588024D01*
X235982909Y-105605310D01*
X235970468Y-105620468D01*
X235955310Y-105632909D01*
X235938024Y-105642147D01*
X235919264Y-105647839D01*
X235897316Y-105650000D01*
X235542684Y-105650000D01*
X235520736Y-105647839D01*
X235501976Y-105642147D01*
X235484690Y-105632909D01*
X235469532Y-105620468D01*
X235457091Y-105605310D01*
X235447852Y-105588023D01*
X235447368Y-105586428D01*
X235443655Y-105577463D01*
X235438264Y-105569394D01*
X235431402Y-105562533D01*
X235423334Y-105557142D01*
X235414369Y-105553428D01*
X235404851Y-105551535D01*
X235395148Y-105551535D01*
X235385631Y-105553429D01*
X235376666Y-105557142D01*
X235368597Y-105562533D01*
X235361736Y-105569395D01*
X235356345Y-105577463D01*
X235352632Y-105586428D01*
X235352148Y-105588023D01*
X235342909Y-105605310D01*
X235330468Y-105620468D01*
X235315310Y-105632909D01*
X235298024Y-105642147D01*
X235279264Y-105647839D01*
X235257316Y-105650000D01*
X234902684Y-105650000D01*
X234880736Y-105647839D01*
X234861976Y-105642147D01*
X234844690Y-105632909D01*
X234829532Y-105620468D01*
X234817091Y-105605310D01*
X234807853Y-105588024D01*
X234802161Y-105569264D01*
X234800000Y-105547316D01*
X234800000Y-105252684D01*
X234802161Y-105230736D01*
X234807853Y-105211976D01*
X234817091Y-105194690D01*
X234829532Y-105179532D01*
X234844690Y-105167091D01*
X234861976Y-105157853D01*
X234880736Y-105152161D01*
X234902684Y-105150000D01*
X235257316Y-105150000D01*
X235279264Y-105152161D01*
X235279264Y-105152161D01*
G37*
G36*
X242600000Y-105450000D02*
X240600000Y-105450000D01*
X240600000Y-105050000D01*
X242600000Y-105050000D01*
X242600000Y-105450000D01*
X242600000Y-105450000D01*
G37*
G36*
X211980000Y-105375000D02*
X210320000Y-105375000D01*
X210320000Y-104625000D01*
X211980000Y-104625000D01*
X211980000Y-105375000D01*
X211980000Y-105375000D01*
G37*
G36*
X233929407Y-105052171D02*
X233957680Y-105060747D01*
X233983738Y-105074676D01*
X234006579Y-105093421D01*
X234025324Y-105116262D01*
X234039253Y-105142320D01*
X234047829Y-105170593D01*
X234050725Y-105200000D01*
X234047829Y-105229407D01*
X234039253Y-105257680D01*
X234025324Y-105283738D01*
X234006579Y-105306579D01*
X233983738Y-105325324D01*
X233957680Y-105339253D01*
X233929407Y-105347829D01*
X233907362Y-105350000D01*
X233092638Y-105350000D01*
X233070593Y-105347829D01*
X233042320Y-105339253D01*
X233016262Y-105325324D01*
X232993421Y-105306579D01*
X232974676Y-105283738D01*
X232960747Y-105257680D01*
X232952171Y-105229407D01*
X232949275Y-105200000D01*
X232952171Y-105170593D01*
X232960747Y-105142320D01*
X232974676Y-105116262D01*
X232993421Y-105093421D01*
X233016262Y-105074676D01*
X233042320Y-105060747D01*
X233070593Y-105052171D01*
X233092638Y-105050000D01*
X233907362Y-105050000D01*
X233929407Y-105052171D01*
X233929407Y-105052171D01*
G37*
G36*
X226929407Y-105052171D02*
X226957680Y-105060747D01*
X226983738Y-105074676D01*
X227006579Y-105093421D01*
X227025324Y-105116262D01*
X227039253Y-105142320D01*
X227047829Y-105170593D01*
X227050725Y-105200000D01*
X227047829Y-105229407D01*
X227039253Y-105257680D01*
X227025324Y-105283738D01*
X227006579Y-105306579D01*
X226983738Y-105325324D01*
X226957680Y-105339253D01*
X226929407Y-105347829D01*
X226907362Y-105350000D01*
X226092638Y-105350000D01*
X226070593Y-105347829D01*
X226042320Y-105339253D01*
X226016262Y-105325324D01*
X225993421Y-105306579D01*
X225974676Y-105283738D01*
X225960747Y-105257680D01*
X225952171Y-105229407D01*
X225949275Y-105200000D01*
X225952171Y-105170593D01*
X225960747Y-105142320D01*
X225974676Y-105116262D01*
X225993421Y-105093421D01*
X226016262Y-105074676D01*
X226042320Y-105060747D01*
X226070593Y-105052171D01*
X226092638Y-105050000D01*
X226907362Y-105050000D01*
X226929407Y-105052171D01*
X226929407Y-105052171D01*
G37*
G36*
X204887500Y-105250000D02*
X203437500Y-105250000D01*
X203437500Y-104750000D01*
X204887500Y-104750000D01*
X204887500Y-105250000D01*
X204887500Y-105250000D01*
G37*
G36*
X226929407Y-104652171D02*
X226957680Y-104660747D01*
X226983738Y-104674676D01*
X227006579Y-104693421D01*
X227025324Y-104716262D01*
X227039253Y-104742320D01*
X227047829Y-104770593D01*
X227050725Y-104800000D01*
X227047829Y-104829407D01*
X227039253Y-104857680D01*
X227025324Y-104883738D01*
X227006579Y-104906579D01*
X226983738Y-104925324D01*
X226957680Y-104939253D01*
X226929407Y-104947829D01*
X226907362Y-104950000D01*
X226092638Y-104950000D01*
X226070593Y-104947829D01*
X226042320Y-104939253D01*
X226016262Y-104925324D01*
X225993421Y-104906579D01*
X225974676Y-104883738D01*
X225960747Y-104857680D01*
X225952171Y-104829407D01*
X225949275Y-104800000D01*
X225952171Y-104770593D01*
X225960747Y-104742320D01*
X225974676Y-104716262D01*
X225993421Y-104693421D01*
X226016262Y-104674676D01*
X226042320Y-104660747D01*
X226070593Y-104652171D01*
X226092638Y-104650000D01*
X226907362Y-104650000D01*
X226929407Y-104652171D01*
X226929407Y-104652171D01*
G37*
G36*
X242600000Y-104950000D02*
X240600000Y-104950000D01*
X240600000Y-104550000D01*
X242600000Y-104550000D01*
X242600000Y-104950000D01*
X242600000Y-104950000D01*
G37*
G36*
X233929407Y-104652171D02*
X233957680Y-104660747D01*
X233983738Y-104674676D01*
X234006579Y-104693421D01*
X234025324Y-104716262D01*
X234039253Y-104742320D01*
X234047829Y-104770593D01*
X234050725Y-104800000D01*
X234047829Y-104829407D01*
X234039253Y-104857680D01*
X234025324Y-104883738D01*
X234006579Y-104906579D01*
X233983738Y-104925324D01*
X233957680Y-104939253D01*
X233929407Y-104947829D01*
X233907362Y-104950000D01*
X233092638Y-104950000D01*
X233070593Y-104947829D01*
X233042320Y-104939253D01*
X233016262Y-104925324D01*
X232993421Y-104906579D01*
X232974676Y-104883738D01*
X232960747Y-104857680D01*
X232952171Y-104829407D01*
X232949275Y-104800000D01*
X232952171Y-104770593D01*
X232960747Y-104742320D01*
X232974676Y-104716262D01*
X232993421Y-104693421D01*
X233016262Y-104674676D01*
X233042320Y-104660747D01*
X233070593Y-104652171D01*
X233092638Y-104650000D01*
X233907362Y-104650000D01*
X233929407Y-104652171D01*
X233929407Y-104652171D01*
G37*
G36*
X215751031Y-104173074D02*
X215778699Y-104181468D01*
X215804200Y-104195098D01*
X215826555Y-104213445D01*
X215844902Y-104235800D01*
X215858532Y-104261301D01*
X215866926Y-104288969D01*
X215870000Y-104320185D01*
X215870000Y-104709815D01*
X215866926Y-104741031D01*
X215858532Y-104768699D01*
X215844902Y-104794200D01*
X215826555Y-104816555D01*
X215804200Y-104834902D01*
X215778699Y-104848532D01*
X215751031Y-104856926D01*
X215719815Y-104860000D01*
X215280185Y-104860000D01*
X215248969Y-104856926D01*
X215221301Y-104848532D01*
X215195800Y-104834902D01*
X215173445Y-104816555D01*
X215155098Y-104794200D01*
X215141468Y-104768699D01*
X215133074Y-104741031D01*
X215130000Y-104709815D01*
X215130000Y-104320185D01*
X215133074Y-104288969D01*
X215141468Y-104261301D01*
X215155098Y-104235800D01*
X215173445Y-104213445D01*
X215195800Y-104195098D01*
X215221301Y-104181468D01*
X215248969Y-104173074D01*
X215280185Y-104170000D01*
X215719815Y-104170000D01*
X215751031Y-104173074D01*
X215751031Y-104173074D01*
G37*
G36*
X209751031Y-104173074D02*
X209778699Y-104181468D01*
X209804200Y-104195098D01*
X209826555Y-104213445D01*
X209844902Y-104235800D01*
X209858532Y-104261301D01*
X209866926Y-104288969D01*
X209870000Y-104320185D01*
X209870000Y-104709815D01*
X209866926Y-104741031D01*
X209858532Y-104768699D01*
X209844902Y-104794200D01*
X209826555Y-104816555D01*
X209804200Y-104834902D01*
X209778699Y-104848532D01*
X209751031Y-104856926D01*
X209719815Y-104860000D01*
X209280185Y-104860000D01*
X209248969Y-104856926D01*
X209221301Y-104848532D01*
X209195800Y-104834902D01*
X209173445Y-104816555D01*
X209155098Y-104794200D01*
X209141468Y-104768699D01*
X209133074Y-104741031D01*
X209130000Y-104709815D01*
X209130000Y-104320185D01*
X209133074Y-104288969D01*
X209141468Y-104261301D01*
X209155098Y-104235800D01*
X209173445Y-104213445D01*
X209195800Y-104195098D01*
X209221301Y-104181468D01*
X209248969Y-104173074D01*
X209280185Y-104170000D01*
X209719815Y-104170000D01*
X209751031Y-104173074D01*
X209751031Y-104173074D01*
G37*
G36*
X235279264Y-104352161D02*
X235298024Y-104357853D01*
X235315310Y-104367091D01*
X235330468Y-104379532D01*
X235342909Y-104394690D01*
X235352148Y-104411977D01*
X235352632Y-104413572D01*
X235356345Y-104422537D01*
X235361736Y-104430606D01*
X235368598Y-104437467D01*
X235376666Y-104442858D01*
X235385631Y-104446572D01*
X235395149Y-104448465D01*
X235404852Y-104448465D01*
X235414369Y-104446571D01*
X235423334Y-104442858D01*
X235431403Y-104437467D01*
X235438264Y-104430605D01*
X235443655Y-104422537D01*
X235447368Y-104413572D01*
X235447852Y-104411977D01*
X235457091Y-104394690D01*
X235469532Y-104379532D01*
X235484690Y-104367091D01*
X235501976Y-104357853D01*
X235520736Y-104352161D01*
X235542684Y-104350000D01*
X235897316Y-104350000D01*
X235919264Y-104352161D01*
X235938024Y-104357853D01*
X235955310Y-104367091D01*
X235970468Y-104379532D01*
X235982909Y-104394690D01*
X235992147Y-104411976D01*
X235997839Y-104430736D01*
X236000000Y-104452684D01*
X236000000Y-104747316D01*
X235997839Y-104769264D01*
X235992147Y-104788024D01*
X235982909Y-104805310D01*
X235970468Y-104820468D01*
X235955310Y-104832909D01*
X235938024Y-104842147D01*
X235919264Y-104847839D01*
X235897316Y-104850000D01*
X235542684Y-104850000D01*
X235520736Y-104847839D01*
X235501976Y-104842147D01*
X235484690Y-104832909D01*
X235469532Y-104820468D01*
X235457091Y-104805310D01*
X235447852Y-104788023D01*
X235447368Y-104786428D01*
X235443655Y-104777463D01*
X235438264Y-104769394D01*
X235431402Y-104762533D01*
X235423334Y-104757142D01*
X235414369Y-104753428D01*
X235404851Y-104751535D01*
X235395148Y-104751535D01*
X235385631Y-104753429D01*
X235376666Y-104757142D01*
X235368597Y-104762533D01*
X235361736Y-104769395D01*
X235356345Y-104777463D01*
X235352632Y-104786428D01*
X235352148Y-104788023D01*
X235342909Y-104805310D01*
X235330468Y-104820468D01*
X235315310Y-104832909D01*
X235298024Y-104842147D01*
X235279264Y-104847839D01*
X235257316Y-104850000D01*
X234902684Y-104850000D01*
X234880736Y-104847839D01*
X234861976Y-104842147D01*
X234844690Y-104832909D01*
X234829532Y-104820468D01*
X234817091Y-104805310D01*
X234807853Y-104788024D01*
X234802161Y-104769264D01*
X234800000Y-104747316D01*
X234800000Y-104452684D01*
X234802161Y-104430736D01*
X234807853Y-104411976D01*
X234817091Y-104394690D01*
X234829532Y-104379532D01*
X234844690Y-104367091D01*
X234861976Y-104357853D01*
X234880736Y-104352161D01*
X234902684Y-104350000D01*
X235257316Y-104350000D01*
X235279264Y-104352161D01*
X235279264Y-104352161D01*
G37*
G36*
X202462500Y-104800000D02*
X200462500Y-104800000D01*
X200462500Y-103200000D01*
X202462500Y-103200000D01*
X202462500Y-104800000D01*
X202462500Y-104800000D01*
G37*
G36*
X204887500Y-104600000D02*
X203437500Y-104600000D01*
X203437500Y-104100000D01*
X204887500Y-104100000D01*
X204887500Y-104600000D01*
X204887500Y-104600000D01*
G37*
G36*
X233929407Y-104252171D02*
X233957680Y-104260747D01*
X233983738Y-104274676D01*
X234006579Y-104293421D01*
X234025324Y-104316262D01*
X234039253Y-104342320D01*
X234047829Y-104370593D01*
X234050725Y-104400000D01*
X234047829Y-104429407D01*
X234039253Y-104457680D01*
X234025324Y-104483738D01*
X234006579Y-104506579D01*
X233983738Y-104525324D01*
X233957680Y-104539253D01*
X233929407Y-104547829D01*
X233907362Y-104550000D01*
X233092638Y-104550000D01*
X233070593Y-104547829D01*
X233042320Y-104539253D01*
X233016262Y-104525324D01*
X232993421Y-104506579D01*
X232974676Y-104483738D01*
X232960747Y-104457680D01*
X232952171Y-104429407D01*
X232949275Y-104400000D01*
X232952171Y-104370593D01*
X232960747Y-104342320D01*
X232974676Y-104316262D01*
X232993421Y-104293421D01*
X233016262Y-104274676D01*
X233042320Y-104260747D01*
X233070593Y-104252171D01*
X233092638Y-104250000D01*
X233907362Y-104250000D01*
X233929407Y-104252171D01*
X233929407Y-104252171D01*
G37*
G36*
X226929407Y-104252171D02*
X226957680Y-104260747D01*
X226983738Y-104274676D01*
X227006579Y-104293421D01*
X227025324Y-104316262D01*
X227039253Y-104342320D01*
X227047829Y-104370593D01*
X227050725Y-104400000D01*
X227047829Y-104429407D01*
X227039253Y-104457680D01*
X227025324Y-104483738D01*
X227006579Y-104506579D01*
X226983738Y-104525324D01*
X226957680Y-104539253D01*
X226929407Y-104547829D01*
X226907362Y-104550000D01*
X226092638Y-104550000D01*
X226070593Y-104547829D01*
X226042320Y-104539253D01*
X226016262Y-104525324D01*
X225993421Y-104506579D01*
X225974676Y-104483738D01*
X225960747Y-104457680D01*
X225952171Y-104429407D01*
X225949275Y-104400000D01*
X225952171Y-104370593D01*
X225960747Y-104342320D01*
X225974676Y-104316262D01*
X225993421Y-104293421D01*
X226016262Y-104274676D01*
X226042320Y-104260747D01*
X226070593Y-104252171D01*
X226092638Y-104250000D01*
X226907362Y-104250000D01*
X226929407Y-104252171D01*
X226929407Y-104252171D01*
G37*
G36*
X242600000Y-104450000D02*
X240600000Y-104450000D01*
X240600000Y-104050000D01*
X242600000Y-104050000D01*
X242600000Y-104450000D01*
X242600000Y-104450000D01*
G37*
G36*
X214680000Y-104425000D02*
X213020000Y-104425000D01*
X213020000Y-103675000D01*
X214680000Y-103675000D01*
X214680000Y-104425000D01*
X214680000Y-104425000D01*
G37*
G36*
X211980000Y-104425000D02*
X210320000Y-104425000D01*
X210320000Y-103675000D01*
X211980000Y-103675000D01*
X211980000Y-104425000D01*
X211980000Y-104425000D01*
G37*
G36*
X226929407Y-103852171D02*
X226957680Y-103860747D01*
X226983738Y-103874676D01*
X227006579Y-103893421D01*
X227025324Y-103916262D01*
X227039253Y-103942320D01*
X227047829Y-103970593D01*
X227050725Y-104000000D01*
X227047829Y-104029407D01*
X227039253Y-104057680D01*
X227025324Y-104083738D01*
X227006579Y-104106579D01*
X226983738Y-104125324D01*
X226957680Y-104139253D01*
X226929407Y-104147829D01*
X226907362Y-104150000D01*
X226092638Y-104150000D01*
X226070593Y-104147829D01*
X226042320Y-104139253D01*
X226016262Y-104125324D01*
X225993421Y-104106579D01*
X225974676Y-104083738D01*
X225960747Y-104057680D01*
X225952171Y-104029407D01*
X225949275Y-104000000D01*
X225952171Y-103970593D01*
X225960747Y-103942320D01*
X225974676Y-103916262D01*
X225993421Y-103893421D01*
X226016262Y-103874676D01*
X226042320Y-103860747D01*
X226070593Y-103852171D01*
X226092638Y-103850000D01*
X226907362Y-103850000D01*
X226929407Y-103852171D01*
X226929407Y-103852171D01*
G37*
G36*
X233929407Y-103852171D02*
X233957680Y-103860747D01*
X233983738Y-103874676D01*
X234006579Y-103893421D01*
X234025324Y-103916262D01*
X234039253Y-103942320D01*
X234047829Y-103970593D01*
X234050725Y-104000000D01*
X234047829Y-104029407D01*
X234039253Y-104057680D01*
X234025324Y-104083738D01*
X234006579Y-104106579D01*
X233983738Y-104125324D01*
X233957680Y-104139253D01*
X233929407Y-104147829D01*
X233907362Y-104150000D01*
X233092638Y-104150000D01*
X233070593Y-104147829D01*
X233042320Y-104139253D01*
X233016262Y-104125324D01*
X232993421Y-104106579D01*
X232974676Y-104083738D01*
X232960747Y-104057680D01*
X232952171Y-104029407D01*
X232949275Y-104000000D01*
X232952171Y-103970593D01*
X232960747Y-103942320D01*
X232974676Y-103916262D01*
X232993421Y-103893421D01*
X233016262Y-103874676D01*
X233042320Y-103860747D01*
X233070593Y-103852171D01*
X233092638Y-103850000D01*
X233907362Y-103850000D01*
X233929407Y-103852171D01*
X233929407Y-103852171D01*
G37*
G36*
X235279264Y-103552161D02*
X235298024Y-103557853D01*
X235315310Y-103567091D01*
X235330468Y-103579532D01*
X235342909Y-103594690D01*
X235352148Y-103611977D01*
X235352632Y-103613572D01*
X235356345Y-103622537D01*
X235361736Y-103630606D01*
X235368598Y-103637467D01*
X235376666Y-103642858D01*
X235385631Y-103646572D01*
X235395149Y-103648465D01*
X235404852Y-103648465D01*
X235414369Y-103646571D01*
X235423334Y-103642858D01*
X235431403Y-103637467D01*
X235438264Y-103630605D01*
X235443655Y-103622537D01*
X235447368Y-103613572D01*
X235447852Y-103611977D01*
X235457091Y-103594690D01*
X235469532Y-103579532D01*
X235484690Y-103567091D01*
X235501976Y-103557853D01*
X235520736Y-103552161D01*
X235542684Y-103550000D01*
X235897316Y-103550000D01*
X235919264Y-103552161D01*
X235938024Y-103557853D01*
X235955310Y-103567091D01*
X235970468Y-103579532D01*
X235982909Y-103594690D01*
X235992147Y-103611976D01*
X235997839Y-103630736D01*
X236000000Y-103652684D01*
X236000000Y-103947316D01*
X235997839Y-103969264D01*
X235992147Y-103988024D01*
X235982909Y-104005310D01*
X235970468Y-104020468D01*
X235955310Y-104032909D01*
X235938024Y-104042147D01*
X235919264Y-104047839D01*
X235897316Y-104050000D01*
X235542684Y-104050000D01*
X235520736Y-104047839D01*
X235501976Y-104042147D01*
X235484690Y-104032909D01*
X235469532Y-104020468D01*
X235457091Y-104005310D01*
X235447852Y-103988023D01*
X235447368Y-103986428D01*
X235443655Y-103977463D01*
X235438264Y-103969394D01*
X235431402Y-103962533D01*
X235423334Y-103957142D01*
X235414369Y-103953428D01*
X235404851Y-103951535D01*
X235395148Y-103951535D01*
X235385631Y-103953429D01*
X235376666Y-103957142D01*
X235368597Y-103962533D01*
X235361736Y-103969395D01*
X235356345Y-103977463D01*
X235352632Y-103986428D01*
X235352148Y-103988023D01*
X235342909Y-104005310D01*
X235330468Y-104020468D01*
X235315310Y-104032909D01*
X235298024Y-104042147D01*
X235279264Y-104047839D01*
X235257316Y-104050000D01*
X234902684Y-104050000D01*
X234880736Y-104047839D01*
X234861976Y-104042147D01*
X234844690Y-104032909D01*
X234829532Y-104020468D01*
X234817091Y-104005310D01*
X234807853Y-103988024D01*
X234802161Y-103969264D01*
X234800000Y-103947316D01*
X234800000Y-103652684D01*
X234802161Y-103630736D01*
X234807853Y-103611976D01*
X234817091Y-103594690D01*
X234829532Y-103579532D01*
X234844690Y-103567091D01*
X234861976Y-103557853D01*
X234880736Y-103552161D01*
X234902684Y-103550000D01*
X235257316Y-103550000D01*
X235279264Y-103552161D01*
X235279264Y-103552161D01*
G37*
G36*
X204887500Y-103950000D02*
X203437500Y-103950000D01*
X203437500Y-103450000D01*
X204887500Y-103450000D01*
X204887500Y-103950000D01*
X204887500Y-103950000D01*
G37*
G36*
X242600000Y-103950000D02*
X240600000Y-103950000D01*
X240600000Y-103550000D01*
X242600000Y-103550000D01*
X242600000Y-103950000D01*
X242600000Y-103950000D01*
G37*
G36*
X233929407Y-103452171D02*
X233957680Y-103460747D01*
X233983738Y-103474676D01*
X234006579Y-103493421D01*
X234025324Y-103516262D01*
X234039253Y-103542320D01*
X234047829Y-103570593D01*
X234050725Y-103600000D01*
X234047829Y-103629407D01*
X234039253Y-103657680D01*
X234025324Y-103683738D01*
X234006579Y-103706579D01*
X233983738Y-103725324D01*
X233957680Y-103739253D01*
X233929407Y-103747829D01*
X233907362Y-103750000D01*
X233092638Y-103750000D01*
X233070593Y-103747829D01*
X233042320Y-103739253D01*
X233016262Y-103725324D01*
X232993421Y-103706579D01*
X232974676Y-103683738D01*
X232960747Y-103657680D01*
X232952171Y-103629407D01*
X232949275Y-103600000D01*
X232952171Y-103570593D01*
X232960747Y-103542320D01*
X232974676Y-103516262D01*
X232993421Y-103493421D01*
X233016262Y-103474676D01*
X233042320Y-103460747D01*
X233070593Y-103452171D01*
X233092638Y-103450000D01*
X233907362Y-103450000D01*
X233929407Y-103452171D01*
X233929407Y-103452171D01*
G37*
G36*
X226929407Y-103452171D02*
X226957680Y-103460747D01*
X226983738Y-103474676D01*
X227006579Y-103493421D01*
X227025324Y-103516262D01*
X227039253Y-103542320D01*
X227047829Y-103570593D01*
X227050725Y-103600000D01*
X227047829Y-103629407D01*
X227039253Y-103657680D01*
X227025324Y-103683738D01*
X227006579Y-103706579D01*
X226983738Y-103725324D01*
X226957680Y-103739253D01*
X226929407Y-103747829D01*
X226907362Y-103750000D01*
X226092638Y-103750000D01*
X226070593Y-103747829D01*
X226042320Y-103739253D01*
X226016262Y-103725324D01*
X225993421Y-103706579D01*
X225974676Y-103683738D01*
X225960747Y-103657680D01*
X225952171Y-103629407D01*
X225949275Y-103600000D01*
X225952171Y-103570593D01*
X225960747Y-103542320D01*
X225974676Y-103516262D01*
X225993421Y-103493421D01*
X226016262Y-103474676D01*
X226042320Y-103460747D01*
X226070593Y-103452171D01*
X226092638Y-103450000D01*
X226907362Y-103450000D01*
X226929407Y-103452171D01*
X226929407Y-103452171D01*
G37*
G36*
X242600000Y-103450000D02*
X240600000Y-103450000D01*
X240600000Y-103050000D01*
X242600000Y-103050000D01*
X242600000Y-103450000D01*
X242600000Y-103450000D01*
G37*
G36*
X233929407Y-103052171D02*
X233957680Y-103060747D01*
X233983738Y-103074676D01*
X234006579Y-103093421D01*
X234025324Y-103116262D01*
X234039253Y-103142320D01*
X234047829Y-103170593D01*
X234050725Y-103200000D01*
X234047829Y-103229407D01*
X234039253Y-103257680D01*
X234025324Y-103283738D01*
X234006579Y-103306579D01*
X233983738Y-103325324D01*
X233957680Y-103339253D01*
X233929407Y-103347829D01*
X233907362Y-103350000D01*
X233092638Y-103350000D01*
X233070593Y-103347829D01*
X233042320Y-103339253D01*
X233016262Y-103325324D01*
X232993421Y-103306579D01*
X232974676Y-103283738D01*
X232960747Y-103257680D01*
X232952171Y-103229407D01*
X232949275Y-103200000D01*
X232952171Y-103170593D01*
X232960747Y-103142320D01*
X232974676Y-103116262D01*
X232993421Y-103093421D01*
X233016262Y-103074676D01*
X233042320Y-103060747D01*
X233070593Y-103052171D01*
X233092638Y-103050000D01*
X233907362Y-103050000D01*
X233929407Y-103052171D01*
X233929407Y-103052171D01*
G37*
G36*
X226929407Y-103052171D02*
X226957680Y-103060747D01*
X226983738Y-103074676D01*
X227006579Y-103093421D01*
X227025324Y-103116262D01*
X227039253Y-103142320D01*
X227047829Y-103170593D01*
X227050725Y-103200000D01*
X227047829Y-103229407D01*
X227039253Y-103257680D01*
X227025324Y-103283738D01*
X227006579Y-103306579D01*
X226983738Y-103325324D01*
X226957680Y-103339253D01*
X226929407Y-103347829D01*
X226907362Y-103350000D01*
X226092638Y-103350000D01*
X226070593Y-103347829D01*
X226042320Y-103339253D01*
X226016262Y-103325324D01*
X225993421Y-103306579D01*
X225974676Y-103283738D01*
X225960747Y-103257680D01*
X225952171Y-103229407D01*
X225949275Y-103200000D01*
X225952171Y-103170593D01*
X225960747Y-103142320D01*
X225974676Y-103116262D01*
X225993421Y-103093421D01*
X226016262Y-103074676D01*
X226042320Y-103060747D01*
X226070593Y-103052171D01*
X226092638Y-103050000D01*
X226907362Y-103050000D01*
X226929407Y-103052171D01*
X226929407Y-103052171D01*
G37*
G36*
X204313695Y-101739892D02*
X204388560Y-101754783D01*
X204435573Y-101774257D01*
X204529600Y-101813204D01*
X204656534Y-101898018D01*
X204764482Y-102005966D01*
X204849296Y-102132900D01*
X204866734Y-102175000D01*
X204907717Y-102273940D01*
X204937500Y-102423670D01*
X204937500Y-102576330D01*
X204907717Y-102726060D01*
X204894548Y-102757853D01*
X204849296Y-102867100D01*
X204764482Y-102994034D01*
X204656534Y-103101982D01*
X204529600Y-103186796D01*
X204448308Y-103220468D01*
X204388560Y-103245217D01*
X204325904Y-103257680D01*
X204238831Y-103275000D01*
X204086169Y-103275000D01*
X203999096Y-103257680D01*
X203936440Y-103245217D01*
X203876692Y-103220468D01*
X203795400Y-103186796D01*
X203668466Y-103101982D01*
X203560518Y-102994034D01*
X203475704Y-102867100D01*
X203430452Y-102757853D01*
X203417283Y-102726060D01*
X203387500Y-102576330D01*
X203387500Y-102423670D01*
X203417283Y-102273940D01*
X203458266Y-102175000D01*
X203475704Y-102132900D01*
X203560518Y-102005966D01*
X203668466Y-101898018D01*
X203795400Y-101813204D01*
X203889427Y-101774257D01*
X203936440Y-101754783D01*
X204011305Y-101739892D01*
X204086169Y-101725000D01*
X204238831Y-101725000D01*
X204313695Y-101739892D01*
X204313695Y-101739892D01*
G37*
G36*
X235279264Y-102752161D02*
X235298024Y-102757853D01*
X235315310Y-102767091D01*
X235330468Y-102779532D01*
X235342909Y-102794690D01*
X235352148Y-102811977D01*
X235352632Y-102813572D01*
X235356345Y-102822537D01*
X235361736Y-102830606D01*
X235368598Y-102837467D01*
X235376666Y-102842858D01*
X235385631Y-102846572D01*
X235395149Y-102848465D01*
X235404852Y-102848465D01*
X235414369Y-102846571D01*
X235423334Y-102842858D01*
X235431403Y-102837467D01*
X235438264Y-102830605D01*
X235443655Y-102822537D01*
X235447368Y-102813572D01*
X235447852Y-102811977D01*
X235457091Y-102794690D01*
X235469532Y-102779532D01*
X235484690Y-102767091D01*
X235501976Y-102757853D01*
X235520736Y-102752161D01*
X235542684Y-102750000D01*
X235897316Y-102750000D01*
X235919264Y-102752161D01*
X235938024Y-102757853D01*
X235955310Y-102767091D01*
X235970468Y-102779532D01*
X235982909Y-102794690D01*
X235992147Y-102811976D01*
X235997839Y-102830736D01*
X236000000Y-102852684D01*
X236000000Y-103147316D01*
X235997839Y-103169264D01*
X235992147Y-103188024D01*
X235982909Y-103205310D01*
X235970468Y-103220468D01*
X235955310Y-103232909D01*
X235938024Y-103242147D01*
X235919264Y-103247839D01*
X235897316Y-103250000D01*
X235542684Y-103250000D01*
X235520736Y-103247839D01*
X235501976Y-103242147D01*
X235484690Y-103232909D01*
X235469532Y-103220468D01*
X235457091Y-103205310D01*
X235447852Y-103188023D01*
X235447368Y-103186428D01*
X235443655Y-103177463D01*
X235438264Y-103169394D01*
X235431402Y-103162533D01*
X235423334Y-103157142D01*
X235414369Y-103153428D01*
X235404851Y-103151535D01*
X235395148Y-103151535D01*
X235385631Y-103153429D01*
X235376666Y-103157142D01*
X235368597Y-103162533D01*
X235361736Y-103169395D01*
X235356345Y-103177463D01*
X235352632Y-103186428D01*
X235352148Y-103188023D01*
X235342909Y-103205310D01*
X235330468Y-103220468D01*
X235315310Y-103232909D01*
X235298024Y-103242147D01*
X235279264Y-103247839D01*
X235257316Y-103250000D01*
X234902684Y-103250000D01*
X234880736Y-103247839D01*
X234861976Y-103242147D01*
X234844690Y-103232909D01*
X234829532Y-103220468D01*
X234817091Y-103205310D01*
X234807853Y-103188024D01*
X234802161Y-103169264D01*
X234800000Y-103147316D01*
X234800000Y-102852684D01*
X234802161Y-102830736D01*
X234807853Y-102811976D01*
X234817091Y-102794690D01*
X234829532Y-102779532D01*
X234844690Y-102767091D01*
X234861976Y-102757853D01*
X234880736Y-102752161D01*
X234902684Y-102750000D01*
X235257316Y-102750000D01*
X235279264Y-102752161D01*
X235279264Y-102752161D01*
G37*
G36*
X233929407Y-102652171D02*
X233957680Y-102660747D01*
X233983738Y-102674676D01*
X234006579Y-102693421D01*
X234025324Y-102716262D01*
X234039253Y-102742320D01*
X234047829Y-102770593D01*
X234050725Y-102800000D01*
X234047829Y-102829407D01*
X234039253Y-102857680D01*
X234025324Y-102883738D01*
X234006579Y-102906579D01*
X233983738Y-102925324D01*
X233957680Y-102939253D01*
X233929407Y-102947829D01*
X233907362Y-102950000D01*
X233092638Y-102950000D01*
X233070593Y-102947829D01*
X233042320Y-102939253D01*
X233016262Y-102925324D01*
X232993421Y-102906579D01*
X232974676Y-102883738D01*
X232960747Y-102857680D01*
X232952171Y-102829407D01*
X232949275Y-102800000D01*
X232952171Y-102770593D01*
X232960747Y-102742320D01*
X232974676Y-102716262D01*
X232993421Y-102693421D01*
X233016262Y-102674676D01*
X233042320Y-102660747D01*
X233070593Y-102652171D01*
X233092638Y-102650000D01*
X233907362Y-102650000D01*
X233929407Y-102652171D01*
X233929407Y-102652171D01*
G37*
G36*
X226929407Y-102652171D02*
X226957680Y-102660747D01*
X226983738Y-102674676D01*
X227006579Y-102693421D01*
X227025324Y-102716262D01*
X227039253Y-102742320D01*
X227047829Y-102770593D01*
X227050725Y-102800000D01*
X227047829Y-102829407D01*
X227039253Y-102857680D01*
X227025324Y-102883738D01*
X227006579Y-102906579D01*
X226983738Y-102925324D01*
X226957680Y-102939253D01*
X226929407Y-102947829D01*
X226907362Y-102950000D01*
X226092638Y-102950000D01*
X226070593Y-102947829D01*
X226042320Y-102939253D01*
X226016262Y-102925324D01*
X225993421Y-102906579D01*
X225974676Y-102883738D01*
X225960747Y-102857680D01*
X225952171Y-102829407D01*
X225949275Y-102800000D01*
X225952171Y-102770593D01*
X225960747Y-102742320D01*
X225974676Y-102716262D01*
X225993421Y-102693421D01*
X226016262Y-102674676D01*
X226042320Y-102660747D01*
X226070593Y-102652171D01*
X226092638Y-102650000D01*
X226907362Y-102650000D01*
X226929407Y-102652171D01*
X226929407Y-102652171D01*
G37*
G36*
X242600000Y-102950000D02*
X240600000Y-102950000D01*
X240600000Y-102550000D01*
X242600000Y-102550000D01*
X242600000Y-102950000D01*
X242600000Y-102950000D01*
G37*
G36*
X201939922Y-100859405D02*
X202062448Y-100896573D01*
X202175368Y-100956930D01*
X202274343Y-101038157D01*
X202355570Y-101137132D01*
X202415927Y-101250052D01*
X202453095Y-101372578D01*
X202456324Y-101405362D01*
X202458216Y-101414869D01*
X202461929Y-101423834D01*
X202462500Y-101424689D01*
X202462500Y-101465642D01*
X202462737Y-101470476D01*
X202465645Y-101500000D01*
X202462737Y-101529524D01*
X202462500Y-101534358D01*
X202462500Y-102750000D01*
X200462500Y-102750000D01*
X200462500Y-101534358D01*
X200462263Y-101529524D01*
X200459355Y-101500000D01*
X200462263Y-101470476D01*
X200462500Y-101465642D01*
X200462500Y-101424397D01*
X200465148Y-101419443D01*
X200468676Y-101405358D01*
X200471905Y-101372578D01*
X200509073Y-101250052D01*
X200569430Y-101137132D01*
X200650657Y-101038157D01*
X200749632Y-100956930D01*
X200862552Y-100896573D01*
X200985078Y-100859405D01*
X201080568Y-100850000D01*
X201844432Y-100850000D01*
X201939922Y-100859405D01*
X201939922Y-100859405D01*
G37*
G36*
X235279264Y-102052161D02*
X235298024Y-102057853D01*
X235315310Y-102067091D01*
X235330468Y-102079532D01*
X235342909Y-102094690D01*
X235352148Y-102111977D01*
X235352632Y-102113572D01*
X235356345Y-102122537D01*
X235361736Y-102130606D01*
X235368598Y-102137467D01*
X235376666Y-102142858D01*
X235385631Y-102146572D01*
X235395149Y-102148465D01*
X235404852Y-102148465D01*
X235414369Y-102146571D01*
X235423334Y-102142858D01*
X235431403Y-102137467D01*
X235438264Y-102130605D01*
X235443655Y-102122537D01*
X235447368Y-102113572D01*
X235447852Y-102111977D01*
X235457091Y-102094690D01*
X235469532Y-102079532D01*
X235484690Y-102067091D01*
X235501976Y-102057853D01*
X235520736Y-102052161D01*
X235542684Y-102050000D01*
X235897316Y-102050000D01*
X235919264Y-102052161D01*
X235938024Y-102057853D01*
X235955310Y-102067091D01*
X235970468Y-102079532D01*
X235982909Y-102094690D01*
X235992147Y-102111976D01*
X235997839Y-102130736D01*
X236000000Y-102152684D01*
X236000000Y-102447316D01*
X235997839Y-102469264D01*
X235992147Y-102488024D01*
X235982909Y-102505310D01*
X235970468Y-102520468D01*
X235955310Y-102532909D01*
X235938024Y-102542147D01*
X235919264Y-102547839D01*
X235897316Y-102550000D01*
X235542684Y-102550000D01*
X235520736Y-102547839D01*
X235501976Y-102542147D01*
X235484690Y-102532909D01*
X235469532Y-102520468D01*
X235457091Y-102505310D01*
X235447852Y-102488023D01*
X235447368Y-102486428D01*
X235443655Y-102477463D01*
X235438264Y-102469394D01*
X235431402Y-102462533D01*
X235423334Y-102457142D01*
X235414369Y-102453428D01*
X235404851Y-102451535D01*
X235395148Y-102451535D01*
X235385631Y-102453429D01*
X235376666Y-102457142D01*
X235368597Y-102462533D01*
X235361736Y-102469395D01*
X235356345Y-102477463D01*
X235352632Y-102486428D01*
X235352148Y-102488023D01*
X235342909Y-102505310D01*
X235330468Y-102520468D01*
X235315310Y-102532909D01*
X235298024Y-102542147D01*
X235279264Y-102547839D01*
X235257316Y-102550000D01*
X234902684Y-102550000D01*
X234880736Y-102547839D01*
X234861976Y-102542147D01*
X234844690Y-102532909D01*
X234829532Y-102520468D01*
X234817091Y-102505310D01*
X234807853Y-102488024D01*
X234802161Y-102469264D01*
X234800000Y-102447316D01*
X234800000Y-102152684D01*
X234802161Y-102130736D01*
X234807853Y-102111976D01*
X234817091Y-102094690D01*
X234829532Y-102079532D01*
X234844690Y-102067091D01*
X234861976Y-102057853D01*
X234880736Y-102052161D01*
X234902684Y-102050000D01*
X235257316Y-102050000D01*
X235279264Y-102052161D01*
X235279264Y-102052161D01*
G37*
G36*
X226929407Y-102252171D02*
X226957680Y-102260747D01*
X226983738Y-102274676D01*
X227006579Y-102293421D01*
X227025324Y-102316262D01*
X227039253Y-102342320D01*
X227047829Y-102370593D01*
X227050725Y-102400000D01*
X227047829Y-102429407D01*
X227039253Y-102457680D01*
X227025324Y-102483738D01*
X227006579Y-102506579D01*
X226983738Y-102525324D01*
X226957680Y-102539253D01*
X226929407Y-102547829D01*
X226907362Y-102550000D01*
X226092638Y-102550000D01*
X226070593Y-102547829D01*
X226042320Y-102539253D01*
X226016262Y-102525324D01*
X225993421Y-102506579D01*
X225974676Y-102483738D01*
X225960747Y-102457680D01*
X225952171Y-102429407D01*
X225949275Y-102400000D01*
X225952171Y-102370593D01*
X225960747Y-102342320D01*
X225974676Y-102316262D01*
X225993421Y-102293421D01*
X226016262Y-102274676D01*
X226042320Y-102260747D01*
X226070593Y-102252171D01*
X226092638Y-102250000D01*
X226907362Y-102250000D01*
X226929407Y-102252171D01*
X226929407Y-102252171D01*
G37*
G36*
X233929407Y-102252171D02*
X233957680Y-102260747D01*
X233983738Y-102274676D01*
X234006579Y-102293421D01*
X234025324Y-102316262D01*
X234039253Y-102342320D01*
X234047829Y-102370593D01*
X234050725Y-102400000D01*
X234047829Y-102429407D01*
X234039253Y-102457680D01*
X234025324Y-102483738D01*
X234006579Y-102506579D01*
X233983738Y-102525324D01*
X233957680Y-102539253D01*
X233929407Y-102547829D01*
X233907362Y-102550000D01*
X233092638Y-102550000D01*
X233070593Y-102547829D01*
X233042320Y-102539253D01*
X233016262Y-102525324D01*
X232993421Y-102506579D01*
X232974676Y-102483738D01*
X232960747Y-102457680D01*
X232952171Y-102429407D01*
X232949275Y-102400000D01*
X232952171Y-102370593D01*
X232960747Y-102342320D01*
X232974676Y-102316262D01*
X232993421Y-102293421D01*
X233016262Y-102274676D01*
X233042320Y-102260747D01*
X233070593Y-102252171D01*
X233092638Y-102250000D01*
X233907362Y-102250000D01*
X233929407Y-102252171D01*
X233929407Y-102252171D01*
G37*
G36*
X242600000Y-102450000D02*
X240600000Y-102450000D01*
X240600000Y-102050000D01*
X242600000Y-102050000D01*
X242600000Y-102450000D01*
X242600000Y-102450000D01*
G37*
G36*
X229029406Y-100952171D02*
X229057679Y-100960747D01*
X229083740Y-100974678D01*
X229106577Y-100993419D01*
X229106579Y-100993421D01*
X229111527Y-100999450D01*
X229125324Y-101016262D01*
X229139253Y-101042320D01*
X229147829Y-101070593D01*
X229150000Y-101092638D01*
X229150000Y-101907362D01*
X229147829Y-101929407D01*
X229139253Y-101957680D01*
X229125324Y-101983738D01*
X229106579Y-102006579D01*
X229083738Y-102025324D01*
X229057680Y-102039253D01*
X229029407Y-102047829D01*
X229000000Y-102050725D01*
X228970594Y-102047829D01*
X228942321Y-102039253D01*
X228916263Y-102025324D01*
X228893422Y-102006579D01*
X228874677Y-101983738D01*
X228860748Y-101957680D01*
X228852172Y-101929407D01*
X228850001Y-101907362D01*
X228850000Y-101092639D01*
X228852171Y-101070594D01*
X228860747Y-101042321D01*
X228874678Y-101016260D01*
X228893419Y-100993423D01*
X228893424Y-100993419D01*
X228899450Y-100988473D01*
X228916262Y-100974676D01*
X228942320Y-100960747D01*
X228970593Y-100952171D01*
X229000000Y-100949275D01*
X229029406Y-100952171D01*
X229029406Y-100952171D01*
G37*
G36*
X232629406Y-100952171D02*
X232657679Y-100960747D01*
X232683740Y-100974678D01*
X232706577Y-100993419D01*
X232706579Y-100993421D01*
X232711527Y-100999450D01*
X232725324Y-101016262D01*
X232739253Y-101042320D01*
X232747829Y-101070593D01*
X232750000Y-101092638D01*
X232750000Y-101907362D01*
X232747829Y-101929407D01*
X232739253Y-101957680D01*
X232725324Y-101983738D01*
X232706579Y-102006579D01*
X232683738Y-102025324D01*
X232657680Y-102039253D01*
X232629407Y-102047829D01*
X232600000Y-102050725D01*
X232570594Y-102047829D01*
X232542321Y-102039253D01*
X232516263Y-102025324D01*
X232493422Y-102006579D01*
X232474677Y-101983738D01*
X232460748Y-101957680D01*
X232452172Y-101929407D01*
X232450001Y-101907362D01*
X232450000Y-101092639D01*
X232452171Y-101070594D01*
X232460747Y-101042321D01*
X232474678Y-101016260D01*
X232493419Y-100993423D01*
X232493424Y-100993419D01*
X232499450Y-100988473D01*
X232516262Y-100974676D01*
X232542320Y-100960747D01*
X232570593Y-100952171D01*
X232600000Y-100949275D01*
X232629406Y-100952171D01*
X232629406Y-100952171D01*
G37*
G36*
X232229406Y-100952171D02*
X232257679Y-100960747D01*
X232283740Y-100974678D01*
X232306577Y-100993419D01*
X232306579Y-100993421D01*
X232311527Y-100999450D01*
X232325324Y-101016262D01*
X232339253Y-101042320D01*
X232347829Y-101070593D01*
X232350000Y-101092638D01*
X232350000Y-101907362D01*
X232347829Y-101929407D01*
X232339253Y-101957680D01*
X232325324Y-101983738D01*
X232306579Y-102006579D01*
X232283738Y-102025324D01*
X232257680Y-102039253D01*
X232229407Y-102047829D01*
X232200000Y-102050725D01*
X232170594Y-102047829D01*
X232142321Y-102039253D01*
X232116263Y-102025324D01*
X232093422Y-102006579D01*
X232074677Y-101983738D01*
X232060748Y-101957680D01*
X232052172Y-101929407D01*
X232050001Y-101907362D01*
X232050000Y-101092639D01*
X232052171Y-101070594D01*
X232060747Y-101042321D01*
X232074678Y-101016260D01*
X232093419Y-100993423D01*
X232093424Y-100993419D01*
X232099450Y-100988473D01*
X232116262Y-100974676D01*
X232142320Y-100960747D01*
X232170593Y-100952171D01*
X232200000Y-100949275D01*
X232229406Y-100952171D01*
X232229406Y-100952171D01*
G37*
G36*
X228629406Y-100952171D02*
X228657679Y-100960747D01*
X228683740Y-100974678D01*
X228706577Y-100993419D01*
X228706579Y-100993421D01*
X228711527Y-100999450D01*
X228725324Y-101016262D01*
X228739253Y-101042320D01*
X228747829Y-101070593D01*
X228750000Y-101092638D01*
X228750000Y-101907362D01*
X228747829Y-101929407D01*
X228739253Y-101957680D01*
X228725324Y-101983738D01*
X228706579Y-102006579D01*
X228683738Y-102025324D01*
X228657680Y-102039253D01*
X228629407Y-102047829D01*
X228600000Y-102050725D01*
X228570594Y-102047829D01*
X228542321Y-102039253D01*
X228516263Y-102025324D01*
X228493422Y-102006579D01*
X228474677Y-101983738D01*
X228460748Y-101957680D01*
X228452172Y-101929407D01*
X228450001Y-101907362D01*
X228450000Y-101092639D01*
X228452171Y-101070594D01*
X228460747Y-101042321D01*
X228474678Y-101016260D01*
X228493419Y-100993423D01*
X228493424Y-100993419D01*
X228499450Y-100988473D01*
X228516262Y-100974676D01*
X228542320Y-100960747D01*
X228570593Y-100952171D01*
X228600000Y-100949275D01*
X228629406Y-100952171D01*
X228629406Y-100952171D01*
G37*
G36*
X231829406Y-100952171D02*
X231857679Y-100960747D01*
X231883740Y-100974678D01*
X231906577Y-100993419D01*
X231906579Y-100993421D01*
X231911527Y-100999450D01*
X231925324Y-101016262D01*
X231939253Y-101042320D01*
X231947829Y-101070593D01*
X231950000Y-101092638D01*
X231950000Y-101907362D01*
X231947829Y-101929407D01*
X231939253Y-101957680D01*
X231925324Y-101983738D01*
X231906579Y-102006579D01*
X231883738Y-102025324D01*
X231857680Y-102039253D01*
X231829407Y-102047829D01*
X231800000Y-102050725D01*
X231770594Y-102047829D01*
X231742321Y-102039253D01*
X231716263Y-102025324D01*
X231693422Y-102006579D01*
X231674677Y-101983738D01*
X231660748Y-101957680D01*
X231652172Y-101929407D01*
X231650001Y-101907362D01*
X231650000Y-101092639D01*
X231652171Y-101070594D01*
X231660747Y-101042321D01*
X231674678Y-101016260D01*
X231693419Y-100993423D01*
X231693424Y-100993419D01*
X231699450Y-100988473D01*
X231716262Y-100974676D01*
X231742320Y-100960747D01*
X231770593Y-100952171D01*
X231800000Y-100949275D01*
X231829406Y-100952171D01*
X231829406Y-100952171D01*
G37*
G36*
X228229406Y-100952171D02*
X228257679Y-100960747D01*
X228283740Y-100974678D01*
X228306577Y-100993419D01*
X228306579Y-100993421D01*
X228311527Y-100999450D01*
X228325324Y-101016262D01*
X228339253Y-101042320D01*
X228347829Y-101070593D01*
X228350000Y-101092638D01*
X228350000Y-101907362D01*
X228347829Y-101929407D01*
X228339253Y-101957680D01*
X228325324Y-101983738D01*
X228306579Y-102006579D01*
X228283738Y-102025324D01*
X228257680Y-102039253D01*
X228229407Y-102047829D01*
X228200000Y-102050725D01*
X228170594Y-102047829D01*
X228142321Y-102039253D01*
X228116263Y-102025324D01*
X228093422Y-102006579D01*
X228074677Y-101983738D01*
X228060748Y-101957680D01*
X228052172Y-101929407D01*
X228050001Y-101907362D01*
X228050000Y-101092639D01*
X228052171Y-101070594D01*
X228060747Y-101042321D01*
X228074678Y-101016260D01*
X228093419Y-100993423D01*
X228093424Y-100993419D01*
X228099450Y-100988473D01*
X228116262Y-100974676D01*
X228142320Y-100960747D01*
X228170593Y-100952171D01*
X228200000Y-100949275D01*
X228229406Y-100952171D01*
X228229406Y-100952171D01*
G37*
G36*
X231029406Y-100952171D02*
X231057679Y-100960747D01*
X231083740Y-100974678D01*
X231106577Y-100993419D01*
X231106579Y-100993421D01*
X231111527Y-100999450D01*
X231125324Y-101016262D01*
X231139253Y-101042320D01*
X231147829Y-101070593D01*
X231150000Y-101092638D01*
X231150000Y-101907362D01*
X231147829Y-101929407D01*
X231139253Y-101957680D01*
X231125324Y-101983738D01*
X231106579Y-102006579D01*
X231083738Y-102025324D01*
X231057680Y-102039253D01*
X231029407Y-102047829D01*
X231000000Y-102050725D01*
X230970594Y-102047829D01*
X230942321Y-102039253D01*
X230916263Y-102025324D01*
X230893422Y-102006579D01*
X230874677Y-101983738D01*
X230860748Y-101957680D01*
X230852172Y-101929407D01*
X230850001Y-101907362D01*
X230850000Y-101092639D01*
X230852171Y-101070594D01*
X230860747Y-101042321D01*
X230874678Y-101016260D01*
X230893419Y-100993423D01*
X230893424Y-100993419D01*
X230899450Y-100988473D01*
X230916262Y-100974676D01*
X230942320Y-100960747D01*
X230970593Y-100952171D01*
X231000000Y-100949275D01*
X231029406Y-100952171D01*
X231029406Y-100952171D01*
G37*
G36*
X230629406Y-100952171D02*
X230657679Y-100960747D01*
X230683740Y-100974678D01*
X230706577Y-100993419D01*
X230706579Y-100993421D01*
X230711527Y-100999450D01*
X230725324Y-101016262D01*
X230739253Y-101042320D01*
X230747829Y-101070593D01*
X230750000Y-101092638D01*
X230750000Y-101907362D01*
X230747829Y-101929407D01*
X230739253Y-101957680D01*
X230725324Y-101983738D01*
X230706579Y-102006579D01*
X230683738Y-102025324D01*
X230657680Y-102039253D01*
X230629407Y-102047829D01*
X230600000Y-102050725D01*
X230570594Y-102047829D01*
X230542321Y-102039253D01*
X230516263Y-102025324D01*
X230493422Y-102006579D01*
X230474677Y-101983738D01*
X230460748Y-101957680D01*
X230452172Y-101929407D01*
X230450001Y-101907362D01*
X230450000Y-101092639D01*
X230452171Y-101070594D01*
X230460747Y-101042321D01*
X230474678Y-101016260D01*
X230493419Y-100993423D01*
X230493424Y-100993419D01*
X230499450Y-100988473D01*
X230516262Y-100974676D01*
X230542320Y-100960747D01*
X230570593Y-100952171D01*
X230600000Y-100949275D01*
X230629406Y-100952171D01*
X230629406Y-100952171D01*
G37*
G36*
X230229406Y-100952171D02*
X230257679Y-100960747D01*
X230283740Y-100974678D01*
X230306577Y-100993419D01*
X230306579Y-100993421D01*
X230311527Y-100999450D01*
X230325324Y-101016262D01*
X230339253Y-101042320D01*
X230347829Y-101070593D01*
X230350000Y-101092638D01*
X230350000Y-101907362D01*
X230347829Y-101929407D01*
X230339253Y-101957680D01*
X230325324Y-101983738D01*
X230306579Y-102006579D01*
X230283738Y-102025324D01*
X230257680Y-102039253D01*
X230229407Y-102047829D01*
X230200000Y-102050725D01*
X230170594Y-102047829D01*
X230142321Y-102039253D01*
X230116263Y-102025324D01*
X230093422Y-102006579D01*
X230074677Y-101983738D01*
X230060748Y-101957680D01*
X230052172Y-101929407D01*
X230050001Y-101907362D01*
X230050000Y-101092639D01*
X230052171Y-101070594D01*
X230060747Y-101042321D01*
X230074678Y-101016260D01*
X230093419Y-100993423D01*
X230093424Y-100993419D01*
X230099450Y-100988473D01*
X230116262Y-100974676D01*
X230142320Y-100960747D01*
X230170593Y-100952171D01*
X230200000Y-100949275D01*
X230229406Y-100952171D01*
X230229406Y-100952171D01*
G37*
G36*
X229829406Y-100952171D02*
X229857679Y-100960747D01*
X229883740Y-100974678D01*
X229906577Y-100993419D01*
X229906579Y-100993421D01*
X229911527Y-100999450D01*
X229925324Y-101016262D01*
X229939253Y-101042320D01*
X229947829Y-101070593D01*
X229950000Y-101092638D01*
X229950000Y-101907362D01*
X229947829Y-101929407D01*
X229939253Y-101957680D01*
X229925324Y-101983738D01*
X229906579Y-102006579D01*
X229883738Y-102025324D01*
X229857680Y-102039253D01*
X229829407Y-102047829D01*
X229800000Y-102050725D01*
X229770594Y-102047829D01*
X229742321Y-102039253D01*
X229716263Y-102025324D01*
X229693422Y-102006579D01*
X229674677Y-101983738D01*
X229660748Y-101957680D01*
X229652172Y-101929407D01*
X229650001Y-101907362D01*
X229650000Y-101092639D01*
X229652171Y-101070594D01*
X229660747Y-101042321D01*
X229674678Y-101016260D01*
X229693419Y-100993423D01*
X229693424Y-100993419D01*
X229699450Y-100988473D01*
X229716262Y-100974676D01*
X229742320Y-100960747D01*
X229770593Y-100952171D01*
X229800000Y-100949275D01*
X229829406Y-100952171D01*
X229829406Y-100952171D01*
G37*
G36*
X229429406Y-100952171D02*
X229457679Y-100960747D01*
X229483740Y-100974678D01*
X229506577Y-100993419D01*
X229506579Y-100993421D01*
X229511527Y-100999450D01*
X229525324Y-101016262D01*
X229539253Y-101042320D01*
X229547829Y-101070593D01*
X229550000Y-101092638D01*
X229550000Y-101907362D01*
X229547829Y-101929407D01*
X229539253Y-101957680D01*
X229525324Y-101983738D01*
X229506579Y-102006579D01*
X229483738Y-102025324D01*
X229457680Y-102039253D01*
X229429407Y-102047829D01*
X229400000Y-102050725D01*
X229370594Y-102047829D01*
X229342321Y-102039253D01*
X229316263Y-102025324D01*
X229293422Y-102006579D01*
X229274677Y-101983738D01*
X229260748Y-101957680D01*
X229252172Y-101929407D01*
X229250001Y-101907362D01*
X229250000Y-101092639D01*
X229252171Y-101070594D01*
X229260747Y-101042321D01*
X229274678Y-101016260D01*
X229293419Y-100993423D01*
X229293424Y-100993419D01*
X229299450Y-100988473D01*
X229316262Y-100974676D01*
X229342320Y-100960747D01*
X229370593Y-100952171D01*
X229400000Y-100949275D01*
X229429406Y-100952171D01*
X229429406Y-100952171D01*
G37*
G36*
X227829406Y-100952171D02*
X227857679Y-100960747D01*
X227883740Y-100974678D01*
X227906577Y-100993419D01*
X227906579Y-100993421D01*
X227911527Y-100999450D01*
X227925324Y-101016262D01*
X227939253Y-101042320D01*
X227947829Y-101070593D01*
X227950000Y-101092638D01*
X227950000Y-101907362D01*
X227947829Y-101929407D01*
X227939253Y-101957680D01*
X227925324Y-101983738D01*
X227906579Y-102006579D01*
X227883738Y-102025324D01*
X227857680Y-102039253D01*
X227829407Y-102047829D01*
X227800000Y-102050725D01*
X227770594Y-102047829D01*
X227742321Y-102039253D01*
X227716263Y-102025324D01*
X227693422Y-102006579D01*
X227674677Y-101983738D01*
X227660748Y-101957680D01*
X227652172Y-101929407D01*
X227650001Y-101907362D01*
X227650000Y-101092639D01*
X227652171Y-101070594D01*
X227660747Y-101042321D01*
X227674678Y-101016260D01*
X227693419Y-100993423D01*
X227693424Y-100993419D01*
X227699450Y-100988473D01*
X227716262Y-100974676D01*
X227742320Y-100960747D01*
X227770593Y-100952171D01*
X227800000Y-100949275D01*
X227829406Y-100952171D01*
X227829406Y-100952171D01*
G37*
G36*
X227429406Y-100952171D02*
X227457679Y-100960747D01*
X227483740Y-100974678D01*
X227506577Y-100993419D01*
X227506579Y-100993421D01*
X227511527Y-100999450D01*
X227525324Y-101016262D01*
X227539253Y-101042320D01*
X227547829Y-101070593D01*
X227550000Y-101092638D01*
X227550000Y-101907362D01*
X227547829Y-101929407D01*
X227539253Y-101957680D01*
X227525324Y-101983738D01*
X227506579Y-102006579D01*
X227483738Y-102025324D01*
X227457680Y-102039253D01*
X227429407Y-102047829D01*
X227400000Y-102050725D01*
X227370594Y-102047829D01*
X227342321Y-102039253D01*
X227316263Y-102025324D01*
X227293422Y-102006579D01*
X227274677Y-101983738D01*
X227260748Y-101957680D01*
X227252172Y-101929407D01*
X227250001Y-101907362D01*
X227250000Y-101092639D01*
X227252171Y-101070594D01*
X227260747Y-101042321D01*
X227274678Y-101016260D01*
X227293419Y-100993423D01*
X227293424Y-100993419D01*
X227299450Y-100988473D01*
X227316262Y-100974676D01*
X227342320Y-100960747D01*
X227370593Y-100952171D01*
X227400000Y-100949275D01*
X227429406Y-100952171D01*
X227429406Y-100952171D01*
G37*
G36*
X231429406Y-100952171D02*
X231457679Y-100960747D01*
X231483740Y-100974678D01*
X231506577Y-100993419D01*
X231506579Y-100993421D01*
X231511527Y-100999450D01*
X231525324Y-101016262D01*
X231539253Y-101042320D01*
X231547829Y-101070593D01*
X231550000Y-101092638D01*
X231550000Y-101907362D01*
X231547829Y-101929407D01*
X231539253Y-101957680D01*
X231525324Y-101983738D01*
X231506579Y-102006579D01*
X231483738Y-102025324D01*
X231457680Y-102039253D01*
X231429407Y-102047829D01*
X231400000Y-102050725D01*
X231370594Y-102047829D01*
X231342321Y-102039253D01*
X231316263Y-102025324D01*
X231293422Y-102006579D01*
X231274677Y-101983738D01*
X231260748Y-101957680D01*
X231252172Y-101929407D01*
X231250001Y-101907362D01*
X231250000Y-101092639D01*
X231252171Y-101070594D01*
X231260747Y-101042321D01*
X231274678Y-101016260D01*
X231293419Y-100993423D01*
X231293424Y-100993419D01*
X231299450Y-100988473D01*
X231316262Y-100974676D01*
X231342320Y-100960747D01*
X231370593Y-100952171D01*
X231400000Y-100949275D01*
X231429406Y-100952171D01*
X231429406Y-100952171D01*
G37*
G36*
X242600000Y-101950000D02*
X240600000Y-101950000D01*
X240600000Y-101550000D01*
X242600000Y-101550000D01*
X242600000Y-101950000D01*
X242600000Y-101950000D01*
G37*
G36*
X235279264Y-101252161D02*
X235298024Y-101257853D01*
X235315310Y-101267091D01*
X235330468Y-101279532D01*
X235342909Y-101294690D01*
X235352148Y-101311977D01*
X235352632Y-101313572D01*
X235356345Y-101322537D01*
X235361736Y-101330606D01*
X235368598Y-101337467D01*
X235376666Y-101342858D01*
X235385631Y-101346572D01*
X235395149Y-101348465D01*
X235404852Y-101348465D01*
X235414369Y-101346571D01*
X235423334Y-101342858D01*
X235431403Y-101337467D01*
X235438264Y-101330605D01*
X235443655Y-101322537D01*
X235447368Y-101313572D01*
X235447852Y-101311977D01*
X235457091Y-101294690D01*
X235469532Y-101279532D01*
X235484690Y-101267091D01*
X235501976Y-101257853D01*
X235520736Y-101252161D01*
X235542684Y-101250000D01*
X235897316Y-101250000D01*
X235919264Y-101252161D01*
X235938024Y-101257853D01*
X235955310Y-101267091D01*
X235970468Y-101279532D01*
X235982909Y-101294690D01*
X235992147Y-101311976D01*
X235997839Y-101330736D01*
X236000000Y-101352684D01*
X236000000Y-101647316D01*
X235997839Y-101669264D01*
X235992147Y-101688024D01*
X235982909Y-101705310D01*
X235970468Y-101720468D01*
X235955310Y-101732909D01*
X235938024Y-101742147D01*
X235919264Y-101747839D01*
X235897316Y-101750000D01*
X235542684Y-101750000D01*
X235520736Y-101747839D01*
X235501976Y-101742147D01*
X235484690Y-101732909D01*
X235469532Y-101720468D01*
X235457091Y-101705310D01*
X235447852Y-101688023D01*
X235447368Y-101686428D01*
X235443655Y-101677463D01*
X235438264Y-101669394D01*
X235431402Y-101662533D01*
X235423334Y-101657142D01*
X235414369Y-101653428D01*
X235404851Y-101651535D01*
X235395148Y-101651535D01*
X235385631Y-101653429D01*
X235376666Y-101657142D01*
X235368597Y-101662533D01*
X235361736Y-101669395D01*
X235356345Y-101677463D01*
X235352632Y-101686428D01*
X235352148Y-101688023D01*
X235342909Y-101705310D01*
X235330468Y-101720468D01*
X235315310Y-101732909D01*
X235298024Y-101742147D01*
X235279264Y-101747839D01*
X235257316Y-101750000D01*
X234902684Y-101750000D01*
X234880736Y-101747839D01*
X234861976Y-101742147D01*
X234844690Y-101732909D01*
X234829532Y-101720468D01*
X234817091Y-101705310D01*
X234807853Y-101688024D01*
X234802161Y-101669264D01*
X234800000Y-101647316D01*
X234800000Y-101352684D01*
X234802161Y-101330736D01*
X234807853Y-101311976D01*
X234817091Y-101294690D01*
X234829532Y-101279532D01*
X234844690Y-101267091D01*
X234861976Y-101257853D01*
X234880736Y-101252161D01*
X234902684Y-101250000D01*
X235257316Y-101250000D01*
X235279264Y-101252161D01*
X235279264Y-101252161D01*
G37*
G36*
X242600000Y-101450000D02*
X240600000Y-101450000D01*
X240600000Y-101050000D01*
X242600000Y-101050000D01*
X242600000Y-101450000D01*
X242600000Y-101450000D01*
G37*
G36*
X242600000Y-100950000D02*
X240600000Y-100950000D01*
X240600000Y-100550000D01*
X242600000Y-100550000D01*
X242600000Y-100950000D01*
X242600000Y-100950000D01*
G37*
G36*
X234711031Y-99783074D02*
X234738699Y-99791468D01*
X234764200Y-99805098D01*
X234786555Y-99823445D01*
X234804902Y-99845800D01*
X234818532Y-99871301D01*
X234826926Y-99898969D01*
X234830000Y-99930185D01*
X234830000Y-100369815D01*
X234826926Y-100401031D01*
X234818532Y-100428699D01*
X234804902Y-100454200D01*
X234786555Y-100476555D01*
X234764200Y-100494902D01*
X234738699Y-100508532D01*
X234711031Y-100516926D01*
X234679815Y-100520000D01*
X234290185Y-100520000D01*
X234258969Y-100516926D01*
X234231301Y-100508532D01*
X234205800Y-100494902D01*
X234183445Y-100476555D01*
X234165098Y-100454200D01*
X234151468Y-100428699D01*
X234143074Y-100401031D01*
X234140000Y-100369815D01*
X234140000Y-99930185D01*
X234143074Y-99898969D01*
X234151468Y-99871301D01*
X234165098Y-99845800D01*
X234183445Y-99823445D01*
X234205800Y-99805098D01*
X234231301Y-99791468D01*
X234258969Y-99783074D01*
X234290185Y-99780000D01*
X234679815Y-99780000D01*
X234711031Y-99783074D01*
X234711031Y-99783074D01*
G37*
G36*
X233741031Y-99783074D02*
X233768699Y-99791468D01*
X233794200Y-99805098D01*
X233816555Y-99823445D01*
X233834902Y-99845800D01*
X233848532Y-99871301D01*
X233856926Y-99898969D01*
X233860000Y-99930185D01*
X233860000Y-100369815D01*
X233856926Y-100401031D01*
X233848532Y-100428699D01*
X233834902Y-100454200D01*
X233816555Y-100476555D01*
X233794200Y-100494902D01*
X233768699Y-100508532D01*
X233741031Y-100516926D01*
X233709815Y-100520000D01*
X233320185Y-100520000D01*
X233288969Y-100516926D01*
X233261301Y-100508532D01*
X233235800Y-100494902D01*
X233213445Y-100476555D01*
X233195098Y-100454200D01*
X233181468Y-100428699D01*
X233173074Y-100401031D01*
X233170000Y-100369815D01*
X233170000Y-99930185D01*
X233173074Y-99898969D01*
X233181468Y-99871301D01*
X233195098Y-99845800D01*
X233213445Y-99823445D01*
X233235800Y-99805098D01*
X233261301Y-99791468D01*
X233288969Y-99783074D01*
X233320185Y-99780000D01*
X233709815Y-99780000D01*
X233741031Y-99783074D01*
X233741031Y-99783074D01*
G37*
G36*
X242600000Y-100450000D02*
X240600000Y-100450000D01*
X240600000Y-100050000D01*
X242600000Y-100050000D01*
X242600000Y-100450000D01*
X242600000Y-100450000D01*
G37*
G36*
X232051031Y-99393074D02*
X232078699Y-99401468D01*
X232104200Y-99415098D01*
X232126555Y-99433445D01*
X232144902Y-99455800D01*
X232158532Y-99481301D01*
X232166926Y-99508969D01*
X232170000Y-99540185D01*
X232170000Y-99929815D01*
X232166926Y-99961031D01*
X232158532Y-99988699D01*
X232144902Y-100014200D01*
X232126555Y-100036555D01*
X232104200Y-100054902D01*
X232078699Y-100068532D01*
X232051031Y-100076926D01*
X232019815Y-100080000D01*
X231580185Y-100080000D01*
X231548969Y-100076926D01*
X231521301Y-100068532D01*
X231495800Y-100054902D01*
X231473445Y-100036555D01*
X231455098Y-100014200D01*
X231441468Y-99988699D01*
X231433074Y-99961031D01*
X231430000Y-99929815D01*
X231430000Y-99540185D01*
X231433074Y-99508969D01*
X231441468Y-99481301D01*
X231455098Y-99455800D01*
X231473445Y-99433445D01*
X231495800Y-99415098D01*
X231521301Y-99401468D01*
X231548969Y-99393074D01*
X231580185Y-99390000D01*
X232019815Y-99390000D01*
X232051031Y-99393074D01*
X232051031Y-99393074D01*
G37*
G36*
X230951031Y-99393074D02*
X230978699Y-99401468D01*
X231004200Y-99415098D01*
X231026555Y-99433445D01*
X231044902Y-99455800D01*
X231058532Y-99481301D01*
X231066926Y-99508969D01*
X231070000Y-99540185D01*
X231070000Y-99929815D01*
X231066926Y-99961031D01*
X231058532Y-99988699D01*
X231044902Y-100014200D01*
X231026555Y-100036555D01*
X231004200Y-100054902D01*
X230978699Y-100068532D01*
X230951031Y-100076926D01*
X230919815Y-100080000D01*
X230480185Y-100080000D01*
X230448969Y-100076926D01*
X230421301Y-100068532D01*
X230395800Y-100054902D01*
X230373445Y-100036555D01*
X230355098Y-100014200D01*
X230341468Y-99988699D01*
X230333074Y-99961031D01*
X230330000Y-99929815D01*
X230330000Y-99540185D01*
X230333074Y-99508969D01*
X230341468Y-99481301D01*
X230355098Y-99455800D01*
X230373445Y-99433445D01*
X230395800Y-99415098D01*
X230421301Y-99401468D01*
X230448969Y-99393074D01*
X230480185Y-99390000D01*
X230919815Y-99390000D01*
X230951031Y-99393074D01*
X230951031Y-99393074D01*
G37*
G36*
X203711031Y-99133074D02*
X203738699Y-99141468D01*
X203764200Y-99155098D01*
X203786555Y-99173445D01*
X203804902Y-99195800D01*
X203818532Y-99221301D01*
X203826926Y-99248969D01*
X203830000Y-99280185D01*
X203830000Y-99719815D01*
X203826926Y-99751031D01*
X203818532Y-99778699D01*
X203804902Y-99804200D01*
X203786555Y-99826555D01*
X203764200Y-99844902D01*
X203738699Y-99858532D01*
X203711031Y-99866926D01*
X203679815Y-99870000D01*
X203290185Y-99870000D01*
X203258969Y-99866926D01*
X203231301Y-99858532D01*
X203205800Y-99844902D01*
X203183445Y-99826555D01*
X203165098Y-99804200D01*
X203151468Y-99778699D01*
X203143074Y-99751031D01*
X203140000Y-99719815D01*
X203140000Y-99280185D01*
X203143074Y-99248969D01*
X203151468Y-99221301D01*
X203165098Y-99195800D01*
X203183445Y-99173445D01*
X203205800Y-99155098D01*
X203231301Y-99141468D01*
X203258969Y-99133074D01*
X203290185Y-99130000D01*
X203679815Y-99130000D01*
X203711031Y-99133074D01*
X203711031Y-99133074D01*
G37*
G36*
X202741031Y-99133074D02*
X202768699Y-99141468D01*
X202794200Y-99155098D01*
X202816555Y-99173445D01*
X202834902Y-99195800D01*
X202848532Y-99221301D01*
X202856926Y-99248969D01*
X202860000Y-99280185D01*
X202860000Y-99719815D01*
X202856926Y-99751031D01*
X202848532Y-99778699D01*
X202834902Y-99804200D01*
X202816555Y-99826555D01*
X202794200Y-99844902D01*
X202768699Y-99858532D01*
X202741031Y-99866926D01*
X202709815Y-99870000D01*
X202320185Y-99870000D01*
X202288969Y-99866926D01*
X202261301Y-99858532D01*
X202235800Y-99844902D01*
X202213445Y-99826555D01*
X202195098Y-99804200D01*
X202181468Y-99778699D01*
X202173074Y-99751031D01*
X202170000Y-99719815D01*
X202170000Y-99280185D01*
X202173074Y-99248969D01*
X202181468Y-99221301D01*
X202195098Y-99195800D01*
X202213445Y-99173445D01*
X202235800Y-99155098D01*
X202261301Y-99141468D01*
X202288969Y-99133074D01*
X202320185Y-99130000D01*
X202709815Y-99130000D01*
X202741031Y-99133074D01*
X202741031Y-99133074D01*
G37*
G36*
X220156031Y-98833074D02*
X220183699Y-98841468D01*
X220209200Y-98855098D01*
X220231555Y-98873445D01*
X220249902Y-98895800D01*
X220263532Y-98921301D01*
X220271926Y-98948969D01*
X220275000Y-98980185D01*
X220275000Y-99419815D01*
X220271926Y-99451031D01*
X220263532Y-99478699D01*
X220249902Y-99504200D01*
X220231555Y-99526555D01*
X220209200Y-99544902D01*
X220183699Y-99558532D01*
X220156031Y-99566926D01*
X220124815Y-99570000D01*
X219735185Y-99570000D01*
X219703969Y-99566926D01*
X219676301Y-99558532D01*
X219650800Y-99544902D01*
X219628445Y-99526555D01*
X219610098Y-99504200D01*
X219596468Y-99478699D01*
X219588074Y-99451031D01*
X219585000Y-99419815D01*
X219585000Y-98980185D01*
X219588074Y-98948969D01*
X219596468Y-98921301D01*
X219610098Y-98895800D01*
X219628445Y-98873445D01*
X219650800Y-98855098D01*
X219676301Y-98841468D01*
X219703969Y-98833074D01*
X219735185Y-98830000D01*
X220124815Y-98830000D01*
X220156031Y-98833074D01*
X220156031Y-98833074D01*
G37*
G36*
X221126031Y-98833074D02*
X221153699Y-98841468D01*
X221179200Y-98855098D01*
X221201555Y-98873445D01*
X221219902Y-98895800D01*
X221233532Y-98921301D01*
X221241926Y-98948969D01*
X221245000Y-98980185D01*
X221245000Y-99419815D01*
X221241926Y-99451031D01*
X221233532Y-99478699D01*
X221219902Y-99504200D01*
X221201555Y-99526555D01*
X221179200Y-99544902D01*
X221153699Y-99558532D01*
X221126031Y-99566926D01*
X221094815Y-99570000D01*
X220705185Y-99570000D01*
X220673969Y-99566926D01*
X220646301Y-99558532D01*
X220620800Y-99544902D01*
X220598445Y-99526555D01*
X220580098Y-99504200D01*
X220566468Y-99478699D01*
X220558074Y-99451031D01*
X220555000Y-99419815D01*
X220555000Y-98980185D01*
X220558074Y-98948969D01*
X220566468Y-98921301D01*
X220580098Y-98895800D01*
X220598445Y-98873445D01*
X220620800Y-98855098D01*
X220646301Y-98841468D01*
X220673969Y-98833074D01*
X220705185Y-98830000D01*
X221094815Y-98830000D01*
X221126031Y-98833074D01*
X221126031Y-98833074D01*
G37*
G36*
X223204138Y-98597642D02*
X223227590Y-98604756D01*
X223249205Y-98616310D01*
X223268146Y-98631854D01*
X223283690Y-98650795D01*
X223295244Y-98672410D01*
X223302358Y-98695862D01*
X223305000Y-98722686D01*
X223305000Y-99067314D01*
X223302358Y-99094138D01*
X223295244Y-99117590D01*
X223283690Y-99139205D01*
X223268146Y-99158146D01*
X223249205Y-99173690D01*
X223227590Y-99185244D01*
X223204138Y-99192358D01*
X223177314Y-99195000D01*
X222557686Y-99195000D01*
X222530862Y-99192358D01*
X222507410Y-99185244D01*
X222485795Y-99173690D01*
X222466854Y-99158146D01*
X222451310Y-99139205D01*
X222439756Y-99117590D01*
X222432642Y-99094138D01*
X222430000Y-99067314D01*
X222430000Y-98722686D01*
X222432642Y-98695862D01*
X222439756Y-98672410D01*
X222451310Y-98650795D01*
X222466854Y-98631854D01*
X222485795Y-98616310D01*
X222507410Y-98604756D01*
X222530862Y-98597642D01*
X222557686Y-98595000D01*
X223177314Y-98595000D01*
X223204138Y-98597642D01*
X223204138Y-98597642D01*
G37*
G36*
X228529138Y-98597642D02*
X228552590Y-98604756D01*
X228574205Y-98616310D01*
X228593146Y-98631854D01*
X228608690Y-98650795D01*
X228620244Y-98672410D01*
X228627358Y-98695862D01*
X228630000Y-98722686D01*
X228630000Y-99067314D01*
X228627358Y-99094138D01*
X228620244Y-99117590D01*
X228608690Y-99139205D01*
X228593146Y-99158146D01*
X228574205Y-99173690D01*
X228552590Y-99185244D01*
X228529138Y-99192358D01*
X228502314Y-99195000D01*
X227882686Y-99195000D01*
X227855862Y-99192358D01*
X227832410Y-99185244D01*
X227810795Y-99173690D01*
X227791854Y-99158146D01*
X227776310Y-99139205D01*
X227764756Y-99117590D01*
X227757642Y-99094138D01*
X227755000Y-99067314D01*
X227755000Y-98722686D01*
X227757642Y-98695862D01*
X227764756Y-98672410D01*
X227776310Y-98650795D01*
X227791854Y-98631854D01*
X227810795Y-98616310D01*
X227832410Y-98604756D01*
X227855862Y-98597642D01*
X227882686Y-98595000D01*
X228502314Y-98595000D01*
X228529138Y-98597642D01*
X228529138Y-98597642D01*
G37*
G36*
X230951031Y-98423074D02*
X230978699Y-98431468D01*
X231004200Y-98445098D01*
X231026555Y-98463445D01*
X231044902Y-98485800D01*
X231058532Y-98511301D01*
X231066926Y-98538969D01*
X231070000Y-98570185D01*
X231070000Y-98959815D01*
X231066926Y-98991031D01*
X231058532Y-99018699D01*
X231044902Y-99044200D01*
X231026555Y-99066555D01*
X231004200Y-99084902D01*
X230978699Y-99098532D01*
X230951031Y-99106926D01*
X230919815Y-99110000D01*
X230480185Y-99110000D01*
X230448969Y-99106926D01*
X230421301Y-99098532D01*
X230395800Y-99084902D01*
X230373445Y-99066555D01*
X230355098Y-99044200D01*
X230341468Y-99018699D01*
X230333074Y-98991031D01*
X230330000Y-98959815D01*
X230330000Y-98570185D01*
X230333074Y-98538969D01*
X230341468Y-98511301D01*
X230355098Y-98485800D01*
X230373445Y-98463445D01*
X230395800Y-98445098D01*
X230421301Y-98431468D01*
X230448969Y-98423074D01*
X230480185Y-98420000D01*
X230919815Y-98420000D01*
X230951031Y-98423074D01*
X230951031Y-98423074D01*
G37*
G36*
X232051031Y-98423074D02*
X232078699Y-98431468D01*
X232104200Y-98445098D01*
X232126555Y-98463445D01*
X232144902Y-98485800D01*
X232158532Y-98511301D01*
X232166926Y-98538969D01*
X232170000Y-98570185D01*
X232170000Y-98959815D01*
X232166926Y-98991031D01*
X232158532Y-99018699D01*
X232144902Y-99044200D01*
X232126555Y-99066555D01*
X232104200Y-99084902D01*
X232078699Y-99098532D01*
X232051031Y-99106926D01*
X232019815Y-99110000D01*
X231580185Y-99110000D01*
X231548969Y-99106926D01*
X231521301Y-99098532D01*
X231495800Y-99084902D01*
X231473445Y-99066555D01*
X231455098Y-99044200D01*
X231441468Y-99018699D01*
X231433074Y-98991031D01*
X231430000Y-98959815D01*
X231430000Y-98570185D01*
X231433074Y-98538969D01*
X231441468Y-98511301D01*
X231455098Y-98485800D01*
X231473445Y-98463445D01*
X231495800Y-98445098D01*
X231521301Y-98431468D01*
X231548969Y-98423074D01*
X231580185Y-98420000D01*
X232019815Y-98420000D01*
X232051031Y-98423074D01*
X232051031Y-98423074D01*
G37*
G36*
X227105431Y-94944401D02*
X227146058Y-94956726D01*
X227183504Y-94976741D01*
X227216324Y-95003676D01*
X227243259Y-95036496D01*
X227263274Y-95073942D01*
X227275599Y-95114569D01*
X227280000Y-95159260D01*
X227280000Y-98820740D01*
X227275599Y-98865431D01*
X227263274Y-98906058D01*
X227243259Y-98943504D01*
X227216324Y-98976324D01*
X227183504Y-99003259D01*
X227146058Y-99023274D01*
X227105431Y-99035599D01*
X227060740Y-99040000D01*
X223999260Y-99040000D01*
X223954569Y-99035599D01*
X223913942Y-99023274D01*
X223876496Y-99003259D01*
X223843676Y-98976324D01*
X223816741Y-98943504D01*
X223796726Y-98906058D01*
X223784401Y-98865431D01*
X223780000Y-98820740D01*
X223780000Y-95159260D01*
X223784401Y-95114569D01*
X223796726Y-95073942D01*
X223816741Y-95036496D01*
X223843676Y-95003676D01*
X223876496Y-94976741D01*
X223913942Y-94956726D01*
X223954569Y-94944401D01*
X223999260Y-94940000D01*
X227060740Y-94940000D01*
X227105431Y-94944401D01*
X227105431Y-94944401D01*
G37*
G36*
X242791689Y-96788429D02*
X242973678Y-96863811D01*
X243137463Y-96973249D01*
X243276751Y-97112537D01*
X243386189Y-97276322D01*
X243461571Y-97458311D01*
X243500000Y-97651509D01*
X243500000Y-97848491D01*
X243461571Y-98041689D01*
X243386189Y-98223678D01*
X243276751Y-98387463D01*
X243137463Y-98526751D01*
X242973678Y-98636189D01*
X242791689Y-98711571D01*
X242598491Y-98750000D01*
X242401509Y-98750000D01*
X242208311Y-98711571D01*
X242026322Y-98636189D01*
X241862537Y-98526751D01*
X241723249Y-98387463D01*
X241613811Y-98223678D01*
X241538429Y-98041689D01*
X241500000Y-97848491D01*
X241500000Y-97651509D01*
X241538429Y-97458311D01*
X241613811Y-97276322D01*
X241723249Y-97112537D01*
X241862537Y-96973249D01*
X242026322Y-96863811D01*
X242208311Y-96788429D01*
X242401509Y-96750000D01*
X242598491Y-96750000D01*
X242791689Y-96788429D01*
X242791689Y-96788429D01*
G37*
G36*
X204278557Y-97254924D02*
X204324283Y-97268794D01*
X204366429Y-97291323D01*
X204403365Y-97321635D01*
X204433677Y-97358571D01*
X204456206Y-97400717D01*
X204470076Y-97446443D01*
X204475000Y-97496436D01*
X204475000Y-98503564D01*
X204470076Y-98553557D01*
X204456206Y-98599283D01*
X204433677Y-98641429D01*
X204403365Y-98678365D01*
X204366429Y-98708677D01*
X204324283Y-98731206D01*
X204278557Y-98745076D01*
X204228564Y-98750000D01*
X203646436Y-98750000D01*
X203596443Y-98745076D01*
X203550717Y-98731206D01*
X203508571Y-98708677D01*
X203471635Y-98678365D01*
X203441323Y-98641429D01*
X203418794Y-98599283D01*
X203404924Y-98553557D01*
X203400000Y-98503564D01*
X203400000Y-97496436D01*
X203404924Y-97446443D01*
X203418794Y-97400717D01*
X203441323Y-97358571D01*
X203471635Y-97321635D01*
X203508571Y-97291323D01*
X203550717Y-97268794D01*
X203596443Y-97254924D01*
X203646436Y-97250000D01*
X204228564Y-97250000D01*
X204278557Y-97254924D01*
X204278557Y-97254924D01*
G37*
G36*
X202403557Y-97254924D02*
X202449283Y-97268794D01*
X202491429Y-97291323D01*
X202528365Y-97321635D01*
X202558677Y-97358571D01*
X202581206Y-97400717D01*
X202595076Y-97446443D01*
X202600000Y-97496436D01*
X202600000Y-98503564D01*
X202595076Y-98553557D01*
X202581206Y-98599283D01*
X202558677Y-98641429D01*
X202528365Y-98678365D01*
X202491429Y-98708677D01*
X202449283Y-98731206D01*
X202403557Y-98745076D01*
X202353564Y-98750000D01*
X201771436Y-98750000D01*
X201721443Y-98745076D01*
X201675717Y-98731206D01*
X201633571Y-98708677D01*
X201596635Y-98678365D01*
X201566323Y-98641429D01*
X201543794Y-98599283D01*
X201529924Y-98553557D01*
X201525000Y-98503564D01*
X201525000Y-97496436D01*
X201529924Y-97446443D01*
X201543794Y-97400717D01*
X201566323Y-97358571D01*
X201596635Y-97321635D01*
X201633571Y-97291323D01*
X201675717Y-97268794D01*
X201721443Y-97254924D01*
X201771436Y-97250000D01*
X202353564Y-97250000D01*
X202403557Y-97254924D01*
X202403557Y-97254924D01*
G37*
G36*
X247691689Y-96188429D02*
X247873678Y-96263811D01*
X248037463Y-96373249D01*
X248176751Y-96512537D01*
X248286189Y-96676322D01*
X248361571Y-96858311D01*
X248400000Y-97051509D01*
X248400000Y-97248491D01*
X248361571Y-97441689D01*
X248286189Y-97623678D01*
X248176751Y-97787463D01*
X248037463Y-97926751D01*
X247873678Y-98036189D01*
X247691689Y-98111571D01*
X247498491Y-98150000D01*
X247301509Y-98150000D01*
X247108311Y-98111571D01*
X246926322Y-98036189D01*
X246762537Y-97926751D01*
X246623249Y-97787463D01*
X246513811Y-97623678D01*
X246438429Y-97441689D01*
X246400000Y-97248491D01*
X246400000Y-97051509D01*
X246438429Y-96858311D01*
X246513811Y-96676322D01*
X246623249Y-96512537D01*
X246762537Y-96373249D01*
X246926322Y-96263811D01*
X247108311Y-96188429D01*
X247301509Y-96150000D01*
X247498491Y-96150000D01*
X247691689Y-96188429D01*
X247691689Y-96188429D01*
G37*
G36*
X221111031Y-97333074D02*
X221138699Y-97341468D01*
X221164200Y-97355098D01*
X221186555Y-97373445D01*
X221204902Y-97395800D01*
X221218532Y-97421301D01*
X221226926Y-97448969D01*
X221230000Y-97480185D01*
X221230000Y-97919815D01*
X221226926Y-97951031D01*
X221218532Y-97978699D01*
X221204902Y-98004200D01*
X221186555Y-98026555D01*
X221164200Y-98044902D01*
X221138699Y-98058532D01*
X221111031Y-98066926D01*
X221079815Y-98070000D01*
X220690185Y-98070000D01*
X220658969Y-98066926D01*
X220631301Y-98058532D01*
X220605800Y-98044902D01*
X220583445Y-98026555D01*
X220565098Y-98004200D01*
X220551468Y-97978699D01*
X220543074Y-97951031D01*
X220540000Y-97919815D01*
X220540000Y-97480185D01*
X220543074Y-97448969D01*
X220551468Y-97421301D01*
X220565098Y-97395800D01*
X220583445Y-97373445D01*
X220605800Y-97355098D01*
X220631301Y-97341468D01*
X220658969Y-97333074D01*
X220690185Y-97330000D01*
X221079815Y-97330000D01*
X221111031Y-97333074D01*
X221111031Y-97333074D01*
G37*
G36*
X220141031Y-97333074D02*
X220168699Y-97341468D01*
X220194200Y-97355098D01*
X220216555Y-97373445D01*
X220234902Y-97395800D01*
X220248532Y-97421301D01*
X220256926Y-97448969D01*
X220260000Y-97480185D01*
X220260000Y-97919815D01*
X220256926Y-97951031D01*
X220248532Y-97978699D01*
X220234902Y-98004200D01*
X220216555Y-98026555D01*
X220194200Y-98044902D01*
X220168699Y-98058532D01*
X220141031Y-98066926D01*
X220109815Y-98070000D01*
X219720185Y-98070000D01*
X219688969Y-98066926D01*
X219661301Y-98058532D01*
X219635800Y-98044902D01*
X219613445Y-98026555D01*
X219595098Y-98004200D01*
X219581468Y-97978699D01*
X219573074Y-97951031D01*
X219570000Y-97919815D01*
X219570000Y-97480185D01*
X219573074Y-97448969D01*
X219581468Y-97421301D01*
X219595098Y-97395800D01*
X219613445Y-97373445D01*
X219635800Y-97355098D01*
X219661301Y-97341468D01*
X219688969Y-97333074D01*
X219720185Y-97330000D01*
X220109815Y-97330000D01*
X220141031Y-97333074D01*
X220141031Y-97333074D01*
G37*
G36*
X223204138Y-97327642D02*
X223227590Y-97334756D01*
X223249205Y-97346310D01*
X223268146Y-97361854D01*
X223283690Y-97380795D01*
X223295244Y-97402410D01*
X223302358Y-97425862D01*
X223305000Y-97452686D01*
X223305000Y-97797314D01*
X223302358Y-97824138D01*
X223295244Y-97847590D01*
X223283690Y-97869205D01*
X223268146Y-97888146D01*
X223249205Y-97903690D01*
X223227590Y-97915244D01*
X223204138Y-97922358D01*
X223177314Y-97925000D01*
X222557686Y-97925000D01*
X222530862Y-97922358D01*
X222507410Y-97915244D01*
X222485795Y-97903690D01*
X222466854Y-97888146D01*
X222451310Y-97869205D01*
X222439756Y-97847590D01*
X222432642Y-97824138D01*
X222430000Y-97797314D01*
X222430000Y-97452686D01*
X222432642Y-97425862D01*
X222439756Y-97402410D01*
X222451310Y-97380795D01*
X222466854Y-97361854D01*
X222485795Y-97346310D01*
X222507410Y-97334756D01*
X222530862Y-97327642D01*
X222557686Y-97325000D01*
X223177314Y-97325000D01*
X223204138Y-97327642D01*
X223204138Y-97327642D01*
G37*
G36*
X228529138Y-97327642D02*
X228552590Y-97334756D01*
X228574205Y-97346310D01*
X228593146Y-97361854D01*
X228608690Y-97380795D01*
X228620244Y-97402410D01*
X228627358Y-97425862D01*
X228630000Y-97452686D01*
X228630000Y-97797314D01*
X228627358Y-97824138D01*
X228620244Y-97847590D01*
X228608690Y-97869205D01*
X228593146Y-97888146D01*
X228574205Y-97903690D01*
X228552590Y-97915244D01*
X228529138Y-97922358D01*
X228502314Y-97925000D01*
X227882686Y-97925000D01*
X227855862Y-97922358D01*
X227832410Y-97915244D01*
X227810795Y-97903690D01*
X227791854Y-97888146D01*
X227776310Y-97869205D01*
X227764756Y-97847590D01*
X227757642Y-97824138D01*
X227755000Y-97797314D01*
X227755000Y-97452686D01*
X227757642Y-97425862D01*
X227764756Y-97402410D01*
X227776310Y-97380795D01*
X227791854Y-97361854D01*
X227810795Y-97346310D01*
X227832410Y-97334756D01*
X227855862Y-97327642D01*
X227882686Y-97325000D01*
X228502314Y-97325000D01*
X228529138Y-97327642D01*
X228529138Y-97327642D01*
G37*
G36*
X223204138Y-96057642D02*
X223227590Y-96064756D01*
X223249205Y-96076310D01*
X223268146Y-96091854D01*
X223283690Y-96110795D01*
X223295244Y-96132410D01*
X223302358Y-96155862D01*
X223305000Y-96182686D01*
X223305000Y-96527314D01*
X223302358Y-96554138D01*
X223295244Y-96577590D01*
X223283690Y-96599205D01*
X223268146Y-96618146D01*
X223249205Y-96633690D01*
X223227590Y-96645244D01*
X223204138Y-96652358D01*
X223177314Y-96655000D01*
X222557686Y-96655000D01*
X222530862Y-96652358D01*
X222507410Y-96645244D01*
X222485795Y-96633690D01*
X222466854Y-96618146D01*
X222451310Y-96599205D01*
X222439756Y-96577590D01*
X222432642Y-96554138D01*
X222430000Y-96527314D01*
X222430000Y-96182686D01*
X222432642Y-96155862D01*
X222439756Y-96132410D01*
X222451310Y-96110795D01*
X222466854Y-96091854D01*
X222485795Y-96076310D01*
X222507410Y-96064756D01*
X222530862Y-96057642D01*
X222557686Y-96055000D01*
X223177314Y-96055000D01*
X223204138Y-96057642D01*
X223204138Y-96057642D01*
G37*
G36*
X228529138Y-96057642D02*
X228552590Y-96064756D01*
X228574205Y-96076310D01*
X228593146Y-96091854D01*
X228608690Y-96110795D01*
X228620244Y-96132410D01*
X228627358Y-96155862D01*
X228630000Y-96182686D01*
X228630000Y-96527314D01*
X228627358Y-96554138D01*
X228620244Y-96577590D01*
X228608690Y-96599205D01*
X228593146Y-96618146D01*
X228574205Y-96633690D01*
X228552590Y-96645244D01*
X228529138Y-96652358D01*
X228502314Y-96655000D01*
X227882686Y-96655000D01*
X227855862Y-96652358D01*
X227832410Y-96645244D01*
X227810795Y-96633690D01*
X227791854Y-96618146D01*
X227776310Y-96599205D01*
X227764756Y-96577590D01*
X227757642Y-96554138D01*
X227755000Y-96527314D01*
X227755000Y-96182686D01*
X227757642Y-96155862D01*
X227764756Y-96132410D01*
X227776310Y-96110795D01*
X227791854Y-96091854D01*
X227810795Y-96076310D01*
X227832410Y-96064756D01*
X227855862Y-96057642D01*
X227882686Y-96055000D01*
X228502314Y-96055000D01*
X228529138Y-96057642D01*
X228529138Y-96057642D01*
G37*
G36*
X213711031Y-95833074D02*
X213738699Y-95841468D01*
X213764200Y-95855098D01*
X213786555Y-95873445D01*
X213804902Y-95895800D01*
X213818532Y-95921301D01*
X213826926Y-95948969D01*
X213830000Y-95980185D01*
X213830000Y-96419815D01*
X213826926Y-96451031D01*
X213818532Y-96478699D01*
X213804902Y-96504200D01*
X213786555Y-96526555D01*
X213764200Y-96544902D01*
X213738699Y-96558532D01*
X213711031Y-96566926D01*
X213679815Y-96570000D01*
X213290185Y-96570000D01*
X213258969Y-96566926D01*
X213231301Y-96558532D01*
X213205800Y-96544902D01*
X213183445Y-96526555D01*
X213165098Y-96504200D01*
X213151468Y-96478699D01*
X213143074Y-96451031D01*
X213140000Y-96419815D01*
X213140000Y-95980185D01*
X213143074Y-95948969D01*
X213151468Y-95921301D01*
X213165098Y-95895800D01*
X213183445Y-95873445D01*
X213205800Y-95855098D01*
X213231301Y-95841468D01*
X213258969Y-95833074D01*
X213290185Y-95830000D01*
X213679815Y-95830000D01*
X213711031Y-95833074D01*
X213711031Y-95833074D01*
G37*
G36*
X212741031Y-95833074D02*
X212768699Y-95841468D01*
X212794200Y-95855098D01*
X212816555Y-95873445D01*
X212834902Y-95895800D01*
X212848532Y-95921301D01*
X212856926Y-95948969D01*
X212860000Y-95980185D01*
X212860000Y-96419815D01*
X212856926Y-96451031D01*
X212848532Y-96478699D01*
X212834902Y-96504200D01*
X212816555Y-96526555D01*
X212794200Y-96544902D01*
X212768699Y-96558532D01*
X212741031Y-96566926D01*
X212709815Y-96570000D01*
X212320185Y-96570000D01*
X212288969Y-96566926D01*
X212261301Y-96558532D01*
X212235800Y-96544902D01*
X212213445Y-96526555D01*
X212195098Y-96504200D01*
X212181468Y-96478699D01*
X212173074Y-96451031D01*
X212170000Y-96419815D01*
X212170000Y-95980185D01*
X212173074Y-95948969D01*
X212181468Y-95921301D01*
X212195098Y-95895800D01*
X212213445Y-95873445D01*
X212235800Y-95855098D01*
X212261301Y-95841468D01*
X212288969Y-95833074D01*
X212320185Y-95830000D01*
X212709815Y-95830000D01*
X212741031Y-95833074D01*
X212741031Y-95833074D01*
G37*
G36*
X204278557Y-94254924D02*
X204324283Y-94268794D01*
X204366429Y-94291323D01*
X204403365Y-94321635D01*
X204433677Y-94358571D01*
X204456206Y-94400717D01*
X204470076Y-94446443D01*
X204475000Y-94496436D01*
X204475000Y-95503564D01*
X204470076Y-95553557D01*
X204456206Y-95599283D01*
X204433677Y-95641429D01*
X204403365Y-95678365D01*
X204366429Y-95708677D01*
X204324283Y-95731206D01*
X204278557Y-95745076D01*
X204228564Y-95750000D01*
X203646436Y-95750000D01*
X203596443Y-95745076D01*
X203550717Y-95731206D01*
X203508571Y-95708677D01*
X203471635Y-95678365D01*
X203441323Y-95641429D01*
X203418794Y-95599283D01*
X203404924Y-95553557D01*
X203400000Y-95503564D01*
X203400000Y-94496436D01*
X203404924Y-94446443D01*
X203418794Y-94400717D01*
X203441323Y-94358571D01*
X203471635Y-94321635D01*
X203508571Y-94291323D01*
X203550717Y-94268794D01*
X203596443Y-94254924D01*
X203646436Y-94250000D01*
X204228564Y-94250000D01*
X204278557Y-94254924D01*
X204278557Y-94254924D01*
G37*
G36*
X202403557Y-94254924D02*
X202449283Y-94268794D01*
X202491429Y-94291323D01*
X202528365Y-94321635D01*
X202558677Y-94358571D01*
X202581206Y-94400717D01*
X202595076Y-94446443D01*
X202600000Y-94496436D01*
X202600000Y-95503564D01*
X202595076Y-95553557D01*
X202581206Y-95599283D01*
X202558677Y-95641429D01*
X202528365Y-95678365D01*
X202491429Y-95708677D01*
X202449283Y-95731206D01*
X202403557Y-95745076D01*
X202353564Y-95750000D01*
X201771436Y-95750000D01*
X201721443Y-95745076D01*
X201675717Y-95731206D01*
X201633571Y-95708677D01*
X201596635Y-95678365D01*
X201566323Y-95641429D01*
X201543794Y-95599283D01*
X201529924Y-95553557D01*
X201525000Y-95503564D01*
X201525000Y-94496436D01*
X201529924Y-94446443D01*
X201543794Y-94400717D01*
X201566323Y-94358571D01*
X201596635Y-94321635D01*
X201633571Y-94291323D01*
X201675717Y-94268794D01*
X201721443Y-94254924D01*
X201771436Y-94250000D01*
X202353564Y-94250000D01*
X202403557Y-94254924D01*
X202403557Y-94254924D01*
G37*
G36*
X228529138Y-94787642D02*
X228552590Y-94794756D01*
X228574205Y-94806310D01*
X228593146Y-94821854D01*
X228608690Y-94840795D01*
X228620244Y-94862410D01*
X228627358Y-94885862D01*
X228630000Y-94912686D01*
X228630000Y-95257314D01*
X228627358Y-95284138D01*
X228620244Y-95307590D01*
X228608690Y-95329205D01*
X228593146Y-95348146D01*
X228574205Y-95363690D01*
X228552590Y-95375244D01*
X228529138Y-95382358D01*
X228502314Y-95385000D01*
X227882686Y-95385000D01*
X227855862Y-95382358D01*
X227832410Y-95375244D01*
X227810795Y-95363690D01*
X227791854Y-95348146D01*
X227776310Y-95329205D01*
X227764756Y-95307590D01*
X227757642Y-95284138D01*
X227755000Y-95257314D01*
X227755000Y-94912686D01*
X227757642Y-94885862D01*
X227764756Y-94862410D01*
X227776310Y-94840795D01*
X227791854Y-94821854D01*
X227810795Y-94806310D01*
X227832410Y-94794756D01*
X227855862Y-94787642D01*
X227882686Y-94785000D01*
X228502314Y-94785000D01*
X228529138Y-94787642D01*
X228529138Y-94787642D01*
G37*
G36*
X223204138Y-94787642D02*
X223227590Y-94794756D01*
X223249205Y-94806310D01*
X223268146Y-94821854D01*
X223283690Y-94840795D01*
X223295244Y-94862410D01*
X223302358Y-94885862D01*
X223305000Y-94912686D01*
X223305000Y-95257314D01*
X223302358Y-95284138D01*
X223295244Y-95307590D01*
X223283690Y-95329205D01*
X223268146Y-95348146D01*
X223249205Y-95363690D01*
X223227590Y-95375244D01*
X223204138Y-95382358D01*
X223177314Y-95385000D01*
X222557686Y-95385000D01*
X222530862Y-95382358D01*
X222507410Y-95375244D01*
X222485795Y-95363690D01*
X222466854Y-95348146D01*
X222451310Y-95329205D01*
X222439756Y-95307590D01*
X222432642Y-95284138D01*
X222430000Y-95257314D01*
X222430000Y-94912686D01*
X222432642Y-94885862D01*
X222439756Y-94862410D01*
X222451310Y-94840795D01*
X222466854Y-94821854D01*
X222485795Y-94806310D01*
X222507410Y-94794756D01*
X222530862Y-94787642D01*
X222557686Y-94785000D01*
X223177314Y-94785000D01*
X223204138Y-94787642D01*
X223204138Y-94787642D01*
G37*
G36*
X202741031Y-93133074D02*
X202768699Y-93141468D01*
X202794200Y-93155098D01*
X202816555Y-93173445D01*
X202834902Y-93195800D01*
X202848532Y-93221301D01*
X202856926Y-93248969D01*
X202860000Y-93280185D01*
X202860000Y-93719815D01*
X202856926Y-93751031D01*
X202848532Y-93778699D01*
X202834902Y-93804200D01*
X202816555Y-93826555D01*
X202794200Y-93844902D01*
X202768699Y-93858532D01*
X202741031Y-93866926D01*
X202709815Y-93870000D01*
X202320185Y-93870000D01*
X202288969Y-93866926D01*
X202261301Y-93858532D01*
X202235800Y-93844902D01*
X202213445Y-93826555D01*
X202195098Y-93804200D01*
X202181468Y-93778699D01*
X202173074Y-93751031D01*
X202170000Y-93719815D01*
X202170000Y-93280185D01*
X202173074Y-93248969D01*
X202181468Y-93221301D01*
X202195098Y-93195800D01*
X202213445Y-93173445D01*
X202235800Y-93155098D01*
X202261301Y-93141468D01*
X202288969Y-93133074D01*
X202320185Y-93130000D01*
X202709815Y-93130000D01*
X202741031Y-93133074D01*
X202741031Y-93133074D01*
G37*
G36*
X225711031Y-93133074D02*
X225738699Y-93141468D01*
X225764200Y-93155098D01*
X225786555Y-93173445D01*
X225804902Y-93195800D01*
X225818532Y-93221301D01*
X225826926Y-93248969D01*
X225830000Y-93280185D01*
X225830000Y-93719815D01*
X225826926Y-93751031D01*
X225818532Y-93778699D01*
X225804902Y-93804200D01*
X225786555Y-93826555D01*
X225764200Y-93844902D01*
X225738699Y-93858532D01*
X225711031Y-93866926D01*
X225679815Y-93870000D01*
X225290185Y-93870000D01*
X225258969Y-93866926D01*
X225231301Y-93858532D01*
X225205800Y-93844902D01*
X225183445Y-93826555D01*
X225165098Y-93804200D01*
X225151468Y-93778699D01*
X225143074Y-93751031D01*
X225140000Y-93719815D01*
X225140000Y-93280185D01*
X225143074Y-93248969D01*
X225151468Y-93221301D01*
X225165098Y-93195800D01*
X225183445Y-93173445D01*
X225205800Y-93155098D01*
X225231301Y-93141468D01*
X225258969Y-93133074D01*
X225290185Y-93130000D01*
X225679815Y-93130000D01*
X225711031Y-93133074D01*
X225711031Y-93133074D01*
G37*
G36*
X224741031Y-93133074D02*
X224768699Y-93141468D01*
X224794200Y-93155098D01*
X224816555Y-93173445D01*
X224834902Y-93195800D01*
X224848532Y-93221301D01*
X224856926Y-93248969D01*
X224860000Y-93280185D01*
X224860000Y-93719815D01*
X224856926Y-93751031D01*
X224848532Y-93778699D01*
X224834902Y-93804200D01*
X224816555Y-93826555D01*
X224794200Y-93844902D01*
X224768699Y-93858532D01*
X224741031Y-93866926D01*
X224709815Y-93870000D01*
X224320185Y-93870000D01*
X224288969Y-93866926D01*
X224261301Y-93858532D01*
X224235800Y-93844902D01*
X224213445Y-93826555D01*
X224195098Y-93804200D01*
X224181468Y-93778699D01*
X224173074Y-93751031D01*
X224170000Y-93719815D01*
X224170000Y-93280185D01*
X224173074Y-93248969D01*
X224181468Y-93221301D01*
X224195098Y-93195800D01*
X224213445Y-93173445D01*
X224235800Y-93155098D01*
X224261301Y-93141468D01*
X224288969Y-93133074D01*
X224320185Y-93130000D01*
X224709815Y-93130000D01*
X224741031Y-93133074D01*
X224741031Y-93133074D01*
G37*
G36*
X203711031Y-93133074D02*
X203738699Y-93141468D01*
X203764200Y-93155098D01*
X203786555Y-93173445D01*
X203804902Y-93195800D01*
X203818532Y-93221301D01*
X203826926Y-93248969D01*
X203830000Y-93280185D01*
X203830000Y-93719815D01*
X203826926Y-93751031D01*
X203818532Y-93778699D01*
X203804902Y-93804200D01*
X203786555Y-93826555D01*
X203764200Y-93844902D01*
X203738699Y-93858532D01*
X203711031Y-93866926D01*
X203679815Y-93870000D01*
X203290185Y-93870000D01*
X203258969Y-93866926D01*
X203231301Y-93858532D01*
X203205800Y-93844902D01*
X203183445Y-93826555D01*
X203165098Y-93804200D01*
X203151468Y-93778699D01*
X203143074Y-93751031D01*
X203140000Y-93719815D01*
X203140000Y-93280185D01*
X203143074Y-93248969D01*
X203151468Y-93221301D01*
X203165098Y-93195800D01*
X203183445Y-93173445D01*
X203205800Y-93155098D01*
X203231301Y-93141468D01*
X203258969Y-93133074D01*
X203290185Y-93130000D01*
X203679815Y-93130000D01*
X203711031Y-93133074D01*
X203711031Y-93133074D01*
G37*
G36*
X206750000Y-93550000D02*
X205550000Y-93550000D01*
X205550000Y-91650000D01*
X206750000Y-91650000D01*
X206750000Y-93550000D01*
X206750000Y-93550000D01*
G37*
G36*
X218750000Y-93550000D02*
X217550000Y-93550000D01*
X217550000Y-91650000D01*
X218750000Y-91650000D01*
X218750000Y-93550000D01*
X218750000Y-93550000D01*
G37*
G36*
X222450000Y-93550000D02*
X221250000Y-93550000D01*
X221250000Y-91650000D01*
X222450000Y-91650000D01*
X222450000Y-93550000D01*
X222450000Y-93550000D01*
G37*
G36*
X210450000Y-93550000D02*
X209250000Y-93550000D01*
X209250000Y-91650000D01*
X210450000Y-91650000D01*
X210450000Y-93550000D01*
X210450000Y-93550000D01*
G37*
G36*
X216450000Y-93550000D02*
X215250000Y-93550000D01*
X215250000Y-91650000D01*
X216450000Y-91650000D01*
X216450000Y-93550000D01*
X216450000Y-93550000D01*
G37*
G36*
X212750000Y-93550000D02*
X211550000Y-93550000D01*
X211550000Y-91650000D01*
X212750000Y-91650000D01*
X212750000Y-93550000D01*
X212750000Y-93550000D01*
G37*
G36*
X203711031Y-92133074D02*
X203738699Y-92141468D01*
X203764200Y-92155098D01*
X203786555Y-92173445D01*
X203804902Y-92195800D01*
X203818532Y-92221301D01*
X203826926Y-92248969D01*
X203830000Y-92280185D01*
X203830000Y-92719815D01*
X203826926Y-92751031D01*
X203818532Y-92778699D01*
X203804902Y-92804200D01*
X203786555Y-92826555D01*
X203764200Y-92844902D01*
X203738699Y-92858532D01*
X203711031Y-92866926D01*
X203679815Y-92870000D01*
X203290185Y-92870000D01*
X203258969Y-92866926D01*
X203231301Y-92858532D01*
X203205800Y-92844902D01*
X203183445Y-92826555D01*
X203165098Y-92804200D01*
X203151468Y-92778699D01*
X203143074Y-92751031D01*
X203140000Y-92719815D01*
X203140000Y-92280185D01*
X203143074Y-92248969D01*
X203151468Y-92221301D01*
X203165098Y-92195800D01*
X203183445Y-92173445D01*
X203205800Y-92155098D01*
X203231301Y-92141468D01*
X203258969Y-92133074D01*
X203290185Y-92130000D01*
X203679815Y-92130000D01*
X203711031Y-92133074D01*
X203711031Y-92133074D01*
G37*
G36*
X202741031Y-92133074D02*
X202768699Y-92141468D01*
X202794200Y-92155098D01*
X202816555Y-92173445D01*
X202834902Y-92195800D01*
X202848532Y-92221301D01*
X202856926Y-92248969D01*
X202860000Y-92280185D01*
X202860000Y-92719815D01*
X202856926Y-92751031D01*
X202848532Y-92778699D01*
X202834902Y-92804200D01*
X202816555Y-92826555D01*
X202794200Y-92844902D01*
X202768699Y-92858532D01*
X202741031Y-92866926D01*
X202709815Y-92870000D01*
X202320185Y-92870000D01*
X202288969Y-92866926D01*
X202261301Y-92858532D01*
X202235800Y-92844902D01*
X202213445Y-92826555D01*
X202195098Y-92804200D01*
X202181468Y-92778699D01*
X202173074Y-92751031D01*
X202170000Y-92719815D01*
X202170000Y-92280185D01*
X202173074Y-92248969D01*
X202181468Y-92221301D01*
X202195098Y-92195800D01*
X202213445Y-92173445D01*
X202235800Y-92155098D01*
X202261301Y-92141468D01*
X202288969Y-92133074D01*
X202320185Y-92130000D01*
X202709815Y-92130000D01*
X202741031Y-92133074D01*
X202741031Y-92133074D01*
G37*
G36*
X248068795Y-85624937D02*
X248423670Y-85771932D01*
X248743053Y-85985337D01*
X249014663Y-86256947D01*
X249228068Y-86576330D01*
X249375063Y-86931205D01*
X249450000Y-87307942D01*
X249450000Y-87692058D01*
X249375063Y-88068795D01*
X249228068Y-88423670D01*
X249014663Y-88743053D01*
X248743053Y-89014663D01*
X248423670Y-89228068D01*
X248068795Y-89375063D01*
X247692058Y-89450000D01*
X247307942Y-89450000D01*
X246931205Y-89375063D01*
X246576330Y-89228068D01*
X246256947Y-89014663D01*
X245985337Y-88743053D01*
X245771932Y-88423670D01*
X245624937Y-88068795D01*
X245550000Y-87692058D01*
X245550000Y-87307942D01*
X245624937Y-86931205D01*
X245771932Y-86576330D01*
X245985337Y-86256947D01*
X246256947Y-85985337D01*
X246576330Y-85771932D01*
X246931205Y-85624937D01*
X247307942Y-85550000D01*
X247692058Y-85550000D01*
X248068795Y-85624937D01*
X248068795Y-85624937D01*
G37*
G36*
X203068795Y-85624937D02*
X203423670Y-85771932D01*
X203743053Y-85985337D01*
X204014663Y-86256947D01*
X204228068Y-86576330D01*
X204375063Y-86931205D01*
X204450000Y-87307942D01*
X204450000Y-87692058D01*
X204375063Y-88068795D01*
X204228068Y-88423670D01*
X204014663Y-88743053D01*
X203743053Y-89014663D01*
X203423670Y-89228068D01*
X203068795Y-89375063D01*
X202692058Y-89450000D01*
X202307942Y-89450000D01*
X201931205Y-89375063D01*
X201576330Y-89228068D01*
X201256947Y-89014663D01*
X200985337Y-88743053D01*
X200771932Y-88423670D01*
X200624937Y-88068795D01*
X200550000Y-87692058D01*
X200550000Y-87307942D01*
X200624937Y-86931205D01*
X200771932Y-86576330D01*
X200985337Y-86256947D01*
X201256947Y-85985337D01*
X201576330Y-85771932D01*
X201931205Y-85624937D01*
X202307942Y-85550000D01*
X202692058Y-85550000D01*
X203068795Y-85624937D01*
X203068795Y-85624937D01*
G37*
G36*
X243176431Y-86613023D02*
X243346084Y-86664487D01*
X243486385Y-86739480D01*
X243502432Y-86748057D01*
X243639475Y-86860525D01*
X243751943Y-86997568D01*
X243751944Y-86997570D01*
X243835513Y-87153916D01*
X243886977Y-87323569D01*
X243904354Y-87500000D01*
X243886977Y-87676431D01*
X243835513Y-87846084D01*
X243760520Y-87986385D01*
X243751943Y-88002432D01*
X243639475Y-88139475D01*
X243502432Y-88251943D01*
X243502430Y-88251944D01*
X243346084Y-88335513D01*
X243346081Y-88335514D01*
X243176431Y-88386977D01*
X243044207Y-88400000D01*
X242955793Y-88400000D01*
X242823569Y-88386977D01*
X242653919Y-88335514D01*
X242653916Y-88335513D01*
X242497570Y-88251944D01*
X242497568Y-88251943D01*
X242360525Y-88139475D01*
X242248057Y-88002432D01*
X242239480Y-87986385D01*
X242164487Y-87846084D01*
X242113023Y-87676431D01*
X242095646Y-87500000D01*
X242113023Y-87323569D01*
X242164487Y-87153916D01*
X242248056Y-86997570D01*
X242248057Y-86997568D01*
X242360525Y-86860525D01*
X242497568Y-86748057D01*
X242513615Y-86739480D01*
X242653916Y-86664487D01*
X242823569Y-86613023D01*
X242955793Y-86600000D01*
X243044207Y-86600000D01*
X243176431Y-86613023D01*
X243176431Y-86613023D01*
G37*
G36*
X233740000Y-88400000D02*
X231940000Y-88400000D01*
X231940000Y-86600000D01*
X233740000Y-86600000D01*
X233740000Y-88400000D01*
X233740000Y-88400000D01*
G37*
G36*
X238096431Y-86613023D02*
X238266084Y-86664487D01*
X238406385Y-86739480D01*
X238422432Y-86748057D01*
X238559475Y-86860525D01*
X238671943Y-86997568D01*
X238671944Y-86997570D01*
X238755513Y-87153916D01*
X238806977Y-87323569D01*
X238824354Y-87500000D01*
X238806977Y-87676431D01*
X238755513Y-87846084D01*
X238680520Y-87986385D01*
X238671943Y-88002432D01*
X238559475Y-88139475D01*
X238422432Y-88251943D01*
X238422430Y-88251944D01*
X238266084Y-88335513D01*
X238096431Y-88386977D01*
X237964207Y-88400000D01*
X237875793Y-88400000D01*
X237743569Y-88386977D01*
X237573916Y-88335513D01*
X237417570Y-88251944D01*
X237417568Y-88251943D01*
X237280525Y-88139475D01*
X237168057Y-88002432D01*
X237159480Y-87986385D01*
X237084487Y-87846084D01*
X237033023Y-87676431D01*
X237015646Y-87500000D01*
X237033023Y-87323569D01*
X237084487Y-87153916D01*
X237168056Y-86997570D01*
X237168057Y-86997568D01*
X237280525Y-86860525D01*
X237417568Y-86748057D01*
X237433615Y-86739480D01*
X237573916Y-86664487D01*
X237743569Y-86613023D01*
X237875793Y-86600000D01*
X237964207Y-86600000D01*
X238096431Y-86613023D01*
X238096431Y-86613023D01*
G37*
G36*
X240636431Y-86613023D02*
X240806084Y-86664487D01*
X240946385Y-86739480D01*
X240962432Y-86748057D01*
X241099475Y-86860525D01*
X241211943Y-86997568D01*
X241211944Y-86997570D01*
X241295513Y-87153916D01*
X241346977Y-87323569D01*
X241364354Y-87500000D01*
X241346977Y-87676431D01*
X241295513Y-87846084D01*
X241220520Y-87986385D01*
X241211943Y-88002432D01*
X241099475Y-88139475D01*
X240962432Y-88251943D01*
X240962430Y-88251944D01*
X240806084Y-88335513D01*
X240806081Y-88335514D01*
X240636431Y-88386977D01*
X240504207Y-88400000D01*
X240415793Y-88400000D01*
X240283569Y-88386977D01*
X240113919Y-88335514D01*
X240113916Y-88335513D01*
X239957570Y-88251944D01*
X239957568Y-88251943D01*
X239820525Y-88139475D01*
X239708057Y-88002432D01*
X239699480Y-87986385D01*
X239624487Y-87846084D01*
X239573023Y-87676431D01*
X239555646Y-87500000D01*
X239573023Y-87323569D01*
X239624487Y-87153916D01*
X239708056Y-86997570D01*
X239708057Y-86997568D01*
X239820525Y-86860525D01*
X239957568Y-86748057D01*
X239973615Y-86739480D01*
X240113916Y-86664487D01*
X240283569Y-86613023D01*
X240415793Y-86600000D01*
X240504207Y-86600000D01*
X240636431Y-86613023D01*
X240636431Y-86613023D01*
G37*
G36*
X235556431Y-86613023D02*
X235726084Y-86664487D01*
X235866385Y-86739480D01*
X235882432Y-86748057D01*
X236019475Y-86860525D01*
X236131943Y-86997568D01*
X236131944Y-86997570D01*
X236215513Y-87153916D01*
X236266977Y-87323569D01*
X236284354Y-87500000D01*
X236266977Y-87676431D01*
X236215513Y-87846084D01*
X236140520Y-87986385D01*
X236131943Y-88002432D01*
X236019475Y-88139475D01*
X235882432Y-88251943D01*
X235882430Y-88251944D01*
X235726084Y-88335513D01*
X235726081Y-88335514D01*
X235556431Y-88386977D01*
X235424207Y-88400000D01*
X235335793Y-88400000D01*
X235203569Y-88386977D01*
X235033919Y-88335514D01*
X235033916Y-88335513D01*
X234877570Y-88251944D01*
X234877568Y-88251943D01*
X234740525Y-88139475D01*
X234628057Y-88002432D01*
X234619480Y-87986385D01*
X234544487Y-87846084D01*
X234493023Y-87676431D01*
X234475646Y-87500000D01*
X234493023Y-87323569D01*
X234544487Y-87153916D01*
X234628056Y-86997570D01*
X234628057Y-86997568D01*
X234740525Y-86860525D01*
X234877568Y-86748057D01*
X234893615Y-86739480D01*
X235033916Y-86664487D01*
X235203569Y-86613023D01*
X235335793Y-86600000D01*
X235424207Y-86600000D01*
X235556431Y-86613023D01*
X235556431Y-86613023D01*
G37*
G36*
X210450000Y-87350000D02*
X209250000Y-87350000D01*
X209250000Y-85450000D01*
X210450000Y-85450000D01*
X210450000Y-87350000D01*
X210450000Y-87350000D01*
G37*
G36*
X206750000Y-87350000D02*
X205550000Y-87350000D01*
X205550000Y-85450000D01*
X206750000Y-85450000D01*
X206750000Y-87350000D01*
X206750000Y-87350000D01*
G37*
G36*
X218750000Y-87350000D02*
X217550000Y-87350000D01*
X217550000Y-85450000D01*
X218750000Y-85450000D01*
X218750000Y-87350000D01*
X218750000Y-87350000D01*
G37*
G36*
X222450000Y-87350000D02*
X221250000Y-87350000D01*
X221250000Y-85450000D01*
X222450000Y-85450000D01*
X222450000Y-87350000D01*
X222450000Y-87350000D01*
G37*
G36*
X216450000Y-87350000D02*
X215250000Y-87350000D01*
X215250000Y-85450000D01*
X216450000Y-85450000D01*
X216450000Y-87350000D01*
X216450000Y-87350000D01*
G37*
G36*
X212750000Y-87350000D02*
X211550000Y-87350000D01*
X211550000Y-85450000D01*
X212750000Y-85450000D01*
X212750000Y-87350000D01*
X212750000Y-87350000D01*
G37*
M02*
