G04 #@! TF.GenerationSoftware,KiCad,Pcbnew,5.0.2-bee76a0~70~ubuntu18.04.1*
G04 #@! TF.CreationDate,2020-08-11T13:50:02+01:00*
G04 #@! TF.ProjectId,picodvi,7069636f-6476-4692-9e6b-696361645f70,rev?*
G04 #@! TF.SameCoordinates,Original*
G04 #@! TF.FileFunction,Legend,Bot*
G04 #@! TF.FilePolarity,Positive*
%FSLAX46Y46*%
G04 Gerber Fmt 4.6, Leading zero omitted, Abs format (unit mm)*
G04 Created by KiCad (PCBNEW 5.0.2-bee76a0~70~ubuntu18.04.1) date Tue 11 Aug 2020 13:50:02 BST*
%MOMM*%
%LPD*%
G01*
G04 APERTURE LIST*
%ADD10C,0.120000*%
%ADD11C,0.100000*%
G04 APERTURE END LIST*
D10*
X214464761Y-123297904D02*
X214731428Y-122916952D01*
X214921904Y-123297904D02*
X214921904Y-122497904D01*
X214617142Y-122497904D01*
X214540952Y-122536000D01*
X214502857Y-122574095D01*
X214464761Y-122650285D01*
X214464761Y-122764571D01*
X214502857Y-122840761D01*
X214540952Y-122878857D01*
X214617142Y-122916952D01*
X214921904Y-122916952D01*
X213817142Y-123259809D02*
X213893333Y-123297904D01*
X214045714Y-123297904D01*
X214121904Y-123259809D01*
X214160000Y-123183619D01*
X214160000Y-122878857D01*
X214121904Y-122802666D01*
X214045714Y-122764571D01*
X213893333Y-122764571D01*
X213817142Y-122802666D01*
X213779047Y-122878857D01*
X213779047Y-122955047D01*
X214160000Y-123031238D01*
X213512380Y-122764571D02*
X213321904Y-123297904D01*
X213131428Y-122764571D01*
X211950476Y-122878857D02*
X211836190Y-122916952D01*
X211798095Y-122955047D01*
X211760000Y-123031238D01*
X211760000Y-123145523D01*
X211798095Y-123221714D01*
X211836190Y-123259809D01*
X211912380Y-123297904D01*
X212217142Y-123297904D01*
X212217142Y-122497904D01*
X211950476Y-122497904D01*
X211874285Y-122536000D01*
X211836190Y-122574095D01*
X211798095Y-122650285D01*
X211798095Y-122726476D01*
X211836190Y-122802666D01*
X211874285Y-122840761D01*
X211950476Y-122878857D01*
X212217142Y-122878857D01*
G04 #@! TO.C,C2*
D11*
X230116666Y-108750000D02*
X230150000Y-108783333D01*
X230250000Y-108816666D01*
X230316666Y-108816666D01*
X230416666Y-108783333D01*
X230483333Y-108716666D01*
X230516666Y-108650000D01*
X230550000Y-108516666D01*
X230550000Y-108416666D01*
X230516666Y-108283333D01*
X230483333Y-108216666D01*
X230416666Y-108150000D01*
X230316666Y-108116666D01*
X230250000Y-108116666D01*
X230150000Y-108150000D01*
X230116666Y-108183333D01*
X229850000Y-108183333D02*
X229816666Y-108150000D01*
X229750000Y-108116666D01*
X229583333Y-108116666D01*
X229516666Y-108150000D01*
X229483333Y-108183333D01*
X229450000Y-108250000D01*
X229450000Y-108316666D01*
X229483333Y-108416666D01*
X229883333Y-108816666D01*
X229450000Y-108816666D01*
G04 #@! TO.C,C3*
X232366666Y-101750000D02*
X232400000Y-101783333D01*
X232500000Y-101816666D01*
X232566666Y-101816666D01*
X232666666Y-101783333D01*
X232733333Y-101716666D01*
X232766666Y-101650000D01*
X232800000Y-101516666D01*
X232800000Y-101416666D01*
X232766666Y-101283333D01*
X232733333Y-101216666D01*
X232666666Y-101150000D01*
X232566666Y-101116666D01*
X232500000Y-101116666D01*
X232400000Y-101150000D01*
X232366666Y-101183333D01*
X232133333Y-101116666D02*
X231700000Y-101116666D01*
X231933333Y-101383333D01*
X231833333Y-101383333D01*
X231766666Y-101416666D01*
X231733333Y-101450000D01*
X231700000Y-101516666D01*
X231700000Y-101683333D01*
X231733333Y-101750000D01*
X231766666Y-101783333D01*
X231833333Y-101816666D01*
X232033333Y-101816666D01*
X232100000Y-101783333D01*
X232133333Y-101750000D01*
G04 #@! TO.C,C4*
X233866666Y-105250000D02*
X233900000Y-105283333D01*
X234000000Y-105316666D01*
X234066666Y-105316666D01*
X234166666Y-105283333D01*
X234233333Y-105216666D01*
X234266666Y-105150000D01*
X234300000Y-105016666D01*
X234300000Y-104916666D01*
X234266666Y-104783333D01*
X234233333Y-104716666D01*
X234166666Y-104650000D01*
X234066666Y-104616666D01*
X234000000Y-104616666D01*
X233900000Y-104650000D01*
X233866666Y-104683333D01*
X233266666Y-104850000D02*
X233266666Y-105316666D01*
X233433333Y-104583333D02*
X233600000Y-105083333D01*
X233166666Y-105083333D01*
G04 #@! TO.C,C5*
X231616666Y-108750000D02*
X231650000Y-108783333D01*
X231750000Y-108816666D01*
X231816666Y-108816666D01*
X231916666Y-108783333D01*
X231983333Y-108716666D01*
X232016666Y-108650000D01*
X232050000Y-108516666D01*
X232050000Y-108416666D01*
X232016666Y-108283333D01*
X231983333Y-108216666D01*
X231916666Y-108150000D01*
X231816666Y-108116666D01*
X231750000Y-108116666D01*
X231650000Y-108150000D01*
X231616666Y-108183333D01*
X230983333Y-108116666D02*
X231316666Y-108116666D01*
X231350000Y-108450000D01*
X231316666Y-108416666D01*
X231250000Y-108383333D01*
X231083333Y-108383333D01*
X231016666Y-108416666D01*
X230983333Y-108450000D01*
X230950000Y-108516666D01*
X230950000Y-108683333D01*
X230983333Y-108750000D01*
X231016666Y-108783333D01*
X231083333Y-108816666D01*
X231250000Y-108816666D01*
X231316666Y-108783333D01*
X231350000Y-108750000D01*
G04 #@! TO.C,C6*
X228366666Y-107500000D02*
X228400000Y-107533333D01*
X228500000Y-107566666D01*
X228566666Y-107566666D01*
X228666666Y-107533333D01*
X228733333Y-107466666D01*
X228766666Y-107400000D01*
X228800000Y-107266666D01*
X228800000Y-107166666D01*
X228766666Y-107033333D01*
X228733333Y-106966666D01*
X228666666Y-106900000D01*
X228566666Y-106866666D01*
X228500000Y-106866666D01*
X228400000Y-106900000D01*
X228366666Y-106933333D01*
X227766666Y-106866666D02*
X227900000Y-106866666D01*
X227966666Y-106900000D01*
X228000000Y-106933333D01*
X228066666Y-107033333D01*
X228100000Y-107166666D01*
X228100000Y-107433333D01*
X228066666Y-107500000D01*
X228033333Y-107533333D01*
X227966666Y-107566666D01*
X227833333Y-107566666D01*
X227766666Y-107533333D01*
X227733333Y-107500000D01*
X227700000Y-107433333D01*
X227700000Y-107266666D01*
X227733333Y-107200000D01*
X227766666Y-107166666D01*
X227833333Y-107133333D01*
X227966666Y-107133333D01*
X228033333Y-107166666D01*
X228066666Y-107200000D01*
X228100000Y-107266666D01*
G04 #@! TO.C,C8*
X229351666Y-101750000D02*
X229385000Y-101783333D01*
X229485000Y-101816666D01*
X229551666Y-101816666D01*
X229651666Y-101783333D01*
X229718333Y-101716666D01*
X229751666Y-101650000D01*
X229785000Y-101516666D01*
X229785000Y-101416666D01*
X229751666Y-101283333D01*
X229718333Y-101216666D01*
X229651666Y-101150000D01*
X229551666Y-101116666D01*
X229485000Y-101116666D01*
X229385000Y-101150000D01*
X229351666Y-101183333D01*
X228951666Y-101416666D02*
X229018333Y-101383333D01*
X229051666Y-101350000D01*
X229085000Y-101283333D01*
X229085000Y-101250000D01*
X229051666Y-101183333D01*
X229018333Y-101150000D01*
X228951666Y-101116666D01*
X228818333Y-101116666D01*
X228751666Y-101150000D01*
X228718333Y-101183333D01*
X228685000Y-101250000D01*
X228685000Y-101283333D01*
X228718333Y-101350000D01*
X228751666Y-101383333D01*
X228818333Y-101416666D01*
X228951666Y-101416666D01*
X229018333Y-101450000D01*
X229051666Y-101483333D01*
X229085000Y-101550000D01*
X229085000Y-101683333D01*
X229051666Y-101750000D01*
X229018333Y-101783333D01*
X228951666Y-101816666D01*
X228818333Y-101816666D01*
X228751666Y-101783333D01*
X228718333Y-101750000D01*
X228685000Y-101683333D01*
X228685000Y-101550000D01*
X228718333Y-101483333D01*
X228751666Y-101450000D01*
X228818333Y-101416666D01*
G04 #@! TO.C,C9*
X230866666Y-101750000D02*
X230900000Y-101783333D01*
X231000000Y-101816666D01*
X231066666Y-101816666D01*
X231166666Y-101783333D01*
X231233333Y-101716666D01*
X231266666Y-101650000D01*
X231300000Y-101516666D01*
X231300000Y-101416666D01*
X231266666Y-101283333D01*
X231233333Y-101216666D01*
X231166666Y-101150000D01*
X231066666Y-101116666D01*
X231000000Y-101116666D01*
X230900000Y-101150000D01*
X230866666Y-101183333D01*
X230533333Y-101816666D02*
X230400000Y-101816666D01*
X230333333Y-101783333D01*
X230300000Y-101750000D01*
X230233333Y-101650000D01*
X230200000Y-101516666D01*
X230200000Y-101250000D01*
X230233333Y-101183333D01*
X230266666Y-101150000D01*
X230333333Y-101116666D01*
X230466666Y-101116666D01*
X230533333Y-101150000D01*
X230566666Y-101183333D01*
X230600000Y-101250000D01*
X230600000Y-101416666D01*
X230566666Y-101483333D01*
X230533333Y-101516666D01*
X230466666Y-101550000D01*
X230333333Y-101550000D01*
X230266666Y-101516666D01*
X230233333Y-101483333D01*
X230200000Y-101416666D01*
G04 #@! TO.C,R7*
X236116666Y-113066666D02*
X236350000Y-112733333D01*
X236516666Y-113066666D02*
X236516666Y-112366666D01*
X236250000Y-112366666D01*
X236183333Y-112400000D01*
X236150000Y-112433333D01*
X236116666Y-112500000D01*
X236116666Y-112600000D01*
X236150000Y-112666666D01*
X236183333Y-112700000D01*
X236250000Y-112733333D01*
X236516666Y-112733333D01*
X235883333Y-112366666D02*
X235416666Y-112366666D01*
X235716666Y-113066666D01*
G04 #@! TO.C,R8*
X237366666Y-113066666D02*
X237600000Y-112733333D01*
X237766666Y-113066666D02*
X237766666Y-112366666D01*
X237500000Y-112366666D01*
X237433333Y-112400000D01*
X237400000Y-112433333D01*
X237366666Y-112500000D01*
X237366666Y-112600000D01*
X237400000Y-112666666D01*
X237433333Y-112700000D01*
X237500000Y-112733333D01*
X237766666Y-112733333D01*
X236966666Y-112666666D02*
X237033333Y-112633333D01*
X237066666Y-112600000D01*
X237100000Y-112533333D01*
X237100000Y-112500000D01*
X237066666Y-112433333D01*
X237033333Y-112400000D01*
X236966666Y-112366666D01*
X236833333Y-112366666D01*
X236766666Y-112400000D01*
X236733333Y-112433333D01*
X236700000Y-112500000D01*
X236700000Y-112533333D01*
X236733333Y-112600000D01*
X236766666Y-112633333D01*
X236833333Y-112666666D01*
X236966666Y-112666666D01*
X237033333Y-112700000D01*
X237066666Y-112733333D01*
X237100000Y-112800000D01*
X237100000Y-112933333D01*
X237066666Y-113000000D01*
X237033333Y-113033333D01*
X236966666Y-113066666D01*
X236833333Y-113066666D01*
X236766666Y-113033333D01*
X236733333Y-113000000D01*
X236700000Y-112933333D01*
X236700000Y-112800000D01*
X236733333Y-112733333D01*
X236766666Y-112700000D01*
X236833333Y-112666666D01*
G04 #@! TO.C,R9*
X238616666Y-113066666D02*
X238850000Y-112733333D01*
X239016666Y-113066666D02*
X239016666Y-112366666D01*
X238750000Y-112366666D01*
X238683333Y-112400000D01*
X238650000Y-112433333D01*
X238616666Y-112500000D01*
X238616666Y-112600000D01*
X238650000Y-112666666D01*
X238683333Y-112700000D01*
X238750000Y-112733333D01*
X239016666Y-112733333D01*
X238283333Y-113066666D02*
X238150000Y-113066666D01*
X238083333Y-113033333D01*
X238050000Y-113000000D01*
X237983333Y-112900000D01*
X237950000Y-112766666D01*
X237950000Y-112500000D01*
X237983333Y-112433333D01*
X238016666Y-112400000D01*
X238083333Y-112366666D01*
X238216666Y-112366666D01*
X238283333Y-112400000D01*
X238316666Y-112433333D01*
X238350000Y-112500000D01*
X238350000Y-112666666D01*
X238316666Y-112733333D01*
X238283333Y-112766666D01*
X238216666Y-112800000D01*
X238083333Y-112800000D01*
X238016666Y-112766666D01*
X237983333Y-112733333D01*
X237950000Y-112666666D01*
G04 #@! TD*
M02*
