G04 #@! TF.GenerationSoftware,KiCad,Pcbnew,5.0.2-bee76a0~70~ubuntu18.04.1*
G04 #@! TF.CreationDate,2020-08-11T13:50:02+01:00*
G04 #@! TF.ProjectId,picodvi,7069636f-6476-4692-9e6b-696361645f70,rev?*
G04 #@! TF.SameCoordinates,Original*
G04 #@! TF.FileFunction,Copper,L4,Bot*
G04 #@! TF.FilePolarity,Positive*
%FSLAX46Y46*%
G04 Gerber Fmt 4.6, Leading zero omitted, Abs format (unit mm)*
G04 Created by KiCad (PCBNEW 5.0.2-bee76a0~70~ubuntu18.04.1) date Tue 11 Aug 2020 13:50:02 BST*
%MOMM*%
%LPD*%
G01*
G04 APERTURE LIST*
G04 #@! TA.AperFunction,ComponentPad*
%ADD10C,1.900000*%
G04 #@! TD*
G04 #@! TA.AperFunction,Conductor*
%ADD11C,0.100000*%
G04 #@! TD*
G04 #@! TA.AperFunction,SMDPad,CuDef*
%ADD12C,0.590000*%
G04 #@! TD*
G04 #@! TA.AperFunction,ComponentPad*
%ADD13C,1.450000*%
G04 #@! TD*
G04 #@! TA.AperFunction,ComponentPad*
%ADD14O,1.900000X1.200000*%
G04 #@! TD*
G04 #@! TA.AperFunction,ComponentPad*
%ADD15R,1.700000X1.700000*%
G04 #@! TD*
G04 #@! TA.AperFunction,ComponentPad*
%ADD16O,1.700000X1.700000*%
G04 #@! TD*
G04 #@! TA.AperFunction,ViaPad*
%ADD17C,0.600000*%
G04 #@! TD*
G04 #@! TA.AperFunction,ViaPad*
%ADD18C,0.450000*%
G04 #@! TD*
G04 #@! TA.AperFunction,Conductor*
%ADD19C,0.500000*%
G04 #@! TD*
G04 #@! TA.AperFunction,Conductor*
%ADD20C,0.150000*%
G04 #@! TD*
G04 #@! TA.AperFunction,Conductor*
%ADD21C,0.450000*%
G04 #@! TD*
G04 #@! TA.AperFunction,Conductor*
%ADD22C,0.300000*%
G04 #@! TD*
G04 #@! TA.AperFunction,Conductor*
%ADD23C,0.200000*%
G04 #@! TD*
G04 APERTURE END LIST*
D10*
G04 #@! TO.P,J5,SH*
G04 #@! TO.N,GND*
X247400000Y-97150000D03*
X247400000Y-112850000D03*
X242500000Y-97750000D03*
X242500000Y-112250000D03*
G04 #@! TD*
D11*
G04 #@! TO.N,GND*
G04 #@! TO.C,C2*
G36*
X230186958Y-105720710D02*
X230201276Y-105722834D01*
X230215317Y-105726351D01*
X230228946Y-105731228D01*
X230242031Y-105737417D01*
X230254447Y-105744858D01*
X230266073Y-105753481D01*
X230276798Y-105763202D01*
X230286519Y-105773927D01*
X230295142Y-105785553D01*
X230302583Y-105797969D01*
X230308772Y-105811054D01*
X230313649Y-105824683D01*
X230317166Y-105838724D01*
X230319290Y-105853042D01*
X230320000Y-105867500D01*
X230320000Y-106162500D01*
X230319290Y-106176958D01*
X230317166Y-106191276D01*
X230313649Y-106205317D01*
X230308772Y-106218946D01*
X230302583Y-106232031D01*
X230295142Y-106244447D01*
X230286519Y-106256073D01*
X230276798Y-106266798D01*
X230266073Y-106276519D01*
X230254447Y-106285142D01*
X230242031Y-106292583D01*
X230228946Y-106298772D01*
X230215317Y-106303649D01*
X230201276Y-106307166D01*
X230186958Y-106309290D01*
X230172500Y-106310000D01*
X229827500Y-106310000D01*
X229813042Y-106309290D01*
X229798724Y-106307166D01*
X229784683Y-106303649D01*
X229771054Y-106298772D01*
X229757969Y-106292583D01*
X229745553Y-106285142D01*
X229733927Y-106276519D01*
X229723202Y-106266798D01*
X229713481Y-106256073D01*
X229704858Y-106244447D01*
X229697417Y-106232031D01*
X229691228Y-106218946D01*
X229686351Y-106205317D01*
X229682834Y-106191276D01*
X229680710Y-106176958D01*
X229680000Y-106162500D01*
X229680000Y-105867500D01*
X229680710Y-105853042D01*
X229682834Y-105838724D01*
X229686351Y-105824683D01*
X229691228Y-105811054D01*
X229697417Y-105797969D01*
X229704858Y-105785553D01*
X229713481Y-105773927D01*
X229723202Y-105763202D01*
X229733927Y-105753481D01*
X229745553Y-105744858D01*
X229757969Y-105737417D01*
X229771054Y-105731228D01*
X229784683Y-105726351D01*
X229798724Y-105722834D01*
X229813042Y-105720710D01*
X229827500Y-105720000D01*
X230172500Y-105720000D01*
X230186958Y-105720710D01*
X230186958Y-105720710D01*
G37*
D12*
G04 #@! TD*
G04 #@! TO.P,C2,2*
G04 #@! TO.N,GND*
X230000000Y-106015000D03*
D11*
G04 #@! TO.N,+3V3*
G04 #@! TO.C,C2*
G36*
X230186958Y-106690710D02*
X230201276Y-106692834D01*
X230215317Y-106696351D01*
X230228946Y-106701228D01*
X230242031Y-106707417D01*
X230254447Y-106714858D01*
X230266073Y-106723481D01*
X230276798Y-106733202D01*
X230286519Y-106743927D01*
X230295142Y-106755553D01*
X230302583Y-106767969D01*
X230308772Y-106781054D01*
X230313649Y-106794683D01*
X230317166Y-106808724D01*
X230319290Y-106823042D01*
X230320000Y-106837500D01*
X230320000Y-107132500D01*
X230319290Y-107146958D01*
X230317166Y-107161276D01*
X230313649Y-107175317D01*
X230308772Y-107188946D01*
X230302583Y-107202031D01*
X230295142Y-107214447D01*
X230286519Y-107226073D01*
X230276798Y-107236798D01*
X230266073Y-107246519D01*
X230254447Y-107255142D01*
X230242031Y-107262583D01*
X230228946Y-107268772D01*
X230215317Y-107273649D01*
X230201276Y-107277166D01*
X230186958Y-107279290D01*
X230172500Y-107280000D01*
X229827500Y-107280000D01*
X229813042Y-107279290D01*
X229798724Y-107277166D01*
X229784683Y-107273649D01*
X229771054Y-107268772D01*
X229757969Y-107262583D01*
X229745553Y-107255142D01*
X229733927Y-107246519D01*
X229723202Y-107236798D01*
X229713481Y-107226073D01*
X229704858Y-107214447D01*
X229697417Y-107202031D01*
X229691228Y-107188946D01*
X229686351Y-107175317D01*
X229682834Y-107161276D01*
X229680710Y-107146958D01*
X229680000Y-107132500D01*
X229680000Y-106837500D01*
X229680710Y-106823042D01*
X229682834Y-106808724D01*
X229686351Y-106794683D01*
X229691228Y-106781054D01*
X229697417Y-106767969D01*
X229704858Y-106755553D01*
X229713481Y-106743927D01*
X229723202Y-106733202D01*
X229733927Y-106723481D01*
X229745553Y-106714858D01*
X229757969Y-106707417D01*
X229771054Y-106701228D01*
X229784683Y-106696351D01*
X229798724Y-106692834D01*
X229813042Y-106690710D01*
X229827500Y-106690000D01*
X230172500Y-106690000D01*
X230186958Y-106690710D01*
X230186958Y-106690710D01*
G37*
D12*
G04 #@! TD*
G04 #@! TO.P,C2,1*
G04 #@! TO.N,+3V3*
X230000000Y-106985000D03*
D11*
G04 #@! TO.N,GND*
G04 #@! TO.C,C3*
G36*
X232436958Y-103690710D02*
X232451276Y-103692834D01*
X232465317Y-103696351D01*
X232478946Y-103701228D01*
X232492031Y-103707417D01*
X232504447Y-103714858D01*
X232516073Y-103723481D01*
X232526798Y-103733202D01*
X232536519Y-103743927D01*
X232545142Y-103755553D01*
X232552583Y-103767969D01*
X232558772Y-103781054D01*
X232563649Y-103794683D01*
X232567166Y-103808724D01*
X232569290Y-103823042D01*
X232570000Y-103837500D01*
X232570000Y-104132500D01*
X232569290Y-104146958D01*
X232567166Y-104161276D01*
X232563649Y-104175317D01*
X232558772Y-104188946D01*
X232552583Y-104202031D01*
X232545142Y-104214447D01*
X232536519Y-104226073D01*
X232526798Y-104236798D01*
X232516073Y-104246519D01*
X232504447Y-104255142D01*
X232492031Y-104262583D01*
X232478946Y-104268772D01*
X232465317Y-104273649D01*
X232451276Y-104277166D01*
X232436958Y-104279290D01*
X232422500Y-104280000D01*
X232077500Y-104280000D01*
X232063042Y-104279290D01*
X232048724Y-104277166D01*
X232034683Y-104273649D01*
X232021054Y-104268772D01*
X232007969Y-104262583D01*
X231995553Y-104255142D01*
X231983927Y-104246519D01*
X231973202Y-104236798D01*
X231963481Y-104226073D01*
X231954858Y-104214447D01*
X231947417Y-104202031D01*
X231941228Y-104188946D01*
X231936351Y-104175317D01*
X231932834Y-104161276D01*
X231930710Y-104146958D01*
X231930000Y-104132500D01*
X231930000Y-103837500D01*
X231930710Y-103823042D01*
X231932834Y-103808724D01*
X231936351Y-103794683D01*
X231941228Y-103781054D01*
X231947417Y-103767969D01*
X231954858Y-103755553D01*
X231963481Y-103743927D01*
X231973202Y-103733202D01*
X231983927Y-103723481D01*
X231995553Y-103714858D01*
X232007969Y-103707417D01*
X232021054Y-103701228D01*
X232034683Y-103696351D01*
X232048724Y-103692834D01*
X232063042Y-103690710D01*
X232077500Y-103690000D01*
X232422500Y-103690000D01*
X232436958Y-103690710D01*
X232436958Y-103690710D01*
G37*
D12*
G04 #@! TD*
G04 #@! TO.P,C3,2*
G04 #@! TO.N,GND*
X232250000Y-103985000D03*
D11*
G04 #@! TO.N,+1V1*
G04 #@! TO.C,C3*
G36*
X232436958Y-102720710D02*
X232451276Y-102722834D01*
X232465317Y-102726351D01*
X232478946Y-102731228D01*
X232492031Y-102737417D01*
X232504447Y-102744858D01*
X232516073Y-102753481D01*
X232526798Y-102763202D01*
X232536519Y-102773927D01*
X232545142Y-102785553D01*
X232552583Y-102797969D01*
X232558772Y-102811054D01*
X232563649Y-102824683D01*
X232567166Y-102838724D01*
X232569290Y-102853042D01*
X232570000Y-102867500D01*
X232570000Y-103162500D01*
X232569290Y-103176958D01*
X232567166Y-103191276D01*
X232563649Y-103205317D01*
X232558772Y-103218946D01*
X232552583Y-103232031D01*
X232545142Y-103244447D01*
X232536519Y-103256073D01*
X232526798Y-103266798D01*
X232516073Y-103276519D01*
X232504447Y-103285142D01*
X232492031Y-103292583D01*
X232478946Y-103298772D01*
X232465317Y-103303649D01*
X232451276Y-103307166D01*
X232436958Y-103309290D01*
X232422500Y-103310000D01*
X232077500Y-103310000D01*
X232063042Y-103309290D01*
X232048724Y-103307166D01*
X232034683Y-103303649D01*
X232021054Y-103298772D01*
X232007969Y-103292583D01*
X231995553Y-103285142D01*
X231983927Y-103276519D01*
X231973202Y-103266798D01*
X231963481Y-103256073D01*
X231954858Y-103244447D01*
X231947417Y-103232031D01*
X231941228Y-103218946D01*
X231936351Y-103205317D01*
X231932834Y-103191276D01*
X231930710Y-103176958D01*
X231930000Y-103162500D01*
X231930000Y-102867500D01*
X231930710Y-102853042D01*
X231932834Y-102838724D01*
X231936351Y-102824683D01*
X231941228Y-102811054D01*
X231947417Y-102797969D01*
X231954858Y-102785553D01*
X231963481Y-102773927D01*
X231973202Y-102763202D01*
X231983927Y-102753481D01*
X231995553Y-102744858D01*
X232007969Y-102737417D01*
X232021054Y-102731228D01*
X232034683Y-102726351D01*
X232048724Y-102722834D01*
X232063042Y-102720710D01*
X232077500Y-102720000D01*
X232422500Y-102720000D01*
X232436958Y-102720710D01*
X232436958Y-102720710D01*
G37*
D12*
G04 #@! TD*
G04 #@! TO.P,C3,1*
G04 #@! TO.N,+1V1*
X232250000Y-103015000D03*
D11*
G04 #@! TO.N,+3V3*
G04 #@! TO.C,C4*
G36*
X232046958Y-104680710D02*
X232061276Y-104682834D01*
X232075317Y-104686351D01*
X232088946Y-104691228D01*
X232102031Y-104697417D01*
X232114447Y-104704858D01*
X232126073Y-104713481D01*
X232136798Y-104723202D01*
X232146519Y-104733927D01*
X232155142Y-104745553D01*
X232162583Y-104757969D01*
X232168772Y-104771054D01*
X232173649Y-104784683D01*
X232177166Y-104798724D01*
X232179290Y-104813042D01*
X232180000Y-104827500D01*
X232180000Y-105172500D01*
X232179290Y-105186958D01*
X232177166Y-105201276D01*
X232173649Y-105215317D01*
X232168772Y-105228946D01*
X232162583Y-105242031D01*
X232155142Y-105254447D01*
X232146519Y-105266073D01*
X232136798Y-105276798D01*
X232126073Y-105286519D01*
X232114447Y-105295142D01*
X232102031Y-105302583D01*
X232088946Y-105308772D01*
X232075317Y-105313649D01*
X232061276Y-105317166D01*
X232046958Y-105319290D01*
X232032500Y-105320000D01*
X231737500Y-105320000D01*
X231723042Y-105319290D01*
X231708724Y-105317166D01*
X231694683Y-105313649D01*
X231681054Y-105308772D01*
X231667969Y-105302583D01*
X231655553Y-105295142D01*
X231643927Y-105286519D01*
X231633202Y-105276798D01*
X231623481Y-105266073D01*
X231614858Y-105254447D01*
X231607417Y-105242031D01*
X231601228Y-105228946D01*
X231596351Y-105215317D01*
X231592834Y-105201276D01*
X231590710Y-105186958D01*
X231590000Y-105172500D01*
X231590000Y-104827500D01*
X231590710Y-104813042D01*
X231592834Y-104798724D01*
X231596351Y-104784683D01*
X231601228Y-104771054D01*
X231607417Y-104757969D01*
X231614858Y-104745553D01*
X231623481Y-104733927D01*
X231633202Y-104723202D01*
X231643927Y-104713481D01*
X231655553Y-104704858D01*
X231667969Y-104697417D01*
X231681054Y-104691228D01*
X231694683Y-104686351D01*
X231708724Y-104682834D01*
X231723042Y-104680710D01*
X231737500Y-104680000D01*
X232032500Y-104680000D01*
X232046958Y-104680710D01*
X232046958Y-104680710D01*
G37*
D12*
G04 #@! TD*
G04 #@! TO.P,C4,1*
G04 #@! TO.N,+3V3*
X231885000Y-105000000D03*
D11*
G04 #@! TO.N,GND*
G04 #@! TO.C,C4*
G36*
X231076958Y-104680710D02*
X231091276Y-104682834D01*
X231105317Y-104686351D01*
X231118946Y-104691228D01*
X231132031Y-104697417D01*
X231144447Y-104704858D01*
X231156073Y-104713481D01*
X231166798Y-104723202D01*
X231176519Y-104733927D01*
X231185142Y-104745553D01*
X231192583Y-104757969D01*
X231198772Y-104771054D01*
X231203649Y-104784683D01*
X231207166Y-104798724D01*
X231209290Y-104813042D01*
X231210000Y-104827500D01*
X231210000Y-105172500D01*
X231209290Y-105186958D01*
X231207166Y-105201276D01*
X231203649Y-105215317D01*
X231198772Y-105228946D01*
X231192583Y-105242031D01*
X231185142Y-105254447D01*
X231176519Y-105266073D01*
X231166798Y-105276798D01*
X231156073Y-105286519D01*
X231144447Y-105295142D01*
X231132031Y-105302583D01*
X231118946Y-105308772D01*
X231105317Y-105313649D01*
X231091276Y-105317166D01*
X231076958Y-105319290D01*
X231062500Y-105320000D01*
X230767500Y-105320000D01*
X230753042Y-105319290D01*
X230738724Y-105317166D01*
X230724683Y-105313649D01*
X230711054Y-105308772D01*
X230697969Y-105302583D01*
X230685553Y-105295142D01*
X230673927Y-105286519D01*
X230663202Y-105276798D01*
X230653481Y-105266073D01*
X230644858Y-105254447D01*
X230637417Y-105242031D01*
X230631228Y-105228946D01*
X230626351Y-105215317D01*
X230622834Y-105201276D01*
X230620710Y-105186958D01*
X230620000Y-105172500D01*
X230620000Y-104827500D01*
X230620710Y-104813042D01*
X230622834Y-104798724D01*
X230626351Y-104784683D01*
X230631228Y-104771054D01*
X230637417Y-104757969D01*
X230644858Y-104745553D01*
X230653481Y-104733927D01*
X230663202Y-104723202D01*
X230673927Y-104713481D01*
X230685553Y-104704858D01*
X230697969Y-104697417D01*
X230711054Y-104691228D01*
X230724683Y-104686351D01*
X230738724Y-104682834D01*
X230753042Y-104680710D01*
X230767500Y-104680000D01*
X231062500Y-104680000D01*
X231076958Y-104680710D01*
X231076958Y-104680710D01*
G37*
D12*
G04 #@! TD*
G04 #@! TO.P,C4,2*
G04 #@! TO.N,GND*
X230915000Y-105000000D03*
D11*
G04 #@! TO.N,GND*
G04 #@! TO.C,C5*
G36*
X231436958Y-105720710D02*
X231451276Y-105722834D01*
X231465317Y-105726351D01*
X231478946Y-105731228D01*
X231492031Y-105737417D01*
X231504447Y-105744858D01*
X231516073Y-105753481D01*
X231526798Y-105763202D01*
X231536519Y-105773927D01*
X231545142Y-105785553D01*
X231552583Y-105797969D01*
X231558772Y-105811054D01*
X231563649Y-105824683D01*
X231567166Y-105838724D01*
X231569290Y-105853042D01*
X231570000Y-105867500D01*
X231570000Y-106162500D01*
X231569290Y-106176958D01*
X231567166Y-106191276D01*
X231563649Y-106205317D01*
X231558772Y-106218946D01*
X231552583Y-106232031D01*
X231545142Y-106244447D01*
X231536519Y-106256073D01*
X231526798Y-106266798D01*
X231516073Y-106276519D01*
X231504447Y-106285142D01*
X231492031Y-106292583D01*
X231478946Y-106298772D01*
X231465317Y-106303649D01*
X231451276Y-106307166D01*
X231436958Y-106309290D01*
X231422500Y-106310000D01*
X231077500Y-106310000D01*
X231063042Y-106309290D01*
X231048724Y-106307166D01*
X231034683Y-106303649D01*
X231021054Y-106298772D01*
X231007969Y-106292583D01*
X230995553Y-106285142D01*
X230983927Y-106276519D01*
X230973202Y-106266798D01*
X230963481Y-106256073D01*
X230954858Y-106244447D01*
X230947417Y-106232031D01*
X230941228Y-106218946D01*
X230936351Y-106205317D01*
X230932834Y-106191276D01*
X230930710Y-106176958D01*
X230930000Y-106162500D01*
X230930000Y-105867500D01*
X230930710Y-105853042D01*
X230932834Y-105838724D01*
X230936351Y-105824683D01*
X230941228Y-105811054D01*
X230947417Y-105797969D01*
X230954858Y-105785553D01*
X230963481Y-105773927D01*
X230973202Y-105763202D01*
X230983927Y-105753481D01*
X230995553Y-105744858D01*
X231007969Y-105737417D01*
X231021054Y-105731228D01*
X231034683Y-105726351D01*
X231048724Y-105722834D01*
X231063042Y-105720710D01*
X231077500Y-105720000D01*
X231422500Y-105720000D01*
X231436958Y-105720710D01*
X231436958Y-105720710D01*
G37*
D12*
G04 #@! TD*
G04 #@! TO.P,C5,2*
G04 #@! TO.N,GND*
X231250000Y-106015000D03*
D11*
G04 #@! TO.N,+1V1*
G04 #@! TO.C,C5*
G36*
X231436958Y-106690710D02*
X231451276Y-106692834D01*
X231465317Y-106696351D01*
X231478946Y-106701228D01*
X231492031Y-106707417D01*
X231504447Y-106714858D01*
X231516073Y-106723481D01*
X231526798Y-106733202D01*
X231536519Y-106743927D01*
X231545142Y-106755553D01*
X231552583Y-106767969D01*
X231558772Y-106781054D01*
X231563649Y-106794683D01*
X231567166Y-106808724D01*
X231569290Y-106823042D01*
X231570000Y-106837500D01*
X231570000Y-107132500D01*
X231569290Y-107146958D01*
X231567166Y-107161276D01*
X231563649Y-107175317D01*
X231558772Y-107188946D01*
X231552583Y-107202031D01*
X231545142Y-107214447D01*
X231536519Y-107226073D01*
X231526798Y-107236798D01*
X231516073Y-107246519D01*
X231504447Y-107255142D01*
X231492031Y-107262583D01*
X231478946Y-107268772D01*
X231465317Y-107273649D01*
X231451276Y-107277166D01*
X231436958Y-107279290D01*
X231422500Y-107280000D01*
X231077500Y-107280000D01*
X231063042Y-107279290D01*
X231048724Y-107277166D01*
X231034683Y-107273649D01*
X231021054Y-107268772D01*
X231007969Y-107262583D01*
X230995553Y-107255142D01*
X230983927Y-107246519D01*
X230973202Y-107236798D01*
X230963481Y-107226073D01*
X230954858Y-107214447D01*
X230947417Y-107202031D01*
X230941228Y-107188946D01*
X230936351Y-107175317D01*
X230932834Y-107161276D01*
X230930710Y-107146958D01*
X230930000Y-107132500D01*
X230930000Y-106837500D01*
X230930710Y-106823042D01*
X230932834Y-106808724D01*
X230936351Y-106794683D01*
X230941228Y-106781054D01*
X230947417Y-106767969D01*
X230954858Y-106755553D01*
X230963481Y-106743927D01*
X230973202Y-106733202D01*
X230983927Y-106723481D01*
X230995553Y-106714858D01*
X231007969Y-106707417D01*
X231021054Y-106701228D01*
X231034683Y-106696351D01*
X231048724Y-106692834D01*
X231063042Y-106690710D01*
X231077500Y-106690000D01*
X231422500Y-106690000D01*
X231436958Y-106690710D01*
X231436958Y-106690710D01*
G37*
D12*
G04 #@! TD*
G04 #@! TO.P,C5,1*
G04 #@! TO.N,+1V1*
X231250000Y-106985000D03*
D11*
G04 #@! TO.N,GND*
G04 #@! TO.C,C6*
G36*
X229146958Y-105680710D02*
X229161276Y-105682834D01*
X229175317Y-105686351D01*
X229188946Y-105691228D01*
X229202031Y-105697417D01*
X229214447Y-105704858D01*
X229226073Y-105713481D01*
X229236798Y-105723202D01*
X229246519Y-105733927D01*
X229255142Y-105745553D01*
X229262583Y-105757969D01*
X229268772Y-105771054D01*
X229273649Y-105784683D01*
X229277166Y-105798724D01*
X229279290Y-105813042D01*
X229280000Y-105827500D01*
X229280000Y-106172500D01*
X229279290Y-106186958D01*
X229277166Y-106201276D01*
X229273649Y-106215317D01*
X229268772Y-106228946D01*
X229262583Y-106242031D01*
X229255142Y-106254447D01*
X229246519Y-106266073D01*
X229236798Y-106276798D01*
X229226073Y-106286519D01*
X229214447Y-106295142D01*
X229202031Y-106302583D01*
X229188946Y-106308772D01*
X229175317Y-106313649D01*
X229161276Y-106317166D01*
X229146958Y-106319290D01*
X229132500Y-106320000D01*
X228837500Y-106320000D01*
X228823042Y-106319290D01*
X228808724Y-106317166D01*
X228794683Y-106313649D01*
X228781054Y-106308772D01*
X228767969Y-106302583D01*
X228755553Y-106295142D01*
X228743927Y-106286519D01*
X228733202Y-106276798D01*
X228723481Y-106266073D01*
X228714858Y-106254447D01*
X228707417Y-106242031D01*
X228701228Y-106228946D01*
X228696351Y-106215317D01*
X228692834Y-106201276D01*
X228690710Y-106186958D01*
X228690000Y-106172500D01*
X228690000Y-105827500D01*
X228690710Y-105813042D01*
X228692834Y-105798724D01*
X228696351Y-105784683D01*
X228701228Y-105771054D01*
X228707417Y-105757969D01*
X228714858Y-105745553D01*
X228723481Y-105733927D01*
X228733202Y-105723202D01*
X228743927Y-105713481D01*
X228755553Y-105704858D01*
X228767969Y-105697417D01*
X228781054Y-105691228D01*
X228794683Y-105686351D01*
X228808724Y-105682834D01*
X228823042Y-105680710D01*
X228837500Y-105680000D01*
X229132500Y-105680000D01*
X229146958Y-105680710D01*
X229146958Y-105680710D01*
G37*
D12*
G04 #@! TD*
G04 #@! TO.P,C6,2*
G04 #@! TO.N,GND*
X228985000Y-106000000D03*
D11*
G04 #@! TO.N,+3V3*
G04 #@! TO.C,C6*
G36*
X228176958Y-105680710D02*
X228191276Y-105682834D01*
X228205317Y-105686351D01*
X228218946Y-105691228D01*
X228232031Y-105697417D01*
X228244447Y-105704858D01*
X228256073Y-105713481D01*
X228266798Y-105723202D01*
X228276519Y-105733927D01*
X228285142Y-105745553D01*
X228292583Y-105757969D01*
X228298772Y-105771054D01*
X228303649Y-105784683D01*
X228307166Y-105798724D01*
X228309290Y-105813042D01*
X228310000Y-105827500D01*
X228310000Y-106172500D01*
X228309290Y-106186958D01*
X228307166Y-106201276D01*
X228303649Y-106215317D01*
X228298772Y-106228946D01*
X228292583Y-106242031D01*
X228285142Y-106254447D01*
X228276519Y-106266073D01*
X228266798Y-106276798D01*
X228256073Y-106286519D01*
X228244447Y-106295142D01*
X228232031Y-106302583D01*
X228218946Y-106308772D01*
X228205317Y-106313649D01*
X228191276Y-106317166D01*
X228176958Y-106319290D01*
X228162500Y-106320000D01*
X227867500Y-106320000D01*
X227853042Y-106319290D01*
X227838724Y-106317166D01*
X227824683Y-106313649D01*
X227811054Y-106308772D01*
X227797969Y-106302583D01*
X227785553Y-106295142D01*
X227773927Y-106286519D01*
X227763202Y-106276798D01*
X227753481Y-106266073D01*
X227744858Y-106254447D01*
X227737417Y-106242031D01*
X227731228Y-106228946D01*
X227726351Y-106215317D01*
X227722834Y-106201276D01*
X227720710Y-106186958D01*
X227720000Y-106172500D01*
X227720000Y-105827500D01*
X227720710Y-105813042D01*
X227722834Y-105798724D01*
X227726351Y-105784683D01*
X227731228Y-105771054D01*
X227737417Y-105757969D01*
X227744858Y-105745553D01*
X227753481Y-105733927D01*
X227763202Y-105723202D01*
X227773927Y-105713481D01*
X227785553Y-105704858D01*
X227797969Y-105697417D01*
X227811054Y-105691228D01*
X227824683Y-105686351D01*
X227838724Y-105682834D01*
X227853042Y-105680710D01*
X227867500Y-105680000D01*
X228162500Y-105680000D01*
X228176958Y-105680710D01*
X228176958Y-105680710D01*
G37*
D12*
G04 #@! TD*
G04 #@! TO.P,C6,1*
G04 #@! TO.N,+3V3*
X228015000Y-106000000D03*
D11*
G04 #@! TO.N,+1V1*
G04 #@! TO.C,C8*
G36*
X229436958Y-102720710D02*
X229451276Y-102722834D01*
X229465317Y-102726351D01*
X229478946Y-102731228D01*
X229492031Y-102737417D01*
X229504447Y-102744858D01*
X229516073Y-102753481D01*
X229526798Y-102763202D01*
X229536519Y-102773927D01*
X229545142Y-102785553D01*
X229552583Y-102797969D01*
X229558772Y-102811054D01*
X229563649Y-102824683D01*
X229567166Y-102838724D01*
X229569290Y-102853042D01*
X229570000Y-102867500D01*
X229570000Y-103162500D01*
X229569290Y-103176958D01*
X229567166Y-103191276D01*
X229563649Y-103205317D01*
X229558772Y-103218946D01*
X229552583Y-103232031D01*
X229545142Y-103244447D01*
X229536519Y-103256073D01*
X229526798Y-103266798D01*
X229516073Y-103276519D01*
X229504447Y-103285142D01*
X229492031Y-103292583D01*
X229478946Y-103298772D01*
X229465317Y-103303649D01*
X229451276Y-103307166D01*
X229436958Y-103309290D01*
X229422500Y-103310000D01*
X229077500Y-103310000D01*
X229063042Y-103309290D01*
X229048724Y-103307166D01*
X229034683Y-103303649D01*
X229021054Y-103298772D01*
X229007969Y-103292583D01*
X228995553Y-103285142D01*
X228983927Y-103276519D01*
X228973202Y-103266798D01*
X228963481Y-103256073D01*
X228954858Y-103244447D01*
X228947417Y-103232031D01*
X228941228Y-103218946D01*
X228936351Y-103205317D01*
X228932834Y-103191276D01*
X228930710Y-103176958D01*
X228930000Y-103162500D01*
X228930000Y-102867500D01*
X228930710Y-102853042D01*
X228932834Y-102838724D01*
X228936351Y-102824683D01*
X228941228Y-102811054D01*
X228947417Y-102797969D01*
X228954858Y-102785553D01*
X228963481Y-102773927D01*
X228973202Y-102763202D01*
X228983927Y-102753481D01*
X228995553Y-102744858D01*
X229007969Y-102737417D01*
X229021054Y-102731228D01*
X229034683Y-102726351D01*
X229048724Y-102722834D01*
X229063042Y-102720710D01*
X229077500Y-102720000D01*
X229422500Y-102720000D01*
X229436958Y-102720710D01*
X229436958Y-102720710D01*
G37*
D12*
G04 #@! TD*
G04 #@! TO.P,C8,1*
G04 #@! TO.N,+1V1*
X229250000Y-103015000D03*
D11*
G04 #@! TO.N,GND*
G04 #@! TO.C,C8*
G36*
X229436958Y-103690710D02*
X229451276Y-103692834D01*
X229465317Y-103696351D01*
X229478946Y-103701228D01*
X229492031Y-103707417D01*
X229504447Y-103714858D01*
X229516073Y-103723481D01*
X229526798Y-103733202D01*
X229536519Y-103743927D01*
X229545142Y-103755553D01*
X229552583Y-103767969D01*
X229558772Y-103781054D01*
X229563649Y-103794683D01*
X229567166Y-103808724D01*
X229569290Y-103823042D01*
X229570000Y-103837500D01*
X229570000Y-104132500D01*
X229569290Y-104146958D01*
X229567166Y-104161276D01*
X229563649Y-104175317D01*
X229558772Y-104188946D01*
X229552583Y-104202031D01*
X229545142Y-104214447D01*
X229536519Y-104226073D01*
X229526798Y-104236798D01*
X229516073Y-104246519D01*
X229504447Y-104255142D01*
X229492031Y-104262583D01*
X229478946Y-104268772D01*
X229465317Y-104273649D01*
X229451276Y-104277166D01*
X229436958Y-104279290D01*
X229422500Y-104280000D01*
X229077500Y-104280000D01*
X229063042Y-104279290D01*
X229048724Y-104277166D01*
X229034683Y-104273649D01*
X229021054Y-104268772D01*
X229007969Y-104262583D01*
X228995553Y-104255142D01*
X228983927Y-104246519D01*
X228973202Y-104236798D01*
X228963481Y-104226073D01*
X228954858Y-104214447D01*
X228947417Y-104202031D01*
X228941228Y-104188946D01*
X228936351Y-104175317D01*
X228932834Y-104161276D01*
X228930710Y-104146958D01*
X228930000Y-104132500D01*
X228930000Y-103837500D01*
X228930710Y-103823042D01*
X228932834Y-103808724D01*
X228936351Y-103794683D01*
X228941228Y-103781054D01*
X228947417Y-103767969D01*
X228954858Y-103755553D01*
X228963481Y-103743927D01*
X228973202Y-103733202D01*
X228983927Y-103723481D01*
X228995553Y-103714858D01*
X229007969Y-103707417D01*
X229021054Y-103701228D01*
X229034683Y-103696351D01*
X229048724Y-103692834D01*
X229063042Y-103690710D01*
X229077500Y-103690000D01*
X229422500Y-103690000D01*
X229436958Y-103690710D01*
X229436958Y-103690710D01*
G37*
D12*
G04 #@! TD*
G04 #@! TO.P,C8,2*
G04 #@! TO.N,GND*
X229250000Y-103985000D03*
D11*
G04 #@! TO.N,+3V3*
G04 #@! TO.C,C9*
G36*
X230936958Y-102720710D02*
X230951276Y-102722834D01*
X230965317Y-102726351D01*
X230978946Y-102731228D01*
X230992031Y-102737417D01*
X231004447Y-102744858D01*
X231016073Y-102753481D01*
X231026798Y-102763202D01*
X231036519Y-102773927D01*
X231045142Y-102785553D01*
X231052583Y-102797969D01*
X231058772Y-102811054D01*
X231063649Y-102824683D01*
X231067166Y-102838724D01*
X231069290Y-102853042D01*
X231070000Y-102867500D01*
X231070000Y-103162500D01*
X231069290Y-103176958D01*
X231067166Y-103191276D01*
X231063649Y-103205317D01*
X231058772Y-103218946D01*
X231052583Y-103232031D01*
X231045142Y-103244447D01*
X231036519Y-103256073D01*
X231026798Y-103266798D01*
X231016073Y-103276519D01*
X231004447Y-103285142D01*
X230992031Y-103292583D01*
X230978946Y-103298772D01*
X230965317Y-103303649D01*
X230951276Y-103307166D01*
X230936958Y-103309290D01*
X230922500Y-103310000D01*
X230577500Y-103310000D01*
X230563042Y-103309290D01*
X230548724Y-103307166D01*
X230534683Y-103303649D01*
X230521054Y-103298772D01*
X230507969Y-103292583D01*
X230495553Y-103285142D01*
X230483927Y-103276519D01*
X230473202Y-103266798D01*
X230463481Y-103256073D01*
X230454858Y-103244447D01*
X230447417Y-103232031D01*
X230441228Y-103218946D01*
X230436351Y-103205317D01*
X230432834Y-103191276D01*
X230430710Y-103176958D01*
X230430000Y-103162500D01*
X230430000Y-102867500D01*
X230430710Y-102853042D01*
X230432834Y-102838724D01*
X230436351Y-102824683D01*
X230441228Y-102811054D01*
X230447417Y-102797969D01*
X230454858Y-102785553D01*
X230463481Y-102773927D01*
X230473202Y-102763202D01*
X230483927Y-102753481D01*
X230495553Y-102744858D01*
X230507969Y-102737417D01*
X230521054Y-102731228D01*
X230534683Y-102726351D01*
X230548724Y-102722834D01*
X230563042Y-102720710D01*
X230577500Y-102720000D01*
X230922500Y-102720000D01*
X230936958Y-102720710D01*
X230936958Y-102720710D01*
G37*
D12*
G04 #@! TD*
G04 #@! TO.P,C9,1*
G04 #@! TO.N,+3V3*
X230750000Y-103015000D03*
D11*
G04 #@! TO.N,GND*
G04 #@! TO.C,C9*
G36*
X230936958Y-103690710D02*
X230951276Y-103692834D01*
X230965317Y-103696351D01*
X230978946Y-103701228D01*
X230992031Y-103707417D01*
X231004447Y-103714858D01*
X231016073Y-103723481D01*
X231026798Y-103733202D01*
X231036519Y-103743927D01*
X231045142Y-103755553D01*
X231052583Y-103767969D01*
X231058772Y-103781054D01*
X231063649Y-103794683D01*
X231067166Y-103808724D01*
X231069290Y-103823042D01*
X231070000Y-103837500D01*
X231070000Y-104132500D01*
X231069290Y-104146958D01*
X231067166Y-104161276D01*
X231063649Y-104175317D01*
X231058772Y-104188946D01*
X231052583Y-104202031D01*
X231045142Y-104214447D01*
X231036519Y-104226073D01*
X231026798Y-104236798D01*
X231016073Y-104246519D01*
X231004447Y-104255142D01*
X230992031Y-104262583D01*
X230978946Y-104268772D01*
X230965317Y-104273649D01*
X230951276Y-104277166D01*
X230936958Y-104279290D01*
X230922500Y-104280000D01*
X230577500Y-104280000D01*
X230563042Y-104279290D01*
X230548724Y-104277166D01*
X230534683Y-104273649D01*
X230521054Y-104268772D01*
X230507969Y-104262583D01*
X230495553Y-104255142D01*
X230483927Y-104246519D01*
X230473202Y-104236798D01*
X230463481Y-104226073D01*
X230454858Y-104214447D01*
X230447417Y-104202031D01*
X230441228Y-104188946D01*
X230436351Y-104175317D01*
X230432834Y-104161276D01*
X230430710Y-104146958D01*
X230430000Y-104132500D01*
X230430000Y-103837500D01*
X230430710Y-103823042D01*
X230432834Y-103808724D01*
X230436351Y-103794683D01*
X230441228Y-103781054D01*
X230447417Y-103767969D01*
X230454858Y-103755553D01*
X230463481Y-103743927D01*
X230473202Y-103733202D01*
X230483927Y-103723481D01*
X230495553Y-103714858D01*
X230507969Y-103707417D01*
X230521054Y-103701228D01*
X230534683Y-103696351D01*
X230548724Y-103692834D01*
X230563042Y-103690710D01*
X230577500Y-103690000D01*
X230922500Y-103690000D01*
X230936958Y-103690710D01*
X230936958Y-103690710D01*
G37*
D12*
G04 #@! TD*
G04 #@! TO.P,C9,2*
G04 #@! TO.N,GND*
X230750000Y-103985000D03*
D13*
G04 #@! TO.P,J1,6*
G04 #@! TO.N,GND*
X204162500Y-102500000D03*
X204162500Y-107500000D03*
D14*
X201462500Y-101500000D03*
X201462500Y-108500000D03*
G04 #@! TD*
D15*
G04 #@! TO.P,J3,1*
G04 #@! TO.N,/PMOD0_0*
X219710000Y-116840000D03*
D16*
G04 #@! TO.P,J3,2*
G04 #@! TO.N,/PMOD0_4*
X219710000Y-119380000D03*
G04 #@! TO.P,J3,3*
G04 #@! TO.N,/PMOD0_1*
X217170000Y-116840000D03*
G04 #@! TO.P,J3,4*
G04 #@! TO.N,/PMOD0_5*
X217170000Y-119380000D03*
G04 #@! TO.P,J3,5*
G04 #@! TO.N,/PMOD0_2*
X214630000Y-116840000D03*
G04 #@! TO.P,J3,6*
G04 #@! TO.N,/PMOD0_6*
X214630000Y-119380000D03*
G04 #@! TO.P,J3,7*
G04 #@! TO.N,/PMOD0_3*
X212090000Y-116840000D03*
G04 #@! TO.P,J3,8*
G04 #@! TO.N,/PMOD0_7*
X212090000Y-119380000D03*
G04 #@! TO.P,J3,9*
G04 #@! TO.N,GND*
X209550000Y-116840000D03*
G04 #@! TO.P,J3,10*
X209550000Y-119380000D03*
G04 #@! TO.P,J3,11*
G04 #@! TO.N,+3V3*
X207010000Y-116840000D03*
G04 #@! TO.P,J3,12*
X207010000Y-119380000D03*
G04 #@! TD*
G04 #@! TO.P,J4,12*
G04 #@! TO.N,+3V3*
X229870000Y-119380000D03*
G04 #@! TO.P,J4,11*
X229870000Y-116840000D03*
G04 #@! TO.P,J4,10*
G04 #@! TO.N,GND*
X232410000Y-119380000D03*
G04 #@! TO.P,J4,9*
X232410000Y-116840000D03*
G04 #@! TO.P,J4,8*
G04 #@! TO.N,/PMOD1_7*
X234950000Y-119380000D03*
G04 #@! TO.P,J4,7*
G04 #@! TO.N,/PMOD1_3*
X234950000Y-116840000D03*
G04 #@! TO.P,J4,6*
G04 #@! TO.N,/PMOD1_6*
X237490000Y-119380000D03*
G04 #@! TO.P,J4,5*
G04 #@! TO.N,/PMOD1_2*
X237490000Y-116840000D03*
G04 #@! TO.P,J4,4*
G04 #@! TO.N,/PMOD1_5*
X240030000Y-119380000D03*
G04 #@! TO.P,J4,3*
G04 #@! TO.N,/PMOD1_1*
X240030000Y-116840000D03*
G04 #@! TO.P,J4,2*
G04 #@! TO.N,/PMOD1_4*
X242570000Y-119380000D03*
D15*
G04 #@! TO.P,J4,1*
G04 #@! TO.N,/PMOD1_0*
X242570000Y-116840000D03*
G04 #@! TD*
D11*
G04 #@! TO.N,+3V3*
G04 #@! TO.C,R7*
G36*
X236186958Y-110440710D02*
X236201276Y-110442834D01*
X236215317Y-110446351D01*
X236228946Y-110451228D01*
X236242031Y-110457417D01*
X236254447Y-110464858D01*
X236266073Y-110473481D01*
X236276798Y-110483202D01*
X236286519Y-110493927D01*
X236295142Y-110505553D01*
X236302583Y-110517969D01*
X236308772Y-110531054D01*
X236313649Y-110544683D01*
X236317166Y-110558724D01*
X236319290Y-110573042D01*
X236320000Y-110587500D01*
X236320000Y-110882500D01*
X236319290Y-110896958D01*
X236317166Y-110911276D01*
X236313649Y-110925317D01*
X236308772Y-110938946D01*
X236302583Y-110952031D01*
X236295142Y-110964447D01*
X236286519Y-110976073D01*
X236276798Y-110986798D01*
X236266073Y-110996519D01*
X236254447Y-111005142D01*
X236242031Y-111012583D01*
X236228946Y-111018772D01*
X236215317Y-111023649D01*
X236201276Y-111027166D01*
X236186958Y-111029290D01*
X236172500Y-111030000D01*
X235827500Y-111030000D01*
X235813042Y-111029290D01*
X235798724Y-111027166D01*
X235784683Y-111023649D01*
X235771054Y-111018772D01*
X235757969Y-111012583D01*
X235745553Y-111005142D01*
X235733927Y-110996519D01*
X235723202Y-110986798D01*
X235713481Y-110976073D01*
X235704858Y-110964447D01*
X235697417Y-110952031D01*
X235691228Y-110938946D01*
X235686351Y-110925317D01*
X235682834Y-110911276D01*
X235680710Y-110896958D01*
X235680000Y-110882500D01*
X235680000Y-110587500D01*
X235680710Y-110573042D01*
X235682834Y-110558724D01*
X235686351Y-110544683D01*
X235691228Y-110531054D01*
X235697417Y-110517969D01*
X235704858Y-110505553D01*
X235713481Y-110493927D01*
X235723202Y-110483202D01*
X235733927Y-110473481D01*
X235745553Y-110464858D01*
X235757969Y-110457417D01*
X235771054Y-110451228D01*
X235784683Y-110446351D01*
X235798724Y-110442834D01*
X235813042Y-110440710D01*
X235827500Y-110440000D01*
X236172500Y-110440000D01*
X236186958Y-110440710D01*
X236186958Y-110440710D01*
G37*
D12*
G04 #@! TD*
G04 #@! TO.P,R7,1*
G04 #@! TO.N,+3V3*
X236000000Y-110735000D03*
D11*
G04 #@! TO.N,/uC_DVI_CEC*
G04 #@! TO.C,R7*
G36*
X236186958Y-109470710D02*
X236201276Y-109472834D01*
X236215317Y-109476351D01*
X236228946Y-109481228D01*
X236242031Y-109487417D01*
X236254447Y-109494858D01*
X236266073Y-109503481D01*
X236276798Y-109513202D01*
X236286519Y-109523927D01*
X236295142Y-109535553D01*
X236302583Y-109547969D01*
X236308772Y-109561054D01*
X236313649Y-109574683D01*
X236317166Y-109588724D01*
X236319290Y-109603042D01*
X236320000Y-109617500D01*
X236320000Y-109912500D01*
X236319290Y-109926958D01*
X236317166Y-109941276D01*
X236313649Y-109955317D01*
X236308772Y-109968946D01*
X236302583Y-109982031D01*
X236295142Y-109994447D01*
X236286519Y-110006073D01*
X236276798Y-110016798D01*
X236266073Y-110026519D01*
X236254447Y-110035142D01*
X236242031Y-110042583D01*
X236228946Y-110048772D01*
X236215317Y-110053649D01*
X236201276Y-110057166D01*
X236186958Y-110059290D01*
X236172500Y-110060000D01*
X235827500Y-110060000D01*
X235813042Y-110059290D01*
X235798724Y-110057166D01*
X235784683Y-110053649D01*
X235771054Y-110048772D01*
X235757969Y-110042583D01*
X235745553Y-110035142D01*
X235733927Y-110026519D01*
X235723202Y-110016798D01*
X235713481Y-110006073D01*
X235704858Y-109994447D01*
X235697417Y-109982031D01*
X235691228Y-109968946D01*
X235686351Y-109955317D01*
X235682834Y-109941276D01*
X235680710Y-109926958D01*
X235680000Y-109912500D01*
X235680000Y-109617500D01*
X235680710Y-109603042D01*
X235682834Y-109588724D01*
X235686351Y-109574683D01*
X235691228Y-109561054D01*
X235697417Y-109547969D01*
X235704858Y-109535553D01*
X235713481Y-109523927D01*
X235723202Y-109513202D01*
X235733927Y-109503481D01*
X235745553Y-109494858D01*
X235757969Y-109487417D01*
X235771054Y-109481228D01*
X235784683Y-109476351D01*
X235798724Y-109472834D01*
X235813042Y-109470710D01*
X235827500Y-109470000D01*
X236172500Y-109470000D01*
X236186958Y-109470710D01*
X236186958Y-109470710D01*
G37*
D12*
G04 #@! TD*
G04 #@! TO.P,R7,2*
G04 #@! TO.N,/uC_DVI_CEC*
X236000000Y-109765000D03*
D11*
G04 #@! TO.N,VBUS*
G04 #@! TO.C,R8*
G36*
X237436958Y-110440710D02*
X237451276Y-110442834D01*
X237465317Y-110446351D01*
X237478946Y-110451228D01*
X237492031Y-110457417D01*
X237504447Y-110464858D01*
X237516073Y-110473481D01*
X237526798Y-110483202D01*
X237536519Y-110493927D01*
X237545142Y-110505553D01*
X237552583Y-110517969D01*
X237558772Y-110531054D01*
X237563649Y-110544683D01*
X237567166Y-110558724D01*
X237569290Y-110573042D01*
X237570000Y-110587500D01*
X237570000Y-110882500D01*
X237569290Y-110896958D01*
X237567166Y-110911276D01*
X237563649Y-110925317D01*
X237558772Y-110938946D01*
X237552583Y-110952031D01*
X237545142Y-110964447D01*
X237536519Y-110976073D01*
X237526798Y-110986798D01*
X237516073Y-110996519D01*
X237504447Y-111005142D01*
X237492031Y-111012583D01*
X237478946Y-111018772D01*
X237465317Y-111023649D01*
X237451276Y-111027166D01*
X237436958Y-111029290D01*
X237422500Y-111030000D01*
X237077500Y-111030000D01*
X237063042Y-111029290D01*
X237048724Y-111027166D01*
X237034683Y-111023649D01*
X237021054Y-111018772D01*
X237007969Y-111012583D01*
X236995553Y-111005142D01*
X236983927Y-110996519D01*
X236973202Y-110986798D01*
X236963481Y-110976073D01*
X236954858Y-110964447D01*
X236947417Y-110952031D01*
X236941228Y-110938946D01*
X236936351Y-110925317D01*
X236932834Y-110911276D01*
X236930710Y-110896958D01*
X236930000Y-110882500D01*
X236930000Y-110587500D01*
X236930710Y-110573042D01*
X236932834Y-110558724D01*
X236936351Y-110544683D01*
X236941228Y-110531054D01*
X236947417Y-110517969D01*
X236954858Y-110505553D01*
X236963481Y-110493927D01*
X236973202Y-110483202D01*
X236983927Y-110473481D01*
X236995553Y-110464858D01*
X237007969Y-110457417D01*
X237021054Y-110451228D01*
X237034683Y-110446351D01*
X237048724Y-110442834D01*
X237063042Y-110440710D01*
X237077500Y-110440000D01*
X237422500Y-110440000D01*
X237436958Y-110440710D01*
X237436958Y-110440710D01*
G37*
D12*
G04 #@! TD*
G04 #@! TO.P,R8,1*
G04 #@! TO.N,VBUS*
X237250000Y-110735000D03*
D11*
G04 #@! TO.N,/uC_DVI_SCL*
G04 #@! TO.C,R8*
G36*
X237436958Y-109470710D02*
X237451276Y-109472834D01*
X237465317Y-109476351D01*
X237478946Y-109481228D01*
X237492031Y-109487417D01*
X237504447Y-109494858D01*
X237516073Y-109503481D01*
X237526798Y-109513202D01*
X237536519Y-109523927D01*
X237545142Y-109535553D01*
X237552583Y-109547969D01*
X237558772Y-109561054D01*
X237563649Y-109574683D01*
X237567166Y-109588724D01*
X237569290Y-109603042D01*
X237570000Y-109617500D01*
X237570000Y-109912500D01*
X237569290Y-109926958D01*
X237567166Y-109941276D01*
X237563649Y-109955317D01*
X237558772Y-109968946D01*
X237552583Y-109982031D01*
X237545142Y-109994447D01*
X237536519Y-110006073D01*
X237526798Y-110016798D01*
X237516073Y-110026519D01*
X237504447Y-110035142D01*
X237492031Y-110042583D01*
X237478946Y-110048772D01*
X237465317Y-110053649D01*
X237451276Y-110057166D01*
X237436958Y-110059290D01*
X237422500Y-110060000D01*
X237077500Y-110060000D01*
X237063042Y-110059290D01*
X237048724Y-110057166D01*
X237034683Y-110053649D01*
X237021054Y-110048772D01*
X237007969Y-110042583D01*
X236995553Y-110035142D01*
X236983927Y-110026519D01*
X236973202Y-110016798D01*
X236963481Y-110006073D01*
X236954858Y-109994447D01*
X236947417Y-109982031D01*
X236941228Y-109968946D01*
X236936351Y-109955317D01*
X236932834Y-109941276D01*
X236930710Y-109926958D01*
X236930000Y-109912500D01*
X236930000Y-109617500D01*
X236930710Y-109603042D01*
X236932834Y-109588724D01*
X236936351Y-109574683D01*
X236941228Y-109561054D01*
X236947417Y-109547969D01*
X236954858Y-109535553D01*
X236963481Y-109523927D01*
X236973202Y-109513202D01*
X236983927Y-109503481D01*
X236995553Y-109494858D01*
X237007969Y-109487417D01*
X237021054Y-109481228D01*
X237034683Y-109476351D01*
X237048724Y-109472834D01*
X237063042Y-109470710D01*
X237077500Y-109470000D01*
X237422500Y-109470000D01*
X237436958Y-109470710D01*
X237436958Y-109470710D01*
G37*
D12*
G04 #@! TD*
G04 #@! TO.P,R8,2*
G04 #@! TO.N,/uC_DVI_SCL*
X237250000Y-109765000D03*
D11*
G04 #@! TO.N,VBUS*
G04 #@! TO.C,R9*
G36*
X238686958Y-110440710D02*
X238701276Y-110442834D01*
X238715317Y-110446351D01*
X238728946Y-110451228D01*
X238742031Y-110457417D01*
X238754447Y-110464858D01*
X238766073Y-110473481D01*
X238776798Y-110483202D01*
X238786519Y-110493927D01*
X238795142Y-110505553D01*
X238802583Y-110517969D01*
X238808772Y-110531054D01*
X238813649Y-110544683D01*
X238817166Y-110558724D01*
X238819290Y-110573042D01*
X238820000Y-110587500D01*
X238820000Y-110882500D01*
X238819290Y-110896958D01*
X238817166Y-110911276D01*
X238813649Y-110925317D01*
X238808772Y-110938946D01*
X238802583Y-110952031D01*
X238795142Y-110964447D01*
X238786519Y-110976073D01*
X238776798Y-110986798D01*
X238766073Y-110996519D01*
X238754447Y-111005142D01*
X238742031Y-111012583D01*
X238728946Y-111018772D01*
X238715317Y-111023649D01*
X238701276Y-111027166D01*
X238686958Y-111029290D01*
X238672500Y-111030000D01*
X238327500Y-111030000D01*
X238313042Y-111029290D01*
X238298724Y-111027166D01*
X238284683Y-111023649D01*
X238271054Y-111018772D01*
X238257969Y-111012583D01*
X238245553Y-111005142D01*
X238233927Y-110996519D01*
X238223202Y-110986798D01*
X238213481Y-110976073D01*
X238204858Y-110964447D01*
X238197417Y-110952031D01*
X238191228Y-110938946D01*
X238186351Y-110925317D01*
X238182834Y-110911276D01*
X238180710Y-110896958D01*
X238180000Y-110882500D01*
X238180000Y-110587500D01*
X238180710Y-110573042D01*
X238182834Y-110558724D01*
X238186351Y-110544683D01*
X238191228Y-110531054D01*
X238197417Y-110517969D01*
X238204858Y-110505553D01*
X238213481Y-110493927D01*
X238223202Y-110483202D01*
X238233927Y-110473481D01*
X238245553Y-110464858D01*
X238257969Y-110457417D01*
X238271054Y-110451228D01*
X238284683Y-110446351D01*
X238298724Y-110442834D01*
X238313042Y-110440710D01*
X238327500Y-110440000D01*
X238672500Y-110440000D01*
X238686958Y-110440710D01*
X238686958Y-110440710D01*
G37*
D12*
G04 #@! TD*
G04 #@! TO.P,R9,1*
G04 #@! TO.N,VBUS*
X238500000Y-110735000D03*
D11*
G04 #@! TO.N,/uC_DVI_SDA*
G04 #@! TO.C,R9*
G36*
X238686958Y-109470710D02*
X238701276Y-109472834D01*
X238715317Y-109476351D01*
X238728946Y-109481228D01*
X238742031Y-109487417D01*
X238754447Y-109494858D01*
X238766073Y-109503481D01*
X238776798Y-109513202D01*
X238786519Y-109523927D01*
X238795142Y-109535553D01*
X238802583Y-109547969D01*
X238808772Y-109561054D01*
X238813649Y-109574683D01*
X238817166Y-109588724D01*
X238819290Y-109603042D01*
X238820000Y-109617500D01*
X238820000Y-109912500D01*
X238819290Y-109926958D01*
X238817166Y-109941276D01*
X238813649Y-109955317D01*
X238808772Y-109968946D01*
X238802583Y-109982031D01*
X238795142Y-109994447D01*
X238786519Y-110006073D01*
X238776798Y-110016798D01*
X238766073Y-110026519D01*
X238754447Y-110035142D01*
X238742031Y-110042583D01*
X238728946Y-110048772D01*
X238715317Y-110053649D01*
X238701276Y-110057166D01*
X238686958Y-110059290D01*
X238672500Y-110060000D01*
X238327500Y-110060000D01*
X238313042Y-110059290D01*
X238298724Y-110057166D01*
X238284683Y-110053649D01*
X238271054Y-110048772D01*
X238257969Y-110042583D01*
X238245553Y-110035142D01*
X238233927Y-110026519D01*
X238223202Y-110016798D01*
X238213481Y-110006073D01*
X238204858Y-109994447D01*
X238197417Y-109982031D01*
X238191228Y-109968946D01*
X238186351Y-109955317D01*
X238182834Y-109941276D01*
X238180710Y-109926958D01*
X238180000Y-109912500D01*
X238180000Y-109617500D01*
X238180710Y-109603042D01*
X238182834Y-109588724D01*
X238186351Y-109574683D01*
X238191228Y-109561054D01*
X238197417Y-109547969D01*
X238204858Y-109535553D01*
X238213481Y-109523927D01*
X238223202Y-109513202D01*
X238233927Y-109503481D01*
X238245553Y-109494858D01*
X238257969Y-109487417D01*
X238271054Y-109481228D01*
X238284683Y-109476351D01*
X238298724Y-109472834D01*
X238313042Y-109470710D01*
X238327500Y-109470000D01*
X238672500Y-109470000D01*
X238686958Y-109470710D01*
X238686958Y-109470710D01*
G37*
D12*
G04 #@! TD*
G04 #@! TO.P,R9,2*
G04 #@! TO.N,/uC_DVI_SDA*
X238500000Y-109765000D03*
D15*
G04 #@! TO.P,J6,1*
G04 #@! TO.N,VBUS*
X224925056Y-119830226D03*
D16*
G04 #@! TO.P,J6,2*
G04 #@! TO.N,GND*
X224925056Y-122370226D03*
G04 #@! TD*
D15*
G04 #@! TO.P,J2,1*
G04 #@! TO.N,/UART_RX*
X232840000Y-87500000D03*
D16*
G04 #@! TO.P,J2,2*
G04 #@! TO.N,/UART_TX*
X235380000Y-87500000D03*
G04 #@! TO.P,J2,3*
G04 #@! TO.N,/SWCLK*
X237920000Y-87500000D03*
G04 #@! TO.P,J2,4*
G04 #@! TO.N,/SWDIO*
X240460000Y-87500000D03*
G04 #@! TO.P,J2,5*
G04 #@! TO.N,GND*
X243000000Y-87500000D03*
G04 #@! TD*
D17*
G04 #@! TO.N,+3V3*
X215500000Y-103600000D03*
D18*
X230600000Y-102300000D03*
X226800000Y-108300000D03*
X233250000Y-108250000D03*
X233200000Y-101800000D03*
X227300000Y-106000000D03*
X226774295Y-101950010D03*
D17*
X227800000Y-117000000D03*
D18*
X230063495Y-107704760D03*
X232625000Y-102375000D03*
X214250000Y-96200000D03*
X204500000Y-99500000D03*
X236000000Y-111750000D03*
X232140000Y-105520000D03*
D17*
X216800000Y-104200000D03*
D18*
X226400000Y-93400000D03*
X227000000Y-93400000D03*
X219300000Y-99200000D03*
G04 #@! TO.N,GND*
X205000000Y-86000000D03*
X234760000Y-113790000D03*
D17*
X216800000Y-105700000D03*
D18*
X229750000Y-105250000D03*
X230250000Y-104750000D03*
X232300000Y-100500000D03*
X220300000Y-102100000D03*
X225200000Y-102100000D03*
D17*
X215500000Y-106400000D03*
D18*
X229250000Y-111150000D03*
X233580000Y-110150000D03*
D17*
X209500000Y-106400000D03*
X204000000Y-116500000D03*
X203000000Y-117500000D03*
X228346000Y-119634000D03*
X227000000Y-116600000D03*
D18*
X230250000Y-105250000D03*
X229750000Y-104750000D03*
X235250000Y-100150000D03*
X223200000Y-104350000D03*
X220200000Y-96200000D03*
X201000000Y-90000000D03*
X201000000Y-120000000D03*
X205000000Y-124000000D03*
X245000000Y-124000000D03*
X249000000Y-120000000D03*
X245000000Y-86000000D03*
X249000000Y-90000000D03*
X215850000Y-91100000D03*
X226100000Y-108200000D03*
X240800000Y-118100000D03*
X224600000Y-115100000D03*
X224790000Y-118364000D03*
X215300000Y-121000000D03*
X232000000Y-110700000D03*
X243000000Y-100750000D03*
X243000000Y-102250000D03*
X243000000Y-103750000D03*
X243000000Y-105250000D03*
X243000000Y-108250000D03*
X223600000Y-93400000D03*
X226100000Y-110400000D03*
X231100000Y-87500000D03*
X240050000Y-99675000D03*
X233581794Y-108818206D03*
X217900000Y-97000000D03*
X240400000Y-105250000D03*
X240400000Y-103750000D03*
X240400000Y-102250000D03*
X240400000Y-100750000D03*
X218160000Y-91040000D03*
X228265694Y-89534306D03*
X230449990Y-98000000D03*
X232660000Y-105000000D03*
X239850000Y-108500000D03*
X241300000Y-115350000D03*
X239800000Y-106200000D03*
X237520000Y-106050000D03*
X235530000Y-107630000D03*
D17*
X212550000Y-105300000D03*
X205600000Y-105750000D03*
X205600000Y-106600000D03*
X207450000Y-104650000D03*
D18*
X234300000Y-101150000D03*
X225500000Y-95400000D03*
X225500000Y-98600000D03*
X223400000Y-97000000D03*
X227600000Y-97000000D03*
X230500000Y-100500000D03*
X223000000Y-93400000D03*
X215850000Y-94150000D03*
G04 #@! TO.N,+1V1*
X230000000Y-102900000D03*
X231500000Y-102900000D03*
X230700000Y-107500000D03*
D17*
G04 #@! TO.N,VBUS*
X209500000Y-103650000D03*
D18*
X240316085Y-108929311D03*
X237250000Y-111750000D03*
X238500000Y-111750000D03*
G04 #@! TO.N,/SWCLK*
X230825740Y-109317935D03*
G04 #@! TO.N,/SWDIO*
X231420028Y-109235259D03*
G04 #@! TO.N,/PMOD0_4*
X222149968Y-116800000D03*
G04 #@! TO.N,/PMOD1_7*
X228072750Y-110500009D03*
G04 #@! TO.N,/PMOD1_6*
X227151957Y-110385519D03*
G04 #@! TO.N,/PMOD1_5*
X226799434Y-109899987D03*
G04 #@! TO.N,/PMOD1_4*
X226136142Y-109599976D03*
G04 #@! TO.N,/RUN_~RST~*
X231924993Y-109559333D03*
X212306797Y-96950010D03*
G04 #@! TO.N,/UART_RX*
X233104754Y-109342833D03*
X237200000Y-90250000D03*
G04 #@! TO.N,/UART_TX*
X232570132Y-109615217D03*
X237793209Y-89642380D03*
G04 #@! TO.N,/USER_LED_BUTTON*
X205000000Y-94000000D03*
X232792998Y-106437529D03*
G04 #@! TO.N,/uC_DVI_SCL*
X237250000Y-108740000D03*
G04 #@! TO.N,/uC_DVI_SDA*
X238494268Y-109190010D03*
G04 #@! TO.N,/uC_DVI_CEC*
X236000000Y-108224999D03*
G04 #@! TD*
D19*
G04 #@! TO.N,+3V3*
X228015000Y-106000000D02*
X227300000Y-106000000D01*
X230750000Y-102450000D02*
X230600000Y-102300000D01*
X230750000Y-103015000D02*
X230750000Y-102450000D01*
X230000000Y-107641265D02*
X230063495Y-107704760D01*
X230000000Y-106985000D02*
X230000000Y-107641265D01*
X231900000Y-104950000D02*
X231900000Y-105090000D01*
X231885000Y-105000000D02*
X231885000Y-105235000D01*
D20*
X235990000Y-110745000D02*
X236000000Y-110735000D01*
X236000000Y-110735000D02*
X236000000Y-111750000D01*
D21*
X231885000Y-105235000D02*
X231885000Y-105265000D01*
X231915001Y-105295001D02*
X232140000Y-105520000D01*
X231885000Y-105265000D02*
X231915001Y-105295001D01*
D22*
G04 #@! TO.N,GND*
X231235000Y-106000000D02*
X231250000Y-106015000D01*
X228985000Y-106000000D02*
X231235000Y-106000000D01*
X230000000Y-105500000D02*
X229750000Y-105250000D01*
X230000000Y-106015000D02*
X230000000Y-105500000D01*
X232660000Y-104395000D02*
X232660000Y-105000000D01*
X232250000Y-103985000D02*
X232660000Y-104395000D01*
D19*
G04 #@! TO.N,+1V1*
X229250000Y-103015000D02*
X229885000Y-103015000D01*
X229885000Y-103015000D02*
X230000000Y-102900000D01*
X232250000Y-103015000D02*
X231615000Y-103015000D01*
X231615000Y-103015000D02*
X231500000Y-102900000D01*
X231250000Y-106985000D02*
X231215000Y-106985000D01*
X231215000Y-106985000D02*
X230700000Y-107500000D01*
D20*
G04 #@! TO.N,VBUS*
X237250000Y-110735000D02*
X237250000Y-111750000D01*
X238500000Y-110735000D02*
X238500000Y-111750000D01*
G04 #@! TO.N,/SWCLK*
X236149977Y-89270023D02*
X236149977Y-103759833D01*
X237920000Y-87500000D02*
X236149977Y-89270023D01*
X233009844Y-106899966D02*
X232661195Y-106899966D01*
X236149977Y-103759833D02*
X233009844Y-106899966D01*
X230825740Y-108735421D02*
X230825740Y-108999737D01*
X232661195Y-106899966D02*
X230825740Y-108735421D01*
X230825740Y-108999737D02*
X230825740Y-109317935D01*
G04 #@! TO.N,/SWDIO*
X231420028Y-108917061D02*
X231420028Y-109235259D01*
X232785463Y-107199977D02*
X231420028Y-108565412D01*
X239150000Y-88810000D02*
X237549719Y-88810000D01*
X231420028Y-108565412D02*
X231420028Y-108917061D01*
X237549719Y-88810000D02*
X236449988Y-89909731D01*
X240460000Y-87500000D02*
X239150000Y-88810000D01*
X236449988Y-89909731D02*
X236449988Y-103884101D01*
X233134112Y-107199977D02*
X232785463Y-107199977D01*
X236449988Y-103884101D02*
X233134112Y-107199977D01*
G04 #@! TO.N,/PMOD0_4*
X222149968Y-116940032D02*
X222149968Y-116800000D01*
X219710000Y-119380000D02*
X222149968Y-116940032D01*
G04 #@! TO.N,/PMOD1_7*
X233485001Y-114735001D02*
X229250009Y-110500009D01*
X234950000Y-119380000D02*
X233485001Y-117915001D01*
X229250009Y-110500009D02*
X228390948Y-110500009D01*
X228390948Y-110500009D02*
X228072750Y-110500009D01*
X233485001Y-117915001D02*
X233485001Y-114735001D01*
G04 #@! TO.N,/PMOD1_6*
X227376956Y-110160520D02*
X227151957Y-110385519D01*
X236414999Y-118304999D02*
X236414999Y-116468559D01*
X236414999Y-116468559D02*
X235546462Y-115600022D01*
X237490000Y-119380000D02*
X236414999Y-118304999D01*
X234774301Y-115600022D02*
X229224278Y-110049999D01*
X235546462Y-115600022D02*
X234774301Y-115600022D01*
X227487477Y-110049999D02*
X227376956Y-110160520D01*
X229224278Y-110049999D02*
X227487477Y-110049999D01*
G04 #@! TO.N,/PMOD1_5*
X229348546Y-109749988D02*
X227267631Y-109749988D01*
X234898569Y-115300011D02*
X229348546Y-109749988D01*
X237541013Y-115300011D02*
X234898569Y-115300011D01*
X238954999Y-116713997D02*
X237541013Y-115300011D01*
X227117632Y-109899987D02*
X226799434Y-109899987D01*
X238954999Y-118304999D02*
X238954999Y-116713997D01*
X240030000Y-119380000D02*
X238954999Y-118304999D01*
X227267631Y-109749988D02*
X227117632Y-109899987D01*
G04 #@! TO.N,/PMOD1_4*
X242570000Y-119380000D02*
X241494999Y-118304999D01*
X241494999Y-116713997D02*
X239781002Y-115000000D01*
X229397814Y-109374977D02*
X226361141Y-109374977D01*
X235022837Y-115000000D02*
X229397814Y-109374977D01*
X226361141Y-109374977D02*
X226136142Y-109599976D01*
X239781002Y-115000000D02*
X235022837Y-115000000D01*
X241494999Y-118304999D02*
X241494999Y-116713997D01*
G04 #@! TO.N,/RUN_~RST~*
X231699994Y-109784332D02*
X230655725Y-109784332D01*
X230655725Y-109784332D02*
X229921405Y-109050012D01*
X231924993Y-109559333D02*
X231699994Y-109784332D01*
X212531796Y-97175009D02*
X212306797Y-96950010D01*
X212675009Y-97175009D02*
X212531796Y-97175009D01*
X229921405Y-109050012D02*
X224550012Y-109050012D01*
X224550012Y-109050012D02*
X212675009Y-97175009D01*
G04 #@! TO.N,/UART_RX*
X232799999Y-109038078D02*
X232799999Y-108033999D01*
X233466001Y-107799999D02*
X237200000Y-104066000D01*
X237200000Y-104066000D02*
X237200000Y-90568198D01*
X233104754Y-109342833D02*
X232799999Y-109038078D01*
X233033999Y-107799999D02*
X233466001Y-107799999D01*
X237200000Y-90568198D02*
X237200000Y-90250000D01*
X232799999Y-108033999D02*
X233033999Y-107799999D01*
G04 #@! TO.N,/UART_TX*
X237475011Y-89642380D02*
X237793209Y-89642380D01*
X237141618Y-89642380D02*
X237475011Y-89642380D01*
X236749999Y-104008369D02*
X236749999Y-90033999D01*
X232570132Y-109251934D02*
X232400000Y-109081802D01*
X233258380Y-107499988D02*
X236749999Y-104008369D01*
X232400000Y-109081802D02*
X232400000Y-108009719D01*
X232570132Y-109615217D02*
X232570132Y-109251934D01*
X232400000Y-108009719D02*
X232909731Y-107499988D01*
X236749999Y-90033999D02*
X237141618Y-89642380D01*
X232909731Y-107499988D02*
X233258380Y-107499988D01*
G04 #@! TO.N,/USER_LED_BUTTON*
X232681810Y-106400000D02*
X232790002Y-106400000D01*
X210000000Y-94000000D02*
X224750000Y-108750000D01*
X205000000Y-94000000D02*
X210000000Y-94000000D01*
X224750000Y-108750000D02*
X230230000Y-108750000D01*
X231576800Y-107505010D02*
X232681810Y-106400000D01*
X230230000Y-108750000D02*
X231474990Y-107505010D01*
X231474990Y-107505010D02*
X231576800Y-107505010D01*
G04 #@! TO.N,/uC_DVI_SCL*
X237250000Y-109750000D02*
X237250000Y-108740000D01*
G04 #@! TO.N,/uC_DVI_SDA*
X238500000Y-109765000D02*
X238500000Y-109195742D01*
X238500000Y-109195742D02*
X238494268Y-109190010D01*
G04 #@! TO.N,/uC_DVI_CEC*
X236000000Y-109765000D02*
X236000000Y-108224999D01*
G04 #@! TD*
D23*
G04 #@! TO.N,GND*
G36*
X247192645Y-85400000D02*
X247082284Y-85400000D01*
X246310446Y-85719706D01*
X245719706Y-86310446D01*
X245400000Y-87082284D01*
X245400000Y-87917716D01*
X245719706Y-88689554D01*
X246310446Y-89280294D01*
X247082284Y-89600000D01*
X247917716Y-89600000D01*
X248689554Y-89280294D01*
X249280294Y-88689554D01*
X249600000Y-87917716D01*
X249600000Y-87736576D01*
X249625000Y-88016697D01*
X249625001Y-121978205D01*
X249600000Y-122192644D01*
X249600000Y-122082284D01*
X249280294Y-121310446D01*
X248689554Y-120719706D01*
X247917716Y-120400000D01*
X247082284Y-120400000D01*
X246310446Y-120719706D01*
X245719706Y-121310446D01*
X245400000Y-122082284D01*
X245400000Y-122917716D01*
X245719706Y-123689554D01*
X246310446Y-124280294D01*
X247082284Y-124600000D01*
X247263425Y-124600000D01*
X246983304Y-124625000D01*
X203021787Y-124625000D01*
X202807356Y-124600000D01*
X202917716Y-124600000D01*
X203689554Y-124280294D01*
X204280294Y-123689554D01*
X204600000Y-122917716D01*
X204600000Y-122582599D01*
X223743998Y-122582599D01*
X223752627Y-122625992D01*
X223939750Y-123055192D01*
X224276877Y-123380112D01*
X224712683Y-123551286D01*
X224900056Y-123482468D01*
X224900056Y-122395226D01*
X224950056Y-122395226D01*
X224950056Y-123482468D01*
X225137429Y-123551286D01*
X225573235Y-123380112D01*
X225910362Y-123055192D01*
X226097485Y-122625992D01*
X226106114Y-122582599D01*
X226037275Y-122395226D01*
X224950056Y-122395226D01*
X224900056Y-122395226D01*
X223812837Y-122395226D01*
X223743998Y-122582599D01*
X204600000Y-122582599D01*
X204600000Y-122157853D01*
X223743998Y-122157853D01*
X223812837Y-122345226D01*
X224900056Y-122345226D01*
X224900056Y-121257984D01*
X224950056Y-121257984D01*
X224950056Y-122345226D01*
X226037275Y-122345226D01*
X226106114Y-122157853D01*
X226097485Y-122114460D01*
X225910362Y-121685260D01*
X225573235Y-121360340D01*
X225137429Y-121189166D01*
X224950056Y-121257984D01*
X224900056Y-121257984D01*
X224712683Y-121189166D01*
X224276877Y-121360340D01*
X223939750Y-121685260D01*
X223752627Y-122114460D01*
X223743998Y-122157853D01*
X204600000Y-122157853D01*
X204600000Y-122082284D01*
X204280294Y-121310446D01*
X203689554Y-120719706D01*
X202917716Y-120400000D01*
X202082284Y-120400000D01*
X201310446Y-120719706D01*
X200719706Y-121310446D01*
X200400000Y-122082284D01*
X200400000Y-122263425D01*
X200375000Y-121983304D01*
X200375000Y-119380000D01*
X205837471Y-119380000D01*
X205926724Y-119828707D01*
X206180897Y-120209103D01*
X206561293Y-120463276D01*
X206896739Y-120530000D01*
X207123261Y-120530000D01*
X207458707Y-120463276D01*
X207839103Y-120209103D01*
X208093276Y-119828707D01*
X208140285Y-119592373D01*
X208368940Y-119592373D01*
X208540114Y-120028179D01*
X208865034Y-120365306D01*
X209294234Y-120552429D01*
X209337627Y-120561058D01*
X209525000Y-120492219D01*
X209525000Y-119405000D01*
X209575000Y-119405000D01*
X209575000Y-120492219D01*
X209762373Y-120561058D01*
X209805766Y-120552429D01*
X210234966Y-120365306D01*
X210559886Y-120028179D01*
X210731060Y-119592373D01*
X210662242Y-119405000D01*
X209575000Y-119405000D01*
X209525000Y-119405000D01*
X208437758Y-119405000D01*
X208368940Y-119592373D01*
X208140285Y-119592373D01*
X208182529Y-119380000D01*
X210917471Y-119380000D01*
X211006724Y-119828707D01*
X211260897Y-120209103D01*
X211641293Y-120463276D01*
X211976739Y-120530000D01*
X212203261Y-120530000D01*
X212538707Y-120463276D01*
X212919103Y-120209103D01*
X213173276Y-119828707D01*
X213262529Y-119380000D01*
X213457471Y-119380000D01*
X213546724Y-119828707D01*
X213800897Y-120209103D01*
X214181293Y-120463276D01*
X214516739Y-120530000D01*
X214743261Y-120530000D01*
X215078707Y-120463276D01*
X215459103Y-120209103D01*
X215713276Y-119828707D01*
X215802529Y-119380000D01*
X215997471Y-119380000D01*
X216086724Y-119828707D01*
X216340897Y-120209103D01*
X216721293Y-120463276D01*
X217056739Y-120530000D01*
X217283261Y-120530000D01*
X217618707Y-120463276D01*
X217999103Y-120209103D01*
X218253276Y-119828707D01*
X218342529Y-119380000D01*
X218537471Y-119380000D01*
X218626724Y-119828707D01*
X218880897Y-120209103D01*
X219261293Y-120463276D01*
X219596739Y-120530000D01*
X219823261Y-120530000D01*
X220158707Y-120463276D01*
X220539103Y-120209103D01*
X220793276Y-119828707D01*
X220882529Y-119380000D01*
X220803010Y-118980226D01*
X223769179Y-118980226D01*
X223769179Y-120680226D01*
X223792463Y-120797280D01*
X223858768Y-120896514D01*
X223958002Y-120962819D01*
X224075056Y-120986103D01*
X225775056Y-120986103D01*
X225892110Y-120962819D01*
X225991344Y-120896514D01*
X226057649Y-120797280D01*
X226080933Y-120680226D01*
X226080933Y-119380000D01*
X228697471Y-119380000D01*
X228786724Y-119828707D01*
X229040897Y-120209103D01*
X229421293Y-120463276D01*
X229756739Y-120530000D01*
X229983261Y-120530000D01*
X230318707Y-120463276D01*
X230699103Y-120209103D01*
X230953276Y-119828707D01*
X231000285Y-119592373D01*
X231228940Y-119592373D01*
X231400114Y-120028179D01*
X231725034Y-120365306D01*
X232154234Y-120552429D01*
X232197627Y-120561058D01*
X232385000Y-120492219D01*
X232385000Y-119405000D01*
X232435000Y-119405000D01*
X232435000Y-120492219D01*
X232622373Y-120561058D01*
X232665766Y-120552429D01*
X233094966Y-120365306D01*
X233419886Y-120028179D01*
X233591060Y-119592373D01*
X233522242Y-119405000D01*
X232435000Y-119405000D01*
X232385000Y-119405000D01*
X231297758Y-119405000D01*
X231228940Y-119592373D01*
X231000285Y-119592373D01*
X231042529Y-119380000D01*
X231000286Y-119167627D01*
X231228940Y-119167627D01*
X231297758Y-119355000D01*
X232385000Y-119355000D01*
X232385000Y-118267781D01*
X232435000Y-118267781D01*
X232435000Y-119355000D01*
X233522242Y-119355000D01*
X233591060Y-119167627D01*
X233419886Y-118731821D01*
X233094966Y-118394694D01*
X232665766Y-118207571D01*
X232622373Y-118198942D01*
X232435000Y-118267781D01*
X232385000Y-118267781D01*
X232197627Y-118198942D01*
X232154234Y-118207571D01*
X231725034Y-118394694D01*
X231400114Y-118731821D01*
X231228940Y-119167627D01*
X231000286Y-119167627D01*
X230953276Y-118931293D01*
X230699103Y-118550897D01*
X230318707Y-118296724D01*
X229983261Y-118230000D01*
X229756739Y-118230000D01*
X229421293Y-118296724D01*
X229040897Y-118550897D01*
X228786724Y-118931293D01*
X228697471Y-119380000D01*
X226080933Y-119380000D01*
X226080933Y-118980226D01*
X226057649Y-118863172D01*
X225991344Y-118763938D01*
X225892110Y-118697633D01*
X225775056Y-118674349D01*
X224075056Y-118674349D01*
X223958002Y-118697633D01*
X223858768Y-118763938D01*
X223792463Y-118863172D01*
X223769179Y-118980226D01*
X220803010Y-118980226D01*
X220793276Y-118931293D01*
X220751523Y-118868806D01*
X222324274Y-117296056D01*
X222447356Y-117245073D01*
X222595041Y-117097388D01*
X222674968Y-116904429D01*
X222674968Y-116880653D01*
X227200000Y-116880653D01*
X227200000Y-117119347D01*
X227291344Y-117339873D01*
X227460127Y-117508656D01*
X227680653Y-117600000D01*
X227919347Y-117600000D01*
X228139873Y-117508656D01*
X228308656Y-117339873D01*
X228400000Y-117119347D01*
X228400000Y-116880653D01*
X228383162Y-116840000D01*
X228697471Y-116840000D01*
X228786724Y-117288707D01*
X229040897Y-117669103D01*
X229421293Y-117923276D01*
X229756739Y-117990000D01*
X229983261Y-117990000D01*
X230318707Y-117923276D01*
X230699103Y-117669103D01*
X230953276Y-117288707D01*
X231000285Y-117052373D01*
X231228940Y-117052373D01*
X231400114Y-117488179D01*
X231725034Y-117825306D01*
X232154234Y-118012429D01*
X232197627Y-118021058D01*
X232385000Y-117952219D01*
X232385000Y-116865000D01*
X231297758Y-116865000D01*
X231228940Y-117052373D01*
X231000285Y-117052373D01*
X231042529Y-116840000D01*
X231000286Y-116627627D01*
X231228940Y-116627627D01*
X231297758Y-116815000D01*
X232385000Y-116815000D01*
X232385000Y-115727781D01*
X232197627Y-115658942D01*
X232154234Y-115667571D01*
X231725034Y-115854694D01*
X231400114Y-116191821D01*
X231228940Y-116627627D01*
X231000286Y-116627627D01*
X230953276Y-116391293D01*
X230699103Y-116010897D01*
X230318707Y-115756724D01*
X229983261Y-115690000D01*
X229756739Y-115690000D01*
X229421293Y-115756724D01*
X229040897Y-116010897D01*
X228786724Y-116391293D01*
X228697471Y-116840000D01*
X228383162Y-116840000D01*
X228308656Y-116660127D01*
X228139873Y-116491344D01*
X227919347Y-116400000D01*
X227680653Y-116400000D01*
X227460127Y-116491344D01*
X227291344Y-116660127D01*
X227200000Y-116880653D01*
X222674968Y-116880653D01*
X222674968Y-116695571D01*
X222595041Y-116502612D01*
X222447356Y-116354927D01*
X222254397Y-116275000D01*
X222045539Y-116275000D01*
X221852580Y-116354927D01*
X221704895Y-116502612D01*
X221624968Y-116695571D01*
X221624968Y-116904429D01*
X221633835Y-116925835D01*
X220864935Y-117694735D01*
X220865877Y-117690000D01*
X220865877Y-115990000D01*
X220842593Y-115872946D01*
X220776288Y-115773712D01*
X220677054Y-115707407D01*
X220560000Y-115684123D01*
X218860000Y-115684123D01*
X218742946Y-115707407D01*
X218643712Y-115773712D01*
X218577407Y-115872946D01*
X218554123Y-115990000D01*
X218554123Y-117690000D01*
X218577407Y-117807054D01*
X218643712Y-117906288D01*
X218742946Y-117972593D01*
X218860000Y-117995877D01*
X220560000Y-117995877D01*
X220564736Y-117994935D01*
X220221194Y-118338477D01*
X220158707Y-118296724D01*
X219823261Y-118230000D01*
X219596739Y-118230000D01*
X219261293Y-118296724D01*
X218880897Y-118550897D01*
X218626724Y-118931293D01*
X218537471Y-119380000D01*
X218342529Y-119380000D01*
X218253276Y-118931293D01*
X217999103Y-118550897D01*
X217618707Y-118296724D01*
X217283261Y-118230000D01*
X217056739Y-118230000D01*
X216721293Y-118296724D01*
X216340897Y-118550897D01*
X216086724Y-118931293D01*
X215997471Y-119380000D01*
X215802529Y-119380000D01*
X215713276Y-118931293D01*
X215459103Y-118550897D01*
X215078707Y-118296724D01*
X214743261Y-118230000D01*
X214516739Y-118230000D01*
X214181293Y-118296724D01*
X213800897Y-118550897D01*
X213546724Y-118931293D01*
X213457471Y-119380000D01*
X213262529Y-119380000D01*
X213173276Y-118931293D01*
X212919103Y-118550897D01*
X212538707Y-118296724D01*
X212203261Y-118230000D01*
X211976739Y-118230000D01*
X211641293Y-118296724D01*
X211260897Y-118550897D01*
X211006724Y-118931293D01*
X210917471Y-119380000D01*
X208182529Y-119380000D01*
X208140286Y-119167627D01*
X208368940Y-119167627D01*
X208437758Y-119355000D01*
X209525000Y-119355000D01*
X209525000Y-118267781D01*
X209575000Y-118267781D01*
X209575000Y-119355000D01*
X210662242Y-119355000D01*
X210731060Y-119167627D01*
X210559886Y-118731821D01*
X210234966Y-118394694D01*
X209805766Y-118207571D01*
X209762373Y-118198942D01*
X209575000Y-118267781D01*
X209525000Y-118267781D01*
X209337627Y-118198942D01*
X209294234Y-118207571D01*
X208865034Y-118394694D01*
X208540114Y-118731821D01*
X208368940Y-119167627D01*
X208140286Y-119167627D01*
X208093276Y-118931293D01*
X207839103Y-118550897D01*
X207458707Y-118296724D01*
X207123261Y-118230000D01*
X206896739Y-118230000D01*
X206561293Y-118296724D01*
X206180897Y-118550897D01*
X205926724Y-118931293D01*
X205837471Y-119380000D01*
X200375000Y-119380000D01*
X200375000Y-116840000D01*
X205837471Y-116840000D01*
X205926724Y-117288707D01*
X206180897Y-117669103D01*
X206561293Y-117923276D01*
X206896739Y-117990000D01*
X207123261Y-117990000D01*
X207458707Y-117923276D01*
X207839103Y-117669103D01*
X208093276Y-117288707D01*
X208140285Y-117052373D01*
X208368940Y-117052373D01*
X208540114Y-117488179D01*
X208865034Y-117825306D01*
X209294234Y-118012429D01*
X209337627Y-118021058D01*
X209525000Y-117952219D01*
X209525000Y-116865000D01*
X209575000Y-116865000D01*
X209575000Y-117952219D01*
X209762373Y-118021058D01*
X209805766Y-118012429D01*
X210234966Y-117825306D01*
X210559886Y-117488179D01*
X210731060Y-117052373D01*
X210662242Y-116865000D01*
X209575000Y-116865000D01*
X209525000Y-116865000D01*
X208437758Y-116865000D01*
X208368940Y-117052373D01*
X208140285Y-117052373D01*
X208182529Y-116840000D01*
X210917471Y-116840000D01*
X211006724Y-117288707D01*
X211260897Y-117669103D01*
X211641293Y-117923276D01*
X211976739Y-117990000D01*
X212203261Y-117990000D01*
X212538707Y-117923276D01*
X212919103Y-117669103D01*
X213173276Y-117288707D01*
X213262529Y-116840000D01*
X213457471Y-116840000D01*
X213546724Y-117288707D01*
X213800897Y-117669103D01*
X214181293Y-117923276D01*
X214516739Y-117990000D01*
X214743261Y-117990000D01*
X215078707Y-117923276D01*
X215459103Y-117669103D01*
X215713276Y-117288707D01*
X215802529Y-116840000D01*
X215997471Y-116840000D01*
X216086724Y-117288707D01*
X216340897Y-117669103D01*
X216721293Y-117923276D01*
X217056739Y-117990000D01*
X217283261Y-117990000D01*
X217618707Y-117923276D01*
X217999103Y-117669103D01*
X218253276Y-117288707D01*
X218342529Y-116840000D01*
X218253276Y-116391293D01*
X217999103Y-116010897D01*
X217618707Y-115756724D01*
X217283261Y-115690000D01*
X217056739Y-115690000D01*
X216721293Y-115756724D01*
X216340897Y-116010897D01*
X216086724Y-116391293D01*
X215997471Y-116840000D01*
X215802529Y-116840000D01*
X215713276Y-116391293D01*
X215459103Y-116010897D01*
X215078707Y-115756724D01*
X214743261Y-115690000D01*
X214516739Y-115690000D01*
X214181293Y-115756724D01*
X213800897Y-116010897D01*
X213546724Y-116391293D01*
X213457471Y-116840000D01*
X213262529Y-116840000D01*
X213173276Y-116391293D01*
X212919103Y-116010897D01*
X212538707Y-115756724D01*
X212203261Y-115690000D01*
X211976739Y-115690000D01*
X211641293Y-115756724D01*
X211260897Y-116010897D01*
X211006724Y-116391293D01*
X210917471Y-116840000D01*
X208182529Y-116840000D01*
X208140286Y-116627627D01*
X208368940Y-116627627D01*
X208437758Y-116815000D01*
X209525000Y-116815000D01*
X209525000Y-115727781D01*
X209575000Y-115727781D01*
X209575000Y-116815000D01*
X210662242Y-116815000D01*
X210731060Y-116627627D01*
X210559886Y-116191821D01*
X210234966Y-115854694D01*
X209805766Y-115667571D01*
X209762373Y-115658942D01*
X209575000Y-115727781D01*
X209525000Y-115727781D01*
X209337627Y-115658942D01*
X209294234Y-115667571D01*
X208865034Y-115854694D01*
X208540114Y-116191821D01*
X208368940Y-116627627D01*
X208140286Y-116627627D01*
X208093276Y-116391293D01*
X207839103Y-116010897D01*
X207458707Y-115756724D01*
X207123261Y-115690000D01*
X206896739Y-115690000D01*
X206561293Y-115756724D01*
X206180897Y-116010897D01*
X205926724Y-116391293D01*
X205837471Y-116840000D01*
X200375000Y-116840000D01*
X200375000Y-109077863D01*
X200423071Y-109154073D01*
X200725854Y-109368118D01*
X201087500Y-109450000D01*
X201437500Y-109450000D01*
X201437500Y-108525000D01*
X201487500Y-108525000D01*
X201487500Y-109450000D01*
X201837500Y-109450000D01*
X202199146Y-109368118D01*
X202501929Y-109154073D01*
X202699752Y-108840452D01*
X202746568Y-108673253D01*
X202674638Y-108525000D01*
X201487500Y-108525000D01*
X201437500Y-108525000D01*
X201417500Y-108525000D01*
X201417500Y-108475000D01*
X201437500Y-108475000D01*
X201437500Y-107550000D01*
X201487500Y-107550000D01*
X201487500Y-108475000D01*
X202674638Y-108475000D01*
X202746568Y-108326747D01*
X202719652Y-108230618D01*
X203467237Y-108230618D01*
X203538645Y-108401195D01*
X203931006Y-108571335D01*
X204358609Y-108578373D01*
X204756357Y-108421239D01*
X204786355Y-108401195D01*
X204857763Y-108230618D01*
X204162500Y-107535355D01*
X203467237Y-108230618D01*
X202719652Y-108230618D01*
X202699752Y-108159548D01*
X202501929Y-107845927D01*
X202290000Y-107696109D01*
X203084127Y-107696109D01*
X203241261Y-108093857D01*
X203261305Y-108123855D01*
X203431882Y-108195263D01*
X204127145Y-107500000D01*
X204197855Y-107500000D01*
X204893118Y-108195263D01*
X205063695Y-108123855D01*
X205233835Y-107731494D01*
X205240873Y-107303891D01*
X205083739Y-106906143D01*
X205063695Y-106876145D01*
X204893118Y-106804737D01*
X204197855Y-107500000D01*
X204127145Y-107500000D01*
X203431882Y-106804737D01*
X203261305Y-106876145D01*
X203091165Y-107268506D01*
X203084127Y-107696109D01*
X202290000Y-107696109D01*
X202199146Y-107631882D01*
X201837500Y-107550000D01*
X201487500Y-107550000D01*
X201437500Y-107550000D01*
X201087500Y-107550000D01*
X200725854Y-107631882D01*
X200423071Y-107845927D01*
X200375000Y-107922137D01*
X200375000Y-106769382D01*
X203467237Y-106769382D01*
X204162500Y-107464645D01*
X204857763Y-106769382D01*
X204786355Y-106598805D01*
X204393994Y-106428665D01*
X203966391Y-106421627D01*
X203568643Y-106578761D01*
X203538645Y-106598805D01*
X203467237Y-106769382D01*
X200375000Y-106769382D01*
X200375000Y-103230618D01*
X203467237Y-103230618D01*
X203538645Y-103401195D01*
X203931006Y-103571335D01*
X204358609Y-103578373D01*
X204479401Y-103530653D01*
X208900000Y-103530653D01*
X208900000Y-103769347D01*
X208991344Y-103989873D01*
X209160127Y-104158656D01*
X209380653Y-104250000D01*
X209619347Y-104250000D01*
X209839873Y-104158656D01*
X210008656Y-103989873D01*
X210100000Y-103769347D01*
X210100000Y-103530653D01*
X210079290Y-103480653D01*
X214900000Y-103480653D01*
X214900000Y-103719347D01*
X214991344Y-103939873D01*
X215160127Y-104108656D01*
X215380653Y-104200000D01*
X215619347Y-104200000D01*
X215839873Y-104108656D01*
X215867876Y-104080653D01*
X216200000Y-104080653D01*
X216200000Y-104319347D01*
X216291344Y-104539873D01*
X216460127Y-104708656D01*
X216680653Y-104800000D01*
X216919347Y-104800000D01*
X217139873Y-104708656D01*
X217308656Y-104539873D01*
X217400000Y-104319347D01*
X217400000Y-104080653D01*
X217308656Y-103860127D01*
X217139873Y-103691344D01*
X216919347Y-103600000D01*
X216680653Y-103600000D01*
X216460127Y-103691344D01*
X216291344Y-103860127D01*
X216200000Y-104080653D01*
X215867876Y-104080653D01*
X216008656Y-103939873D01*
X216100000Y-103719347D01*
X216100000Y-103480653D01*
X216008656Y-103260127D01*
X215839873Y-103091344D01*
X215619347Y-103000000D01*
X215380653Y-103000000D01*
X215160127Y-103091344D01*
X214991344Y-103260127D01*
X214900000Y-103480653D01*
X210079290Y-103480653D01*
X210008656Y-103310127D01*
X209839873Y-103141344D01*
X209619347Y-103050000D01*
X209380653Y-103050000D01*
X209160127Y-103141344D01*
X208991344Y-103310127D01*
X208900000Y-103530653D01*
X204479401Y-103530653D01*
X204756357Y-103421239D01*
X204786355Y-103401195D01*
X204857763Y-103230618D01*
X204162500Y-102535355D01*
X203467237Y-103230618D01*
X200375000Y-103230618D01*
X200375000Y-102696109D01*
X203084127Y-102696109D01*
X203241261Y-103093857D01*
X203261305Y-103123855D01*
X203431882Y-103195263D01*
X204127145Y-102500000D01*
X204197855Y-102500000D01*
X204893118Y-103195263D01*
X205063695Y-103123855D01*
X205233835Y-102731494D01*
X205240873Y-102303891D01*
X205083739Y-101906143D01*
X205063695Y-101876145D01*
X204893118Y-101804737D01*
X204197855Y-102500000D01*
X204127145Y-102500000D01*
X203431882Y-101804737D01*
X203261305Y-101876145D01*
X203091165Y-102268506D01*
X203084127Y-102696109D01*
X200375000Y-102696109D01*
X200375000Y-102077863D01*
X200423071Y-102154073D01*
X200725854Y-102368118D01*
X201087500Y-102450000D01*
X201437500Y-102450000D01*
X201437500Y-101525000D01*
X201487500Y-101525000D01*
X201487500Y-102450000D01*
X201837500Y-102450000D01*
X202199146Y-102368118D01*
X202501929Y-102154073D01*
X202699752Y-101840452D01*
X202719651Y-101769382D01*
X203467237Y-101769382D01*
X204162500Y-102464645D01*
X204857763Y-101769382D01*
X204786355Y-101598805D01*
X204393994Y-101428665D01*
X203966391Y-101421627D01*
X203568643Y-101578761D01*
X203538645Y-101598805D01*
X203467237Y-101769382D01*
X202719651Y-101769382D01*
X202746568Y-101673253D01*
X202674638Y-101525000D01*
X201487500Y-101525000D01*
X201437500Y-101525000D01*
X201417500Y-101525000D01*
X201417500Y-101475000D01*
X201437500Y-101475000D01*
X201437500Y-100550000D01*
X201487500Y-100550000D01*
X201487500Y-101475000D01*
X202674638Y-101475000D01*
X202746568Y-101326747D01*
X202699752Y-101159548D01*
X202501929Y-100845927D01*
X202199146Y-100631882D01*
X201837500Y-100550000D01*
X201487500Y-100550000D01*
X201437500Y-100550000D01*
X201087500Y-100550000D01*
X200725854Y-100631882D01*
X200423071Y-100845927D01*
X200375000Y-100922137D01*
X200375000Y-99395571D01*
X203975000Y-99395571D01*
X203975000Y-99604429D01*
X204054927Y-99797388D01*
X204202612Y-99945073D01*
X204395571Y-100025000D01*
X204604429Y-100025000D01*
X204797388Y-99945073D01*
X204945073Y-99797388D01*
X205025000Y-99604429D01*
X205025000Y-99395571D01*
X204945073Y-99202612D01*
X204797388Y-99054927D01*
X204604429Y-98975000D01*
X204395571Y-98975000D01*
X204202612Y-99054927D01*
X204054927Y-99202612D01*
X203975000Y-99395571D01*
X200375000Y-99395571D01*
X200375000Y-93895571D01*
X204475000Y-93895571D01*
X204475000Y-94104429D01*
X204554927Y-94297388D01*
X204702612Y-94445073D01*
X204895571Y-94525000D01*
X205104429Y-94525000D01*
X205297388Y-94445073D01*
X205367461Y-94375000D01*
X209844671Y-94375000D01*
X211992008Y-96522338D01*
X211861724Y-96652622D01*
X211781797Y-96845581D01*
X211781797Y-97054439D01*
X211861724Y-97247398D01*
X212009409Y-97395083D01*
X212202368Y-97475010D01*
X212305799Y-97475010D01*
X212385479Y-97528251D01*
X212494865Y-97550009D01*
X212494870Y-97550009D01*
X212525840Y-97556169D01*
X224258734Y-109289064D01*
X224279653Y-109320371D01*
X224310960Y-109341290D01*
X224403693Y-109403253D01*
X224403694Y-109403253D01*
X224403695Y-109403254D01*
X224513081Y-109425012D01*
X224513085Y-109425012D01*
X224550011Y-109432357D01*
X224586937Y-109425012D01*
X225640359Y-109425012D01*
X225611142Y-109495547D01*
X225611142Y-109704405D01*
X225691069Y-109897364D01*
X225838754Y-110045049D01*
X226031713Y-110124976D01*
X226240571Y-110124976D01*
X226312099Y-110095348D01*
X226354361Y-110197375D01*
X226502046Y-110345060D01*
X226626957Y-110396800D01*
X226626957Y-110489948D01*
X226706884Y-110682907D01*
X226854569Y-110830592D01*
X227047528Y-110910519D01*
X227256386Y-110910519D01*
X227449345Y-110830592D01*
X227585167Y-110694770D01*
X227627677Y-110797397D01*
X227775362Y-110945082D01*
X227968321Y-111025009D01*
X228177179Y-111025009D01*
X228370138Y-110945082D01*
X228440211Y-110875009D01*
X229094680Y-110875009D01*
X233110002Y-114890332D01*
X233110002Y-115870295D01*
X233094966Y-115854694D01*
X232665766Y-115667571D01*
X232622373Y-115658942D01*
X232435000Y-115727781D01*
X232435000Y-116815000D01*
X232455000Y-116815000D01*
X232455000Y-116865000D01*
X232435000Y-116865000D01*
X232435000Y-117952219D01*
X232622373Y-118021058D01*
X232665766Y-118012429D01*
X233094966Y-117825306D01*
X233110001Y-117809706D01*
X233110001Y-117878074D01*
X233102656Y-117915001D01*
X233110001Y-117951927D01*
X233110001Y-117951931D01*
X233131759Y-118061317D01*
X233214642Y-118185360D01*
X233245952Y-118206281D01*
X233908477Y-118868806D01*
X233866724Y-118931293D01*
X233777471Y-119380000D01*
X233866724Y-119828707D01*
X234120897Y-120209103D01*
X234501293Y-120463276D01*
X234836739Y-120530000D01*
X235063261Y-120530000D01*
X235398707Y-120463276D01*
X235779103Y-120209103D01*
X236033276Y-119828707D01*
X236122529Y-119380000D01*
X236033276Y-118931293D01*
X235779103Y-118550897D01*
X235398707Y-118296724D01*
X235063261Y-118230000D01*
X234836739Y-118230000D01*
X234501293Y-118296724D01*
X234438806Y-118338477D01*
X233860001Y-117759672D01*
X233860001Y-117254908D01*
X233866724Y-117288707D01*
X234120897Y-117669103D01*
X234501293Y-117923276D01*
X234836739Y-117990000D01*
X235063261Y-117990000D01*
X235398707Y-117923276D01*
X235779103Y-117669103D01*
X236033276Y-117288707D01*
X236040000Y-117254905D01*
X236039999Y-118268072D01*
X236032654Y-118304999D01*
X236039999Y-118341925D01*
X236039999Y-118341929D01*
X236061757Y-118451315D01*
X236144640Y-118575358D01*
X236175949Y-118596279D01*
X236448477Y-118868806D01*
X236406724Y-118931293D01*
X236317471Y-119380000D01*
X236406724Y-119828707D01*
X236660897Y-120209103D01*
X237041293Y-120463276D01*
X237376739Y-120530000D01*
X237603261Y-120530000D01*
X237938707Y-120463276D01*
X238319103Y-120209103D01*
X238573276Y-119828707D01*
X238662529Y-119380000D01*
X238573276Y-118931293D01*
X238319103Y-118550897D01*
X237938707Y-118296724D01*
X237603261Y-118230000D01*
X237376739Y-118230000D01*
X237041293Y-118296724D01*
X236978806Y-118338477D01*
X236789999Y-118149670D01*
X236789999Y-117755366D01*
X237041293Y-117923276D01*
X237376739Y-117990000D01*
X237603261Y-117990000D01*
X237938707Y-117923276D01*
X238319103Y-117669103D01*
X238573276Y-117288707D01*
X238580000Y-117254905D01*
X238579999Y-118268072D01*
X238572654Y-118304999D01*
X238579999Y-118341925D01*
X238579999Y-118341929D01*
X238601757Y-118451315D01*
X238684640Y-118575358D01*
X238715949Y-118596279D01*
X238988477Y-118868806D01*
X238946724Y-118931293D01*
X238857471Y-119380000D01*
X238946724Y-119828707D01*
X239200897Y-120209103D01*
X239581293Y-120463276D01*
X239916739Y-120530000D01*
X240143261Y-120530000D01*
X240478707Y-120463276D01*
X240859103Y-120209103D01*
X241113276Y-119828707D01*
X241202529Y-119380000D01*
X241113276Y-118931293D01*
X240859103Y-118550897D01*
X240478707Y-118296724D01*
X240143261Y-118230000D01*
X239916739Y-118230000D01*
X239581293Y-118296724D01*
X239518806Y-118338477D01*
X239329999Y-118149670D01*
X239329999Y-117755366D01*
X239581293Y-117923276D01*
X239916739Y-117990000D01*
X240143261Y-117990000D01*
X240478707Y-117923276D01*
X240859103Y-117669103D01*
X241113276Y-117288707D01*
X241120000Y-117254905D01*
X241119999Y-118268072D01*
X241112654Y-118304999D01*
X241119999Y-118341925D01*
X241119999Y-118341929D01*
X241141757Y-118451315D01*
X241224640Y-118575358D01*
X241255949Y-118596279D01*
X241528477Y-118868806D01*
X241486724Y-118931293D01*
X241397471Y-119380000D01*
X241486724Y-119828707D01*
X241740897Y-120209103D01*
X242121293Y-120463276D01*
X242456739Y-120530000D01*
X242683261Y-120530000D01*
X243018707Y-120463276D01*
X243399103Y-120209103D01*
X243653276Y-119828707D01*
X243742529Y-119380000D01*
X243653276Y-118931293D01*
X243399103Y-118550897D01*
X243018707Y-118296724D01*
X242683261Y-118230000D01*
X242456739Y-118230000D01*
X242121293Y-118296724D01*
X242058806Y-118338477D01*
X241869999Y-118149670D01*
X241869999Y-117995877D01*
X243420000Y-117995877D01*
X243537054Y-117972593D01*
X243636288Y-117906288D01*
X243702593Y-117807054D01*
X243725877Y-117690000D01*
X243725877Y-115990000D01*
X243702593Y-115872946D01*
X243636288Y-115773712D01*
X243537054Y-115707407D01*
X243420000Y-115684123D01*
X241720000Y-115684123D01*
X241602946Y-115707407D01*
X241503712Y-115773712D01*
X241437407Y-115872946D01*
X241414123Y-115990000D01*
X241414123Y-116102791D01*
X240072282Y-114760951D01*
X240051361Y-114729641D01*
X239927319Y-114646758D01*
X239817933Y-114625000D01*
X239817928Y-114625000D01*
X239781002Y-114617655D01*
X239744076Y-114625000D01*
X235178167Y-114625000D01*
X234296043Y-113742876D01*
X246542480Y-113742876D01*
X246641273Y-113936830D01*
X247114940Y-114144452D01*
X247632004Y-114155006D01*
X248113747Y-113966884D01*
X248158727Y-113936830D01*
X248257520Y-113742876D01*
X247400000Y-112885355D01*
X246542480Y-113742876D01*
X234296043Y-113742876D01*
X233696043Y-113142876D01*
X241642480Y-113142876D01*
X241741273Y-113336830D01*
X242214940Y-113544452D01*
X242732004Y-113555006D01*
X243213747Y-113366884D01*
X243258727Y-113336830D01*
X243357520Y-113142876D01*
X242500000Y-112285355D01*
X241642480Y-113142876D01*
X233696043Y-113142876D01*
X233035171Y-112482004D01*
X241194994Y-112482004D01*
X241383116Y-112963747D01*
X241413170Y-113008727D01*
X241607124Y-113107520D01*
X242464645Y-112250000D01*
X242535355Y-112250000D01*
X243392876Y-113107520D01*
X243442969Y-113082004D01*
X246094994Y-113082004D01*
X246283116Y-113563747D01*
X246313170Y-113608727D01*
X246507124Y-113707520D01*
X247364645Y-112850000D01*
X247435355Y-112850000D01*
X248292876Y-113707520D01*
X248486830Y-113608727D01*
X248694452Y-113135060D01*
X248705006Y-112617996D01*
X248516884Y-112136253D01*
X248486830Y-112091273D01*
X248292876Y-111992480D01*
X247435355Y-112850000D01*
X247364645Y-112850000D01*
X246507124Y-111992480D01*
X246313170Y-112091273D01*
X246105548Y-112564940D01*
X246094994Y-113082004D01*
X243442969Y-113082004D01*
X243586830Y-113008727D01*
X243794452Y-112535060D01*
X243805006Y-112017996D01*
X243781236Y-111957124D01*
X246542480Y-111957124D01*
X247400000Y-112814645D01*
X248257520Y-111957124D01*
X248158727Y-111763170D01*
X247685060Y-111555548D01*
X247167996Y-111544994D01*
X246686253Y-111733116D01*
X246641273Y-111763170D01*
X246542480Y-111957124D01*
X243781236Y-111957124D01*
X243616884Y-111536253D01*
X243586830Y-111491273D01*
X243392876Y-111392480D01*
X242535355Y-112250000D01*
X242464645Y-112250000D01*
X241607124Y-111392480D01*
X241413170Y-111491273D01*
X241205548Y-111964940D01*
X241194994Y-112482004D01*
X233035171Y-112482004D01*
X230712498Y-110159332D01*
X231663068Y-110159332D01*
X231699994Y-110166677D01*
X231736920Y-110159332D01*
X231736925Y-110159332D01*
X231846311Y-110137574D01*
X231925991Y-110084333D01*
X232029422Y-110084333D01*
X232218477Y-110006023D01*
X232272744Y-110060290D01*
X232465703Y-110140217D01*
X232674561Y-110140217D01*
X232867520Y-110060290D01*
X233015205Y-109912605D01*
X233033750Y-109867833D01*
X233209183Y-109867833D01*
X233402142Y-109787906D01*
X233549827Y-109640221D01*
X233559238Y-109617500D01*
X235374123Y-109617500D01*
X235374123Y-109912500D01*
X235408634Y-110086000D01*
X235506914Y-110233086D01*
X235532228Y-110250000D01*
X235506914Y-110266914D01*
X235408634Y-110414000D01*
X235374123Y-110587500D01*
X235374123Y-110882500D01*
X235408634Y-111056000D01*
X235506914Y-111203086D01*
X235625001Y-111281989D01*
X235625001Y-111382538D01*
X235554927Y-111452612D01*
X235475000Y-111645571D01*
X235475000Y-111854429D01*
X235554927Y-112047388D01*
X235702612Y-112195073D01*
X235895571Y-112275000D01*
X236104429Y-112275000D01*
X236297388Y-112195073D01*
X236445073Y-112047388D01*
X236525000Y-111854429D01*
X236525000Y-111645571D01*
X236445073Y-111452612D01*
X236375000Y-111382539D01*
X236375000Y-111281989D01*
X236493086Y-111203086D01*
X236591366Y-111056000D01*
X236625000Y-110886909D01*
X236658634Y-111056000D01*
X236756914Y-111203086D01*
X236875001Y-111281989D01*
X236875001Y-111382538D01*
X236804927Y-111452612D01*
X236725000Y-111645571D01*
X236725000Y-111854429D01*
X236804927Y-112047388D01*
X236952612Y-112195073D01*
X237145571Y-112275000D01*
X237354429Y-112275000D01*
X237547388Y-112195073D01*
X237695073Y-112047388D01*
X237775000Y-111854429D01*
X237775000Y-111645571D01*
X237695073Y-111452612D01*
X237625000Y-111382539D01*
X237625000Y-111281989D01*
X237743086Y-111203086D01*
X237841366Y-111056000D01*
X237875000Y-110886909D01*
X237908634Y-111056000D01*
X238006914Y-111203086D01*
X238125001Y-111281989D01*
X238125001Y-111382538D01*
X238054927Y-111452612D01*
X237975000Y-111645571D01*
X237975000Y-111854429D01*
X238054927Y-112047388D01*
X238202612Y-112195073D01*
X238395571Y-112275000D01*
X238604429Y-112275000D01*
X238797388Y-112195073D01*
X238945073Y-112047388D01*
X239025000Y-111854429D01*
X239025000Y-111645571D01*
X238945073Y-111452612D01*
X238875000Y-111382539D01*
X238875000Y-111357124D01*
X241642480Y-111357124D01*
X242500000Y-112214645D01*
X243357520Y-111357124D01*
X243258727Y-111163170D01*
X242785060Y-110955548D01*
X242267996Y-110944994D01*
X241786253Y-111133116D01*
X241741273Y-111163170D01*
X241642480Y-111357124D01*
X238875000Y-111357124D01*
X238875000Y-111281989D01*
X238993086Y-111203086D01*
X239091366Y-111056000D01*
X239125877Y-110882500D01*
X239125877Y-110587500D01*
X239091366Y-110414000D01*
X238993086Y-110266914D01*
X238967772Y-110250000D01*
X238993086Y-110233086D01*
X239091366Y-110086000D01*
X239125877Y-109912500D01*
X239125877Y-109617500D01*
X239091366Y-109444000D01*
X239008616Y-109320156D01*
X239019268Y-109294439D01*
X239019268Y-109085581D01*
X238939341Y-108892622D01*
X238871601Y-108824882D01*
X239791085Y-108824882D01*
X239791085Y-109033740D01*
X239871012Y-109226699D01*
X240018697Y-109374384D01*
X240211656Y-109454311D01*
X240420514Y-109454311D01*
X240613473Y-109374384D01*
X240761158Y-109226699D01*
X240841085Y-109033740D01*
X240841085Y-108824882D01*
X240761158Y-108631923D01*
X240613473Y-108484238D01*
X240420514Y-108404311D01*
X240211656Y-108404311D01*
X240018697Y-108484238D01*
X239871012Y-108631923D01*
X239791085Y-108824882D01*
X238871601Y-108824882D01*
X238791656Y-108744937D01*
X238598697Y-108665010D01*
X238389839Y-108665010D01*
X238196880Y-108744937D01*
X238049195Y-108892622D01*
X237969268Y-109085581D01*
X237969268Y-109294439D01*
X237984307Y-109330747D01*
X237908634Y-109444000D01*
X237875000Y-109613091D01*
X237841366Y-109444000D01*
X237743086Y-109296914D01*
X237625000Y-109218011D01*
X237625000Y-109107461D01*
X237695073Y-109037388D01*
X237775000Y-108844429D01*
X237775000Y-108635571D01*
X237695073Y-108442612D01*
X237547388Y-108294927D01*
X237354429Y-108215000D01*
X237145571Y-108215000D01*
X236952612Y-108294927D01*
X236804927Y-108442612D01*
X236725000Y-108635571D01*
X236725000Y-108844429D01*
X236804927Y-109037388D01*
X236875001Y-109107462D01*
X236875001Y-109218011D01*
X236756914Y-109296914D01*
X236658634Y-109444000D01*
X236625000Y-109613091D01*
X236591366Y-109444000D01*
X236493086Y-109296914D01*
X236375000Y-109218011D01*
X236375000Y-108592460D01*
X236445073Y-108522387D01*
X236525000Y-108329428D01*
X236525000Y-108120570D01*
X236445073Y-107927611D01*
X236297388Y-107779926D01*
X236104429Y-107699999D01*
X235895571Y-107699999D01*
X235702612Y-107779926D01*
X235554927Y-107927611D01*
X235475000Y-108120570D01*
X235475000Y-108329428D01*
X235554927Y-108522387D01*
X235625001Y-108592461D01*
X235625000Y-109218011D01*
X235506914Y-109296914D01*
X235408634Y-109444000D01*
X235374123Y-109617500D01*
X233559238Y-109617500D01*
X233629754Y-109447262D01*
X233629754Y-109238404D01*
X233549827Y-109045445D01*
X233402142Y-108897760D01*
X233209183Y-108817833D01*
X233174999Y-108817833D01*
X233174999Y-108775000D01*
X233354429Y-108775000D01*
X233547388Y-108695073D01*
X233695073Y-108547388D01*
X233775000Y-108354429D01*
X233775000Y-108145571D01*
X233740981Y-108063442D01*
X233757281Y-108039048D01*
X237439053Y-104357277D01*
X237470359Y-104336359D01*
X237508868Y-104278728D01*
X237553241Y-104212319D01*
X237553241Y-104212318D01*
X237553242Y-104212317D01*
X237575000Y-104102931D01*
X237575000Y-104102927D01*
X237582345Y-104066001D01*
X237575000Y-104029074D01*
X237575000Y-98642876D01*
X241642480Y-98642876D01*
X241741273Y-98836830D01*
X242214940Y-99044452D01*
X242732004Y-99055006D01*
X243213747Y-98866884D01*
X243258727Y-98836830D01*
X243357520Y-98642876D01*
X242500000Y-97785355D01*
X241642480Y-98642876D01*
X237575000Y-98642876D01*
X237575000Y-97982004D01*
X241194994Y-97982004D01*
X241383116Y-98463747D01*
X241413170Y-98508727D01*
X241607124Y-98607520D01*
X242464645Y-97750000D01*
X242535355Y-97750000D01*
X243392876Y-98607520D01*
X243586830Y-98508727D01*
X243791026Y-98042876D01*
X246542480Y-98042876D01*
X246641273Y-98236830D01*
X247114940Y-98444452D01*
X247632004Y-98455006D01*
X248113747Y-98266884D01*
X248158727Y-98236830D01*
X248257520Y-98042876D01*
X247400000Y-97185355D01*
X246542480Y-98042876D01*
X243791026Y-98042876D01*
X243794452Y-98035060D01*
X243805006Y-97517996D01*
X243751901Y-97382004D01*
X246094994Y-97382004D01*
X246283116Y-97863747D01*
X246313170Y-97908727D01*
X246507124Y-98007520D01*
X247364645Y-97150000D01*
X247435355Y-97150000D01*
X248292876Y-98007520D01*
X248486830Y-97908727D01*
X248694452Y-97435060D01*
X248705006Y-96917996D01*
X248516884Y-96436253D01*
X248486830Y-96391273D01*
X248292876Y-96292480D01*
X247435355Y-97150000D01*
X247364645Y-97150000D01*
X246507124Y-96292480D01*
X246313170Y-96391273D01*
X246105548Y-96864940D01*
X246094994Y-97382004D01*
X243751901Y-97382004D01*
X243616884Y-97036253D01*
X243586830Y-96991273D01*
X243392876Y-96892480D01*
X242535355Y-97750000D01*
X242464645Y-97750000D01*
X241607124Y-96892480D01*
X241413170Y-96991273D01*
X241205548Y-97464940D01*
X241194994Y-97982004D01*
X237575000Y-97982004D01*
X237575000Y-96857124D01*
X241642480Y-96857124D01*
X242500000Y-97714645D01*
X243357520Y-96857124D01*
X243258727Y-96663170D01*
X242785060Y-96455548D01*
X242267996Y-96444994D01*
X241786253Y-96633116D01*
X241741273Y-96663170D01*
X241642480Y-96857124D01*
X237575000Y-96857124D01*
X237575000Y-96257124D01*
X246542480Y-96257124D01*
X247400000Y-97114645D01*
X248257520Y-96257124D01*
X248158727Y-96063170D01*
X247685060Y-95855548D01*
X247167996Y-95844994D01*
X246686253Y-96033116D01*
X246641273Y-96063170D01*
X246542480Y-96257124D01*
X237575000Y-96257124D01*
X237575000Y-90617461D01*
X237645073Y-90547388D01*
X237725000Y-90354429D01*
X237725000Y-90167380D01*
X237897638Y-90167380D01*
X238090597Y-90087453D01*
X238238282Y-89939768D01*
X238318209Y-89746809D01*
X238318209Y-89537951D01*
X238238282Y-89344992D01*
X238090597Y-89197307D01*
X238060886Y-89185000D01*
X239113074Y-89185000D01*
X239150000Y-89192345D01*
X239186926Y-89185000D01*
X239186931Y-89185000D01*
X239296317Y-89163242D01*
X239420359Y-89080359D01*
X239441280Y-89049050D01*
X239948806Y-88541523D01*
X240011293Y-88583276D01*
X240346739Y-88650000D01*
X240573261Y-88650000D01*
X240908707Y-88583276D01*
X241289103Y-88329103D01*
X241543276Y-87948707D01*
X241590285Y-87712373D01*
X241818940Y-87712373D01*
X241990114Y-88148179D01*
X242315034Y-88485306D01*
X242744234Y-88672429D01*
X242787627Y-88681058D01*
X242975000Y-88612219D01*
X242975000Y-87525000D01*
X243025000Y-87525000D01*
X243025000Y-88612219D01*
X243212373Y-88681058D01*
X243255766Y-88672429D01*
X243684966Y-88485306D01*
X244009886Y-88148179D01*
X244181060Y-87712373D01*
X244112242Y-87525000D01*
X243025000Y-87525000D01*
X242975000Y-87525000D01*
X241887758Y-87525000D01*
X241818940Y-87712373D01*
X241590285Y-87712373D01*
X241632529Y-87500000D01*
X241590286Y-87287627D01*
X241818940Y-87287627D01*
X241887758Y-87475000D01*
X242975000Y-87475000D01*
X242975000Y-86387781D01*
X243025000Y-86387781D01*
X243025000Y-87475000D01*
X244112242Y-87475000D01*
X244181060Y-87287627D01*
X244009886Y-86851821D01*
X243684966Y-86514694D01*
X243255766Y-86327571D01*
X243212373Y-86318942D01*
X243025000Y-86387781D01*
X242975000Y-86387781D01*
X242787627Y-86318942D01*
X242744234Y-86327571D01*
X242315034Y-86514694D01*
X241990114Y-86851821D01*
X241818940Y-87287627D01*
X241590286Y-87287627D01*
X241543276Y-87051293D01*
X241289103Y-86670897D01*
X240908707Y-86416724D01*
X240573261Y-86350000D01*
X240346739Y-86350000D01*
X240011293Y-86416724D01*
X239630897Y-86670897D01*
X239376724Y-87051293D01*
X239287471Y-87500000D01*
X239376724Y-87948707D01*
X239418477Y-88011194D01*
X238994671Y-88435000D01*
X238590617Y-88435000D01*
X238749103Y-88329103D01*
X239003276Y-87948707D01*
X239092529Y-87500000D01*
X239003276Y-87051293D01*
X238749103Y-86670897D01*
X238368707Y-86416724D01*
X238033261Y-86350000D01*
X237806739Y-86350000D01*
X237471293Y-86416724D01*
X237090897Y-86670897D01*
X236836724Y-87051293D01*
X236747471Y-87500000D01*
X236836724Y-87948707D01*
X236878477Y-88011194D01*
X235910928Y-88978743D01*
X235879618Y-88999664D01*
X235858698Y-89030973D01*
X235800963Y-89117380D01*
X235796735Y-89123707D01*
X235774977Y-89233093D01*
X235774977Y-89233097D01*
X235767632Y-89270023D01*
X235774977Y-89306949D01*
X235774978Y-103604502D01*
X233238443Y-106141038D01*
X233238071Y-106140141D01*
X233090386Y-105992456D01*
X232897427Y-105912529D01*
X232688569Y-105912529D01*
X232495610Y-105992456D01*
X232347925Y-106140141D01*
X232303084Y-106248396D01*
X231849017Y-106702464D01*
X231841366Y-106664000D01*
X231789138Y-106585836D01*
X231866716Y-106508259D01*
X231920000Y-106379619D01*
X231920000Y-106127500D01*
X231832500Y-106040000D01*
X231275000Y-106040000D01*
X231275000Y-106060000D01*
X231225000Y-106060000D01*
X231225000Y-106040000D01*
X230667500Y-106040000D01*
X230625000Y-106082500D01*
X230582500Y-106040000D01*
X230025000Y-106040000D01*
X230025000Y-106060000D01*
X229975000Y-106060000D01*
X229975000Y-106040000D01*
X229557500Y-106040000D01*
X229542500Y-106025000D01*
X229010000Y-106025000D01*
X229010000Y-106582500D01*
X229097500Y-106670000D01*
X229349619Y-106670000D01*
X229425675Y-106638497D01*
X229408634Y-106664000D01*
X229374123Y-106837500D01*
X229374123Y-107132500D01*
X229408634Y-107306000D01*
X229450000Y-107367908D01*
X229450000Y-107587096D01*
X229439225Y-107641265D01*
X229450000Y-107695434D01*
X229450000Y-107695435D01*
X229481912Y-107855864D01*
X229603473Y-108037793D01*
X229649397Y-108068478D01*
X229712890Y-108131972D01*
X229848895Y-108222848D01*
X230063494Y-108265534D01*
X230214092Y-108235579D01*
X230074671Y-108375000D01*
X227325000Y-108375000D01*
X227325000Y-108195571D01*
X227245073Y-108002612D01*
X227097388Y-107854927D01*
X226904429Y-107775000D01*
X226695571Y-107775000D01*
X226502612Y-107854927D01*
X226354927Y-108002612D01*
X226275000Y-108195571D01*
X226275000Y-108375000D01*
X224905330Y-108375000D01*
X222530330Y-106000000D01*
X226739225Y-106000000D01*
X226781911Y-106214599D01*
X226903472Y-106396528D01*
X227085401Y-106518089D01*
X227245830Y-106550000D01*
X227632092Y-106550000D01*
X227694000Y-106591366D01*
X227867500Y-106625877D01*
X228162500Y-106625877D01*
X228336000Y-106591366D01*
X228414164Y-106539138D01*
X228491741Y-106616716D01*
X228620381Y-106670000D01*
X228872500Y-106670000D01*
X228960000Y-106582500D01*
X228960000Y-106025000D01*
X228940000Y-106025000D01*
X228940000Y-105975000D01*
X228960000Y-105975000D01*
X228960000Y-105417500D01*
X229010000Y-105417500D01*
X229010000Y-105975000D01*
X229402500Y-105975000D01*
X229417500Y-105990000D01*
X229975000Y-105990000D01*
X229975000Y-105457500D01*
X230025000Y-105457500D01*
X230025000Y-105990000D01*
X230582500Y-105990000D01*
X230625000Y-105947500D01*
X230667500Y-105990000D01*
X231225000Y-105990000D01*
X231225000Y-105970000D01*
X231275000Y-105970000D01*
X231275000Y-105990000D01*
X231832500Y-105990000D01*
X231853088Y-105969412D01*
X231891319Y-105985248D01*
X231935155Y-106014539D01*
X231986863Y-106024824D01*
X232035571Y-106045000D01*
X232088294Y-106045000D01*
X232140000Y-106055285D01*
X232191706Y-106045000D01*
X232244429Y-106045000D01*
X232293138Y-106024824D01*
X232344844Y-106014539D01*
X232388679Y-105985249D01*
X232437388Y-105965073D01*
X232474669Y-105927792D01*
X232518503Y-105898503D01*
X232547792Y-105854669D01*
X232585073Y-105817388D01*
X232605249Y-105768679D01*
X232634539Y-105724844D01*
X232644824Y-105673138D01*
X232665000Y-105624429D01*
X232665000Y-105571706D01*
X232675285Y-105520000D01*
X232665000Y-105468294D01*
X232665000Y-105415571D01*
X232644824Y-105366863D01*
X232634539Y-105315155D01*
X232605248Y-105271319D01*
X232585073Y-105222612D01*
X232485877Y-105123416D01*
X232485877Y-104827500D01*
X232451366Y-104654000D01*
X232435330Y-104630000D01*
X232639620Y-104630000D01*
X232768259Y-104576715D01*
X232866716Y-104478259D01*
X232920000Y-104349619D01*
X232920000Y-104097500D01*
X232832500Y-104010000D01*
X232275000Y-104010000D01*
X232275000Y-104030000D01*
X232225000Y-104030000D01*
X232225000Y-104010000D01*
X231667500Y-104010000D01*
X231580000Y-104097500D01*
X231580000Y-104349619D01*
X231601366Y-104401202D01*
X231564000Y-104408634D01*
X231485836Y-104460862D01*
X231408259Y-104383284D01*
X231406378Y-104382505D01*
X231420000Y-104349619D01*
X231420000Y-104097500D01*
X231332500Y-104010000D01*
X230775000Y-104010000D01*
X230775000Y-104030000D01*
X230725000Y-104030000D01*
X230725000Y-104010000D01*
X230167500Y-104010000D01*
X230080000Y-104097500D01*
X230080000Y-104349619D01*
X230133284Y-104478259D01*
X230231741Y-104576715D01*
X230276299Y-104595172D01*
X230270000Y-104610380D01*
X230270000Y-104887500D01*
X230357500Y-104975000D01*
X230890000Y-104975000D01*
X230890000Y-104955000D01*
X230940000Y-104955000D01*
X230940000Y-104975000D01*
X230960000Y-104975000D01*
X230960000Y-105025000D01*
X230940000Y-105025000D01*
X230940000Y-105045000D01*
X230890000Y-105045000D01*
X230890000Y-105025000D01*
X230357500Y-105025000D01*
X230270000Y-105112500D01*
X230270000Y-105370000D01*
X230112500Y-105370000D01*
X230025000Y-105457500D01*
X229975000Y-105457500D01*
X229887500Y-105370000D01*
X229610380Y-105370000D01*
X229507563Y-105412589D01*
X229478259Y-105383284D01*
X229349619Y-105330000D01*
X229097500Y-105330000D01*
X229010000Y-105417500D01*
X228960000Y-105417500D01*
X228872500Y-105330000D01*
X228620381Y-105330000D01*
X228491741Y-105383284D01*
X228414164Y-105460862D01*
X228336000Y-105408634D01*
X228162500Y-105374123D01*
X227867500Y-105374123D01*
X227694000Y-105408634D01*
X227632092Y-105450000D01*
X227245830Y-105450000D01*
X227085401Y-105481911D01*
X226903472Y-105603472D01*
X226781911Y-105785401D01*
X226739225Y-106000000D01*
X222530330Y-106000000D01*
X220627830Y-104097500D01*
X228580000Y-104097500D01*
X228580000Y-104349619D01*
X228633284Y-104478259D01*
X228731741Y-104576715D01*
X228860380Y-104630000D01*
X229137500Y-104630000D01*
X229225000Y-104542500D01*
X229225000Y-104010000D01*
X229275000Y-104010000D01*
X229275000Y-104542500D01*
X229362500Y-104630000D01*
X229639620Y-104630000D01*
X229768259Y-104576715D01*
X229866716Y-104478259D01*
X229920000Y-104349619D01*
X229920000Y-104097500D01*
X229832500Y-104010000D01*
X229275000Y-104010000D01*
X229225000Y-104010000D01*
X228667500Y-104010000D01*
X228580000Y-104097500D01*
X220627830Y-104097500D01*
X220150711Y-103620381D01*
X228580000Y-103620381D01*
X228580000Y-103872500D01*
X228667500Y-103960000D01*
X229225000Y-103960000D01*
X229225000Y-103940000D01*
X229275000Y-103940000D01*
X229275000Y-103960000D01*
X229832500Y-103960000D01*
X229920000Y-103872500D01*
X229920000Y-103620381D01*
X229900266Y-103572738D01*
X229939169Y-103565000D01*
X229939170Y-103565000D01*
X230099599Y-103533089D01*
X230122494Y-103517791D01*
X230080000Y-103620381D01*
X230080000Y-103872500D01*
X230167500Y-103960000D01*
X230725000Y-103960000D01*
X230725000Y-103940000D01*
X230775000Y-103940000D01*
X230775000Y-103960000D01*
X231332500Y-103960000D01*
X231420000Y-103872500D01*
X231420000Y-103620381D01*
X231377506Y-103517791D01*
X231400401Y-103533089D01*
X231560830Y-103565000D01*
X231560831Y-103565000D01*
X231599734Y-103572738D01*
X231580000Y-103620381D01*
X231580000Y-103872500D01*
X231667500Y-103960000D01*
X232225000Y-103960000D01*
X232225000Y-103940000D01*
X232275000Y-103940000D01*
X232275000Y-103960000D01*
X232832500Y-103960000D01*
X232920000Y-103872500D01*
X232920000Y-103620381D01*
X232866716Y-103491741D01*
X232789138Y-103414164D01*
X232841366Y-103336000D01*
X232875877Y-103162500D01*
X232875877Y-102867500D01*
X232870702Y-102841482D01*
X232922388Y-102820073D01*
X233070073Y-102672388D01*
X233150000Y-102479429D01*
X233150000Y-102325000D01*
X233304429Y-102325000D01*
X233497388Y-102245073D01*
X233645073Y-102097388D01*
X233725000Y-101904429D01*
X233725000Y-101695571D01*
X233645073Y-101502612D01*
X233497388Y-101354927D01*
X233304429Y-101275000D01*
X233095571Y-101275000D01*
X232902612Y-101354927D01*
X232754927Y-101502612D01*
X232675000Y-101695571D01*
X232675000Y-101850000D01*
X232520571Y-101850000D01*
X232327612Y-101929927D01*
X232179927Y-102077612D01*
X232100000Y-102270571D01*
X232100000Y-102414123D01*
X232077500Y-102414123D01*
X231904000Y-102448634D01*
X231879507Y-102465000D01*
X231838948Y-102465000D01*
X231714599Y-102381912D01*
X231500000Y-102339225D01*
X231296781Y-102379648D01*
X231268089Y-102235401D01*
X231146528Y-102053472D01*
X231100600Y-102022784D01*
X230950604Y-101872788D01*
X230814599Y-101781912D01*
X230600000Y-101739225D01*
X230385401Y-101781912D01*
X230203473Y-101903473D01*
X230081912Y-102085401D01*
X230039225Y-102300000D01*
X230048965Y-102348965D01*
X230000000Y-102339225D01*
X229785401Y-102381912D01*
X229661050Y-102465000D01*
X229620493Y-102465000D01*
X229596000Y-102448634D01*
X229422500Y-102414123D01*
X229077500Y-102414123D01*
X228904000Y-102448634D01*
X228756914Y-102546914D01*
X228658634Y-102694000D01*
X228624123Y-102867500D01*
X228624123Y-103162500D01*
X228658634Y-103336000D01*
X228710862Y-103414164D01*
X228633284Y-103491741D01*
X228580000Y-103620381D01*
X220150711Y-103620381D01*
X218375911Y-101845581D01*
X226249295Y-101845581D01*
X226249295Y-102054439D01*
X226329222Y-102247398D01*
X226476907Y-102395083D01*
X226669866Y-102475010D01*
X226878724Y-102475010D01*
X227071683Y-102395083D01*
X227219368Y-102247398D01*
X227299295Y-102054439D01*
X227299295Y-101845581D01*
X227219368Y-101652622D01*
X227071683Y-101504937D01*
X226878724Y-101425010D01*
X226669866Y-101425010D01*
X226476907Y-101504937D01*
X226329222Y-101652622D01*
X226249295Y-101845581D01*
X218375911Y-101845581D01*
X215625901Y-99095571D01*
X218775000Y-99095571D01*
X218775000Y-99304429D01*
X218854927Y-99497388D01*
X219002612Y-99645073D01*
X219195571Y-99725000D01*
X219404429Y-99725000D01*
X219597388Y-99645073D01*
X219745073Y-99497388D01*
X219825000Y-99304429D01*
X219825000Y-99095571D01*
X219745073Y-98902612D01*
X219597388Y-98754927D01*
X219404429Y-98675000D01*
X219195571Y-98675000D01*
X219002612Y-98754927D01*
X218854927Y-98902612D01*
X218775000Y-99095571D01*
X215625901Y-99095571D01*
X212625901Y-96095571D01*
X213725000Y-96095571D01*
X213725000Y-96304429D01*
X213804927Y-96497388D01*
X213952612Y-96645073D01*
X214145571Y-96725000D01*
X214354429Y-96725000D01*
X214547388Y-96645073D01*
X214695073Y-96497388D01*
X214775000Y-96304429D01*
X214775000Y-96095571D01*
X214695073Y-95902612D01*
X214547388Y-95754927D01*
X214354429Y-95675000D01*
X214145571Y-95675000D01*
X213952612Y-95754927D01*
X213804927Y-95902612D01*
X213725000Y-96095571D01*
X212625901Y-96095571D01*
X210291280Y-93760951D01*
X210270359Y-93729641D01*
X210146317Y-93646758D01*
X210036931Y-93625000D01*
X210036926Y-93625000D01*
X210000000Y-93617655D01*
X209963074Y-93625000D01*
X205367461Y-93625000D01*
X205297388Y-93554927D01*
X205104429Y-93475000D01*
X204895571Y-93475000D01*
X204702612Y-93554927D01*
X204554927Y-93702612D01*
X204475000Y-93895571D01*
X200375000Y-93895571D01*
X200375000Y-93295571D01*
X225875000Y-93295571D01*
X225875000Y-93504429D01*
X225954927Y-93697388D01*
X226102612Y-93845073D01*
X226295571Y-93925000D01*
X226504429Y-93925000D01*
X226697388Y-93845073D01*
X226700000Y-93842461D01*
X226702612Y-93845073D01*
X226895571Y-93925000D01*
X227104429Y-93925000D01*
X227297388Y-93845073D01*
X227445073Y-93697388D01*
X227525000Y-93504429D01*
X227525000Y-93295571D01*
X227445073Y-93102612D01*
X227297388Y-92954927D01*
X227104429Y-92875000D01*
X226895571Y-92875000D01*
X226702612Y-92954927D01*
X226700000Y-92957539D01*
X226697388Y-92954927D01*
X226504429Y-92875000D01*
X226295571Y-92875000D01*
X226102612Y-92954927D01*
X225954927Y-93102612D01*
X225875000Y-93295571D01*
X200375000Y-93295571D01*
X200375000Y-88021786D01*
X200400000Y-87807355D01*
X200400000Y-87917716D01*
X200719706Y-88689554D01*
X201310446Y-89280294D01*
X202082284Y-89600000D01*
X202917716Y-89600000D01*
X203689554Y-89280294D01*
X204280294Y-88689554D01*
X204600000Y-87917716D01*
X204600000Y-87082284D01*
X204420942Y-86650000D01*
X231684123Y-86650000D01*
X231684123Y-88350000D01*
X231707407Y-88467054D01*
X231773712Y-88566288D01*
X231872946Y-88632593D01*
X231990000Y-88655877D01*
X233690000Y-88655877D01*
X233807054Y-88632593D01*
X233906288Y-88566288D01*
X233972593Y-88467054D01*
X233995877Y-88350000D01*
X233995877Y-87500000D01*
X234207471Y-87500000D01*
X234296724Y-87948707D01*
X234550897Y-88329103D01*
X234931293Y-88583276D01*
X235266739Y-88650000D01*
X235493261Y-88650000D01*
X235828707Y-88583276D01*
X236209103Y-88329103D01*
X236463276Y-87948707D01*
X236552529Y-87500000D01*
X236463276Y-87051293D01*
X236209103Y-86670897D01*
X235828707Y-86416724D01*
X235493261Y-86350000D01*
X235266739Y-86350000D01*
X234931293Y-86416724D01*
X234550897Y-86670897D01*
X234296724Y-87051293D01*
X234207471Y-87500000D01*
X233995877Y-87500000D01*
X233995877Y-86650000D01*
X233972593Y-86532946D01*
X233906288Y-86433712D01*
X233807054Y-86367407D01*
X233690000Y-86344123D01*
X231990000Y-86344123D01*
X231872946Y-86367407D01*
X231773712Y-86433712D01*
X231707407Y-86532946D01*
X231684123Y-86650000D01*
X204420942Y-86650000D01*
X204280294Y-86310446D01*
X203689554Y-85719706D01*
X202917716Y-85400000D01*
X202736576Y-85400000D01*
X203016697Y-85375000D01*
X246978214Y-85375000D01*
X247192645Y-85400000D01*
X247192645Y-85400000D01*
G37*
X247192645Y-85400000D02*
X247082284Y-85400000D01*
X246310446Y-85719706D01*
X245719706Y-86310446D01*
X245400000Y-87082284D01*
X245400000Y-87917716D01*
X245719706Y-88689554D01*
X246310446Y-89280294D01*
X247082284Y-89600000D01*
X247917716Y-89600000D01*
X248689554Y-89280294D01*
X249280294Y-88689554D01*
X249600000Y-87917716D01*
X249600000Y-87736576D01*
X249625000Y-88016697D01*
X249625001Y-121978205D01*
X249600000Y-122192644D01*
X249600000Y-122082284D01*
X249280294Y-121310446D01*
X248689554Y-120719706D01*
X247917716Y-120400000D01*
X247082284Y-120400000D01*
X246310446Y-120719706D01*
X245719706Y-121310446D01*
X245400000Y-122082284D01*
X245400000Y-122917716D01*
X245719706Y-123689554D01*
X246310446Y-124280294D01*
X247082284Y-124600000D01*
X247263425Y-124600000D01*
X246983304Y-124625000D01*
X203021787Y-124625000D01*
X202807356Y-124600000D01*
X202917716Y-124600000D01*
X203689554Y-124280294D01*
X204280294Y-123689554D01*
X204600000Y-122917716D01*
X204600000Y-122582599D01*
X223743998Y-122582599D01*
X223752627Y-122625992D01*
X223939750Y-123055192D01*
X224276877Y-123380112D01*
X224712683Y-123551286D01*
X224900056Y-123482468D01*
X224900056Y-122395226D01*
X224950056Y-122395226D01*
X224950056Y-123482468D01*
X225137429Y-123551286D01*
X225573235Y-123380112D01*
X225910362Y-123055192D01*
X226097485Y-122625992D01*
X226106114Y-122582599D01*
X226037275Y-122395226D01*
X224950056Y-122395226D01*
X224900056Y-122395226D01*
X223812837Y-122395226D01*
X223743998Y-122582599D01*
X204600000Y-122582599D01*
X204600000Y-122157853D01*
X223743998Y-122157853D01*
X223812837Y-122345226D01*
X224900056Y-122345226D01*
X224900056Y-121257984D01*
X224950056Y-121257984D01*
X224950056Y-122345226D01*
X226037275Y-122345226D01*
X226106114Y-122157853D01*
X226097485Y-122114460D01*
X225910362Y-121685260D01*
X225573235Y-121360340D01*
X225137429Y-121189166D01*
X224950056Y-121257984D01*
X224900056Y-121257984D01*
X224712683Y-121189166D01*
X224276877Y-121360340D01*
X223939750Y-121685260D01*
X223752627Y-122114460D01*
X223743998Y-122157853D01*
X204600000Y-122157853D01*
X204600000Y-122082284D01*
X204280294Y-121310446D01*
X203689554Y-120719706D01*
X202917716Y-120400000D01*
X202082284Y-120400000D01*
X201310446Y-120719706D01*
X200719706Y-121310446D01*
X200400000Y-122082284D01*
X200400000Y-122263425D01*
X200375000Y-121983304D01*
X200375000Y-119380000D01*
X205837471Y-119380000D01*
X205926724Y-119828707D01*
X206180897Y-120209103D01*
X206561293Y-120463276D01*
X206896739Y-120530000D01*
X207123261Y-120530000D01*
X207458707Y-120463276D01*
X207839103Y-120209103D01*
X208093276Y-119828707D01*
X208140285Y-119592373D01*
X208368940Y-119592373D01*
X208540114Y-120028179D01*
X208865034Y-120365306D01*
X209294234Y-120552429D01*
X209337627Y-120561058D01*
X209525000Y-120492219D01*
X209525000Y-119405000D01*
X209575000Y-119405000D01*
X209575000Y-120492219D01*
X209762373Y-120561058D01*
X209805766Y-120552429D01*
X210234966Y-120365306D01*
X210559886Y-120028179D01*
X210731060Y-119592373D01*
X210662242Y-119405000D01*
X209575000Y-119405000D01*
X209525000Y-119405000D01*
X208437758Y-119405000D01*
X208368940Y-119592373D01*
X208140285Y-119592373D01*
X208182529Y-119380000D01*
X210917471Y-119380000D01*
X211006724Y-119828707D01*
X211260897Y-120209103D01*
X211641293Y-120463276D01*
X211976739Y-120530000D01*
X212203261Y-120530000D01*
X212538707Y-120463276D01*
X212919103Y-120209103D01*
X213173276Y-119828707D01*
X213262529Y-119380000D01*
X213457471Y-119380000D01*
X213546724Y-119828707D01*
X213800897Y-120209103D01*
X214181293Y-120463276D01*
X214516739Y-120530000D01*
X214743261Y-120530000D01*
X215078707Y-120463276D01*
X215459103Y-120209103D01*
X215713276Y-119828707D01*
X215802529Y-119380000D01*
X215997471Y-119380000D01*
X216086724Y-119828707D01*
X216340897Y-120209103D01*
X216721293Y-120463276D01*
X217056739Y-120530000D01*
X217283261Y-120530000D01*
X217618707Y-120463276D01*
X217999103Y-120209103D01*
X218253276Y-119828707D01*
X218342529Y-119380000D01*
X218537471Y-119380000D01*
X218626724Y-119828707D01*
X218880897Y-120209103D01*
X219261293Y-120463276D01*
X219596739Y-120530000D01*
X219823261Y-120530000D01*
X220158707Y-120463276D01*
X220539103Y-120209103D01*
X220793276Y-119828707D01*
X220882529Y-119380000D01*
X220803010Y-118980226D01*
X223769179Y-118980226D01*
X223769179Y-120680226D01*
X223792463Y-120797280D01*
X223858768Y-120896514D01*
X223958002Y-120962819D01*
X224075056Y-120986103D01*
X225775056Y-120986103D01*
X225892110Y-120962819D01*
X225991344Y-120896514D01*
X226057649Y-120797280D01*
X226080933Y-120680226D01*
X226080933Y-119380000D01*
X228697471Y-119380000D01*
X228786724Y-119828707D01*
X229040897Y-120209103D01*
X229421293Y-120463276D01*
X229756739Y-120530000D01*
X229983261Y-120530000D01*
X230318707Y-120463276D01*
X230699103Y-120209103D01*
X230953276Y-119828707D01*
X231000285Y-119592373D01*
X231228940Y-119592373D01*
X231400114Y-120028179D01*
X231725034Y-120365306D01*
X232154234Y-120552429D01*
X232197627Y-120561058D01*
X232385000Y-120492219D01*
X232385000Y-119405000D01*
X232435000Y-119405000D01*
X232435000Y-120492219D01*
X232622373Y-120561058D01*
X232665766Y-120552429D01*
X233094966Y-120365306D01*
X233419886Y-120028179D01*
X233591060Y-119592373D01*
X233522242Y-119405000D01*
X232435000Y-119405000D01*
X232385000Y-119405000D01*
X231297758Y-119405000D01*
X231228940Y-119592373D01*
X231000285Y-119592373D01*
X231042529Y-119380000D01*
X231000286Y-119167627D01*
X231228940Y-119167627D01*
X231297758Y-119355000D01*
X232385000Y-119355000D01*
X232385000Y-118267781D01*
X232435000Y-118267781D01*
X232435000Y-119355000D01*
X233522242Y-119355000D01*
X233591060Y-119167627D01*
X233419886Y-118731821D01*
X233094966Y-118394694D01*
X232665766Y-118207571D01*
X232622373Y-118198942D01*
X232435000Y-118267781D01*
X232385000Y-118267781D01*
X232197627Y-118198942D01*
X232154234Y-118207571D01*
X231725034Y-118394694D01*
X231400114Y-118731821D01*
X231228940Y-119167627D01*
X231000286Y-119167627D01*
X230953276Y-118931293D01*
X230699103Y-118550897D01*
X230318707Y-118296724D01*
X229983261Y-118230000D01*
X229756739Y-118230000D01*
X229421293Y-118296724D01*
X229040897Y-118550897D01*
X228786724Y-118931293D01*
X228697471Y-119380000D01*
X226080933Y-119380000D01*
X226080933Y-118980226D01*
X226057649Y-118863172D01*
X225991344Y-118763938D01*
X225892110Y-118697633D01*
X225775056Y-118674349D01*
X224075056Y-118674349D01*
X223958002Y-118697633D01*
X223858768Y-118763938D01*
X223792463Y-118863172D01*
X223769179Y-118980226D01*
X220803010Y-118980226D01*
X220793276Y-118931293D01*
X220751523Y-118868806D01*
X222324274Y-117296056D01*
X222447356Y-117245073D01*
X222595041Y-117097388D01*
X222674968Y-116904429D01*
X222674968Y-116880653D01*
X227200000Y-116880653D01*
X227200000Y-117119347D01*
X227291344Y-117339873D01*
X227460127Y-117508656D01*
X227680653Y-117600000D01*
X227919347Y-117600000D01*
X228139873Y-117508656D01*
X228308656Y-117339873D01*
X228400000Y-117119347D01*
X228400000Y-116880653D01*
X228383162Y-116840000D01*
X228697471Y-116840000D01*
X228786724Y-117288707D01*
X229040897Y-117669103D01*
X229421293Y-117923276D01*
X229756739Y-117990000D01*
X229983261Y-117990000D01*
X230318707Y-117923276D01*
X230699103Y-117669103D01*
X230953276Y-117288707D01*
X231000285Y-117052373D01*
X231228940Y-117052373D01*
X231400114Y-117488179D01*
X231725034Y-117825306D01*
X232154234Y-118012429D01*
X232197627Y-118021058D01*
X232385000Y-117952219D01*
X232385000Y-116865000D01*
X231297758Y-116865000D01*
X231228940Y-117052373D01*
X231000285Y-117052373D01*
X231042529Y-116840000D01*
X231000286Y-116627627D01*
X231228940Y-116627627D01*
X231297758Y-116815000D01*
X232385000Y-116815000D01*
X232385000Y-115727781D01*
X232197627Y-115658942D01*
X232154234Y-115667571D01*
X231725034Y-115854694D01*
X231400114Y-116191821D01*
X231228940Y-116627627D01*
X231000286Y-116627627D01*
X230953276Y-116391293D01*
X230699103Y-116010897D01*
X230318707Y-115756724D01*
X229983261Y-115690000D01*
X229756739Y-115690000D01*
X229421293Y-115756724D01*
X229040897Y-116010897D01*
X228786724Y-116391293D01*
X228697471Y-116840000D01*
X228383162Y-116840000D01*
X228308656Y-116660127D01*
X228139873Y-116491344D01*
X227919347Y-116400000D01*
X227680653Y-116400000D01*
X227460127Y-116491344D01*
X227291344Y-116660127D01*
X227200000Y-116880653D01*
X222674968Y-116880653D01*
X222674968Y-116695571D01*
X222595041Y-116502612D01*
X222447356Y-116354927D01*
X222254397Y-116275000D01*
X222045539Y-116275000D01*
X221852580Y-116354927D01*
X221704895Y-116502612D01*
X221624968Y-116695571D01*
X221624968Y-116904429D01*
X221633835Y-116925835D01*
X220864935Y-117694735D01*
X220865877Y-117690000D01*
X220865877Y-115990000D01*
X220842593Y-115872946D01*
X220776288Y-115773712D01*
X220677054Y-115707407D01*
X220560000Y-115684123D01*
X218860000Y-115684123D01*
X218742946Y-115707407D01*
X218643712Y-115773712D01*
X218577407Y-115872946D01*
X218554123Y-115990000D01*
X218554123Y-117690000D01*
X218577407Y-117807054D01*
X218643712Y-117906288D01*
X218742946Y-117972593D01*
X218860000Y-117995877D01*
X220560000Y-117995877D01*
X220564736Y-117994935D01*
X220221194Y-118338477D01*
X220158707Y-118296724D01*
X219823261Y-118230000D01*
X219596739Y-118230000D01*
X219261293Y-118296724D01*
X218880897Y-118550897D01*
X218626724Y-118931293D01*
X218537471Y-119380000D01*
X218342529Y-119380000D01*
X218253276Y-118931293D01*
X217999103Y-118550897D01*
X217618707Y-118296724D01*
X217283261Y-118230000D01*
X217056739Y-118230000D01*
X216721293Y-118296724D01*
X216340897Y-118550897D01*
X216086724Y-118931293D01*
X215997471Y-119380000D01*
X215802529Y-119380000D01*
X215713276Y-118931293D01*
X215459103Y-118550897D01*
X215078707Y-118296724D01*
X214743261Y-118230000D01*
X214516739Y-118230000D01*
X214181293Y-118296724D01*
X213800897Y-118550897D01*
X213546724Y-118931293D01*
X213457471Y-119380000D01*
X213262529Y-119380000D01*
X213173276Y-118931293D01*
X212919103Y-118550897D01*
X212538707Y-118296724D01*
X212203261Y-118230000D01*
X211976739Y-118230000D01*
X211641293Y-118296724D01*
X211260897Y-118550897D01*
X211006724Y-118931293D01*
X210917471Y-119380000D01*
X208182529Y-119380000D01*
X208140286Y-119167627D01*
X208368940Y-119167627D01*
X208437758Y-119355000D01*
X209525000Y-119355000D01*
X209525000Y-118267781D01*
X209575000Y-118267781D01*
X209575000Y-119355000D01*
X210662242Y-119355000D01*
X210731060Y-119167627D01*
X210559886Y-118731821D01*
X210234966Y-118394694D01*
X209805766Y-118207571D01*
X209762373Y-118198942D01*
X209575000Y-118267781D01*
X209525000Y-118267781D01*
X209337627Y-118198942D01*
X209294234Y-118207571D01*
X208865034Y-118394694D01*
X208540114Y-118731821D01*
X208368940Y-119167627D01*
X208140286Y-119167627D01*
X208093276Y-118931293D01*
X207839103Y-118550897D01*
X207458707Y-118296724D01*
X207123261Y-118230000D01*
X206896739Y-118230000D01*
X206561293Y-118296724D01*
X206180897Y-118550897D01*
X205926724Y-118931293D01*
X205837471Y-119380000D01*
X200375000Y-119380000D01*
X200375000Y-116840000D01*
X205837471Y-116840000D01*
X205926724Y-117288707D01*
X206180897Y-117669103D01*
X206561293Y-117923276D01*
X206896739Y-117990000D01*
X207123261Y-117990000D01*
X207458707Y-117923276D01*
X207839103Y-117669103D01*
X208093276Y-117288707D01*
X208140285Y-117052373D01*
X208368940Y-117052373D01*
X208540114Y-117488179D01*
X208865034Y-117825306D01*
X209294234Y-118012429D01*
X209337627Y-118021058D01*
X209525000Y-117952219D01*
X209525000Y-116865000D01*
X209575000Y-116865000D01*
X209575000Y-117952219D01*
X209762373Y-118021058D01*
X209805766Y-118012429D01*
X210234966Y-117825306D01*
X210559886Y-117488179D01*
X210731060Y-117052373D01*
X210662242Y-116865000D01*
X209575000Y-116865000D01*
X209525000Y-116865000D01*
X208437758Y-116865000D01*
X208368940Y-117052373D01*
X208140285Y-117052373D01*
X208182529Y-116840000D01*
X210917471Y-116840000D01*
X211006724Y-117288707D01*
X211260897Y-117669103D01*
X211641293Y-117923276D01*
X211976739Y-117990000D01*
X212203261Y-117990000D01*
X212538707Y-117923276D01*
X212919103Y-117669103D01*
X213173276Y-117288707D01*
X213262529Y-116840000D01*
X213457471Y-116840000D01*
X213546724Y-117288707D01*
X213800897Y-117669103D01*
X214181293Y-117923276D01*
X214516739Y-117990000D01*
X214743261Y-117990000D01*
X215078707Y-117923276D01*
X215459103Y-117669103D01*
X215713276Y-117288707D01*
X215802529Y-116840000D01*
X215997471Y-116840000D01*
X216086724Y-117288707D01*
X216340897Y-117669103D01*
X216721293Y-117923276D01*
X217056739Y-117990000D01*
X217283261Y-117990000D01*
X217618707Y-117923276D01*
X217999103Y-117669103D01*
X218253276Y-117288707D01*
X218342529Y-116840000D01*
X218253276Y-116391293D01*
X217999103Y-116010897D01*
X217618707Y-115756724D01*
X217283261Y-115690000D01*
X217056739Y-115690000D01*
X216721293Y-115756724D01*
X216340897Y-116010897D01*
X216086724Y-116391293D01*
X215997471Y-116840000D01*
X215802529Y-116840000D01*
X215713276Y-116391293D01*
X215459103Y-116010897D01*
X215078707Y-115756724D01*
X214743261Y-115690000D01*
X214516739Y-115690000D01*
X214181293Y-115756724D01*
X213800897Y-116010897D01*
X213546724Y-116391293D01*
X213457471Y-116840000D01*
X213262529Y-116840000D01*
X213173276Y-116391293D01*
X212919103Y-116010897D01*
X212538707Y-115756724D01*
X212203261Y-115690000D01*
X211976739Y-115690000D01*
X211641293Y-115756724D01*
X211260897Y-116010897D01*
X211006724Y-116391293D01*
X210917471Y-116840000D01*
X208182529Y-116840000D01*
X208140286Y-116627627D01*
X208368940Y-116627627D01*
X208437758Y-116815000D01*
X209525000Y-116815000D01*
X209525000Y-115727781D01*
X209575000Y-115727781D01*
X209575000Y-116815000D01*
X210662242Y-116815000D01*
X210731060Y-116627627D01*
X210559886Y-116191821D01*
X210234966Y-115854694D01*
X209805766Y-115667571D01*
X209762373Y-115658942D01*
X209575000Y-115727781D01*
X209525000Y-115727781D01*
X209337627Y-115658942D01*
X209294234Y-115667571D01*
X208865034Y-115854694D01*
X208540114Y-116191821D01*
X208368940Y-116627627D01*
X208140286Y-116627627D01*
X208093276Y-116391293D01*
X207839103Y-116010897D01*
X207458707Y-115756724D01*
X207123261Y-115690000D01*
X206896739Y-115690000D01*
X206561293Y-115756724D01*
X206180897Y-116010897D01*
X205926724Y-116391293D01*
X205837471Y-116840000D01*
X200375000Y-116840000D01*
X200375000Y-109077863D01*
X200423071Y-109154073D01*
X200725854Y-109368118D01*
X201087500Y-109450000D01*
X201437500Y-109450000D01*
X201437500Y-108525000D01*
X201487500Y-108525000D01*
X201487500Y-109450000D01*
X201837500Y-109450000D01*
X202199146Y-109368118D01*
X202501929Y-109154073D01*
X202699752Y-108840452D01*
X202746568Y-108673253D01*
X202674638Y-108525000D01*
X201487500Y-108525000D01*
X201437500Y-108525000D01*
X201417500Y-108525000D01*
X201417500Y-108475000D01*
X201437500Y-108475000D01*
X201437500Y-107550000D01*
X201487500Y-107550000D01*
X201487500Y-108475000D01*
X202674638Y-108475000D01*
X202746568Y-108326747D01*
X202719652Y-108230618D01*
X203467237Y-108230618D01*
X203538645Y-108401195D01*
X203931006Y-108571335D01*
X204358609Y-108578373D01*
X204756357Y-108421239D01*
X204786355Y-108401195D01*
X204857763Y-108230618D01*
X204162500Y-107535355D01*
X203467237Y-108230618D01*
X202719652Y-108230618D01*
X202699752Y-108159548D01*
X202501929Y-107845927D01*
X202290000Y-107696109D01*
X203084127Y-107696109D01*
X203241261Y-108093857D01*
X203261305Y-108123855D01*
X203431882Y-108195263D01*
X204127145Y-107500000D01*
X204197855Y-107500000D01*
X204893118Y-108195263D01*
X205063695Y-108123855D01*
X205233835Y-107731494D01*
X205240873Y-107303891D01*
X205083739Y-106906143D01*
X205063695Y-106876145D01*
X204893118Y-106804737D01*
X204197855Y-107500000D01*
X204127145Y-107500000D01*
X203431882Y-106804737D01*
X203261305Y-106876145D01*
X203091165Y-107268506D01*
X203084127Y-107696109D01*
X202290000Y-107696109D01*
X202199146Y-107631882D01*
X201837500Y-107550000D01*
X201487500Y-107550000D01*
X201437500Y-107550000D01*
X201087500Y-107550000D01*
X200725854Y-107631882D01*
X200423071Y-107845927D01*
X200375000Y-107922137D01*
X200375000Y-106769382D01*
X203467237Y-106769382D01*
X204162500Y-107464645D01*
X204857763Y-106769382D01*
X204786355Y-106598805D01*
X204393994Y-106428665D01*
X203966391Y-106421627D01*
X203568643Y-106578761D01*
X203538645Y-106598805D01*
X203467237Y-106769382D01*
X200375000Y-106769382D01*
X200375000Y-103230618D01*
X203467237Y-103230618D01*
X203538645Y-103401195D01*
X203931006Y-103571335D01*
X204358609Y-103578373D01*
X204479401Y-103530653D01*
X208900000Y-103530653D01*
X208900000Y-103769347D01*
X208991344Y-103989873D01*
X209160127Y-104158656D01*
X209380653Y-104250000D01*
X209619347Y-104250000D01*
X209839873Y-104158656D01*
X210008656Y-103989873D01*
X210100000Y-103769347D01*
X210100000Y-103530653D01*
X210079290Y-103480653D01*
X214900000Y-103480653D01*
X214900000Y-103719347D01*
X214991344Y-103939873D01*
X215160127Y-104108656D01*
X215380653Y-104200000D01*
X215619347Y-104200000D01*
X215839873Y-104108656D01*
X215867876Y-104080653D01*
X216200000Y-104080653D01*
X216200000Y-104319347D01*
X216291344Y-104539873D01*
X216460127Y-104708656D01*
X216680653Y-104800000D01*
X216919347Y-104800000D01*
X217139873Y-104708656D01*
X217308656Y-104539873D01*
X217400000Y-104319347D01*
X217400000Y-104080653D01*
X217308656Y-103860127D01*
X217139873Y-103691344D01*
X216919347Y-103600000D01*
X216680653Y-103600000D01*
X216460127Y-103691344D01*
X216291344Y-103860127D01*
X216200000Y-104080653D01*
X215867876Y-104080653D01*
X216008656Y-103939873D01*
X216100000Y-103719347D01*
X216100000Y-103480653D01*
X216008656Y-103260127D01*
X215839873Y-103091344D01*
X215619347Y-103000000D01*
X215380653Y-103000000D01*
X215160127Y-103091344D01*
X214991344Y-103260127D01*
X214900000Y-103480653D01*
X210079290Y-103480653D01*
X210008656Y-103310127D01*
X209839873Y-103141344D01*
X209619347Y-103050000D01*
X209380653Y-103050000D01*
X209160127Y-103141344D01*
X208991344Y-103310127D01*
X208900000Y-103530653D01*
X204479401Y-103530653D01*
X204756357Y-103421239D01*
X204786355Y-103401195D01*
X204857763Y-103230618D01*
X204162500Y-102535355D01*
X203467237Y-103230618D01*
X200375000Y-103230618D01*
X200375000Y-102696109D01*
X203084127Y-102696109D01*
X203241261Y-103093857D01*
X203261305Y-103123855D01*
X203431882Y-103195263D01*
X204127145Y-102500000D01*
X204197855Y-102500000D01*
X204893118Y-103195263D01*
X205063695Y-103123855D01*
X205233835Y-102731494D01*
X205240873Y-102303891D01*
X205083739Y-101906143D01*
X205063695Y-101876145D01*
X204893118Y-101804737D01*
X204197855Y-102500000D01*
X204127145Y-102500000D01*
X203431882Y-101804737D01*
X203261305Y-101876145D01*
X203091165Y-102268506D01*
X203084127Y-102696109D01*
X200375000Y-102696109D01*
X200375000Y-102077863D01*
X200423071Y-102154073D01*
X200725854Y-102368118D01*
X201087500Y-102450000D01*
X201437500Y-102450000D01*
X201437500Y-101525000D01*
X201487500Y-101525000D01*
X201487500Y-102450000D01*
X201837500Y-102450000D01*
X202199146Y-102368118D01*
X202501929Y-102154073D01*
X202699752Y-101840452D01*
X202719651Y-101769382D01*
X203467237Y-101769382D01*
X204162500Y-102464645D01*
X204857763Y-101769382D01*
X204786355Y-101598805D01*
X204393994Y-101428665D01*
X203966391Y-101421627D01*
X203568643Y-101578761D01*
X203538645Y-101598805D01*
X203467237Y-101769382D01*
X202719651Y-101769382D01*
X202746568Y-101673253D01*
X202674638Y-101525000D01*
X201487500Y-101525000D01*
X201437500Y-101525000D01*
X201417500Y-101525000D01*
X201417500Y-101475000D01*
X201437500Y-101475000D01*
X201437500Y-100550000D01*
X201487500Y-100550000D01*
X201487500Y-101475000D01*
X202674638Y-101475000D01*
X202746568Y-101326747D01*
X202699752Y-101159548D01*
X202501929Y-100845927D01*
X202199146Y-100631882D01*
X201837500Y-100550000D01*
X201487500Y-100550000D01*
X201437500Y-100550000D01*
X201087500Y-100550000D01*
X200725854Y-100631882D01*
X200423071Y-100845927D01*
X200375000Y-100922137D01*
X200375000Y-99395571D01*
X203975000Y-99395571D01*
X203975000Y-99604429D01*
X204054927Y-99797388D01*
X204202612Y-99945073D01*
X204395571Y-100025000D01*
X204604429Y-100025000D01*
X204797388Y-99945073D01*
X204945073Y-99797388D01*
X205025000Y-99604429D01*
X205025000Y-99395571D01*
X204945073Y-99202612D01*
X204797388Y-99054927D01*
X204604429Y-98975000D01*
X204395571Y-98975000D01*
X204202612Y-99054927D01*
X204054927Y-99202612D01*
X203975000Y-99395571D01*
X200375000Y-99395571D01*
X200375000Y-93895571D01*
X204475000Y-93895571D01*
X204475000Y-94104429D01*
X204554927Y-94297388D01*
X204702612Y-94445073D01*
X204895571Y-94525000D01*
X205104429Y-94525000D01*
X205297388Y-94445073D01*
X205367461Y-94375000D01*
X209844671Y-94375000D01*
X211992008Y-96522338D01*
X211861724Y-96652622D01*
X211781797Y-96845581D01*
X211781797Y-97054439D01*
X211861724Y-97247398D01*
X212009409Y-97395083D01*
X212202368Y-97475010D01*
X212305799Y-97475010D01*
X212385479Y-97528251D01*
X212494865Y-97550009D01*
X212494870Y-97550009D01*
X212525840Y-97556169D01*
X224258734Y-109289064D01*
X224279653Y-109320371D01*
X224310960Y-109341290D01*
X224403693Y-109403253D01*
X224403694Y-109403253D01*
X224403695Y-109403254D01*
X224513081Y-109425012D01*
X224513085Y-109425012D01*
X224550011Y-109432357D01*
X224586937Y-109425012D01*
X225640359Y-109425012D01*
X225611142Y-109495547D01*
X225611142Y-109704405D01*
X225691069Y-109897364D01*
X225838754Y-110045049D01*
X226031713Y-110124976D01*
X226240571Y-110124976D01*
X226312099Y-110095348D01*
X226354361Y-110197375D01*
X226502046Y-110345060D01*
X226626957Y-110396800D01*
X226626957Y-110489948D01*
X226706884Y-110682907D01*
X226854569Y-110830592D01*
X227047528Y-110910519D01*
X227256386Y-110910519D01*
X227449345Y-110830592D01*
X227585167Y-110694770D01*
X227627677Y-110797397D01*
X227775362Y-110945082D01*
X227968321Y-111025009D01*
X228177179Y-111025009D01*
X228370138Y-110945082D01*
X228440211Y-110875009D01*
X229094680Y-110875009D01*
X233110002Y-114890332D01*
X233110002Y-115870295D01*
X233094966Y-115854694D01*
X232665766Y-115667571D01*
X232622373Y-115658942D01*
X232435000Y-115727781D01*
X232435000Y-116815000D01*
X232455000Y-116815000D01*
X232455000Y-116865000D01*
X232435000Y-116865000D01*
X232435000Y-117952219D01*
X232622373Y-118021058D01*
X232665766Y-118012429D01*
X233094966Y-117825306D01*
X233110001Y-117809706D01*
X233110001Y-117878074D01*
X233102656Y-117915001D01*
X233110001Y-117951927D01*
X233110001Y-117951931D01*
X233131759Y-118061317D01*
X233214642Y-118185360D01*
X233245952Y-118206281D01*
X233908477Y-118868806D01*
X233866724Y-118931293D01*
X233777471Y-119380000D01*
X233866724Y-119828707D01*
X234120897Y-120209103D01*
X234501293Y-120463276D01*
X234836739Y-120530000D01*
X235063261Y-120530000D01*
X235398707Y-120463276D01*
X235779103Y-120209103D01*
X236033276Y-119828707D01*
X236122529Y-119380000D01*
X236033276Y-118931293D01*
X235779103Y-118550897D01*
X235398707Y-118296724D01*
X235063261Y-118230000D01*
X234836739Y-118230000D01*
X234501293Y-118296724D01*
X234438806Y-118338477D01*
X233860001Y-117759672D01*
X233860001Y-117254908D01*
X233866724Y-117288707D01*
X234120897Y-117669103D01*
X234501293Y-117923276D01*
X234836739Y-117990000D01*
X235063261Y-117990000D01*
X235398707Y-117923276D01*
X235779103Y-117669103D01*
X236033276Y-117288707D01*
X236040000Y-117254905D01*
X236039999Y-118268072D01*
X236032654Y-118304999D01*
X236039999Y-118341925D01*
X236039999Y-118341929D01*
X236061757Y-118451315D01*
X236144640Y-118575358D01*
X236175949Y-118596279D01*
X236448477Y-118868806D01*
X236406724Y-118931293D01*
X236317471Y-119380000D01*
X236406724Y-119828707D01*
X236660897Y-120209103D01*
X237041293Y-120463276D01*
X237376739Y-120530000D01*
X237603261Y-120530000D01*
X237938707Y-120463276D01*
X238319103Y-120209103D01*
X238573276Y-119828707D01*
X238662529Y-119380000D01*
X238573276Y-118931293D01*
X238319103Y-118550897D01*
X237938707Y-118296724D01*
X237603261Y-118230000D01*
X237376739Y-118230000D01*
X237041293Y-118296724D01*
X236978806Y-118338477D01*
X236789999Y-118149670D01*
X236789999Y-117755366D01*
X237041293Y-117923276D01*
X237376739Y-117990000D01*
X237603261Y-117990000D01*
X237938707Y-117923276D01*
X238319103Y-117669103D01*
X238573276Y-117288707D01*
X238580000Y-117254905D01*
X238579999Y-118268072D01*
X238572654Y-118304999D01*
X238579999Y-118341925D01*
X238579999Y-118341929D01*
X238601757Y-118451315D01*
X238684640Y-118575358D01*
X238715949Y-118596279D01*
X238988477Y-118868806D01*
X238946724Y-118931293D01*
X238857471Y-119380000D01*
X238946724Y-119828707D01*
X239200897Y-120209103D01*
X239581293Y-120463276D01*
X239916739Y-120530000D01*
X240143261Y-120530000D01*
X240478707Y-120463276D01*
X240859103Y-120209103D01*
X241113276Y-119828707D01*
X241202529Y-119380000D01*
X241113276Y-118931293D01*
X240859103Y-118550897D01*
X240478707Y-118296724D01*
X240143261Y-118230000D01*
X239916739Y-118230000D01*
X239581293Y-118296724D01*
X239518806Y-118338477D01*
X239329999Y-118149670D01*
X239329999Y-117755366D01*
X239581293Y-117923276D01*
X239916739Y-117990000D01*
X240143261Y-117990000D01*
X240478707Y-117923276D01*
X240859103Y-117669103D01*
X241113276Y-117288707D01*
X241120000Y-117254905D01*
X241119999Y-118268072D01*
X241112654Y-118304999D01*
X241119999Y-118341925D01*
X241119999Y-118341929D01*
X241141757Y-118451315D01*
X241224640Y-118575358D01*
X241255949Y-118596279D01*
X241528477Y-118868806D01*
X241486724Y-118931293D01*
X241397471Y-119380000D01*
X241486724Y-119828707D01*
X241740897Y-120209103D01*
X242121293Y-120463276D01*
X242456739Y-120530000D01*
X242683261Y-120530000D01*
X243018707Y-120463276D01*
X243399103Y-120209103D01*
X243653276Y-119828707D01*
X243742529Y-119380000D01*
X243653276Y-118931293D01*
X243399103Y-118550897D01*
X243018707Y-118296724D01*
X242683261Y-118230000D01*
X242456739Y-118230000D01*
X242121293Y-118296724D01*
X242058806Y-118338477D01*
X241869999Y-118149670D01*
X241869999Y-117995877D01*
X243420000Y-117995877D01*
X243537054Y-117972593D01*
X243636288Y-117906288D01*
X243702593Y-117807054D01*
X243725877Y-117690000D01*
X243725877Y-115990000D01*
X243702593Y-115872946D01*
X243636288Y-115773712D01*
X243537054Y-115707407D01*
X243420000Y-115684123D01*
X241720000Y-115684123D01*
X241602946Y-115707407D01*
X241503712Y-115773712D01*
X241437407Y-115872946D01*
X241414123Y-115990000D01*
X241414123Y-116102791D01*
X240072282Y-114760951D01*
X240051361Y-114729641D01*
X239927319Y-114646758D01*
X239817933Y-114625000D01*
X239817928Y-114625000D01*
X239781002Y-114617655D01*
X239744076Y-114625000D01*
X235178167Y-114625000D01*
X234296043Y-113742876D01*
X246542480Y-113742876D01*
X246641273Y-113936830D01*
X247114940Y-114144452D01*
X247632004Y-114155006D01*
X248113747Y-113966884D01*
X248158727Y-113936830D01*
X248257520Y-113742876D01*
X247400000Y-112885355D01*
X246542480Y-113742876D01*
X234296043Y-113742876D01*
X233696043Y-113142876D01*
X241642480Y-113142876D01*
X241741273Y-113336830D01*
X242214940Y-113544452D01*
X242732004Y-113555006D01*
X243213747Y-113366884D01*
X243258727Y-113336830D01*
X243357520Y-113142876D01*
X242500000Y-112285355D01*
X241642480Y-113142876D01*
X233696043Y-113142876D01*
X233035171Y-112482004D01*
X241194994Y-112482004D01*
X241383116Y-112963747D01*
X241413170Y-113008727D01*
X241607124Y-113107520D01*
X242464645Y-112250000D01*
X242535355Y-112250000D01*
X243392876Y-113107520D01*
X243442969Y-113082004D01*
X246094994Y-113082004D01*
X246283116Y-113563747D01*
X246313170Y-113608727D01*
X246507124Y-113707520D01*
X247364645Y-112850000D01*
X247435355Y-112850000D01*
X248292876Y-113707520D01*
X248486830Y-113608727D01*
X248694452Y-113135060D01*
X248705006Y-112617996D01*
X248516884Y-112136253D01*
X248486830Y-112091273D01*
X248292876Y-111992480D01*
X247435355Y-112850000D01*
X247364645Y-112850000D01*
X246507124Y-111992480D01*
X246313170Y-112091273D01*
X246105548Y-112564940D01*
X246094994Y-113082004D01*
X243442969Y-113082004D01*
X243586830Y-113008727D01*
X243794452Y-112535060D01*
X243805006Y-112017996D01*
X243781236Y-111957124D01*
X246542480Y-111957124D01*
X247400000Y-112814645D01*
X248257520Y-111957124D01*
X248158727Y-111763170D01*
X247685060Y-111555548D01*
X247167996Y-111544994D01*
X246686253Y-111733116D01*
X246641273Y-111763170D01*
X246542480Y-111957124D01*
X243781236Y-111957124D01*
X243616884Y-111536253D01*
X243586830Y-111491273D01*
X243392876Y-111392480D01*
X242535355Y-112250000D01*
X242464645Y-112250000D01*
X241607124Y-111392480D01*
X241413170Y-111491273D01*
X241205548Y-111964940D01*
X241194994Y-112482004D01*
X233035171Y-112482004D01*
X230712498Y-110159332D01*
X231663068Y-110159332D01*
X231699994Y-110166677D01*
X231736920Y-110159332D01*
X231736925Y-110159332D01*
X231846311Y-110137574D01*
X231925991Y-110084333D01*
X232029422Y-110084333D01*
X232218477Y-110006023D01*
X232272744Y-110060290D01*
X232465703Y-110140217D01*
X232674561Y-110140217D01*
X232867520Y-110060290D01*
X233015205Y-109912605D01*
X233033750Y-109867833D01*
X233209183Y-109867833D01*
X233402142Y-109787906D01*
X233549827Y-109640221D01*
X233559238Y-109617500D01*
X235374123Y-109617500D01*
X235374123Y-109912500D01*
X235408634Y-110086000D01*
X235506914Y-110233086D01*
X235532228Y-110250000D01*
X235506914Y-110266914D01*
X235408634Y-110414000D01*
X235374123Y-110587500D01*
X235374123Y-110882500D01*
X235408634Y-111056000D01*
X235506914Y-111203086D01*
X235625001Y-111281989D01*
X235625001Y-111382538D01*
X235554927Y-111452612D01*
X235475000Y-111645571D01*
X235475000Y-111854429D01*
X235554927Y-112047388D01*
X235702612Y-112195073D01*
X235895571Y-112275000D01*
X236104429Y-112275000D01*
X236297388Y-112195073D01*
X236445073Y-112047388D01*
X236525000Y-111854429D01*
X236525000Y-111645571D01*
X236445073Y-111452612D01*
X236375000Y-111382539D01*
X236375000Y-111281989D01*
X236493086Y-111203086D01*
X236591366Y-111056000D01*
X236625000Y-110886909D01*
X236658634Y-111056000D01*
X236756914Y-111203086D01*
X236875001Y-111281989D01*
X236875001Y-111382538D01*
X236804927Y-111452612D01*
X236725000Y-111645571D01*
X236725000Y-111854429D01*
X236804927Y-112047388D01*
X236952612Y-112195073D01*
X237145571Y-112275000D01*
X237354429Y-112275000D01*
X237547388Y-112195073D01*
X237695073Y-112047388D01*
X237775000Y-111854429D01*
X237775000Y-111645571D01*
X237695073Y-111452612D01*
X237625000Y-111382539D01*
X237625000Y-111281989D01*
X237743086Y-111203086D01*
X237841366Y-111056000D01*
X237875000Y-110886909D01*
X237908634Y-111056000D01*
X238006914Y-111203086D01*
X238125001Y-111281989D01*
X238125001Y-111382538D01*
X238054927Y-111452612D01*
X237975000Y-111645571D01*
X237975000Y-111854429D01*
X238054927Y-112047388D01*
X238202612Y-112195073D01*
X238395571Y-112275000D01*
X238604429Y-112275000D01*
X238797388Y-112195073D01*
X238945073Y-112047388D01*
X239025000Y-111854429D01*
X239025000Y-111645571D01*
X238945073Y-111452612D01*
X238875000Y-111382539D01*
X238875000Y-111357124D01*
X241642480Y-111357124D01*
X242500000Y-112214645D01*
X243357520Y-111357124D01*
X243258727Y-111163170D01*
X242785060Y-110955548D01*
X242267996Y-110944994D01*
X241786253Y-111133116D01*
X241741273Y-111163170D01*
X241642480Y-111357124D01*
X238875000Y-111357124D01*
X238875000Y-111281989D01*
X238993086Y-111203086D01*
X239091366Y-111056000D01*
X239125877Y-110882500D01*
X239125877Y-110587500D01*
X239091366Y-110414000D01*
X238993086Y-110266914D01*
X238967772Y-110250000D01*
X238993086Y-110233086D01*
X239091366Y-110086000D01*
X239125877Y-109912500D01*
X239125877Y-109617500D01*
X239091366Y-109444000D01*
X239008616Y-109320156D01*
X239019268Y-109294439D01*
X239019268Y-109085581D01*
X238939341Y-108892622D01*
X238871601Y-108824882D01*
X239791085Y-108824882D01*
X239791085Y-109033740D01*
X239871012Y-109226699D01*
X240018697Y-109374384D01*
X240211656Y-109454311D01*
X240420514Y-109454311D01*
X240613473Y-109374384D01*
X240761158Y-109226699D01*
X240841085Y-109033740D01*
X240841085Y-108824882D01*
X240761158Y-108631923D01*
X240613473Y-108484238D01*
X240420514Y-108404311D01*
X240211656Y-108404311D01*
X240018697Y-108484238D01*
X239871012Y-108631923D01*
X239791085Y-108824882D01*
X238871601Y-108824882D01*
X238791656Y-108744937D01*
X238598697Y-108665010D01*
X238389839Y-108665010D01*
X238196880Y-108744937D01*
X238049195Y-108892622D01*
X237969268Y-109085581D01*
X237969268Y-109294439D01*
X237984307Y-109330747D01*
X237908634Y-109444000D01*
X237875000Y-109613091D01*
X237841366Y-109444000D01*
X237743086Y-109296914D01*
X237625000Y-109218011D01*
X237625000Y-109107461D01*
X237695073Y-109037388D01*
X237775000Y-108844429D01*
X237775000Y-108635571D01*
X237695073Y-108442612D01*
X237547388Y-108294927D01*
X237354429Y-108215000D01*
X237145571Y-108215000D01*
X236952612Y-108294927D01*
X236804927Y-108442612D01*
X236725000Y-108635571D01*
X236725000Y-108844429D01*
X236804927Y-109037388D01*
X236875001Y-109107462D01*
X236875001Y-109218011D01*
X236756914Y-109296914D01*
X236658634Y-109444000D01*
X236625000Y-109613091D01*
X236591366Y-109444000D01*
X236493086Y-109296914D01*
X236375000Y-109218011D01*
X236375000Y-108592460D01*
X236445073Y-108522387D01*
X236525000Y-108329428D01*
X236525000Y-108120570D01*
X236445073Y-107927611D01*
X236297388Y-107779926D01*
X236104429Y-107699999D01*
X235895571Y-107699999D01*
X235702612Y-107779926D01*
X235554927Y-107927611D01*
X235475000Y-108120570D01*
X235475000Y-108329428D01*
X235554927Y-108522387D01*
X235625001Y-108592461D01*
X235625000Y-109218011D01*
X235506914Y-109296914D01*
X235408634Y-109444000D01*
X235374123Y-109617500D01*
X233559238Y-109617500D01*
X233629754Y-109447262D01*
X233629754Y-109238404D01*
X233549827Y-109045445D01*
X233402142Y-108897760D01*
X233209183Y-108817833D01*
X233174999Y-108817833D01*
X233174999Y-108775000D01*
X233354429Y-108775000D01*
X233547388Y-108695073D01*
X233695073Y-108547388D01*
X233775000Y-108354429D01*
X233775000Y-108145571D01*
X233740981Y-108063442D01*
X233757281Y-108039048D01*
X237439053Y-104357277D01*
X237470359Y-104336359D01*
X237508868Y-104278728D01*
X237553241Y-104212319D01*
X237553241Y-104212318D01*
X237553242Y-104212317D01*
X237575000Y-104102931D01*
X237575000Y-104102927D01*
X237582345Y-104066001D01*
X237575000Y-104029074D01*
X237575000Y-98642876D01*
X241642480Y-98642876D01*
X241741273Y-98836830D01*
X242214940Y-99044452D01*
X242732004Y-99055006D01*
X243213747Y-98866884D01*
X243258727Y-98836830D01*
X243357520Y-98642876D01*
X242500000Y-97785355D01*
X241642480Y-98642876D01*
X237575000Y-98642876D01*
X237575000Y-97982004D01*
X241194994Y-97982004D01*
X241383116Y-98463747D01*
X241413170Y-98508727D01*
X241607124Y-98607520D01*
X242464645Y-97750000D01*
X242535355Y-97750000D01*
X243392876Y-98607520D01*
X243586830Y-98508727D01*
X243791026Y-98042876D01*
X246542480Y-98042876D01*
X246641273Y-98236830D01*
X247114940Y-98444452D01*
X247632004Y-98455006D01*
X248113747Y-98266884D01*
X248158727Y-98236830D01*
X248257520Y-98042876D01*
X247400000Y-97185355D01*
X246542480Y-98042876D01*
X243791026Y-98042876D01*
X243794452Y-98035060D01*
X243805006Y-97517996D01*
X243751901Y-97382004D01*
X246094994Y-97382004D01*
X246283116Y-97863747D01*
X246313170Y-97908727D01*
X246507124Y-98007520D01*
X247364645Y-97150000D01*
X247435355Y-97150000D01*
X248292876Y-98007520D01*
X248486830Y-97908727D01*
X248694452Y-97435060D01*
X248705006Y-96917996D01*
X248516884Y-96436253D01*
X248486830Y-96391273D01*
X248292876Y-96292480D01*
X247435355Y-97150000D01*
X247364645Y-97150000D01*
X246507124Y-96292480D01*
X246313170Y-96391273D01*
X246105548Y-96864940D01*
X246094994Y-97382004D01*
X243751901Y-97382004D01*
X243616884Y-97036253D01*
X243586830Y-96991273D01*
X243392876Y-96892480D01*
X242535355Y-97750000D01*
X242464645Y-97750000D01*
X241607124Y-96892480D01*
X241413170Y-96991273D01*
X241205548Y-97464940D01*
X241194994Y-97982004D01*
X237575000Y-97982004D01*
X237575000Y-96857124D01*
X241642480Y-96857124D01*
X242500000Y-97714645D01*
X243357520Y-96857124D01*
X243258727Y-96663170D01*
X242785060Y-96455548D01*
X242267996Y-96444994D01*
X241786253Y-96633116D01*
X241741273Y-96663170D01*
X241642480Y-96857124D01*
X237575000Y-96857124D01*
X237575000Y-96257124D01*
X246542480Y-96257124D01*
X247400000Y-97114645D01*
X248257520Y-96257124D01*
X248158727Y-96063170D01*
X247685060Y-95855548D01*
X247167996Y-95844994D01*
X246686253Y-96033116D01*
X246641273Y-96063170D01*
X246542480Y-96257124D01*
X237575000Y-96257124D01*
X237575000Y-90617461D01*
X237645073Y-90547388D01*
X237725000Y-90354429D01*
X237725000Y-90167380D01*
X237897638Y-90167380D01*
X238090597Y-90087453D01*
X238238282Y-89939768D01*
X238318209Y-89746809D01*
X238318209Y-89537951D01*
X238238282Y-89344992D01*
X238090597Y-89197307D01*
X238060886Y-89185000D01*
X239113074Y-89185000D01*
X239150000Y-89192345D01*
X239186926Y-89185000D01*
X239186931Y-89185000D01*
X239296317Y-89163242D01*
X239420359Y-89080359D01*
X239441280Y-89049050D01*
X239948806Y-88541523D01*
X240011293Y-88583276D01*
X240346739Y-88650000D01*
X240573261Y-88650000D01*
X240908707Y-88583276D01*
X241289103Y-88329103D01*
X241543276Y-87948707D01*
X241590285Y-87712373D01*
X241818940Y-87712373D01*
X241990114Y-88148179D01*
X242315034Y-88485306D01*
X242744234Y-88672429D01*
X242787627Y-88681058D01*
X242975000Y-88612219D01*
X242975000Y-87525000D01*
X243025000Y-87525000D01*
X243025000Y-88612219D01*
X243212373Y-88681058D01*
X243255766Y-88672429D01*
X243684966Y-88485306D01*
X244009886Y-88148179D01*
X244181060Y-87712373D01*
X244112242Y-87525000D01*
X243025000Y-87525000D01*
X242975000Y-87525000D01*
X241887758Y-87525000D01*
X241818940Y-87712373D01*
X241590285Y-87712373D01*
X241632529Y-87500000D01*
X241590286Y-87287627D01*
X241818940Y-87287627D01*
X241887758Y-87475000D01*
X242975000Y-87475000D01*
X242975000Y-86387781D01*
X243025000Y-86387781D01*
X243025000Y-87475000D01*
X244112242Y-87475000D01*
X244181060Y-87287627D01*
X244009886Y-86851821D01*
X243684966Y-86514694D01*
X243255766Y-86327571D01*
X243212373Y-86318942D01*
X243025000Y-86387781D01*
X242975000Y-86387781D01*
X242787627Y-86318942D01*
X242744234Y-86327571D01*
X242315034Y-86514694D01*
X241990114Y-86851821D01*
X241818940Y-87287627D01*
X241590286Y-87287627D01*
X241543276Y-87051293D01*
X241289103Y-86670897D01*
X240908707Y-86416724D01*
X240573261Y-86350000D01*
X240346739Y-86350000D01*
X240011293Y-86416724D01*
X239630897Y-86670897D01*
X239376724Y-87051293D01*
X239287471Y-87500000D01*
X239376724Y-87948707D01*
X239418477Y-88011194D01*
X238994671Y-88435000D01*
X238590617Y-88435000D01*
X238749103Y-88329103D01*
X239003276Y-87948707D01*
X239092529Y-87500000D01*
X239003276Y-87051293D01*
X238749103Y-86670897D01*
X238368707Y-86416724D01*
X238033261Y-86350000D01*
X237806739Y-86350000D01*
X237471293Y-86416724D01*
X237090897Y-86670897D01*
X236836724Y-87051293D01*
X236747471Y-87500000D01*
X236836724Y-87948707D01*
X236878477Y-88011194D01*
X235910928Y-88978743D01*
X235879618Y-88999664D01*
X235858698Y-89030973D01*
X235800963Y-89117380D01*
X235796735Y-89123707D01*
X235774977Y-89233093D01*
X235774977Y-89233097D01*
X235767632Y-89270023D01*
X235774977Y-89306949D01*
X235774978Y-103604502D01*
X233238443Y-106141038D01*
X233238071Y-106140141D01*
X233090386Y-105992456D01*
X232897427Y-105912529D01*
X232688569Y-105912529D01*
X232495610Y-105992456D01*
X232347925Y-106140141D01*
X232303084Y-106248396D01*
X231849017Y-106702464D01*
X231841366Y-106664000D01*
X231789138Y-106585836D01*
X231866716Y-106508259D01*
X231920000Y-106379619D01*
X231920000Y-106127500D01*
X231832500Y-106040000D01*
X231275000Y-106040000D01*
X231275000Y-106060000D01*
X231225000Y-106060000D01*
X231225000Y-106040000D01*
X230667500Y-106040000D01*
X230625000Y-106082500D01*
X230582500Y-106040000D01*
X230025000Y-106040000D01*
X230025000Y-106060000D01*
X229975000Y-106060000D01*
X229975000Y-106040000D01*
X229557500Y-106040000D01*
X229542500Y-106025000D01*
X229010000Y-106025000D01*
X229010000Y-106582500D01*
X229097500Y-106670000D01*
X229349619Y-106670000D01*
X229425675Y-106638497D01*
X229408634Y-106664000D01*
X229374123Y-106837500D01*
X229374123Y-107132500D01*
X229408634Y-107306000D01*
X229450000Y-107367908D01*
X229450000Y-107587096D01*
X229439225Y-107641265D01*
X229450000Y-107695434D01*
X229450000Y-107695435D01*
X229481912Y-107855864D01*
X229603473Y-108037793D01*
X229649397Y-108068478D01*
X229712890Y-108131972D01*
X229848895Y-108222848D01*
X230063494Y-108265534D01*
X230214092Y-108235579D01*
X230074671Y-108375000D01*
X227325000Y-108375000D01*
X227325000Y-108195571D01*
X227245073Y-108002612D01*
X227097388Y-107854927D01*
X226904429Y-107775000D01*
X226695571Y-107775000D01*
X226502612Y-107854927D01*
X226354927Y-108002612D01*
X226275000Y-108195571D01*
X226275000Y-108375000D01*
X224905330Y-108375000D01*
X222530330Y-106000000D01*
X226739225Y-106000000D01*
X226781911Y-106214599D01*
X226903472Y-106396528D01*
X227085401Y-106518089D01*
X227245830Y-106550000D01*
X227632092Y-106550000D01*
X227694000Y-106591366D01*
X227867500Y-106625877D01*
X228162500Y-106625877D01*
X228336000Y-106591366D01*
X228414164Y-106539138D01*
X228491741Y-106616716D01*
X228620381Y-106670000D01*
X228872500Y-106670000D01*
X228960000Y-106582500D01*
X228960000Y-106025000D01*
X228940000Y-106025000D01*
X228940000Y-105975000D01*
X228960000Y-105975000D01*
X228960000Y-105417500D01*
X229010000Y-105417500D01*
X229010000Y-105975000D01*
X229402500Y-105975000D01*
X229417500Y-105990000D01*
X229975000Y-105990000D01*
X229975000Y-105457500D01*
X230025000Y-105457500D01*
X230025000Y-105990000D01*
X230582500Y-105990000D01*
X230625000Y-105947500D01*
X230667500Y-105990000D01*
X231225000Y-105990000D01*
X231225000Y-105970000D01*
X231275000Y-105970000D01*
X231275000Y-105990000D01*
X231832500Y-105990000D01*
X231853088Y-105969412D01*
X231891319Y-105985248D01*
X231935155Y-106014539D01*
X231986863Y-106024824D01*
X232035571Y-106045000D01*
X232088294Y-106045000D01*
X232140000Y-106055285D01*
X232191706Y-106045000D01*
X232244429Y-106045000D01*
X232293138Y-106024824D01*
X232344844Y-106014539D01*
X232388679Y-105985249D01*
X232437388Y-105965073D01*
X232474669Y-105927792D01*
X232518503Y-105898503D01*
X232547792Y-105854669D01*
X232585073Y-105817388D01*
X232605249Y-105768679D01*
X232634539Y-105724844D01*
X232644824Y-105673138D01*
X232665000Y-105624429D01*
X232665000Y-105571706D01*
X232675285Y-105520000D01*
X232665000Y-105468294D01*
X232665000Y-105415571D01*
X232644824Y-105366863D01*
X232634539Y-105315155D01*
X232605248Y-105271319D01*
X232585073Y-105222612D01*
X232485877Y-105123416D01*
X232485877Y-104827500D01*
X232451366Y-104654000D01*
X232435330Y-104630000D01*
X232639620Y-104630000D01*
X232768259Y-104576715D01*
X232866716Y-104478259D01*
X232920000Y-104349619D01*
X232920000Y-104097500D01*
X232832500Y-104010000D01*
X232275000Y-104010000D01*
X232275000Y-104030000D01*
X232225000Y-104030000D01*
X232225000Y-104010000D01*
X231667500Y-104010000D01*
X231580000Y-104097500D01*
X231580000Y-104349619D01*
X231601366Y-104401202D01*
X231564000Y-104408634D01*
X231485836Y-104460862D01*
X231408259Y-104383284D01*
X231406378Y-104382505D01*
X231420000Y-104349619D01*
X231420000Y-104097500D01*
X231332500Y-104010000D01*
X230775000Y-104010000D01*
X230775000Y-104030000D01*
X230725000Y-104030000D01*
X230725000Y-104010000D01*
X230167500Y-104010000D01*
X230080000Y-104097500D01*
X230080000Y-104349619D01*
X230133284Y-104478259D01*
X230231741Y-104576715D01*
X230276299Y-104595172D01*
X230270000Y-104610380D01*
X230270000Y-104887500D01*
X230357500Y-104975000D01*
X230890000Y-104975000D01*
X230890000Y-104955000D01*
X230940000Y-104955000D01*
X230940000Y-104975000D01*
X230960000Y-104975000D01*
X230960000Y-105025000D01*
X230940000Y-105025000D01*
X230940000Y-105045000D01*
X230890000Y-105045000D01*
X230890000Y-105025000D01*
X230357500Y-105025000D01*
X230270000Y-105112500D01*
X230270000Y-105370000D01*
X230112500Y-105370000D01*
X230025000Y-105457500D01*
X229975000Y-105457500D01*
X229887500Y-105370000D01*
X229610380Y-105370000D01*
X229507563Y-105412589D01*
X229478259Y-105383284D01*
X229349619Y-105330000D01*
X229097500Y-105330000D01*
X229010000Y-105417500D01*
X228960000Y-105417500D01*
X228872500Y-105330000D01*
X228620381Y-105330000D01*
X228491741Y-105383284D01*
X228414164Y-105460862D01*
X228336000Y-105408634D01*
X228162500Y-105374123D01*
X227867500Y-105374123D01*
X227694000Y-105408634D01*
X227632092Y-105450000D01*
X227245830Y-105450000D01*
X227085401Y-105481911D01*
X226903472Y-105603472D01*
X226781911Y-105785401D01*
X226739225Y-106000000D01*
X222530330Y-106000000D01*
X220627830Y-104097500D01*
X228580000Y-104097500D01*
X228580000Y-104349619D01*
X228633284Y-104478259D01*
X228731741Y-104576715D01*
X228860380Y-104630000D01*
X229137500Y-104630000D01*
X229225000Y-104542500D01*
X229225000Y-104010000D01*
X229275000Y-104010000D01*
X229275000Y-104542500D01*
X229362500Y-104630000D01*
X229639620Y-104630000D01*
X229768259Y-104576715D01*
X229866716Y-104478259D01*
X229920000Y-104349619D01*
X229920000Y-104097500D01*
X229832500Y-104010000D01*
X229275000Y-104010000D01*
X229225000Y-104010000D01*
X228667500Y-104010000D01*
X228580000Y-104097500D01*
X220627830Y-104097500D01*
X220150711Y-103620381D01*
X228580000Y-103620381D01*
X228580000Y-103872500D01*
X228667500Y-103960000D01*
X229225000Y-103960000D01*
X229225000Y-103940000D01*
X229275000Y-103940000D01*
X229275000Y-103960000D01*
X229832500Y-103960000D01*
X229920000Y-103872500D01*
X229920000Y-103620381D01*
X229900266Y-103572738D01*
X229939169Y-103565000D01*
X229939170Y-103565000D01*
X230099599Y-103533089D01*
X230122494Y-103517791D01*
X230080000Y-103620381D01*
X230080000Y-103872500D01*
X230167500Y-103960000D01*
X230725000Y-103960000D01*
X230725000Y-103940000D01*
X230775000Y-103940000D01*
X230775000Y-103960000D01*
X231332500Y-103960000D01*
X231420000Y-103872500D01*
X231420000Y-103620381D01*
X231377506Y-103517791D01*
X231400401Y-103533089D01*
X231560830Y-103565000D01*
X231560831Y-103565000D01*
X231599734Y-103572738D01*
X231580000Y-103620381D01*
X231580000Y-103872500D01*
X231667500Y-103960000D01*
X232225000Y-103960000D01*
X232225000Y-103940000D01*
X232275000Y-103940000D01*
X232275000Y-103960000D01*
X232832500Y-103960000D01*
X232920000Y-103872500D01*
X232920000Y-103620381D01*
X232866716Y-103491741D01*
X232789138Y-103414164D01*
X232841366Y-103336000D01*
X232875877Y-103162500D01*
X232875877Y-102867500D01*
X232870702Y-102841482D01*
X232922388Y-102820073D01*
X233070073Y-102672388D01*
X233150000Y-102479429D01*
X233150000Y-102325000D01*
X233304429Y-102325000D01*
X233497388Y-102245073D01*
X233645073Y-102097388D01*
X233725000Y-101904429D01*
X233725000Y-101695571D01*
X233645073Y-101502612D01*
X233497388Y-101354927D01*
X233304429Y-101275000D01*
X233095571Y-101275000D01*
X232902612Y-101354927D01*
X232754927Y-101502612D01*
X232675000Y-101695571D01*
X232675000Y-101850000D01*
X232520571Y-101850000D01*
X232327612Y-101929927D01*
X232179927Y-102077612D01*
X232100000Y-102270571D01*
X232100000Y-102414123D01*
X232077500Y-102414123D01*
X231904000Y-102448634D01*
X231879507Y-102465000D01*
X231838948Y-102465000D01*
X231714599Y-102381912D01*
X231500000Y-102339225D01*
X231296781Y-102379648D01*
X231268089Y-102235401D01*
X231146528Y-102053472D01*
X231100600Y-102022784D01*
X230950604Y-101872788D01*
X230814599Y-101781912D01*
X230600000Y-101739225D01*
X230385401Y-101781912D01*
X230203473Y-101903473D01*
X230081912Y-102085401D01*
X230039225Y-102300000D01*
X230048965Y-102348965D01*
X230000000Y-102339225D01*
X229785401Y-102381912D01*
X229661050Y-102465000D01*
X229620493Y-102465000D01*
X229596000Y-102448634D01*
X229422500Y-102414123D01*
X229077500Y-102414123D01*
X228904000Y-102448634D01*
X228756914Y-102546914D01*
X228658634Y-102694000D01*
X228624123Y-102867500D01*
X228624123Y-103162500D01*
X228658634Y-103336000D01*
X228710862Y-103414164D01*
X228633284Y-103491741D01*
X228580000Y-103620381D01*
X220150711Y-103620381D01*
X218375911Y-101845581D01*
X226249295Y-101845581D01*
X226249295Y-102054439D01*
X226329222Y-102247398D01*
X226476907Y-102395083D01*
X226669866Y-102475010D01*
X226878724Y-102475010D01*
X227071683Y-102395083D01*
X227219368Y-102247398D01*
X227299295Y-102054439D01*
X227299295Y-101845581D01*
X227219368Y-101652622D01*
X227071683Y-101504937D01*
X226878724Y-101425010D01*
X226669866Y-101425010D01*
X226476907Y-101504937D01*
X226329222Y-101652622D01*
X226249295Y-101845581D01*
X218375911Y-101845581D01*
X215625901Y-99095571D01*
X218775000Y-99095571D01*
X218775000Y-99304429D01*
X218854927Y-99497388D01*
X219002612Y-99645073D01*
X219195571Y-99725000D01*
X219404429Y-99725000D01*
X219597388Y-99645073D01*
X219745073Y-99497388D01*
X219825000Y-99304429D01*
X219825000Y-99095571D01*
X219745073Y-98902612D01*
X219597388Y-98754927D01*
X219404429Y-98675000D01*
X219195571Y-98675000D01*
X219002612Y-98754927D01*
X218854927Y-98902612D01*
X218775000Y-99095571D01*
X215625901Y-99095571D01*
X212625901Y-96095571D01*
X213725000Y-96095571D01*
X213725000Y-96304429D01*
X213804927Y-96497388D01*
X213952612Y-96645073D01*
X214145571Y-96725000D01*
X214354429Y-96725000D01*
X214547388Y-96645073D01*
X214695073Y-96497388D01*
X214775000Y-96304429D01*
X214775000Y-96095571D01*
X214695073Y-95902612D01*
X214547388Y-95754927D01*
X214354429Y-95675000D01*
X214145571Y-95675000D01*
X213952612Y-95754927D01*
X213804927Y-95902612D01*
X213725000Y-96095571D01*
X212625901Y-96095571D01*
X210291280Y-93760951D01*
X210270359Y-93729641D01*
X210146317Y-93646758D01*
X210036931Y-93625000D01*
X210036926Y-93625000D01*
X210000000Y-93617655D01*
X209963074Y-93625000D01*
X205367461Y-93625000D01*
X205297388Y-93554927D01*
X205104429Y-93475000D01*
X204895571Y-93475000D01*
X204702612Y-93554927D01*
X204554927Y-93702612D01*
X204475000Y-93895571D01*
X200375000Y-93895571D01*
X200375000Y-93295571D01*
X225875000Y-93295571D01*
X225875000Y-93504429D01*
X225954927Y-93697388D01*
X226102612Y-93845073D01*
X226295571Y-93925000D01*
X226504429Y-93925000D01*
X226697388Y-93845073D01*
X226700000Y-93842461D01*
X226702612Y-93845073D01*
X226895571Y-93925000D01*
X227104429Y-93925000D01*
X227297388Y-93845073D01*
X227445073Y-93697388D01*
X227525000Y-93504429D01*
X227525000Y-93295571D01*
X227445073Y-93102612D01*
X227297388Y-92954927D01*
X227104429Y-92875000D01*
X226895571Y-92875000D01*
X226702612Y-92954927D01*
X226700000Y-92957539D01*
X226697388Y-92954927D01*
X226504429Y-92875000D01*
X226295571Y-92875000D01*
X226102612Y-92954927D01*
X225954927Y-93102612D01*
X225875000Y-93295571D01*
X200375000Y-93295571D01*
X200375000Y-88021786D01*
X200400000Y-87807355D01*
X200400000Y-87917716D01*
X200719706Y-88689554D01*
X201310446Y-89280294D01*
X202082284Y-89600000D01*
X202917716Y-89600000D01*
X203689554Y-89280294D01*
X204280294Y-88689554D01*
X204600000Y-87917716D01*
X204600000Y-87082284D01*
X204420942Y-86650000D01*
X231684123Y-86650000D01*
X231684123Y-88350000D01*
X231707407Y-88467054D01*
X231773712Y-88566288D01*
X231872946Y-88632593D01*
X231990000Y-88655877D01*
X233690000Y-88655877D01*
X233807054Y-88632593D01*
X233906288Y-88566288D01*
X233972593Y-88467054D01*
X233995877Y-88350000D01*
X233995877Y-87500000D01*
X234207471Y-87500000D01*
X234296724Y-87948707D01*
X234550897Y-88329103D01*
X234931293Y-88583276D01*
X235266739Y-88650000D01*
X235493261Y-88650000D01*
X235828707Y-88583276D01*
X236209103Y-88329103D01*
X236463276Y-87948707D01*
X236552529Y-87500000D01*
X236463276Y-87051293D01*
X236209103Y-86670897D01*
X235828707Y-86416724D01*
X235493261Y-86350000D01*
X235266739Y-86350000D01*
X234931293Y-86416724D01*
X234550897Y-86670897D01*
X234296724Y-87051293D01*
X234207471Y-87500000D01*
X233995877Y-87500000D01*
X233995877Y-86650000D01*
X233972593Y-86532946D01*
X233906288Y-86433712D01*
X233807054Y-86367407D01*
X233690000Y-86344123D01*
X231990000Y-86344123D01*
X231872946Y-86367407D01*
X231773712Y-86433712D01*
X231707407Y-86532946D01*
X231684123Y-86650000D01*
X204420942Y-86650000D01*
X204280294Y-86310446D01*
X203689554Y-85719706D01*
X202917716Y-85400000D01*
X202736576Y-85400000D01*
X203016697Y-85375000D01*
X246978214Y-85375000D01*
X247192645Y-85400000D01*
G04 #@! TD*
M02*
