G04 #@! TF.GenerationSoftware,KiCad,Pcbnew,5.1.5+dfsg1-2build2*
G04 #@! TF.CreationDate,2020-11-18T17:14:58+00:00*
G04 #@! TF.ProjectId,picodvi,7069636f-6476-4692-9e6b-696361645f70,rev?*
G04 #@! TF.SameCoordinates,Original*
G04 #@! TF.FileFunction,Soldermask,Bot*
G04 #@! TF.FilePolarity,Negative*
%FSLAX46Y46*%
G04 Gerber Fmt 4.6, Leading zero omitted, Abs format (unit mm)*
G04 Created by KiCad (PCBNEW 5.1.5+dfsg1-2build2) date 2020-11-18 17:14:58*
%MOMM*%
%LPD*%
G04 APERTURE LIST*
%ADD10C,0.100000*%
G04 APERTURE END LIST*
D10*
G36*
X247738989Y-110559335D02*
G01*
X248068796Y-110624937D01*
X248423670Y-110771932D01*
X248743053Y-110985336D01*
X249014664Y-111256947D01*
X249228068Y-111576330D01*
X249375063Y-111931204D01*
X249450000Y-112307943D01*
X249450000Y-112692057D01*
X249375063Y-113068796D01*
X249228068Y-113423670D01*
X249014664Y-113743053D01*
X248743053Y-114014664D01*
X248423670Y-114228068D01*
X248068796Y-114375063D01*
X247738989Y-114440665D01*
X247692058Y-114450000D01*
X247307942Y-114450000D01*
X247261011Y-114440665D01*
X246931204Y-114375063D01*
X246576330Y-114228068D01*
X246256947Y-114014664D01*
X245985336Y-113743053D01*
X245771932Y-113423670D01*
X245624937Y-113068796D01*
X245550000Y-112692057D01*
X245550000Y-112307943D01*
X245624937Y-111931204D01*
X245771932Y-111576330D01*
X245985336Y-111256947D01*
X246256947Y-110985336D01*
X246576330Y-110771932D01*
X246931204Y-110624937D01*
X247261011Y-110559335D01*
X247307942Y-110550000D01*
X247692058Y-110550000D01*
X247738989Y-110559335D01*
G37*
G36*
X202738989Y-110559335D02*
G01*
X203068796Y-110624937D01*
X203423670Y-110771932D01*
X203743053Y-110985336D01*
X204014664Y-111256947D01*
X204228068Y-111576330D01*
X204375063Y-111931204D01*
X204450000Y-112307943D01*
X204450000Y-112692057D01*
X204375063Y-113068796D01*
X204228068Y-113423670D01*
X204014664Y-113743053D01*
X203743053Y-114014664D01*
X203423670Y-114228068D01*
X203068796Y-114375063D01*
X202738989Y-114440665D01*
X202692058Y-114450000D01*
X202307942Y-114450000D01*
X202261011Y-114440665D01*
X201931204Y-114375063D01*
X201576330Y-114228068D01*
X201256947Y-114014664D01*
X200985336Y-113743053D01*
X200771932Y-113423670D01*
X200624937Y-113068796D01*
X200550000Y-112692057D01*
X200550000Y-112307943D01*
X200624937Y-111931204D01*
X200771932Y-111576330D01*
X200985336Y-111256947D01*
X201256947Y-110985336D01*
X201576330Y-110771932D01*
X201931204Y-110624937D01*
X202261011Y-110559335D01*
X202307942Y-110550000D01*
X202692058Y-110550000D01*
X202738989Y-110559335D01*
G37*
G36*
X225179520Y-112418586D02*
G01*
X225179522Y-112418587D01*
X225179523Y-112418587D01*
X225216627Y-112433956D01*
X225343310Y-112486430D01*
X225490717Y-112584924D01*
X225616076Y-112710283D01*
X225714570Y-112857690D01*
X225782414Y-113021480D01*
X225817000Y-113195358D01*
X225817000Y-113372642D01*
X225782414Y-113546520D01*
X225714570Y-113710310D01*
X225616076Y-113857717D01*
X225490717Y-113983076D01*
X225343310Y-114081570D01*
X225216627Y-114134044D01*
X225179523Y-114149413D01*
X225179522Y-114149413D01*
X225179520Y-114149414D01*
X225005642Y-114184000D01*
X224828358Y-114184000D01*
X224654480Y-114149414D01*
X224654478Y-114149413D01*
X224654477Y-114149413D01*
X224617373Y-114134044D01*
X224490690Y-114081570D01*
X224343283Y-113983076D01*
X224217924Y-113857717D01*
X224119430Y-113710310D01*
X224051586Y-113546520D01*
X224017000Y-113372642D01*
X224017000Y-113195358D01*
X224051586Y-113021480D01*
X224119430Y-112857690D01*
X224217924Y-112710283D01*
X224343283Y-112584924D01*
X224490690Y-112486430D01*
X224617373Y-112433956D01*
X224654477Y-112418587D01*
X224654478Y-112418587D01*
X224654480Y-112418586D01*
X224828358Y-112384000D01*
X225005642Y-112384000D01*
X225179520Y-112418586D01*
G37*
G36*
X225817000Y-111644000D02*
G01*
X224017000Y-111644000D01*
X224017000Y-109844000D01*
X225817000Y-109844000D01*
X225817000Y-111644000D01*
G37*
G36*
X237737280Y-109726186D02*
G01*
X237737282Y-109726187D01*
X237737283Y-109726187D01*
X237774387Y-109741556D01*
X237901070Y-109794030D01*
X238048477Y-109892524D01*
X238173836Y-110017883D01*
X238272330Y-110165290D01*
X238340174Y-110329080D01*
X238374760Y-110502958D01*
X238374760Y-110680242D01*
X238340174Y-110854120D01*
X238272330Y-111017910D01*
X238173836Y-111165317D01*
X238048477Y-111290676D01*
X237901070Y-111389170D01*
X237774387Y-111441644D01*
X237737283Y-111457013D01*
X237737282Y-111457013D01*
X237737280Y-111457014D01*
X237563402Y-111491600D01*
X237386118Y-111491600D01*
X237212240Y-111457014D01*
X237212238Y-111457013D01*
X237212237Y-111457013D01*
X237175133Y-111441644D01*
X237048450Y-111389170D01*
X236901043Y-111290676D01*
X236775684Y-111165317D01*
X236677190Y-111017910D01*
X236609346Y-110854120D01*
X236574760Y-110680242D01*
X236574760Y-110502958D01*
X236609346Y-110329080D01*
X236677190Y-110165290D01*
X236775684Y-110017883D01*
X236901043Y-109892524D01*
X237048450Y-109794030D01*
X237175133Y-109741556D01*
X237212237Y-109726187D01*
X237212238Y-109726187D01*
X237212240Y-109726186D01*
X237386118Y-109691600D01*
X237563402Y-109691600D01*
X237737280Y-109726186D01*
G37*
G36*
X230117280Y-109726186D02*
G01*
X230117282Y-109726187D01*
X230117283Y-109726187D01*
X230154387Y-109741556D01*
X230281070Y-109794030D01*
X230428477Y-109892524D01*
X230553836Y-110017883D01*
X230652330Y-110165290D01*
X230720174Y-110329080D01*
X230754760Y-110502958D01*
X230754760Y-110680242D01*
X230720174Y-110854120D01*
X230652330Y-111017910D01*
X230553836Y-111165317D01*
X230428477Y-111290676D01*
X230281070Y-111389170D01*
X230154387Y-111441644D01*
X230117283Y-111457013D01*
X230117282Y-111457013D01*
X230117280Y-111457014D01*
X229943402Y-111491600D01*
X229766118Y-111491600D01*
X229592240Y-111457014D01*
X229592238Y-111457013D01*
X229592237Y-111457013D01*
X229555133Y-111441644D01*
X229428450Y-111389170D01*
X229281043Y-111290676D01*
X229155684Y-111165317D01*
X229057190Y-111017910D01*
X228989346Y-110854120D01*
X228954760Y-110680242D01*
X228954760Y-110502958D01*
X228989346Y-110329080D01*
X229057190Y-110165290D01*
X229155684Y-110017883D01*
X229281043Y-109892524D01*
X229428450Y-109794030D01*
X229555133Y-109741556D01*
X229592237Y-109726187D01*
X229592238Y-109726187D01*
X229592240Y-109726186D01*
X229766118Y-109691600D01*
X229943402Y-109691600D01*
X230117280Y-109726186D01*
G37*
G36*
X232657280Y-109726186D02*
G01*
X232657282Y-109726187D01*
X232657283Y-109726187D01*
X232694387Y-109741556D01*
X232821070Y-109794030D01*
X232968477Y-109892524D01*
X233093836Y-110017883D01*
X233192330Y-110165290D01*
X233260174Y-110329080D01*
X233294760Y-110502958D01*
X233294760Y-110680242D01*
X233260174Y-110854120D01*
X233192330Y-111017910D01*
X233093836Y-111165317D01*
X232968477Y-111290676D01*
X232821070Y-111389170D01*
X232694387Y-111441644D01*
X232657283Y-111457013D01*
X232657282Y-111457013D01*
X232657280Y-111457014D01*
X232483402Y-111491600D01*
X232306118Y-111491600D01*
X232132240Y-111457014D01*
X232132238Y-111457013D01*
X232132237Y-111457013D01*
X232095133Y-111441644D01*
X231968450Y-111389170D01*
X231821043Y-111290676D01*
X231695684Y-111165317D01*
X231597190Y-111017910D01*
X231529346Y-110854120D01*
X231494760Y-110680242D01*
X231494760Y-110502958D01*
X231529346Y-110329080D01*
X231597190Y-110165290D01*
X231695684Y-110017883D01*
X231821043Y-109892524D01*
X231968450Y-109794030D01*
X232095133Y-109741556D01*
X232132237Y-109726187D01*
X232132238Y-109726187D01*
X232132240Y-109726186D01*
X232306118Y-109691600D01*
X232483402Y-109691600D01*
X232657280Y-109726186D01*
G37*
G36*
X235197280Y-109726186D02*
G01*
X235197282Y-109726187D01*
X235197283Y-109726187D01*
X235234387Y-109741556D01*
X235361070Y-109794030D01*
X235508477Y-109892524D01*
X235633836Y-110017883D01*
X235732330Y-110165290D01*
X235800174Y-110329080D01*
X235834760Y-110502958D01*
X235834760Y-110680242D01*
X235800174Y-110854120D01*
X235732330Y-111017910D01*
X235633836Y-111165317D01*
X235508477Y-111290676D01*
X235361070Y-111389170D01*
X235234387Y-111441644D01*
X235197283Y-111457013D01*
X235197282Y-111457013D01*
X235197280Y-111457014D01*
X235023402Y-111491600D01*
X234846118Y-111491600D01*
X234672240Y-111457014D01*
X234672238Y-111457013D01*
X234672237Y-111457013D01*
X234635133Y-111441644D01*
X234508450Y-111389170D01*
X234361043Y-111290676D01*
X234235684Y-111165317D01*
X234137190Y-111017910D01*
X234069346Y-110854120D01*
X234034760Y-110680242D01*
X234034760Y-110502958D01*
X234069346Y-110329080D01*
X234137190Y-110165290D01*
X234235684Y-110017883D01*
X234361043Y-109892524D01*
X234508450Y-109794030D01*
X234635133Y-109741556D01*
X234672237Y-109726187D01*
X234672238Y-109726187D01*
X234672240Y-109726186D01*
X234846118Y-109691600D01*
X235023402Y-109691600D01*
X235197280Y-109726186D01*
G37*
G36*
X240277280Y-109726186D02*
G01*
X240277282Y-109726187D01*
X240277283Y-109726187D01*
X240314387Y-109741556D01*
X240441070Y-109794030D01*
X240588477Y-109892524D01*
X240713836Y-110017883D01*
X240812330Y-110165290D01*
X240880174Y-110329080D01*
X240914760Y-110502958D01*
X240914760Y-110680242D01*
X240880174Y-110854120D01*
X240812330Y-111017910D01*
X240713836Y-111165317D01*
X240588477Y-111290676D01*
X240441070Y-111389170D01*
X240314387Y-111441644D01*
X240277283Y-111457013D01*
X240277282Y-111457013D01*
X240277280Y-111457014D01*
X240103402Y-111491600D01*
X239926118Y-111491600D01*
X239752240Y-111457014D01*
X239752238Y-111457013D01*
X239752237Y-111457013D01*
X239715133Y-111441644D01*
X239588450Y-111389170D01*
X239441043Y-111290676D01*
X239315684Y-111165317D01*
X239217190Y-111017910D01*
X239149346Y-110854120D01*
X239114760Y-110680242D01*
X239114760Y-110502958D01*
X239149346Y-110329080D01*
X239217190Y-110165290D01*
X239315684Y-110017883D01*
X239441043Y-109892524D01*
X239588450Y-109794030D01*
X239715133Y-109741556D01*
X239752237Y-109726187D01*
X239752238Y-109726187D01*
X239752240Y-109726186D01*
X239926118Y-109691600D01*
X240103402Y-109691600D01*
X240277280Y-109726186D01*
G37*
G36*
X242817280Y-109726186D02*
G01*
X242817282Y-109726187D01*
X242817283Y-109726187D01*
X242854387Y-109741556D01*
X242981070Y-109794030D01*
X243128477Y-109892524D01*
X243253836Y-110017883D01*
X243352330Y-110165290D01*
X243420174Y-110329080D01*
X243454760Y-110502958D01*
X243454760Y-110680242D01*
X243420174Y-110854120D01*
X243352330Y-111017910D01*
X243253836Y-111165317D01*
X243128477Y-111290676D01*
X242981070Y-111389170D01*
X242854387Y-111441644D01*
X242817283Y-111457013D01*
X242817282Y-111457013D01*
X242817280Y-111457014D01*
X242643402Y-111491600D01*
X242466118Y-111491600D01*
X242292240Y-111457014D01*
X242292238Y-111457013D01*
X242292237Y-111457013D01*
X242255133Y-111441644D01*
X242128450Y-111389170D01*
X241981043Y-111290676D01*
X241855684Y-111165317D01*
X241757190Y-111017910D01*
X241689346Y-110854120D01*
X241654760Y-110680242D01*
X241654760Y-110502958D01*
X241689346Y-110329080D01*
X241757190Y-110165290D01*
X241855684Y-110017883D01*
X241981043Y-109892524D01*
X242128450Y-109794030D01*
X242255133Y-109741556D01*
X242292237Y-109726187D01*
X242292238Y-109726187D01*
X242292240Y-109726186D01*
X242466118Y-109691600D01*
X242643402Y-109691600D01*
X242817280Y-109726186D01*
G37*
G36*
X219947120Y-109726186D02*
G01*
X219947122Y-109726187D01*
X219947123Y-109726187D01*
X219984227Y-109741556D01*
X220110910Y-109794030D01*
X220258317Y-109892524D01*
X220383676Y-110017883D01*
X220482170Y-110165290D01*
X220550014Y-110329080D01*
X220584600Y-110502958D01*
X220584600Y-110680242D01*
X220550014Y-110854120D01*
X220482170Y-111017910D01*
X220383676Y-111165317D01*
X220258317Y-111290676D01*
X220110910Y-111389170D01*
X219984227Y-111441644D01*
X219947123Y-111457013D01*
X219947122Y-111457013D01*
X219947120Y-111457014D01*
X219773242Y-111491600D01*
X219595958Y-111491600D01*
X219422080Y-111457014D01*
X219422078Y-111457013D01*
X219422077Y-111457013D01*
X219384973Y-111441644D01*
X219258290Y-111389170D01*
X219110883Y-111290676D01*
X218985524Y-111165317D01*
X218887030Y-111017910D01*
X218819186Y-110854120D01*
X218784600Y-110680242D01*
X218784600Y-110502958D01*
X218819186Y-110329080D01*
X218887030Y-110165290D01*
X218985524Y-110017883D01*
X219110883Y-109892524D01*
X219258290Y-109794030D01*
X219384973Y-109741556D01*
X219422077Y-109726187D01*
X219422078Y-109726187D01*
X219422080Y-109726186D01*
X219595958Y-109691600D01*
X219773242Y-109691600D01*
X219947120Y-109726186D01*
G37*
G36*
X217407120Y-109726186D02*
G01*
X217407122Y-109726187D01*
X217407123Y-109726187D01*
X217444227Y-109741556D01*
X217570910Y-109794030D01*
X217718317Y-109892524D01*
X217843676Y-110017883D01*
X217942170Y-110165290D01*
X218010014Y-110329080D01*
X218044600Y-110502958D01*
X218044600Y-110680242D01*
X218010014Y-110854120D01*
X217942170Y-111017910D01*
X217843676Y-111165317D01*
X217718317Y-111290676D01*
X217570910Y-111389170D01*
X217444227Y-111441644D01*
X217407123Y-111457013D01*
X217407122Y-111457013D01*
X217407120Y-111457014D01*
X217233242Y-111491600D01*
X217055958Y-111491600D01*
X216882080Y-111457014D01*
X216882078Y-111457013D01*
X216882077Y-111457013D01*
X216844973Y-111441644D01*
X216718290Y-111389170D01*
X216570883Y-111290676D01*
X216445524Y-111165317D01*
X216347030Y-111017910D01*
X216279186Y-110854120D01*
X216244600Y-110680242D01*
X216244600Y-110502958D01*
X216279186Y-110329080D01*
X216347030Y-110165290D01*
X216445524Y-110017883D01*
X216570883Y-109892524D01*
X216718290Y-109794030D01*
X216844973Y-109741556D01*
X216882077Y-109726187D01*
X216882078Y-109726187D01*
X216882080Y-109726186D01*
X217055958Y-109691600D01*
X217233242Y-109691600D01*
X217407120Y-109726186D01*
G37*
G36*
X214867120Y-109726186D02*
G01*
X214867122Y-109726187D01*
X214867123Y-109726187D01*
X214904227Y-109741556D01*
X215030910Y-109794030D01*
X215178317Y-109892524D01*
X215303676Y-110017883D01*
X215402170Y-110165290D01*
X215470014Y-110329080D01*
X215504600Y-110502958D01*
X215504600Y-110680242D01*
X215470014Y-110854120D01*
X215402170Y-111017910D01*
X215303676Y-111165317D01*
X215178317Y-111290676D01*
X215030910Y-111389170D01*
X214904227Y-111441644D01*
X214867123Y-111457013D01*
X214867122Y-111457013D01*
X214867120Y-111457014D01*
X214693242Y-111491600D01*
X214515958Y-111491600D01*
X214342080Y-111457014D01*
X214342078Y-111457013D01*
X214342077Y-111457013D01*
X214304973Y-111441644D01*
X214178290Y-111389170D01*
X214030883Y-111290676D01*
X213905524Y-111165317D01*
X213807030Y-111017910D01*
X213739186Y-110854120D01*
X213704600Y-110680242D01*
X213704600Y-110502958D01*
X213739186Y-110329080D01*
X213807030Y-110165290D01*
X213905524Y-110017883D01*
X214030883Y-109892524D01*
X214178290Y-109794030D01*
X214304973Y-109741556D01*
X214342077Y-109726187D01*
X214342078Y-109726187D01*
X214342080Y-109726186D01*
X214515958Y-109691600D01*
X214693242Y-109691600D01*
X214867120Y-109726186D01*
G37*
G36*
X212327120Y-109726186D02*
G01*
X212327122Y-109726187D01*
X212327123Y-109726187D01*
X212364227Y-109741556D01*
X212490910Y-109794030D01*
X212638317Y-109892524D01*
X212763676Y-110017883D01*
X212862170Y-110165290D01*
X212930014Y-110329080D01*
X212964600Y-110502958D01*
X212964600Y-110680242D01*
X212930014Y-110854120D01*
X212862170Y-111017910D01*
X212763676Y-111165317D01*
X212638317Y-111290676D01*
X212490910Y-111389170D01*
X212364227Y-111441644D01*
X212327123Y-111457013D01*
X212327122Y-111457013D01*
X212327120Y-111457014D01*
X212153242Y-111491600D01*
X211975958Y-111491600D01*
X211802080Y-111457014D01*
X211802078Y-111457013D01*
X211802077Y-111457013D01*
X211764973Y-111441644D01*
X211638290Y-111389170D01*
X211490883Y-111290676D01*
X211365524Y-111165317D01*
X211267030Y-111017910D01*
X211199186Y-110854120D01*
X211164600Y-110680242D01*
X211164600Y-110502958D01*
X211199186Y-110329080D01*
X211267030Y-110165290D01*
X211365524Y-110017883D01*
X211490883Y-109892524D01*
X211638290Y-109794030D01*
X211764973Y-109741556D01*
X211802077Y-109726187D01*
X211802078Y-109726187D01*
X211802080Y-109726186D01*
X211975958Y-109691600D01*
X212153242Y-109691600D01*
X212327120Y-109726186D01*
G37*
G36*
X209787120Y-109726186D02*
G01*
X209787122Y-109726187D01*
X209787123Y-109726187D01*
X209824227Y-109741556D01*
X209950910Y-109794030D01*
X210098317Y-109892524D01*
X210223676Y-110017883D01*
X210322170Y-110165290D01*
X210390014Y-110329080D01*
X210424600Y-110502958D01*
X210424600Y-110680242D01*
X210390014Y-110854120D01*
X210322170Y-111017910D01*
X210223676Y-111165317D01*
X210098317Y-111290676D01*
X209950910Y-111389170D01*
X209824227Y-111441644D01*
X209787123Y-111457013D01*
X209787122Y-111457013D01*
X209787120Y-111457014D01*
X209613242Y-111491600D01*
X209435958Y-111491600D01*
X209262080Y-111457014D01*
X209262078Y-111457013D01*
X209262077Y-111457013D01*
X209224973Y-111441644D01*
X209098290Y-111389170D01*
X208950883Y-111290676D01*
X208825524Y-111165317D01*
X208727030Y-111017910D01*
X208659186Y-110854120D01*
X208624600Y-110680242D01*
X208624600Y-110502958D01*
X208659186Y-110329080D01*
X208727030Y-110165290D01*
X208825524Y-110017883D01*
X208950883Y-109892524D01*
X209098290Y-109794030D01*
X209224973Y-109741556D01*
X209262077Y-109726187D01*
X209262078Y-109726187D01*
X209262080Y-109726186D01*
X209435958Y-109691600D01*
X209613242Y-109691600D01*
X209787120Y-109726186D01*
G37*
G36*
X207247120Y-109726186D02*
G01*
X207247122Y-109726187D01*
X207247123Y-109726187D01*
X207284227Y-109741556D01*
X207410910Y-109794030D01*
X207558317Y-109892524D01*
X207683676Y-110017883D01*
X207782170Y-110165290D01*
X207850014Y-110329080D01*
X207884600Y-110502958D01*
X207884600Y-110680242D01*
X207850014Y-110854120D01*
X207782170Y-111017910D01*
X207683676Y-111165317D01*
X207558317Y-111290676D01*
X207410910Y-111389170D01*
X207284227Y-111441644D01*
X207247123Y-111457013D01*
X207247122Y-111457013D01*
X207247120Y-111457014D01*
X207073242Y-111491600D01*
X206895958Y-111491600D01*
X206722080Y-111457014D01*
X206722078Y-111457013D01*
X206722077Y-111457013D01*
X206684973Y-111441644D01*
X206558290Y-111389170D01*
X206410883Y-111290676D01*
X206285524Y-111165317D01*
X206187030Y-111017910D01*
X206119186Y-110854120D01*
X206084600Y-110680242D01*
X206084600Y-110502958D01*
X206119186Y-110329080D01*
X206187030Y-110165290D01*
X206285524Y-110017883D01*
X206410883Y-109892524D01*
X206558290Y-109794030D01*
X206684973Y-109741556D01*
X206722077Y-109726187D01*
X206722078Y-109726187D01*
X206722080Y-109726186D01*
X206895958Y-109691600D01*
X207073242Y-109691600D01*
X207247120Y-109726186D01*
G37*
G36*
X240277280Y-107186186D02*
G01*
X240277282Y-107186187D01*
X240277283Y-107186187D01*
X240314387Y-107201556D01*
X240441070Y-107254030D01*
X240588477Y-107352524D01*
X240713836Y-107477883D01*
X240812330Y-107625290D01*
X240880174Y-107789080D01*
X240914760Y-107962958D01*
X240914760Y-108140242D01*
X240880174Y-108314120D01*
X240812330Y-108477910D01*
X240713836Y-108625317D01*
X240588477Y-108750676D01*
X240441070Y-108849170D01*
X240314387Y-108901644D01*
X240277283Y-108917013D01*
X240277282Y-108917013D01*
X240277280Y-108917014D01*
X240103402Y-108951600D01*
X239926118Y-108951600D01*
X239752240Y-108917014D01*
X239752238Y-108917013D01*
X239752237Y-108917013D01*
X239715133Y-108901644D01*
X239588450Y-108849170D01*
X239441043Y-108750676D01*
X239315684Y-108625317D01*
X239217190Y-108477910D01*
X239149346Y-108314120D01*
X239114760Y-108140242D01*
X239114760Y-107962958D01*
X239149346Y-107789080D01*
X239217190Y-107625290D01*
X239315684Y-107477883D01*
X239441043Y-107352524D01*
X239588450Y-107254030D01*
X239715133Y-107201556D01*
X239752237Y-107186187D01*
X239752238Y-107186187D01*
X239752240Y-107186186D01*
X239926118Y-107151600D01*
X240103402Y-107151600D01*
X240277280Y-107186186D01*
G37*
G36*
X207247120Y-107186186D02*
G01*
X207247122Y-107186187D01*
X207247123Y-107186187D01*
X207284227Y-107201556D01*
X207410910Y-107254030D01*
X207558317Y-107352524D01*
X207683676Y-107477883D01*
X207782170Y-107625290D01*
X207850014Y-107789080D01*
X207884600Y-107962958D01*
X207884600Y-108140242D01*
X207850014Y-108314120D01*
X207782170Y-108477910D01*
X207683676Y-108625317D01*
X207558317Y-108750676D01*
X207410910Y-108849170D01*
X207284227Y-108901644D01*
X207247123Y-108917013D01*
X207247122Y-108917013D01*
X207247120Y-108917014D01*
X207073242Y-108951600D01*
X206895958Y-108951600D01*
X206722080Y-108917014D01*
X206722078Y-108917013D01*
X206722077Y-108917013D01*
X206684973Y-108901644D01*
X206558290Y-108849170D01*
X206410883Y-108750676D01*
X206285524Y-108625317D01*
X206187030Y-108477910D01*
X206119186Y-108314120D01*
X206084600Y-108140242D01*
X206084600Y-107962958D01*
X206119186Y-107789080D01*
X206187030Y-107625290D01*
X206285524Y-107477883D01*
X206410883Y-107352524D01*
X206558290Y-107254030D01*
X206684973Y-107201556D01*
X206722077Y-107186187D01*
X206722078Y-107186187D01*
X206722080Y-107186186D01*
X206895958Y-107151600D01*
X207073242Y-107151600D01*
X207247120Y-107186186D01*
G37*
G36*
X209787120Y-107186186D02*
G01*
X209787122Y-107186187D01*
X209787123Y-107186187D01*
X209824227Y-107201556D01*
X209950910Y-107254030D01*
X210098317Y-107352524D01*
X210223676Y-107477883D01*
X210322170Y-107625290D01*
X210390014Y-107789080D01*
X210424600Y-107962958D01*
X210424600Y-108140242D01*
X210390014Y-108314120D01*
X210322170Y-108477910D01*
X210223676Y-108625317D01*
X210098317Y-108750676D01*
X209950910Y-108849170D01*
X209824227Y-108901644D01*
X209787123Y-108917013D01*
X209787122Y-108917013D01*
X209787120Y-108917014D01*
X209613242Y-108951600D01*
X209435958Y-108951600D01*
X209262080Y-108917014D01*
X209262078Y-108917013D01*
X209262077Y-108917013D01*
X209224973Y-108901644D01*
X209098290Y-108849170D01*
X208950883Y-108750676D01*
X208825524Y-108625317D01*
X208727030Y-108477910D01*
X208659186Y-108314120D01*
X208624600Y-108140242D01*
X208624600Y-107962958D01*
X208659186Y-107789080D01*
X208727030Y-107625290D01*
X208825524Y-107477883D01*
X208950883Y-107352524D01*
X209098290Y-107254030D01*
X209224973Y-107201556D01*
X209262077Y-107186187D01*
X209262078Y-107186187D01*
X209262080Y-107186186D01*
X209435958Y-107151600D01*
X209613242Y-107151600D01*
X209787120Y-107186186D01*
G37*
G36*
X212327120Y-107186186D02*
G01*
X212327122Y-107186187D01*
X212327123Y-107186187D01*
X212364227Y-107201556D01*
X212490910Y-107254030D01*
X212638317Y-107352524D01*
X212763676Y-107477883D01*
X212862170Y-107625290D01*
X212930014Y-107789080D01*
X212964600Y-107962958D01*
X212964600Y-108140242D01*
X212930014Y-108314120D01*
X212862170Y-108477910D01*
X212763676Y-108625317D01*
X212638317Y-108750676D01*
X212490910Y-108849170D01*
X212364227Y-108901644D01*
X212327123Y-108917013D01*
X212327122Y-108917013D01*
X212327120Y-108917014D01*
X212153242Y-108951600D01*
X211975958Y-108951600D01*
X211802080Y-108917014D01*
X211802078Y-108917013D01*
X211802077Y-108917013D01*
X211764973Y-108901644D01*
X211638290Y-108849170D01*
X211490883Y-108750676D01*
X211365524Y-108625317D01*
X211267030Y-108477910D01*
X211199186Y-108314120D01*
X211164600Y-108140242D01*
X211164600Y-107962958D01*
X211199186Y-107789080D01*
X211267030Y-107625290D01*
X211365524Y-107477883D01*
X211490883Y-107352524D01*
X211638290Y-107254030D01*
X211764973Y-107201556D01*
X211802077Y-107186187D01*
X211802078Y-107186187D01*
X211802080Y-107186186D01*
X211975958Y-107151600D01*
X212153242Y-107151600D01*
X212327120Y-107186186D01*
G37*
G36*
X214867120Y-107186186D02*
G01*
X214867122Y-107186187D01*
X214867123Y-107186187D01*
X214904227Y-107201556D01*
X215030910Y-107254030D01*
X215178317Y-107352524D01*
X215303676Y-107477883D01*
X215402170Y-107625290D01*
X215470014Y-107789080D01*
X215504600Y-107962958D01*
X215504600Y-108140242D01*
X215470014Y-108314120D01*
X215402170Y-108477910D01*
X215303676Y-108625317D01*
X215178317Y-108750676D01*
X215030910Y-108849170D01*
X214904227Y-108901644D01*
X214867123Y-108917013D01*
X214867122Y-108917013D01*
X214867120Y-108917014D01*
X214693242Y-108951600D01*
X214515958Y-108951600D01*
X214342080Y-108917014D01*
X214342078Y-108917013D01*
X214342077Y-108917013D01*
X214304973Y-108901644D01*
X214178290Y-108849170D01*
X214030883Y-108750676D01*
X213905524Y-108625317D01*
X213807030Y-108477910D01*
X213739186Y-108314120D01*
X213704600Y-108140242D01*
X213704600Y-107962958D01*
X213739186Y-107789080D01*
X213807030Y-107625290D01*
X213905524Y-107477883D01*
X214030883Y-107352524D01*
X214178290Y-107254030D01*
X214304973Y-107201556D01*
X214342077Y-107186187D01*
X214342078Y-107186187D01*
X214342080Y-107186186D01*
X214515958Y-107151600D01*
X214693242Y-107151600D01*
X214867120Y-107186186D01*
G37*
G36*
X217407120Y-107186186D02*
G01*
X217407122Y-107186187D01*
X217407123Y-107186187D01*
X217444227Y-107201556D01*
X217570910Y-107254030D01*
X217718317Y-107352524D01*
X217843676Y-107477883D01*
X217942170Y-107625290D01*
X218010014Y-107789080D01*
X218044600Y-107962958D01*
X218044600Y-108140242D01*
X218010014Y-108314120D01*
X217942170Y-108477910D01*
X217843676Y-108625317D01*
X217718317Y-108750676D01*
X217570910Y-108849170D01*
X217444227Y-108901644D01*
X217407123Y-108917013D01*
X217407122Y-108917013D01*
X217407120Y-108917014D01*
X217233242Y-108951600D01*
X217055958Y-108951600D01*
X216882080Y-108917014D01*
X216882078Y-108917013D01*
X216882077Y-108917013D01*
X216844973Y-108901644D01*
X216718290Y-108849170D01*
X216570883Y-108750676D01*
X216445524Y-108625317D01*
X216347030Y-108477910D01*
X216279186Y-108314120D01*
X216244600Y-108140242D01*
X216244600Y-107962958D01*
X216279186Y-107789080D01*
X216347030Y-107625290D01*
X216445524Y-107477883D01*
X216570883Y-107352524D01*
X216718290Y-107254030D01*
X216844973Y-107201556D01*
X216882077Y-107186187D01*
X216882078Y-107186187D01*
X216882080Y-107186186D01*
X217055958Y-107151600D01*
X217233242Y-107151600D01*
X217407120Y-107186186D01*
G37*
G36*
X220584600Y-108951600D02*
G01*
X218784600Y-108951600D01*
X218784600Y-107151600D01*
X220584600Y-107151600D01*
X220584600Y-108951600D01*
G37*
G36*
X243454760Y-108951600D02*
G01*
X241654760Y-108951600D01*
X241654760Y-107151600D01*
X243454760Y-107151600D01*
X243454760Y-108951600D01*
G37*
G36*
X235197280Y-107186186D02*
G01*
X235197282Y-107186187D01*
X235197283Y-107186187D01*
X235234387Y-107201556D01*
X235361070Y-107254030D01*
X235508477Y-107352524D01*
X235633836Y-107477883D01*
X235732330Y-107625290D01*
X235800174Y-107789080D01*
X235834760Y-107962958D01*
X235834760Y-108140242D01*
X235800174Y-108314120D01*
X235732330Y-108477910D01*
X235633836Y-108625317D01*
X235508477Y-108750676D01*
X235361070Y-108849170D01*
X235234387Y-108901644D01*
X235197283Y-108917013D01*
X235197282Y-108917013D01*
X235197280Y-108917014D01*
X235023402Y-108951600D01*
X234846118Y-108951600D01*
X234672240Y-108917014D01*
X234672238Y-108917013D01*
X234672237Y-108917013D01*
X234635133Y-108901644D01*
X234508450Y-108849170D01*
X234361043Y-108750676D01*
X234235684Y-108625317D01*
X234137190Y-108477910D01*
X234069346Y-108314120D01*
X234034760Y-108140242D01*
X234034760Y-107962958D01*
X234069346Y-107789080D01*
X234137190Y-107625290D01*
X234235684Y-107477883D01*
X234361043Y-107352524D01*
X234508450Y-107254030D01*
X234635133Y-107201556D01*
X234672237Y-107186187D01*
X234672238Y-107186187D01*
X234672240Y-107186186D01*
X234846118Y-107151600D01*
X235023402Y-107151600D01*
X235197280Y-107186186D01*
G37*
G36*
X230117280Y-107186186D02*
G01*
X230117282Y-107186187D01*
X230117283Y-107186187D01*
X230154387Y-107201556D01*
X230281070Y-107254030D01*
X230428477Y-107352524D01*
X230553836Y-107477883D01*
X230652330Y-107625290D01*
X230720174Y-107789080D01*
X230754760Y-107962958D01*
X230754760Y-108140242D01*
X230720174Y-108314120D01*
X230652330Y-108477910D01*
X230553836Y-108625317D01*
X230428477Y-108750676D01*
X230281070Y-108849170D01*
X230154387Y-108901644D01*
X230117283Y-108917013D01*
X230117282Y-108917013D01*
X230117280Y-108917014D01*
X229943402Y-108951600D01*
X229766118Y-108951600D01*
X229592240Y-108917014D01*
X229592238Y-108917013D01*
X229592237Y-108917013D01*
X229555133Y-108901644D01*
X229428450Y-108849170D01*
X229281043Y-108750676D01*
X229155684Y-108625317D01*
X229057190Y-108477910D01*
X228989346Y-108314120D01*
X228954760Y-108140242D01*
X228954760Y-107962958D01*
X228989346Y-107789080D01*
X229057190Y-107625290D01*
X229155684Y-107477883D01*
X229281043Y-107352524D01*
X229428450Y-107254030D01*
X229555133Y-107201556D01*
X229592237Y-107186187D01*
X229592238Y-107186187D01*
X229592240Y-107186186D01*
X229766118Y-107151600D01*
X229943402Y-107151600D01*
X230117280Y-107186186D01*
G37*
G36*
X232657280Y-107186186D02*
G01*
X232657282Y-107186187D01*
X232657283Y-107186187D01*
X232694387Y-107201556D01*
X232821070Y-107254030D01*
X232968477Y-107352524D01*
X233093836Y-107477883D01*
X233192330Y-107625290D01*
X233260174Y-107789080D01*
X233294760Y-107962958D01*
X233294760Y-108140242D01*
X233260174Y-108314120D01*
X233192330Y-108477910D01*
X233093836Y-108625317D01*
X232968477Y-108750676D01*
X232821070Y-108849170D01*
X232694387Y-108901644D01*
X232657283Y-108917013D01*
X232657282Y-108917013D01*
X232657280Y-108917014D01*
X232483402Y-108951600D01*
X232306118Y-108951600D01*
X232132240Y-108917014D01*
X232132238Y-108917013D01*
X232132237Y-108917013D01*
X232095133Y-108901644D01*
X231968450Y-108849170D01*
X231821043Y-108750676D01*
X231695684Y-108625317D01*
X231597190Y-108477910D01*
X231529346Y-108314120D01*
X231494760Y-108140242D01*
X231494760Y-107962958D01*
X231529346Y-107789080D01*
X231597190Y-107625290D01*
X231695684Y-107477883D01*
X231821043Y-107352524D01*
X231968450Y-107254030D01*
X232095133Y-107201556D01*
X232132237Y-107186187D01*
X232132238Y-107186187D01*
X232132240Y-107186186D01*
X232306118Y-107151600D01*
X232483402Y-107151600D01*
X232657280Y-107186186D01*
G37*
G36*
X237737280Y-107186186D02*
G01*
X237737282Y-107186187D01*
X237737283Y-107186187D01*
X237774387Y-107201556D01*
X237901070Y-107254030D01*
X238048477Y-107352524D01*
X238173836Y-107477883D01*
X238272330Y-107625290D01*
X238340174Y-107789080D01*
X238374760Y-107962958D01*
X238374760Y-108140242D01*
X238340174Y-108314120D01*
X238272330Y-108477910D01*
X238173836Y-108625317D01*
X238048477Y-108750676D01*
X237901070Y-108849170D01*
X237774387Y-108901644D01*
X237737283Y-108917013D01*
X237737282Y-108917013D01*
X237737280Y-108917014D01*
X237563402Y-108951600D01*
X237386118Y-108951600D01*
X237212240Y-108917014D01*
X237212238Y-108917013D01*
X237212237Y-108917013D01*
X237175133Y-108901644D01*
X237048450Y-108849170D01*
X236901043Y-108750676D01*
X236775684Y-108625317D01*
X236677190Y-108477910D01*
X236609346Y-108314120D01*
X236574760Y-108140242D01*
X236574760Y-107962958D01*
X236609346Y-107789080D01*
X236677190Y-107625290D01*
X236775684Y-107477883D01*
X236901043Y-107352524D01*
X237048450Y-107254030D01*
X237175133Y-107201556D01*
X237212237Y-107186187D01*
X237212238Y-107186187D01*
X237212240Y-107186186D01*
X237386118Y-107151600D01*
X237563402Y-107151600D01*
X237737280Y-107186186D01*
G37*
G36*
X247691689Y-105388429D02*
G01*
X247691691Y-105388430D01*
X247691692Y-105388430D01*
X247703041Y-105393131D01*
X247873678Y-105463811D01*
X248037463Y-105573249D01*
X248176751Y-105712537D01*
X248286189Y-105876322D01*
X248361571Y-106058311D01*
X248400000Y-106251509D01*
X248400000Y-106448491D01*
X248361571Y-106641689D01*
X248286189Y-106823678D01*
X248176751Y-106987463D01*
X248037463Y-107126751D01*
X247873678Y-107236189D01*
X247732918Y-107294493D01*
X247691692Y-107311570D01*
X247691691Y-107311570D01*
X247691689Y-107311571D01*
X247498491Y-107350000D01*
X247301509Y-107350000D01*
X247108311Y-107311571D01*
X247108309Y-107311570D01*
X247108308Y-107311570D01*
X247067082Y-107294493D01*
X246926322Y-107236189D01*
X246762537Y-107126751D01*
X246623249Y-106987463D01*
X246513811Y-106823678D01*
X246438429Y-106641689D01*
X246400000Y-106448491D01*
X246400000Y-106251509D01*
X246438429Y-106058311D01*
X246513811Y-105876322D01*
X246623249Y-105712537D01*
X246762537Y-105573249D01*
X246926322Y-105463811D01*
X247096959Y-105393131D01*
X247108308Y-105388430D01*
X247108309Y-105388430D01*
X247108311Y-105388429D01*
X247301509Y-105350000D01*
X247498491Y-105350000D01*
X247691689Y-105388429D01*
G37*
G36*
X242791689Y-104788429D02*
G01*
X242791691Y-104788430D01*
X242791692Y-104788430D01*
X242832918Y-104805507D01*
X242973678Y-104863811D01*
X243137463Y-104973249D01*
X243276751Y-105112537D01*
X243386189Y-105276322D01*
X243461571Y-105458311D01*
X243500000Y-105651509D01*
X243500000Y-105848491D01*
X243461571Y-106041689D01*
X243386189Y-106223678D01*
X243276751Y-106387463D01*
X243137463Y-106526751D01*
X242973678Y-106636189D01*
X242832918Y-106694493D01*
X242791692Y-106711570D01*
X242791691Y-106711570D01*
X242791689Y-106711571D01*
X242598491Y-106750000D01*
X242401509Y-106750000D01*
X242208311Y-106711571D01*
X242208309Y-106711570D01*
X242208308Y-106711570D01*
X242167082Y-106694493D01*
X242026322Y-106636189D01*
X241862537Y-106526751D01*
X241723249Y-106387463D01*
X241613811Y-106223678D01*
X241538429Y-106041689D01*
X241500000Y-105848491D01*
X241500000Y-105651509D01*
X241538429Y-105458311D01*
X241613811Y-105276322D01*
X241723249Y-105112537D01*
X241862537Y-104973249D01*
X242026322Y-104863811D01*
X242167082Y-104805507D01*
X242208308Y-104788430D01*
X242208309Y-104788430D01*
X242208311Y-104788429D01*
X242401509Y-104750000D01*
X242598491Y-104750000D01*
X242791689Y-104788429D01*
G37*
G36*
X208961032Y-105383075D02*
G01*
X208988696Y-105391467D01*
X209014202Y-105405099D01*
X209036555Y-105423445D01*
X209054901Y-105445798D01*
X209068533Y-105471304D01*
X209076925Y-105498968D01*
X209080000Y-105530186D01*
X209080000Y-105969814D01*
X209076925Y-106001032D01*
X209068533Y-106028696D01*
X209054901Y-106054202D01*
X209036555Y-106076555D01*
X209014202Y-106094901D01*
X208988696Y-106108533D01*
X208961032Y-106116925D01*
X208929814Y-106120000D01*
X208540186Y-106120000D01*
X208508968Y-106116925D01*
X208481304Y-106108533D01*
X208455798Y-106094901D01*
X208433445Y-106076555D01*
X208415099Y-106054202D01*
X208401467Y-106028696D01*
X208393075Y-106001032D01*
X208390000Y-105969814D01*
X208390000Y-105530186D01*
X208393075Y-105498968D01*
X208401467Y-105471304D01*
X208415099Y-105445798D01*
X208433445Y-105423445D01*
X208455798Y-105405099D01*
X208481304Y-105391467D01*
X208508968Y-105383075D01*
X208540186Y-105380000D01*
X208929814Y-105380000D01*
X208961032Y-105383075D01*
G37*
G36*
X231711032Y-105383075D02*
G01*
X231738696Y-105391467D01*
X231764202Y-105405099D01*
X231786555Y-105423445D01*
X231804901Y-105445798D01*
X231818533Y-105471304D01*
X231826925Y-105498968D01*
X231830000Y-105530186D01*
X231830000Y-105969814D01*
X231826925Y-106001032D01*
X231818533Y-106028696D01*
X231804901Y-106054202D01*
X231786555Y-106076555D01*
X231764202Y-106094901D01*
X231738696Y-106108533D01*
X231711032Y-106116925D01*
X231679814Y-106120000D01*
X231290186Y-106120000D01*
X231258968Y-106116925D01*
X231231304Y-106108533D01*
X231205798Y-106094901D01*
X231183445Y-106076555D01*
X231165099Y-106054202D01*
X231151467Y-106028696D01*
X231143075Y-106001032D01*
X231140000Y-105969814D01*
X231140000Y-105530186D01*
X231143075Y-105498968D01*
X231151467Y-105471304D01*
X231165099Y-105445798D01*
X231183445Y-105423445D01*
X231205798Y-105405099D01*
X231231304Y-105391467D01*
X231258968Y-105383075D01*
X231290186Y-105380000D01*
X231679814Y-105380000D01*
X231711032Y-105383075D01*
G37*
G36*
X230741032Y-105383075D02*
G01*
X230768696Y-105391467D01*
X230794202Y-105405099D01*
X230816555Y-105423445D01*
X230834901Y-105445798D01*
X230848533Y-105471304D01*
X230856925Y-105498968D01*
X230860000Y-105530186D01*
X230860000Y-105969814D01*
X230856925Y-106001032D01*
X230848533Y-106028696D01*
X230834901Y-106054202D01*
X230816555Y-106076555D01*
X230794202Y-106094901D01*
X230768696Y-106108533D01*
X230741032Y-106116925D01*
X230709814Y-106120000D01*
X230320186Y-106120000D01*
X230288968Y-106116925D01*
X230261304Y-106108533D01*
X230235798Y-106094901D01*
X230213445Y-106076555D01*
X230195099Y-106054202D01*
X230181467Y-106028696D01*
X230173075Y-106001032D01*
X230170000Y-105969814D01*
X230170000Y-105530186D01*
X230173075Y-105498968D01*
X230181467Y-105471304D01*
X230195099Y-105445798D01*
X230213445Y-105423445D01*
X230235798Y-105405099D01*
X230261304Y-105391467D01*
X230288968Y-105383075D01*
X230320186Y-105380000D01*
X230709814Y-105380000D01*
X230741032Y-105383075D01*
G37*
G36*
X207991032Y-105383075D02*
G01*
X208018696Y-105391467D01*
X208044202Y-105405099D01*
X208066555Y-105423445D01*
X208084901Y-105445798D01*
X208098533Y-105471304D01*
X208106925Y-105498968D01*
X208110000Y-105530186D01*
X208110000Y-105969814D01*
X208106925Y-106001032D01*
X208098533Y-106028696D01*
X208084901Y-106054202D01*
X208066555Y-106076555D01*
X208044202Y-106094901D01*
X208018696Y-106108533D01*
X207991032Y-106116925D01*
X207959814Y-106120000D01*
X207570186Y-106120000D01*
X207538968Y-106116925D01*
X207511304Y-106108533D01*
X207485798Y-106094901D01*
X207463445Y-106076555D01*
X207445099Y-106054202D01*
X207431467Y-106028696D01*
X207423075Y-106001032D01*
X207420000Y-105969814D01*
X207420000Y-105530186D01*
X207423075Y-105498968D01*
X207431467Y-105471304D01*
X207445099Y-105445798D01*
X207463445Y-105423445D01*
X207485798Y-105405099D01*
X207511304Y-105391467D01*
X207538968Y-105383075D01*
X207570186Y-105380000D01*
X207959814Y-105380000D01*
X207991032Y-105383075D01*
G37*
G36*
X238051032Y-102643075D02*
G01*
X238078696Y-102651467D01*
X238104202Y-102665099D01*
X238126555Y-102683445D01*
X238144901Y-102705798D01*
X238158533Y-102731304D01*
X238166925Y-102758968D01*
X238170000Y-102790186D01*
X238170000Y-103179814D01*
X238166925Y-103211032D01*
X238158533Y-103238696D01*
X238144901Y-103264202D01*
X238126555Y-103286555D01*
X238104202Y-103304901D01*
X238078696Y-103318533D01*
X238051032Y-103326925D01*
X238019814Y-103330000D01*
X237580186Y-103330000D01*
X237548968Y-103326925D01*
X237521304Y-103318533D01*
X237495798Y-103304901D01*
X237473445Y-103286555D01*
X237455099Y-103264202D01*
X237441467Y-103238696D01*
X237433075Y-103211032D01*
X237430000Y-103179814D01*
X237430000Y-102790186D01*
X237433075Y-102758968D01*
X237441467Y-102731304D01*
X237455099Y-102705798D01*
X237473445Y-102683445D01*
X237495798Y-102665099D01*
X237521304Y-102651467D01*
X237548968Y-102643075D01*
X237580186Y-102640000D01*
X238019814Y-102640000D01*
X238051032Y-102643075D01*
G37*
G36*
X237051032Y-102643075D02*
G01*
X237078696Y-102651467D01*
X237104202Y-102665099D01*
X237126555Y-102683445D01*
X237144901Y-102705798D01*
X237158533Y-102731304D01*
X237166925Y-102758968D01*
X237170000Y-102790186D01*
X237170000Y-103179814D01*
X237166925Y-103211032D01*
X237158533Y-103238696D01*
X237144901Y-103264202D01*
X237126555Y-103286555D01*
X237104202Y-103304901D01*
X237078696Y-103318533D01*
X237051032Y-103326925D01*
X237019814Y-103330000D01*
X236580186Y-103330000D01*
X236548968Y-103326925D01*
X236521304Y-103318533D01*
X236495798Y-103304901D01*
X236473445Y-103286555D01*
X236455099Y-103264202D01*
X236441467Y-103238696D01*
X236433075Y-103211032D01*
X236430000Y-103179814D01*
X236430000Y-102790186D01*
X236433075Y-102758968D01*
X236441467Y-102731304D01*
X236455099Y-102705798D01*
X236473445Y-102683445D01*
X236495798Y-102665099D01*
X236521304Y-102651467D01*
X236548968Y-102643075D01*
X236580186Y-102640000D01*
X237019814Y-102640000D01*
X237051032Y-102643075D01*
G37*
G36*
X239051032Y-102643075D02*
G01*
X239078696Y-102651467D01*
X239104202Y-102665099D01*
X239126555Y-102683445D01*
X239144901Y-102705798D01*
X239158533Y-102731304D01*
X239166925Y-102758968D01*
X239170000Y-102790186D01*
X239170000Y-103179814D01*
X239166925Y-103211032D01*
X239158533Y-103238696D01*
X239144901Y-103264202D01*
X239126555Y-103286555D01*
X239104202Y-103304901D01*
X239078696Y-103318533D01*
X239051032Y-103326925D01*
X239019814Y-103330000D01*
X238580186Y-103330000D01*
X238548968Y-103326925D01*
X238521304Y-103318533D01*
X238495798Y-103304901D01*
X238473445Y-103286555D01*
X238455099Y-103264202D01*
X238441467Y-103238696D01*
X238433075Y-103211032D01*
X238430000Y-103179814D01*
X238430000Y-102790186D01*
X238433075Y-102758968D01*
X238441467Y-102731304D01*
X238455099Y-102705798D01*
X238473445Y-102683445D01*
X238495798Y-102665099D01*
X238521304Y-102651467D01*
X238548968Y-102643075D01*
X238580186Y-102640000D01*
X239019814Y-102640000D01*
X239051032Y-102643075D01*
G37*
G36*
X240051032Y-102643075D02*
G01*
X240078696Y-102651467D01*
X240104202Y-102665099D01*
X240126555Y-102683445D01*
X240144901Y-102705798D01*
X240158533Y-102731304D01*
X240166925Y-102758968D01*
X240170000Y-102790186D01*
X240170000Y-103179814D01*
X240166925Y-103211032D01*
X240158533Y-103238696D01*
X240144901Y-103264202D01*
X240126555Y-103286555D01*
X240104202Y-103304901D01*
X240078696Y-103318533D01*
X240051032Y-103326925D01*
X240019814Y-103330000D01*
X239580186Y-103330000D01*
X239548968Y-103326925D01*
X239521304Y-103318533D01*
X239495798Y-103304901D01*
X239473445Y-103286555D01*
X239455099Y-103264202D01*
X239441467Y-103238696D01*
X239433075Y-103211032D01*
X239430000Y-103179814D01*
X239430000Y-102790186D01*
X239433075Y-102758968D01*
X239441467Y-102731304D01*
X239455099Y-102705798D01*
X239473445Y-102683445D01*
X239495798Y-102665099D01*
X239521304Y-102651467D01*
X239548968Y-102643075D01*
X239580186Y-102640000D01*
X240019814Y-102640000D01*
X240051032Y-102643075D01*
G37*
G36*
X238051032Y-101673075D02*
G01*
X238078696Y-101681467D01*
X238104202Y-101695099D01*
X238126555Y-101713445D01*
X238144901Y-101735798D01*
X238158533Y-101761304D01*
X238166925Y-101788968D01*
X238170000Y-101820186D01*
X238170000Y-102209814D01*
X238166925Y-102241032D01*
X238158533Y-102268696D01*
X238144901Y-102294202D01*
X238126555Y-102316555D01*
X238104202Y-102334901D01*
X238078696Y-102348533D01*
X238051032Y-102356925D01*
X238019814Y-102360000D01*
X237580186Y-102360000D01*
X237548968Y-102356925D01*
X237521304Y-102348533D01*
X237495798Y-102334901D01*
X237473445Y-102316555D01*
X237455099Y-102294202D01*
X237441467Y-102268696D01*
X237433075Y-102241032D01*
X237430000Y-102209814D01*
X237430000Y-101820186D01*
X237433075Y-101788968D01*
X237441467Y-101761304D01*
X237455099Y-101735798D01*
X237473445Y-101713445D01*
X237495798Y-101695099D01*
X237521304Y-101681467D01*
X237548968Y-101673075D01*
X237580186Y-101670000D01*
X238019814Y-101670000D01*
X238051032Y-101673075D01*
G37*
G36*
X240051032Y-101673075D02*
G01*
X240078696Y-101681467D01*
X240104202Y-101695099D01*
X240126555Y-101713445D01*
X240144901Y-101735798D01*
X240158533Y-101761304D01*
X240166925Y-101788968D01*
X240170000Y-101820186D01*
X240170000Y-102209814D01*
X240166925Y-102241032D01*
X240158533Y-102268696D01*
X240144901Y-102294202D01*
X240126555Y-102316555D01*
X240104202Y-102334901D01*
X240078696Y-102348533D01*
X240051032Y-102356925D01*
X240019814Y-102360000D01*
X239580186Y-102360000D01*
X239548968Y-102356925D01*
X239521304Y-102348533D01*
X239495798Y-102334901D01*
X239473445Y-102316555D01*
X239455099Y-102294202D01*
X239441467Y-102268696D01*
X239433075Y-102241032D01*
X239430000Y-102209814D01*
X239430000Y-101820186D01*
X239433075Y-101788968D01*
X239441467Y-101761304D01*
X239455099Y-101735798D01*
X239473445Y-101713445D01*
X239495798Y-101695099D01*
X239521304Y-101681467D01*
X239548968Y-101673075D01*
X239580186Y-101670000D01*
X240019814Y-101670000D01*
X240051032Y-101673075D01*
G37*
G36*
X239051032Y-101673075D02*
G01*
X239078696Y-101681467D01*
X239104202Y-101695099D01*
X239126555Y-101713445D01*
X239144901Y-101735798D01*
X239158533Y-101761304D01*
X239166925Y-101788968D01*
X239170000Y-101820186D01*
X239170000Y-102209814D01*
X239166925Y-102241032D01*
X239158533Y-102268696D01*
X239144901Y-102294202D01*
X239126555Y-102316555D01*
X239104202Y-102334901D01*
X239078696Y-102348533D01*
X239051032Y-102356925D01*
X239019814Y-102360000D01*
X238580186Y-102360000D01*
X238548968Y-102356925D01*
X238521304Y-102348533D01*
X238495798Y-102334901D01*
X238473445Y-102316555D01*
X238455099Y-102294202D01*
X238441467Y-102268696D01*
X238433075Y-102241032D01*
X238430000Y-102209814D01*
X238430000Y-101820186D01*
X238433075Y-101788968D01*
X238441467Y-101761304D01*
X238455099Y-101735798D01*
X238473445Y-101713445D01*
X238495798Y-101695099D01*
X238521304Y-101681467D01*
X238548968Y-101673075D01*
X238580186Y-101670000D01*
X239019814Y-101670000D01*
X239051032Y-101673075D01*
G37*
G36*
X237051032Y-101673075D02*
G01*
X237078696Y-101681467D01*
X237104202Y-101695099D01*
X237126555Y-101713445D01*
X237144901Y-101735798D01*
X237158533Y-101761304D01*
X237166925Y-101788968D01*
X237170000Y-101820186D01*
X237170000Y-102209814D01*
X237166925Y-102241032D01*
X237158533Y-102268696D01*
X237144901Y-102294202D01*
X237126555Y-102316555D01*
X237104202Y-102334901D01*
X237078696Y-102348533D01*
X237051032Y-102356925D01*
X237019814Y-102360000D01*
X236580186Y-102360000D01*
X236548968Y-102356925D01*
X236521304Y-102348533D01*
X236495798Y-102334901D01*
X236473445Y-102316555D01*
X236455099Y-102294202D01*
X236441467Y-102268696D01*
X236433075Y-102241032D01*
X236430000Y-102209814D01*
X236430000Y-101820186D01*
X236433075Y-101788968D01*
X236441467Y-101761304D01*
X236455099Y-101735798D01*
X236473445Y-101713445D01*
X236495798Y-101695099D01*
X236521304Y-101681467D01*
X236548968Y-101673075D01*
X236580186Y-101670000D01*
X237019814Y-101670000D01*
X237051032Y-101673075D01*
G37*
G36*
X201989922Y-100359405D02*
G01*
X202112448Y-100396573D01*
X202225368Y-100456930D01*
X202324343Y-100538157D01*
X202405570Y-100637132D01*
X202465927Y-100750052D01*
X202503095Y-100872578D01*
X202515645Y-101000000D01*
X202503095Y-101127422D01*
X202465927Y-101249948D01*
X202405570Y-101362868D01*
X202324343Y-101461843D01*
X202225368Y-101543070D01*
X202112448Y-101603427D01*
X201989922Y-101640595D01*
X201894432Y-101650000D01*
X201130568Y-101650000D01*
X201035078Y-101640595D01*
X200912552Y-101603427D01*
X200799632Y-101543070D01*
X200700657Y-101461843D01*
X200619430Y-101362868D01*
X200559073Y-101249948D01*
X200521905Y-101127422D01*
X200509355Y-101000000D01*
X200521905Y-100872578D01*
X200559073Y-100750052D01*
X200619430Y-100637132D01*
X200700657Y-100538157D01*
X200799632Y-100456930D01*
X200912552Y-100396573D01*
X201035078Y-100359405D01*
X201130568Y-100350000D01*
X201894432Y-100350000D01*
X201989922Y-100359405D01*
G37*
G36*
X204438559Y-99254783D02*
G01*
X204579600Y-99313204D01*
X204706534Y-99398018D01*
X204814482Y-99505966D01*
X204899296Y-99632900D01*
X204957717Y-99773941D01*
X204987500Y-99923669D01*
X204987500Y-100076331D01*
X204957717Y-100226059D01*
X204899296Y-100367100D01*
X204814482Y-100494034D01*
X204706534Y-100601982D01*
X204579600Y-100686796D01*
X204438559Y-100745217D01*
X204288831Y-100775000D01*
X204136169Y-100775000D01*
X203986441Y-100745217D01*
X203845400Y-100686796D01*
X203718466Y-100601982D01*
X203610518Y-100494034D01*
X203525704Y-100367100D01*
X203467283Y-100226059D01*
X203437500Y-100076331D01*
X203437500Y-99923669D01*
X203467283Y-99773941D01*
X203525704Y-99632900D01*
X203610518Y-99505966D01*
X203718466Y-99398018D01*
X203845400Y-99313204D01*
X203986441Y-99254783D01*
X204136169Y-99225000D01*
X204288831Y-99225000D01*
X204438559Y-99254783D01*
G37*
G36*
X231168157Y-98551641D02*
G01*
X231195821Y-98560033D01*
X231221327Y-98573665D01*
X231245574Y-98593565D01*
X231261345Y-98609336D01*
X231261351Y-98609341D01*
X231540659Y-98888649D01*
X231540664Y-98888655D01*
X231556435Y-98904426D01*
X231576335Y-98928673D01*
X231589967Y-98954179D01*
X231598359Y-98981843D01*
X231601194Y-99010625D01*
X231598359Y-99039407D01*
X231589967Y-99067071D01*
X231576335Y-99092577D01*
X231556435Y-99116824D01*
X231540664Y-99132595D01*
X231540659Y-99132601D01*
X231296707Y-99376553D01*
X231296701Y-99376558D01*
X231280930Y-99392329D01*
X231256683Y-99412229D01*
X231231177Y-99425861D01*
X231203513Y-99434253D01*
X231174731Y-99437088D01*
X231145949Y-99434253D01*
X231118285Y-99425861D01*
X231092779Y-99412229D01*
X231068532Y-99392329D01*
X231052761Y-99376558D01*
X231052755Y-99376553D01*
X230773447Y-99097245D01*
X230773442Y-99097239D01*
X230757671Y-99081468D01*
X230737771Y-99057221D01*
X230724139Y-99031715D01*
X230715747Y-99004051D01*
X230712912Y-98975269D01*
X230715747Y-98946487D01*
X230724139Y-98918823D01*
X230737771Y-98893317D01*
X230757671Y-98869070D01*
X230773442Y-98853299D01*
X230773447Y-98853293D01*
X231017399Y-98609341D01*
X231017405Y-98609336D01*
X231033176Y-98593565D01*
X231057423Y-98573665D01*
X231082929Y-98560033D01*
X231110593Y-98551641D01*
X231139375Y-98548806D01*
X231168157Y-98551641D01*
G37*
G36*
X231854051Y-97865747D02*
G01*
X231881715Y-97874139D01*
X231907221Y-97887771D01*
X231931468Y-97907671D01*
X231947239Y-97923442D01*
X231947245Y-97923447D01*
X232226553Y-98202755D01*
X232226558Y-98202761D01*
X232242329Y-98218532D01*
X232262229Y-98242779D01*
X232275861Y-98268285D01*
X232284253Y-98295949D01*
X232287088Y-98324731D01*
X232284253Y-98353513D01*
X232275861Y-98381177D01*
X232262229Y-98406683D01*
X232242329Y-98430930D01*
X232226558Y-98446701D01*
X232226553Y-98446707D01*
X231982601Y-98690659D01*
X231982595Y-98690664D01*
X231966824Y-98706435D01*
X231942577Y-98726335D01*
X231917071Y-98739967D01*
X231889407Y-98748359D01*
X231860625Y-98751194D01*
X231831843Y-98748359D01*
X231804179Y-98739967D01*
X231778673Y-98726335D01*
X231754426Y-98706435D01*
X231738655Y-98690664D01*
X231738649Y-98690659D01*
X231459341Y-98411351D01*
X231459336Y-98411345D01*
X231443565Y-98395574D01*
X231423665Y-98371327D01*
X231410033Y-98345821D01*
X231401641Y-98318157D01*
X231398806Y-98289375D01*
X231401641Y-98260593D01*
X231410033Y-98232929D01*
X231423665Y-98207423D01*
X231443565Y-98183176D01*
X231459336Y-98167405D01*
X231459341Y-98167399D01*
X231703293Y-97923447D01*
X231703299Y-97923442D01*
X231719070Y-97907671D01*
X231743317Y-97887771D01*
X231768823Y-97874139D01*
X231796487Y-97865747D01*
X231825269Y-97862912D01*
X231854051Y-97865747D01*
G37*
G36*
X230368157Y-97751641D02*
G01*
X230395821Y-97760033D01*
X230421327Y-97773665D01*
X230445574Y-97793565D01*
X230461345Y-97809336D01*
X230461351Y-97809341D01*
X230740659Y-98088649D01*
X230740664Y-98088655D01*
X230756435Y-98104426D01*
X230776335Y-98128673D01*
X230789967Y-98154179D01*
X230798359Y-98181843D01*
X230801194Y-98210625D01*
X230798359Y-98239407D01*
X230789967Y-98267071D01*
X230776335Y-98292577D01*
X230756435Y-98316824D01*
X230740664Y-98332595D01*
X230740659Y-98332601D01*
X230496707Y-98576553D01*
X230496701Y-98576558D01*
X230480930Y-98592329D01*
X230456683Y-98612229D01*
X230431177Y-98625861D01*
X230403513Y-98634253D01*
X230374731Y-98637088D01*
X230345949Y-98634253D01*
X230318285Y-98625861D01*
X230292779Y-98612229D01*
X230268532Y-98592329D01*
X230252761Y-98576558D01*
X230252755Y-98576553D01*
X229973447Y-98297245D01*
X229973442Y-98297239D01*
X229957671Y-98281468D01*
X229937771Y-98257221D01*
X229924139Y-98231715D01*
X229915747Y-98204051D01*
X229912912Y-98175269D01*
X229915747Y-98146487D01*
X229924139Y-98118823D01*
X229937771Y-98093317D01*
X229957671Y-98069070D01*
X229973442Y-98053299D01*
X229973447Y-98053293D01*
X230217399Y-97809341D01*
X230217405Y-97809336D01*
X230233176Y-97793565D01*
X230257423Y-97773665D01*
X230282929Y-97760033D01*
X230310593Y-97751641D01*
X230339375Y-97748806D01*
X230368157Y-97751641D01*
G37*
G36*
X231054051Y-97065747D02*
G01*
X231081715Y-97074139D01*
X231107221Y-97087771D01*
X231131468Y-97107671D01*
X231147239Y-97123442D01*
X231147245Y-97123447D01*
X231426553Y-97402755D01*
X231426558Y-97402761D01*
X231442329Y-97418532D01*
X231462229Y-97442779D01*
X231475861Y-97468285D01*
X231484253Y-97495949D01*
X231487088Y-97524731D01*
X231484253Y-97553513D01*
X231475861Y-97581177D01*
X231462229Y-97606683D01*
X231442329Y-97630930D01*
X231426558Y-97646701D01*
X231426553Y-97646707D01*
X231182601Y-97890659D01*
X231182595Y-97890664D01*
X231166824Y-97906435D01*
X231142577Y-97926335D01*
X231117071Y-97939967D01*
X231089407Y-97948359D01*
X231060625Y-97951194D01*
X231031843Y-97948359D01*
X231004179Y-97939967D01*
X230978673Y-97926335D01*
X230954426Y-97906435D01*
X230938655Y-97890664D01*
X230938649Y-97890659D01*
X230659341Y-97611351D01*
X230659336Y-97611345D01*
X230643565Y-97595574D01*
X230623665Y-97571327D01*
X230610033Y-97545821D01*
X230601641Y-97518157D01*
X230598806Y-97489375D01*
X230601641Y-97460593D01*
X230610033Y-97432929D01*
X230623665Y-97407423D01*
X230643565Y-97383176D01*
X230659336Y-97367405D01*
X230659341Y-97367399D01*
X230903293Y-97123447D01*
X230903299Y-97123442D01*
X230919070Y-97107671D01*
X230943317Y-97087771D01*
X230968823Y-97074139D01*
X230996487Y-97065747D01*
X231025269Y-97062912D01*
X231054051Y-97065747D01*
G37*
G36*
X229568157Y-96951641D02*
G01*
X229595821Y-96960033D01*
X229621327Y-96973665D01*
X229645574Y-96993565D01*
X229661345Y-97009336D01*
X229661351Y-97009341D01*
X229940659Y-97288649D01*
X229940664Y-97288655D01*
X229956435Y-97304426D01*
X229976335Y-97328673D01*
X229989967Y-97354179D01*
X229998359Y-97381843D01*
X230001194Y-97410625D01*
X229998359Y-97439407D01*
X229989967Y-97467071D01*
X229976335Y-97492577D01*
X229956435Y-97516824D01*
X229940664Y-97532595D01*
X229940659Y-97532601D01*
X229696707Y-97776553D01*
X229696701Y-97776558D01*
X229680930Y-97792329D01*
X229656683Y-97812229D01*
X229631177Y-97825861D01*
X229603513Y-97834253D01*
X229574731Y-97837088D01*
X229545949Y-97834253D01*
X229518285Y-97825861D01*
X229492779Y-97812229D01*
X229468532Y-97792329D01*
X229452761Y-97776558D01*
X229452755Y-97776553D01*
X229173447Y-97497245D01*
X229173442Y-97497239D01*
X229157671Y-97481468D01*
X229137771Y-97457221D01*
X229124139Y-97431715D01*
X229115747Y-97404051D01*
X229112912Y-97375269D01*
X229115747Y-97346487D01*
X229124139Y-97318823D01*
X229137771Y-97293317D01*
X229157671Y-97269070D01*
X229173442Y-97253299D01*
X229173447Y-97253293D01*
X229417399Y-97009341D01*
X229417405Y-97009336D01*
X229433176Y-96993565D01*
X229457423Y-96973665D01*
X229482929Y-96960033D01*
X229510593Y-96951641D01*
X229539375Y-96948806D01*
X229568157Y-96951641D01*
G37*
G36*
X233068157Y-96651641D02*
G01*
X233095821Y-96660033D01*
X233121327Y-96673665D01*
X233145574Y-96693565D01*
X233161345Y-96709336D01*
X233161351Y-96709341D01*
X233440659Y-96988649D01*
X233440664Y-96988655D01*
X233456435Y-97004426D01*
X233476335Y-97028673D01*
X233489967Y-97054179D01*
X233498359Y-97081843D01*
X233501194Y-97110625D01*
X233498359Y-97139407D01*
X233489967Y-97167071D01*
X233476335Y-97192577D01*
X233456435Y-97216824D01*
X233440664Y-97232595D01*
X233440659Y-97232601D01*
X233196707Y-97476553D01*
X233196701Y-97476558D01*
X233180930Y-97492329D01*
X233156683Y-97512229D01*
X233131177Y-97525861D01*
X233103513Y-97534253D01*
X233074731Y-97537088D01*
X233045949Y-97534253D01*
X233018285Y-97525861D01*
X232992779Y-97512229D01*
X232968532Y-97492329D01*
X232952761Y-97476558D01*
X232952755Y-97476553D01*
X232673447Y-97197245D01*
X232673442Y-97197239D01*
X232657671Y-97181468D01*
X232637771Y-97157221D01*
X232624139Y-97131715D01*
X232615747Y-97104051D01*
X232612912Y-97075269D01*
X232615747Y-97046487D01*
X232624139Y-97018823D01*
X232637771Y-96993317D01*
X232657671Y-96969070D01*
X232673442Y-96953299D01*
X232673447Y-96953293D01*
X232917399Y-96709341D01*
X232917405Y-96709336D01*
X232933176Y-96693565D01*
X232957423Y-96673665D01*
X232982929Y-96660033D01*
X233010593Y-96651641D01*
X233039375Y-96648806D01*
X233068157Y-96651641D01*
G37*
G36*
X230254051Y-96265747D02*
G01*
X230281715Y-96274139D01*
X230307221Y-96287771D01*
X230331468Y-96307671D01*
X230347239Y-96323442D01*
X230347245Y-96323447D01*
X230626553Y-96602755D01*
X230626558Y-96602761D01*
X230642329Y-96618532D01*
X230662229Y-96642779D01*
X230675861Y-96668285D01*
X230684253Y-96695949D01*
X230687088Y-96724731D01*
X230684253Y-96753513D01*
X230675861Y-96781177D01*
X230662229Y-96806683D01*
X230642329Y-96830930D01*
X230626558Y-96846701D01*
X230626553Y-96846707D01*
X230382601Y-97090659D01*
X230382595Y-97090664D01*
X230366824Y-97106435D01*
X230342577Y-97126335D01*
X230317071Y-97139967D01*
X230289407Y-97148359D01*
X230260625Y-97151194D01*
X230231843Y-97148359D01*
X230204179Y-97139967D01*
X230178673Y-97126335D01*
X230154426Y-97106435D01*
X230138655Y-97090664D01*
X230138649Y-97090659D01*
X229859341Y-96811351D01*
X229859336Y-96811345D01*
X229843565Y-96795574D01*
X229823665Y-96771327D01*
X229810033Y-96745821D01*
X229801641Y-96718157D01*
X229798806Y-96689375D01*
X229801641Y-96660593D01*
X229810033Y-96632929D01*
X229823665Y-96607423D01*
X229843565Y-96583176D01*
X229859336Y-96567405D01*
X229859341Y-96567399D01*
X230103293Y-96323447D01*
X230103299Y-96323442D01*
X230119070Y-96307671D01*
X230143317Y-96287771D01*
X230168823Y-96274139D01*
X230196487Y-96265747D01*
X230225269Y-96262912D01*
X230254051Y-96265747D01*
G37*
G36*
X228768157Y-96151641D02*
G01*
X228795821Y-96160033D01*
X228821327Y-96173665D01*
X228845574Y-96193565D01*
X228861345Y-96209336D01*
X228861351Y-96209341D01*
X229140659Y-96488649D01*
X229140664Y-96488655D01*
X229156435Y-96504426D01*
X229176335Y-96528673D01*
X229189967Y-96554179D01*
X229198359Y-96581843D01*
X229201194Y-96610625D01*
X229198359Y-96639407D01*
X229189967Y-96667071D01*
X229176335Y-96692577D01*
X229156435Y-96716824D01*
X229140664Y-96732595D01*
X229140659Y-96732601D01*
X228896707Y-96976553D01*
X228896701Y-96976558D01*
X228880930Y-96992329D01*
X228856683Y-97012229D01*
X228831177Y-97025861D01*
X228803513Y-97034253D01*
X228774731Y-97037088D01*
X228745949Y-97034253D01*
X228718285Y-97025861D01*
X228692779Y-97012229D01*
X228668532Y-96992329D01*
X228652761Y-96976558D01*
X228652755Y-96976553D01*
X228373447Y-96697245D01*
X228373442Y-96697239D01*
X228357671Y-96681468D01*
X228337771Y-96657221D01*
X228324139Y-96631715D01*
X228315747Y-96604051D01*
X228312912Y-96575269D01*
X228315747Y-96546487D01*
X228324139Y-96518823D01*
X228337771Y-96493317D01*
X228357671Y-96469070D01*
X228373442Y-96453299D01*
X228373447Y-96453293D01*
X228617399Y-96209341D01*
X228617405Y-96209336D01*
X228633176Y-96193565D01*
X228657423Y-96173665D01*
X228682929Y-96160033D01*
X228710593Y-96151641D01*
X228739375Y-96148806D01*
X228768157Y-96151641D01*
G37*
G36*
X233754051Y-95965747D02*
G01*
X233781715Y-95974139D01*
X233807221Y-95987771D01*
X233831468Y-96007671D01*
X233847239Y-96023442D01*
X233847245Y-96023447D01*
X234126553Y-96302755D01*
X234126558Y-96302761D01*
X234142329Y-96318532D01*
X234162229Y-96342779D01*
X234175861Y-96368285D01*
X234184253Y-96395949D01*
X234187088Y-96424731D01*
X234184253Y-96453513D01*
X234175861Y-96481177D01*
X234162229Y-96506683D01*
X234142329Y-96530930D01*
X234126558Y-96546701D01*
X234126553Y-96546707D01*
X233882601Y-96790659D01*
X233882595Y-96790664D01*
X233866824Y-96806435D01*
X233842577Y-96826335D01*
X233817071Y-96839967D01*
X233789407Y-96848359D01*
X233760625Y-96851194D01*
X233731843Y-96848359D01*
X233704179Y-96839967D01*
X233678673Y-96826335D01*
X233654426Y-96806435D01*
X233638655Y-96790664D01*
X233638649Y-96790659D01*
X233359341Y-96511351D01*
X233359336Y-96511345D01*
X233343565Y-96495574D01*
X233323665Y-96471327D01*
X233310033Y-96445821D01*
X233301641Y-96418157D01*
X233298806Y-96389375D01*
X233301641Y-96360593D01*
X233310033Y-96332929D01*
X233323665Y-96307423D01*
X233343565Y-96283176D01*
X233359336Y-96267405D01*
X233359341Y-96267399D01*
X233603293Y-96023447D01*
X233603299Y-96023442D01*
X233619070Y-96007671D01*
X233643317Y-95987771D01*
X233668823Y-95974139D01*
X233696487Y-95965747D01*
X233725269Y-95962912D01*
X233754051Y-95965747D01*
G37*
G36*
X232268157Y-95851641D02*
G01*
X232295821Y-95860033D01*
X232321327Y-95873665D01*
X232345574Y-95893565D01*
X232361345Y-95909336D01*
X232361351Y-95909341D01*
X232640659Y-96188649D01*
X232640664Y-96188655D01*
X232656435Y-96204426D01*
X232676335Y-96228673D01*
X232689967Y-96254179D01*
X232698359Y-96281843D01*
X232701194Y-96310625D01*
X232698359Y-96339407D01*
X232689967Y-96367071D01*
X232676335Y-96392577D01*
X232656435Y-96416824D01*
X232640664Y-96432595D01*
X232640659Y-96432601D01*
X232396707Y-96676553D01*
X232396701Y-96676558D01*
X232380930Y-96692329D01*
X232356683Y-96712229D01*
X232331177Y-96725861D01*
X232303513Y-96734253D01*
X232274731Y-96737088D01*
X232245949Y-96734253D01*
X232218285Y-96725861D01*
X232192779Y-96712229D01*
X232168532Y-96692329D01*
X232152761Y-96676558D01*
X232152755Y-96676553D01*
X231873447Y-96397245D01*
X231873442Y-96397239D01*
X231857671Y-96381468D01*
X231837771Y-96357221D01*
X231824139Y-96331715D01*
X231815747Y-96304051D01*
X231812912Y-96275269D01*
X231815747Y-96246487D01*
X231824139Y-96218823D01*
X231837771Y-96193317D01*
X231857671Y-96169070D01*
X231873442Y-96153299D01*
X231873447Y-96153293D01*
X232117399Y-95909341D01*
X232117405Y-95909336D01*
X232133176Y-95893565D01*
X232157423Y-95873665D01*
X232182929Y-95860033D01*
X232210593Y-95851641D01*
X232239375Y-95848806D01*
X232268157Y-95851641D01*
G37*
G36*
X229454051Y-95465747D02*
G01*
X229481715Y-95474139D01*
X229507221Y-95487771D01*
X229531468Y-95507671D01*
X229547239Y-95523442D01*
X229547245Y-95523447D01*
X229826553Y-95802755D01*
X229826558Y-95802761D01*
X229842329Y-95818532D01*
X229862229Y-95842779D01*
X229875861Y-95868285D01*
X229884253Y-95895949D01*
X229887088Y-95924731D01*
X229884253Y-95953513D01*
X229875861Y-95981177D01*
X229862229Y-96006683D01*
X229842329Y-96030930D01*
X229826558Y-96046701D01*
X229826553Y-96046707D01*
X229582601Y-96290659D01*
X229582595Y-96290664D01*
X229566824Y-96306435D01*
X229542577Y-96326335D01*
X229517071Y-96339967D01*
X229489407Y-96348359D01*
X229460625Y-96351194D01*
X229431843Y-96348359D01*
X229404179Y-96339967D01*
X229378673Y-96326335D01*
X229354426Y-96306435D01*
X229338655Y-96290664D01*
X229338649Y-96290659D01*
X229059341Y-96011351D01*
X229059336Y-96011345D01*
X229043565Y-95995574D01*
X229023665Y-95971327D01*
X229010033Y-95945821D01*
X229001641Y-95918157D01*
X228998806Y-95889375D01*
X229001641Y-95860593D01*
X229010033Y-95832929D01*
X229023665Y-95807423D01*
X229043565Y-95783176D01*
X229059336Y-95767405D01*
X229059341Y-95767399D01*
X229303293Y-95523447D01*
X229303299Y-95523442D01*
X229319070Y-95507671D01*
X229343317Y-95487771D01*
X229368823Y-95474139D01*
X229396487Y-95465747D01*
X229425269Y-95462912D01*
X229454051Y-95465747D01*
G37*
G36*
X232954051Y-95165747D02*
G01*
X232981715Y-95174139D01*
X233007221Y-95187771D01*
X233031468Y-95207671D01*
X233047239Y-95223442D01*
X233047245Y-95223447D01*
X233326553Y-95502755D01*
X233326558Y-95502761D01*
X233342329Y-95518532D01*
X233362229Y-95542779D01*
X233375861Y-95568285D01*
X233384253Y-95595949D01*
X233387088Y-95624731D01*
X233384253Y-95653513D01*
X233375861Y-95681177D01*
X233362229Y-95706683D01*
X233342329Y-95730930D01*
X233326558Y-95746701D01*
X233326553Y-95746707D01*
X233082601Y-95990659D01*
X233082595Y-95990664D01*
X233066824Y-96006435D01*
X233042577Y-96026335D01*
X233017071Y-96039967D01*
X232989407Y-96048359D01*
X232960625Y-96051194D01*
X232931843Y-96048359D01*
X232904179Y-96039967D01*
X232878673Y-96026335D01*
X232854426Y-96006435D01*
X232838655Y-95990664D01*
X232838649Y-95990659D01*
X232559341Y-95711351D01*
X232559336Y-95711345D01*
X232543565Y-95695574D01*
X232523665Y-95671327D01*
X232510033Y-95645821D01*
X232501641Y-95618157D01*
X232498806Y-95589375D01*
X232501641Y-95560593D01*
X232510033Y-95532929D01*
X232523665Y-95507423D01*
X232543565Y-95483176D01*
X232559336Y-95467405D01*
X232559341Y-95467399D01*
X232803293Y-95223447D01*
X232803299Y-95223442D01*
X232819070Y-95207671D01*
X232843317Y-95187771D01*
X232868823Y-95174139D01*
X232896487Y-95165747D01*
X232925269Y-95162912D01*
X232954051Y-95165747D01*
G37*
G36*
X231468157Y-95051641D02*
G01*
X231495821Y-95060033D01*
X231521327Y-95073665D01*
X231545574Y-95093565D01*
X231561345Y-95109336D01*
X231561351Y-95109341D01*
X231840659Y-95388649D01*
X231840664Y-95388655D01*
X231856435Y-95404426D01*
X231876335Y-95428673D01*
X231889967Y-95454179D01*
X231898359Y-95481843D01*
X231901194Y-95510625D01*
X231898359Y-95539407D01*
X231889967Y-95567071D01*
X231876335Y-95592577D01*
X231856435Y-95616824D01*
X231840664Y-95632595D01*
X231840659Y-95632601D01*
X231596707Y-95876553D01*
X231596701Y-95876558D01*
X231580930Y-95892329D01*
X231556683Y-95912229D01*
X231531177Y-95925861D01*
X231503513Y-95934253D01*
X231474731Y-95937088D01*
X231445949Y-95934253D01*
X231418285Y-95925861D01*
X231392779Y-95912229D01*
X231368532Y-95892329D01*
X231352761Y-95876558D01*
X231352755Y-95876553D01*
X231073447Y-95597245D01*
X231073442Y-95597239D01*
X231057671Y-95581468D01*
X231037771Y-95557221D01*
X231024139Y-95531715D01*
X231015747Y-95504051D01*
X231012912Y-95475269D01*
X231015747Y-95446487D01*
X231024139Y-95418823D01*
X231037771Y-95393317D01*
X231057671Y-95369070D01*
X231073442Y-95353299D01*
X231073447Y-95353293D01*
X231317399Y-95109341D01*
X231317405Y-95109336D01*
X231333176Y-95093565D01*
X231357423Y-95073665D01*
X231382929Y-95060033D01*
X231410593Y-95051641D01*
X231439375Y-95048806D01*
X231468157Y-95051641D01*
G37*
G36*
X204438559Y-94254783D02*
G01*
X204579600Y-94313204D01*
X204706534Y-94398018D01*
X204814482Y-94505966D01*
X204899296Y-94632900D01*
X204957717Y-94773941D01*
X204987500Y-94923669D01*
X204987500Y-95076331D01*
X204957717Y-95226059D01*
X204899296Y-95367100D01*
X204814482Y-95494034D01*
X204706534Y-95601982D01*
X204579600Y-95686796D01*
X204438559Y-95745217D01*
X204288831Y-95775000D01*
X204136169Y-95775000D01*
X203986441Y-95745217D01*
X203845400Y-95686796D01*
X203718466Y-95601982D01*
X203610518Y-95494034D01*
X203525704Y-95367100D01*
X203467283Y-95226059D01*
X203437500Y-95076331D01*
X203437500Y-94923669D01*
X203467283Y-94773941D01*
X203525704Y-94632900D01*
X203610518Y-94505966D01*
X203718466Y-94398018D01*
X203845400Y-94313204D01*
X203986441Y-94254783D01*
X204136169Y-94225000D01*
X204288831Y-94225000D01*
X204438559Y-94254783D01*
G37*
G36*
X232154051Y-94365747D02*
G01*
X232181715Y-94374139D01*
X232207221Y-94387771D01*
X232231468Y-94407671D01*
X232247239Y-94423442D01*
X232247245Y-94423447D01*
X232526553Y-94702755D01*
X232526558Y-94702761D01*
X232542329Y-94718532D01*
X232562229Y-94742779D01*
X232575861Y-94768285D01*
X232584253Y-94795949D01*
X232587088Y-94824731D01*
X232584253Y-94853513D01*
X232575861Y-94881177D01*
X232562229Y-94906683D01*
X232542329Y-94930930D01*
X232526558Y-94946701D01*
X232526553Y-94946707D01*
X232282601Y-95190659D01*
X232282595Y-95190664D01*
X232266824Y-95206435D01*
X232242577Y-95226335D01*
X232217071Y-95239967D01*
X232189407Y-95248359D01*
X232160625Y-95251194D01*
X232131843Y-95248359D01*
X232104179Y-95239967D01*
X232078673Y-95226335D01*
X232054426Y-95206435D01*
X232038655Y-95190664D01*
X232038649Y-95190659D01*
X231759341Y-94911351D01*
X231759336Y-94911345D01*
X231743565Y-94895574D01*
X231723665Y-94871327D01*
X231710033Y-94845821D01*
X231701641Y-94818157D01*
X231698806Y-94789375D01*
X231701641Y-94760593D01*
X231710033Y-94732929D01*
X231723665Y-94707423D01*
X231743565Y-94683176D01*
X231759336Y-94667405D01*
X231759341Y-94667399D01*
X232003293Y-94423447D01*
X232003299Y-94423442D01*
X232019070Y-94407671D01*
X232043317Y-94387771D01*
X232068823Y-94374139D01*
X232096487Y-94365747D01*
X232125269Y-94362912D01*
X232154051Y-94365747D01*
G37*
G36*
X230668157Y-94251641D02*
G01*
X230695821Y-94260033D01*
X230721327Y-94273665D01*
X230745574Y-94293565D01*
X230761345Y-94309336D01*
X230761351Y-94309341D01*
X231040659Y-94588649D01*
X231040664Y-94588655D01*
X231056435Y-94604426D01*
X231076335Y-94628673D01*
X231089967Y-94654179D01*
X231098359Y-94681843D01*
X231101194Y-94710625D01*
X231098359Y-94739407D01*
X231089967Y-94767071D01*
X231076335Y-94792577D01*
X231056435Y-94816824D01*
X231040664Y-94832595D01*
X231040659Y-94832601D01*
X230796707Y-95076553D01*
X230796701Y-95076558D01*
X230780930Y-95092329D01*
X230756683Y-95112229D01*
X230731177Y-95125861D01*
X230703513Y-95134253D01*
X230674731Y-95137088D01*
X230645949Y-95134253D01*
X230618285Y-95125861D01*
X230592779Y-95112229D01*
X230568532Y-95092329D01*
X230552761Y-95076558D01*
X230552755Y-95076553D01*
X230273447Y-94797245D01*
X230273442Y-94797239D01*
X230257671Y-94781468D01*
X230237771Y-94757221D01*
X230224139Y-94731715D01*
X230215747Y-94704051D01*
X230212912Y-94675269D01*
X230215747Y-94646487D01*
X230224139Y-94618823D01*
X230237771Y-94593317D01*
X230257671Y-94569070D01*
X230273442Y-94553299D01*
X230273447Y-94553293D01*
X230517399Y-94309341D01*
X230517405Y-94309336D01*
X230533176Y-94293565D01*
X230557423Y-94273665D01*
X230582929Y-94260033D01*
X230610593Y-94251641D01*
X230639375Y-94248806D01*
X230668157Y-94251641D01*
G37*
G36*
X201989922Y-93359405D02*
G01*
X202112448Y-93396573D01*
X202225368Y-93456930D01*
X202324343Y-93538157D01*
X202405570Y-93637132D01*
X202465927Y-93750052D01*
X202503095Y-93872578D01*
X202515645Y-94000000D01*
X202503095Y-94127422D01*
X202465927Y-94249948D01*
X202405570Y-94362868D01*
X202324343Y-94461843D01*
X202225368Y-94543070D01*
X202112448Y-94603427D01*
X201989922Y-94640595D01*
X201894432Y-94650000D01*
X201130568Y-94650000D01*
X201035078Y-94640595D01*
X200912552Y-94603427D01*
X200799632Y-94543070D01*
X200700657Y-94461843D01*
X200619430Y-94362868D01*
X200559073Y-94249948D01*
X200521905Y-94127422D01*
X200509355Y-94000000D01*
X200521905Y-93872578D01*
X200559073Y-93750052D01*
X200619430Y-93637132D01*
X200700657Y-93538157D01*
X200799632Y-93456930D01*
X200912552Y-93396573D01*
X201035078Y-93359405D01*
X201130568Y-93350000D01*
X201894432Y-93350000D01*
X201989922Y-93359405D01*
G37*
G36*
X231354051Y-93565747D02*
G01*
X231381715Y-93574139D01*
X231407221Y-93587771D01*
X231431468Y-93607671D01*
X231447239Y-93623442D01*
X231447245Y-93623447D01*
X231726553Y-93902755D01*
X231726558Y-93902761D01*
X231742329Y-93918532D01*
X231762229Y-93942779D01*
X231775861Y-93968285D01*
X231784253Y-93995949D01*
X231787088Y-94024731D01*
X231784253Y-94053513D01*
X231775861Y-94081177D01*
X231762229Y-94106683D01*
X231742329Y-94130930D01*
X231726558Y-94146701D01*
X231726553Y-94146707D01*
X231482601Y-94390659D01*
X231482595Y-94390664D01*
X231466824Y-94406435D01*
X231442577Y-94426335D01*
X231417071Y-94439967D01*
X231389407Y-94448359D01*
X231360625Y-94451194D01*
X231331843Y-94448359D01*
X231304179Y-94439967D01*
X231278673Y-94426335D01*
X231254426Y-94406435D01*
X231238655Y-94390664D01*
X231238649Y-94390659D01*
X230959341Y-94111351D01*
X230959336Y-94111345D01*
X230943565Y-94095574D01*
X230923665Y-94071327D01*
X230910033Y-94045821D01*
X230901641Y-94018157D01*
X230898806Y-93989375D01*
X230901641Y-93960593D01*
X230910033Y-93932929D01*
X230923665Y-93907423D01*
X230943565Y-93883176D01*
X230959336Y-93867405D01*
X230959341Y-93867399D01*
X231203293Y-93623447D01*
X231203299Y-93623442D01*
X231219070Y-93607671D01*
X231243317Y-93587771D01*
X231268823Y-93574139D01*
X231296487Y-93565747D01*
X231325269Y-93562912D01*
X231354051Y-93565747D01*
G37*
G36*
X242791689Y-90288429D02*
G01*
X242791691Y-90288430D01*
X242791692Y-90288430D01*
X242832918Y-90305507D01*
X242973678Y-90363811D01*
X243137463Y-90473249D01*
X243276751Y-90612537D01*
X243386189Y-90776322D01*
X243461571Y-90958311D01*
X243500000Y-91151509D01*
X243500000Y-91348491D01*
X243461571Y-91541689D01*
X243386189Y-91723678D01*
X243276751Y-91887463D01*
X243137463Y-92026751D01*
X242973678Y-92136189D01*
X242832918Y-92194493D01*
X242791692Y-92211570D01*
X242791691Y-92211570D01*
X242791689Y-92211571D01*
X242598491Y-92250000D01*
X242401509Y-92250000D01*
X242208311Y-92211571D01*
X242208309Y-92211570D01*
X242208308Y-92211570D01*
X242167082Y-92194493D01*
X242026322Y-92136189D01*
X241862537Y-92026751D01*
X241723249Y-91887463D01*
X241613811Y-91723678D01*
X241538429Y-91541689D01*
X241500000Y-91348491D01*
X241500000Y-91151509D01*
X241538429Y-90958311D01*
X241613811Y-90776322D01*
X241723249Y-90612537D01*
X241862537Y-90473249D01*
X242026322Y-90363811D01*
X242167082Y-90305507D01*
X242208308Y-90288430D01*
X242208309Y-90288430D01*
X242208311Y-90288429D01*
X242401509Y-90250000D01*
X242598491Y-90250000D01*
X242791689Y-90288429D01*
G37*
G36*
X247691689Y-89688429D02*
G01*
X247691691Y-89688430D01*
X247691692Y-89688430D01*
X247732918Y-89705507D01*
X247873678Y-89763811D01*
X248037463Y-89873249D01*
X248176751Y-90012537D01*
X248286189Y-90176322D01*
X248361571Y-90358311D01*
X248400000Y-90551509D01*
X248400000Y-90748491D01*
X248361571Y-90941689D01*
X248286189Y-91123678D01*
X248176751Y-91287463D01*
X248037463Y-91426751D01*
X247873678Y-91536189D01*
X247732918Y-91594493D01*
X247691692Y-91611570D01*
X247691691Y-91611570D01*
X247691689Y-91611571D01*
X247498491Y-91650000D01*
X247301509Y-91650000D01*
X247108311Y-91611571D01*
X247108309Y-91611570D01*
X247108308Y-91611570D01*
X247067082Y-91594493D01*
X246926322Y-91536189D01*
X246762537Y-91426751D01*
X246623249Y-91287463D01*
X246513811Y-91123678D01*
X246438429Y-90941689D01*
X246400000Y-90748491D01*
X246400000Y-90551509D01*
X246438429Y-90358311D01*
X246513811Y-90176322D01*
X246623249Y-90012537D01*
X246762537Y-89873249D01*
X246926322Y-89763811D01*
X247067082Y-89705507D01*
X247108308Y-89688430D01*
X247108309Y-89688430D01*
X247108311Y-89688429D01*
X247301509Y-89650000D01*
X247498491Y-89650000D01*
X247691689Y-89688429D01*
G37*
G36*
X212161032Y-89723075D02*
G01*
X212188696Y-89731467D01*
X212214202Y-89745099D01*
X212236555Y-89763445D01*
X212254901Y-89785798D01*
X212268533Y-89811304D01*
X212276925Y-89838968D01*
X212280000Y-89870186D01*
X212280000Y-90309814D01*
X212276925Y-90341032D01*
X212268533Y-90368696D01*
X212254901Y-90394202D01*
X212236555Y-90416555D01*
X212214202Y-90434901D01*
X212188696Y-90448533D01*
X212161032Y-90456925D01*
X212129814Y-90460000D01*
X211740186Y-90460000D01*
X211708968Y-90456925D01*
X211681304Y-90448533D01*
X211655798Y-90434901D01*
X211633445Y-90416555D01*
X211615099Y-90394202D01*
X211601467Y-90368696D01*
X211593075Y-90341032D01*
X211590000Y-90309814D01*
X211590000Y-89870186D01*
X211593075Y-89838968D01*
X211601467Y-89811304D01*
X211615099Y-89785798D01*
X211633445Y-89763445D01*
X211655798Y-89745099D01*
X211681304Y-89731467D01*
X211708968Y-89723075D01*
X211740186Y-89720000D01*
X212129814Y-89720000D01*
X212161032Y-89723075D01*
G37*
G36*
X213131032Y-89723075D02*
G01*
X213158696Y-89731467D01*
X213184202Y-89745099D01*
X213206555Y-89763445D01*
X213224901Y-89785798D01*
X213238533Y-89811304D01*
X213246925Y-89838968D01*
X213250000Y-89870186D01*
X213250000Y-90309814D01*
X213246925Y-90341032D01*
X213238533Y-90368696D01*
X213224901Y-90394202D01*
X213206555Y-90416555D01*
X213184202Y-90434901D01*
X213158696Y-90448533D01*
X213131032Y-90456925D01*
X213099814Y-90460000D01*
X212710186Y-90460000D01*
X212678968Y-90456925D01*
X212651304Y-90448533D01*
X212625798Y-90434901D01*
X212603445Y-90416555D01*
X212585099Y-90394202D01*
X212571467Y-90368696D01*
X212563075Y-90341032D01*
X212560000Y-90309814D01*
X212560000Y-89870186D01*
X212563075Y-89838968D01*
X212571467Y-89811304D01*
X212585099Y-89785798D01*
X212603445Y-89763445D01*
X212625798Y-89745099D01*
X212651304Y-89731467D01*
X212678968Y-89723075D01*
X212710186Y-89720000D01*
X213099814Y-89720000D01*
X213131032Y-89723075D01*
G37*
G36*
X247738989Y-85559335D02*
G01*
X248068796Y-85624937D01*
X248423670Y-85771932D01*
X248743053Y-85985336D01*
X249014664Y-86256947D01*
X249228068Y-86576330D01*
X249375063Y-86931204D01*
X249450000Y-87307943D01*
X249450000Y-87692057D01*
X249375063Y-88068796D01*
X249228068Y-88423670D01*
X249014664Y-88743053D01*
X248743053Y-89014664D01*
X248423670Y-89228068D01*
X248068796Y-89375063D01*
X247738989Y-89440665D01*
X247692058Y-89450000D01*
X247307942Y-89450000D01*
X247261011Y-89440665D01*
X246931204Y-89375063D01*
X246576330Y-89228068D01*
X246256947Y-89014664D01*
X245985336Y-88743053D01*
X245771932Y-88423670D01*
X245624937Y-88068796D01*
X245550000Y-87692057D01*
X245550000Y-87307943D01*
X245624937Y-86931204D01*
X245771932Y-86576330D01*
X245985336Y-86256947D01*
X246256947Y-85985336D01*
X246576330Y-85771932D01*
X246931204Y-85624937D01*
X247261011Y-85559335D01*
X247307942Y-85550000D01*
X247692058Y-85550000D01*
X247738989Y-85559335D01*
G37*
G36*
X202738989Y-85559335D02*
G01*
X203068796Y-85624937D01*
X203423670Y-85771932D01*
X203743053Y-85985336D01*
X204014664Y-86256947D01*
X204228068Y-86576330D01*
X204375063Y-86931204D01*
X204450000Y-87307943D01*
X204450000Y-87692057D01*
X204375063Y-88068796D01*
X204228068Y-88423670D01*
X204014664Y-88743053D01*
X203743053Y-89014664D01*
X203423670Y-89228068D01*
X203068796Y-89375063D01*
X202738989Y-89440665D01*
X202692058Y-89450000D01*
X202307942Y-89450000D01*
X202261011Y-89440665D01*
X201931204Y-89375063D01*
X201576330Y-89228068D01*
X201256947Y-89014664D01*
X200985336Y-88743053D01*
X200771932Y-88423670D01*
X200624937Y-88068796D01*
X200550000Y-87692057D01*
X200550000Y-87307943D01*
X200624937Y-86931204D01*
X200771932Y-86576330D01*
X200985336Y-86256947D01*
X201256947Y-85985336D01*
X201576330Y-85771932D01*
X201931204Y-85624937D01*
X202261011Y-85559335D01*
X202307942Y-85550000D01*
X202692058Y-85550000D01*
X202738989Y-85559335D01*
G37*
G36*
X244167520Y-85634586D02*
G01*
X244167522Y-85634587D01*
X244167523Y-85634587D01*
X244204627Y-85649956D01*
X244331310Y-85702430D01*
X244478717Y-85800924D01*
X244604076Y-85926283D01*
X244702570Y-86073690D01*
X244770414Y-86237480D01*
X244805000Y-86411358D01*
X244805000Y-86588642D01*
X244770414Y-86762520D01*
X244702570Y-86926310D01*
X244604076Y-87073717D01*
X244478717Y-87199076D01*
X244331310Y-87297570D01*
X244204627Y-87350044D01*
X244167523Y-87365413D01*
X244167522Y-87365413D01*
X244167520Y-87365414D01*
X243993642Y-87400000D01*
X243816358Y-87400000D01*
X243642480Y-87365414D01*
X243642478Y-87365413D01*
X243642477Y-87365413D01*
X243605373Y-87350044D01*
X243478690Y-87297570D01*
X243331283Y-87199076D01*
X243205924Y-87073717D01*
X243107430Y-86926310D01*
X243039586Y-86762520D01*
X243005000Y-86588642D01*
X243005000Y-86411358D01*
X243039586Y-86237480D01*
X243107430Y-86073690D01*
X243205924Y-85926283D01*
X243331283Y-85800924D01*
X243478690Y-85702430D01*
X243605373Y-85649956D01*
X243642477Y-85634587D01*
X243642478Y-85634587D01*
X243642480Y-85634586D01*
X243816358Y-85600000D01*
X243993642Y-85600000D01*
X244167520Y-85634586D01*
G37*
G36*
X241627520Y-85634586D02*
G01*
X241627522Y-85634587D01*
X241627523Y-85634587D01*
X241664627Y-85649956D01*
X241791310Y-85702430D01*
X241938717Y-85800924D01*
X242064076Y-85926283D01*
X242162570Y-86073690D01*
X242230414Y-86237480D01*
X242265000Y-86411358D01*
X242265000Y-86588642D01*
X242230414Y-86762520D01*
X242162570Y-86926310D01*
X242064076Y-87073717D01*
X241938717Y-87199076D01*
X241791310Y-87297570D01*
X241664627Y-87350044D01*
X241627523Y-87365413D01*
X241627522Y-87365413D01*
X241627520Y-87365414D01*
X241453642Y-87400000D01*
X241276358Y-87400000D01*
X241102480Y-87365414D01*
X241102478Y-87365413D01*
X241102477Y-87365413D01*
X241065373Y-87350044D01*
X240938690Y-87297570D01*
X240791283Y-87199076D01*
X240665924Y-87073717D01*
X240567430Y-86926310D01*
X240499586Y-86762520D01*
X240465000Y-86588642D01*
X240465000Y-86411358D01*
X240499586Y-86237480D01*
X240567430Y-86073690D01*
X240665924Y-85926283D01*
X240791283Y-85800924D01*
X240938690Y-85702430D01*
X241065373Y-85649956D01*
X241102477Y-85634587D01*
X241102478Y-85634587D01*
X241102480Y-85634586D01*
X241276358Y-85600000D01*
X241453642Y-85600000D01*
X241627520Y-85634586D01*
G37*
G36*
X239087520Y-85634586D02*
G01*
X239087522Y-85634587D01*
X239087523Y-85634587D01*
X239124627Y-85649956D01*
X239251310Y-85702430D01*
X239398717Y-85800924D01*
X239524076Y-85926283D01*
X239622570Y-86073690D01*
X239690414Y-86237480D01*
X239725000Y-86411358D01*
X239725000Y-86588642D01*
X239690414Y-86762520D01*
X239622570Y-86926310D01*
X239524076Y-87073717D01*
X239398717Y-87199076D01*
X239251310Y-87297570D01*
X239124627Y-87350044D01*
X239087523Y-87365413D01*
X239087522Y-87365413D01*
X239087520Y-87365414D01*
X238913642Y-87400000D01*
X238736358Y-87400000D01*
X238562480Y-87365414D01*
X238562478Y-87365413D01*
X238562477Y-87365413D01*
X238525373Y-87350044D01*
X238398690Y-87297570D01*
X238251283Y-87199076D01*
X238125924Y-87073717D01*
X238027430Y-86926310D01*
X237959586Y-86762520D01*
X237925000Y-86588642D01*
X237925000Y-86411358D01*
X237959586Y-86237480D01*
X238027430Y-86073690D01*
X238125924Y-85926283D01*
X238251283Y-85800924D01*
X238398690Y-85702430D01*
X238525373Y-85649956D01*
X238562477Y-85634587D01*
X238562478Y-85634587D01*
X238562480Y-85634586D01*
X238736358Y-85600000D01*
X238913642Y-85600000D01*
X239087520Y-85634586D01*
G37*
G36*
X236547520Y-85634586D02*
G01*
X236547522Y-85634587D01*
X236547523Y-85634587D01*
X236584627Y-85649956D01*
X236711310Y-85702430D01*
X236858717Y-85800924D01*
X236984076Y-85926283D01*
X237082570Y-86073690D01*
X237150414Y-86237480D01*
X237185000Y-86411358D01*
X237185000Y-86588642D01*
X237150414Y-86762520D01*
X237082570Y-86926310D01*
X236984076Y-87073717D01*
X236858717Y-87199076D01*
X236711310Y-87297570D01*
X236584627Y-87350044D01*
X236547523Y-87365413D01*
X236547522Y-87365413D01*
X236547520Y-87365414D01*
X236373642Y-87400000D01*
X236196358Y-87400000D01*
X236022480Y-87365414D01*
X236022478Y-87365413D01*
X236022477Y-87365413D01*
X235985373Y-87350044D01*
X235858690Y-87297570D01*
X235711283Y-87199076D01*
X235585924Y-87073717D01*
X235487430Y-86926310D01*
X235419586Y-86762520D01*
X235385000Y-86588642D01*
X235385000Y-86411358D01*
X235419586Y-86237480D01*
X235487430Y-86073690D01*
X235585924Y-85926283D01*
X235711283Y-85800924D01*
X235858690Y-85702430D01*
X235985373Y-85649956D01*
X236022477Y-85634587D01*
X236022478Y-85634587D01*
X236022480Y-85634586D01*
X236196358Y-85600000D01*
X236373642Y-85600000D01*
X236547520Y-85634586D01*
G37*
G36*
X234645000Y-87400000D02*
G01*
X232845000Y-87400000D01*
X232845000Y-85600000D01*
X234645000Y-85600000D01*
X234645000Y-87400000D01*
G37*
M02*
