M48
;DRILL file {KiCad 5.0.2-bee76a0~70~ubuntu18.04.1} date Sat 27 Jun 2020 14:22:54 BST
;FORMAT={-:-/ absolute / inch / decimal}
FMAT,2
INCH,TZ
T1C0.0118
T2C0.0394
T3C0.0512
%
G90
G05
T1
X5.0295Y-3.3563
X5.0394Y-2.687
X5.0925Y-2.8071
X5.0925Y-2.9075
X5.0945Y-3.0079
X5.1969Y-3.0059
X5.2244Y-2.8346
X5.2854Y-2.8051
X5.5709Y-3.3169
X5.5807Y-2.815
X5.5906Y-3.1102
X5.5906Y-3.1693
X5.6004Y-2.874
X5.6004Y-2.9331
X5.6004Y-2.9921
X5.6004Y-3.0512
X5.7087Y-2.874
X5.7087Y-2.9331
X5.7087Y-2.9921
X5.7087Y-3.0512
X5.7185Y-3.1693
X5.9449Y-3.0512
T2
X5.075Y-2.7559
X5.075Y-2.8559
X5.075Y-2.9559
X5.075Y-3.0559
X5.075Y-3.1559
X5.075Y-3.2559
X5.175Y-2.7559
X5.175Y-2.8559
X5.175Y-2.9559
X5.175Y-3.0559
X5.175Y-3.1559
X5.175Y-3.2559
X5.3724Y-3.2677
X5.4724Y-3.2677
T3
X5.689Y-2.7362
X5.689Y-3.3071
X5.8819Y-2.7126
X5.8819Y-3.3307
T0
M30
