G04 #@! TF.GenerationSoftware,KiCad,Pcbnew,5.0.2-bee76a0~70~ubuntu18.04.1*
G04 #@! TF.CreationDate,2020-06-27T14:22:49+01:00*
G04 #@! TF.ProjectId,picodvi_pmod,7069636f-6476-4695-9f70-6d6f642e6b69,rev?*
G04 #@! TF.SameCoordinates,Original*
G04 #@! TF.FileFunction,Legend,Top*
G04 #@! TF.FilePolarity,Positive*
%FSLAX46Y46*%
G04 Gerber Fmt 4.6, Leading zero omitted, Abs format (unit mm)*
G04 Created by KiCad (PCBNEW 5.0.2-bee76a0~70~ubuntu18.04.1) date Sat 27 Jun 2020 14:22:49 BST*
%MOMM*%
%LPD*%
G01*
G04 APERTURE LIST*
%ADD10C,0.120000*%
%ADD11C,0.150000*%
G04 APERTURE END LIST*
D10*
X138071428Y-80732142D02*
X138680952Y-80732142D01*
X138376190Y-81036904D02*
X138376190Y-80427380D01*
X139442857Y-80236904D02*
X139061904Y-80236904D01*
X139023809Y-80617857D01*
X139061904Y-80579761D01*
X139138095Y-80541666D01*
X139328571Y-80541666D01*
X139404761Y-80579761D01*
X139442857Y-80617857D01*
X139480952Y-80694047D01*
X139480952Y-80884523D01*
X139442857Y-80960714D01*
X139404761Y-80998809D01*
X139328571Y-81036904D01*
X139138095Y-81036904D01*
X139061904Y-80998809D01*
X139023809Y-80960714D01*
X139709523Y-80236904D02*
X139976190Y-81036904D01*
X140242857Y-80236904D01*
X135840476Y-80300000D02*
X135764285Y-80261904D01*
X135650000Y-80261904D01*
X135535714Y-80300000D01*
X135459523Y-80376190D01*
X135421428Y-80452380D01*
X135383333Y-80604761D01*
X135383333Y-80719047D01*
X135421428Y-80871428D01*
X135459523Y-80947619D01*
X135535714Y-81023809D01*
X135650000Y-81061904D01*
X135726190Y-81061904D01*
X135840476Y-81023809D01*
X135878571Y-80985714D01*
X135878571Y-80719047D01*
X135726190Y-80719047D01*
X136221428Y-81061904D02*
X136221428Y-80261904D01*
X136678571Y-81061904D01*
X136678571Y-80261904D01*
X137059523Y-81061904D02*
X137059523Y-80261904D01*
X137250000Y-80261904D01*
X137364285Y-80300000D01*
X137440476Y-80376190D01*
X137478571Y-80452380D01*
X137516666Y-80604761D01*
X137516666Y-80719047D01*
X137478571Y-80871428D01*
X137440476Y-80947619D01*
X137364285Y-81023809D01*
X137250000Y-81061904D01*
X137059523Y-81061904D01*
D11*
X146902380Y-81369047D02*
X147616666Y-81369047D01*
X147759523Y-81416666D01*
X147854761Y-81511904D01*
X147902380Y-81654761D01*
X147902380Y-81750000D01*
X147902380Y-80416666D02*
X147902380Y-80892857D01*
X146902380Y-80892857D01*
X147807142Y-79511904D02*
X147854761Y-79559523D01*
X147902380Y-79702380D01*
X147902380Y-79797619D01*
X147854761Y-79940476D01*
X147759523Y-80035714D01*
X147664285Y-80083333D01*
X147473809Y-80130952D01*
X147330952Y-80130952D01*
X147140476Y-80083333D01*
X147045238Y-80035714D01*
X146950000Y-79940476D01*
X146902380Y-79797619D01*
X146902380Y-79702380D01*
X146950000Y-79559523D01*
X146997619Y-79511904D01*
X146902380Y-78797619D02*
X147616666Y-78797619D01*
X147759523Y-78845238D01*
X147854761Y-78940476D01*
X147902380Y-79083333D01*
X147902380Y-79178571D01*
X147902380Y-77845238D02*
X147902380Y-78321428D01*
X146902380Y-78321428D01*
X147807142Y-76940476D02*
X147854761Y-76988095D01*
X147902380Y-77130952D01*
X147902380Y-77226190D01*
X147854761Y-77369047D01*
X147759523Y-77464285D01*
X147664285Y-77511904D01*
X147473809Y-77559523D01*
X147330952Y-77559523D01*
X147140476Y-77511904D01*
X147045238Y-77464285D01*
X146950000Y-77369047D01*
X146902380Y-77226190D01*
X146902380Y-77130952D01*
X146950000Y-76988095D01*
X146997619Y-76940476D01*
X146902380Y-76226190D02*
X147616666Y-76226190D01*
X147759523Y-76273809D01*
X147854761Y-76369047D01*
X147902380Y-76511904D01*
X147902380Y-76607142D01*
X147902380Y-75273809D02*
X147902380Y-75750000D01*
X146902380Y-75750000D01*
X147807142Y-74369047D02*
X147854761Y-74416666D01*
X147902380Y-74559523D01*
X147902380Y-74654761D01*
X147854761Y-74797619D01*
X147759523Y-74892857D01*
X147664285Y-74940476D01*
X147473809Y-74988095D01*
X147330952Y-74988095D01*
X147140476Y-74940476D01*
X147045238Y-74892857D01*
X146950000Y-74797619D01*
X146902380Y-74654761D01*
X146902380Y-74559523D01*
X146950000Y-74416666D01*
X146997619Y-74369047D01*
X146902380Y-73654761D02*
X147616666Y-73654761D01*
X147759523Y-73702380D01*
X147854761Y-73797619D01*
X147902380Y-73940476D01*
X147902380Y-74035714D01*
X147902380Y-72702380D02*
X147902380Y-73178571D01*
X146902380Y-73178571D01*
X147807142Y-71797619D02*
X147854761Y-71845238D01*
X147902380Y-71988095D01*
X147902380Y-72083333D01*
X147854761Y-72226190D01*
X147759523Y-72321428D01*
X147664285Y-72369047D01*
X147473809Y-72416666D01*
X147330952Y-72416666D01*
X147140476Y-72369047D01*
X147045238Y-72321428D01*
X146950000Y-72226190D01*
X146902380Y-72083333D01*
X146902380Y-71988095D01*
X146950000Y-71845238D01*
X146997619Y-71797619D01*
D10*
G04 #@! TO.C,J1*
X118815000Y-68790000D02*
X127445000Y-68790000D01*
X118815000Y-68908095D02*
X127445000Y-68908095D01*
X118815000Y-69026190D02*
X127445000Y-69026190D01*
X118815000Y-69144285D02*
X127445000Y-69144285D01*
X118815000Y-69262380D02*
X127445000Y-69262380D01*
X118815000Y-69380475D02*
X127445000Y-69380475D01*
X118815000Y-69498570D02*
X127445000Y-69498570D01*
X118815000Y-69616665D02*
X127445000Y-69616665D01*
X118815000Y-69734760D02*
X127445000Y-69734760D01*
X118815000Y-69852855D02*
X127445000Y-69852855D01*
X118815000Y-69970950D02*
X127445000Y-69970950D01*
X118815000Y-70089045D02*
X127445000Y-70089045D01*
X118815000Y-70207140D02*
X127445000Y-70207140D01*
X118815000Y-70325235D02*
X127445000Y-70325235D01*
X118815000Y-70443330D02*
X127445000Y-70443330D01*
X118815000Y-70561425D02*
X127445000Y-70561425D01*
X118815000Y-70679520D02*
X127445000Y-70679520D01*
X118815000Y-70797615D02*
X127445000Y-70797615D01*
X118815000Y-70915710D02*
X127445000Y-70915710D01*
X118815000Y-71033805D02*
X127445000Y-71033805D01*
X118815000Y-71151900D02*
X127445000Y-71151900D01*
X127445000Y-69640000D02*
X127855000Y-69640000D01*
X129955000Y-69640000D02*
X130335000Y-69640000D01*
X127445000Y-70360000D02*
X127855000Y-70360000D01*
X129955000Y-70360000D02*
X130335000Y-70360000D01*
X127445000Y-72180000D02*
X127855000Y-72180000D01*
X129955000Y-72180000D02*
X130395000Y-72180000D01*
X127445000Y-72900000D02*
X127855000Y-72900000D01*
X129955000Y-72900000D02*
X130395000Y-72900000D01*
X127445000Y-74720000D02*
X127855000Y-74720000D01*
X129955000Y-74720000D02*
X130395000Y-74720000D01*
X127445000Y-75440000D02*
X127855000Y-75440000D01*
X129955000Y-75440000D02*
X130395000Y-75440000D01*
X127445000Y-77260000D02*
X127855000Y-77260000D01*
X129955000Y-77260000D02*
X130395000Y-77260000D01*
X127445000Y-77980000D02*
X127855000Y-77980000D01*
X129955000Y-77980000D02*
X130395000Y-77980000D01*
X127445000Y-79800000D02*
X127855000Y-79800000D01*
X129955000Y-79800000D02*
X130395000Y-79800000D01*
X127445000Y-80520000D02*
X127855000Y-80520000D01*
X129955000Y-80520000D02*
X130395000Y-80520000D01*
X127445000Y-82340000D02*
X127855000Y-82340000D01*
X129955000Y-82340000D02*
X130395000Y-82340000D01*
X127445000Y-83060000D02*
X127855000Y-83060000D01*
X129955000Y-83060000D02*
X130395000Y-83060000D01*
X118815000Y-71270000D02*
X127445000Y-71270000D01*
X118815000Y-73810000D02*
X127445000Y-73810000D01*
X118815000Y-76350000D02*
X127445000Y-76350000D01*
X118815000Y-78890000D02*
X127445000Y-78890000D01*
X118815000Y-81430000D02*
X127445000Y-81430000D01*
X118815000Y-68670000D02*
X127445000Y-68670000D01*
X127445000Y-68670000D02*
X127445000Y-84030000D01*
X118815000Y-84030000D02*
X127445000Y-84030000D01*
X118815000Y-68670000D02*
X118815000Y-84030000D01*
X132555000Y-68670000D02*
X132555000Y-70000000D01*
X131445000Y-68670000D02*
X132555000Y-68670000D01*
G04 #@! TO.C,J2*
X135130000Y-81670000D02*
X135130000Y-84330000D01*
X137730000Y-81670000D02*
X135130000Y-81670000D01*
X137730000Y-84330000D02*
X135130000Y-84330000D01*
X137730000Y-81670000D02*
X137730000Y-84330000D01*
X139000000Y-81670000D02*
X140330000Y-81670000D01*
X140330000Y-81670000D02*
X140330000Y-83000000D01*
D11*
G04 #@! TO.C,J3*
X151900000Y-68950000D02*
X151900000Y-84550000D01*
X151900000Y-84650000D02*
X150700000Y-84650000D01*
X151900000Y-68950000D02*
X150700000Y-68950000D01*
G04 #@! TO.C,C1*
D10*
X137866666Y-72285714D02*
X137828571Y-72323809D01*
X137714285Y-72361904D01*
X137638095Y-72361904D01*
X137523809Y-72323809D01*
X137447619Y-72247619D01*
X137409523Y-72171428D01*
X137371428Y-72019047D01*
X137371428Y-71904761D01*
X137409523Y-71752380D01*
X137447619Y-71676190D01*
X137523809Y-71600000D01*
X137638095Y-71561904D01*
X137714285Y-71561904D01*
X137828571Y-71600000D01*
X137866666Y-71638095D01*
X138628571Y-72361904D02*
X138171428Y-72361904D01*
X138400000Y-72361904D02*
X138400000Y-71561904D01*
X138323809Y-71676190D01*
X138247619Y-71752380D01*
X138171428Y-71790476D01*
G04 #@! TO.C,C2*
X137866666Y-74285714D02*
X137828571Y-74323809D01*
X137714285Y-74361904D01*
X137638095Y-74361904D01*
X137523809Y-74323809D01*
X137447619Y-74247619D01*
X137409523Y-74171428D01*
X137371428Y-74019047D01*
X137371428Y-73904761D01*
X137409523Y-73752380D01*
X137447619Y-73676190D01*
X137523809Y-73600000D01*
X137638095Y-73561904D01*
X137714285Y-73561904D01*
X137828571Y-73600000D01*
X137866666Y-73638095D01*
X138171428Y-73638095D02*
X138209523Y-73600000D01*
X138285714Y-73561904D01*
X138476190Y-73561904D01*
X138552380Y-73600000D01*
X138590476Y-73638095D01*
X138628571Y-73714285D01*
X138628571Y-73790476D01*
X138590476Y-73904761D01*
X138133333Y-74361904D01*
X138628571Y-74361904D01*
G04 #@! TO.C,C3*
X137866666Y-76285714D02*
X137828571Y-76323809D01*
X137714285Y-76361904D01*
X137638095Y-76361904D01*
X137523809Y-76323809D01*
X137447619Y-76247619D01*
X137409523Y-76171428D01*
X137371428Y-76019047D01*
X137371428Y-75904761D01*
X137409523Y-75752380D01*
X137447619Y-75676190D01*
X137523809Y-75600000D01*
X137638095Y-75561904D01*
X137714285Y-75561904D01*
X137828571Y-75600000D01*
X137866666Y-75638095D01*
X138133333Y-75561904D02*
X138628571Y-75561904D01*
X138361904Y-75866666D01*
X138476190Y-75866666D01*
X138552380Y-75904761D01*
X138590476Y-75942857D01*
X138628571Y-76019047D01*
X138628571Y-76209523D01*
X138590476Y-76285714D01*
X138552380Y-76323809D01*
X138476190Y-76361904D01*
X138247619Y-76361904D01*
X138171428Y-76323809D01*
X138133333Y-76285714D01*
G04 #@! TO.C,C4*
X137866666Y-78285714D02*
X137828571Y-78323809D01*
X137714285Y-78361904D01*
X137638095Y-78361904D01*
X137523809Y-78323809D01*
X137447619Y-78247619D01*
X137409523Y-78171428D01*
X137371428Y-78019047D01*
X137371428Y-77904761D01*
X137409523Y-77752380D01*
X137447619Y-77676190D01*
X137523809Y-77600000D01*
X137638095Y-77561904D01*
X137714285Y-77561904D01*
X137828571Y-77600000D01*
X137866666Y-77638095D01*
X138552380Y-77828571D02*
X138552380Y-78361904D01*
X138361904Y-77523809D02*
X138171428Y-78095238D01*
X138666666Y-78095238D01*
G04 #@! TO.C,C5*
X137866666Y-73285714D02*
X137828571Y-73323809D01*
X137714285Y-73361904D01*
X137638095Y-73361904D01*
X137523809Y-73323809D01*
X137447619Y-73247619D01*
X137409523Y-73171428D01*
X137371428Y-73019047D01*
X137371428Y-72904761D01*
X137409523Y-72752380D01*
X137447619Y-72676190D01*
X137523809Y-72600000D01*
X137638095Y-72561904D01*
X137714285Y-72561904D01*
X137828571Y-72600000D01*
X137866666Y-72638095D01*
X138590476Y-72561904D02*
X138209523Y-72561904D01*
X138171428Y-72942857D01*
X138209523Y-72904761D01*
X138285714Y-72866666D01*
X138476190Y-72866666D01*
X138552380Y-72904761D01*
X138590476Y-72942857D01*
X138628571Y-73019047D01*
X138628571Y-73209523D01*
X138590476Y-73285714D01*
X138552380Y-73323809D01*
X138476190Y-73361904D01*
X138285714Y-73361904D01*
X138209523Y-73323809D01*
X138171428Y-73285714D01*
G04 #@! TO.C,C6*
X137866666Y-75285714D02*
X137828571Y-75323809D01*
X137714285Y-75361904D01*
X137638095Y-75361904D01*
X137523809Y-75323809D01*
X137447619Y-75247619D01*
X137409523Y-75171428D01*
X137371428Y-75019047D01*
X137371428Y-74904761D01*
X137409523Y-74752380D01*
X137447619Y-74676190D01*
X137523809Y-74600000D01*
X137638095Y-74561904D01*
X137714285Y-74561904D01*
X137828571Y-74600000D01*
X137866666Y-74638095D01*
X138552380Y-74561904D02*
X138400000Y-74561904D01*
X138323809Y-74600000D01*
X138285714Y-74638095D01*
X138209523Y-74752380D01*
X138171428Y-74904761D01*
X138171428Y-75209523D01*
X138209523Y-75285714D01*
X138247619Y-75323809D01*
X138323809Y-75361904D01*
X138476190Y-75361904D01*
X138552380Y-75323809D01*
X138590476Y-75285714D01*
X138628571Y-75209523D01*
X138628571Y-75019047D01*
X138590476Y-74942857D01*
X138552380Y-74904761D01*
X138476190Y-74866666D01*
X138323809Y-74866666D01*
X138247619Y-74904761D01*
X138209523Y-74942857D01*
X138171428Y-75019047D01*
G04 #@! TO.C,C7*
X137866666Y-77285714D02*
X137828571Y-77323809D01*
X137714285Y-77361904D01*
X137638095Y-77361904D01*
X137523809Y-77323809D01*
X137447619Y-77247619D01*
X137409523Y-77171428D01*
X137371428Y-77019047D01*
X137371428Y-76904761D01*
X137409523Y-76752380D01*
X137447619Y-76676190D01*
X137523809Y-76600000D01*
X137638095Y-76561904D01*
X137714285Y-76561904D01*
X137828571Y-76600000D01*
X137866666Y-76638095D01*
X138133333Y-76561904D02*
X138666666Y-76561904D01*
X138323809Y-77361904D01*
G04 #@! TO.C,C8*
X137866666Y-79285714D02*
X137828571Y-79323809D01*
X137714285Y-79361904D01*
X137638095Y-79361904D01*
X137523809Y-79323809D01*
X137447619Y-79247619D01*
X137409523Y-79171428D01*
X137371428Y-79019047D01*
X137371428Y-78904761D01*
X137409523Y-78752380D01*
X137447619Y-78676190D01*
X137523809Y-78600000D01*
X137638095Y-78561904D01*
X137714285Y-78561904D01*
X137828571Y-78600000D01*
X137866666Y-78638095D01*
X138323809Y-78904761D02*
X138247619Y-78866666D01*
X138209523Y-78828571D01*
X138171428Y-78752380D01*
X138171428Y-78714285D01*
X138209523Y-78638095D01*
X138247619Y-78600000D01*
X138323809Y-78561904D01*
X138476190Y-78561904D01*
X138552380Y-78600000D01*
X138590476Y-78638095D01*
X138628571Y-78714285D01*
X138628571Y-78752380D01*
X138590476Y-78828571D01*
X138552380Y-78866666D01*
X138476190Y-78904761D01*
X138323809Y-78904761D01*
X138247619Y-78942857D01*
X138209523Y-78980952D01*
X138171428Y-79057142D01*
X138171428Y-79209523D01*
X138209523Y-79285714D01*
X138247619Y-79323809D01*
X138323809Y-79361904D01*
X138476190Y-79361904D01*
X138552380Y-79323809D01*
X138590476Y-79285714D01*
X138628571Y-79209523D01*
X138628571Y-79057142D01*
X138590476Y-78980952D01*
X138552380Y-78942857D01*
X138476190Y-78904761D01*
G04 #@! TO.C,C9*
X141366666Y-85535714D02*
X141328571Y-85573809D01*
X141214285Y-85611904D01*
X141138095Y-85611904D01*
X141023809Y-85573809D01*
X140947619Y-85497619D01*
X140909523Y-85421428D01*
X140871428Y-85269047D01*
X140871428Y-85154761D01*
X140909523Y-85002380D01*
X140947619Y-84926190D01*
X141023809Y-84850000D01*
X141138095Y-84811904D01*
X141214285Y-84811904D01*
X141328571Y-84850000D01*
X141366666Y-84888095D01*
X141747619Y-85611904D02*
X141900000Y-85611904D01*
X141976190Y-85573809D01*
X142014285Y-85535714D01*
X142090476Y-85421428D01*
X142128571Y-85269047D01*
X142128571Y-84964285D01*
X142090476Y-84888095D01*
X142052380Y-84850000D01*
X141976190Y-84811904D01*
X141823809Y-84811904D01*
X141747619Y-84850000D01*
X141709523Y-84888095D01*
X141671428Y-84964285D01*
X141671428Y-85154761D01*
X141709523Y-85230952D01*
X141747619Y-85269047D01*
X141823809Y-85307142D01*
X141976190Y-85307142D01*
X142052380Y-85269047D01*
X142090476Y-85230952D01*
X142128571Y-85154761D01*
G04 #@! TO.C,J1*
X133733333Y-68561904D02*
X133733333Y-69133333D01*
X133695238Y-69247619D01*
X133619047Y-69323809D01*
X133504761Y-69361904D01*
X133428571Y-69361904D01*
X134533333Y-69361904D02*
X134076190Y-69361904D01*
X134304761Y-69361904D02*
X134304761Y-68561904D01*
X134228571Y-68676190D01*
X134152380Y-68752380D01*
X134076190Y-68790476D01*
G04 #@! TO.C,J2*
X132733333Y-84561904D02*
X132733333Y-85133333D01*
X132695238Y-85247619D01*
X132619047Y-85323809D01*
X132504761Y-85361904D01*
X132428571Y-85361904D01*
X133076190Y-84638095D02*
X133114285Y-84600000D01*
X133190476Y-84561904D01*
X133380952Y-84561904D01*
X133457142Y-84600000D01*
X133495238Y-84638095D01*
X133533333Y-84714285D01*
X133533333Y-84790476D01*
X133495238Y-84904761D01*
X133038095Y-85361904D01*
X133533333Y-85361904D01*
G04 #@! TO.C,J3*
X141733333Y-68561904D02*
X141733333Y-69133333D01*
X141695238Y-69247619D01*
X141619047Y-69323809D01*
X141504761Y-69361904D01*
X141428571Y-69361904D01*
X142038095Y-68561904D02*
X142533333Y-68561904D01*
X142266666Y-68866666D01*
X142380952Y-68866666D01*
X142457142Y-68904761D01*
X142495238Y-68942857D01*
X142533333Y-69019047D01*
X142533333Y-69209523D01*
X142495238Y-69285714D01*
X142457142Y-69323809D01*
X142380952Y-69361904D01*
X142152380Y-69361904D01*
X142076190Y-69323809D01*
X142038095Y-69285714D01*
G04 #@! TD*
M02*
