G04 #@! TF.GenerationSoftware,KiCad,Pcbnew,5.0.2-bee76a0~70~ubuntu18.04.1*
G04 #@! TF.CreationDate,2020-06-27T14:22:49+01:00*
G04 #@! TF.ProjectId,picodvi_pmod,7069636f-6476-4695-9f70-6d6f642e6b69,rev?*
G04 #@! TF.SameCoordinates,Original*
G04 #@! TF.FileFunction,Copper,L1,Top*
G04 #@! TF.FilePolarity,Positive*
%FSLAX46Y46*%
G04 Gerber Fmt 4.6, Leading zero omitted, Abs format (unit mm)*
G04 Created by KiCad (PCBNEW 5.0.2-bee76a0~70~ubuntu18.04.1) date Sat 27 Jun 2020 14:22:49 BST*
%MOMM*%
%LPD*%
G01*
G04 APERTURE LIST*
G04 #@! TA.AperFunction,Conductor*
%ADD10C,0.100000*%
G04 #@! TD*
G04 #@! TA.AperFunction,SMDPad,CuDef*
%ADD11C,0.590000*%
G04 #@! TD*
G04 #@! TA.AperFunction,ComponentPad*
%ADD12R,1.700000X1.700000*%
G04 #@! TD*
G04 #@! TA.AperFunction,ComponentPad*
%ADD13O,1.700000X1.700000*%
G04 #@! TD*
G04 #@! TA.AperFunction,SMDPad,CuDef*
%ADD14R,1.900000X0.300000*%
G04 #@! TD*
G04 #@! TA.AperFunction,ComponentPad*
%ADD15C,1.900000*%
G04 #@! TD*
G04 #@! TA.AperFunction,ViaPad*
%ADD16C,0.600000*%
G04 #@! TD*
G04 #@! TA.AperFunction,Conductor*
%ADD17C,0.130000*%
G04 #@! TD*
G04 #@! TA.AperFunction,Conductor*
%ADD18C,0.500000*%
G04 #@! TD*
G04 #@! TA.AperFunction,Conductor*
%ADD19C,0.300000*%
G04 #@! TD*
G04 #@! TA.AperFunction,Conductor*
%ADD20C,0.200000*%
G04 #@! TD*
G04 APERTURE END LIST*
D10*
G04 #@! TO.N,/D2+*
G04 #@! TO.C,C1*
G36*
X140646958Y-71680710D02*
X140661276Y-71682834D01*
X140675317Y-71686351D01*
X140688946Y-71691228D01*
X140702031Y-71697417D01*
X140714447Y-71704858D01*
X140726073Y-71713481D01*
X140736798Y-71723202D01*
X140746519Y-71733927D01*
X140755142Y-71745553D01*
X140762583Y-71757969D01*
X140768772Y-71771054D01*
X140773649Y-71784683D01*
X140777166Y-71798724D01*
X140779290Y-71813042D01*
X140780000Y-71827500D01*
X140780000Y-72172500D01*
X140779290Y-72186958D01*
X140777166Y-72201276D01*
X140773649Y-72215317D01*
X140768772Y-72228946D01*
X140762583Y-72242031D01*
X140755142Y-72254447D01*
X140746519Y-72266073D01*
X140736798Y-72276798D01*
X140726073Y-72286519D01*
X140714447Y-72295142D01*
X140702031Y-72302583D01*
X140688946Y-72308772D01*
X140675317Y-72313649D01*
X140661276Y-72317166D01*
X140646958Y-72319290D01*
X140632500Y-72320000D01*
X140337500Y-72320000D01*
X140323042Y-72319290D01*
X140308724Y-72317166D01*
X140294683Y-72313649D01*
X140281054Y-72308772D01*
X140267969Y-72302583D01*
X140255553Y-72295142D01*
X140243927Y-72286519D01*
X140233202Y-72276798D01*
X140223481Y-72266073D01*
X140214858Y-72254447D01*
X140207417Y-72242031D01*
X140201228Y-72228946D01*
X140196351Y-72215317D01*
X140192834Y-72201276D01*
X140190710Y-72186958D01*
X140190000Y-72172500D01*
X140190000Y-71827500D01*
X140190710Y-71813042D01*
X140192834Y-71798724D01*
X140196351Y-71784683D01*
X140201228Y-71771054D01*
X140207417Y-71757969D01*
X140214858Y-71745553D01*
X140223481Y-71733927D01*
X140233202Y-71723202D01*
X140243927Y-71713481D01*
X140255553Y-71704858D01*
X140267969Y-71697417D01*
X140281054Y-71691228D01*
X140294683Y-71686351D01*
X140308724Y-71682834D01*
X140323042Y-71680710D01*
X140337500Y-71680000D01*
X140632500Y-71680000D01*
X140646958Y-71680710D01*
X140646958Y-71680710D01*
G37*
D11*
G04 #@! TD*
G04 #@! TO.P,C1,1*
G04 #@! TO.N,/D2+*
X140485000Y-72000000D03*
D10*
G04 #@! TO.N,/PMOD_D2+*
G04 #@! TO.C,C1*
G36*
X139676958Y-71680710D02*
X139691276Y-71682834D01*
X139705317Y-71686351D01*
X139718946Y-71691228D01*
X139732031Y-71697417D01*
X139744447Y-71704858D01*
X139756073Y-71713481D01*
X139766798Y-71723202D01*
X139776519Y-71733927D01*
X139785142Y-71745553D01*
X139792583Y-71757969D01*
X139798772Y-71771054D01*
X139803649Y-71784683D01*
X139807166Y-71798724D01*
X139809290Y-71813042D01*
X139810000Y-71827500D01*
X139810000Y-72172500D01*
X139809290Y-72186958D01*
X139807166Y-72201276D01*
X139803649Y-72215317D01*
X139798772Y-72228946D01*
X139792583Y-72242031D01*
X139785142Y-72254447D01*
X139776519Y-72266073D01*
X139766798Y-72276798D01*
X139756073Y-72286519D01*
X139744447Y-72295142D01*
X139732031Y-72302583D01*
X139718946Y-72308772D01*
X139705317Y-72313649D01*
X139691276Y-72317166D01*
X139676958Y-72319290D01*
X139662500Y-72320000D01*
X139367500Y-72320000D01*
X139353042Y-72319290D01*
X139338724Y-72317166D01*
X139324683Y-72313649D01*
X139311054Y-72308772D01*
X139297969Y-72302583D01*
X139285553Y-72295142D01*
X139273927Y-72286519D01*
X139263202Y-72276798D01*
X139253481Y-72266073D01*
X139244858Y-72254447D01*
X139237417Y-72242031D01*
X139231228Y-72228946D01*
X139226351Y-72215317D01*
X139222834Y-72201276D01*
X139220710Y-72186958D01*
X139220000Y-72172500D01*
X139220000Y-71827500D01*
X139220710Y-71813042D01*
X139222834Y-71798724D01*
X139226351Y-71784683D01*
X139231228Y-71771054D01*
X139237417Y-71757969D01*
X139244858Y-71745553D01*
X139253481Y-71733927D01*
X139263202Y-71723202D01*
X139273927Y-71713481D01*
X139285553Y-71704858D01*
X139297969Y-71697417D01*
X139311054Y-71691228D01*
X139324683Y-71686351D01*
X139338724Y-71682834D01*
X139353042Y-71680710D01*
X139367500Y-71680000D01*
X139662500Y-71680000D01*
X139676958Y-71680710D01*
X139676958Y-71680710D01*
G37*
D11*
G04 #@! TD*
G04 #@! TO.P,C1,2*
G04 #@! TO.N,/PMOD_D2+*
X139515000Y-72000000D03*
D10*
G04 #@! TO.N,/D1+*
G04 #@! TO.C,C2*
G36*
X140646958Y-73680710D02*
X140661276Y-73682834D01*
X140675317Y-73686351D01*
X140688946Y-73691228D01*
X140702031Y-73697417D01*
X140714447Y-73704858D01*
X140726073Y-73713481D01*
X140736798Y-73723202D01*
X140746519Y-73733927D01*
X140755142Y-73745553D01*
X140762583Y-73757969D01*
X140768772Y-73771054D01*
X140773649Y-73784683D01*
X140777166Y-73798724D01*
X140779290Y-73813042D01*
X140780000Y-73827500D01*
X140780000Y-74172500D01*
X140779290Y-74186958D01*
X140777166Y-74201276D01*
X140773649Y-74215317D01*
X140768772Y-74228946D01*
X140762583Y-74242031D01*
X140755142Y-74254447D01*
X140746519Y-74266073D01*
X140736798Y-74276798D01*
X140726073Y-74286519D01*
X140714447Y-74295142D01*
X140702031Y-74302583D01*
X140688946Y-74308772D01*
X140675317Y-74313649D01*
X140661276Y-74317166D01*
X140646958Y-74319290D01*
X140632500Y-74320000D01*
X140337500Y-74320000D01*
X140323042Y-74319290D01*
X140308724Y-74317166D01*
X140294683Y-74313649D01*
X140281054Y-74308772D01*
X140267969Y-74302583D01*
X140255553Y-74295142D01*
X140243927Y-74286519D01*
X140233202Y-74276798D01*
X140223481Y-74266073D01*
X140214858Y-74254447D01*
X140207417Y-74242031D01*
X140201228Y-74228946D01*
X140196351Y-74215317D01*
X140192834Y-74201276D01*
X140190710Y-74186958D01*
X140190000Y-74172500D01*
X140190000Y-73827500D01*
X140190710Y-73813042D01*
X140192834Y-73798724D01*
X140196351Y-73784683D01*
X140201228Y-73771054D01*
X140207417Y-73757969D01*
X140214858Y-73745553D01*
X140223481Y-73733927D01*
X140233202Y-73723202D01*
X140243927Y-73713481D01*
X140255553Y-73704858D01*
X140267969Y-73697417D01*
X140281054Y-73691228D01*
X140294683Y-73686351D01*
X140308724Y-73682834D01*
X140323042Y-73680710D01*
X140337500Y-73680000D01*
X140632500Y-73680000D01*
X140646958Y-73680710D01*
X140646958Y-73680710D01*
G37*
D11*
G04 #@! TD*
G04 #@! TO.P,C2,1*
G04 #@! TO.N,/D1+*
X140485000Y-74000000D03*
D10*
G04 #@! TO.N,/PMOD_D1+*
G04 #@! TO.C,C2*
G36*
X139676958Y-73680710D02*
X139691276Y-73682834D01*
X139705317Y-73686351D01*
X139718946Y-73691228D01*
X139732031Y-73697417D01*
X139744447Y-73704858D01*
X139756073Y-73713481D01*
X139766798Y-73723202D01*
X139776519Y-73733927D01*
X139785142Y-73745553D01*
X139792583Y-73757969D01*
X139798772Y-73771054D01*
X139803649Y-73784683D01*
X139807166Y-73798724D01*
X139809290Y-73813042D01*
X139810000Y-73827500D01*
X139810000Y-74172500D01*
X139809290Y-74186958D01*
X139807166Y-74201276D01*
X139803649Y-74215317D01*
X139798772Y-74228946D01*
X139792583Y-74242031D01*
X139785142Y-74254447D01*
X139776519Y-74266073D01*
X139766798Y-74276798D01*
X139756073Y-74286519D01*
X139744447Y-74295142D01*
X139732031Y-74302583D01*
X139718946Y-74308772D01*
X139705317Y-74313649D01*
X139691276Y-74317166D01*
X139676958Y-74319290D01*
X139662500Y-74320000D01*
X139367500Y-74320000D01*
X139353042Y-74319290D01*
X139338724Y-74317166D01*
X139324683Y-74313649D01*
X139311054Y-74308772D01*
X139297969Y-74302583D01*
X139285553Y-74295142D01*
X139273927Y-74286519D01*
X139263202Y-74276798D01*
X139253481Y-74266073D01*
X139244858Y-74254447D01*
X139237417Y-74242031D01*
X139231228Y-74228946D01*
X139226351Y-74215317D01*
X139222834Y-74201276D01*
X139220710Y-74186958D01*
X139220000Y-74172500D01*
X139220000Y-73827500D01*
X139220710Y-73813042D01*
X139222834Y-73798724D01*
X139226351Y-73784683D01*
X139231228Y-73771054D01*
X139237417Y-73757969D01*
X139244858Y-73745553D01*
X139253481Y-73733927D01*
X139263202Y-73723202D01*
X139273927Y-73713481D01*
X139285553Y-73704858D01*
X139297969Y-73697417D01*
X139311054Y-73691228D01*
X139324683Y-73686351D01*
X139338724Y-73682834D01*
X139353042Y-73680710D01*
X139367500Y-73680000D01*
X139662500Y-73680000D01*
X139676958Y-73680710D01*
X139676958Y-73680710D01*
G37*
D11*
G04 #@! TD*
G04 #@! TO.P,C2,2*
G04 #@! TO.N,/PMOD_D1+*
X139515000Y-74000000D03*
D10*
G04 #@! TO.N,/D0+*
G04 #@! TO.C,C3*
G36*
X140646958Y-75680710D02*
X140661276Y-75682834D01*
X140675317Y-75686351D01*
X140688946Y-75691228D01*
X140702031Y-75697417D01*
X140714447Y-75704858D01*
X140726073Y-75713481D01*
X140736798Y-75723202D01*
X140746519Y-75733927D01*
X140755142Y-75745553D01*
X140762583Y-75757969D01*
X140768772Y-75771054D01*
X140773649Y-75784683D01*
X140777166Y-75798724D01*
X140779290Y-75813042D01*
X140780000Y-75827500D01*
X140780000Y-76172500D01*
X140779290Y-76186958D01*
X140777166Y-76201276D01*
X140773649Y-76215317D01*
X140768772Y-76228946D01*
X140762583Y-76242031D01*
X140755142Y-76254447D01*
X140746519Y-76266073D01*
X140736798Y-76276798D01*
X140726073Y-76286519D01*
X140714447Y-76295142D01*
X140702031Y-76302583D01*
X140688946Y-76308772D01*
X140675317Y-76313649D01*
X140661276Y-76317166D01*
X140646958Y-76319290D01*
X140632500Y-76320000D01*
X140337500Y-76320000D01*
X140323042Y-76319290D01*
X140308724Y-76317166D01*
X140294683Y-76313649D01*
X140281054Y-76308772D01*
X140267969Y-76302583D01*
X140255553Y-76295142D01*
X140243927Y-76286519D01*
X140233202Y-76276798D01*
X140223481Y-76266073D01*
X140214858Y-76254447D01*
X140207417Y-76242031D01*
X140201228Y-76228946D01*
X140196351Y-76215317D01*
X140192834Y-76201276D01*
X140190710Y-76186958D01*
X140190000Y-76172500D01*
X140190000Y-75827500D01*
X140190710Y-75813042D01*
X140192834Y-75798724D01*
X140196351Y-75784683D01*
X140201228Y-75771054D01*
X140207417Y-75757969D01*
X140214858Y-75745553D01*
X140223481Y-75733927D01*
X140233202Y-75723202D01*
X140243927Y-75713481D01*
X140255553Y-75704858D01*
X140267969Y-75697417D01*
X140281054Y-75691228D01*
X140294683Y-75686351D01*
X140308724Y-75682834D01*
X140323042Y-75680710D01*
X140337500Y-75680000D01*
X140632500Y-75680000D01*
X140646958Y-75680710D01*
X140646958Y-75680710D01*
G37*
D11*
G04 #@! TD*
G04 #@! TO.P,C3,1*
G04 #@! TO.N,/D0+*
X140485000Y-76000000D03*
D10*
G04 #@! TO.N,/PMOD_D0+*
G04 #@! TO.C,C3*
G36*
X139676958Y-75680710D02*
X139691276Y-75682834D01*
X139705317Y-75686351D01*
X139718946Y-75691228D01*
X139732031Y-75697417D01*
X139744447Y-75704858D01*
X139756073Y-75713481D01*
X139766798Y-75723202D01*
X139776519Y-75733927D01*
X139785142Y-75745553D01*
X139792583Y-75757969D01*
X139798772Y-75771054D01*
X139803649Y-75784683D01*
X139807166Y-75798724D01*
X139809290Y-75813042D01*
X139810000Y-75827500D01*
X139810000Y-76172500D01*
X139809290Y-76186958D01*
X139807166Y-76201276D01*
X139803649Y-76215317D01*
X139798772Y-76228946D01*
X139792583Y-76242031D01*
X139785142Y-76254447D01*
X139776519Y-76266073D01*
X139766798Y-76276798D01*
X139756073Y-76286519D01*
X139744447Y-76295142D01*
X139732031Y-76302583D01*
X139718946Y-76308772D01*
X139705317Y-76313649D01*
X139691276Y-76317166D01*
X139676958Y-76319290D01*
X139662500Y-76320000D01*
X139367500Y-76320000D01*
X139353042Y-76319290D01*
X139338724Y-76317166D01*
X139324683Y-76313649D01*
X139311054Y-76308772D01*
X139297969Y-76302583D01*
X139285553Y-76295142D01*
X139273927Y-76286519D01*
X139263202Y-76276798D01*
X139253481Y-76266073D01*
X139244858Y-76254447D01*
X139237417Y-76242031D01*
X139231228Y-76228946D01*
X139226351Y-76215317D01*
X139222834Y-76201276D01*
X139220710Y-76186958D01*
X139220000Y-76172500D01*
X139220000Y-75827500D01*
X139220710Y-75813042D01*
X139222834Y-75798724D01*
X139226351Y-75784683D01*
X139231228Y-75771054D01*
X139237417Y-75757969D01*
X139244858Y-75745553D01*
X139253481Y-75733927D01*
X139263202Y-75723202D01*
X139273927Y-75713481D01*
X139285553Y-75704858D01*
X139297969Y-75697417D01*
X139311054Y-75691228D01*
X139324683Y-75686351D01*
X139338724Y-75682834D01*
X139353042Y-75680710D01*
X139367500Y-75680000D01*
X139662500Y-75680000D01*
X139676958Y-75680710D01*
X139676958Y-75680710D01*
G37*
D11*
G04 #@! TD*
G04 #@! TO.P,C3,2*
G04 #@! TO.N,/PMOD_D0+*
X139515000Y-76000000D03*
D10*
G04 #@! TO.N,/CK+*
G04 #@! TO.C,C4*
G36*
X140646958Y-77680710D02*
X140661276Y-77682834D01*
X140675317Y-77686351D01*
X140688946Y-77691228D01*
X140702031Y-77697417D01*
X140714447Y-77704858D01*
X140726073Y-77713481D01*
X140736798Y-77723202D01*
X140746519Y-77733927D01*
X140755142Y-77745553D01*
X140762583Y-77757969D01*
X140768772Y-77771054D01*
X140773649Y-77784683D01*
X140777166Y-77798724D01*
X140779290Y-77813042D01*
X140780000Y-77827500D01*
X140780000Y-78172500D01*
X140779290Y-78186958D01*
X140777166Y-78201276D01*
X140773649Y-78215317D01*
X140768772Y-78228946D01*
X140762583Y-78242031D01*
X140755142Y-78254447D01*
X140746519Y-78266073D01*
X140736798Y-78276798D01*
X140726073Y-78286519D01*
X140714447Y-78295142D01*
X140702031Y-78302583D01*
X140688946Y-78308772D01*
X140675317Y-78313649D01*
X140661276Y-78317166D01*
X140646958Y-78319290D01*
X140632500Y-78320000D01*
X140337500Y-78320000D01*
X140323042Y-78319290D01*
X140308724Y-78317166D01*
X140294683Y-78313649D01*
X140281054Y-78308772D01*
X140267969Y-78302583D01*
X140255553Y-78295142D01*
X140243927Y-78286519D01*
X140233202Y-78276798D01*
X140223481Y-78266073D01*
X140214858Y-78254447D01*
X140207417Y-78242031D01*
X140201228Y-78228946D01*
X140196351Y-78215317D01*
X140192834Y-78201276D01*
X140190710Y-78186958D01*
X140190000Y-78172500D01*
X140190000Y-77827500D01*
X140190710Y-77813042D01*
X140192834Y-77798724D01*
X140196351Y-77784683D01*
X140201228Y-77771054D01*
X140207417Y-77757969D01*
X140214858Y-77745553D01*
X140223481Y-77733927D01*
X140233202Y-77723202D01*
X140243927Y-77713481D01*
X140255553Y-77704858D01*
X140267969Y-77697417D01*
X140281054Y-77691228D01*
X140294683Y-77686351D01*
X140308724Y-77682834D01*
X140323042Y-77680710D01*
X140337500Y-77680000D01*
X140632500Y-77680000D01*
X140646958Y-77680710D01*
X140646958Y-77680710D01*
G37*
D11*
G04 #@! TD*
G04 #@! TO.P,C4,1*
G04 #@! TO.N,/CK+*
X140485000Y-78000000D03*
D10*
G04 #@! TO.N,/PMOD_CK+*
G04 #@! TO.C,C4*
G36*
X139676958Y-77680710D02*
X139691276Y-77682834D01*
X139705317Y-77686351D01*
X139718946Y-77691228D01*
X139732031Y-77697417D01*
X139744447Y-77704858D01*
X139756073Y-77713481D01*
X139766798Y-77723202D01*
X139776519Y-77733927D01*
X139785142Y-77745553D01*
X139792583Y-77757969D01*
X139798772Y-77771054D01*
X139803649Y-77784683D01*
X139807166Y-77798724D01*
X139809290Y-77813042D01*
X139810000Y-77827500D01*
X139810000Y-78172500D01*
X139809290Y-78186958D01*
X139807166Y-78201276D01*
X139803649Y-78215317D01*
X139798772Y-78228946D01*
X139792583Y-78242031D01*
X139785142Y-78254447D01*
X139776519Y-78266073D01*
X139766798Y-78276798D01*
X139756073Y-78286519D01*
X139744447Y-78295142D01*
X139732031Y-78302583D01*
X139718946Y-78308772D01*
X139705317Y-78313649D01*
X139691276Y-78317166D01*
X139676958Y-78319290D01*
X139662500Y-78320000D01*
X139367500Y-78320000D01*
X139353042Y-78319290D01*
X139338724Y-78317166D01*
X139324683Y-78313649D01*
X139311054Y-78308772D01*
X139297969Y-78302583D01*
X139285553Y-78295142D01*
X139273927Y-78286519D01*
X139263202Y-78276798D01*
X139253481Y-78266073D01*
X139244858Y-78254447D01*
X139237417Y-78242031D01*
X139231228Y-78228946D01*
X139226351Y-78215317D01*
X139222834Y-78201276D01*
X139220710Y-78186958D01*
X139220000Y-78172500D01*
X139220000Y-77827500D01*
X139220710Y-77813042D01*
X139222834Y-77798724D01*
X139226351Y-77784683D01*
X139231228Y-77771054D01*
X139237417Y-77757969D01*
X139244858Y-77745553D01*
X139253481Y-77733927D01*
X139263202Y-77723202D01*
X139273927Y-77713481D01*
X139285553Y-77704858D01*
X139297969Y-77697417D01*
X139311054Y-77691228D01*
X139324683Y-77686351D01*
X139338724Y-77682834D01*
X139353042Y-77680710D01*
X139367500Y-77680000D01*
X139662500Y-77680000D01*
X139676958Y-77680710D01*
X139676958Y-77680710D01*
G37*
D11*
G04 #@! TD*
G04 #@! TO.P,C4,2*
G04 #@! TO.N,/PMOD_CK+*
X139515000Y-78000000D03*
D10*
G04 #@! TO.N,/PMOD_D2-*
G04 #@! TO.C,C5*
G36*
X139676958Y-72680710D02*
X139691276Y-72682834D01*
X139705317Y-72686351D01*
X139718946Y-72691228D01*
X139732031Y-72697417D01*
X139744447Y-72704858D01*
X139756073Y-72713481D01*
X139766798Y-72723202D01*
X139776519Y-72733927D01*
X139785142Y-72745553D01*
X139792583Y-72757969D01*
X139798772Y-72771054D01*
X139803649Y-72784683D01*
X139807166Y-72798724D01*
X139809290Y-72813042D01*
X139810000Y-72827500D01*
X139810000Y-73172500D01*
X139809290Y-73186958D01*
X139807166Y-73201276D01*
X139803649Y-73215317D01*
X139798772Y-73228946D01*
X139792583Y-73242031D01*
X139785142Y-73254447D01*
X139776519Y-73266073D01*
X139766798Y-73276798D01*
X139756073Y-73286519D01*
X139744447Y-73295142D01*
X139732031Y-73302583D01*
X139718946Y-73308772D01*
X139705317Y-73313649D01*
X139691276Y-73317166D01*
X139676958Y-73319290D01*
X139662500Y-73320000D01*
X139367500Y-73320000D01*
X139353042Y-73319290D01*
X139338724Y-73317166D01*
X139324683Y-73313649D01*
X139311054Y-73308772D01*
X139297969Y-73302583D01*
X139285553Y-73295142D01*
X139273927Y-73286519D01*
X139263202Y-73276798D01*
X139253481Y-73266073D01*
X139244858Y-73254447D01*
X139237417Y-73242031D01*
X139231228Y-73228946D01*
X139226351Y-73215317D01*
X139222834Y-73201276D01*
X139220710Y-73186958D01*
X139220000Y-73172500D01*
X139220000Y-72827500D01*
X139220710Y-72813042D01*
X139222834Y-72798724D01*
X139226351Y-72784683D01*
X139231228Y-72771054D01*
X139237417Y-72757969D01*
X139244858Y-72745553D01*
X139253481Y-72733927D01*
X139263202Y-72723202D01*
X139273927Y-72713481D01*
X139285553Y-72704858D01*
X139297969Y-72697417D01*
X139311054Y-72691228D01*
X139324683Y-72686351D01*
X139338724Y-72682834D01*
X139353042Y-72680710D01*
X139367500Y-72680000D01*
X139662500Y-72680000D01*
X139676958Y-72680710D01*
X139676958Y-72680710D01*
G37*
D11*
G04 #@! TD*
G04 #@! TO.P,C5,2*
G04 #@! TO.N,/PMOD_D2-*
X139515000Y-73000000D03*
D10*
G04 #@! TO.N,/D2-*
G04 #@! TO.C,C5*
G36*
X140646958Y-72680710D02*
X140661276Y-72682834D01*
X140675317Y-72686351D01*
X140688946Y-72691228D01*
X140702031Y-72697417D01*
X140714447Y-72704858D01*
X140726073Y-72713481D01*
X140736798Y-72723202D01*
X140746519Y-72733927D01*
X140755142Y-72745553D01*
X140762583Y-72757969D01*
X140768772Y-72771054D01*
X140773649Y-72784683D01*
X140777166Y-72798724D01*
X140779290Y-72813042D01*
X140780000Y-72827500D01*
X140780000Y-73172500D01*
X140779290Y-73186958D01*
X140777166Y-73201276D01*
X140773649Y-73215317D01*
X140768772Y-73228946D01*
X140762583Y-73242031D01*
X140755142Y-73254447D01*
X140746519Y-73266073D01*
X140736798Y-73276798D01*
X140726073Y-73286519D01*
X140714447Y-73295142D01*
X140702031Y-73302583D01*
X140688946Y-73308772D01*
X140675317Y-73313649D01*
X140661276Y-73317166D01*
X140646958Y-73319290D01*
X140632500Y-73320000D01*
X140337500Y-73320000D01*
X140323042Y-73319290D01*
X140308724Y-73317166D01*
X140294683Y-73313649D01*
X140281054Y-73308772D01*
X140267969Y-73302583D01*
X140255553Y-73295142D01*
X140243927Y-73286519D01*
X140233202Y-73276798D01*
X140223481Y-73266073D01*
X140214858Y-73254447D01*
X140207417Y-73242031D01*
X140201228Y-73228946D01*
X140196351Y-73215317D01*
X140192834Y-73201276D01*
X140190710Y-73186958D01*
X140190000Y-73172500D01*
X140190000Y-72827500D01*
X140190710Y-72813042D01*
X140192834Y-72798724D01*
X140196351Y-72784683D01*
X140201228Y-72771054D01*
X140207417Y-72757969D01*
X140214858Y-72745553D01*
X140223481Y-72733927D01*
X140233202Y-72723202D01*
X140243927Y-72713481D01*
X140255553Y-72704858D01*
X140267969Y-72697417D01*
X140281054Y-72691228D01*
X140294683Y-72686351D01*
X140308724Y-72682834D01*
X140323042Y-72680710D01*
X140337500Y-72680000D01*
X140632500Y-72680000D01*
X140646958Y-72680710D01*
X140646958Y-72680710D01*
G37*
D11*
G04 #@! TD*
G04 #@! TO.P,C5,1*
G04 #@! TO.N,/D2-*
X140485000Y-73000000D03*
D10*
G04 #@! TO.N,/PMOD_D1-*
G04 #@! TO.C,C6*
G36*
X139676958Y-74680710D02*
X139691276Y-74682834D01*
X139705317Y-74686351D01*
X139718946Y-74691228D01*
X139732031Y-74697417D01*
X139744447Y-74704858D01*
X139756073Y-74713481D01*
X139766798Y-74723202D01*
X139776519Y-74733927D01*
X139785142Y-74745553D01*
X139792583Y-74757969D01*
X139798772Y-74771054D01*
X139803649Y-74784683D01*
X139807166Y-74798724D01*
X139809290Y-74813042D01*
X139810000Y-74827500D01*
X139810000Y-75172500D01*
X139809290Y-75186958D01*
X139807166Y-75201276D01*
X139803649Y-75215317D01*
X139798772Y-75228946D01*
X139792583Y-75242031D01*
X139785142Y-75254447D01*
X139776519Y-75266073D01*
X139766798Y-75276798D01*
X139756073Y-75286519D01*
X139744447Y-75295142D01*
X139732031Y-75302583D01*
X139718946Y-75308772D01*
X139705317Y-75313649D01*
X139691276Y-75317166D01*
X139676958Y-75319290D01*
X139662500Y-75320000D01*
X139367500Y-75320000D01*
X139353042Y-75319290D01*
X139338724Y-75317166D01*
X139324683Y-75313649D01*
X139311054Y-75308772D01*
X139297969Y-75302583D01*
X139285553Y-75295142D01*
X139273927Y-75286519D01*
X139263202Y-75276798D01*
X139253481Y-75266073D01*
X139244858Y-75254447D01*
X139237417Y-75242031D01*
X139231228Y-75228946D01*
X139226351Y-75215317D01*
X139222834Y-75201276D01*
X139220710Y-75186958D01*
X139220000Y-75172500D01*
X139220000Y-74827500D01*
X139220710Y-74813042D01*
X139222834Y-74798724D01*
X139226351Y-74784683D01*
X139231228Y-74771054D01*
X139237417Y-74757969D01*
X139244858Y-74745553D01*
X139253481Y-74733927D01*
X139263202Y-74723202D01*
X139273927Y-74713481D01*
X139285553Y-74704858D01*
X139297969Y-74697417D01*
X139311054Y-74691228D01*
X139324683Y-74686351D01*
X139338724Y-74682834D01*
X139353042Y-74680710D01*
X139367500Y-74680000D01*
X139662500Y-74680000D01*
X139676958Y-74680710D01*
X139676958Y-74680710D01*
G37*
D11*
G04 #@! TD*
G04 #@! TO.P,C6,2*
G04 #@! TO.N,/PMOD_D1-*
X139515000Y-75000000D03*
D10*
G04 #@! TO.N,/D1-*
G04 #@! TO.C,C6*
G36*
X140646958Y-74680710D02*
X140661276Y-74682834D01*
X140675317Y-74686351D01*
X140688946Y-74691228D01*
X140702031Y-74697417D01*
X140714447Y-74704858D01*
X140726073Y-74713481D01*
X140736798Y-74723202D01*
X140746519Y-74733927D01*
X140755142Y-74745553D01*
X140762583Y-74757969D01*
X140768772Y-74771054D01*
X140773649Y-74784683D01*
X140777166Y-74798724D01*
X140779290Y-74813042D01*
X140780000Y-74827500D01*
X140780000Y-75172500D01*
X140779290Y-75186958D01*
X140777166Y-75201276D01*
X140773649Y-75215317D01*
X140768772Y-75228946D01*
X140762583Y-75242031D01*
X140755142Y-75254447D01*
X140746519Y-75266073D01*
X140736798Y-75276798D01*
X140726073Y-75286519D01*
X140714447Y-75295142D01*
X140702031Y-75302583D01*
X140688946Y-75308772D01*
X140675317Y-75313649D01*
X140661276Y-75317166D01*
X140646958Y-75319290D01*
X140632500Y-75320000D01*
X140337500Y-75320000D01*
X140323042Y-75319290D01*
X140308724Y-75317166D01*
X140294683Y-75313649D01*
X140281054Y-75308772D01*
X140267969Y-75302583D01*
X140255553Y-75295142D01*
X140243927Y-75286519D01*
X140233202Y-75276798D01*
X140223481Y-75266073D01*
X140214858Y-75254447D01*
X140207417Y-75242031D01*
X140201228Y-75228946D01*
X140196351Y-75215317D01*
X140192834Y-75201276D01*
X140190710Y-75186958D01*
X140190000Y-75172500D01*
X140190000Y-74827500D01*
X140190710Y-74813042D01*
X140192834Y-74798724D01*
X140196351Y-74784683D01*
X140201228Y-74771054D01*
X140207417Y-74757969D01*
X140214858Y-74745553D01*
X140223481Y-74733927D01*
X140233202Y-74723202D01*
X140243927Y-74713481D01*
X140255553Y-74704858D01*
X140267969Y-74697417D01*
X140281054Y-74691228D01*
X140294683Y-74686351D01*
X140308724Y-74682834D01*
X140323042Y-74680710D01*
X140337500Y-74680000D01*
X140632500Y-74680000D01*
X140646958Y-74680710D01*
X140646958Y-74680710D01*
G37*
D11*
G04 #@! TD*
G04 #@! TO.P,C6,1*
G04 #@! TO.N,/D1-*
X140485000Y-75000000D03*
D10*
G04 #@! TO.N,/PMOD_D0-*
G04 #@! TO.C,C7*
G36*
X139676958Y-76680710D02*
X139691276Y-76682834D01*
X139705317Y-76686351D01*
X139718946Y-76691228D01*
X139732031Y-76697417D01*
X139744447Y-76704858D01*
X139756073Y-76713481D01*
X139766798Y-76723202D01*
X139776519Y-76733927D01*
X139785142Y-76745553D01*
X139792583Y-76757969D01*
X139798772Y-76771054D01*
X139803649Y-76784683D01*
X139807166Y-76798724D01*
X139809290Y-76813042D01*
X139810000Y-76827500D01*
X139810000Y-77172500D01*
X139809290Y-77186958D01*
X139807166Y-77201276D01*
X139803649Y-77215317D01*
X139798772Y-77228946D01*
X139792583Y-77242031D01*
X139785142Y-77254447D01*
X139776519Y-77266073D01*
X139766798Y-77276798D01*
X139756073Y-77286519D01*
X139744447Y-77295142D01*
X139732031Y-77302583D01*
X139718946Y-77308772D01*
X139705317Y-77313649D01*
X139691276Y-77317166D01*
X139676958Y-77319290D01*
X139662500Y-77320000D01*
X139367500Y-77320000D01*
X139353042Y-77319290D01*
X139338724Y-77317166D01*
X139324683Y-77313649D01*
X139311054Y-77308772D01*
X139297969Y-77302583D01*
X139285553Y-77295142D01*
X139273927Y-77286519D01*
X139263202Y-77276798D01*
X139253481Y-77266073D01*
X139244858Y-77254447D01*
X139237417Y-77242031D01*
X139231228Y-77228946D01*
X139226351Y-77215317D01*
X139222834Y-77201276D01*
X139220710Y-77186958D01*
X139220000Y-77172500D01*
X139220000Y-76827500D01*
X139220710Y-76813042D01*
X139222834Y-76798724D01*
X139226351Y-76784683D01*
X139231228Y-76771054D01*
X139237417Y-76757969D01*
X139244858Y-76745553D01*
X139253481Y-76733927D01*
X139263202Y-76723202D01*
X139273927Y-76713481D01*
X139285553Y-76704858D01*
X139297969Y-76697417D01*
X139311054Y-76691228D01*
X139324683Y-76686351D01*
X139338724Y-76682834D01*
X139353042Y-76680710D01*
X139367500Y-76680000D01*
X139662500Y-76680000D01*
X139676958Y-76680710D01*
X139676958Y-76680710D01*
G37*
D11*
G04 #@! TD*
G04 #@! TO.P,C7,2*
G04 #@! TO.N,/PMOD_D0-*
X139515000Y-77000000D03*
D10*
G04 #@! TO.N,/D0-*
G04 #@! TO.C,C7*
G36*
X140646958Y-76680710D02*
X140661276Y-76682834D01*
X140675317Y-76686351D01*
X140688946Y-76691228D01*
X140702031Y-76697417D01*
X140714447Y-76704858D01*
X140726073Y-76713481D01*
X140736798Y-76723202D01*
X140746519Y-76733927D01*
X140755142Y-76745553D01*
X140762583Y-76757969D01*
X140768772Y-76771054D01*
X140773649Y-76784683D01*
X140777166Y-76798724D01*
X140779290Y-76813042D01*
X140780000Y-76827500D01*
X140780000Y-77172500D01*
X140779290Y-77186958D01*
X140777166Y-77201276D01*
X140773649Y-77215317D01*
X140768772Y-77228946D01*
X140762583Y-77242031D01*
X140755142Y-77254447D01*
X140746519Y-77266073D01*
X140736798Y-77276798D01*
X140726073Y-77286519D01*
X140714447Y-77295142D01*
X140702031Y-77302583D01*
X140688946Y-77308772D01*
X140675317Y-77313649D01*
X140661276Y-77317166D01*
X140646958Y-77319290D01*
X140632500Y-77320000D01*
X140337500Y-77320000D01*
X140323042Y-77319290D01*
X140308724Y-77317166D01*
X140294683Y-77313649D01*
X140281054Y-77308772D01*
X140267969Y-77302583D01*
X140255553Y-77295142D01*
X140243927Y-77286519D01*
X140233202Y-77276798D01*
X140223481Y-77266073D01*
X140214858Y-77254447D01*
X140207417Y-77242031D01*
X140201228Y-77228946D01*
X140196351Y-77215317D01*
X140192834Y-77201276D01*
X140190710Y-77186958D01*
X140190000Y-77172500D01*
X140190000Y-76827500D01*
X140190710Y-76813042D01*
X140192834Y-76798724D01*
X140196351Y-76784683D01*
X140201228Y-76771054D01*
X140207417Y-76757969D01*
X140214858Y-76745553D01*
X140223481Y-76733927D01*
X140233202Y-76723202D01*
X140243927Y-76713481D01*
X140255553Y-76704858D01*
X140267969Y-76697417D01*
X140281054Y-76691228D01*
X140294683Y-76686351D01*
X140308724Y-76682834D01*
X140323042Y-76680710D01*
X140337500Y-76680000D01*
X140632500Y-76680000D01*
X140646958Y-76680710D01*
X140646958Y-76680710D01*
G37*
D11*
G04 #@! TD*
G04 #@! TO.P,C7,1*
G04 #@! TO.N,/D0-*
X140485000Y-77000000D03*
D10*
G04 #@! TO.N,/PMOD_CK-*
G04 #@! TO.C,C8*
G36*
X139676958Y-78680710D02*
X139691276Y-78682834D01*
X139705317Y-78686351D01*
X139718946Y-78691228D01*
X139732031Y-78697417D01*
X139744447Y-78704858D01*
X139756073Y-78713481D01*
X139766798Y-78723202D01*
X139776519Y-78733927D01*
X139785142Y-78745553D01*
X139792583Y-78757969D01*
X139798772Y-78771054D01*
X139803649Y-78784683D01*
X139807166Y-78798724D01*
X139809290Y-78813042D01*
X139810000Y-78827500D01*
X139810000Y-79172500D01*
X139809290Y-79186958D01*
X139807166Y-79201276D01*
X139803649Y-79215317D01*
X139798772Y-79228946D01*
X139792583Y-79242031D01*
X139785142Y-79254447D01*
X139776519Y-79266073D01*
X139766798Y-79276798D01*
X139756073Y-79286519D01*
X139744447Y-79295142D01*
X139732031Y-79302583D01*
X139718946Y-79308772D01*
X139705317Y-79313649D01*
X139691276Y-79317166D01*
X139676958Y-79319290D01*
X139662500Y-79320000D01*
X139367500Y-79320000D01*
X139353042Y-79319290D01*
X139338724Y-79317166D01*
X139324683Y-79313649D01*
X139311054Y-79308772D01*
X139297969Y-79302583D01*
X139285553Y-79295142D01*
X139273927Y-79286519D01*
X139263202Y-79276798D01*
X139253481Y-79266073D01*
X139244858Y-79254447D01*
X139237417Y-79242031D01*
X139231228Y-79228946D01*
X139226351Y-79215317D01*
X139222834Y-79201276D01*
X139220710Y-79186958D01*
X139220000Y-79172500D01*
X139220000Y-78827500D01*
X139220710Y-78813042D01*
X139222834Y-78798724D01*
X139226351Y-78784683D01*
X139231228Y-78771054D01*
X139237417Y-78757969D01*
X139244858Y-78745553D01*
X139253481Y-78733927D01*
X139263202Y-78723202D01*
X139273927Y-78713481D01*
X139285553Y-78704858D01*
X139297969Y-78697417D01*
X139311054Y-78691228D01*
X139324683Y-78686351D01*
X139338724Y-78682834D01*
X139353042Y-78680710D01*
X139367500Y-78680000D01*
X139662500Y-78680000D01*
X139676958Y-78680710D01*
X139676958Y-78680710D01*
G37*
D11*
G04 #@! TD*
G04 #@! TO.P,C8,2*
G04 #@! TO.N,/PMOD_CK-*
X139515000Y-79000000D03*
D10*
G04 #@! TO.N,/CK-*
G04 #@! TO.C,C8*
G36*
X140646958Y-78680710D02*
X140661276Y-78682834D01*
X140675317Y-78686351D01*
X140688946Y-78691228D01*
X140702031Y-78697417D01*
X140714447Y-78704858D01*
X140726073Y-78713481D01*
X140736798Y-78723202D01*
X140746519Y-78733927D01*
X140755142Y-78745553D01*
X140762583Y-78757969D01*
X140768772Y-78771054D01*
X140773649Y-78784683D01*
X140777166Y-78798724D01*
X140779290Y-78813042D01*
X140780000Y-78827500D01*
X140780000Y-79172500D01*
X140779290Y-79186958D01*
X140777166Y-79201276D01*
X140773649Y-79215317D01*
X140768772Y-79228946D01*
X140762583Y-79242031D01*
X140755142Y-79254447D01*
X140746519Y-79266073D01*
X140736798Y-79276798D01*
X140726073Y-79286519D01*
X140714447Y-79295142D01*
X140702031Y-79302583D01*
X140688946Y-79308772D01*
X140675317Y-79313649D01*
X140661276Y-79317166D01*
X140646958Y-79319290D01*
X140632500Y-79320000D01*
X140337500Y-79320000D01*
X140323042Y-79319290D01*
X140308724Y-79317166D01*
X140294683Y-79313649D01*
X140281054Y-79308772D01*
X140267969Y-79302583D01*
X140255553Y-79295142D01*
X140243927Y-79286519D01*
X140233202Y-79276798D01*
X140223481Y-79266073D01*
X140214858Y-79254447D01*
X140207417Y-79242031D01*
X140201228Y-79228946D01*
X140196351Y-79215317D01*
X140192834Y-79201276D01*
X140190710Y-79186958D01*
X140190000Y-79172500D01*
X140190000Y-78827500D01*
X140190710Y-78813042D01*
X140192834Y-78798724D01*
X140196351Y-78784683D01*
X140201228Y-78771054D01*
X140207417Y-78757969D01*
X140214858Y-78745553D01*
X140223481Y-78733927D01*
X140233202Y-78723202D01*
X140243927Y-78713481D01*
X140255553Y-78704858D01*
X140267969Y-78697417D01*
X140281054Y-78691228D01*
X140294683Y-78686351D01*
X140308724Y-78682834D01*
X140323042Y-78680710D01*
X140337500Y-78680000D01*
X140632500Y-78680000D01*
X140646958Y-78680710D01*
X140646958Y-78680710D01*
G37*
D11*
G04 #@! TD*
G04 #@! TO.P,C8,1*
G04 #@! TO.N,/CK-*
X140485000Y-79000000D03*
D10*
G04 #@! TO.N,GND*
G04 #@! TO.C,C9*
G36*
X141686958Y-83190710D02*
X141701276Y-83192834D01*
X141715317Y-83196351D01*
X141728946Y-83201228D01*
X141742031Y-83207417D01*
X141754447Y-83214858D01*
X141766073Y-83223481D01*
X141776798Y-83233202D01*
X141786519Y-83243927D01*
X141795142Y-83255553D01*
X141802583Y-83267969D01*
X141808772Y-83281054D01*
X141813649Y-83294683D01*
X141817166Y-83308724D01*
X141819290Y-83323042D01*
X141820000Y-83337500D01*
X141820000Y-83632500D01*
X141819290Y-83646958D01*
X141817166Y-83661276D01*
X141813649Y-83675317D01*
X141808772Y-83688946D01*
X141802583Y-83702031D01*
X141795142Y-83714447D01*
X141786519Y-83726073D01*
X141776798Y-83736798D01*
X141766073Y-83746519D01*
X141754447Y-83755142D01*
X141742031Y-83762583D01*
X141728946Y-83768772D01*
X141715317Y-83773649D01*
X141701276Y-83777166D01*
X141686958Y-83779290D01*
X141672500Y-83780000D01*
X141327500Y-83780000D01*
X141313042Y-83779290D01*
X141298724Y-83777166D01*
X141284683Y-83773649D01*
X141271054Y-83768772D01*
X141257969Y-83762583D01*
X141245553Y-83755142D01*
X141233927Y-83746519D01*
X141223202Y-83736798D01*
X141213481Y-83726073D01*
X141204858Y-83714447D01*
X141197417Y-83702031D01*
X141191228Y-83688946D01*
X141186351Y-83675317D01*
X141182834Y-83661276D01*
X141180710Y-83646958D01*
X141180000Y-83632500D01*
X141180000Y-83337500D01*
X141180710Y-83323042D01*
X141182834Y-83308724D01*
X141186351Y-83294683D01*
X141191228Y-83281054D01*
X141197417Y-83267969D01*
X141204858Y-83255553D01*
X141213481Y-83243927D01*
X141223202Y-83233202D01*
X141233927Y-83223481D01*
X141245553Y-83214858D01*
X141257969Y-83207417D01*
X141271054Y-83201228D01*
X141284683Y-83196351D01*
X141298724Y-83192834D01*
X141313042Y-83190710D01*
X141327500Y-83190000D01*
X141672500Y-83190000D01*
X141686958Y-83190710D01*
X141686958Y-83190710D01*
G37*
D11*
G04 #@! TD*
G04 #@! TO.P,C9,1*
G04 #@! TO.N,GND*
X141500000Y-83485000D03*
D10*
G04 #@! TO.N,+5V*
G04 #@! TO.C,C9*
G36*
X141686958Y-82220710D02*
X141701276Y-82222834D01*
X141715317Y-82226351D01*
X141728946Y-82231228D01*
X141742031Y-82237417D01*
X141754447Y-82244858D01*
X141766073Y-82253481D01*
X141776798Y-82263202D01*
X141786519Y-82273927D01*
X141795142Y-82285553D01*
X141802583Y-82297969D01*
X141808772Y-82311054D01*
X141813649Y-82324683D01*
X141817166Y-82338724D01*
X141819290Y-82353042D01*
X141820000Y-82367500D01*
X141820000Y-82662500D01*
X141819290Y-82676958D01*
X141817166Y-82691276D01*
X141813649Y-82705317D01*
X141808772Y-82718946D01*
X141802583Y-82732031D01*
X141795142Y-82744447D01*
X141786519Y-82756073D01*
X141776798Y-82766798D01*
X141766073Y-82776519D01*
X141754447Y-82785142D01*
X141742031Y-82792583D01*
X141728946Y-82798772D01*
X141715317Y-82803649D01*
X141701276Y-82807166D01*
X141686958Y-82809290D01*
X141672500Y-82810000D01*
X141327500Y-82810000D01*
X141313042Y-82809290D01*
X141298724Y-82807166D01*
X141284683Y-82803649D01*
X141271054Y-82798772D01*
X141257969Y-82792583D01*
X141245553Y-82785142D01*
X141233927Y-82776519D01*
X141223202Y-82766798D01*
X141213481Y-82756073D01*
X141204858Y-82744447D01*
X141197417Y-82732031D01*
X141191228Y-82718946D01*
X141186351Y-82705317D01*
X141182834Y-82691276D01*
X141180710Y-82676958D01*
X141180000Y-82662500D01*
X141180000Y-82367500D01*
X141180710Y-82353042D01*
X141182834Y-82338724D01*
X141186351Y-82324683D01*
X141191228Y-82311054D01*
X141197417Y-82297969D01*
X141204858Y-82285553D01*
X141213481Y-82273927D01*
X141223202Y-82263202D01*
X141233927Y-82253481D01*
X141245553Y-82244858D01*
X141257969Y-82237417D01*
X141271054Y-82231228D01*
X141284683Y-82226351D01*
X141298724Y-82222834D01*
X141313042Y-82220710D01*
X141327500Y-82220000D01*
X141672500Y-82220000D01*
X141686958Y-82220710D01*
X141686958Y-82220710D01*
G37*
D11*
G04 #@! TD*
G04 #@! TO.P,C9,2*
G04 #@! TO.N,+5V*
X141500000Y-82515000D03*
D12*
G04 #@! TO.P,J1,1*
G04 #@! TO.N,/PMOD_D2+*
X131445000Y-70000000D03*
D13*
G04 #@! TO.P,J1,2*
G04 #@! TO.N,/PMOD_D1+*
X128905000Y-70000000D03*
G04 #@! TO.P,J1,3*
G04 #@! TO.N,/PMOD_D2-*
X131445000Y-72540000D03*
G04 #@! TO.P,J1,4*
G04 #@! TO.N,/PMOD_D1-*
X128905000Y-72540000D03*
G04 #@! TO.P,J1,5*
G04 #@! TO.N,/PMOD_D0+*
X131445000Y-75080000D03*
G04 #@! TO.P,J1,6*
G04 #@! TO.N,/PMOD_CK+*
X128905000Y-75080000D03*
G04 #@! TO.P,J1,7*
G04 #@! TO.N,/PMOD_D0-*
X131445000Y-77620000D03*
G04 #@! TO.P,J1,8*
G04 #@! TO.N,/PMOD_CK-*
X128905000Y-77620000D03*
G04 #@! TO.P,J1,9*
G04 #@! TO.N,GND*
X131445000Y-80160000D03*
G04 #@! TO.P,J1,10*
X128905000Y-80160000D03*
G04 #@! TO.P,J1,11*
G04 #@! TO.N,+3V3*
X131445000Y-82700000D03*
G04 #@! TO.P,J1,12*
X128905000Y-82700000D03*
G04 #@! TD*
D12*
G04 #@! TO.P,J2,1*
G04 #@! TO.N,+5V*
X139000000Y-83000000D03*
D13*
G04 #@! TO.P,J2,2*
G04 #@! TO.N,GND*
X136460000Y-83000000D03*
G04 #@! TD*
D14*
G04 #@! TO.P,J3,1*
G04 #@! TO.N,/D2+*
X143600000Y-72500000D03*
G04 #@! TO.P,J3,2*
G04 #@! TO.N,GND*
X143600000Y-73000000D03*
G04 #@! TO.P,J3,3*
G04 #@! TO.N,/D2-*
X143600000Y-73500000D03*
G04 #@! TO.P,J3,4*
G04 #@! TO.N,/D1+*
X143600000Y-74000000D03*
G04 #@! TO.P,J3,5*
G04 #@! TO.N,GND*
X143600000Y-74500000D03*
G04 #@! TO.P,J3,6*
G04 #@! TO.N,/D1-*
X143600000Y-75000000D03*
G04 #@! TO.P,J3,7*
G04 #@! TO.N,/D0+*
X143600000Y-75500000D03*
G04 #@! TO.P,J3,8*
G04 #@! TO.N,GND*
X143600000Y-76000000D03*
G04 #@! TO.P,J3,9*
G04 #@! TO.N,/D0-*
X143600000Y-76500000D03*
G04 #@! TO.P,J3,10*
G04 #@! TO.N,/CK+*
X143600000Y-77000000D03*
G04 #@! TO.P,J3,11*
G04 #@! TO.N,GND*
X143600000Y-77500000D03*
G04 #@! TO.P,J3,12*
G04 #@! TO.N,/CK-*
X143600000Y-78000000D03*
G04 #@! TO.P,J3,13*
G04 #@! TO.N,Net-(J3-Pad13)*
X143600000Y-78500000D03*
G04 #@! TO.P,J3,14*
G04 #@! TO.N,Net-(J3-Pad14)*
X143600000Y-79000000D03*
G04 #@! TO.P,J3,15*
G04 #@! TO.N,Net-(J3-Pad15)*
X143600000Y-79500000D03*
G04 #@! TO.P,J3,16*
G04 #@! TO.N,Net-(J3-Pad16)*
X143600000Y-80000000D03*
G04 #@! TO.P,J3,17*
G04 #@! TO.N,GND*
X143600000Y-80500000D03*
G04 #@! TO.P,J3,18*
G04 #@! TO.N,+5V*
X143600000Y-81000000D03*
G04 #@! TO.P,J3,19*
G04 #@! TO.N,Net-(J3-Pad19)*
X143600000Y-81500000D03*
D15*
G04 #@! TO.P,J3,SH*
G04 #@! TO.N,GND*
X144500000Y-84000000D03*
X144500000Y-69500000D03*
X149400000Y-84600000D03*
X149400000Y-68900000D03*
G04 #@! TD*
D16*
G04 #@! TO.N,GND*
X142250000Y-77500000D03*
X142250000Y-76000000D03*
X142250000Y-74500000D03*
X142250000Y-73000000D03*
X145000000Y-73000000D03*
X145000000Y-74500000D03*
X145000000Y-76000000D03*
X145000000Y-77500000D03*
X141500000Y-84250000D03*
X128000000Y-68250000D03*
X127750000Y-85250000D03*
X142000000Y-79000000D03*
X141750000Y-71500000D03*
X134250000Y-71250000D03*
X151000000Y-77500000D03*
X145250000Y-80500000D03*
X142000000Y-80500000D03*
X132700000Y-72000000D03*
X132000000Y-76350000D03*
X129400000Y-76400000D03*
X129350000Y-73850000D03*
X129350000Y-71300000D03*
G04 #@! TD*
D17*
G04 #@! TO.N,/D2+*
X141630000Y-72870000D02*
X142000000Y-72500000D01*
X140485000Y-72000000D02*
X141355000Y-72870000D01*
X142000000Y-72500000D02*
X143600000Y-72500000D01*
X141355000Y-72870000D02*
X141630000Y-72870000D01*
G04 #@! TO.N,/PMOD_D2+*
X139265000Y-72250000D02*
X139515000Y-72000000D01*
X133725000Y-72250000D02*
X139265000Y-72250000D01*
X131445000Y-70000000D02*
X131475000Y-70000000D01*
X131475000Y-70000000D02*
X133725000Y-72250000D01*
G04 #@! TO.N,/D1+*
X142000000Y-74000000D02*
X143600000Y-74000000D01*
X141630000Y-74370000D02*
X142000000Y-74000000D01*
X140485000Y-74000000D02*
X140855000Y-74370000D01*
X140855000Y-74370000D02*
X141630000Y-74370000D01*
G04 #@! TO.N,/PMOD_D1+*
X138450000Y-74000000D02*
X139515000Y-74000000D01*
X138175000Y-73725000D02*
X138450000Y-74000000D01*
X129950001Y-73025001D02*
X130650000Y-73725000D01*
X129950001Y-71045001D02*
X129950001Y-73025001D01*
X130650000Y-73725000D02*
X138175000Y-73725000D01*
X128905000Y-70000000D02*
X129950001Y-71045001D01*
G04 #@! TO.N,/D0+*
X142000000Y-75500000D02*
X143600000Y-75500000D01*
X141630000Y-75870000D02*
X142000000Y-75500000D01*
X141247304Y-75870000D02*
X141630000Y-75870000D01*
X140485000Y-76000000D02*
X141117304Y-76000000D01*
X141117304Y-76000000D02*
X141247304Y-75870000D01*
G04 #@! TO.N,/PMOD_D0+*
X139140000Y-76375000D02*
X139515000Y-76000000D01*
X131445000Y-75080000D02*
X132740000Y-76375000D01*
X132740000Y-76375000D02*
X139140000Y-76375000D01*
G04 #@! TO.N,/CK+*
X142117304Y-77000000D02*
X143600000Y-77000000D01*
X141117304Y-78000000D02*
X141754999Y-77362305D01*
X141754999Y-77362305D02*
X141754999Y-77262399D01*
X141754999Y-77262399D02*
X142012399Y-77004999D01*
X140485000Y-78000000D02*
X141117304Y-78000000D01*
X142012399Y-77004999D02*
X142112305Y-77004999D01*
X142112305Y-77004999D02*
X142117304Y-77000000D01*
G04 #@! TO.N,/PMOD_CK+*
X139120000Y-78000000D02*
X139515000Y-78000000D01*
X138370000Y-78750000D02*
X139120000Y-78000000D01*
X130525000Y-78750000D02*
X138370000Y-78750000D01*
X129950001Y-78175001D02*
X130525000Y-78750000D01*
X128905000Y-75080000D02*
X129950001Y-76125001D01*
X129950001Y-76125001D02*
X129950001Y-78175001D01*
G04 #@! TO.N,/PMOD_D2-*
X139055000Y-72540000D02*
X139515000Y-73000000D01*
X131445000Y-72540000D02*
X139055000Y-72540000D01*
G04 #@! TO.N,/D2-*
X141630000Y-73130000D02*
X142000000Y-73500000D01*
X141247304Y-73130000D02*
X141630000Y-73130000D01*
X142000000Y-73500000D02*
X143600000Y-73500000D01*
X140485000Y-73000000D02*
X141117304Y-73000000D01*
X141117304Y-73000000D02*
X141247304Y-73130000D01*
G04 #@! TO.N,/PMOD_D1-*
X139120000Y-75000000D02*
X139515000Y-75000000D01*
X138067301Y-73985011D02*
X139082290Y-75000000D01*
X128905000Y-72540000D02*
X130350011Y-73985011D01*
X139082290Y-75000000D02*
X139120000Y-75000000D01*
X130350011Y-73985011D02*
X138067301Y-73985011D01*
G04 #@! TO.N,/D1-*
X142000000Y-75000000D02*
X143600000Y-75000000D01*
X141630000Y-74630000D02*
X142000000Y-75000000D01*
X140485000Y-75000000D02*
X140855000Y-74630000D01*
X140855000Y-74630000D02*
X141630000Y-74630000D01*
G04 #@! TO.N,/PMOD_D0-*
X139165000Y-76650000D02*
X139515000Y-77000000D01*
X131445000Y-77620000D02*
X132415000Y-76650000D01*
X132415000Y-76650000D02*
X139165000Y-76650000D01*
G04 #@! TO.N,/D0-*
X141630000Y-76130000D02*
X142000000Y-76500000D01*
X140485000Y-77000000D02*
X141355000Y-76130000D01*
X142000000Y-76500000D02*
X143600000Y-76500000D01*
X141355000Y-76130000D02*
X141630000Y-76130000D01*
G04 #@! TO.N,/PMOD_CK-*
X139109989Y-79010011D02*
X139120000Y-79000000D01*
X130295011Y-79010011D02*
X139109989Y-79010011D01*
X139120000Y-79000000D02*
X139515000Y-79000000D01*
X128905000Y-77620000D02*
X130295011Y-79010011D01*
G04 #@! TO.N,/CK-*
X142000000Y-78000000D02*
X143600000Y-78000000D01*
X140485000Y-79000000D02*
X141742500Y-77742500D01*
X141742500Y-77742500D02*
X142000000Y-78000000D01*
D18*
G04 #@! TO.N,+5V*
X139485000Y-82515000D02*
X141500000Y-82515000D01*
X139000000Y-83000000D02*
X139485000Y-82515000D01*
D19*
X142350000Y-81000000D02*
X143600000Y-81000000D01*
X141500000Y-81850000D02*
X142350000Y-81000000D01*
X141500000Y-82515000D02*
X141500000Y-81850000D01*
G04 #@! TD*
D20*
G04 #@! TO.N,GND*
G36*
X148542480Y-68007124D02*
X149400000Y-68864645D01*
X150257520Y-68007124D01*
X150202955Y-67900000D01*
X151600001Y-67900000D01*
X151600000Y-85600000D01*
X150202955Y-85600000D01*
X150257520Y-85492876D01*
X149400000Y-84635355D01*
X148542480Y-85492876D01*
X148597045Y-85600000D01*
X127400000Y-85600000D01*
X127400000Y-84892876D01*
X143642480Y-84892876D01*
X143741273Y-85086830D01*
X144214940Y-85294452D01*
X144732004Y-85305006D01*
X145213747Y-85116884D01*
X145258727Y-85086830D01*
X145357520Y-84892876D01*
X144500000Y-84035355D01*
X143642480Y-84892876D01*
X127400000Y-84892876D01*
X127400000Y-84232004D01*
X143194994Y-84232004D01*
X143383116Y-84713747D01*
X143413170Y-84758727D01*
X143607124Y-84857520D01*
X144464645Y-84000000D01*
X144535355Y-84000000D01*
X145392876Y-84857520D01*
X145442969Y-84832004D01*
X148094994Y-84832004D01*
X148283116Y-85313747D01*
X148313170Y-85358727D01*
X148507124Y-85457520D01*
X149364645Y-84600000D01*
X149435355Y-84600000D01*
X150292876Y-85457520D01*
X150486830Y-85358727D01*
X150694452Y-84885060D01*
X150705006Y-84367996D01*
X150516884Y-83886253D01*
X150486830Y-83841273D01*
X150292876Y-83742480D01*
X149435355Y-84600000D01*
X149364645Y-84600000D01*
X148507124Y-83742480D01*
X148313170Y-83841273D01*
X148105548Y-84314940D01*
X148094994Y-84832004D01*
X145442969Y-84832004D01*
X145586830Y-84758727D01*
X145794452Y-84285060D01*
X145805006Y-83767996D01*
X145781236Y-83707124D01*
X148542480Y-83707124D01*
X149400000Y-84564645D01*
X150257520Y-83707124D01*
X150158727Y-83513170D01*
X149685060Y-83305548D01*
X149167996Y-83294994D01*
X148686253Y-83483116D01*
X148641273Y-83513170D01*
X148542480Y-83707124D01*
X145781236Y-83707124D01*
X145616884Y-83286253D01*
X145586830Y-83241273D01*
X145392876Y-83142480D01*
X144535355Y-84000000D01*
X144464645Y-84000000D01*
X143607124Y-83142480D01*
X143413170Y-83241273D01*
X143205548Y-83714940D01*
X143194994Y-84232004D01*
X127400000Y-84232004D01*
X127400000Y-82700000D01*
X127732471Y-82700000D01*
X127821724Y-83148707D01*
X128075897Y-83529103D01*
X128456293Y-83783276D01*
X128791739Y-83850000D01*
X129018261Y-83850000D01*
X129353707Y-83783276D01*
X129734103Y-83529103D01*
X129988276Y-83148707D01*
X130077529Y-82700000D01*
X130272471Y-82700000D01*
X130361724Y-83148707D01*
X130615897Y-83529103D01*
X130996293Y-83783276D01*
X131331739Y-83850000D01*
X131558261Y-83850000D01*
X131893707Y-83783276D01*
X132274103Y-83529103D01*
X132485735Y-83212373D01*
X135278940Y-83212373D01*
X135450114Y-83648179D01*
X135775034Y-83985306D01*
X136204234Y-84172429D01*
X136247627Y-84181058D01*
X136435000Y-84112219D01*
X136435000Y-83025000D01*
X136485000Y-83025000D01*
X136485000Y-84112219D01*
X136672373Y-84181058D01*
X136715766Y-84172429D01*
X137144966Y-83985306D01*
X137469886Y-83648179D01*
X137641060Y-83212373D01*
X137572242Y-83025000D01*
X136485000Y-83025000D01*
X136435000Y-83025000D01*
X135347758Y-83025000D01*
X135278940Y-83212373D01*
X132485735Y-83212373D01*
X132528276Y-83148707D01*
X132600098Y-82787627D01*
X135278940Y-82787627D01*
X135347758Y-82975000D01*
X136435000Y-82975000D01*
X136435000Y-81887781D01*
X136485000Y-81887781D01*
X136485000Y-82975000D01*
X137572242Y-82975000D01*
X137641060Y-82787627D01*
X137469886Y-82351821D01*
X137275373Y-82150000D01*
X137844123Y-82150000D01*
X137844123Y-83850000D01*
X137867407Y-83967054D01*
X137933712Y-84066288D01*
X138032946Y-84132593D01*
X138150000Y-84155877D01*
X139850000Y-84155877D01*
X139967054Y-84132593D01*
X140066288Y-84066288D01*
X140132593Y-83967054D01*
X140155877Y-83850000D01*
X140155877Y-83597500D01*
X140830000Y-83597500D01*
X140830000Y-83849619D01*
X140883284Y-83978259D01*
X140981741Y-84076715D01*
X141110380Y-84130000D01*
X141387500Y-84130000D01*
X141475000Y-84042500D01*
X141475000Y-83510000D01*
X141525000Y-83510000D01*
X141525000Y-84042500D01*
X141612500Y-84130000D01*
X141889620Y-84130000D01*
X142018259Y-84076715D01*
X142116716Y-83978259D01*
X142170000Y-83849619D01*
X142170000Y-83597500D01*
X142082500Y-83510000D01*
X141525000Y-83510000D01*
X141475000Y-83510000D01*
X140917500Y-83510000D01*
X140830000Y-83597500D01*
X140155877Y-83597500D01*
X140155877Y-83065000D01*
X140852939Y-83065000D01*
X140830000Y-83120381D01*
X140830000Y-83372500D01*
X140917500Y-83460000D01*
X141475000Y-83460000D01*
X141475000Y-83440000D01*
X141525000Y-83440000D01*
X141525000Y-83460000D01*
X142082500Y-83460000D01*
X142170000Y-83372500D01*
X142170000Y-83120381D01*
X142164509Y-83107124D01*
X143642480Y-83107124D01*
X144500000Y-83964645D01*
X145357520Y-83107124D01*
X145258727Y-82913170D01*
X144785060Y-82705548D01*
X144267996Y-82694994D01*
X143786253Y-82883116D01*
X143741273Y-82913170D01*
X143642480Y-83107124D01*
X142164509Y-83107124D01*
X142116716Y-82991741D01*
X142039138Y-82914164D01*
X142091366Y-82836000D01*
X142125877Y-82662500D01*
X142125877Y-82367500D01*
X142091366Y-82194000D01*
X141993086Y-82046914D01*
X141960952Y-82025443D01*
X142344123Y-81642273D01*
X142344123Y-81650000D01*
X142367407Y-81767054D01*
X142433712Y-81866288D01*
X142532946Y-81932593D01*
X142650000Y-81955877D01*
X144550000Y-81955877D01*
X144667054Y-81932593D01*
X144766288Y-81866288D01*
X144832593Y-81767054D01*
X144855877Y-81650000D01*
X144855877Y-81350000D01*
X144835985Y-81250000D01*
X144855877Y-81150000D01*
X144855877Y-80850000D01*
X144852671Y-80833882D01*
X144900000Y-80719619D01*
X144900000Y-80612500D01*
X144812500Y-80525000D01*
X143625000Y-80525000D01*
X143625000Y-80544123D01*
X143575000Y-80544123D01*
X143575000Y-80525000D01*
X142387500Y-80525000D01*
X142367779Y-80544721D01*
X142350000Y-80541184D01*
X142174418Y-80576109D01*
X142063141Y-80650462D01*
X142063139Y-80650464D01*
X142025568Y-80675568D01*
X142000463Y-80713140D01*
X141213143Y-81500462D01*
X141175569Y-81525568D01*
X141150463Y-81563142D01*
X141076110Y-81674419D01*
X141041184Y-81850000D01*
X141050001Y-81894324D01*
X141050001Y-81965000D01*
X140087194Y-81965000D01*
X140066288Y-81933712D01*
X139967054Y-81867407D01*
X139850000Y-81844123D01*
X138150000Y-81844123D01*
X138032946Y-81867407D01*
X137933712Y-81933712D01*
X137867407Y-82032946D01*
X137844123Y-82150000D01*
X137275373Y-82150000D01*
X137144966Y-82014694D01*
X136715766Y-81827571D01*
X136672373Y-81818942D01*
X136485000Y-81887781D01*
X136435000Y-81887781D01*
X136247627Y-81818942D01*
X136204234Y-81827571D01*
X135775034Y-82014694D01*
X135450114Y-82351821D01*
X135278940Y-82787627D01*
X132600098Y-82787627D01*
X132617529Y-82700000D01*
X132528276Y-82251293D01*
X132274103Y-81870897D01*
X131893707Y-81616724D01*
X131558261Y-81550000D01*
X131331739Y-81550000D01*
X130996293Y-81616724D01*
X130615897Y-81870897D01*
X130361724Y-82251293D01*
X130272471Y-82700000D01*
X130077529Y-82700000D01*
X129988276Y-82251293D01*
X129734103Y-81870897D01*
X129353707Y-81616724D01*
X129018261Y-81550000D01*
X128791739Y-81550000D01*
X128456293Y-81616724D01*
X128075897Y-81870897D01*
X127821724Y-82251293D01*
X127732471Y-82700000D01*
X127400000Y-82700000D01*
X127400000Y-80372373D01*
X127723942Y-80372373D01*
X127732571Y-80415766D01*
X127919694Y-80844966D01*
X128256821Y-81169886D01*
X128692627Y-81341060D01*
X128880000Y-81272242D01*
X128880000Y-80185000D01*
X128930000Y-80185000D01*
X128930000Y-81272242D01*
X129117373Y-81341060D01*
X129553179Y-81169886D01*
X129890306Y-80844966D01*
X130077429Y-80415766D01*
X130086058Y-80372373D01*
X130263942Y-80372373D01*
X130272571Y-80415766D01*
X130459694Y-80844966D01*
X130796821Y-81169886D01*
X131232627Y-81341060D01*
X131420000Y-81272242D01*
X131420000Y-80185000D01*
X131470000Y-80185000D01*
X131470000Y-81272242D01*
X131657373Y-81341060D01*
X132093179Y-81169886D01*
X132430306Y-80844966D01*
X132617429Y-80415766D01*
X132626058Y-80372373D01*
X132557219Y-80185000D01*
X131470000Y-80185000D01*
X131420000Y-80185000D01*
X130332781Y-80185000D01*
X130263942Y-80372373D01*
X130086058Y-80372373D01*
X130017219Y-80185000D01*
X128930000Y-80185000D01*
X128880000Y-80185000D01*
X127792781Y-80185000D01*
X127723942Y-80372373D01*
X127400000Y-80372373D01*
X127400000Y-79947627D01*
X127723942Y-79947627D01*
X127792781Y-80135000D01*
X128880000Y-80135000D01*
X128880000Y-79047758D01*
X128930000Y-79047758D01*
X128930000Y-80135000D01*
X130017219Y-80135000D01*
X130086058Y-79947627D01*
X130077429Y-79904234D01*
X129890306Y-79475034D01*
X129553179Y-79150114D01*
X129117373Y-78978940D01*
X128930000Y-79047758D01*
X128880000Y-79047758D01*
X128692627Y-78978940D01*
X128256821Y-79150114D01*
X127919694Y-79475034D01*
X127732571Y-79904234D01*
X127723942Y-79947627D01*
X127400000Y-79947627D01*
X127400000Y-70000000D01*
X127732471Y-70000000D01*
X127821724Y-70448707D01*
X128075897Y-70829103D01*
X128456293Y-71083276D01*
X128791739Y-71150000D01*
X129018261Y-71150000D01*
X129353707Y-71083276D01*
X129424671Y-71035859D01*
X129585001Y-71196189D01*
X129585001Y-71611270D01*
X129353707Y-71456724D01*
X129018261Y-71390000D01*
X128791739Y-71390000D01*
X128456293Y-71456724D01*
X128075897Y-71710897D01*
X127821724Y-72091293D01*
X127732471Y-72540000D01*
X127821724Y-72988707D01*
X128075897Y-73369103D01*
X128456293Y-73623276D01*
X128791739Y-73690000D01*
X129018261Y-73690000D01*
X129353707Y-73623276D01*
X129424671Y-73575859D01*
X130066499Y-74217687D01*
X130086861Y-74248161D01*
X130207595Y-74328833D01*
X130350010Y-74357161D01*
X130385956Y-74350011D01*
X130549671Y-74350011D01*
X130361724Y-74631293D01*
X130272471Y-75080000D01*
X130361724Y-75528707D01*
X130615897Y-75909103D01*
X130996293Y-76163276D01*
X131331739Y-76230000D01*
X131558261Y-76230000D01*
X131893707Y-76163276D01*
X131964671Y-76115859D01*
X132202092Y-76353280D01*
X132151850Y-76386850D01*
X132131488Y-76417324D01*
X131964671Y-76584141D01*
X131893707Y-76536724D01*
X131558261Y-76470000D01*
X131331739Y-76470000D01*
X130996293Y-76536724D01*
X130615897Y-76790897D01*
X130361724Y-77171293D01*
X130315001Y-77406186D01*
X130315001Y-76160947D01*
X130322151Y-76125001D01*
X130293823Y-75982585D01*
X130260419Y-75932593D01*
X130213151Y-75861851D01*
X130182677Y-75841489D01*
X129940859Y-75599671D01*
X129988276Y-75528707D01*
X130077529Y-75080000D01*
X129988276Y-74631293D01*
X129734103Y-74250897D01*
X129353707Y-73996724D01*
X129018261Y-73930000D01*
X128791739Y-73930000D01*
X128456293Y-73996724D01*
X128075897Y-74250897D01*
X127821724Y-74631293D01*
X127732471Y-75080000D01*
X127821724Y-75528707D01*
X128075897Y-75909103D01*
X128456293Y-76163276D01*
X128791739Y-76230000D01*
X129018261Y-76230000D01*
X129353707Y-76163276D01*
X129424671Y-76115859D01*
X129585001Y-76276189D01*
X129585001Y-76691270D01*
X129353707Y-76536724D01*
X129018261Y-76470000D01*
X128791739Y-76470000D01*
X128456293Y-76536724D01*
X128075897Y-76790897D01*
X127821724Y-77171293D01*
X127732471Y-77620000D01*
X127821724Y-78068707D01*
X128075897Y-78449103D01*
X128456293Y-78703276D01*
X128791739Y-78770000D01*
X129018261Y-78770000D01*
X129353707Y-78703276D01*
X129424671Y-78655859D01*
X130011499Y-79242687D01*
X130031861Y-79273161D01*
X130152595Y-79353833D01*
X130259065Y-79375011D01*
X130259066Y-79375011D01*
X130295010Y-79382161D01*
X130330955Y-79375011D01*
X130563475Y-79375011D01*
X130459694Y-79475034D01*
X130272571Y-79904234D01*
X130263942Y-79947627D01*
X130332781Y-80135000D01*
X131420000Y-80135000D01*
X131420000Y-80115000D01*
X131470000Y-80115000D01*
X131470000Y-80135000D01*
X132557219Y-80135000D01*
X132626058Y-79947627D01*
X132617429Y-79904234D01*
X132430306Y-79475034D01*
X132326525Y-79375011D01*
X138968019Y-79375011D01*
X139046914Y-79493086D01*
X139194000Y-79591366D01*
X139367500Y-79625877D01*
X139662500Y-79625877D01*
X139836000Y-79591366D01*
X139983086Y-79493086D01*
X140000000Y-79467772D01*
X140016914Y-79493086D01*
X140164000Y-79591366D01*
X140337500Y-79625877D01*
X140632500Y-79625877D01*
X140806000Y-79591366D01*
X140953086Y-79493086D01*
X141051366Y-79346000D01*
X141085877Y-79172500D01*
X141085877Y-78915310D01*
X141737562Y-78263625D01*
X141818065Y-78317416D01*
X141857584Y-78343822D01*
X142000000Y-78372150D01*
X142035946Y-78365000D01*
X142344123Y-78365000D01*
X142344123Y-78650000D01*
X142364015Y-78750000D01*
X142344123Y-78850000D01*
X142344123Y-79150000D01*
X142364015Y-79250000D01*
X142344123Y-79350000D01*
X142344123Y-79650000D01*
X142364015Y-79750000D01*
X142344123Y-79850000D01*
X142344123Y-80150000D01*
X142347329Y-80166118D01*
X142300000Y-80280381D01*
X142300000Y-80387500D01*
X142387500Y-80475000D01*
X143575000Y-80475000D01*
X143575000Y-80455877D01*
X143625000Y-80455877D01*
X143625000Y-80475000D01*
X144812500Y-80475000D01*
X144900000Y-80387500D01*
X144900000Y-80280381D01*
X144852671Y-80166118D01*
X144855877Y-80150000D01*
X144855877Y-79850000D01*
X144835985Y-79750000D01*
X144855877Y-79650000D01*
X144855877Y-79350000D01*
X144835985Y-79250000D01*
X144855877Y-79150000D01*
X144855877Y-78850000D01*
X144835985Y-78750000D01*
X144855877Y-78650000D01*
X144855877Y-78350000D01*
X144835985Y-78250000D01*
X144855877Y-78150000D01*
X144855877Y-77850000D01*
X144852671Y-77833882D01*
X144900000Y-77719619D01*
X144900000Y-77612500D01*
X144812500Y-77525000D01*
X143625000Y-77525000D01*
X143625000Y-77544123D01*
X143575000Y-77544123D01*
X143575000Y-77525000D01*
X142387500Y-77525000D01*
X142300000Y-77612500D01*
X142300000Y-77635000D01*
X142151188Y-77635000D01*
X142067614Y-77551426D01*
X142098821Y-77504721D01*
X142116191Y-77417394D01*
X142167394Y-77366191D01*
X142173383Y-77365000D01*
X142300000Y-77365000D01*
X142300000Y-77387500D01*
X142387500Y-77475000D01*
X143575000Y-77475000D01*
X143575000Y-77455877D01*
X143625000Y-77455877D01*
X143625000Y-77475000D01*
X144812500Y-77475000D01*
X144900000Y-77387500D01*
X144900000Y-77280381D01*
X144852671Y-77166118D01*
X144855877Y-77150000D01*
X144855877Y-76850000D01*
X144835985Y-76750000D01*
X144855877Y-76650000D01*
X144855877Y-76350000D01*
X144852671Y-76333882D01*
X144900000Y-76219619D01*
X144900000Y-76112500D01*
X144812500Y-76025000D01*
X143625000Y-76025000D01*
X143625000Y-76044123D01*
X143575000Y-76044123D01*
X143575000Y-76025000D01*
X142387500Y-76025000D01*
X142300000Y-76112500D01*
X142300000Y-76135000D01*
X142151188Y-76135000D01*
X142016187Y-76000000D01*
X142151188Y-75865000D01*
X142300000Y-75865000D01*
X142300000Y-75887500D01*
X142387500Y-75975000D01*
X143575000Y-75975000D01*
X143575000Y-75955877D01*
X143625000Y-75955877D01*
X143625000Y-75975000D01*
X144812500Y-75975000D01*
X144900000Y-75887500D01*
X144900000Y-75780381D01*
X144852671Y-75666118D01*
X144855877Y-75650000D01*
X144855877Y-75350000D01*
X144835985Y-75250000D01*
X144855877Y-75150000D01*
X144855877Y-74850000D01*
X144852671Y-74833882D01*
X144900000Y-74719619D01*
X144900000Y-74612500D01*
X144812500Y-74525000D01*
X143625000Y-74525000D01*
X143625000Y-74544123D01*
X143575000Y-74544123D01*
X143575000Y-74525000D01*
X142387500Y-74525000D01*
X142300000Y-74612500D01*
X142300000Y-74635000D01*
X142151188Y-74635000D01*
X142016187Y-74500000D01*
X142151188Y-74365000D01*
X142300000Y-74365000D01*
X142300000Y-74387500D01*
X142387500Y-74475000D01*
X143575000Y-74475000D01*
X143575000Y-74455877D01*
X143625000Y-74455877D01*
X143625000Y-74475000D01*
X144812500Y-74475000D01*
X144900000Y-74387500D01*
X144900000Y-74280381D01*
X144852671Y-74166118D01*
X144855877Y-74150000D01*
X144855877Y-73850000D01*
X144835985Y-73750000D01*
X144855877Y-73650000D01*
X144855877Y-73350000D01*
X144852671Y-73333882D01*
X144900000Y-73219619D01*
X144900000Y-73112500D01*
X144812500Y-73025000D01*
X143625000Y-73025000D01*
X143625000Y-73044123D01*
X143575000Y-73044123D01*
X143575000Y-73025000D01*
X142387500Y-73025000D01*
X142300000Y-73112500D01*
X142300000Y-73135000D01*
X142151188Y-73135000D01*
X142016187Y-73000000D01*
X142151188Y-72865000D01*
X142300000Y-72865000D01*
X142300000Y-72887500D01*
X142387500Y-72975000D01*
X143575000Y-72975000D01*
X143575000Y-72955877D01*
X143625000Y-72955877D01*
X143625000Y-72975000D01*
X144812500Y-72975000D01*
X144900000Y-72887500D01*
X144900000Y-72780381D01*
X144852671Y-72666118D01*
X144855877Y-72650000D01*
X144855877Y-72350000D01*
X144832593Y-72232946D01*
X144766288Y-72133712D01*
X144667054Y-72067407D01*
X144550000Y-72044123D01*
X142650000Y-72044123D01*
X142532946Y-72067407D01*
X142433712Y-72133712D01*
X142432851Y-72135000D01*
X142035945Y-72135000D01*
X141999999Y-72127850D01*
X141926776Y-72142415D01*
X141857584Y-72156178D01*
X141736850Y-72236850D01*
X141716487Y-72267325D01*
X141492500Y-72491312D01*
X141085877Y-72084690D01*
X141085877Y-71827500D01*
X141051366Y-71654000D01*
X140953086Y-71506914D01*
X140806000Y-71408634D01*
X140632500Y-71374123D01*
X140337500Y-71374123D01*
X140164000Y-71408634D01*
X140016914Y-71506914D01*
X140000000Y-71532228D01*
X139983086Y-71506914D01*
X139836000Y-71408634D01*
X139662500Y-71374123D01*
X139367500Y-71374123D01*
X139194000Y-71408634D01*
X139046914Y-71506914D01*
X138948634Y-71654000D01*
X138914123Y-71827500D01*
X138914123Y-71885000D01*
X133876187Y-71885000D01*
X132600877Y-70609690D01*
X132600877Y-70392876D01*
X143642480Y-70392876D01*
X143741273Y-70586830D01*
X144214940Y-70794452D01*
X144732004Y-70805006D01*
X145213747Y-70616884D01*
X145258727Y-70586830D01*
X145357520Y-70392876D01*
X144500000Y-69535355D01*
X143642480Y-70392876D01*
X132600877Y-70392876D01*
X132600877Y-69732004D01*
X143194994Y-69732004D01*
X143383116Y-70213747D01*
X143413170Y-70258727D01*
X143607124Y-70357520D01*
X144464645Y-69500000D01*
X144535355Y-69500000D01*
X145392876Y-70357520D01*
X145586830Y-70258727D01*
X145791026Y-69792876D01*
X148542480Y-69792876D01*
X148641273Y-69986830D01*
X149114940Y-70194452D01*
X149632004Y-70205006D01*
X150113747Y-70016884D01*
X150158727Y-69986830D01*
X150257520Y-69792876D01*
X149400000Y-68935355D01*
X148542480Y-69792876D01*
X145791026Y-69792876D01*
X145794452Y-69785060D01*
X145805006Y-69267996D01*
X145751901Y-69132004D01*
X148094994Y-69132004D01*
X148283116Y-69613747D01*
X148313170Y-69658727D01*
X148507124Y-69757520D01*
X149364645Y-68900000D01*
X149435355Y-68900000D01*
X150292876Y-69757520D01*
X150486830Y-69658727D01*
X150694452Y-69185060D01*
X150705006Y-68667996D01*
X150516884Y-68186253D01*
X150486830Y-68141273D01*
X150292876Y-68042480D01*
X149435355Y-68900000D01*
X149364645Y-68900000D01*
X148507124Y-68042480D01*
X148313170Y-68141273D01*
X148105548Y-68614940D01*
X148094994Y-69132004D01*
X145751901Y-69132004D01*
X145616884Y-68786253D01*
X145586830Y-68741273D01*
X145392876Y-68642480D01*
X144535355Y-69500000D01*
X144464645Y-69500000D01*
X143607124Y-68642480D01*
X143413170Y-68741273D01*
X143205548Y-69214940D01*
X143194994Y-69732004D01*
X132600877Y-69732004D01*
X132600877Y-69150000D01*
X132577593Y-69032946D01*
X132511288Y-68933712D01*
X132412054Y-68867407D01*
X132295000Y-68844123D01*
X130595000Y-68844123D01*
X130477946Y-68867407D01*
X130378712Y-68933712D01*
X130312407Y-69032946D01*
X130289123Y-69150000D01*
X130289123Y-70850000D01*
X130312407Y-70967054D01*
X130378712Y-71066288D01*
X130477946Y-71132593D01*
X130595000Y-71155877D01*
X132114690Y-71155877D01*
X133133813Y-72175000D01*
X132544926Y-72175000D01*
X132528276Y-72091293D01*
X132274103Y-71710897D01*
X131893707Y-71456724D01*
X131558261Y-71390000D01*
X131331739Y-71390000D01*
X130996293Y-71456724D01*
X130615897Y-71710897D01*
X130361724Y-72091293D01*
X130315001Y-72326186D01*
X130315001Y-71080947D01*
X130322151Y-71045001D01*
X130293823Y-70902585D01*
X130258687Y-70850000D01*
X130213151Y-70781851D01*
X130182677Y-70761489D01*
X129940859Y-70519671D01*
X129988276Y-70448707D01*
X130077529Y-70000000D01*
X129988276Y-69551293D01*
X129734103Y-69170897D01*
X129353707Y-68916724D01*
X129018261Y-68850000D01*
X128791739Y-68850000D01*
X128456293Y-68916724D01*
X128075897Y-69170897D01*
X127821724Y-69551293D01*
X127732471Y-70000000D01*
X127400000Y-70000000D01*
X127400000Y-68607124D01*
X143642480Y-68607124D01*
X144500000Y-69464645D01*
X145357520Y-68607124D01*
X145258727Y-68413170D01*
X144785060Y-68205548D01*
X144267996Y-68194994D01*
X143786253Y-68383116D01*
X143741273Y-68413170D01*
X143642480Y-68607124D01*
X127400000Y-68607124D01*
X127400000Y-67900000D01*
X148597045Y-67900000D01*
X148542480Y-68007124D01*
X148542480Y-68007124D01*
G37*
X148542480Y-68007124D02*
X149400000Y-68864645D01*
X150257520Y-68007124D01*
X150202955Y-67900000D01*
X151600001Y-67900000D01*
X151600000Y-85600000D01*
X150202955Y-85600000D01*
X150257520Y-85492876D01*
X149400000Y-84635355D01*
X148542480Y-85492876D01*
X148597045Y-85600000D01*
X127400000Y-85600000D01*
X127400000Y-84892876D01*
X143642480Y-84892876D01*
X143741273Y-85086830D01*
X144214940Y-85294452D01*
X144732004Y-85305006D01*
X145213747Y-85116884D01*
X145258727Y-85086830D01*
X145357520Y-84892876D01*
X144500000Y-84035355D01*
X143642480Y-84892876D01*
X127400000Y-84892876D01*
X127400000Y-84232004D01*
X143194994Y-84232004D01*
X143383116Y-84713747D01*
X143413170Y-84758727D01*
X143607124Y-84857520D01*
X144464645Y-84000000D01*
X144535355Y-84000000D01*
X145392876Y-84857520D01*
X145442969Y-84832004D01*
X148094994Y-84832004D01*
X148283116Y-85313747D01*
X148313170Y-85358727D01*
X148507124Y-85457520D01*
X149364645Y-84600000D01*
X149435355Y-84600000D01*
X150292876Y-85457520D01*
X150486830Y-85358727D01*
X150694452Y-84885060D01*
X150705006Y-84367996D01*
X150516884Y-83886253D01*
X150486830Y-83841273D01*
X150292876Y-83742480D01*
X149435355Y-84600000D01*
X149364645Y-84600000D01*
X148507124Y-83742480D01*
X148313170Y-83841273D01*
X148105548Y-84314940D01*
X148094994Y-84832004D01*
X145442969Y-84832004D01*
X145586830Y-84758727D01*
X145794452Y-84285060D01*
X145805006Y-83767996D01*
X145781236Y-83707124D01*
X148542480Y-83707124D01*
X149400000Y-84564645D01*
X150257520Y-83707124D01*
X150158727Y-83513170D01*
X149685060Y-83305548D01*
X149167996Y-83294994D01*
X148686253Y-83483116D01*
X148641273Y-83513170D01*
X148542480Y-83707124D01*
X145781236Y-83707124D01*
X145616884Y-83286253D01*
X145586830Y-83241273D01*
X145392876Y-83142480D01*
X144535355Y-84000000D01*
X144464645Y-84000000D01*
X143607124Y-83142480D01*
X143413170Y-83241273D01*
X143205548Y-83714940D01*
X143194994Y-84232004D01*
X127400000Y-84232004D01*
X127400000Y-82700000D01*
X127732471Y-82700000D01*
X127821724Y-83148707D01*
X128075897Y-83529103D01*
X128456293Y-83783276D01*
X128791739Y-83850000D01*
X129018261Y-83850000D01*
X129353707Y-83783276D01*
X129734103Y-83529103D01*
X129988276Y-83148707D01*
X130077529Y-82700000D01*
X130272471Y-82700000D01*
X130361724Y-83148707D01*
X130615897Y-83529103D01*
X130996293Y-83783276D01*
X131331739Y-83850000D01*
X131558261Y-83850000D01*
X131893707Y-83783276D01*
X132274103Y-83529103D01*
X132485735Y-83212373D01*
X135278940Y-83212373D01*
X135450114Y-83648179D01*
X135775034Y-83985306D01*
X136204234Y-84172429D01*
X136247627Y-84181058D01*
X136435000Y-84112219D01*
X136435000Y-83025000D01*
X136485000Y-83025000D01*
X136485000Y-84112219D01*
X136672373Y-84181058D01*
X136715766Y-84172429D01*
X137144966Y-83985306D01*
X137469886Y-83648179D01*
X137641060Y-83212373D01*
X137572242Y-83025000D01*
X136485000Y-83025000D01*
X136435000Y-83025000D01*
X135347758Y-83025000D01*
X135278940Y-83212373D01*
X132485735Y-83212373D01*
X132528276Y-83148707D01*
X132600098Y-82787627D01*
X135278940Y-82787627D01*
X135347758Y-82975000D01*
X136435000Y-82975000D01*
X136435000Y-81887781D01*
X136485000Y-81887781D01*
X136485000Y-82975000D01*
X137572242Y-82975000D01*
X137641060Y-82787627D01*
X137469886Y-82351821D01*
X137275373Y-82150000D01*
X137844123Y-82150000D01*
X137844123Y-83850000D01*
X137867407Y-83967054D01*
X137933712Y-84066288D01*
X138032946Y-84132593D01*
X138150000Y-84155877D01*
X139850000Y-84155877D01*
X139967054Y-84132593D01*
X140066288Y-84066288D01*
X140132593Y-83967054D01*
X140155877Y-83850000D01*
X140155877Y-83597500D01*
X140830000Y-83597500D01*
X140830000Y-83849619D01*
X140883284Y-83978259D01*
X140981741Y-84076715D01*
X141110380Y-84130000D01*
X141387500Y-84130000D01*
X141475000Y-84042500D01*
X141475000Y-83510000D01*
X141525000Y-83510000D01*
X141525000Y-84042500D01*
X141612500Y-84130000D01*
X141889620Y-84130000D01*
X142018259Y-84076715D01*
X142116716Y-83978259D01*
X142170000Y-83849619D01*
X142170000Y-83597500D01*
X142082500Y-83510000D01*
X141525000Y-83510000D01*
X141475000Y-83510000D01*
X140917500Y-83510000D01*
X140830000Y-83597500D01*
X140155877Y-83597500D01*
X140155877Y-83065000D01*
X140852939Y-83065000D01*
X140830000Y-83120381D01*
X140830000Y-83372500D01*
X140917500Y-83460000D01*
X141475000Y-83460000D01*
X141475000Y-83440000D01*
X141525000Y-83440000D01*
X141525000Y-83460000D01*
X142082500Y-83460000D01*
X142170000Y-83372500D01*
X142170000Y-83120381D01*
X142164509Y-83107124D01*
X143642480Y-83107124D01*
X144500000Y-83964645D01*
X145357520Y-83107124D01*
X145258727Y-82913170D01*
X144785060Y-82705548D01*
X144267996Y-82694994D01*
X143786253Y-82883116D01*
X143741273Y-82913170D01*
X143642480Y-83107124D01*
X142164509Y-83107124D01*
X142116716Y-82991741D01*
X142039138Y-82914164D01*
X142091366Y-82836000D01*
X142125877Y-82662500D01*
X142125877Y-82367500D01*
X142091366Y-82194000D01*
X141993086Y-82046914D01*
X141960952Y-82025443D01*
X142344123Y-81642273D01*
X142344123Y-81650000D01*
X142367407Y-81767054D01*
X142433712Y-81866288D01*
X142532946Y-81932593D01*
X142650000Y-81955877D01*
X144550000Y-81955877D01*
X144667054Y-81932593D01*
X144766288Y-81866288D01*
X144832593Y-81767054D01*
X144855877Y-81650000D01*
X144855877Y-81350000D01*
X144835985Y-81250000D01*
X144855877Y-81150000D01*
X144855877Y-80850000D01*
X144852671Y-80833882D01*
X144900000Y-80719619D01*
X144900000Y-80612500D01*
X144812500Y-80525000D01*
X143625000Y-80525000D01*
X143625000Y-80544123D01*
X143575000Y-80544123D01*
X143575000Y-80525000D01*
X142387500Y-80525000D01*
X142367779Y-80544721D01*
X142350000Y-80541184D01*
X142174418Y-80576109D01*
X142063141Y-80650462D01*
X142063139Y-80650464D01*
X142025568Y-80675568D01*
X142000463Y-80713140D01*
X141213143Y-81500462D01*
X141175569Y-81525568D01*
X141150463Y-81563142D01*
X141076110Y-81674419D01*
X141041184Y-81850000D01*
X141050001Y-81894324D01*
X141050001Y-81965000D01*
X140087194Y-81965000D01*
X140066288Y-81933712D01*
X139967054Y-81867407D01*
X139850000Y-81844123D01*
X138150000Y-81844123D01*
X138032946Y-81867407D01*
X137933712Y-81933712D01*
X137867407Y-82032946D01*
X137844123Y-82150000D01*
X137275373Y-82150000D01*
X137144966Y-82014694D01*
X136715766Y-81827571D01*
X136672373Y-81818942D01*
X136485000Y-81887781D01*
X136435000Y-81887781D01*
X136247627Y-81818942D01*
X136204234Y-81827571D01*
X135775034Y-82014694D01*
X135450114Y-82351821D01*
X135278940Y-82787627D01*
X132600098Y-82787627D01*
X132617529Y-82700000D01*
X132528276Y-82251293D01*
X132274103Y-81870897D01*
X131893707Y-81616724D01*
X131558261Y-81550000D01*
X131331739Y-81550000D01*
X130996293Y-81616724D01*
X130615897Y-81870897D01*
X130361724Y-82251293D01*
X130272471Y-82700000D01*
X130077529Y-82700000D01*
X129988276Y-82251293D01*
X129734103Y-81870897D01*
X129353707Y-81616724D01*
X129018261Y-81550000D01*
X128791739Y-81550000D01*
X128456293Y-81616724D01*
X128075897Y-81870897D01*
X127821724Y-82251293D01*
X127732471Y-82700000D01*
X127400000Y-82700000D01*
X127400000Y-80372373D01*
X127723942Y-80372373D01*
X127732571Y-80415766D01*
X127919694Y-80844966D01*
X128256821Y-81169886D01*
X128692627Y-81341060D01*
X128880000Y-81272242D01*
X128880000Y-80185000D01*
X128930000Y-80185000D01*
X128930000Y-81272242D01*
X129117373Y-81341060D01*
X129553179Y-81169886D01*
X129890306Y-80844966D01*
X130077429Y-80415766D01*
X130086058Y-80372373D01*
X130263942Y-80372373D01*
X130272571Y-80415766D01*
X130459694Y-80844966D01*
X130796821Y-81169886D01*
X131232627Y-81341060D01*
X131420000Y-81272242D01*
X131420000Y-80185000D01*
X131470000Y-80185000D01*
X131470000Y-81272242D01*
X131657373Y-81341060D01*
X132093179Y-81169886D01*
X132430306Y-80844966D01*
X132617429Y-80415766D01*
X132626058Y-80372373D01*
X132557219Y-80185000D01*
X131470000Y-80185000D01*
X131420000Y-80185000D01*
X130332781Y-80185000D01*
X130263942Y-80372373D01*
X130086058Y-80372373D01*
X130017219Y-80185000D01*
X128930000Y-80185000D01*
X128880000Y-80185000D01*
X127792781Y-80185000D01*
X127723942Y-80372373D01*
X127400000Y-80372373D01*
X127400000Y-79947627D01*
X127723942Y-79947627D01*
X127792781Y-80135000D01*
X128880000Y-80135000D01*
X128880000Y-79047758D01*
X128930000Y-79047758D01*
X128930000Y-80135000D01*
X130017219Y-80135000D01*
X130086058Y-79947627D01*
X130077429Y-79904234D01*
X129890306Y-79475034D01*
X129553179Y-79150114D01*
X129117373Y-78978940D01*
X128930000Y-79047758D01*
X128880000Y-79047758D01*
X128692627Y-78978940D01*
X128256821Y-79150114D01*
X127919694Y-79475034D01*
X127732571Y-79904234D01*
X127723942Y-79947627D01*
X127400000Y-79947627D01*
X127400000Y-70000000D01*
X127732471Y-70000000D01*
X127821724Y-70448707D01*
X128075897Y-70829103D01*
X128456293Y-71083276D01*
X128791739Y-71150000D01*
X129018261Y-71150000D01*
X129353707Y-71083276D01*
X129424671Y-71035859D01*
X129585001Y-71196189D01*
X129585001Y-71611270D01*
X129353707Y-71456724D01*
X129018261Y-71390000D01*
X128791739Y-71390000D01*
X128456293Y-71456724D01*
X128075897Y-71710897D01*
X127821724Y-72091293D01*
X127732471Y-72540000D01*
X127821724Y-72988707D01*
X128075897Y-73369103D01*
X128456293Y-73623276D01*
X128791739Y-73690000D01*
X129018261Y-73690000D01*
X129353707Y-73623276D01*
X129424671Y-73575859D01*
X130066499Y-74217687D01*
X130086861Y-74248161D01*
X130207595Y-74328833D01*
X130350010Y-74357161D01*
X130385956Y-74350011D01*
X130549671Y-74350011D01*
X130361724Y-74631293D01*
X130272471Y-75080000D01*
X130361724Y-75528707D01*
X130615897Y-75909103D01*
X130996293Y-76163276D01*
X131331739Y-76230000D01*
X131558261Y-76230000D01*
X131893707Y-76163276D01*
X131964671Y-76115859D01*
X132202092Y-76353280D01*
X132151850Y-76386850D01*
X132131488Y-76417324D01*
X131964671Y-76584141D01*
X131893707Y-76536724D01*
X131558261Y-76470000D01*
X131331739Y-76470000D01*
X130996293Y-76536724D01*
X130615897Y-76790897D01*
X130361724Y-77171293D01*
X130315001Y-77406186D01*
X130315001Y-76160947D01*
X130322151Y-76125001D01*
X130293823Y-75982585D01*
X130260419Y-75932593D01*
X130213151Y-75861851D01*
X130182677Y-75841489D01*
X129940859Y-75599671D01*
X129988276Y-75528707D01*
X130077529Y-75080000D01*
X129988276Y-74631293D01*
X129734103Y-74250897D01*
X129353707Y-73996724D01*
X129018261Y-73930000D01*
X128791739Y-73930000D01*
X128456293Y-73996724D01*
X128075897Y-74250897D01*
X127821724Y-74631293D01*
X127732471Y-75080000D01*
X127821724Y-75528707D01*
X128075897Y-75909103D01*
X128456293Y-76163276D01*
X128791739Y-76230000D01*
X129018261Y-76230000D01*
X129353707Y-76163276D01*
X129424671Y-76115859D01*
X129585001Y-76276189D01*
X129585001Y-76691270D01*
X129353707Y-76536724D01*
X129018261Y-76470000D01*
X128791739Y-76470000D01*
X128456293Y-76536724D01*
X128075897Y-76790897D01*
X127821724Y-77171293D01*
X127732471Y-77620000D01*
X127821724Y-78068707D01*
X128075897Y-78449103D01*
X128456293Y-78703276D01*
X128791739Y-78770000D01*
X129018261Y-78770000D01*
X129353707Y-78703276D01*
X129424671Y-78655859D01*
X130011499Y-79242687D01*
X130031861Y-79273161D01*
X130152595Y-79353833D01*
X130259065Y-79375011D01*
X130259066Y-79375011D01*
X130295010Y-79382161D01*
X130330955Y-79375011D01*
X130563475Y-79375011D01*
X130459694Y-79475034D01*
X130272571Y-79904234D01*
X130263942Y-79947627D01*
X130332781Y-80135000D01*
X131420000Y-80135000D01*
X131420000Y-80115000D01*
X131470000Y-80115000D01*
X131470000Y-80135000D01*
X132557219Y-80135000D01*
X132626058Y-79947627D01*
X132617429Y-79904234D01*
X132430306Y-79475034D01*
X132326525Y-79375011D01*
X138968019Y-79375011D01*
X139046914Y-79493086D01*
X139194000Y-79591366D01*
X139367500Y-79625877D01*
X139662500Y-79625877D01*
X139836000Y-79591366D01*
X139983086Y-79493086D01*
X140000000Y-79467772D01*
X140016914Y-79493086D01*
X140164000Y-79591366D01*
X140337500Y-79625877D01*
X140632500Y-79625877D01*
X140806000Y-79591366D01*
X140953086Y-79493086D01*
X141051366Y-79346000D01*
X141085877Y-79172500D01*
X141085877Y-78915310D01*
X141737562Y-78263625D01*
X141818065Y-78317416D01*
X141857584Y-78343822D01*
X142000000Y-78372150D01*
X142035946Y-78365000D01*
X142344123Y-78365000D01*
X142344123Y-78650000D01*
X142364015Y-78750000D01*
X142344123Y-78850000D01*
X142344123Y-79150000D01*
X142364015Y-79250000D01*
X142344123Y-79350000D01*
X142344123Y-79650000D01*
X142364015Y-79750000D01*
X142344123Y-79850000D01*
X142344123Y-80150000D01*
X142347329Y-80166118D01*
X142300000Y-80280381D01*
X142300000Y-80387500D01*
X142387500Y-80475000D01*
X143575000Y-80475000D01*
X143575000Y-80455877D01*
X143625000Y-80455877D01*
X143625000Y-80475000D01*
X144812500Y-80475000D01*
X144900000Y-80387500D01*
X144900000Y-80280381D01*
X144852671Y-80166118D01*
X144855877Y-80150000D01*
X144855877Y-79850000D01*
X144835985Y-79750000D01*
X144855877Y-79650000D01*
X144855877Y-79350000D01*
X144835985Y-79250000D01*
X144855877Y-79150000D01*
X144855877Y-78850000D01*
X144835985Y-78750000D01*
X144855877Y-78650000D01*
X144855877Y-78350000D01*
X144835985Y-78250000D01*
X144855877Y-78150000D01*
X144855877Y-77850000D01*
X144852671Y-77833882D01*
X144900000Y-77719619D01*
X144900000Y-77612500D01*
X144812500Y-77525000D01*
X143625000Y-77525000D01*
X143625000Y-77544123D01*
X143575000Y-77544123D01*
X143575000Y-77525000D01*
X142387500Y-77525000D01*
X142300000Y-77612500D01*
X142300000Y-77635000D01*
X142151188Y-77635000D01*
X142067614Y-77551426D01*
X142098821Y-77504721D01*
X142116191Y-77417394D01*
X142167394Y-77366191D01*
X142173383Y-77365000D01*
X142300000Y-77365000D01*
X142300000Y-77387500D01*
X142387500Y-77475000D01*
X143575000Y-77475000D01*
X143575000Y-77455877D01*
X143625000Y-77455877D01*
X143625000Y-77475000D01*
X144812500Y-77475000D01*
X144900000Y-77387500D01*
X144900000Y-77280381D01*
X144852671Y-77166118D01*
X144855877Y-77150000D01*
X144855877Y-76850000D01*
X144835985Y-76750000D01*
X144855877Y-76650000D01*
X144855877Y-76350000D01*
X144852671Y-76333882D01*
X144900000Y-76219619D01*
X144900000Y-76112500D01*
X144812500Y-76025000D01*
X143625000Y-76025000D01*
X143625000Y-76044123D01*
X143575000Y-76044123D01*
X143575000Y-76025000D01*
X142387500Y-76025000D01*
X142300000Y-76112500D01*
X142300000Y-76135000D01*
X142151188Y-76135000D01*
X142016187Y-76000000D01*
X142151188Y-75865000D01*
X142300000Y-75865000D01*
X142300000Y-75887500D01*
X142387500Y-75975000D01*
X143575000Y-75975000D01*
X143575000Y-75955877D01*
X143625000Y-75955877D01*
X143625000Y-75975000D01*
X144812500Y-75975000D01*
X144900000Y-75887500D01*
X144900000Y-75780381D01*
X144852671Y-75666118D01*
X144855877Y-75650000D01*
X144855877Y-75350000D01*
X144835985Y-75250000D01*
X144855877Y-75150000D01*
X144855877Y-74850000D01*
X144852671Y-74833882D01*
X144900000Y-74719619D01*
X144900000Y-74612500D01*
X144812500Y-74525000D01*
X143625000Y-74525000D01*
X143625000Y-74544123D01*
X143575000Y-74544123D01*
X143575000Y-74525000D01*
X142387500Y-74525000D01*
X142300000Y-74612500D01*
X142300000Y-74635000D01*
X142151188Y-74635000D01*
X142016187Y-74500000D01*
X142151188Y-74365000D01*
X142300000Y-74365000D01*
X142300000Y-74387500D01*
X142387500Y-74475000D01*
X143575000Y-74475000D01*
X143575000Y-74455877D01*
X143625000Y-74455877D01*
X143625000Y-74475000D01*
X144812500Y-74475000D01*
X144900000Y-74387500D01*
X144900000Y-74280381D01*
X144852671Y-74166118D01*
X144855877Y-74150000D01*
X144855877Y-73850000D01*
X144835985Y-73750000D01*
X144855877Y-73650000D01*
X144855877Y-73350000D01*
X144852671Y-73333882D01*
X144900000Y-73219619D01*
X144900000Y-73112500D01*
X144812500Y-73025000D01*
X143625000Y-73025000D01*
X143625000Y-73044123D01*
X143575000Y-73044123D01*
X143575000Y-73025000D01*
X142387500Y-73025000D01*
X142300000Y-73112500D01*
X142300000Y-73135000D01*
X142151188Y-73135000D01*
X142016187Y-73000000D01*
X142151188Y-72865000D01*
X142300000Y-72865000D01*
X142300000Y-72887500D01*
X142387500Y-72975000D01*
X143575000Y-72975000D01*
X143575000Y-72955877D01*
X143625000Y-72955877D01*
X143625000Y-72975000D01*
X144812500Y-72975000D01*
X144900000Y-72887500D01*
X144900000Y-72780381D01*
X144852671Y-72666118D01*
X144855877Y-72650000D01*
X144855877Y-72350000D01*
X144832593Y-72232946D01*
X144766288Y-72133712D01*
X144667054Y-72067407D01*
X144550000Y-72044123D01*
X142650000Y-72044123D01*
X142532946Y-72067407D01*
X142433712Y-72133712D01*
X142432851Y-72135000D01*
X142035945Y-72135000D01*
X141999999Y-72127850D01*
X141926776Y-72142415D01*
X141857584Y-72156178D01*
X141736850Y-72236850D01*
X141716487Y-72267325D01*
X141492500Y-72491312D01*
X141085877Y-72084690D01*
X141085877Y-71827500D01*
X141051366Y-71654000D01*
X140953086Y-71506914D01*
X140806000Y-71408634D01*
X140632500Y-71374123D01*
X140337500Y-71374123D01*
X140164000Y-71408634D01*
X140016914Y-71506914D01*
X140000000Y-71532228D01*
X139983086Y-71506914D01*
X139836000Y-71408634D01*
X139662500Y-71374123D01*
X139367500Y-71374123D01*
X139194000Y-71408634D01*
X139046914Y-71506914D01*
X138948634Y-71654000D01*
X138914123Y-71827500D01*
X138914123Y-71885000D01*
X133876187Y-71885000D01*
X132600877Y-70609690D01*
X132600877Y-70392876D01*
X143642480Y-70392876D01*
X143741273Y-70586830D01*
X144214940Y-70794452D01*
X144732004Y-70805006D01*
X145213747Y-70616884D01*
X145258727Y-70586830D01*
X145357520Y-70392876D01*
X144500000Y-69535355D01*
X143642480Y-70392876D01*
X132600877Y-70392876D01*
X132600877Y-69732004D01*
X143194994Y-69732004D01*
X143383116Y-70213747D01*
X143413170Y-70258727D01*
X143607124Y-70357520D01*
X144464645Y-69500000D01*
X144535355Y-69500000D01*
X145392876Y-70357520D01*
X145586830Y-70258727D01*
X145791026Y-69792876D01*
X148542480Y-69792876D01*
X148641273Y-69986830D01*
X149114940Y-70194452D01*
X149632004Y-70205006D01*
X150113747Y-70016884D01*
X150158727Y-69986830D01*
X150257520Y-69792876D01*
X149400000Y-68935355D01*
X148542480Y-69792876D01*
X145791026Y-69792876D01*
X145794452Y-69785060D01*
X145805006Y-69267996D01*
X145751901Y-69132004D01*
X148094994Y-69132004D01*
X148283116Y-69613747D01*
X148313170Y-69658727D01*
X148507124Y-69757520D01*
X149364645Y-68900000D01*
X149435355Y-68900000D01*
X150292876Y-69757520D01*
X150486830Y-69658727D01*
X150694452Y-69185060D01*
X150705006Y-68667996D01*
X150516884Y-68186253D01*
X150486830Y-68141273D01*
X150292876Y-68042480D01*
X149435355Y-68900000D01*
X149364645Y-68900000D01*
X148507124Y-68042480D01*
X148313170Y-68141273D01*
X148105548Y-68614940D01*
X148094994Y-69132004D01*
X145751901Y-69132004D01*
X145616884Y-68786253D01*
X145586830Y-68741273D01*
X145392876Y-68642480D01*
X144535355Y-69500000D01*
X144464645Y-69500000D01*
X143607124Y-68642480D01*
X143413170Y-68741273D01*
X143205548Y-69214940D01*
X143194994Y-69732004D01*
X132600877Y-69732004D01*
X132600877Y-69150000D01*
X132577593Y-69032946D01*
X132511288Y-68933712D01*
X132412054Y-68867407D01*
X132295000Y-68844123D01*
X130595000Y-68844123D01*
X130477946Y-68867407D01*
X130378712Y-68933712D01*
X130312407Y-69032946D01*
X130289123Y-69150000D01*
X130289123Y-70850000D01*
X130312407Y-70967054D01*
X130378712Y-71066288D01*
X130477946Y-71132593D01*
X130595000Y-71155877D01*
X132114690Y-71155877D01*
X133133813Y-72175000D01*
X132544926Y-72175000D01*
X132528276Y-72091293D01*
X132274103Y-71710897D01*
X131893707Y-71456724D01*
X131558261Y-71390000D01*
X131331739Y-71390000D01*
X130996293Y-71456724D01*
X130615897Y-71710897D01*
X130361724Y-72091293D01*
X130315001Y-72326186D01*
X130315001Y-71080947D01*
X130322151Y-71045001D01*
X130293823Y-70902585D01*
X130258687Y-70850000D01*
X130213151Y-70781851D01*
X130182677Y-70761489D01*
X129940859Y-70519671D01*
X129988276Y-70448707D01*
X130077529Y-70000000D01*
X129988276Y-69551293D01*
X129734103Y-69170897D01*
X129353707Y-68916724D01*
X129018261Y-68850000D01*
X128791739Y-68850000D01*
X128456293Y-68916724D01*
X128075897Y-69170897D01*
X127821724Y-69551293D01*
X127732471Y-70000000D01*
X127400000Y-70000000D01*
X127400000Y-68607124D01*
X143642480Y-68607124D01*
X144500000Y-69464645D01*
X145357520Y-68607124D01*
X145258727Y-68413170D01*
X144785060Y-68205548D01*
X144267996Y-68194994D01*
X143786253Y-68383116D01*
X143741273Y-68413170D01*
X143642480Y-68607124D01*
X127400000Y-68607124D01*
X127400000Y-67900000D01*
X148597045Y-67900000D01*
X148542480Y-68007124D01*
G04 #@! TD*
M02*
