G04 #@! TF.GenerationSoftware,KiCad,Pcbnew,5.0.2-bee76a0~70~ubuntu18.04.1*
G04 #@! TF.CreationDate,2020-06-27T14:22:49+01:00*
G04 #@! TF.ProjectId,picodvi_pmod,7069636f-6476-4695-9f70-6d6f642e6b69,rev?*
G04 #@! TF.SameCoordinates,Original*
G04 #@! TF.FileFunction,Soldermask,Bot*
G04 #@! TF.FilePolarity,Negative*
%FSLAX46Y46*%
G04 Gerber Fmt 4.6, Leading zero omitted, Abs format (unit mm)*
G04 Created by KiCad (PCBNEW 5.0.2-bee76a0~70~ubuntu18.04.1) date Sat 27 Jun 2020 14:22:49 BST*
%MOMM*%
%LPD*%
G01*
G04 APERTURE LIST*
%ADD10C,0.100000*%
G04 APERTURE END LIST*
D10*
G36*
X149691981Y-83637468D02*
X149874150Y-83712925D01*
X150038103Y-83822475D01*
X150177525Y-83961897D01*
X150287075Y-84125850D01*
X150362532Y-84308019D01*
X150401000Y-84501410D01*
X150401000Y-84698590D01*
X150362532Y-84891981D01*
X150287075Y-85074150D01*
X150177525Y-85238103D01*
X150038103Y-85377525D01*
X149874150Y-85487075D01*
X149691981Y-85562532D01*
X149498590Y-85601000D01*
X149301410Y-85601000D01*
X149108019Y-85562532D01*
X148925850Y-85487075D01*
X148761897Y-85377525D01*
X148622475Y-85238103D01*
X148512925Y-85074150D01*
X148437468Y-84891981D01*
X148399000Y-84698590D01*
X148399000Y-84501410D01*
X148437468Y-84308019D01*
X148512925Y-84125850D01*
X148622475Y-83961897D01*
X148761897Y-83822475D01*
X148925850Y-83712925D01*
X149108019Y-83637468D01*
X149301410Y-83599000D01*
X149498590Y-83599000D01*
X149691981Y-83637468D01*
X149691981Y-83637468D01*
G37*
G36*
X144791981Y-83037468D02*
X144974150Y-83112925D01*
X145138103Y-83222475D01*
X145277525Y-83361897D01*
X145387075Y-83525850D01*
X145462532Y-83708019D01*
X145501000Y-83901410D01*
X145501000Y-84098590D01*
X145462532Y-84291981D01*
X145387075Y-84474150D01*
X145277525Y-84638103D01*
X145138103Y-84777525D01*
X144974150Y-84887075D01*
X144791981Y-84962532D01*
X144598590Y-85001000D01*
X144401410Y-85001000D01*
X144208019Y-84962532D01*
X144025850Y-84887075D01*
X143861897Y-84777525D01*
X143722475Y-84638103D01*
X143612925Y-84474150D01*
X143537468Y-84291981D01*
X143499000Y-84098590D01*
X143499000Y-83901410D01*
X143537468Y-83708019D01*
X143612925Y-83525850D01*
X143722475Y-83361897D01*
X143861897Y-83222475D01*
X144025850Y-83112925D01*
X144208019Y-83037468D01*
X144401410Y-82999000D01*
X144598590Y-82999000D01*
X144791981Y-83037468D01*
X144791981Y-83037468D01*
G37*
G36*
X139901000Y-83901000D02*
X138099000Y-83901000D01*
X138099000Y-82099000D01*
X139901000Y-82099000D01*
X139901000Y-83901000D01*
X139901000Y-83901000D01*
G37*
G36*
X136570442Y-82105518D02*
X136636627Y-82112037D01*
X136749853Y-82146384D01*
X136806467Y-82163557D01*
X136869050Y-82197009D01*
X136962991Y-82247222D01*
X136998729Y-82276552D01*
X137100186Y-82359814D01*
X137183448Y-82461271D01*
X137212778Y-82497009D01*
X137212779Y-82497011D01*
X137296443Y-82653533D01*
X137296443Y-82653534D01*
X137347963Y-82823373D01*
X137365359Y-83000000D01*
X137347963Y-83176627D01*
X137334055Y-83222475D01*
X137296443Y-83346467D01*
X137239618Y-83452778D01*
X137212778Y-83502991D01*
X137194019Y-83525849D01*
X137100186Y-83640186D01*
X136998729Y-83723448D01*
X136962991Y-83752778D01*
X136962989Y-83752779D01*
X136806467Y-83836443D01*
X136749853Y-83853616D01*
X136636627Y-83887963D01*
X136570442Y-83894482D01*
X136504260Y-83901000D01*
X136415740Y-83901000D01*
X136349558Y-83894482D01*
X136283373Y-83887963D01*
X136170147Y-83853616D01*
X136113533Y-83836443D01*
X135957011Y-83752779D01*
X135957009Y-83752778D01*
X135921271Y-83723448D01*
X135819814Y-83640186D01*
X135725981Y-83525849D01*
X135707222Y-83502991D01*
X135680382Y-83452778D01*
X135623557Y-83346467D01*
X135585945Y-83222475D01*
X135572037Y-83176627D01*
X135554641Y-83000000D01*
X135572037Y-82823373D01*
X135623557Y-82653534D01*
X135623557Y-82653533D01*
X135707221Y-82497011D01*
X135707222Y-82497009D01*
X135736552Y-82461271D01*
X135819814Y-82359814D01*
X135921271Y-82276552D01*
X135957009Y-82247222D01*
X136050950Y-82197009D01*
X136113533Y-82163557D01*
X136170147Y-82146384D01*
X136283373Y-82112037D01*
X136349558Y-82105518D01*
X136415740Y-82099000D01*
X136504260Y-82099000D01*
X136570442Y-82105518D01*
X136570442Y-82105518D01*
G37*
G36*
X131555442Y-81805518D02*
X131621627Y-81812037D01*
X131734853Y-81846384D01*
X131791467Y-81863557D01*
X131930087Y-81937652D01*
X131947991Y-81947222D01*
X131983729Y-81976552D01*
X132085186Y-82059814D01*
X132168448Y-82161271D01*
X132197778Y-82197009D01*
X132197779Y-82197011D01*
X132281443Y-82353533D01*
X132298616Y-82410147D01*
X132332963Y-82523373D01*
X132350359Y-82700000D01*
X132332963Y-82876627D01*
X132298616Y-82989853D01*
X132281443Y-83046467D01*
X132245920Y-83112925D01*
X132197778Y-83202991D01*
X132168448Y-83238729D01*
X132085186Y-83340186D01*
X131983729Y-83423448D01*
X131947991Y-83452778D01*
X131947989Y-83452779D01*
X131791467Y-83536443D01*
X131734853Y-83553616D01*
X131621627Y-83587963D01*
X131555443Y-83594481D01*
X131489260Y-83601000D01*
X131400740Y-83601000D01*
X131334557Y-83594481D01*
X131268373Y-83587963D01*
X131155147Y-83553616D01*
X131098533Y-83536443D01*
X130942011Y-83452779D01*
X130942009Y-83452778D01*
X130906271Y-83423448D01*
X130804814Y-83340186D01*
X130721552Y-83238729D01*
X130692222Y-83202991D01*
X130644080Y-83112925D01*
X130608557Y-83046467D01*
X130591384Y-82989853D01*
X130557037Y-82876627D01*
X130539641Y-82700000D01*
X130557037Y-82523373D01*
X130591384Y-82410147D01*
X130608557Y-82353533D01*
X130692221Y-82197011D01*
X130692222Y-82197009D01*
X130721552Y-82161271D01*
X130804814Y-82059814D01*
X130906271Y-81976552D01*
X130942009Y-81947222D01*
X130959913Y-81937652D01*
X131098533Y-81863557D01*
X131155147Y-81846384D01*
X131268373Y-81812037D01*
X131334558Y-81805518D01*
X131400740Y-81799000D01*
X131489260Y-81799000D01*
X131555442Y-81805518D01*
X131555442Y-81805518D01*
G37*
G36*
X129015442Y-81805518D02*
X129081627Y-81812037D01*
X129194853Y-81846384D01*
X129251467Y-81863557D01*
X129390087Y-81937652D01*
X129407991Y-81947222D01*
X129443729Y-81976552D01*
X129545186Y-82059814D01*
X129628448Y-82161271D01*
X129657778Y-82197009D01*
X129657779Y-82197011D01*
X129741443Y-82353533D01*
X129758616Y-82410147D01*
X129792963Y-82523373D01*
X129810359Y-82700000D01*
X129792963Y-82876627D01*
X129758616Y-82989853D01*
X129741443Y-83046467D01*
X129705920Y-83112925D01*
X129657778Y-83202991D01*
X129628448Y-83238729D01*
X129545186Y-83340186D01*
X129443729Y-83423448D01*
X129407991Y-83452778D01*
X129407989Y-83452779D01*
X129251467Y-83536443D01*
X129194853Y-83553616D01*
X129081627Y-83587963D01*
X129015443Y-83594481D01*
X128949260Y-83601000D01*
X128860740Y-83601000D01*
X128794557Y-83594481D01*
X128728373Y-83587963D01*
X128615147Y-83553616D01*
X128558533Y-83536443D01*
X128402011Y-83452779D01*
X128402009Y-83452778D01*
X128366271Y-83423448D01*
X128264814Y-83340186D01*
X128181552Y-83238729D01*
X128152222Y-83202991D01*
X128104080Y-83112925D01*
X128068557Y-83046467D01*
X128051384Y-82989853D01*
X128017037Y-82876627D01*
X127999641Y-82700000D01*
X128017037Y-82523373D01*
X128051384Y-82410147D01*
X128068557Y-82353533D01*
X128152221Y-82197011D01*
X128152222Y-82197009D01*
X128181552Y-82161271D01*
X128264814Y-82059814D01*
X128366271Y-81976552D01*
X128402009Y-81947222D01*
X128419913Y-81937652D01*
X128558533Y-81863557D01*
X128615147Y-81846384D01*
X128728373Y-81812037D01*
X128794558Y-81805518D01*
X128860740Y-81799000D01*
X128949260Y-81799000D01*
X129015442Y-81805518D01*
X129015442Y-81805518D01*
G37*
G36*
X129015443Y-79265519D02*
X129081627Y-79272037D01*
X129194853Y-79306384D01*
X129251467Y-79323557D01*
X129390087Y-79397652D01*
X129407991Y-79407222D01*
X129443729Y-79436552D01*
X129545186Y-79519814D01*
X129628448Y-79621271D01*
X129657778Y-79657009D01*
X129657779Y-79657011D01*
X129741443Y-79813533D01*
X129741443Y-79813534D01*
X129792963Y-79983373D01*
X129810359Y-80160000D01*
X129792963Y-80336627D01*
X129758616Y-80449853D01*
X129741443Y-80506467D01*
X129667348Y-80645087D01*
X129657778Y-80662991D01*
X129628448Y-80698729D01*
X129545186Y-80800186D01*
X129443729Y-80883448D01*
X129407991Y-80912778D01*
X129407989Y-80912779D01*
X129251467Y-80996443D01*
X129194853Y-81013616D01*
X129081627Y-81047963D01*
X129015442Y-81054482D01*
X128949260Y-81061000D01*
X128860740Y-81061000D01*
X128794558Y-81054482D01*
X128728373Y-81047963D01*
X128615147Y-81013616D01*
X128558533Y-80996443D01*
X128402011Y-80912779D01*
X128402009Y-80912778D01*
X128366271Y-80883448D01*
X128264814Y-80800186D01*
X128181552Y-80698729D01*
X128152222Y-80662991D01*
X128142652Y-80645087D01*
X128068557Y-80506467D01*
X128051384Y-80449853D01*
X128017037Y-80336627D01*
X127999641Y-80160000D01*
X128017037Y-79983373D01*
X128068557Y-79813534D01*
X128068557Y-79813533D01*
X128152221Y-79657011D01*
X128152222Y-79657009D01*
X128181552Y-79621271D01*
X128264814Y-79519814D01*
X128366271Y-79436552D01*
X128402009Y-79407222D01*
X128419913Y-79397652D01*
X128558533Y-79323557D01*
X128615147Y-79306384D01*
X128728373Y-79272037D01*
X128794557Y-79265519D01*
X128860740Y-79259000D01*
X128949260Y-79259000D01*
X129015443Y-79265519D01*
X129015443Y-79265519D01*
G37*
G36*
X131555443Y-79265519D02*
X131621627Y-79272037D01*
X131734853Y-79306384D01*
X131791467Y-79323557D01*
X131930087Y-79397652D01*
X131947991Y-79407222D01*
X131983729Y-79436552D01*
X132085186Y-79519814D01*
X132168448Y-79621271D01*
X132197778Y-79657009D01*
X132197779Y-79657011D01*
X132281443Y-79813533D01*
X132281443Y-79813534D01*
X132332963Y-79983373D01*
X132350359Y-80160000D01*
X132332963Y-80336627D01*
X132298616Y-80449853D01*
X132281443Y-80506467D01*
X132207348Y-80645087D01*
X132197778Y-80662991D01*
X132168448Y-80698729D01*
X132085186Y-80800186D01*
X131983729Y-80883448D01*
X131947991Y-80912778D01*
X131947989Y-80912779D01*
X131791467Y-80996443D01*
X131734853Y-81013616D01*
X131621627Y-81047963D01*
X131555442Y-81054482D01*
X131489260Y-81061000D01*
X131400740Y-81061000D01*
X131334558Y-81054482D01*
X131268373Y-81047963D01*
X131155147Y-81013616D01*
X131098533Y-80996443D01*
X130942011Y-80912779D01*
X130942009Y-80912778D01*
X130906271Y-80883448D01*
X130804814Y-80800186D01*
X130721552Y-80698729D01*
X130692222Y-80662991D01*
X130682652Y-80645087D01*
X130608557Y-80506467D01*
X130591384Y-80449853D01*
X130557037Y-80336627D01*
X130539641Y-80160000D01*
X130557037Y-79983373D01*
X130608557Y-79813534D01*
X130608557Y-79813533D01*
X130692221Y-79657011D01*
X130692222Y-79657009D01*
X130721552Y-79621271D01*
X130804814Y-79519814D01*
X130906271Y-79436552D01*
X130942009Y-79407222D01*
X130959913Y-79397652D01*
X131098533Y-79323557D01*
X131155147Y-79306384D01*
X131268373Y-79272037D01*
X131334557Y-79265519D01*
X131400740Y-79259000D01*
X131489260Y-79259000D01*
X131555443Y-79265519D01*
X131555443Y-79265519D01*
G37*
G36*
X131555442Y-76725518D02*
X131621627Y-76732037D01*
X131734853Y-76766384D01*
X131791467Y-76783557D01*
X131930087Y-76857652D01*
X131947991Y-76867222D01*
X131983729Y-76896552D01*
X132085186Y-76979814D01*
X132168448Y-77081271D01*
X132197778Y-77117009D01*
X132197779Y-77117011D01*
X132281443Y-77273533D01*
X132281443Y-77273534D01*
X132332963Y-77443373D01*
X132350359Y-77620000D01*
X132332963Y-77796627D01*
X132298616Y-77909853D01*
X132281443Y-77966467D01*
X132207348Y-78105087D01*
X132197778Y-78122991D01*
X132168448Y-78158729D01*
X132085186Y-78260186D01*
X131983729Y-78343448D01*
X131947991Y-78372778D01*
X131947989Y-78372779D01*
X131791467Y-78456443D01*
X131734853Y-78473616D01*
X131621627Y-78507963D01*
X131555443Y-78514481D01*
X131489260Y-78521000D01*
X131400740Y-78521000D01*
X131334557Y-78514481D01*
X131268373Y-78507963D01*
X131155147Y-78473616D01*
X131098533Y-78456443D01*
X130942011Y-78372779D01*
X130942009Y-78372778D01*
X130906271Y-78343448D01*
X130804814Y-78260186D01*
X130721552Y-78158729D01*
X130692222Y-78122991D01*
X130682652Y-78105087D01*
X130608557Y-77966467D01*
X130591384Y-77909853D01*
X130557037Y-77796627D01*
X130539641Y-77620000D01*
X130557037Y-77443373D01*
X130608557Y-77273534D01*
X130608557Y-77273533D01*
X130692221Y-77117011D01*
X130692222Y-77117009D01*
X130721552Y-77081271D01*
X130804814Y-76979814D01*
X130906271Y-76896552D01*
X130942009Y-76867222D01*
X130959913Y-76857652D01*
X131098533Y-76783557D01*
X131155147Y-76766384D01*
X131268373Y-76732037D01*
X131334558Y-76725518D01*
X131400740Y-76719000D01*
X131489260Y-76719000D01*
X131555442Y-76725518D01*
X131555442Y-76725518D01*
G37*
G36*
X129015442Y-76725518D02*
X129081627Y-76732037D01*
X129194853Y-76766384D01*
X129251467Y-76783557D01*
X129390087Y-76857652D01*
X129407991Y-76867222D01*
X129443729Y-76896552D01*
X129545186Y-76979814D01*
X129628448Y-77081271D01*
X129657778Y-77117009D01*
X129657779Y-77117011D01*
X129741443Y-77273533D01*
X129741443Y-77273534D01*
X129792963Y-77443373D01*
X129810359Y-77620000D01*
X129792963Y-77796627D01*
X129758616Y-77909853D01*
X129741443Y-77966467D01*
X129667348Y-78105087D01*
X129657778Y-78122991D01*
X129628448Y-78158729D01*
X129545186Y-78260186D01*
X129443729Y-78343448D01*
X129407991Y-78372778D01*
X129407989Y-78372779D01*
X129251467Y-78456443D01*
X129194853Y-78473616D01*
X129081627Y-78507963D01*
X129015443Y-78514481D01*
X128949260Y-78521000D01*
X128860740Y-78521000D01*
X128794557Y-78514481D01*
X128728373Y-78507963D01*
X128615147Y-78473616D01*
X128558533Y-78456443D01*
X128402011Y-78372779D01*
X128402009Y-78372778D01*
X128366271Y-78343448D01*
X128264814Y-78260186D01*
X128181552Y-78158729D01*
X128152222Y-78122991D01*
X128142652Y-78105087D01*
X128068557Y-77966467D01*
X128051384Y-77909853D01*
X128017037Y-77796627D01*
X127999641Y-77620000D01*
X128017037Y-77443373D01*
X128068557Y-77273534D01*
X128068557Y-77273533D01*
X128152221Y-77117011D01*
X128152222Y-77117009D01*
X128181552Y-77081271D01*
X128264814Y-76979814D01*
X128366271Y-76896552D01*
X128402009Y-76867222D01*
X128419913Y-76857652D01*
X128558533Y-76783557D01*
X128615147Y-76766384D01*
X128728373Y-76732037D01*
X128794558Y-76725518D01*
X128860740Y-76719000D01*
X128949260Y-76719000D01*
X129015442Y-76725518D01*
X129015442Y-76725518D01*
G37*
G36*
X131555442Y-74185518D02*
X131621627Y-74192037D01*
X131734853Y-74226384D01*
X131791467Y-74243557D01*
X131930087Y-74317652D01*
X131947991Y-74327222D01*
X131983729Y-74356552D01*
X132085186Y-74439814D01*
X132168448Y-74541271D01*
X132197778Y-74577009D01*
X132197779Y-74577011D01*
X132281443Y-74733533D01*
X132281443Y-74733534D01*
X132332963Y-74903373D01*
X132350359Y-75080000D01*
X132332963Y-75256627D01*
X132298616Y-75369853D01*
X132281443Y-75426467D01*
X132207348Y-75565087D01*
X132197778Y-75582991D01*
X132168448Y-75618729D01*
X132085186Y-75720186D01*
X131983729Y-75803448D01*
X131947991Y-75832778D01*
X131947989Y-75832779D01*
X131791467Y-75916443D01*
X131734853Y-75933616D01*
X131621627Y-75967963D01*
X131555442Y-75974482D01*
X131489260Y-75981000D01*
X131400740Y-75981000D01*
X131334558Y-75974482D01*
X131268373Y-75967963D01*
X131155147Y-75933616D01*
X131098533Y-75916443D01*
X130942011Y-75832779D01*
X130942009Y-75832778D01*
X130906271Y-75803448D01*
X130804814Y-75720186D01*
X130721552Y-75618729D01*
X130692222Y-75582991D01*
X130682652Y-75565087D01*
X130608557Y-75426467D01*
X130591384Y-75369853D01*
X130557037Y-75256627D01*
X130539641Y-75080000D01*
X130557037Y-74903373D01*
X130608557Y-74733534D01*
X130608557Y-74733533D01*
X130692221Y-74577011D01*
X130692222Y-74577009D01*
X130721552Y-74541271D01*
X130804814Y-74439814D01*
X130906271Y-74356552D01*
X130942009Y-74327222D01*
X130959913Y-74317652D01*
X131098533Y-74243557D01*
X131155147Y-74226384D01*
X131268373Y-74192037D01*
X131334558Y-74185518D01*
X131400740Y-74179000D01*
X131489260Y-74179000D01*
X131555442Y-74185518D01*
X131555442Y-74185518D01*
G37*
G36*
X129015442Y-74185518D02*
X129081627Y-74192037D01*
X129194853Y-74226384D01*
X129251467Y-74243557D01*
X129390087Y-74317652D01*
X129407991Y-74327222D01*
X129443729Y-74356552D01*
X129545186Y-74439814D01*
X129628448Y-74541271D01*
X129657778Y-74577009D01*
X129657779Y-74577011D01*
X129741443Y-74733533D01*
X129741443Y-74733534D01*
X129792963Y-74903373D01*
X129810359Y-75080000D01*
X129792963Y-75256627D01*
X129758616Y-75369853D01*
X129741443Y-75426467D01*
X129667348Y-75565087D01*
X129657778Y-75582991D01*
X129628448Y-75618729D01*
X129545186Y-75720186D01*
X129443729Y-75803448D01*
X129407991Y-75832778D01*
X129407989Y-75832779D01*
X129251467Y-75916443D01*
X129194853Y-75933616D01*
X129081627Y-75967963D01*
X129015442Y-75974482D01*
X128949260Y-75981000D01*
X128860740Y-75981000D01*
X128794558Y-75974482D01*
X128728373Y-75967963D01*
X128615147Y-75933616D01*
X128558533Y-75916443D01*
X128402011Y-75832779D01*
X128402009Y-75832778D01*
X128366271Y-75803448D01*
X128264814Y-75720186D01*
X128181552Y-75618729D01*
X128152222Y-75582991D01*
X128142652Y-75565087D01*
X128068557Y-75426467D01*
X128051384Y-75369853D01*
X128017037Y-75256627D01*
X127999641Y-75080000D01*
X128017037Y-74903373D01*
X128068557Y-74733534D01*
X128068557Y-74733533D01*
X128152221Y-74577011D01*
X128152222Y-74577009D01*
X128181552Y-74541271D01*
X128264814Y-74439814D01*
X128366271Y-74356552D01*
X128402009Y-74327222D01*
X128419913Y-74317652D01*
X128558533Y-74243557D01*
X128615147Y-74226384D01*
X128728373Y-74192037D01*
X128794558Y-74185518D01*
X128860740Y-74179000D01*
X128949260Y-74179000D01*
X129015442Y-74185518D01*
X129015442Y-74185518D01*
G37*
G36*
X131555442Y-71645518D02*
X131621627Y-71652037D01*
X131734853Y-71686384D01*
X131791467Y-71703557D01*
X131930087Y-71777652D01*
X131947991Y-71787222D01*
X131983729Y-71816552D01*
X132085186Y-71899814D01*
X132168448Y-72001271D01*
X132197778Y-72037009D01*
X132197779Y-72037011D01*
X132281443Y-72193533D01*
X132281443Y-72193534D01*
X132332963Y-72363373D01*
X132350359Y-72540000D01*
X132332963Y-72716627D01*
X132298616Y-72829853D01*
X132281443Y-72886467D01*
X132207348Y-73025087D01*
X132197778Y-73042991D01*
X132168448Y-73078729D01*
X132085186Y-73180186D01*
X131983729Y-73263448D01*
X131947991Y-73292778D01*
X131947989Y-73292779D01*
X131791467Y-73376443D01*
X131734853Y-73393616D01*
X131621627Y-73427963D01*
X131555442Y-73434482D01*
X131489260Y-73441000D01*
X131400740Y-73441000D01*
X131334558Y-73434482D01*
X131268373Y-73427963D01*
X131155147Y-73393616D01*
X131098533Y-73376443D01*
X130942011Y-73292779D01*
X130942009Y-73292778D01*
X130906271Y-73263448D01*
X130804814Y-73180186D01*
X130721552Y-73078729D01*
X130692222Y-73042991D01*
X130682652Y-73025087D01*
X130608557Y-72886467D01*
X130591384Y-72829853D01*
X130557037Y-72716627D01*
X130539641Y-72540000D01*
X130557037Y-72363373D01*
X130608557Y-72193534D01*
X130608557Y-72193533D01*
X130692221Y-72037011D01*
X130692222Y-72037009D01*
X130721552Y-72001271D01*
X130804814Y-71899814D01*
X130906271Y-71816552D01*
X130942009Y-71787222D01*
X130959913Y-71777652D01*
X131098533Y-71703557D01*
X131155147Y-71686384D01*
X131268373Y-71652037D01*
X131334558Y-71645518D01*
X131400740Y-71639000D01*
X131489260Y-71639000D01*
X131555442Y-71645518D01*
X131555442Y-71645518D01*
G37*
G36*
X129015442Y-71645518D02*
X129081627Y-71652037D01*
X129194853Y-71686384D01*
X129251467Y-71703557D01*
X129390087Y-71777652D01*
X129407991Y-71787222D01*
X129443729Y-71816552D01*
X129545186Y-71899814D01*
X129628448Y-72001271D01*
X129657778Y-72037009D01*
X129657779Y-72037011D01*
X129741443Y-72193533D01*
X129741443Y-72193534D01*
X129792963Y-72363373D01*
X129810359Y-72540000D01*
X129792963Y-72716627D01*
X129758616Y-72829853D01*
X129741443Y-72886467D01*
X129667348Y-73025087D01*
X129657778Y-73042991D01*
X129628448Y-73078729D01*
X129545186Y-73180186D01*
X129443729Y-73263448D01*
X129407991Y-73292778D01*
X129407989Y-73292779D01*
X129251467Y-73376443D01*
X129194853Y-73393616D01*
X129081627Y-73427963D01*
X129015442Y-73434482D01*
X128949260Y-73441000D01*
X128860740Y-73441000D01*
X128794558Y-73434482D01*
X128728373Y-73427963D01*
X128615147Y-73393616D01*
X128558533Y-73376443D01*
X128402011Y-73292779D01*
X128402009Y-73292778D01*
X128366271Y-73263448D01*
X128264814Y-73180186D01*
X128181552Y-73078729D01*
X128152222Y-73042991D01*
X128142652Y-73025087D01*
X128068557Y-72886467D01*
X128051384Y-72829853D01*
X128017037Y-72716627D01*
X127999641Y-72540000D01*
X128017037Y-72363373D01*
X128068557Y-72193534D01*
X128068557Y-72193533D01*
X128152221Y-72037011D01*
X128152222Y-72037009D01*
X128181552Y-72001271D01*
X128264814Y-71899814D01*
X128366271Y-71816552D01*
X128402009Y-71787222D01*
X128419913Y-71777652D01*
X128558533Y-71703557D01*
X128615147Y-71686384D01*
X128728373Y-71652037D01*
X128794558Y-71645518D01*
X128860740Y-71639000D01*
X128949260Y-71639000D01*
X129015442Y-71645518D01*
X129015442Y-71645518D01*
G37*
G36*
X132346000Y-70901000D02*
X130544000Y-70901000D01*
X130544000Y-69099000D01*
X132346000Y-69099000D01*
X132346000Y-70901000D01*
X132346000Y-70901000D01*
G37*
G36*
X129015443Y-69105519D02*
X129081627Y-69112037D01*
X129194853Y-69146384D01*
X129251467Y-69163557D01*
X129334648Y-69208019D01*
X129407991Y-69247222D01*
X129443729Y-69276552D01*
X129545186Y-69359814D01*
X129628448Y-69461271D01*
X129657778Y-69497009D01*
X129657779Y-69497011D01*
X129741443Y-69653533D01*
X129741443Y-69653534D01*
X129792963Y-69823373D01*
X129810359Y-70000000D01*
X129792963Y-70176627D01*
X129762356Y-70277525D01*
X129741443Y-70346467D01*
X129719737Y-70387075D01*
X129657778Y-70502991D01*
X129628448Y-70538729D01*
X129545186Y-70640186D01*
X129443729Y-70723448D01*
X129407991Y-70752778D01*
X129407989Y-70752779D01*
X129251467Y-70836443D01*
X129194853Y-70853616D01*
X129081627Y-70887963D01*
X129015442Y-70894482D01*
X128949260Y-70901000D01*
X128860740Y-70901000D01*
X128794558Y-70894482D01*
X128728373Y-70887963D01*
X128615147Y-70853616D01*
X128558533Y-70836443D01*
X128402011Y-70752779D01*
X128402009Y-70752778D01*
X128366271Y-70723448D01*
X128264814Y-70640186D01*
X128181552Y-70538729D01*
X128152222Y-70502991D01*
X128090263Y-70387075D01*
X128068557Y-70346467D01*
X128047644Y-70277525D01*
X128017037Y-70176627D01*
X127999641Y-70000000D01*
X128017037Y-69823373D01*
X128068557Y-69653534D01*
X128068557Y-69653533D01*
X128152221Y-69497011D01*
X128152222Y-69497009D01*
X128181552Y-69461271D01*
X128264814Y-69359814D01*
X128366271Y-69276552D01*
X128402009Y-69247222D01*
X128475352Y-69208019D01*
X128558533Y-69163557D01*
X128615147Y-69146384D01*
X128728373Y-69112037D01*
X128794557Y-69105519D01*
X128860740Y-69099000D01*
X128949260Y-69099000D01*
X129015443Y-69105519D01*
X129015443Y-69105519D01*
G37*
G36*
X144791981Y-68537468D02*
X144974150Y-68612925D01*
X145138103Y-68722475D01*
X145277525Y-68861897D01*
X145387075Y-69025850D01*
X145462532Y-69208019D01*
X145501000Y-69401410D01*
X145501000Y-69598590D01*
X145462532Y-69791981D01*
X145387075Y-69974150D01*
X145277525Y-70138103D01*
X145138103Y-70277525D01*
X144974150Y-70387075D01*
X144791981Y-70462532D01*
X144598590Y-70501000D01*
X144401410Y-70501000D01*
X144208019Y-70462532D01*
X144025850Y-70387075D01*
X143861897Y-70277525D01*
X143722475Y-70138103D01*
X143612925Y-69974150D01*
X143537468Y-69791981D01*
X143499000Y-69598590D01*
X143499000Y-69401410D01*
X143537468Y-69208019D01*
X143612925Y-69025850D01*
X143722475Y-68861897D01*
X143861897Y-68722475D01*
X144025850Y-68612925D01*
X144208019Y-68537468D01*
X144401410Y-68499000D01*
X144598590Y-68499000D01*
X144791981Y-68537468D01*
X144791981Y-68537468D01*
G37*
G36*
X149691981Y-67937468D02*
X149874150Y-68012925D01*
X150038103Y-68122475D01*
X150177525Y-68261897D01*
X150287075Y-68425850D01*
X150362532Y-68608019D01*
X150401000Y-68801410D01*
X150401000Y-68998590D01*
X150362532Y-69191981D01*
X150287075Y-69374150D01*
X150177525Y-69538103D01*
X150038103Y-69677525D01*
X149874150Y-69787075D01*
X149691981Y-69862532D01*
X149498590Y-69901000D01*
X149301410Y-69901000D01*
X149108019Y-69862532D01*
X148925850Y-69787075D01*
X148761897Y-69677525D01*
X148622475Y-69538103D01*
X148512925Y-69374150D01*
X148437468Y-69191981D01*
X148399000Y-68998590D01*
X148399000Y-68801410D01*
X148437468Y-68608019D01*
X148512925Y-68425850D01*
X148622475Y-68261897D01*
X148761897Y-68122475D01*
X148925850Y-68012925D01*
X149108019Y-67937468D01*
X149301410Y-67899000D01*
X149498590Y-67899000D01*
X149691981Y-67937468D01*
X149691981Y-67937468D01*
G37*
M02*
