G04 #@! TF.GenerationSoftware,KiCad,Pcbnew,5.0.2-bee76a0~70~ubuntu18.04.1*
G04 #@! TF.CreationDate,2020-06-27T14:22:49+01:00*
G04 #@! TF.ProjectId,picodvi_pmod,7069636f-6476-4695-9f70-6d6f642e6b69,rev?*
G04 #@! TF.SameCoordinates,Original*
G04 #@! TF.FileFunction,Soldermask,Top*
G04 #@! TF.FilePolarity,Negative*
%FSLAX46Y46*%
G04 Gerber Fmt 4.6, Leading zero omitted, Abs format (unit mm)*
G04 Created by KiCad (PCBNEW 5.0.2-bee76a0~70~ubuntu18.04.1) date Sat 27 Jun 2020 14:22:49 BST*
%MOMM*%
%LPD*%
G01*
G04 APERTURE LIST*
%ADD10C,0.100000*%
G04 APERTURE END LIST*
D10*
G36*
X149691981Y-83637468D02*
X149874150Y-83712925D01*
X150038103Y-83822475D01*
X150177525Y-83961897D01*
X150287075Y-84125850D01*
X150362532Y-84308019D01*
X150401000Y-84501410D01*
X150401000Y-84698590D01*
X150362532Y-84891981D01*
X150287075Y-85074150D01*
X150177525Y-85238103D01*
X150038103Y-85377525D01*
X149874150Y-85487075D01*
X149691981Y-85562532D01*
X149498590Y-85601000D01*
X149301410Y-85601000D01*
X149108019Y-85562532D01*
X148925850Y-85487075D01*
X148761897Y-85377525D01*
X148622475Y-85238103D01*
X148512925Y-85074150D01*
X148437468Y-84891981D01*
X148399000Y-84698590D01*
X148399000Y-84501410D01*
X148437468Y-84308019D01*
X148512925Y-84125850D01*
X148622475Y-83961897D01*
X148761897Y-83822475D01*
X148925850Y-83712925D01*
X149108019Y-83637468D01*
X149301410Y-83599000D01*
X149498590Y-83599000D01*
X149691981Y-83637468D01*
X149691981Y-83637468D01*
G37*
G36*
X144791981Y-83037468D02*
X144974150Y-83112925D01*
X145138103Y-83222475D01*
X145277525Y-83361897D01*
X145387075Y-83525850D01*
X145462532Y-83708019D01*
X145501000Y-83901410D01*
X145501000Y-84098590D01*
X145462532Y-84291981D01*
X145387075Y-84474150D01*
X145277525Y-84638103D01*
X145138103Y-84777525D01*
X144974150Y-84887075D01*
X144791981Y-84962532D01*
X144598590Y-85001000D01*
X144401410Y-85001000D01*
X144208019Y-84962532D01*
X144025850Y-84887075D01*
X143861897Y-84777525D01*
X143722475Y-84638103D01*
X143612925Y-84474150D01*
X143537468Y-84291981D01*
X143499000Y-84098590D01*
X143499000Y-83901410D01*
X143537468Y-83708019D01*
X143612925Y-83525850D01*
X143722475Y-83361897D01*
X143861897Y-83222475D01*
X144025850Y-83112925D01*
X144208019Y-83037468D01*
X144401410Y-82999000D01*
X144598590Y-82999000D01*
X144791981Y-83037468D01*
X144791981Y-83037468D01*
G37*
G36*
X139901000Y-83901000D02*
X138099000Y-83901000D01*
X138099000Y-82099000D01*
X139901000Y-82099000D01*
X139901000Y-83901000D01*
X139901000Y-83901000D01*
G37*
G36*
X136570442Y-82105518D02*
X136636627Y-82112037D01*
X136749853Y-82146384D01*
X136806467Y-82163557D01*
X136909152Y-82218444D01*
X136962991Y-82247222D01*
X136976199Y-82258062D01*
X137100186Y-82359814D01*
X137183448Y-82461271D01*
X137212778Y-82497009D01*
X137212779Y-82497011D01*
X137296443Y-82653533D01*
X137296443Y-82653534D01*
X137347963Y-82823373D01*
X137365359Y-83000000D01*
X137347963Y-83176627D01*
X137334055Y-83222475D01*
X137296443Y-83346467D01*
X137239618Y-83452778D01*
X137212778Y-83502991D01*
X137194019Y-83525849D01*
X137100186Y-83640186D01*
X137009803Y-83714360D01*
X136962991Y-83752778D01*
X136945087Y-83762348D01*
X136806467Y-83836443D01*
X136749853Y-83853616D01*
X136636627Y-83887963D01*
X136570442Y-83894482D01*
X136504260Y-83901000D01*
X136415740Y-83901000D01*
X136349558Y-83894482D01*
X136283373Y-83887963D01*
X136170147Y-83853616D01*
X136113533Y-83836443D01*
X135974913Y-83762348D01*
X135957009Y-83752778D01*
X135910197Y-83714360D01*
X135819814Y-83640186D01*
X135725981Y-83525849D01*
X135707222Y-83502991D01*
X135680382Y-83452778D01*
X135623557Y-83346467D01*
X135585945Y-83222475D01*
X135572037Y-83176627D01*
X135554641Y-83000000D01*
X135572037Y-82823373D01*
X135623557Y-82653534D01*
X135623557Y-82653533D01*
X135707221Y-82497011D01*
X135707222Y-82497009D01*
X135736552Y-82461271D01*
X135819814Y-82359814D01*
X135943801Y-82258062D01*
X135957009Y-82247222D01*
X136010848Y-82218444D01*
X136113533Y-82163557D01*
X136170147Y-82146384D01*
X136283373Y-82112037D01*
X136349558Y-82105518D01*
X136415740Y-82099000D01*
X136504260Y-82099000D01*
X136570442Y-82105518D01*
X136570442Y-82105518D01*
G37*
G36*
X141781938Y-83141716D02*
X141802556Y-83147970D01*
X141821556Y-83158126D01*
X141838208Y-83171792D01*
X141851874Y-83188444D01*
X141862030Y-83207444D01*
X141868284Y-83228062D01*
X141871000Y-83255640D01*
X141871000Y-83714360D01*
X141868284Y-83741938D01*
X141862030Y-83762556D01*
X141851874Y-83781556D01*
X141838208Y-83798208D01*
X141821556Y-83811874D01*
X141802556Y-83822030D01*
X141781938Y-83828284D01*
X141754360Y-83831000D01*
X141245640Y-83831000D01*
X141218062Y-83828284D01*
X141197444Y-83822030D01*
X141178444Y-83811874D01*
X141161792Y-83798208D01*
X141148126Y-83781556D01*
X141137970Y-83762556D01*
X141131716Y-83741938D01*
X141129000Y-83714360D01*
X141129000Y-83255640D01*
X141131716Y-83228062D01*
X141137970Y-83207444D01*
X141148126Y-83188444D01*
X141161792Y-83171792D01*
X141178444Y-83158126D01*
X141197444Y-83147970D01*
X141218062Y-83141716D01*
X141245640Y-83139000D01*
X141754360Y-83139000D01*
X141781938Y-83141716D01*
X141781938Y-83141716D01*
G37*
G36*
X131555442Y-81805518D02*
X131621627Y-81812037D01*
X131734853Y-81846384D01*
X131791467Y-81863557D01*
X131930087Y-81937652D01*
X131947991Y-81947222D01*
X131983729Y-81976552D01*
X132085186Y-82059814D01*
X132168448Y-82161271D01*
X132197778Y-82197009D01*
X132197779Y-82197011D01*
X132281443Y-82353533D01*
X132298616Y-82410147D01*
X132332963Y-82523373D01*
X132350359Y-82700000D01*
X132332963Y-82876627D01*
X132298616Y-82989853D01*
X132281443Y-83046467D01*
X132227188Y-83147970D01*
X132197778Y-83202991D01*
X132168448Y-83238729D01*
X132085186Y-83340186D01*
X131983729Y-83423448D01*
X131947991Y-83452778D01*
X131947989Y-83452779D01*
X131791467Y-83536443D01*
X131734853Y-83553616D01*
X131621627Y-83587963D01*
X131555443Y-83594481D01*
X131489260Y-83601000D01*
X131400740Y-83601000D01*
X131334557Y-83594481D01*
X131268373Y-83587963D01*
X131155147Y-83553616D01*
X131098533Y-83536443D01*
X130942011Y-83452779D01*
X130942009Y-83452778D01*
X130906271Y-83423448D01*
X130804814Y-83340186D01*
X130721552Y-83238729D01*
X130692222Y-83202991D01*
X130662812Y-83147970D01*
X130608557Y-83046467D01*
X130591384Y-82989853D01*
X130557037Y-82876627D01*
X130539641Y-82700000D01*
X130557037Y-82523373D01*
X130591384Y-82410147D01*
X130608557Y-82353533D01*
X130692221Y-82197011D01*
X130692222Y-82197009D01*
X130721552Y-82161271D01*
X130804814Y-82059814D01*
X130906271Y-81976552D01*
X130942009Y-81947222D01*
X130959913Y-81937652D01*
X131098533Y-81863557D01*
X131155147Y-81846384D01*
X131268373Y-81812037D01*
X131334558Y-81805518D01*
X131400740Y-81799000D01*
X131489260Y-81799000D01*
X131555442Y-81805518D01*
X131555442Y-81805518D01*
G37*
G36*
X129015442Y-81805518D02*
X129081627Y-81812037D01*
X129194853Y-81846384D01*
X129251467Y-81863557D01*
X129390087Y-81937652D01*
X129407991Y-81947222D01*
X129443729Y-81976552D01*
X129545186Y-82059814D01*
X129628448Y-82161271D01*
X129657778Y-82197009D01*
X129657779Y-82197011D01*
X129741443Y-82353533D01*
X129758616Y-82410147D01*
X129792963Y-82523373D01*
X129810359Y-82700000D01*
X129792963Y-82876627D01*
X129758616Y-82989853D01*
X129741443Y-83046467D01*
X129687188Y-83147970D01*
X129657778Y-83202991D01*
X129628448Y-83238729D01*
X129545186Y-83340186D01*
X129443729Y-83423448D01*
X129407991Y-83452778D01*
X129407989Y-83452779D01*
X129251467Y-83536443D01*
X129194853Y-83553616D01*
X129081627Y-83587963D01*
X129015443Y-83594481D01*
X128949260Y-83601000D01*
X128860740Y-83601000D01*
X128794557Y-83594481D01*
X128728373Y-83587963D01*
X128615147Y-83553616D01*
X128558533Y-83536443D01*
X128402011Y-83452779D01*
X128402009Y-83452778D01*
X128366271Y-83423448D01*
X128264814Y-83340186D01*
X128181552Y-83238729D01*
X128152222Y-83202991D01*
X128122812Y-83147970D01*
X128068557Y-83046467D01*
X128051384Y-82989853D01*
X128017037Y-82876627D01*
X127999641Y-82700000D01*
X128017037Y-82523373D01*
X128051384Y-82410147D01*
X128068557Y-82353533D01*
X128152221Y-82197011D01*
X128152222Y-82197009D01*
X128181552Y-82161271D01*
X128264814Y-82059814D01*
X128366271Y-81976552D01*
X128402009Y-81947222D01*
X128419913Y-81937652D01*
X128558533Y-81863557D01*
X128615147Y-81846384D01*
X128728373Y-81812037D01*
X128794558Y-81805518D01*
X128860740Y-81799000D01*
X128949260Y-81799000D01*
X129015442Y-81805518D01*
X129015442Y-81805518D01*
G37*
G36*
X141781938Y-82171716D02*
X141802556Y-82177970D01*
X141821556Y-82188126D01*
X141838208Y-82201792D01*
X141851874Y-82218444D01*
X141862030Y-82237444D01*
X141868284Y-82258062D01*
X141871000Y-82285640D01*
X141871000Y-82744360D01*
X141868284Y-82771938D01*
X141862030Y-82792556D01*
X141851874Y-82811556D01*
X141838208Y-82828208D01*
X141821556Y-82841874D01*
X141802556Y-82852030D01*
X141781938Y-82858284D01*
X141754360Y-82861000D01*
X141245640Y-82861000D01*
X141218062Y-82858284D01*
X141197444Y-82852030D01*
X141178444Y-82841874D01*
X141161792Y-82828208D01*
X141148126Y-82811556D01*
X141137970Y-82792556D01*
X141131716Y-82771938D01*
X141129000Y-82744360D01*
X141129000Y-82285640D01*
X141131716Y-82258062D01*
X141137970Y-82237444D01*
X141148126Y-82218444D01*
X141161792Y-82201792D01*
X141178444Y-82188126D01*
X141197444Y-82177970D01*
X141218062Y-82171716D01*
X141245640Y-82169000D01*
X141754360Y-82169000D01*
X141781938Y-82171716D01*
X141781938Y-82171716D01*
G37*
G36*
X144601000Y-81701000D02*
X142599000Y-81701000D01*
X142599000Y-72299000D01*
X144601000Y-72299000D01*
X144601000Y-81701000D01*
X144601000Y-81701000D01*
G37*
G36*
X129002096Y-79264204D02*
X129081627Y-79272037D01*
X129154405Y-79294114D01*
X129251467Y-79323557D01*
X129335144Y-79368284D01*
X129407991Y-79407222D01*
X129443729Y-79436552D01*
X129545186Y-79519814D01*
X129628448Y-79621271D01*
X129657778Y-79657009D01*
X129657779Y-79657011D01*
X129741443Y-79813533D01*
X129741443Y-79813534D01*
X129792963Y-79983373D01*
X129810359Y-80160000D01*
X129792963Y-80336627D01*
X129758616Y-80449853D01*
X129741443Y-80506467D01*
X129667348Y-80645087D01*
X129657778Y-80662991D01*
X129628448Y-80698729D01*
X129545186Y-80800186D01*
X129443729Y-80883448D01*
X129407991Y-80912778D01*
X129407989Y-80912779D01*
X129251467Y-80996443D01*
X129194853Y-81013616D01*
X129081627Y-81047963D01*
X129015442Y-81054482D01*
X128949260Y-81061000D01*
X128860740Y-81061000D01*
X128794558Y-81054482D01*
X128728373Y-81047963D01*
X128615147Y-81013616D01*
X128558533Y-80996443D01*
X128402011Y-80912779D01*
X128402009Y-80912778D01*
X128366271Y-80883448D01*
X128264814Y-80800186D01*
X128181552Y-80698729D01*
X128152222Y-80662991D01*
X128142652Y-80645087D01*
X128068557Y-80506467D01*
X128051384Y-80449853D01*
X128017037Y-80336627D01*
X127999641Y-80160000D01*
X128017037Y-79983373D01*
X128068557Y-79813534D01*
X128068557Y-79813533D01*
X128152221Y-79657011D01*
X128152222Y-79657009D01*
X128181552Y-79621271D01*
X128264814Y-79519814D01*
X128366271Y-79436552D01*
X128402009Y-79407222D01*
X128474856Y-79368284D01*
X128558533Y-79323557D01*
X128655595Y-79294114D01*
X128728373Y-79272037D01*
X128807904Y-79264204D01*
X128860740Y-79259000D01*
X128949260Y-79259000D01*
X129002096Y-79264204D01*
X129002096Y-79264204D01*
G37*
G36*
X131542096Y-79264204D02*
X131621627Y-79272037D01*
X131694405Y-79294114D01*
X131791467Y-79323557D01*
X131875144Y-79368284D01*
X131947991Y-79407222D01*
X131983729Y-79436552D01*
X132085186Y-79519814D01*
X132168448Y-79621271D01*
X132197778Y-79657009D01*
X132197779Y-79657011D01*
X132281443Y-79813533D01*
X132281443Y-79813534D01*
X132332963Y-79983373D01*
X132350359Y-80160000D01*
X132332963Y-80336627D01*
X132298616Y-80449853D01*
X132281443Y-80506467D01*
X132207348Y-80645087D01*
X132197778Y-80662991D01*
X132168448Y-80698729D01*
X132085186Y-80800186D01*
X131983729Y-80883448D01*
X131947991Y-80912778D01*
X131947989Y-80912779D01*
X131791467Y-80996443D01*
X131734853Y-81013616D01*
X131621627Y-81047963D01*
X131555442Y-81054482D01*
X131489260Y-81061000D01*
X131400740Y-81061000D01*
X131334558Y-81054482D01*
X131268373Y-81047963D01*
X131155147Y-81013616D01*
X131098533Y-80996443D01*
X130942011Y-80912779D01*
X130942009Y-80912778D01*
X130906271Y-80883448D01*
X130804814Y-80800186D01*
X130721552Y-80698729D01*
X130692222Y-80662991D01*
X130682652Y-80645087D01*
X130608557Y-80506467D01*
X130591384Y-80449853D01*
X130557037Y-80336627D01*
X130539641Y-80160000D01*
X130557037Y-79983373D01*
X130608557Y-79813534D01*
X130608557Y-79813533D01*
X130692221Y-79657011D01*
X130692222Y-79657009D01*
X130721552Y-79621271D01*
X130804814Y-79519814D01*
X130906271Y-79436552D01*
X130942009Y-79407222D01*
X131014856Y-79368284D01*
X131098533Y-79323557D01*
X131195595Y-79294114D01*
X131268373Y-79272037D01*
X131347904Y-79264204D01*
X131400740Y-79259000D01*
X131489260Y-79259000D01*
X131542096Y-79264204D01*
X131542096Y-79264204D01*
G37*
G36*
X139771938Y-78631716D02*
X139792556Y-78637970D01*
X139811556Y-78648126D01*
X139828208Y-78661792D01*
X139841874Y-78678444D01*
X139852030Y-78697444D01*
X139858284Y-78718062D01*
X139861000Y-78745640D01*
X139861000Y-79254360D01*
X139858284Y-79281938D01*
X139852030Y-79302556D01*
X139841874Y-79321556D01*
X139828208Y-79338208D01*
X139811556Y-79351874D01*
X139792556Y-79362030D01*
X139771938Y-79368284D01*
X139744360Y-79371000D01*
X139285640Y-79371000D01*
X139258062Y-79368284D01*
X139237444Y-79362030D01*
X139218444Y-79351874D01*
X139201792Y-79338208D01*
X139188126Y-79321556D01*
X139177970Y-79302556D01*
X139171716Y-79281938D01*
X139169000Y-79254360D01*
X139169000Y-78745640D01*
X139171716Y-78718062D01*
X139177970Y-78697444D01*
X139188126Y-78678444D01*
X139201792Y-78661792D01*
X139218444Y-78648126D01*
X139237444Y-78637970D01*
X139258062Y-78631716D01*
X139285640Y-78629000D01*
X139744360Y-78629000D01*
X139771938Y-78631716D01*
X139771938Y-78631716D01*
G37*
G36*
X140741938Y-78631716D02*
X140762556Y-78637970D01*
X140781556Y-78648126D01*
X140798208Y-78661792D01*
X140811874Y-78678444D01*
X140822030Y-78697444D01*
X140828284Y-78718062D01*
X140831000Y-78745640D01*
X140831000Y-79254360D01*
X140828284Y-79281938D01*
X140822030Y-79302556D01*
X140811874Y-79321556D01*
X140798208Y-79338208D01*
X140781556Y-79351874D01*
X140762556Y-79362030D01*
X140741938Y-79368284D01*
X140714360Y-79371000D01*
X140255640Y-79371000D01*
X140228062Y-79368284D01*
X140207444Y-79362030D01*
X140188444Y-79351874D01*
X140171792Y-79338208D01*
X140158126Y-79321556D01*
X140147970Y-79302556D01*
X140141716Y-79281938D01*
X140139000Y-79254360D01*
X140139000Y-78745640D01*
X140141716Y-78718062D01*
X140147970Y-78697444D01*
X140158126Y-78678444D01*
X140171792Y-78661792D01*
X140188444Y-78648126D01*
X140207444Y-78637970D01*
X140228062Y-78631716D01*
X140255640Y-78629000D01*
X140714360Y-78629000D01*
X140741938Y-78631716D01*
X140741938Y-78631716D01*
G37*
G36*
X129015442Y-76725518D02*
X129081627Y-76732037D01*
X129194853Y-76766384D01*
X129251467Y-76783557D01*
X129390087Y-76857652D01*
X129407991Y-76867222D01*
X129443729Y-76896552D01*
X129545186Y-76979814D01*
X129628448Y-77081271D01*
X129657778Y-77117009D01*
X129657779Y-77117011D01*
X129741443Y-77273533D01*
X129747686Y-77294114D01*
X129792963Y-77443373D01*
X129810359Y-77620000D01*
X129792963Y-77796627D01*
X129792243Y-77799000D01*
X129741443Y-77966467D01*
X129667348Y-78105087D01*
X129657778Y-78122991D01*
X129628448Y-78158729D01*
X129545186Y-78260186D01*
X129445684Y-78341844D01*
X129407991Y-78372778D01*
X129407989Y-78372779D01*
X129251467Y-78456443D01*
X129194853Y-78473616D01*
X129081627Y-78507963D01*
X129015443Y-78514481D01*
X128949260Y-78521000D01*
X128860740Y-78521000D01*
X128794557Y-78514481D01*
X128728373Y-78507963D01*
X128615147Y-78473616D01*
X128558533Y-78456443D01*
X128402011Y-78372779D01*
X128402009Y-78372778D01*
X128364316Y-78341844D01*
X128264814Y-78260186D01*
X128181552Y-78158729D01*
X128152222Y-78122991D01*
X128142652Y-78105087D01*
X128068557Y-77966467D01*
X128017757Y-77799000D01*
X128017037Y-77796627D01*
X127999641Y-77620000D01*
X128017037Y-77443373D01*
X128062314Y-77294114D01*
X128068557Y-77273533D01*
X128152221Y-77117011D01*
X128152222Y-77117009D01*
X128181552Y-77081271D01*
X128264814Y-76979814D01*
X128366271Y-76896552D01*
X128402009Y-76867222D01*
X128419913Y-76857652D01*
X128558533Y-76783557D01*
X128615147Y-76766384D01*
X128728373Y-76732037D01*
X128794558Y-76725518D01*
X128860740Y-76719000D01*
X128949260Y-76719000D01*
X129015442Y-76725518D01*
X129015442Y-76725518D01*
G37*
G36*
X131555442Y-76725518D02*
X131621627Y-76732037D01*
X131734853Y-76766384D01*
X131791467Y-76783557D01*
X131930087Y-76857652D01*
X131947991Y-76867222D01*
X131983729Y-76896552D01*
X132085186Y-76979814D01*
X132168448Y-77081271D01*
X132197778Y-77117009D01*
X132197779Y-77117011D01*
X132281443Y-77273533D01*
X132287686Y-77294114D01*
X132332963Y-77443373D01*
X132350359Y-77620000D01*
X132332963Y-77796627D01*
X132332243Y-77799000D01*
X132281443Y-77966467D01*
X132207348Y-78105087D01*
X132197778Y-78122991D01*
X132168448Y-78158729D01*
X132085186Y-78260186D01*
X131985684Y-78341844D01*
X131947991Y-78372778D01*
X131947989Y-78372779D01*
X131791467Y-78456443D01*
X131734853Y-78473616D01*
X131621627Y-78507963D01*
X131555443Y-78514481D01*
X131489260Y-78521000D01*
X131400740Y-78521000D01*
X131334557Y-78514481D01*
X131268373Y-78507963D01*
X131155147Y-78473616D01*
X131098533Y-78456443D01*
X130942011Y-78372779D01*
X130942009Y-78372778D01*
X130904316Y-78341844D01*
X130804814Y-78260186D01*
X130721552Y-78158729D01*
X130692222Y-78122991D01*
X130682652Y-78105087D01*
X130608557Y-77966467D01*
X130557757Y-77799000D01*
X130557037Y-77796627D01*
X130539641Y-77620000D01*
X130557037Y-77443373D01*
X130602314Y-77294114D01*
X130608557Y-77273533D01*
X130692221Y-77117011D01*
X130692222Y-77117009D01*
X130721552Y-77081271D01*
X130804814Y-76979814D01*
X130906271Y-76896552D01*
X130942009Y-76867222D01*
X130959913Y-76857652D01*
X131098533Y-76783557D01*
X131155147Y-76766384D01*
X131268373Y-76732037D01*
X131334558Y-76725518D01*
X131400740Y-76719000D01*
X131489260Y-76719000D01*
X131555442Y-76725518D01*
X131555442Y-76725518D01*
G37*
G36*
X139771938Y-77631716D02*
X139792556Y-77637970D01*
X139811556Y-77648126D01*
X139828208Y-77661792D01*
X139841874Y-77678444D01*
X139852030Y-77697444D01*
X139858284Y-77718062D01*
X139861000Y-77745640D01*
X139861000Y-78254360D01*
X139858284Y-78281938D01*
X139852030Y-78302556D01*
X139841874Y-78321556D01*
X139828208Y-78338208D01*
X139811556Y-78351874D01*
X139792556Y-78362030D01*
X139771938Y-78368284D01*
X139744360Y-78371000D01*
X139285640Y-78371000D01*
X139258062Y-78368284D01*
X139237444Y-78362030D01*
X139218444Y-78351874D01*
X139201792Y-78338208D01*
X139188126Y-78321556D01*
X139177970Y-78302556D01*
X139171716Y-78281938D01*
X139169000Y-78254360D01*
X139169000Y-77745640D01*
X139171716Y-77718062D01*
X139177970Y-77697444D01*
X139188126Y-77678444D01*
X139201792Y-77661792D01*
X139218444Y-77648126D01*
X139237444Y-77637970D01*
X139258062Y-77631716D01*
X139285640Y-77629000D01*
X139744360Y-77629000D01*
X139771938Y-77631716D01*
X139771938Y-77631716D01*
G37*
G36*
X140741938Y-77631716D02*
X140762556Y-77637970D01*
X140781556Y-77648126D01*
X140798208Y-77661792D01*
X140811874Y-77678444D01*
X140822030Y-77697444D01*
X140828284Y-77718062D01*
X140831000Y-77745640D01*
X140831000Y-78254360D01*
X140828284Y-78281938D01*
X140822030Y-78302556D01*
X140811874Y-78321556D01*
X140798208Y-78338208D01*
X140781556Y-78351874D01*
X140762556Y-78362030D01*
X140741938Y-78368284D01*
X140714360Y-78371000D01*
X140255640Y-78371000D01*
X140228062Y-78368284D01*
X140207444Y-78362030D01*
X140188444Y-78351874D01*
X140171792Y-78338208D01*
X140158126Y-78321556D01*
X140147970Y-78302556D01*
X140141716Y-78281938D01*
X140139000Y-78254360D01*
X140139000Y-77745640D01*
X140141716Y-77718062D01*
X140147970Y-77697444D01*
X140158126Y-77678444D01*
X140171792Y-77661792D01*
X140188444Y-77648126D01*
X140207444Y-77637970D01*
X140228062Y-77631716D01*
X140255640Y-77629000D01*
X140714360Y-77629000D01*
X140741938Y-77631716D01*
X140741938Y-77631716D01*
G37*
G36*
X140741938Y-76631716D02*
X140762556Y-76637970D01*
X140781556Y-76648126D01*
X140798208Y-76661792D01*
X140811874Y-76678444D01*
X140822030Y-76697444D01*
X140828284Y-76718062D01*
X140831000Y-76745640D01*
X140831000Y-77254360D01*
X140828284Y-77281938D01*
X140822030Y-77302556D01*
X140811874Y-77321556D01*
X140798208Y-77338208D01*
X140781556Y-77351874D01*
X140762556Y-77362030D01*
X140741938Y-77368284D01*
X140714360Y-77371000D01*
X140255640Y-77371000D01*
X140228062Y-77368284D01*
X140207444Y-77362030D01*
X140188444Y-77351874D01*
X140171792Y-77338208D01*
X140158126Y-77321556D01*
X140147970Y-77302556D01*
X140141716Y-77281938D01*
X140139000Y-77254360D01*
X140139000Y-76745640D01*
X140141716Y-76718062D01*
X140147970Y-76697444D01*
X140158126Y-76678444D01*
X140171792Y-76661792D01*
X140188444Y-76648126D01*
X140207444Y-76637970D01*
X140228062Y-76631716D01*
X140255640Y-76629000D01*
X140714360Y-76629000D01*
X140741938Y-76631716D01*
X140741938Y-76631716D01*
G37*
G36*
X139771938Y-76631716D02*
X139792556Y-76637970D01*
X139811556Y-76648126D01*
X139828208Y-76661792D01*
X139841874Y-76678444D01*
X139852030Y-76697444D01*
X139858284Y-76718062D01*
X139861000Y-76745640D01*
X139861000Y-77254360D01*
X139858284Y-77281938D01*
X139852030Y-77302556D01*
X139841874Y-77321556D01*
X139828208Y-77338208D01*
X139811556Y-77351874D01*
X139792556Y-77362030D01*
X139771938Y-77368284D01*
X139744360Y-77371000D01*
X139285640Y-77371000D01*
X139258062Y-77368284D01*
X139237444Y-77362030D01*
X139218444Y-77351874D01*
X139201792Y-77338208D01*
X139188126Y-77321556D01*
X139177970Y-77302556D01*
X139171716Y-77281938D01*
X139169000Y-77254360D01*
X139169000Y-76745640D01*
X139171716Y-76718062D01*
X139177970Y-76697444D01*
X139188126Y-76678444D01*
X139201792Y-76661792D01*
X139218444Y-76648126D01*
X139237444Y-76637970D01*
X139258062Y-76631716D01*
X139285640Y-76629000D01*
X139744360Y-76629000D01*
X139771938Y-76631716D01*
X139771938Y-76631716D01*
G37*
G36*
X139771938Y-75631716D02*
X139792556Y-75637970D01*
X139811556Y-75648126D01*
X139828208Y-75661792D01*
X139841874Y-75678444D01*
X139852030Y-75697444D01*
X139858284Y-75718062D01*
X139861000Y-75745640D01*
X139861000Y-76254360D01*
X139858284Y-76281938D01*
X139852030Y-76302556D01*
X139841874Y-76321556D01*
X139828208Y-76338208D01*
X139811556Y-76351874D01*
X139792556Y-76362030D01*
X139771938Y-76368284D01*
X139744360Y-76371000D01*
X139285640Y-76371000D01*
X139258062Y-76368284D01*
X139237444Y-76362030D01*
X139218444Y-76351874D01*
X139201792Y-76338208D01*
X139188126Y-76321556D01*
X139177970Y-76302556D01*
X139171716Y-76281938D01*
X139169000Y-76254360D01*
X139169000Y-75745640D01*
X139171716Y-75718062D01*
X139177970Y-75697444D01*
X139188126Y-75678444D01*
X139201792Y-75661792D01*
X139218444Y-75648126D01*
X139237444Y-75637970D01*
X139258062Y-75631716D01*
X139285640Y-75629000D01*
X139744360Y-75629000D01*
X139771938Y-75631716D01*
X139771938Y-75631716D01*
G37*
G36*
X140741938Y-75631716D02*
X140762556Y-75637970D01*
X140781556Y-75648126D01*
X140798208Y-75661792D01*
X140811874Y-75678444D01*
X140822030Y-75697444D01*
X140828284Y-75718062D01*
X140831000Y-75745640D01*
X140831000Y-76254360D01*
X140828284Y-76281938D01*
X140822030Y-76302556D01*
X140811874Y-76321556D01*
X140798208Y-76338208D01*
X140781556Y-76351874D01*
X140762556Y-76362030D01*
X140741938Y-76368284D01*
X140714360Y-76371000D01*
X140255640Y-76371000D01*
X140228062Y-76368284D01*
X140207444Y-76362030D01*
X140188444Y-76351874D01*
X140171792Y-76338208D01*
X140158126Y-76321556D01*
X140147970Y-76302556D01*
X140141716Y-76281938D01*
X140139000Y-76254360D01*
X140139000Y-75745640D01*
X140141716Y-75718062D01*
X140147970Y-75697444D01*
X140158126Y-75678444D01*
X140171792Y-75661792D01*
X140188444Y-75648126D01*
X140207444Y-75637970D01*
X140228062Y-75631716D01*
X140255640Y-75629000D01*
X140714360Y-75629000D01*
X140741938Y-75631716D01*
X140741938Y-75631716D01*
G37*
G36*
X129015442Y-74185518D02*
X129081627Y-74192037D01*
X129194853Y-74226384D01*
X129251467Y-74243557D01*
X129346051Y-74294114D01*
X129407991Y-74327222D01*
X129438029Y-74351874D01*
X129545186Y-74439814D01*
X129628448Y-74541271D01*
X129657778Y-74577009D01*
X129657779Y-74577011D01*
X129741443Y-74733533D01*
X129751974Y-74768249D01*
X129792963Y-74903373D01*
X129810359Y-75080000D01*
X129792963Y-75256627D01*
X129773639Y-75320329D01*
X129741443Y-75426467D01*
X129667348Y-75565087D01*
X129657778Y-75582991D01*
X129628448Y-75618729D01*
X129545186Y-75720186D01*
X129449149Y-75799000D01*
X129407991Y-75832778D01*
X129407989Y-75832779D01*
X129251467Y-75916443D01*
X129194853Y-75933616D01*
X129081627Y-75967963D01*
X129015442Y-75974482D01*
X128949260Y-75981000D01*
X128860740Y-75981000D01*
X128794558Y-75974482D01*
X128728373Y-75967963D01*
X128615147Y-75933616D01*
X128558533Y-75916443D01*
X128402011Y-75832779D01*
X128402009Y-75832778D01*
X128360851Y-75799000D01*
X128264814Y-75720186D01*
X128181552Y-75618729D01*
X128152222Y-75582991D01*
X128142652Y-75565087D01*
X128068557Y-75426467D01*
X128036361Y-75320329D01*
X128017037Y-75256627D01*
X127999641Y-75080000D01*
X128017037Y-74903373D01*
X128058026Y-74768249D01*
X128068557Y-74733533D01*
X128152221Y-74577011D01*
X128152222Y-74577009D01*
X128181552Y-74541271D01*
X128264814Y-74439814D01*
X128371971Y-74351874D01*
X128402009Y-74327222D01*
X128463949Y-74294114D01*
X128558533Y-74243557D01*
X128615147Y-74226384D01*
X128728373Y-74192037D01*
X128794558Y-74185518D01*
X128860740Y-74179000D01*
X128949260Y-74179000D01*
X129015442Y-74185518D01*
X129015442Y-74185518D01*
G37*
G36*
X131555442Y-74185518D02*
X131621627Y-74192037D01*
X131734853Y-74226384D01*
X131791467Y-74243557D01*
X131886051Y-74294114D01*
X131947991Y-74327222D01*
X131978029Y-74351874D01*
X132085186Y-74439814D01*
X132168448Y-74541271D01*
X132197778Y-74577009D01*
X132197779Y-74577011D01*
X132281443Y-74733533D01*
X132291974Y-74768249D01*
X132332963Y-74903373D01*
X132350359Y-75080000D01*
X132332963Y-75256627D01*
X132313639Y-75320329D01*
X132281443Y-75426467D01*
X132207348Y-75565087D01*
X132197778Y-75582991D01*
X132168448Y-75618729D01*
X132085186Y-75720186D01*
X131989149Y-75799000D01*
X131947991Y-75832778D01*
X131947989Y-75832779D01*
X131791467Y-75916443D01*
X131734853Y-75933616D01*
X131621627Y-75967963D01*
X131555442Y-75974482D01*
X131489260Y-75981000D01*
X131400740Y-75981000D01*
X131334558Y-75974482D01*
X131268373Y-75967963D01*
X131155147Y-75933616D01*
X131098533Y-75916443D01*
X130942011Y-75832779D01*
X130942009Y-75832778D01*
X130900851Y-75799000D01*
X130804814Y-75720186D01*
X130721552Y-75618729D01*
X130692222Y-75582991D01*
X130682652Y-75565087D01*
X130608557Y-75426467D01*
X130576361Y-75320329D01*
X130557037Y-75256627D01*
X130539641Y-75080000D01*
X130557037Y-74903373D01*
X130598026Y-74768249D01*
X130608557Y-74733533D01*
X130692221Y-74577011D01*
X130692222Y-74577009D01*
X130721552Y-74541271D01*
X130804814Y-74439814D01*
X130911971Y-74351874D01*
X130942009Y-74327222D01*
X131003949Y-74294114D01*
X131098533Y-74243557D01*
X131155147Y-74226384D01*
X131268373Y-74192037D01*
X131334558Y-74185518D01*
X131400740Y-74179000D01*
X131489260Y-74179000D01*
X131555442Y-74185518D01*
X131555442Y-74185518D01*
G37*
G36*
X140741938Y-74631716D02*
X140762556Y-74637970D01*
X140781556Y-74648126D01*
X140798208Y-74661792D01*
X140811874Y-74678444D01*
X140822030Y-74697444D01*
X140828284Y-74718062D01*
X140831000Y-74745640D01*
X140831000Y-75254360D01*
X140828284Y-75281938D01*
X140822030Y-75302556D01*
X140811874Y-75321556D01*
X140798208Y-75338208D01*
X140781556Y-75351874D01*
X140762556Y-75362030D01*
X140741938Y-75368284D01*
X140714360Y-75371000D01*
X140255640Y-75371000D01*
X140228062Y-75368284D01*
X140207444Y-75362030D01*
X140188444Y-75351874D01*
X140171792Y-75338208D01*
X140158126Y-75321556D01*
X140147970Y-75302556D01*
X140141716Y-75281938D01*
X140139000Y-75254360D01*
X140139000Y-74745640D01*
X140141716Y-74718062D01*
X140147970Y-74697444D01*
X140158126Y-74678444D01*
X140171792Y-74661792D01*
X140188444Y-74648126D01*
X140207444Y-74637970D01*
X140228062Y-74631716D01*
X140255640Y-74629000D01*
X140714360Y-74629000D01*
X140741938Y-74631716D01*
X140741938Y-74631716D01*
G37*
G36*
X139771938Y-74631716D02*
X139792556Y-74637970D01*
X139811556Y-74648126D01*
X139828208Y-74661792D01*
X139841874Y-74678444D01*
X139852030Y-74697444D01*
X139858284Y-74718062D01*
X139861000Y-74745640D01*
X139861000Y-75254360D01*
X139858284Y-75281938D01*
X139852030Y-75302556D01*
X139841874Y-75321556D01*
X139828208Y-75338208D01*
X139811556Y-75351874D01*
X139792556Y-75362030D01*
X139771938Y-75368284D01*
X139744360Y-75371000D01*
X139285640Y-75371000D01*
X139258062Y-75368284D01*
X139237444Y-75362030D01*
X139218444Y-75351874D01*
X139201792Y-75338208D01*
X139188126Y-75321556D01*
X139177970Y-75302556D01*
X139171716Y-75281938D01*
X139169000Y-75254360D01*
X139169000Y-74745640D01*
X139171716Y-74718062D01*
X139177970Y-74697444D01*
X139188126Y-74678444D01*
X139201792Y-74661792D01*
X139218444Y-74648126D01*
X139237444Y-74637970D01*
X139258062Y-74631716D01*
X139285640Y-74629000D01*
X139744360Y-74629000D01*
X139771938Y-74631716D01*
X139771938Y-74631716D01*
G37*
G36*
X139771938Y-73631716D02*
X139792556Y-73637970D01*
X139811556Y-73648126D01*
X139828208Y-73661792D01*
X139841874Y-73678444D01*
X139852030Y-73697444D01*
X139858284Y-73718062D01*
X139861000Y-73745640D01*
X139861000Y-74254360D01*
X139858284Y-74281938D01*
X139852030Y-74302556D01*
X139841874Y-74321556D01*
X139828208Y-74338208D01*
X139811556Y-74351874D01*
X139792556Y-74362030D01*
X139771938Y-74368284D01*
X139744360Y-74371000D01*
X139285640Y-74371000D01*
X139258062Y-74368284D01*
X139237444Y-74362030D01*
X139218444Y-74351874D01*
X139201792Y-74338208D01*
X139188126Y-74321556D01*
X139177970Y-74302556D01*
X139171716Y-74281938D01*
X139169000Y-74254360D01*
X139169000Y-73745640D01*
X139171716Y-73718062D01*
X139177970Y-73697444D01*
X139188126Y-73678444D01*
X139201792Y-73661792D01*
X139218444Y-73648126D01*
X139237444Y-73637970D01*
X139258062Y-73631716D01*
X139285640Y-73629000D01*
X139744360Y-73629000D01*
X139771938Y-73631716D01*
X139771938Y-73631716D01*
G37*
G36*
X140741938Y-73631716D02*
X140762556Y-73637970D01*
X140781556Y-73648126D01*
X140798208Y-73661792D01*
X140811874Y-73678444D01*
X140822030Y-73697444D01*
X140828284Y-73718062D01*
X140831000Y-73745640D01*
X140831000Y-74254360D01*
X140828284Y-74281938D01*
X140822030Y-74302556D01*
X140811874Y-74321556D01*
X140798208Y-74338208D01*
X140781556Y-74351874D01*
X140762556Y-74362030D01*
X140741938Y-74368284D01*
X140714360Y-74371000D01*
X140255640Y-74371000D01*
X140228062Y-74368284D01*
X140207444Y-74362030D01*
X140188444Y-74351874D01*
X140171792Y-74338208D01*
X140158126Y-74321556D01*
X140147970Y-74302556D01*
X140141716Y-74281938D01*
X140139000Y-74254360D01*
X140139000Y-73745640D01*
X140141716Y-73718062D01*
X140147970Y-73697444D01*
X140158126Y-73678444D01*
X140171792Y-73661792D01*
X140188444Y-73648126D01*
X140207444Y-73637970D01*
X140228062Y-73631716D01*
X140255640Y-73629000D01*
X140714360Y-73629000D01*
X140741938Y-73631716D01*
X140741938Y-73631716D01*
G37*
G36*
X129015442Y-71645518D02*
X129081627Y-71652037D01*
X129168679Y-71678444D01*
X129251467Y-71703557D01*
X129372495Y-71768249D01*
X129407991Y-71787222D01*
X129425998Y-71802000D01*
X129545186Y-71899814D01*
X129628448Y-72001271D01*
X129657778Y-72037009D01*
X129657779Y-72037011D01*
X129741443Y-72193533D01*
X129741443Y-72193534D01*
X129792963Y-72363373D01*
X129810359Y-72540000D01*
X129792963Y-72716627D01*
X129767975Y-72799000D01*
X129741443Y-72886467D01*
X129667348Y-73025087D01*
X129657778Y-73042991D01*
X129628448Y-73078729D01*
X129545186Y-73180186D01*
X129454803Y-73254360D01*
X129407991Y-73292778D01*
X129396351Y-73299000D01*
X129251467Y-73376443D01*
X129194853Y-73393616D01*
X129081627Y-73427963D01*
X129015442Y-73434482D01*
X128949260Y-73441000D01*
X128860740Y-73441000D01*
X128794558Y-73434482D01*
X128728373Y-73427963D01*
X128615147Y-73393616D01*
X128558533Y-73376443D01*
X128413649Y-73299000D01*
X128402009Y-73292778D01*
X128355197Y-73254360D01*
X128264814Y-73180186D01*
X128181552Y-73078729D01*
X128152222Y-73042991D01*
X128142652Y-73025087D01*
X128068557Y-72886467D01*
X128042025Y-72799000D01*
X128017037Y-72716627D01*
X127999641Y-72540000D01*
X128017037Y-72363373D01*
X128068557Y-72193534D01*
X128068557Y-72193533D01*
X128152221Y-72037011D01*
X128152222Y-72037009D01*
X128181552Y-72001271D01*
X128264814Y-71899814D01*
X128384002Y-71802000D01*
X128402009Y-71787222D01*
X128437505Y-71768249D01*
X128558533Y-71703557D01*
X128641321Y-71678444D01*
X128728373Y-71652037D01*
X128794558Y-71645518D01*
X128860740Y-71639000D01*
X128949260Y-71639000D01*
X129015442Y-71645518D01*
X129015442Y-71645518D01*
G37*
G36*
X131555442Y-71645518D02*
X131621627Y-71652037D01*
X131708679Y-71678444D01*
X131791467Y-71703557D01*
X131912495Y-71768249D01*
X131947991Y-71787222D01*
X131965998Y-71802000D01*
X132085186Y-71899814D01*
X132168448Y-72001271D01*
X132197778Y-72037009D01*
X132197779Y-72037011D01*
X132281443Y-72193533D01*
X132281443Y-72193534D01*
X132332963Y-72363373D01*
X132350359Y-72540000D01*
X132332963Y-72716627D01*
X132307975Y-72799000D01*
X132281443Y-72886467D01*
X132207348Y-73025087D01*
X132197778Y-73042991D01*
X132168448Y-73078729D01*
X132085186Y-73180186D01*
X131994803Y-73254360D01*
X131947991Y-73292778D01*
X131936351Y-73299000D01*
X131791467Y-73376443D01*
X131734853Y-73393616D01*
X131621627Y-73427963D01*
X131555442Y-73434482D01*
X131489260Y-73441000D01*
X131400740Y-73441000D01*
X131334558Y-73434482D01*
X131268373Y-73427963D01*
X131155147Y-73393616D01*
X131098533Y-73376443D01*
X130953649Y-73299000D01*
X130942009Y-73292778D01*
X130895197Y-73254360D01*
X130804814Y-73180186D01*
X130721552Y-73078729D01*
X130692222Y-73042991D01*
X130682652Y-73025087D01*
X130608557Y-72886467D01*
X130582025Y-72799000D01*
X130557037Y-72716627D01*
X130539641Y-72540000D01*
X130557037Y-72363373D01*
X130608557Y-72193534D01*
X130608557Y-72193533D01*
X130692221Y-72037011D01*
X130692222Y-72037009D01*
X130721552Y-72001271D01*
X130804814Y-71899814D01*
X130924002Y-71802000D01*
X130942009Y-71787222D01*
X130977505Y-71768249D01*
X131098533Y-71703557D01*
X131181321Y-71678444D01*
X131268373Y-71652037D01*
X131334558Y-71645518D01*
X131400740Y-71639000D01*
X131489260Y-71639000D01*
X131555442Y-71645518D01*
X131555442Y-71645518D01*
G37*
G36*
X140741938Y-72631716D02*
X140762556Y-72637970D01*
X140781556Y-72648126D01*
X140798208Y-72661792D01*
X140811874Y-72678444D01*
X140822030Y-72697444D01*
X140828284Y-72718062D01*
X140831000Y-72745640D01*
X140831000Y-73254360D01*
X140828284Y-73281938D01*
X140822030Y-73302556D01*
X140811874Y-73321556D01*
X140798208Y-73338208D01*
X140781556Y-73351874D01*
X140762556Y-73362030D01*
X140741938Y-73368284D01*
X140714360Y-73371000D01*
X140255640Y-73371000D01*
X140228062Y-73368284D01*
X140207444Y-73362030D01*
X140188444Y-73351874D01*
X140171792Y-73338208D01*
X140158126Y-73321556D01*
X140147970Y-73302556D01*
X140141716Y-73281938D01*
X140139000Y-73254360D01*
X140139000Y-72745640D01*
X140141716Y-72718062D01*
X140147970Y-72697444D01*
X140158126Y-72678444D01*
X140171792Y-72661792D01*
X140188444Y-72648126D01*
X140207444Y-72637970D01*
X140228062Y-72631716D01*
X140255640Y-72629000D01*
X140714360Y-72629000D01*
X140741938Y-72631716D01*
X140741938Y-72631716D01*
G37*
G36*
X139771938Y-72631716D02*
X139792556Y-72637970D01*
X139811556Y-72648126D01*
X139828208Y-72661792D01*
X139841874Y-72678444D01*
X139852030Y-72697444D01*
X139858284Y-72718062D01*
X139861000Y-72745640D01*
X139861000Y-73254360D01*
X139858284Y-73281938D01*
X139852030Y-73302556D01*
X139841874Y-73321556D01*
X139828208Y-73338208D01*
X139811556Y-73351874D01*
X139792556Y-73362030D01*
X139771938Y-73368284D01*
X139744360Y-73371000D01*
X139285640Y-73371000D01*
X139258062Y-73368284D01*
X139237444Y-73362030D01*
X139218444Y-73351874D01*
X139201792Y-73338208D01*
X139188126Y-73321556D01*
X139177970Y-73302556D01*
X139171716Y-73281938D01*
X139169000Y-73254360D01*
X139169000Y-72745640D01*
X139171716Y-72718062D01*
X139177970Y-72697444D01*
X139188126Y-72678444D01*
X139201792Y-72661792D01*
X139218444Y-72648126D01*
X139237444Y-72637970D01*
X139258062Y-72631716D01*
X139285640Y-72629000D01*
X139744360Y-72629000D01*
X139771938Y-72631716D01*
X139771938Y-72631716D01*
G37*
G36*
X139771938Y-71631716D02*
X139792556Y-71637970D01*
X139811556Y-71648126D01*
X139828208Y-71661792D01*
X139841874Y-71678444D01*
X139852030Y-71697444D01*
X139858284Y-71718062D01*
X139861000Y-71745640D01*
X139861000Y-72254360D01*
X139858284Y-72281938D01*
X139852030Y-72302556D01*
X139841874Y-72321556D01*
X139828208Y-72338208D01*
X139811556Y-72351874D01*
X139792556Y-72362030D01*
X139771938Y-72368284D01*
X139744360Y-72371000D01*
X139285640Y-72371000D01*
X139258062Y-72368284D01*
X139237444Y-72362030D01*
X139218444Y-72351874D01*
X139201792Y-72338208D01*
X139188126Y-72321556D01*
X139177970Y-72302556D01*
X139171716Y-72281938D01*
X139169000Y-72254360D01*
X139169000Y-71745640D01*
X139171716Y-71718062D01*
X139177970Y-71697444D01*
X139188126Y-71678444D01*
X139201792Y-71661792D01*
X139218444Y-71648126D01*
X139237444Y-71637970D01*
X139258062Y-71631716D01*
X139285640Y-71629000D01*
X139744360Y-71629000D01*
X139771938Y-71631716D01*
X139771938Y-71631716D01*
G37*
G36*
X140741938Y-71631716D02*
X140762556Y-71637970D01*
X140781556Y-71648126D01*
X140798208Y-71661792D01*
X140811874Y-71678444D01*
X140822030Y-71697444D01*
X140828284Y-71718062D01*
X140831000Y-71745640D01*
X140831000Y-72254360D01*
X140828284Y-72281938D01*
X140822030Y-72302556D01*
X140811874Y-72321556D01*
X140798208Y-72338208D01*
X140781556Y-72351874D01*
X140762556Y-72362030D01*
X140741938Y-72368284D01*
X140714360Y-72371000D01*
X140255640Y-72371000D01*
X140228062Y-72368284D01*
X140207444Y-72362030D01*
X140188444Y-72351874D01*
X140171792Y-72338208D01*
X140158126Y-72321556D01*
X140147970Y-72302556D01*
X140141716Y-72281938D01*
X140139000Y-72254360D01*
X140139000Y-71745640D01*
X140141716Y-71718062D01*
X140147970Y-71697444D01*
X140158126Y-71678444D01*
X140171792Y-71661792D01*
X140188444Y-71648126D01*
X140207444Y-71637970D01*
X140228062Y-71631716D01*
X140255640Y-71629000D01*
X140714360Y-71629000D01*
X140741938Y-71631716D01*
X140741938Y-71631716D01*
G37*
G36*
X129015443Y-69105519D02*
X129081627Y-69112037D01*
X129194853Y-69146384D01*
X129251467Y-69163557D01*
X129334648Y-69208019D01*
X129407991Y-69247222D01*
X129443729Y-69276552D01*
X129545186Y-69359814D01*
X129628448Y-69461271D01*
X129657778Y-69497009D01*
X129657779Y-69497011D01*
X129741443Y-69653533D01*
X129741443Y-69653534D01*
X129792963Y-69823373D01*
X129810359Y-70000000D01*
X129792963Y-70176627D01*
X129762356Y-70277525D01*
X129741443Y-70346467D01*
X129719737Y-70387075D01*
X129657778Y-70502991D01*
X129628448Y-70538729D01*
X129545186Y-70640186D01*
X129443729Y-70723448D01*
X129407991Y-70752778D01*
X129407989Y-70752779D01*
X129251467Y-70836443D01*
X129194853Y-70853616D01*
X129081627Y-70887963D01*
X129015442Y-70894482D01*
X128949260Y-70901000D01*
X128860740Y-70901000D01*
X128794558Y-70894482D01*
X128728373Y-70887963D01*
X128615147Y-70853616D01*
X128558533Y-70836443D01*
X128402011Y-70752779D01*
X128402009Y-70752778D01*
X128366271Y-70723448D01*
X128264814Y-70640186D01*
X128181552Y-70538729D01*
X128152222Y-70502991D01*
X128090263Y-70387075D01*
X128068557Y-70346467D01*
X128047644Y-70277525D01*
X128017037Y-70176627D01*
X127999641Y-70000000D01*
X128017037Y-69823373D01*
X128068557Y-69653534D01*
X128068557Y-69653533D01*
X128152221Y-69497011D01*
X128152222Y-69497009D01*
X128181552Y-69461271D01*
X128264814Y-69359814D01*
X128366271Y-69276552D01*
X128402009Y-69247222D01*
X128475352Y-69208019D01*
X128558533Y-69163557D01*
X128615147Y-69146384D01*
X128728373Y-69112037D01*
X128794557Y-69105519D01*
X128860740Y-69099000D01*
X128949260Y-69099000D01*
X129015443Y-69105519D01*
X129015443Y-69105519D01*
G37*
G36*
X132346000Y-70901000D02*
X130544000Y-70901000D01*
X130544000Y-69099000D01*
X132346000Y-69099000D01*
X132346000Y-70901000D01*
X132346000Y-70901000D01*
G37*
G36*
X144791981Y-68537468D02*
X144974150Y-68612925D01*
X145138103Y-68722475D01*
X145277525Y-68861897D01*
X145387075Y-69025850D01*
X145462532Y-69208019D01*
X145501000Y-69401410D01*
X145501000Y-69598590D01*
X145462532Y-69791981D01*
X145387075Y-69974150D01*
X145277525Y-70138103D01*
X145138103Y-70277525D01*
X144974150Y-70387075D01*
X144791981Y-70462532D01*
X144598590Y-70501000D01*
X144401410Y-70501000D01*
X144208019Y-70462532D01*
X144025850Y-70387075D01*
X143861897Y-70277525D01*
X143722475Y-70138103D01*
X143612925Y-69974150D01*
X143537468Y-69791981D01*
X143499000Y-69598590D01*
X143499000Y-69401410D01*
X143537468Y-69208019D01*
X143612925Y-69025850D01*
X143722475Y-68861897D01*
X143861897Y-68722475D01*
X144025850Y-68612925D01*
X144208019Y-68537468D01*
X144401410Y-68499000D01*
X144598590Y-68499000D01*
X144791981Y-68537468D01*
X144791981Y-68537468D01*
G37*
G36*
X149691981Y-67937468D02*
X149874150Y-68012925D01*
X150038103Y-68122475D01*
X150177525Y-68261897D01*
X150287075Y-68425850D01*
X150362532Y-68608019D01*
X150401000Y-68801410D01*
X150401000Y-68998590D01*
X150362532Y-69191981D01*
X150287075Y-69374150D01*
X150177525Y-69538103D01*
X150038103Y-69677525D01*
X149874150Y-69787075D01*
X149691981Y-69862532D01*
X149498590Y-69901000D01*
X149301410Y-69901000D01*
X149108019Y-69862532D01*
X148925850Y-69787075D01*
X148761897Y-69677525D01*
X148622475Y-69538103D01*
X148512925Y-69374150D01*
X148437468Y-69191981D01*
X148399000Y-68998590D01*
X148399000Y-68801410D01*
X148437468Y-68608019D01*
X148512925Y-68425850D01*
X148622475Y-68261897D01*
X148761897Y-68122475D01*
X148925850Y-68012925D01*
X149108019Y-67937468D01*
X149301410Y-67899000D01*
X149498590Y-67899000D01*
X149691981Y-67937468D01*
X149691981Y-67937468D01*
G37*
M02*
